<?xml version="1.0" encoding="utf-8"?>
<!-- Generator: Adobe Illustrator 25.0.1, SVG Export Plug-In . SVG Version: 6.00 Build 0)  -->
<svg version="1.1" id="Calque_2_1_" xmlns="http://www.w3.org/2000/svg" xmlns:xlink="http://www.w3.org/1999/xlink" x="0px"
	 y="0px" viewBox="0 0 112.176 111.574" enable-background="new 0 0 112.176 111.574" xml:space="preserve">
<g>
	<g>
		<path fill="#FFFFFF" d="M93.272,13.514c0-2.576-2.088-4.664-4.664-4.664H74.617H65.29H51.3h-9.327H27.982h-9.327H4.664
			C2.088,8.85,0,10.938,0,13.514v9.327h93.272V13.514z"/>
	</g>
	<path fill="#FFFFFF" d="M83.945,55.486c-15.454,0-27.981,12.528-27.981,27.981s12.528,27.982,27.981,27.982
		c15.454,0,27.982-12.528,27.982-27.982C111.908,68.022,99.391,55.504,83.945,55.486z M98.494,74.341L84.792,96.042
		c-0.663,1.05-1.798,1.709-3.039,1.765c-0.058,0.004-0.116,0.004-0.172,0.004c-1.178,0-2.295-0.547-3.016-1.488l-10.04-13.112
		c-1.274-1.664-0.958-4.049,0.708-5.324c1.662-1.274,4.045-0.96,5.324,0.708l6.723,8.783l10.793-17.092
		c1.117-1.77,3.466-2.301,5.238-1.182C99.084,70.221,99.614,72.567,98.494,74.341z"/>
	<g>
		<path fill="#FFFFFF" d="M22.626,21.323c-2.112,0-3.825-1.713-3.825-3.825V3.825C18.801,1.713,20.514,0,22.626,0
			s3.825,1.713,3.825,3.825v13.673C26.451,19.611,24.738,21.323,22.626,21.323z"/>
		<path fill="#FFFFFF" d="M70.441,21.323c-2.112,0-3.825-1.713-3.825-3.825V3.825C66.616,1.713,68.329,0,70.441,0
			s3.825,1.713,3.825,3.825v13.673C74.266,19.611,72.553,21.323,70.441,21.323z"/>
		<path fill="#FFFFFF" d="M46.535,21.323c-2.112,0-3.825-1.713-3.825-3.825V3.825C42.71,1.713,44.423,0,46.535,0
			s3.825,1.713,3.825,3.825v13.673C50.359,19.611,48.647,21.323,46.535,21.323z"/>
	</g>
	<path fill="#FFFFFF" d="M0,27.505v60.627c0,2.576,2.088,4.664,4.664,4.664h48.012c-5.175-17.246,4.612-35.422,21.859-40.597
		c3.053-0.916,6.224-1.379,9.411-1.375c3.159,0.003,6.301,0.466,9.327,1.376V27.506H0V27.505z M28.592,82.283
		c0,0.396-0.321,0.717-0.717,0.717H18.56c-0.396,0-0.717-0.321-0.717-0.717v-9.317c0-0.396,0.321-0.717,0.717-0.717h9.315
		c0.396,0,0.717,0.321,0.717,0.717V82.283z M28.592,64.721c0,0.396-0.321,0.717-0.717,0.717H18.56c-0.396,0-0.717-0.321-0.717-0.717
		v-9.315c0-0.396,0.321-0.717,0.717-0.717h9.315c0.396,0,0.717,0.321,0.717,0.717V64.721z M28.592,47.16
		c0,0.396-0.321,0.717-0.717,0.717H18.56c-0.396,0-0.717-0.321-0.717-0.717v-9.316c0-0.396,0.321-0.717,0.717-0.717h9.315
		c0.396,0,0.717,0.321,0.717,0.717V47.16z M52.093,64.721c0,0.396-0.321,0.717-0.717,0.717h-9.315c-0.396,0-0.717-0.321-0.717-0.717
		v-9.315c0-0.396,0.321-0.717,0.717-0.717h9.315c0.396,0,0.717,0.321,0.717,0.717V64.721z M52.093,47.16
		c0,0.396-0.321,0.717-0.717,0.717h-9.315c-0.396,0-0.717-0.321-0.717-0.717v-9.316c0-0.396,0.321-0.717,0.717-0.717h9.315
		c0.396,0,0.717,0.321,0.717,0.717V47.16z M75.273,47.16c0,0.396-0.321,0.717-0.717,0.717h-9.317c-0.396,0-0.717-0.321-0.717-0.717
		v-9.316c0-0.396,0.321-0.717,0.717-0.717h9.317c0.396,0,0.717,0.321,0.717,0.717V47.16z"/>
</g>
</svg>
