<?xml version="1.0" encoding="utf-8"?>
<!-- Generator: Adobe Illustrator 25.0.1, SVG Export Plug-In . SVG Version: 6.00 Build 0)  -->
<svg version="1.1" id="Calque_1" xmlns="http://www.w3.org/2000/svg" xmlns:xlink="http://www.w3.org/1999/xlink" x="0px" y="0px"
	 viewBox="0 0 171.056 100.556" enable-background="new 0 0 171.056 100.556" xml:space="preserve">
<g>
	<path fill="#FFFFFF" d="M82.365,56.423v1.285c0,4.095,0.797,7.26,2.392,9.495c1.596,2.235,3.81,3.353,6.642,3.353
		c2.866,0,5.071-1.092,6.616-3.276c1.544-2.184,2.315-5.374,2.315-9.572v-1.945c0-3.009-0.419-5.5-1.248-7.485L82.365,56.423z"/>
	<path fill="#FFFFFF" d="M91.348,42.967c-2.799,0-4.987,1.097-6.565,3.289c-0.816,1.133-1.421,2.515-1.824,4.133l12.811-6.242
		C94.525,43.367,93.055,42.967,91.348,42.967z"/>
	<path fill="#FFFFFF" d="M58.67,70.659c2.541,0,4.453-0.571,5.732-1.715c1.144-1.022,1.91-2.655,2.305-4.891l-11.807,5.753
		C55.978,70.371,57.233,70.659,58.67,70.659z"/>
	<path fill="#FFFFFF" d="M145.057,40.379c-2.243-14.354-14.686-25.37-29.66-25.37c-5.633,0-11.046,1.559-15.741,4.465
		C92.513,7.47,79.655,0,65.369,0C43.302,0,25.347,17.954,25.347,40.022c0,0.137,0,0.279,0.005,0.415
		C11.169,42.826,0,55.192,0,70.039c0,16.552,13.798,30.016,30.35,30.016h110.061c16.552,0,30.35-13.464,30.35-30.016
		C170.761,55.065,159.411,42.621,145.057,40.379z M106.805,57.709c0,3.651-0.631,6.855-1.893,9.61
		c-1.263,2.756-3.067,4.871-5.413,6.347c-2.347,1.476-5.046,2.214-8.1,2.214c-3.019,0-5.711-0.738-8.074-2.214
		c-2.364-1.476-4.189-3.578-5.478-6.309c-1.086-2.303-1.716-4.908-1.897-7.808l-7.568,3.687h4.902
		c-0.375,3.975-1.842,7.076-4.402,9.303c-2.559,2.227-5.964,3.34-10.211,3.34c-2.969,0-5.584-0.704-7.845-2.111
		c-0.573-0.357-1.112-0.754-1.62-1.188l-12.901,6.286l-2.262-4.643l11.912-5.804c-0.117-0.221-0.253-0.422-0.362-0.653
		c-1.228-2.593-1.869-5.605-1.919-9.035v-3.48c0-3.515,0.622-6.611,1.868-9.29c1.245-2.679,3.032-4.743,5.36-6.194
		c2.33-1.45,5.021-2.175,8.076-2.175c4.111,0,7.422,1.113,9.93,3.34c2.508,2.227,3.966,5.379,4.376,9.456h-6.449
		c-0.307-2.678-1.089-4.61-2.343-5.797c-1.254-1.185-3.092-1.779-5.514-1.779c-2.815,0-4.978,1.029-6.488,3.087
		c-1.51,2.058-2.282,5.076-2.316,9.055v3.304c0,3.048,0.414,5.547,1.238,7.501l24.556-11.965c0.198-2.813,0.811-5.351,1.855-7.604
		c1.287-2.78,3.105-4.909,5.45-6.385c2.347-1.475,5.037-2.214,8.076-2.214c3.035,0,5.727,0.729,8.074,2.188
		c0.742,0.461,1.424,0.994,2.059,1.584l15.854-7.725l2.262,4.643l-14.987,7.302c0.083,0.164,0.17,0.323,0.249,0.492
		c1.28,2.739,1.928,5.925,1.945,9.559V57.709z M122.246,83.072h-14.151v-1.939l3.302-3.092c4.35-3.931,6.603-6.394,6.603-9.067
		c0-1.992-1.257-3.669-3.982-3.669c-1.835,0-3.408,0.944-4.404,1.625l-1.1-2.359c1.415-1.206,3.773-2.202,6.394-2.202
		c4.927,0,6.971,3.093,6.971,5.923c0,3.931-2.988,6.813-6.971,10.325l-1.625,1.468v0.105h8.963V83.072z"/>
</g>
</svg>
