<svg xmlns="http://www.w3.org/2000/svg" xmlns:xlink="http://www.w3.org/1999/xlink" viewBox="0 0 195.14 79.07">
  <defs>
    <linearGradient id="linear-gradient" x1="90.35" x2="89.42" y1="17.86" y2="55.86" gradientUnits="userSpaceOnUse">
      <stop offset="0" stop-color="#e7344d"/>
      <stop offset="1" stop-color="#c30734"/>
    </linearGradient>
    <linearGradient id="linear-gradient-2" x1="107.32" x2="106.39" y1="18.28" y2="56.27" xlink:href="#linear-gradient"/>
    <linearGradient id="linear-gradient-3" x1="126.71" x2="125.78" y1="18.75" y2="56.75" xlink:href="#linear-gradient"/>
    <linearGradient id="linear-gradient-4" x1="38.95" x2="38.95" y1="48.46" y2="-.95" gradientUnits="userSpaceOnUse">
      <stop offset="0" stop-color="#878787"/>
      <stop offset="1" stop-color="#b3b2b2"/>
    </linearGradient>
    <linearGradient id="linear-gradient-5" x1="139.53" x2="139.53" y1="72.12" y2="84.36" gradientTransform="matrix(-.71 -.7 -.7 .71 185.47 75.36)" xlink:href="#linear-gradient"/>
    <linearGradient id="linear-gradient-6" x1="140.22" x2="140.22" y1="72.12" y2="84.36" gradientTransform="matrix(-.71 -.7 -.7 .71 185.47 75.36)" xlink:href="#linear-gradient"/>
    <linearGradient id="linear-gradient-7" x1="139.68" x2="139.68" y1="72.12" y2="84.36" gradientTransform="matrix(-.71 -.7 -.7 .71 185.47 75.36)" xlink:href="#linear-gradient"/>
    <linearGradient id="linear-gradient-8" x1="139.62" x2="139.62" y1="72.12" y2="84.36" gradientTransform="matrix(-.71 -.7 -.7 .71 185.47 75.36)" xlink:href="#linear-gradient"/>
    <linearGradient id="linear-gradient-9" x1="139.54" x2="139.54" y1="72.12" y2="84.36" gradientTransform="matrix(-.71 -.7 -.7 .71 185.47 75.36)" xlink:href="#linear-gradient"/>
    <linearGradient id="linear-gradient-10" x1="37.57" x2="37.57" y1="27.06" y2="39.31" xlink:href="#linear-gradient"/>
    <linearGradient id="linear-gradient-11" x1="87.16" x2="86.19" y1="19.71" y2="54.44" xlink:href="#linear-gradient"/>
    <linearGradient id="linear-gradient-12" x1="95.96" x2="94.99" y1="19.96" y2="54.68" xlink:href="#linear-gradient"/>
    <linearGradient id="linear-gradient-13" x1="104.66" x2="103.69" y1="20.2" y2="54.93" xlink:href="#linear-gradient"/>
    <linearGradient id="linear-gradient-14" x1="112.34" x2="111.37" y1="20.42" y2="55.14" xlink:href="#linear-gradient"/>
    <linearGradient id="linear-gradient-15" x1="119.06" x2="118.09" y1="20.61" y2="55.33" xlink:href="#linear-gradient"/>
    <linearGradient id="linear-gradient-16" x1="125.27" x2="124.29" y1="20.78" y2="55.5" xlink:href="#linear-gradient"/>
    <linearGradient id="linear-gradient-17" x1="131.88" x2="130.91" y1="20.96" y2="55.69" xlink:href="#linear-gradient"/>
    <linearGradient id="linear-gradient-18" x1="144.15" x2="143.18" y1="21.31" y2="56.03" xlink:href="#linear-gradient"/>
    <linearGradient id="linear-gradient-19" x1="152.1" x2="151.12" y1="21.53" y2="56.25" xlink:href="#linear-gradient"/>
    <linearGradient id="linear-gradient-20" x1="161.12" x2="160.15" y1="21.78" y2="56.51" xlink:href="#linear-gradient"/>
    <linearGradient id="linear-gradient-21" x1="169.3" x2="168.33" y1="22.01" y2="56.73" xlink:href="#linear-gradient"/>
    <linearGradient id="linear-gradient-22" x1="177.03" x2="176.06" y1="22.23" y2="56.95" xlink:href="#linear-gradient"/>
    <linearGradient id="linear-gradient-23" x1="185.95" x2="184.98" y1="22.47" y2="57.19" xlink:href="#linear-gradient"/>
    <linearGradient id="linear-gradient-24" x1="193.19" x2="192.22" y1="22.68" y2="57.4" xlink:href="#linear-gradient"/>
    <radialGradient id="Nouvelle_nuance_de_dégradé_3" cx="19.02" cy="-217.26" r="26.16" gradientTransform="matrix(1.47 0 0 .16 10.48 110.44)" gradientUnits="userSpaceOnUse">
      <stop offset="0" stop-color="#fff"/>
      <stop offset=".19" stop-color="#d3d3d3"/>
      <stop offset=".62" stop-color="#666"/>
      <stop offset="1"/>
    </radialGradient>
    <radialGradient id="Nouvelle_nuance_de_dégradé_1" cx="19.02" cy="-217.26" r="26.16" gradientTransform="matrix(1.47 0 0 .16 10.48 110.44)" gradientUnits="userSpaceOnUse">
      <stop offset="0" stop-color="#dadada"/>
      <stop offset="1" stop-color="#fff"/>
    </radialGradient>
    <filter id="luminosity-noclip" width="77.02" height="32766" x="0" y="-8232.93" color-interpolation-filters="sRGB" filterUnits="userSpaceOnUse">
      <feFlood flood-color="#fff" result="bg"/>
      <feBlend in="SourceGraphic" in2="bg"/>
    </filter>
    <filter id="luminosity-noclip-2" width="77.02" height="8.57" x="0" y="70.5" color-interpolation-filters="sRGB" filterUnits="userSpaceOnUse">
      <feFlood flood-color="#fff" result="bg"/>
      <feBlend in="SourceGraphic" in2="bg"/>
    </filter>
    <style>
      .cls-8{fill:#878787}
    </style>
    <mask id="mask-2" width="77.02" height="8.57" x="0" y="70.5" maskUnits="userSpaceOnUse">
      <g filter="url(#luminosity-noclip-2)" mask="url(#mask)">
        <path d="M77 74.79c0 2.36-17.24 4.28-38.51 4.28S0 77.15 0 74.79s17.24-4.29 38.51-4.29S77 72.42 77 74.79z" style="mix-blend-mode:multiply" fill="url(#Nouvelle_nuance_de_dégradé_3)"/>
      </g>
    </mask>
  </defs>
  <g id="Calque_2" data-name="Calque 2">
    <g id="Calque_1-2" data-name="Calque 1">
      <path fill="url(#linear-gradient)" d="M97.28 22.91a1.25 1.25 0 01-.11.53 1 1 0 01-.27.39 1.06 1.06 0 01-.42.22 1.55 1.55 0 01-.48.07h-1.44a3 3 0 01-.78-.09 1.71 1.71 0 01-.61-.32 3 3 0 01-.53-.65 11.22 11.22 0 01-.58-1l-4.15-7.79c-.24-.47-.49-1-.73-1.51s-.48-1.05-.67-1.56c0 .62.06 1.23.08 1.85s0 1.25 0 1.9v8.72a.35.35 0 01-.07.23.58.58 0 01-.24.18 2.18 2.18 0 01-.47.11 7.15 7.15 0 01-1.51 0 1.82 1.82 0 01-.46-.11.52.52 0 01-.24-.18.41.41 0 01-.06-.23v-15a1.14 1.14 0 01.35-.91 1.31 1.31 0 01.87-.3h1.82a3.2 3.2 0 01.82.08 1.66 1.66 0 01.6.28 2 2 0 01.5.53 9.63 9.63 0 01.48.84l3.24 6.1.56 1.09c.19.35.37.71.54 1.07s.34.7.5 1l.48 1c0-.6 0-1.23-.06-1.88s0-1.28 0-1.87V7.93a.36.36 0 01.08-.23.6.6 0 01.26-.18 1.42 1.42 0 01.42-.11 5.26 5.26 0 01.76 0 5.07 5.07 0 01.73 0 1.24 1.24 0 01.46.11.51.51 0 01.22.18.35.35 0 01.07.23z"/>
      <path fill="url(#linear-gradient-2)" d="M112.32 22.77a5.53 5.53 0 010 .63 1.7 1.7 0 01-.09.4.53.53 0 01-.23.2.31.31 0 01-.21.07h-8.37a.94.94 0 01-1-1.07V8.49a1 1 0 01.29-.81 1 1 0 01.72-.25h8.32a.37.37 0 01.21.06.46.46 0 01.15.23 1.63 1.63 0 01.1.41 5.6 5.6 0 010 .64 5.28 5.28 0 010 .61 1.66 1.66 0 01-.1.4.51.51 0 01-.11.22.31.31 0 01-.21.07h-6v4.07h5a.44.44 0 01.21.07.55.55 0 01.16.22 2.1 2.1 0 01.1.4 5.28 5.28 0 010 .61 5.22 5.22 0 010 .62 2 2 0 01-.1.39.55.55 0 01-.16.22.42.42 0 01-.21.06h-5v4.7h6a.32.32 0 01.21.08.5.5 0 01.17.22 1.68 1.68 0 01.09.41 5.22 5.22 0 01.06.63z"/>
      <path fill="url(#linear-gradient-3)" d="M134.39 23.24a1.39 1.39 0 01-.21.49.82.82 0 01-.4.29 3 3 0 01-.7.12 10.72 10.72 0 01-1.08 0h-1.18a2.71 2.71 0 01-.7-.12.72.72 0 01-.38-.29 2 2 0 01-.18-.49l-2.67-10.57-2.53 10.57a1.5 1.5 0 01-.18.48.76.76 0 01-.36.29 2.29 2.29 0 01-.69.13h-2.33a2.71 2.71 0 01-.7-.12.69.69 0 01-.37-.29 1.61 1.61 0 01-.2-.49l-3.81-14.55a5 5 0 01-.13-.73.54.54 0 01.15-.41 1 1 0 01.53-.17h2a1.64 1.64 0 01.53.09.38.38 0 01.24.2 1.34 1.34 0 01.11.38l2.92 12.77 3-12.68a1.71 1.71 0 01.13-.4.53.53 0 01.29-.23 1.67 1.67 0 01.54-.12H127.96a2.12 2.12 0 01.56.11.59.59 0 01.29.24 1.48 1.48 0 01.15.41l3.14 12.68 2.92-12.73a2.47 2.47 0 01.1-.35.47.47 0 01.25-.23 1.47 1.47 0 01.51-.12h1.83a.72.72 0 01.45.17.52.52 0 01.13.42 5.52 5.52 0 01-.14.76z"/>
      <g mask="url(#mask-2)">
        <path fill="url(#Nouvelle_nuance_de_dégradé_1)" d="M77 74.79c0 2.36-17.24 4.28-38.51 4.28S0 77.15 0 74.79s17.24-4.29 38.51-4.29S77 72.42 77 74.79z"/>
      </g>
      <path d="M86.4 51.74a.62.62 0 00-.26-.51 1.87 1.87 0 00-.77-.3 3.52 3.52 0 01-.79-.25 1.16 1.16 0 01-.43-.34.89.89 0 01-.13-.5.9.9 0 01.38-.75 1.53 1.53 0 011-.3 1.61 1.61 0 011 .32 1 1 0 01.39.83h-.43a.72.72 0 00-.28-.56 1.13 1.13 0 00-.72-.23 1.17 1.17 0 00-.68.19.58.58 0 00-.25.49.54.54 0 00.21.45 2.42 2.42 0 00.77.29 3.8 3.8 0 01.85.28 1.12 1.12 0 01.41.36.93.93 0 01.14.51.9.9 0 01-.4.78 1.64 1.64 0 01-1 .3 1.71 1.71 0 01-1.09-.33 1 1 0 01-.42-.83h.43a.74.74 0 00.31.59 1.3 1.3 0 00.77.21 1.26 1.26 0 00.73-.2.6.6 0 00.26-.5zM91.19 50.83a2.32 2.32 0 01-.4 1.44 1.28 1.28 0 01-1.07.53 1.44 1.44 0 01-1.22-.56v2h-.42v-5.38h.39v.55a1.34 1.34 0 011.21-.62 1.3 1.3 0 011.09.52 2.41 2.41 0 01.39 1.46zm-.43-.07a2 2 0 00-.3-1.17 1 1 0 00-.85-.43 1.13 1.13 0 00-.67.19 1.21 1.21 0 00-.44.55v1.85a1.11 1.11 0 00.44.51 1.25 1.25 0 00.68.18 1 1 0 00.84-.43 2.2 2.2 0 00.3-1.25zM93.93 52.8a1.59 1.59 0 01-.89-.25 1.55 1.55 0 01-.62-.67 2.11 2.11 0 01-.23-1v-.15a2.3 2.3 0 01.22-1A1.75 1.75 0 0193 49a1.5 1.5 0 01.84-.25 1.38 1.38 0 011.11.48 1.93 1.93 0 01.42 1.31v.24h-2.75v.08A1.59 1.59 0 0093 52a1.19 1.19 0 00.94.44 1.31 1.31 0 00.61-.13 1.46 1.46 0 00.48-.4l.27.2a1.57 1.57 0 01-1.37.69zm-.08-3.65a1.06 1.06 0 00-.81.36 1.57 1.57 0 00-.41 1H95v-.05a1.43 1.43 0 00-.32-.91 1 1 0 00-.83-.4zm.47-1.91h.52l-.82 1h-.38zM97.93 52.44a1.17 1.17 0 00.75-.25.92.92 0 00.33-.66h.41a1.26 1.26 0 01-.22.65 1.48 1.48 0 01-.54.45 1.66 1.66 0 01-.73.17 1.49 1.49 0 01-1.2-.53 2.12 2.12 0 01-.45-1.42v-.13a2.46 2.46 0 01.2-1 1.5 1.5 0 01.58-.68 1.56 1.56 0 01.87-.24 1.52 1.52 0 011 .38 1.39 1.39 0 01.44 1H99a1.06 1.06 0 00-.33-.73 1.09 1.09 0 00-.75-.28 1.06 1.06 0 00-.9.42 1.91 1.91 0 00-.32 1.17v.13A1.85 1.85 0 0097 52a1.06 1.06 0 00.93.44zM100.54 47.74a.3.3 0 01.08-.2.25.25 0 01.21-.08.27.27 0 01.22.08.3.3 0 01.08.2.32.32 0 01-.08.21.31.31 0 01-.22.08.29.29 0 01-.21-.08.32.32 0 01-.08-.21zm.5 5h-.43v-3.88h.39zM104.94 52.73a2.14 2.14 0 01-.09-.54 1.5 1.5 0 01-.57.45 1.86 1.86 0 01-.74.16 1.33 1.33 0 01-.9-.31 1.08 1.08 0 01.13-1.68 2.25 2.25 0 011.31-.33h.77V50a.84.84 0 00-.25-.65 1.06 1.06 0 00-.75-.24 1.19 1.19 0 00-.74.23.68.68 0 00-.29.55h-.43a1 1 0 01.43-.8 1.62 1.62 0 011.05-.34 1.54 1.54 0 011 .32 1.18 1.18 0 01.39.9v1.83a2.19 2.19 0 00.12.84zm-1.35-.31a1.41 1.41 0 00.77-.21 1.24 1.24 0 00.49-.55v-.85h-.76a1.87 1.87 0 00-1 .23.7.7 0 00-.36.62.68.68 0 00.24.54.87.87 0 00.62.22zM107.19 52.73h-.43v-5.49h.43zM108.62 47.74a.26.26 0 01.08-.2.25.25 0 01.21-.08.29.29 0 01.22.08.3.3 0 01.08.2.32.32 0 01-.08.21.33.33 0 01-.22.08.29.29 0 01-.21-.08.28.28 0 01-.08-.21zm.5 5h-.43v-3.88h.43zM112.89 51.74a.62.62 0 00-.26-.51 1.87 1.87 0 00-.77-.3 3.35 3.35 0 01-.79-.25 1.16 1.16 0 01-.43-.34.89.89 0 01-.14-.5.91.91 0 01.39-.75 1.53 1.53 0 011-.3 1.63 1.63 0 011 .32 1 1 0 01.39.83h-.43a.7.7 0 00-.29-.56 1.1 1.1 0 00-.71-.23 1.14 1.14 0 00-.68.19.59.59 0 00-.26.49.52.52 0 00.22.45 2.42 2.42 0 00.77.29 3.52 3.52 0 01.84.28 1.08 1.08 0 01.42.36.93.93 0 01.14.51.9.9 0 01-.4.78 1.64 1.64 0 01-1 .3 1.71 1.71 0 01-1.09-.33 1 1 0 01-.42-.83h.43a.74.74 0 00.31.59 1.3 1.3 0 00.77.21 1.2 1.2 0 00.72-.2.58.58 0 00.27-.5zM115.24 47.87v1h.8v.35h-.8v2.58a.81.81 0 00.11.48.47.47 0 00.39.16h.35v.35a1.36 1.36 0 01-.45.06.75.75 0 01-.64-.26 1.16 1.16 0 01-.2-.75v-2.63h-.71v-.35h.71v-1zM118.71 52.8a1.62 1.62 0 01-.89-.25 1.67 1.67 0 01-.62-.67 2.11 2.11 0 01-.22-1v-.15a2.16 2.16 0 01.22-1 1.67 1.67 0 01.6-.71 1.45 1.45 0 01.83-.25 1.4 1.4 0 011.12.48 2 2 0 01.41 1.31v.24h-2.75v.08a1.63 1.63 0 00.37 1.1 1.21 1.21 0 001 .44 1.26 1.26 0 00.6-.13 1.29 1.29 0 00.48-.4l.27.2a1.55 1.55 0 01-1.42.71zm-.08-3.65a1.06 1.06 0 00-.81.36 1.63 1.63 0 00-.4 1h2.32v-.05a1.43 1.43 0 00-.32-.91 1 1 0 00-.79-.4zM123.6 51.74a.61.61 0 00-.25-.51 1.93 1.93 0 00-.77-.3 3.46 3.46 0 01-.8-.25 1 1 0 01-.42-.34.82.82 0 01-.14-.5.93.93 0 01.38-.75 1.55 1.55 0 011-.3 1.61 1.61 0 011 .32 1 1 0 01.39.83h-.43a.69.69 0 00-.28-.56 1.13 1.13 0 00-.72-.23 1.17 1.17 0 00-.68.19.58.58 0 00-.25.49.54.54 0 00.21.45 2.4 2.4 0 00.78.29 3.87 3.87 0 01.84.28 1.08 1.08 0 01.42.36 1 1 0 01-.26 1.29 1.68 1.68 0 01-1 .3 1.74 1.74 0 01-1.1-.33 1 1 0 01-.42-.83h.43a.77.77 0 00.31.59 1.33 1.33 0 00.78.21 1.25 1.25 0 00.72-.2.6.6 0 00.26-.5zM127.18 50.76a2.34 2.34 0 01.41-1.44 1.29 1.29 0 011.09-.53 1.32 1.32 0 011.19.62v-2.17h.43v5.49h-.4v-.52a1.4 1.4 0 01-1.21.59 1.31 1.31 0 01-1.08-.54 2.36 2.36 0 01-.41-1.45zm.44.07a2.09 2.09 0 00.29 1.17 1 1 0 00.84.43 1.15 1.15 0 001.12-.7v-1.82a1.14 1.14 0 00-1.11-.75 1 1 0 00-.84.42 2.18 2.18 0 00-.3 1.25zM133.21 52.8a1.62 1.62 0 01-.89-.25 1.67 1.67 0 01-.62-.67 2.11 2.11 0 01-.22-1v-.15a2.16 2.16 0 01.22-1 1.67 1.67 0 01.6-.71 1.45 1.45 0 01.83-.25 1.4 1.4 0 011.12.48 2 2 0 01.41 1.31v.24h-2.75v.08a1.63 1.63 0 00.37 1.1 1.21 1.21 0 00.95.44 1.26 1.26 0 00.6-.13 1.29 1.29 0 00.48-.4l.27.2a1.55 1.55 0 01-1.37.71zm-.08-3.65a1.06 1.06 0 00-.81.36 1.63 1.63 0 00-.4 1h2.32v-.05a1.43 1.43 0 00-.32-.91 1 1 0 00-.79-.4zM138.34 52.73h-.43v-5.49h.43zM139.71 48.8l-.25-.19a1.58 1.58 0 00.33-.9v-.47h.42v.36a1.55 1.55 0 01-.5 1.2zM141.36 47.74a.3.3 0 01.08-.2.25.25 0 01.21-.08.27.27 0 01.22.08.3.3 0 01.08.2.32.32 0 01-.08.21.31.31 0 01-.22.08.29.29 0 01-.21-.08.32.32 0 01-.08-.21zm.5 5h-.43v-3.88h.43zM143.73 48.86v.66a1.47 1.47 0 01.54-.54 1.39 1.39 0 01.72-.19 1.16 1.16 0 01.92.35 1.51 1.51 0 01.31 1v2.54h-.42v-2.49a1.21 1.21 0 00-.22-.78.87.87 0 00-.69-.25 1.08 1.08 0 00-.71.25 1.47 1.47 0 00-.45.67v2.65h-.42v-3.87zM147.46 50.76a2.3 2.3 0 01.4-1.44 1.31 1.31 0 011.09-.53 1.33 1.33 0 011.2.63v-.56h.4v3.79a1.66 1.66 0 01-.41 1.18 1.51 1.51 0 01-1.14.44 1.74 1.74 0 01-.77-.18 1.61 1.61 0 01-.58-.48l.24-.26a1.37 1.37 0 001.08.55 1.1 1.1 0 00.84-.31 1.27 1.27 0 00.31-.88v-.48a1.38 1.38 0 01-1.2.57 1.3 1.3 0 01-1.08-.54 2.34 2.34 0 01-.4-1.44zm.43.07a2 2 0 00.3 1.17 1 1 0 00.83.43 1.15 1.15 0 001.12-.71v-1.8a1.13 1.13 0 00-.43-.56 1.19 1.19 0 00-.68-.2 1 1 0 00-.84.42 2.18 2.18 0 00-.3 1.25zM153.48 52.8a1.59 1.59 0 01-.89-.25 1.55 1.55 0 01-.62-.67 2.11 2.11 0 01-.23-1v-.15a2.3 2.3 0 01.22-1 1.75 1.75 0 01.6-.71 1.5 1.5 0 01.84-.25 1.38 1.38 0 011.11.48 1.93 1.93 0 01.42 1.31v.24h-2.76v.08a1.63 1.63 0 00.38 1.1 1.19 1.19 0 00.94.44 1.31 1.31 0 00.61-.13 1.37 1.37 0 00.48-.4l.27.2a1.56 1.56 0 01-1.37.71zm-.08-3.65a1.06 1.06 0 00-.81.36 1.63 1.63 0 00-.41 1h2.32v-.05a1.38 1.38 0 00-.32-.91 1 1 0 00-.78-.4zm.47-1.91h.52l-.82 1h-.38zM156.46 48.86v.66A1.49 1.49 0 01157 49a1.34 1.34 0 01.72-.19 1.16 1.16 0 01.92.35 1.57 1.57 0 01.31 1v2.54h-.43v-2.51a1.15 1.15 0 00-.22-.78.84.84 0 00-.69-.25 1.06 1.06 0 00-.7.25 1.47 1.47 0 00-.45.67v2.65h-.43v-3.87zM160.34 47.74a.3.3 0 01.08-.2.25.25 0 01.21-.08.27.27 0 01.22.08.3.3 0 01.08.2.32.32 0 01-.08.21.31.31 0 01-.22.08.29.29 0 01-.21-.08.32.32 0 01-.08-.21zm.5 5h-.43v-3.88h.43zM163.79 52.8a1.64 1.64 0 01-.89-.25 1.67 1.67 0 01-.62-.67 2.24 2.24 0 01-.22-1v-.15a2.16 2.16 0 01.22-1 1.67 1.67 0 01.6-.71 1.48 1.48 0 01.84-.25 1.39 1.39 0 011.11.48 1.92 1.92 0 01.41 1.31v.24h-2.75v.08a1.63 1.63 0 00.37 1.1 1.21 1.21 0 00.95.44 1.27 1.27 0 001.08-.53l.27.2a1.55 1.55 0 01-1.37.71zm-.07-3.65a1.06 1.06 0 00-.82.36 1.63 1.63 0 00-.4 1h2.32v-.05a1.43 1.43 0 00-.32-.91 1 1 0 00-.78-.4zM168.16 49.23a1.36 1.36 0 00-.29 0 1 1 0 00-.68.22 1.23 1.23 0 00-.4.65v2.66h-.42v-3.9h.42v.62a1.14 1.14 0 011.09-.69.6.6 0 01.29.05zM169.1 47.74a.3.3 0 01.08-.2.25.25 0 01.21-.08.27.27 0 01.22.08.3.3 0 01.08.2.32.32 0 01-.08.21.31.31 0 01-.22.08.29.29 0 01-.21-.08.32.32 0 01-.08-.21zm.5 5h-.43v-3.88h.43zM172.55 52.8a1.64 1.64 0 01-.89-.25 1.67 1.67 0 01-.62-.67 2.24 2.24 0 01-.22-1v-.15a2.16 2.16 0 01.22-1 1.67 1.67 0 01.6-.71 1.48 1.48 0 01.84-.25 1.39 1.39 0 011.11.48 1.92 1.92 0 01.41 1.31v.24h-2.75v.08a1.63 1.63 0 00.37 1.1 1.21 1.21 0 00.95.44 1.27 1.27 0 001.08-.53l.27.2a1.55 1.55 0 01-1.37.71zm-.07-3.65a1.06 1.06 0 00-.82.36 1.63 1.63 0 00-.4 1h2.32v-.05a1.43 1.43 0 00-.32-.91 1 1 0 00-.78-.4zM175 53.7l-.25-.19a1.61 1.61 0 00.33-.9v-.56h.42v.45a1.55 1.55 0 01-.5 1.2zM83.91 59.54a2.34 2.34 0 01.41-1.44 1.29 1.29 0 011.09-.53 1.32 1.32 0 011.19.62V56h.4v5.49h-.4v-.52a1.4 1.4 0 01-1.21.59 1.3 1.3 0 01-1.07-.56 2.36 2.36 0 01-.41-1.45zm.44.07a2 2 0 00.29 1.17 1 1 0 00.84.43 1.16 1.16 0 001.12-.7v-1.82a1.14 1.14 0 00-1.11-.75 1 1 0 00-.84.42 2.18 2.18 0 00-.3 1.25zM90.93 61a1.4 1.4 0 01-1.23.56 1.19 1.19 0 01-.94-.36 1.53 1.53 0 01-.33-1.06v-2.5h.42v2.46q0 1.11.9 1.11a1.09 1.09 0 001.17-.77v-2.8h.43v3.87h-.41zM94.66 59.54a2.34 2.34 0 01.4-1.44 1.31 1.31 0 011.09-.53 1.32 1.32 0 011.19.62V56h.43v5.49h-.4v-.52a1.39 1.39 0 01-1.21.59 1.31 1.31 0 01-1.1-.56 2.35 2.35 0 01-.4-1.45zm.43.07a2.09 2.09 0 00.29 1.17 1 1 0 00.84.43 1.15 1.15 0 001.12-.7v-1.82a1.14 1.14 0 00-1.11-.75 1 1 0 00-.84.42 2.18 2.18 0 00-.3 1.25zM99.16 56.52a.3.3 0 01.08-.2.25.25 0 01.21-.08.27.27 0 01.22.08.3.3 0 01.08.2.3.3 0 01-.08.21.31.31 0 01-.22.08.29.29 0 01-.21-.08.3.3 0 01-.08-.21zm.5 5h-.42v-3.88h.42zM103.56 61.51a1.81 1.81 0 01-.08-.54 1.54 1.54 0 01-.58.45 1.86 1.86 0 01-.74.16 1.33 1.33 0 01-.9-.31 1.08 1.08 0 01.13-1.68 2.25 2.25 0 011.31-.33h.77v-.44a.84.84 0 00-.25-.65 1.06 1.06 0 00-.75-.24 1.19 1.19 0 00-.74.23.68.68 0 00-.29.55H101a1 1 0 01.43-.8 1.63 1.63 0 011-.34 1.54 1.54 0 011 .32 1.18 1.18 0 01.39.9v1.83a2.19 2.19 0 00.12.84zm-1.34-.31a1.4 1.4 0 00.78-.2 1.18 1.18 0 00.49-.55v-.85h-.76a1.87 1.87 0 00-1 .23.7.7 0 00-.36.62.68.68 0 00.24.54.88.88 0 00.61.21zM105.16 59.54a2.3 2.3 0 01.4-1.44 1.31 1.31 0 011.09-.53 1.33 1.33 0 011.2.63v-.56h.4v3.79a1.62 1.62 0 01-.42 1.18 1.48 1.48 0 01-1.13.44 1.74 1.74 0 01-.77-.18 1.5 1.5 0 01-.57-.48l.23-.26a1.38 1.38 0 001.08.56 1.11 1.11 0 00.84-.32 1.27 1.27 0 00.31-.88V61a1.38 1.38 0 01-1.2.57 1.28 1.28 0 01-1.07-.54 2.28 2.28 0 01-.41-1.44zm.43.07a2 2 0 00.3 1.17 1 1 0 00.83.43 1.15 1.15 0 001.12-.71v-1.8a1.14 1.14 0 00-1.11-.76 1 1 0 00-.84.42 2.18 2.18 0 00-.3 1.25zM110.09 57.64v.66a1.49 1.49 0 01.55-.54 1.33 1.33 0 01.71-.19 1.17 1.17 0 01.93.35 1.62 1.62 0 01.31 1v2.54h-.43V59a1.21 1.21 0 00-.22-.78.84.84 0 00-.69-.25 1 1 0 00-.7.25 1.38 1.38 0 00-.45.67v2.65h-.43v-3.9zM113.76 59.52a2.37 2.37 0 01.21-1 1.63 1.63 0 011.51-.94 1.6 1.6 0 011.25.54 2.08 2.08 0 01.48 1.43v.09a2.21 2.21 0 01-.22 1 1.69 1.69 0 01-2.75.4 2.09 2.09 0 01-.48-1.44zm.42.11a1.79 1.79 0 00.36 1.14 1.16 1.16 0 00.95.45 1.14 1.14 0 00.93-.45 1.8 1.8 0 00.36-1.17v-.08a1.92 1.92 0 00-.16-.81 1.32 1.32 0 00-.46-.57 1.16 1.16 0 00-.68-.21 1.14 1.14 0 00-.93.45 1.83 1.83 0 00-.37 1.18zM120.7 60.52a.62.62 0 00-.26-.51 1.87 1.87 0 00-.77-.3 3.16 3.16 0 01-.8-.25 1 1 0 01-.42-.34.89.89 0 01-.13-.5.9.9 0 01.38-.75 1.53 1.53 0 011-.3 1.59 1.59 0 011 .32 1 1 0 01.39.83h-.42a.7.7 0 00-.29-.56 1.12 1.12 0 00-.71-.23 1.17 1.17 0 00-.68.19.59.59 0 00-.26.49.55.55 0 00.22.45 2.42 2.42 0 00.77.29 3.8 3.8 0 01.85.28 1.12 1.12 0 01.43.37 1 1 0 01-.26 1.29 1.64 1.64 0 01-1 .3 1.71 1.71 0 01-1.09-.33 1 1 0 01-.42-.83h.42a.78.78 0 00.32.59 1.3 1.3 0 00.77.21 1.2 1.2 0 00.72-.2.58.58 0 00.24-.51zM123.05 56.65v1h.8V58h-.8v2.58a.81.81 0 00.11.48.47.47 0 00.39.16h.35v.35a1.36 1.36 0 01-.45.06.75.75 0 01-.64-.26 1.16 1.16 0 01-.2-.75V58h-.71v-.35h.71v-1zM125 56.52a.3.3 0 01.08-.2.25.25 0 01.21-.08.27.27 0 01.22.08.3.3 0 01.08.2.3.3 0 01-.08.21.31.31 0 01-.22.08.29.29 0 01-.21-.08.3.3 0 01-.08-.21zm.5 5h-.42v-3.88h.42zM128.39 61.22a1.16 1.16 0 00.74-.25.92.92 0 00.33-.66h.41a1.18 1.18 0 01-.22.65 1.48 1.48 0 01-.54.45 1.65 1.65 0 01-.72.17 1.51 1.51 0 01-1.21-.53 2.12 2.12 0 01-.44-1.42v-.13a2.46 2.46 0 01.19-1 1.56 1.56 0 01.58-.68 1.58 1.58 0 01.87-.24 1.49 1.49 0 011.05.38 1.35 1.35 0 01.44 1h-.41a1.06 1.06 0 00-.33-.73 1.09 1.09 0 00-.75-.28 1.07 1.07 0 00-.9.42 1.91 1.91 0 00-.32 1.17v.13a1.85 1.85 0 00.32 1.15 1.09 1.09 0 00.91.4zM135.53 61.51a2.21 2.21 0 01-.08-.54 1.54 1.54 0 01-.58.45 1.81 1.81 0 01-.73.16 1.29 1.29 0 01-.9-.31 1 1 0 01-.35-.79 1 1 0 01.47-.89 2.25 2.25 0 011.31-.33h.77v-.44a.84.84 0 00-.25-.65 1.06 1.06 0 00-.75-.24 1.21 1.21 0 00-.74.23.68.68 0 00-.29.55H133a1 1 0 01.43-.8 1.64 1.64 0 011.06-.34 1.54 1.54 0 011 .32 1.21 1.21 0 01.38.9v1.83a2.19 2.19 0 00.12.84zm-1.34-.31a1.4 1.4 0 00.81-.2 1.18 1.18 0 00.49-.55v-.85h-.76a1.87 1.87 0 00-1 .23.7.7 0 00-.36.62.68.68 0 00.24.54.88.88 0 00.58.21zm.68-4.18h-.39l-.81-1h.51zM139.85 61.51h-.43V56h.43zM143.75 61.51a2.14 2.14 0 01-.09-.54 1.59 1.59 0 01-.57.45 1.86 1.86 0 01-.74.16 1.33 1.33 0 01-.9-.31 1.08 1.08 0 01.13-1.68 2.25 2.25 0 011.31-.33h.77v-.44a.84.84 0 00-.25-.65 1.06 1.06 0 00-.75-.24 1.19 1.19 0 00-.74.23.68.68 0 00-.29.55h-.43a1 1 0 01.43-.8 1.6 1.6 0 011.05-.34 1.54 1.54 0 011 .32 1.18 1.18 0 01.39.9v1.83a2.46 2.46 0 00.11.84zm-1.35-.31a1.44 1.44 0 00.77-.21 1.18 1.18 0 00.49-.55v-.85h-.76a1.87 1.87 0 00-1 .23.7.7 0 00-.36.62.68.68 0 00.24.54.87.87 0 00.62.22zM149.38 58a1.36 1.36 0 00-.29 0 1 1 0 00-.68.22 1.29 1.29 0 00-.4.65v2.66h-.42v-3.89h.41v.62a1.14 1.14 0 011.09-.69.6.6 0 01.29 0zM151.77 61.58a1.62 1.62 0 01-.89-.25 1.67 1.67 0 01-.62-.67 2.11 2.11 0 01-.22-1v-.15a2.16 2.16 0 01.22-1 1.67 1.67 0 01.6-.71 1.49 1.49 0 01.83-.25 1.4 1.4 0 011.12.48 1.92 1.92 0 01.41 1.31v.24h-2.75v.08a1.63 1.63 0 00.37 1.1 1.21 1.21 0 00.95.44 1.27 1.27 0 001.08-.53l.27.21a1.56 1.56 0 01-1.37.7zm-.08-3.65a1.06 1.06 0 00-.81.36 1.63 1.63 0 00-.4 1h2.32v-.05a1.43 1.43 0 00-.32-.91 1 1 0 00-.79-.4zm.48-1.91h.52l-.83 1h-.37zM156.79 61.51a1.81 1.81 0 01-.08-.54 1.54 1.54 0 01-.58.45 1.81 1.81 0 01-.73.16 1.34 1.34 0 01-.91-.31 1 1 0 01-.34-.79 1 1 0 01.47-.89 2.25 2.25 0 011.31-.33h.77v-.44a.84.84 0 00-.25-.65 1.06 1.06 0 00-.75-.24 1.21 1.21 0 00-.74.23.68.68 0 00-.29.55h-.43a1 1 0 01.43-.8 1.63 1.63 0 011.05-.34 1.52 1.52 0 011 .32 1.18 1.18 0 01.39.9v1.83a2.19 2.19 0 00.12.84zm-1.34-.31a1.4 1.4 0 00.76-.21 1.18 1.18 0 00.49-.55v-.85h-.76a1.87 1.87 0 00-1 .23.7.7 0 00-.36.62.68.68 0 00.24.54.88.88 0 00.63.22zM159 61.51h-.43V56h.43zM160.47 56.52a.26.26 0 01.08-.2.25.25 0 01.21-.08.29.29 0 01.22.08.3.3 0 01.08.2.3.3 0 01-.08.21.33.33 0 01-.22.08.29.29 0 01-.21-.08.26.26 0 01-.08-.21zm.5 5h-.43v-3.88h.46zM164.74 60.52a.61.61 0 00-.25-.51 1.93 1.93 0 00-.77-.3 3 3 0 01-.8-.25 1.16 1.16 0 01-.43-.34.89.89 0 01-.13-.5.93.93 0 01.38-.75 1.53 1.53 0 011-.3 1.61 1.61 0 011 .32 1 1 0 01.39.83h-.43a.72.72 0 00-.28-.56 1.13 1.13 0 00-.72-.23 1.17 1.17 0 00-.68.19.58.58 0 00-.25.49.54.54 0 00.21.45 2.42 2.42 0 00.77.29 3.8 3.8 0 01.85.28 1 1 0 01.4.37.93.93 0 01.14.51.9.9 0 01-.4.78 1.64 1.64 0 01-1 .3 1.71 1.71 0 01-1.09-.33 1 1 0 01-.42-.83h.43a.74.74 0 00.34.57 1.3 1.3 0 00.77.21 1.26 1.26 0 00.73-.2.6.6 0 00.24-.49zM168.86 61.51a2.21 2.21 0 01-.08-.54 1.59 1.59 0 01-.57.45 1.86 1.86 0 01-.74.16 1.33 1.33 0 01-.9-.31 1.07 1.07 0 01.12-1.68 2.27 2.27 0 011.31-.33h.78v-.44a.84.84 0 00-.26-.65 1 1 0 00-.74-.24 1.17 1.17 0 00-.74.23.66.66 0 00-.3.55h-.42a1 1 0 01.42-.8 1.64 1.64 0 011.06-.34 1.54 1.54 0 011 .32 1.14 1.14 0 01.38.9v1.83a2.19 2.19 0 00.12.84zm-1.34-.31a1.44 1.44 0 00.77-.21 1.3 1.3 0 00.49-.55v-.85H168a1.9 1.9 0 00-1 .23.7.7 0 00-.36.62.68.68 0 00.24.54.88.88 0 00.64.22zM171.3 56.65v1h.8V58h-.8v2.58a.9.9 0 00.11.48.47.47 0 00.39.16h.35v.35a1.42 1.42 0 01-.46.06.77.77 0 01-.64-.26 1.22 1.22 0 01-.2-.75V58h-.71v-.35h.71v-1zM173.25 56.52a.3.3 0 01.08-.2.27.27 0 01.22-.08.25.25 0 01.21.08.26.26 0 01.08.2.26.26 0 01-.08.21.29.29 0 01-.21.08.31.31 0 01-.22-.08.3.3 0 01-.08-.21zm.51 5h-.43v-3.88h.43zM175 59.52a2.37 2.37 0 01.21-1 1.58 1.58 0 01.61-.69 1.63 1.63 0 01.9-.25 1.6 1.6 0 011.25.54 2.08 2.08 0 01.48 1.43v.09a2.34 2.34 0 01-.22 1 1.58 1.58 0 01-.61.69 1.6 1.6 0 01-.9.25 1.58 1.58 0 01-1.24-.54 2.09 2.09 0 01-.48-1.44zm.42.11a1.73 1.73 0 00.36 1.14 1.16 1.16 0 00.94.45 1.14 1.14 0 00.94-.45 1.8 1.8 0 00.34-1.17v-.08a1.92 1.92 0 00-.16-.81 1.32 1.32 0 00-.46-.57 1.21 1.21 0 00-1.62.24 1.83 1.83 0 00-.36 1.18zM180 57.64v.66a1.49 1.49 0 01.55-.54 1.33 1.33 0 01.71-.19 1.17 1.17 0 01.93.35 1.62 1.62 0 01.31 1v2.54h-.43V59a1.15 1.15 0 00-.22-.78.84.84 0 00-.69-.25 1.06 1.06 0 00-.7.25 1.38 1.38 0 00-.45.67v2.65h-.43v-3.9z" class="cls-8"/>
      <path fill="url(#linear-gradient-4)" d="M37.5 50.75v6.35a2.43 2.43 0 01-.24 1.15 1.28 1.28 0 01-.69.56 2.37 2.37 0 01-.32.09H19.8a2.27 2.27 0 01-1.49-.54 1.46 1.46 0 01-.53-1.1V29.8h-6.43a1 1 0 01-.91-.48.48.48 0 01-.06-.21.6.6 0 01.21-.42l10.67-9.86v-7.59A1.94 1.94 0 0123.2 9.3h8.37l6.62-6.12a1.13 1.13 0 01.81-.27 1.08 1.08 0 01.75.27l27.56 25.51a.55.55 0 01.2.42.46.46 0 01-.05.21 1 1 0 01-.91.48h-6.43v27.47a1.46 1.46 0 01-.53 1.1 2.31 2.31 0 01-1.5.54H43.34a1.45 1.45 0 000 2.9h14.75a5.18 5.18 0 003.43-1.27A4.4 4.4 0 0063 57.27V32.7h3.52a3.86 3.86 0 003.53-2.13 3.29 3.29 0 00.34-1.46 3.5 3.5 0 00-1.14-2.56L41.68 1a4.1 4.1 0 00-5.46 0l-5.79 5.39H23.2a4.85 4.85 0 00-4.85 4.85v6.32l-9.73 9a3.52 3.52 0 00-1.14 2.56 3.36 3.36 0 00.34 1.47 3.86 3.86 0 003.53 2.12h3.52v24.56a4.4 4.4 0 001.51 3.27 5.13 5.13 0 003.42 1.27h16.46a4.43 4.43 0 002.08-.64 4.11 4.11 0 001.45-1.5 5.25 5.25 0 00.61-2.57v-6.35z"/>
      <path fill="url(#linear-gradient-5)" d="M40.22 23.05c.32-.32.69-.47.84-.33l.49.48c.15.13 0 .5-.32.82l-.4.4-1-1z"/>
      <path fill="url(#linear-gradient-6)" d="M37.08 22.76l.73.7a.55.55 0 01.6.09l2.31 2.22a.57.57 0 010 .81.61.61 0 01-.82.06l-2.31-2.23a.51.51 0 01-.1-.59l-.54-.52-4.85 4.82-.37-.35 5-5a.27.27 0 01.18-.07.24.24 0 01.17.06z"/>
      <path fill="url(#linear-gradient-7)" d="M30 31.75l2.52 2.43-3.1.92-.05-.05-.24.24a.17.17 0 01-.21 0 .15.15 0 010-.2l.24-.24-.05-.05z"/>
      <path fill="url(#linear-gradient-8)" d="M37.27 24.68l2.32 2.22.12.1-7 6.91-2.52-2.42 7-6.91z"/>
      <path fill="url(#linear-gradient-9)" d="M41 25.51l-2.32-2.23-.1-.07.16-.15c.18-.19.62-.06 1 .28l1.24 1.19c.36.34.49.77.31.95l-.16.15z"/>
      <path fill="url(#linear-gradient-10)" d="M43.29 26l1.19 1.19-.27.27L43 26.25l-1.36 1.37 1.18 1.19-.27.27-1.19-1.19L40 29.26l1.19 1.19-.27.27-1.19-1.19-1.35 1.37 1.19 1.18-.27.27-1.19-1.18-4.64 4.64L34.66 37l-.27.27-1.19-1.19-5.14 5.14h19v-19zM32.75 38.9l-1.19-1.19.27-.27L33 38.63zM36 35.63l-1.19-1.19.27-.27 1.19 1.19zm.71-3.1l1.19 1.19-.27.27-1.16-1.19zm6.55 4.88h-6l6-6z"/>
      <path fill="url(#linear-gradient-11)" d="M89.94 36.05a.73.73 0 01-.15.5.54.54 0 01-.42.16h-4a2.66 2.66 0 00.1.77 1.32 1.32 0 00.32.58 1.41 1.41 0 00.56.37 2.49 2.49 0 00.82.12 4.4 4.4 0 00.86-.07 5.58 5.58 0 00.64-.15l.45-.16a.94.94 0 01.28-.07.21.21 0 01.12 0 .22.22 0 01.07.09.78.78 0 010 .19 2.73 2.73 0 010 .31 2.1 2.1 0 010 .27 1 1 0 010 .2.57.57 0 010 .14l-.08.1a.64.64 0 01-.26.14 5.09 5.09 0 01-.55.18l-.76.15A6.67 6.67 0 0187 40a5.06 5.06 0 01-1.54-.22 2.85 2.85 0 01-1.11-.68 2.94 2.94 0 01-.66-1.13 5.57 5.57 0 01-.22-1.62 5.19 5.19 0 01.23-1.58 3.49 3.49 0 01.67-1.2 2.77 2.77 0 011.06-.75 3.73 3.73 0 011.41-.26 3.8 3.8 0 011.42.24 2.61 2.61 0 011 .68 2.65 2.65 0 01.55 1 4.47 4.47 0 01.18 1.29zm-1.8-.54a1.91 1.91 0 00-.32-1.23 1.2 1.2 0 00-1-.44 1.31 1.31 0 00-.61.13 1.29 1.29 0 00-.44.36 1.76 1.76 0 00-.27.53 2.68 2.68 0 00-.1.65zm-1-5.81a.53.53 0 01.12-.14.48.48 0 01.19-.09 1.43 1.43 0 01.28 0h.41a3.75 3.75 0 01.54 0 .72.72 0 01.28.08.17.17 0 01.08.13.34.34 0 01-.08.16l-1.43 1.71a.68.68 0 01-.12.12.36.36 0 01-.15.08 1.11 1.11 0 01-.24.05h-.76a.56.56 0 01-.21-.07.12.12 0 01-.05-.12.37.37 0 010-.21z"/>
      <path fill="url(#linear-gradient-12)" d="M98.65 39.54a.2.2 0 010 .13.49.49 0 01-.15.09 1.41 1.41 0 01-.29.05 2.89 2.89 0 01-.44 0 3 3 0 01-.46 0 1.43 1.43 0 01-.28-.05.49.49 0 01-.15-.09.2.2 0 010-.13v-3.77a3.52 3.52 0 00-.07-.75 1.56 1.56 0 00-.21-.47.89.89 0 00-.34-.3 1 1 0 00-.49-.11 1.18 1.18 0 00-.72.26 4.08 4.08 0 00-.76.75v4.39a.2.2 0 010 .13.49.49 0 01-.15.09 1.55 1.55 0 01-.29.05 2.83 2.83 0 01-.45 0 3 3 0 01-.45 0 1.43 1.43 0 01-.28-.05.49.49 0 01-.15-.09.21.21 0 01-.05-.13v-6.6a.2.2 0 010-.13.22.22 0 01.13-.09 1.31 1.31 0 01.25-.06h.77a.82.82 0 01.24.06.19.19 0 01.12.09.2.2 0 010 .13v.76a4.28 4.28 0 011.11-.88 2.49 2.49 0 011.18-.3 2.61 2.61 0 011.14.22 2 2 0 01.75.6 2.56 2.56 0 01.41.9 5.35 5.35 0 01.12 1.22z"/>
      <path fill="url(#linear-gradient-13)" d="M107.45 36.05a.73.73 0 01-.15.5.54.54 0 01-.42.16h-4a2.66 2.66 0 00.1.77 1.41 1.41 0 00.31.58 1.52 1.52 0 00.57.37 2.45 2.45 0 00.82.12 4.4 4.4 0 00.86-.07 6.13 6.13 0 00.64-.15l.44-.16a1.07 1.07 0 01.29-.07.18.18 0 01.11 0 .24.24 0 01.08.09.78.78 0 010 .19 2.73 2.73 0 010 .31 2.1 2.1 0 010 .27 1 1 0 010 .2.57.57 0 010 .14l-.08.1a.64.64 0 01-.26.14 5.09 5.09 0 01-.55.18l-.76.15a6.67 6.67 0 01-.92.06 5.06 5.06 0 01-1.54-.22 2.85 2.85 0 01-1.11-.68 2.94 2.94 0 01-.66-1.13 5.57 5.57 0 01-.22-1.62 5.19 5.19 0 01.23-1.58 3.34 3.34 0 01.67-1.2 2.77 2.77 0 011.06-.75 4.1 4.1 0 012.82 0 2.57 2.57 0 011 .68 2.79 2.79 0 01.55 1 4.47 4.47 0 01.18 1.29zm-1.8-.54a1.91 1.91 0 00-.32-1.23 1.2 1.2 0 00-1-.44 1.31 1.31 0 00-.61.13 1.29 1.29 0 00-.44.36 1.56 1.56 0 00-.27.53 2.68 2.68 0 00-.1.65z"/>
      <path fill="url(#linear-gradient-14)" d="M114.1 33.55v.44a1.56 1.56 0 010 .27.26.26 0 01-.08.13.16.16 0 01-.12 0 .31.31 0 01-.13 0h-.17l-.2-.06a1 1 0 00-.25 0 .87.87 0 00-.31.07 1.22 1.22 0 00-.32.19 2.42 2.42 0 00-.35.36 6.24 6.24 0 00-.39.55v4.11a.2.2 0 010 .13.49.49 0 01-.15.09 1.55 1.55 0 01-.29.05 5.07 5.07 0 01-.9 0 1.43 1.43 0 01-.28-.05.45.45 0 01-.16-.09.2.2 0 010-.13v-6.6a.2.2 0 010-.13.22.22 0 01.13-.09 1.15 1.15 0 01.25-.06h.77a1 1 0 01.24.06.19.19 0 01.12.09.2.2 0 010 .13v.82a4.81 4.81 0 01.49-.61 2.79 2.79 0 01.43-.38 1.6 1.6 0 01.42-.2 1.92 1.92 0 01.41 0h.44a.65.65 0 01.21.06.4.4 0 01.13.07.22.22 0 010 .08.34.34 0 010 .12v.23c0 .1.06.18.06.35z"/>
      <path fill="url(#linear-gradient-15)" d="M121.89 33.4a1.31 1.31 0 01-.08.52c-.06.12-.12.17-.2.17h-.78a1.14 1.14 0 01.24.41 1.78 1.78 0 01.07.47 2.54 2.54 0 01-.2 1 2 2 0 01-.55.76 2.37 2.37 0 01-.86.46 3.67 3.67 0 01-1.13.16 2.49 2.49 0 01-.61-.08 1.42 1.42 0 01-.44-.18 1.34 1.34 0 00-.16.23.6.6 0 00-.07.3.41.41 0 00.19.35 1 1 0 00.53.15l1.6.06a3.67 3.67 0 011 .16 2.15 2.15 0 01.74.38 1.67 1.67 0 01.46.6 1.8 1.8 0 01.16.79 2 2 0 01-.86 1.67 3.22 3.22 0 01-1.07.5 5.3 5.3 0 01-1.52.19 6.46 6.46 0 01-1.43-.14 3.09 3.09 0 01-1-.36 1.48 1.48 0 01-.73-1.29 1.84 1.84 0 01.06-.47 2 2 0 01.19-.42 1.85 1.85 0 01.3-.39 3.76 3.76 0 01.41-.36 1.17 1.17 0 01-.5-.46 1.28 1.28 0 01-.17-.64 1.63 1.63 0 01.2-.79 2.48 2.48 0 01.52-.65 2.12 2.12 0 01-.42-.62 2.35 2.35 0 01-.15-.9 2.64 2.64 0 01.2-1 2.27 2.27 0 01.57-.76 2.49 2.49 0 01.86-.48 3.31 3.31 0 011.11-.17 3.86 3.86 0 01.6 0 4.15 4.15 0 01.53.1h2.09c.08 0 .15.05.2.16a1.41 1.41 0 01.1.57zm-2 6.82a.55.55 0 00-.27-.5 1.37 1.37 0 00-.73-.2h-1.32a1.43 1.43 0 00-.31.27 1.33 1.33 0 00-.19.24 1.36 1.36 0 00-.09.23 1.79 1.79 0 000 .23.59.59 0 00.37.56 2.32 2.32 0 001.06.2 2.45 2.45 0 00.71-.09 1.52 1.52 0 00.46-.22.83.83 0 00.25-.32 1 1 0 00.11-.4zM119.5 35a1.15 1.15 0 00-.29-.83 1.13 1.13 0 00-.84-.29 1.21 1.21 0 00-.48.09.86.86 0 00-.34.25 1 1 0 00-.21.37 1.61 1.61 0 00-.06.44 1 1 0 00.29.79 1.1 1.1 0 00.82.3 1.22 1.22 0 00.49-.09.86.86 0 00.34-.25 1.07 1.07 0 00.21-.36 1.16 1.16 0 00.07-.42z"/>
      <path fill="url(#linear-gradient-16)" d="M126 30.71a1 1 0 01-.23.77 1.24 1.24 0 01-.85.22 1.27 1.27 0 01-.85-.21 1 1 0 01-.22-.75 1.08 1.08 0 01.23-.78 1.83 1.83 0 011.7 0 1 1 0 01.22.75zm-.14 8.83a.21.21 0 01-.05.13.49.49 0 01-.15.09l-.28.05a3 3 0 01-.46 0 3 3 0 01-.45 0l-.28-.05a.49.49 0 01-.15-.09.21.21 0 010-.13V33a.19.19 0 010-.13.36.36 0 01.15-.1 1 1 0 01.28-.06 3 3 0 01.45 0 3 3 0 01.46 0 1 1 0 01.28.06.36.36 0 01.15.1.19.19 0 01.05.13z"/>
      <path fill="url(#linear-gradient-17)" d="M134.7 36.05a.73.73 0 01-.16.5.53.53 0 01-.41.16h-4a2.66 2.66 0 00.1.77 1.43 1.43 0 00.32.58 1.41 1.41 0 00.56.37 2.49 2.49 0 00.82.12 4.33 4.33 0 00.86-.07 5.58 5.58 0 00.64-.15l.45-.16a1 1 0 01.29-.07.2.2 0 01.11 0 .22.22 0 01.07.09.49.49 0 010 .19 2.73 2.73 0 010 .31v.51a.57.57 0 010 .14l-.08.1a.64.64 0 01-.26.14 4.45 4.45 0 01-.55.18l-.76.15a6.67 6.67 0 01-.92.06 5.11 5.11 0 01-1.54-.22 2.74 2.74 0 01-1.1-.68 2.84 2.84 0 01-.67-1.13 5.59 5.59 0 01-.21-1.62 4.9 4.9 0 01.23-1.58 3.32 3.32 0 01.66-1.2 2.85 2.85 0 011.06-.75 3.73 3.73 0 011.41-.26 3.77 3.77 0 011.42.24 2.61 2.61 0 011 .68 2.81 2.81 0 01.56 1 4.47 4.47 0 01.18 1.29zm-1.81-.54a1.91 1.91 0 00-.31-1.23 1.21 1.21 0 00-1-.44 1.32 1.32 0 00-.62.13 1.29 1.29 0 00-.44.36 1.75 1.75 0 00-.26.53 2.68 2.68 0 00-.11.65z"/>
      <path fill="url(#linear-gradient-18)" d="M146.4 38.49v.54a1.09 1.09 0 01-.05.14.32.32 0 01-.11.14 1.48 1.48 0 01-.3.21 4.49 4.49 0 01-.49.22 4.78 4.78 0 01-.6.15 3.52 3.52 0 01-.66.06 3.74 3.74 0 01-1.35-.23 2.7 2.7 0 01-1-.7 3.3 3.3 0 01-.6-1.13 5.11 5.11 0 01-.2-1.53 5.43 5.43 0 01.24-1.71 3.24 3.24 0 01.7-1.19 2.59 2.59 0 011.05-.7 3.54 3.54 0 011.33-.23 2.84 2.84 0 01.58 0 2.74 2.74 0 01.53.14 2.24 2.24 0 01.44.2 1.31 1.31 0 01.28.19l.12.14a.38.38 0 01.05.14v.53a1.71 1.71 0 01-.08.61c0 .11-.11.17-.19.17a.43.43 0 01-.26-.1l-.34-.23a2 2 0 00-.46-.23 1.67 1.67 0 00-.63-.1 1.27 1.27 0 00-1.11.55 2.88 2.88 0 00-.38 1.64 4.35 4.35 0 00.09.94 2 2 0 00.29.68 1.16 1.16 0 00.47.41 1.53 1.53 0 00.66.14 1.62 1.62 0 00.66-.12 2.49 2.49 0 00.49-.25 2.71 2.71 0 00.34-.26.49.49 0 01.24-.11.14.14 0 01.11 0 .2.2 0 01.07.13 1.43 1.43 0 010 .26 3.9 3.9 0 01.07.49z"/>
      <path fill="url(#linear-gradient-19)" d="M155.22 36.17a5 5 0 01-.22 1.54 3.38 3.38 0 01-.68 1.2 3 3 0 01-1.13.77 4.07 4.07 0 01-1.59.28 4.47 4.47 0 01-1.53-.24A2.81 2.81 0 01149 39a2.88 2.88 0 01-.63-1.14 5.24 5.24 0 01-.21-1.55 5 5 0 01.22-1.55 3.25 3.25 0 01.68-1.19 3 3 0 011.13-.78 4.27 4.27 0 011.59-.27 4.39 4.39 0 011.53.24 2.65 2.65 0 011.08.71 3 3 0 01.63 1.14 5.35 5.35 0 01.2 1.56zm-1.92.08a5 5 0 00-.07-.9 2.2 2.2 0 00-.27-.72 1.23 1.23 0 00-.49-.47 1.6 1.6 0 00-.77-.17 1.67 1.67 0 00-.73.15 1.37 1.37 0 00-.51.45 2.14 2.14 0 00-.3.7 4.27 4.27 0 00-.1.93 4.16 4.16 0 00.09.9 2.19 2.19 0 00.26.72 1.23 1.23 0 00.49.47 1.63 1.63 0 00.77.16 1.67 1.67 0 00.73-.15 1.28 1.28 0 00.51-.44 2.14 2.14 0 00.3-.7 4.31 4.31 0 00.09-.93z"/>
      <path fill="url(#linear-gradient-20)" d="M163.87 39.54a.28.28 0 010 .13.49.49 0 01-.15.09 1.55 1.55 0 01-.29.05 2.89 2.89 0 01-.44 0 3 3 0 01-.46 0 1.3 1.3 0 01-.28-.05.49.49 0 01-.15-.09.21.21 0 01-.05-.13v-3.77a3 3 0 00-.07-.75 1.34 1.34 0 00-.2-.47.89.89 0 00-.34-.3 1 1 0 00-.5-.11 1.18 1.18 0 00-.71.26 3.8 3.8 0 00-.76.75v4.39a.2.2 0 010 .13.49.49 0 01-.15.09 1.55 1.55 0 01-.29.05 5.07 5.07 0 01-.9 0 1.72 1.72 0 01-.29-.05.49.49 0 01-.15-.09.2.2 0 010-.13v-6.6a.2.2 0 010-.13.22.22 0 01.13-.09 1.15 1.15 0 01.25-.06h.77a1 1 0 01.24.06.19.19 0 01.12.09.2.2 0 010 .13v.76a4 4 0 011.11-.88 2.49 2.49 0 011.18-.3 2.61 2.61 0 011.14.22 2.09 2.09 0 01.74.6 2.4 2.4 0 01.41.9 4.8 4.8 0 01.13 1.22z"/>
      <path fill="url(#linear-gradient-21)" d="M171.57 38.49v.54a1.09 1.09 0 01-.05.14.42.42 0 01-.11.14 1.34 1.34 0 01-.31.21 3.61 3.61 0 01-.48.22 5.26 5.26 0 01-.6.15 3.6 3.6 0 01-.66.06 3.74 3.74 0 01-1.35-.23 2.7 2.7 0 01-1-.7 3.13 3.13 0 01-.6-1.13 5.1 5.1 0 01-.21-1.53 5.41 5.41 0 01.25-1.71 3.36 3.36 0 01.69-1.19 2.73 2.73 0 011-.7 3.63 3.63 0 011.34-.23 2.84 2.84 0 01.58 0 2.94 2.94 0 01.53.14 2.55 2.55 0 01.44.2 1.31 1.31 0 01.28.19.92.92 0 01.11.14.37.37 0 01.06.14v.53a1.71 1.71 0 01-.08.61c-.05.11-.11.17-.19.17a.48.48 0 01-.27-.1 3.66 3.66 0 00-.33-.23 2.19 2.19 0 00-.46-.23 1.7 1.7 0 00-.63-.1 1.25 1.25 0 00-1.11.55 2.88 2.88 0 00-.39 1.64 3.76 3.76 0 00.1.94 2 2 0 00.28.68 1.26 1.26 0 00.48.41 1.53 1.53 0 00.66.14 1.62 1.62 0 00.66-.12 2.49 2.49 0 00.49-.25 3.72 3.72 0 00.34-.26.49.49 0 01.24-.11.15.15 0 01.11 0 .26.26 0 01.07.13 1.43 1.43 0 010 .26 3.9 3.9 0 01.12.49z"/>
      <path fill="url(#linear-gradient-22)" d="M179.88 36.05a.73.73 0 01-.15.5.54.54 0 01-.42.16h-4a2.66 2.66 0 00.1.77 1.43 1.43 0 00.32.58 1.41 1.41 0 00.56.37 2.49 2.49 0 00.82.12 4.4 4.4 0 00.86-.07 5.58 5.58 0 00.64-.15l.45-.16a1 1 0 01.29-.07.2.2 0 01.11 0 .22.22 0 01.07.09.49.49 0 010 .19 2.73 2.73 0 010 .31v.51a.57.57 0 010 .14l-.08.1a.64.64 0 01-.26.14 4.45 4.45 0 01-.55.18l-.76.15a6.67 6.67 0 01-.92.06 5.11 5.11 0 01-1.54-.22 2.74 2.74 0 01-1.1-.68 2.84 2.84 0 01-.67-1.13 5.59 5.59 0 01-.21-1.62 4.9 4.9 0 01.23-1.58 3.32 3.32 0 01.66-1.2 2.85 2.85 0 011.06-.75 3.73 3.73 0 011.41-.26 3.8 3.8 0 011.42.24 2.61 2.61 0 011 .68 2.81 2.81 0 01.56 1 4.85 4.85 0 01.17 1.29zm-1.8-.54a2 2 0 00-.31-1.23 1.23 1.23 0 00-1-.44 1.32 1.32 0 00-.62.13 1.29 1.29 0 00-.44.36 1.75 1.75 0 00-.26.53 2.27 2.27 0 00-.11.65z"/>
      <path fill="url(#linear-gradient-23)" d="M188.93 36.14a6.44 6.44 0 01-.18 1.59 3.51 3.51 0 01-.56 1.2 2.35 2.35 0 01-.9.76 2.71 2.71 0 01-1.23.27 2.2 2.2 0 01-.53-.06 1.66 1.66 0 01-.47-.17 2.32 2.32 0 01-.44-.28 4.11 4.11 0 01-.46-.4v3.1a.24.24 0 010 .14.36.36 0 01-.15.1 1.49 1.49 0 01-.28.06 3 3 0 01-.46 0 3 3 0 01-.45 0 1.49 1.49 0 01-.28-.06.36.36 0 01-.15-.1.24.24 0 01-.05-.14v-9.21a.28.28 0 010-.13.22.22 0 01.13-.09 1 1 0 01.24-.06h.76a1 1 0 01.24.06.22.22 0 01.13.09.2.2 0 010 .13v.78a6.52 6.52 0 01.56-.52 3.76 3.76 0 01.57-.38 2.57 2.57 0 01.6-.23 2.7 2.7 0 01.65-.07 2.49 2.49 0 011.23.28 2.41 2.41 0 01.84.78 3.67 3.67 0 01.47 1.16 6.92 6.92 0 01.17 1.4zm-1.93.14a4.28 4.28 0 00-.07-.81 2.33 2.33 0 00-.21-.69 1.31 1.31 0 00-.4-.49 1 1 0 00-.62-.18 1.49 1.49 0 00-.36 0 1.3 1.3 0 00-.37.19 2.2 2.2 0 00-.39.32 3.79 3.79 0 00-.42.5v2.17a4.6 4.6 0 00.74.77 1.23 1.23 0 00.74.27 1.06 1.06 0 00.62-.19 1.4 1.4 0 00.42-.48 2.38 2.38 0 00.24-.68 3.82 3.82 0 00.08-.7z"/>
      <path fill="url(#linear-gradient-24)" d="M195.14 38.89a2.23 2.23 0 010 .5.54.54 0 01-.1.24.63.63 0 01-.2.13l-.3.09a2.16 2.16 0 01-.38.06 2.83 2.83 0 01-.41 0 3 3 0 01-1-.14 1.57 1.57 0 01-.67-.44 1.84 1.84 0 01-.4-.73 4.1 4.1 0 01-.12-1.05V34.2h-.79c-.1 0-.17-.06-.22-.18a1.6 1.6 0 01-.07-.58 1.94 1.94 0 010-.36 1 1 0 01.05-.23.31.31 0 01.09-.12.2.2 0 01.13 0h.79v-1.51a.23.23 0 010-.14.3.3 0 01.15-.09.9.9 0 01.28-.06 3 3 0 01.45 0 3.1 3.1 0 01.46 0 .9.9 0 01.28.06.35.35 0 01.15.09.23.23 0 010 .14v1.47h1.44a.2.2 0 01.13 0 .19.19 0 01.09.12.94.94 0 01.06.23v.36a1.6 1.6 0 01-.07.58q-.07.18-.21.18h-1.45v3.1a1.58 1.58 0 00.17.81.67.67 0 00.61.27 1.12 1.12 0 00.27 0l.21-.06.15-.06a.25.25 0 01.12 0 .11.11 0 01.08 0 .19.19 0 01.07.11v.21a3.23 3.23 0 01.16.35z"/>
    </g>
  </g>
</svg>
