<svg xmlns="http://www.w3.org/2000/svg" xmlns:xlink="http://www.w3.org/1999/xlink" viewBox="0 0 263.62 107.61"><defs><style>.cls-1{fill:url(#Nouvelle_nuance_de_dégradé_2);}.cls-2{fill:#878787;}.cls-3{fill:#2dafe6;}.cls-4{fill:#575756;}.cls-5{fill:#fff;}</style><linearGradient id="Nouvelle_nuance_de_dégradé_2" x1="43.23" y1="-0.19" x2="43.23" y2="85.38" gradientUnits="userSpaceOnUse"><stop offset="0" stop-color="#5bc5f2"/><stop offset="1" stop-color="#0095d4"/></linearGradient></defs><g id="Calque_2" data-name="Calque 2"><g id="Calque_1-2" data-name="Calque 1"><path class="cls-1" d="M84.9,36.66,47,1.44a5.59,5.59,0,0,0-7.49,0l-8,7.38H21.6a6.69,6.69,0,0,0-6.66,6.7v8.72L1.57,36.66A4.81,4.81,0,0,0,0,40.18a4.67,4.67,0,0,0,.46,2,5.34,5.34,0,0,0,4.85,2.93h4.84V79.05a6,6,0,0,0,2.07,4.52,7.07,7.07,0,0,0,4.7,1.76H38.19a3.19,3.19,0,0,0,3.18-3.19V68.84h4V85.33H69.54a7.07,7.07,0,0,0,4.7-1.76,6,6,0,0,0,2.07-4.52V45.14h4.85A5.31,5.31,0,0,0,86,42.2a4.71,4.71,0,0,0-1.11-5.54ZM14.15,42.84v-.23h0Z"/><path class="cls-2" d="M15.24,103.26a1.28,1.28,0,0,0-.5-1,5.07,5.07,0,0,0-1.69-.77,5.61,5.61,0,0,1-2-.9,1.76,1.76,0,0,1-.68-1.47,1.88,1.88,0,0,1,.76-1.54,3,3,0,0,1,1.95-.61,2.89,2.89,0,0,1,2,.68,2.2,2.2,0,0,1,.74,1.75v0h-.63A1.77,1.77,0,0,0,14.6,98a2.13,2.13,0,0,0-1.51-.54,2.28,2.28,0,0,0-1.5.46,1.39,1.39,0,0,0-.54,1.11,1.26,1.26,0,0,0,.49,1,5.19,5.19,0,0,0,1.73.76,5.57,5.57,0,0,1,2,.93,1.77,1.77,0,0,1,.68,1.46,1.83,1.83,0,0,1-.79,1.55,3.29,3.29,0,0,1-2,.58,3.64,3.64,0,0,1-2.11-.62,2,2,0,0,1-.87-1.8v0h.63a1.58,1.58,0,0,0,.71,1.42,2.9,2.9,0,0,0,1.63.46,2.49,2.49,0,0,0,1.52-.43A1.31,1.31,0,0,0,15.24,103.26Z"/><path class="cls-2" d="M22.31,102.38a3.58,3.58,0,0,1-.62,2.19,2,2,0,0,1-1.7.81,2.49,2.49,0,0,1-1.12-.24,2,2,0,0,1-.78-.69v3.16h-.67V99.16h.51l.13,1a2.19,2.19,0,0,1,.78-.79A2.29,2.29,0,0,1,20,99.05a2,2,0,0,1,1.71.87,4,4,0,0,1,.62,2.34Zm-.68-.12a3.52,3.52,0,0,0-.46-1.9,1.49,1.49,0,0,0-1.34-.73,1.82,1.82,0,0,0-1.1.32,2.14,2.14,0,0,0-.64.84v2.95a1.86,1.86,0,0,0,.67.79,1.93,1.93,0,0,0,1.08.28,1.54,1.54,0,0,0,1.34-.66,3.14,3.14,0,0,0,.45-1.77Z"/><path class="cls-2" d="M26.12,105.38a2.42,2.42,0,0,1-1.91-.84,3.14,3.14,0,0,1-.74-2.15v-.31a3.19,3.19,0,0,1,.75-2.18,2.33,2.33,0,0,1,1.84-.85,2.09,2.09,0,0,1,1.71.71,2.87,2.87,0,0,1,.61,1.92v.52H24.15v.19a2.76,2.76,0,0,0,.52,1.73,1.73,1.73,0,0,0,1.45.69,2.86,2.86,0,0,0,1-.18,2.1,2.1,0,0,0,.77-.5l.29.47a2.74,2.74,0,0,1-.84.56A3.14,3.14,0,0,1,26.12,105.38Zm-.06-5.76a1.64,1.64,0,0,0-1.27.56,2.44,2.44,0,0,0-.59,1.41l0,0H27.7v-.14a2.08,2.08,0,0,0-.42-1.34A1.48,1.48,0,0,0,26.06,99.62Zm.72-3.06h.82l0,0-1.4,1.46h-.6Z"/><path class="cls-2" d="M32,104.81a1.84,1.84,0,0,0,1.14-.38,1.28,1.28,0,0,0,.5-1.07h.6v0a1.74,1.74,0,0,1-.66,1.42,2.42,2.42,0,0,1-1.59.57,2.27,2.27,0,0,1-1.89-.86,3.43,3.43,0,0,1-.68-2.19v-.24a3.43,3.43,0,0,1,.68-2.19A2.25,2.25,0,0,1,32,99.05a2.3,2.3,0,0,1,1.63.59,2,2,0,0,1,.63,1.55v0h-.6a1.5,1.5,0,0,0-.48-1.17A1.68,1.68,0,0,0,32,99.62a1.59,1.59,0,0,0-1.42.71,3.11,3.11,0,0,0-.46,1.76v.24a3.16,3.16,0,0,0,.46,1.78A1.59,1.59,0,0,0,32,104.81Z"/><path class="cls-2" d="M36.4,97.41h-.66v-1h.66Zm0,7.85h-.66v-6.1h.66Z"/><path class="cls-2" d="M42.11,105.26c0-.21-.07-.4-.09-.55a3.71,3.71,0,0,1,0-.47,2.52,2.52,0,0,1-.89.82,2.61,2.61,0,0,1-1.3.32,1.88,1.88,0,0,1-1.38-.48,1.7,1.7,0,0,1-.49-1.29,1.55,1.55,0,0,1,.71-1.33,3.09,3.09,0,0,1,1.85-.51H42V101a1.31,1.31,0,0,0-.42-1,1.65,1.65,0,0,0-1.16-.37,1.74,1.74,0,0,0-1.12.34,1,1,0,0,0-.42.85h-.62v0a1.42,1.42,0,0,1,.58-1.21,2.79,2.79,0,0,1,3.23,0,1.82,1.82,0,0,1,.6,1.47v3a6.26,6.26,0,0,0,0,.63,3.19,3.19,0,0,0,.12.6Zm-2.24-.48a2.4,2.4,0,0,0,1.35-.37,1.88,1.88,0,0,0,.77-1v-1.17h-1.5a2.26,2.26,0,0,0-1.36.4,1.15,1.15,0,0,0-.53.94,1.08,1.08,0,0,0,.34.84A1.32,1.32,0,0,0,39.87,104.78Z"/><path class="cls-2" d="M45.2,105.26h-.67v-8.8h.67Z"/><path class="cls-2" d="M47.81,97.41h-.67v-1h.67Zm0,7.85h-.67v-6.1h.67Z"/><path class="cls-2" d="M53.3,103.7A1,1,0,0,0,53,103a2.9,2.9,0,0,0-1.26-.52,4.18,4.18,0,0,1-1.61-.62,1.27,1.27,0,0,1-.52-1.09,1.49,1.49,0,0,1,.59-1.19,2.35,2.35,0,0,1,1.55-.48,2.42,2.42,0,0,1,1.62.51,1.51,1.51,0,0,1,.58,1.27v0h-.63a1.14,1.14,0,0,0-.42-.88,1.68,1.68,0,0,0-1.14-.37,1.66,1.66,0,0,0-1.1.32,1,1,0,0,0-.37.75.84.84,0,0,0,.32.69,3,3,0,0,0,1.26.49,3.85,3.85,0,0,1,1.61.66,1.35,1.35,0,0,1,.55,1.14,1.48,1.48,0,0,1-.61,1.23,2.57,2.57,0,0,1-1.63.48,2.68,2.68,0,0,1-1.74-.53,1.47,1.47,0,0,1-.59-1.26v0H50a1.11,1.11,0,0,0,.53,1,2.21,2.21,0,0,0,1.17.3,1.81,1.81,0,0,0,1.15-.33A1,1,0,0,0,53.3,103.7Z"/><path class="cls-2" d="M56.57,97.6v1.56h1.34v.55H56.57v4a1.28,1.28,0,0,0,.22.85.73.73,0,0,0,.57.25l.24,0,.27,0,.1.5a1.58,1.58,0,0,1-.33.11,1.72,1.72,0,0,1-.39,0,1.27,1.27,0,0,1-1-.41,1.9,1.9,0,0,1-.36-1.28v-4h-1v-.55h1V97.6Z"/><path class="cls-2" d="M61.53,105.38a2.43,2.43,0,0,1-1.92-.84,3.13,3.13,0,0,1-.73-2.15v-.31a3.23,3.23,0,0,1,.74-2.18,2.35,2.35,0,0,1,1.85-.85,2.12,2.12,0,0,1,1.71.71,2.87,2.87,0,0,1,.6,1.92v.52H59.55v.19a2.76,2.76,0,0,0,.53,1.73,1.72,1.72,0,0,0,1.45.69,2.8,2.8,0,0,0,1-.18,2.23,2.23,0,0,0,.78-.5l.28.47a2.52,2.52,0,0,1-.84.56A3.09,3.09,0,0,1,61.53,105.38Zm-.06-5.76a1.66,1.66,0,0,0-1.28.56,2.44,2.44,0,0,0-.58,1.41l0,0h3.48v-.14a2,2,0,0,0-.43-1.34A1.47,1.47,0,0,0,61.47,99.62Z"/><path class="cls-2" d="M68.78,103.7a1,1,0,0,0-.35-.75,3,3,0,0,0-1.27-.52,4.13,4.13,0,0,1-1.6-.62,1.28,1.28,0,0,1-.53-1.09,1.49,1.49,0,0,1,.59-1.19,2.37,2.37,0,0,1,1.55-.48,2.42,2.42,0,0,1,1.62.51,1.51,1.51,0,0,1,.58,1.27v0h-.62a1.15,1.15,0,0,0-.43-.88,1.68,1.68,0,0,0-1.14-.37,1.66,1.66,0,0,0-1.1.32,1,1,0,0,0-.37.75.87.87,0,0,0,.32.69,3,3,0,0,0,1.26.49,4,4,0,0,1,1.62.66,1.38,1.38,0,0,1,.55,1.14,1.48,1.48,0,0,1-.62,1.23,2.57,2.57,0,0,1-1.63.48,2.63,2.63,0,0,1-1.73-.53,1.5,1.5,0,0,1-.6-1.26v0h.62a1.11,1.11,0,0,0,.53,1,2.26,2.26,0,0,0,1.17.3,1.84,1.84,0,0,0,1.16-.33A1,1,0,0,0,68.78,103.7Z"/><path class="cls-2" d="M73.53,102.26a4,4,0,0,1,.61-2.34,2,2,0,0,1,1.72-.87,2.15,2.15,0,0,1,1.09.26,2.32,2.32,0,0,1,.78.75v-3.6h.67v8.8h-.55l-.1-.88a2,2,0,0,1-.78.74,2.34,2.34,0,0,1-1.12.26,2,2,0,0,1-1.71-.81,3.58,3.58,0,0,1-.61-2.19Zm.67.12a3.14,3.14,0,0,0,.44,1.76,1.52,1.52,0,0,0,1.33.65,1.85,1.85,0,0,0,1.08-.29,1.91,1.91,0,0,0,.68-.8v-2.89a2.15,2.15,0,0,0-.66-.85A1.71,1.71,0,0,0,76,99.63a1.46,1.46,0,0,0-1.33.73,3.59,3.59,0,0,0-.45,1.9Z"/><path class="cls-2" d="M84.17,104.27a2.08,2.08,0,0,1-.79.82,2.24,2.24,0,0,1-1.16.29,1.89,1.89,0,0,1-1.51-.65,3.18,3.18,0,0,1-.54-2V99.16h.67v3.55a2.65,2.65,0,0,0,.38,1.6,1.29,1.29,0,0,0,1.08.48,2,2,0,0,0,1.21-.34,1.81,1.81,0,0,0,.63-.93V99.16h.68v6.1h-.6Z"/><path class="cls-2" d="M91.61,104.81a1.84,1.84,0,0,0,1.14-.38,1.28,1.28,0,0,0,.5-1.07h.6v0a1.68,1.68,0,0,1-.66,1.42,2.42,2.42,0,0,1-1.59.57,2.27,2.27,0,0,1-1.89-.86,3.42,3.42,0,0,1-.67-2.19v-.24a3.42,3.42,0,0,1,.67-2.19,2.52,2.52,0,0,1,3.51-.26,1.89,1.89,0,0,1,.63,1.55v0h-.6a1.5,1.5,0,0,0-.48-1.17,1.66,1.66,0,0,0-1.16-.44,1.61,1.61,0,0,0-1.43.71,3.11,3.11,0,0,0-.46,1.76v.24a3.16,3.16,0,0,0,.46,1.78A1.6,1.6,0,0,0,91.61,104.81Z"/><path class="cls-2" d="M94.93,102.12a3.27,3.27,0,0,1,.73-2.21,2.65,2.65,0,0,1,3.91,0,3.27,3.27,0,0,1,.73,2.21v.19a3.27,3.27,0,0,1-.73,2.21,2.65,2.65,0,0,1-3.91,0,3.27,3.27,0,0,1-.73-2.21Zm.67.19a2.9,2.9,0,0,0,.54,1.78,1.88,1.88,0,0,0,3,0,3,3,0,0,0,.53-1.78v-.19a2.87,2.87,0,0,0-.54-1.77,1.72,1.72,0,0,0-1.48-.73,1.7,1.7,0,0,0-1.47.73,2.87,2.87,0,0,0-.54,1.77Z"/><path class="cls-2" d="M102.3,99.16l.06,1.06a2.3,2.3,0,0,1,.79-.87,2.23,2.23,0,0,1,1.18-.3,1.86,1.86,0,0,1,1.5.6,2.86,2.86,0,0,1,.52,1.89v3.72h-.68v-3.71a2.21,2.21,0,0,0-.39-1.48,1.41,1.41,0,0,0-1.1-.44A1.77,1.77,0,0,0,103,100a1.9,1.9,0,0,0-.64,1v4.32h-.67v-6.1Z"/><path class="cls-2" d="M109.16,97.6v1.56h1.33v.55h-1.33v4a1.34,1.34,0,0,0,.21.85.76.76,0,0,0,.58.25l.24,0,.27,0,.1.5a1.7,1.7,0,0,1-.34.11,1.72,1.72,0,0,1-.39,0,1.27,1.27,0,0,1-1-.41,1.9,1.9,0,0,1-.35-1.28v-4h-1v-.55h1V97.6Z"/><path class="cls-2" d="M114.58,99.74l-.48,0a1.51,1.51,0,0,0-1,.36,2,2,0,0,0-.58,1v4.21h-.67v-6.1h.58l.09,1v.07a2.09,2.09,0,0,1,.71-.88,1.74,1.74,0,0,1,1-.31h.24l.18,0Z"/><path class="cls-2" d="M115.35,102.12a3.28,3.28,0,0,1,.74-2.21,2.64,2.64,0,0,1,3.9,0,3.28,3.28,0,0,1,.74,2.21v.19a3.28,3.28,0,0,1-.74,2.21,2.41,2.41,0,0,1-1.94.86,2.45,2.45,0,0,1-2-.86,3.28,3.28,0,0,1-.74-2.21Zm.68.19a3,3,0,0,0,.53,1.78,1.88,1.88,0,0,0,3,0,2.9,2.9,0,0,0,.54-1.78v-.19a2.87,2.87,0,0,0-.54-1.77,1.87,1.87,0,0,0-3,0,2.93,2.93,0,0,0-.53,1.77Zm3.65-4.37v.11h-.63l-.94-1-.93,1h-.62v-.12l1.28-1.25h.54Z"/><path class="cls-2" d="M122.88,105.26h-.67v-8.8h.67Z"/><path class="cls-2" d="M127.05,105.38a2.43,2.43,0,0,1-1.92-.84,3.13,3.13,0,0,1-.73-2.15v-.31a3.23,3.23,0,0,1,.74-2.18,2.35,2.35,0,0,1,1.85-.85,2.12,2.12,0,0,1,1.71.71,2.87,2.87,0,0,1,.6,1.92v.52h-4.23v.19a2.76,2.76,0,0,0,.53,1.73,1.72,1.72,0,0,0,1.45.69,2.8,2.8,0,0,0,1-.18,2.23,2.23,0,0,0,.78-.5l.28.47a2.52,2.52,0,0,1-.84.56A3.09,3.09,0,0,1,127.05,105.38ZM127,99.62a1.66,1.66,0,0,0-1.28.56,2.37,2.37,0,0,0-.58,1.41l0,0h3.48v-.14a2.09,2.09,0,0,0-.43-1.34A1.47,1.47,0,0,0,127,99.62Z"/><path class="cls-2" d="M135.76,105.38a2.42,2.42,0,0,1-1.91-.84,3.14,3.14,0,0,1-.74-2.15v-.31a3.19,3.19,0,0,1,.75-2.18,2.33,2.33,0,0,1,1.84-.85,2.09,2.09,0,0,1,1.71.71,2.87,2.87,0,0,1,.6,1.92v.52h-4.22v.19a2.76,2.76,0,0,0,.52,1.73,1.72,1.72,0,0,0,1.45.69,2.8,2.8,0,0,0,1-.18,2.23,2.23,0,0,0,.78-.5l.28.47a2.57,2.57,0,0,1-.83.56A3.17,3.17,0,0,1,135.76,105.38Zm-.06-5.76a1.62,1.62,0,0,0-1.27.56,2.38,2.38,0,0,0-.59,1.41l0,0h3.48v-.14a2.08,2.08,0,0,0-.42-1.34A1.49,1.49,0,0,0,135.7,99.62Z"/><path class="cls-2" d="M140.42,97.6v1.56h1.34v.55h-1.34v4a1.28,1.28,0,0,0,.22.85.73.73,0,0,0,.57.25l.24,0,.27,0,.1.5a1.58,1.58,0,0,1-.33.11,1.72,1.72,0,0,1-.39,0,1.27,1.27,0,0,1-1-.41,1.9,1.9,0,0,1-.36-1.28v-4h-1.05v-.55h1.05V97.6Z"/><path class="cls-2" d="M145.6,102.26a4,4,0,0,1,.62-2.34,2,2,0,0,1,1.71-.87,2.18,2.18,0,0,1,1.1.26,2.21,2.21,0,0,1,.77.75v-3.6h.68v8.8h-.55l-.1-.88a2.12,2.12,0,0,1-.78.74,2.39,2.39,0,0,1-1.13.26,2,2,0,0,1-1.7-.81,3.58,3.58,0,0,1-.62-2.19Zm.68.12a3.06,3.06,0,0,0,.44,1.76,1.49,1.49,0,0,0,1.33.65,1.85,1.85,0,0,0,1.08-.29,1.89,1.89,0,0,0,.67-.8v-2.89a2.13,2.13,0,0,0-.65-.85,1.71,1.71,0,0,0-1.09-.33,1.49,1.49,0,0,0-1.34.73,3.68,3.68,0,0,0-.44,1.9Z"/><path class="cls-2" d="M154.58,105.38a2.43,2.43,0,0,1-1.92-.84,3.13,3.13,0,0,1-.73-2.15v-.31a3.18,3.18,0,0,1,.74-2.18,2.35,2.35,0,0,1,1.84-.85,2.09,2.09,0,0,1,1.71.71,2.82,2.82,0,0,1,.61,1.92v.52H152.6v.19a2.76,2.76,0,0,0,.52,1.73,1.74,1.74,0,0,0,1.46.69,2.8,2.8,0,0,0,1-.18,2.1,2.1,0,0,0,.77-.5l.29.47a2.52,2.52,0,0,1-.84.56A3.12,3.12,0,0,1,154.58,105.38Zm-.07-5.76a1.64,1.64,0,0,0-1.27.56,2.37,2.37,0,0,0-.58,1.41v0h3.48v-.14a2.08,2.08,0,0,0-.42-1.34A1.48,1.48,0,0,0,154.51,99.62Z"/><path class="cls-2" d="M161.73,105.26h-.66v-8.8h.66Z"/><path class="cls-2" d="M167.44,105.26c0-.21-.07-.4-.09-.55a2.49,2.49,0,0,1,0-.47,2.41,2.41,0,0,1-.88.82,2.61,2.61,0,0,1-1.3.32,1.88,1.88,0,0,1-1.38-.48,1.7,1.7,0,0,1-.49-1.29,1.55,1.55,0,0,1,.71-1.33,3.09,3.09,0,0,1,1.85-.51h1.49V101a1.3,1.3,0,0,0-.41-1,1.65,1.65,0,0,0-1.16-.37,1.74,1.74,0,0,0-1.12.34,1,1,0,0,0-.42.85h-.62l0,0a1.46,1.46,0,0,1,.59-1.21,2.79,2.79,0,0,1,3.23,0A1.82,1.82,0,0,1,168,101v3a4.26,4.26,0,0,0,0,.63,3.19,3.19,0,0,0,.12.6Zm-2.24-.48a2.4,2.4,0,0,0,1.35-.37,1.81,1.81,0,0,0,.76-1v-1.17h-1.49a2.26,2.26,0,0,0-1.36.4,1.15,1.15,0,0,0-.53.94,1.08,1.08,0,0,0,.34.84A1.32,1.32,0,0,0,165.2,104.78Z"/><path class="cls-2" d="M177.46,102.38a3.58,3.58,0,0,1-.62,2.19,2,2,0,0,1-1.7.81,2.45,2.45,0,0,1-1.11-.24,2.1,2.1,0,0,1-.79-.69v3.16h-.67V99.16h.52l.12,1a2.14,2.14,0,0,1,.79-.79,2.28,2.28,0,0,1,1.13-.27,2,2,0,0,1,1.71.87,4,4,0,0,1,.62,2.34Zm-.67-.12a3.61,3.61,0,0,0-.46-1.9,1.52,1.52,0,0,0-1.35-.73,1.76,1.76,0,0,0-1.09.32,2.08,2.08,0,0,0-.65.84v2.95a1.86,1.86,0,0,0,.67.79,1.93,1.93,0,0,0,1.08.28,1.53,1.53,0,0,0,1.34-.66,3.14,3.14,0,0,0,.46-1.77Z"/><path class="cls-2" d="M181.28,105.38a2.43,2.43,0,0,1-1.92-.84,3.13,3.13,0,0,1-.73-2.15v-.31a3.23,3.23,0,0,1,.74-2.18,2.35,2.35,0,0,1,1.85-.85,2.12,2.12,0,0,1,1.71.71,2.87,2.87,0,0,1,.6,1.92v.52H179.3v.19a2.76,2.76,0,0,0,.53,1.73,1.72,1.72,0,0,0,1.45.69,2.8,2.8,0,0,0,1-.18,2.1,2.1,0,0,0,.77-.5l.29.47a2.52,2.52,0,0,1-.84.56A3.12,3.12,0,0,1,181.28,105.38Zm-.06-5.76a1.64,1.64,0,0,0-1.28.56,2.37,2.37,0,0,0-.58,1.41v0h3.49v-.14a2.09,2.09,0,0,0-.43-1.34A1.47,1.47,0,0,0,181.22,99.62Z"/><path class="cls-2" d="M187.66,99.74l-.48,0a1.51,1.51,0,0,0-1,.36,2,2,0,0,0-.58,1v4.21h-.67v-6.1h.59l.08,1v.07a2.16,2.16,0,0,1,.71-.88,1.76,1.76,0,0,1,1-.31h.24l.19,0Z"/><path class="cls-2" d="M189.38,99.16l.07,1a2.1,2.1,0,0,1,.77-.82,2.17,2.17,0,0,1,1.16-.29,2,2,0,0,1,1.16.33,1.89,1.89,0,0,1,.67,1,2.28,2.28,0,0,1,.78-1,2.08,2.08,0,0,1,1.23-.36,1.83,1.83,0,0,1,1.5.64,3.2,3.2,0,0,1,.53,2v3.56h-.67v-3.57a2.49,2.49,0,0,0-.4-1.59,1.38,1.38,0,0,0-1.1-.47,1.51,1.51,0,0,0-1.19.47,2.36,2.36,0,0,0-.54,1.22.49.49,0,0,0,0,.12v3.82h-.68v-3.57a2.44,2.44,0,0,0-.4-1.58,1.37,1.37,0,0,0-1.1-.48,1.67,1.67,0,0,0-1.13.36,1.88,1.88,0,0,0-.59,1v4.3h-.67v-6.1Z"/><path class="cls-2" d="M201.31,105.38a2.43,2.43,0,0,1-1.92-.84,3.13,3.13,0,0,1-.73-2.15v-.31a3.23,3.23,0,0,1,.74-2.18,2.35,2.35,0,0,1,1.85-.85,2.11,2.11,0,0,1,1.71.71,2.87,2.87,0,0,1,.6,1.92v.52h-4.23v.19a2.76,2.76,0,0,0,.53,1.73,1.72,1.72,0,0,0,1.45.69,2.8,2.8,0,0,0,1-.18,2.23,2.23,0,0,0,.78-.5l.28.47a2.52,2.52,0,0,1-.84.56A3.09,3.09,0,0,1,201.31,105.38Zm-.06-5.76a1.66,1.66,0,0,0-1.28.56,2.44,2.44,0,0,0-.58,1.41l0,0h3.48v-.14a2,2,0,0,0-.43-1.34A1.46,1.46,0,0,0,201.25,99.62Zm.71-3.06h.83v0l-1.39,1.46h-.61Z"/><path class="cls-2" d="M208.77,105.26a5.51,5.51,0,0,1-.1-.55,3.71,3.71,0,0,1,0-.47,2.49,2.49,0,0,1-.88.82,2.64,2.64,0,0,1-1.3.32,1.91,1.91,0,0,1-1.39-.48,1.73,1.73,0,0,1-.49-1.29,1.56,1.56,0,0,1,.72-1.33,3.09,3.09,0,0,1,1.85-.51h1.49V101a1.33,1.33,0,0,0-.41-1,2,2,0,0,0-2.28,0,1,1,0,0,0-.42.85h-.63v0a1.43,1.43,0,0,1,.59-1.21,2.77,2.77,0,0,1,3.22,0,1.8,1.8,0,0,1,.61,1.47v3a4.26,4.26,0,0,0,0,.63,3.19,3.19,0,0,0,.12.6Zm-2.24-.48a2.36,2.36,0,0,0,1.34-.37,1.78,1.78,0,0,0,.77-1v-1.17h-1.5a2.25,2.25,0,0,0-1.35.4,1.12,1.12,0,0,0-.53.94,1.08,1.08,0,0,0,.34.84A1.29,1.29,0,0,0,206.53,104.78Z"/><path class="cls-2" d="M216,102.38a3.58,3.58,0,0,1-.62,2.19,2,2,0,0,1-1.7.81,2.33,2.33,0,0,1-1.15-.27,2.13,2.13,0,0,1-.79-.76l-.11.91h-.53v-8.8h.67v3.63a2.29,2.29,0,0,1,.78-.77,2.21,2.21,0,0,1,1.12-.27,2,2,0,0,1,1.71.87,4,4,0,0,1,.62,2.34Zm-.68-.12a3.59,3.59,0,0,0-.45-1.9,1.47,1.47,0,0,0-1.33-.73,1.75,1.75,0,0,0-1.13.34,2.17,2.17,0,0,0-.64.89v2.79a2,2,0,0,0,.67.84,1.91,1.91,0,0,0,1.11.3,1.49,1.49,0,0,0,1.32-.65,3.06,3.06,0,0,0,.45-1.76Z"/><path class="cls-2" d="M218.25,97.41h-.66v-1h.66Zm0,7.85h-.66v-6.1h.66Z"/><path class="cls-2" d="M220.86,105.26h-.66v-8.8h.66Z"/><path class="cls-2" d="M223.48,97.41h-.67v-1h.67Zm0,7.85h-.67v-6.1h.67Z"/><path class="cls-2" d="M226.38,97.6v1.56h1.34v.55h-1.34v4a1.33,1.33,0,0,0,.22.85.75.75,0,0,0,.58.25l.23,0,.28,0,.1.5a1.7,1.7,0,0,1-.34.11,1.72,1.72,0,0,1-.39,0,1.27,1.27,0,0,1-1-.41,1.9,1.9,0,0,1-.36-1.28v-4h-1v-.55h1V97.6Z"/><path class="cls-2" d="M231.34,105.38a2.42,2.42,0,0,1-1.91-.84,3.14,3.14,0,0,1-.74-2.15v-.31a3.19,3.19,0,0,1,.75-2.18,2.33,2.33,0,0,1,1.84-.85,2.09,2.09,0,0,1,1.71.71,2.87,2.87,0,0,1,.6,1.92v.52h-4.22v.19a2.76,2.76,0,0,0,.52,1.73,1.72,1.72,0,0,0,1.45.69,2.8,2.8,0,0,0,1-.18,2.23,2.23,0,0,0,.78-.5l.28.47a2.52,2.52,0,0,1-.84.56A3.09,3.09,0,0,1,231.34,105.38Zm-.06-5.76a1.66,1.66,0,0,0-1.28.56,2.44,2.44,0,0,0-.58,1.41l0,0h3.48v-.14a2,2,0,0,0-.43-1.34A1.46,1.46,0,0,0,231.28,99.62Zm.71-3.06h.83v0l-1.39,1.46h-.6Z"/><path class="cls-2" d="M241.59,105.26c0-.21-.07-.4-.09-.55a3.71,3.71,0,0,1,0-.47,2.49,2.49,0,0,1-.88.82,2.64,2.64,0,0,1-1.3.32,1.91,1.91,0,0,1-1.39-.48,1.7,1.7,0,0,1-.49-1.29,1.57,1.57,0,0,1,.71-1.33,3.15,3.15,0,0,1,1.86-.51h1.49V101a1.33,1.33,0,0,0-.41-1,2,2,0,0,0-2.28,0,1,1,0,0,0-.42.85h-.63v0a1.43,1.43,0,0,1,.59-1.21,2.77,2.77,0,0,1,3.22,0,1.8,1.8,0,0,1,.61,1.47v3q0,.33,0,.63a4.29,4.29,0,0,0,.13.6Zm-2.23-.48a2.36,2.36,0,0,0,1.34-.37,1.78,1.78,0,0,0,.77-1v-1.17H240a2.23,2.23,0,0,0-1.35.4,1.12,1.12,0,0,0-.53.94,1.11,1.11,0,0,0,.33.84A1.33,1.33,0,0,0,239.36,104.78ZM240.3,98h-.65l-1.36-1.47v0h.87Z"/><path class="cls-2" d="M247.48,105.26h-.67v-8.8h.67Z"/><path class="cls-2" d="M250.14,98.06l-.4,1.73h-.41l.15-1.72v-1h.66Z"/><path class="cls-2" d="M255.82,105.26a5.51,5.51,0,0,1-.1-.55,3.71,3.71,0,0,1,0-.47,2.49,2.49,0,0,1-.88.82,2.64,2.64,0,0,1-1.3.32,1.91,1.91,0,0,1-1.39-.48,1.73,1.73,0,0,1-.49-1.29,1.56,1.56,0,0,1,.72-1.33,3.09,3.09,0,0,1,1.85-.51h1.49V101a1.33,1.33,0,0,0-.41-1,2,2,0,0,0-2.28,0,1,1,0,0,0-.42.85H252v0a1.43,1.43,0,0,1,.59-1.21,2.77,2.77,0,0,1,3.22,0,1.8,1.8,0,0,1,.61,1.47v3a4.26,4.26,0,0,0,0,.63,3.19,3.19,0,0,0,.12.6Zm-2.24-.48a2.36,2.36,0,0,0,1.34-.37,1.78,1.78,0,0,0,.77-1v-1.17h-1.5a2.25,2.25,0,0,0-1.35.4,1.12,1.12,0,0,0-.53.94,1.08,1.08,0,0,0,.34.84A1.29,1.29,0,0,0,253.58,104.78Z"/><path class="cls-2" d="M258.9,97.41h-.66v-1h.66Zm0,7.85h-.66v-6.1h.66Z"/><path class="cls-2" d="M263.54,99.74l-.48,0a1.51,1.51,0,0,0-1,.36,2,2,0,0,0-.58,1v4.21h-.68v-6.1h.59l.09,1v.07a2.14,2.14,0,0,1,.7-.88,1.79,1.79,0,0,1,1.06-.31h.23l.19,0Z"/><path class="cls-3" d="M128.39,54.27a2.68,2.68,0,0,1-.22,1.13,2.25,2.25,0,0,1-.58.82,2.3,2.3,0,0,1-.88.49,3.6,3.6,0,0,1-1,.15h-3.07a6.21,6.21,0,0,1-1.65-.2,3.17,3.17,0,0,1-1.28-.7,5.79,5.79,0,0,1-1.14-1.37c-.36-.58-.77-1.32-1.23-2.24l-8.8-16.62c-.51-1-1-2-1.56-3.2s-1-2.26-1.42-3.34h-.06c.08,1.32.13,2.64.17,3.95s0,2.66,0,4v18.6a.86.86,0,0,1-.15.49,1.07,1.07,0,0,1-.52.37,3.9,3.9,0,0,1-1,.23,11.7,11.7,0,0,1-1.61.09,11.32,11.32,0,0,1-1.58-.09,3.81,3.81,0,0,1-1-.23,1,1,0,0,1-.49-.37.93.93,0,0,1-.14-.49V23.84A2.42,2.42,0,0,1,100,21.9a2.75,2.75,0,0,1,1.85-.65h3.85a7.18,7.18,0,0,1,1.75.18,3.75,3.75,0,0,1,1.28.59,4.87,4.87,0,0,1,1,1.14,15.67,15.67,0,0,1,1,1.8l6.89,13,1.19,2.32c.39.76.77,1.52,1.13,2.28s.72,1.5,1.07,2.24.68,1.46,1,2.19h0c-.06-1.28-.1-2.61-.13-4s0-2.72,0-4V22.33a.82.82,0,0,1,.17-.5,1.29,1.29,0,0,1,.54-.38,3.83,3.83,0,0,1,1-.24c.41,0,1-.07,1.61-.07s1.14,0,1.56.07a3.17,3.17,0,0,1,1,.24,1.13,1.13,0,0,1,.48.38.93.93,0,0,1,.13.5Z"/><path class="cls-3" d="M162.35,55.87a1.13,1.13,0,0,1-.11.51.9.9,0,0,1-.52.34,5.35,5.35,0,0,1-1.2.19q-.79.06-2.16.06-1.16,0-1.83-.06a4.17,4.17,0,0,1-1.08-.2,1.07,1.07,0,0,1-.56-.39,2,2,0,0,1-.28-.56l-3.17-7.94c-.38-.9-.76-1.69-1.12-2.39a7.71,7.71,0,0,0-1.22-1.75,4.49,4.49,0,0,0-1.54-1,5.31,5.31,0,0,0-2-.36h-2.25V55.81a.82.82,0,0,1-.17.5,1.32,1.32,0,0,1-.59.35,4.93,4.93,0,0,1-1.1.22,16.86,16.86,0,0,1-3.48,0,4.8,4.8,0,0,1-1.11-.22,1.19,1.19,0,0,1-.57-.35.82.82,0,0,1-.17-.5V23.53a2,2,0,0,1,2.14-2.28h9.15c.93,0,1.7,0,2.3.06s1.15.08,1.64.14a15,15,0,0,1,3.84,1,9.05,9.05,0,0,1,2.9,1.94,8.06,8.06,0,0,1,1.82,2.83,10.38,10.38,0,0,1,.63,3.75,11.05,11.05,0,0,1-.45,3.25,8.46,8.46,0,0,1-1.33,2.63,8.82,8.82,0,0,1-2.16,2,11.39,11.39,0,0,1-2.92,1.37,8.66,8.66,0,0,1,1.49.94,8.27,8.27,0,0,1,1.31,1.33,13.18,13.18,0,0,1,1.16,1.79c.36.67.72,1.42,1.07,2.26l3,7c.27.69.45,1.2.54,1.52A3.09,3.09,0,0,1,162.35,55.87Zm-9.27-24.12a5.31,5.31,0,0,0-.79-3,4.35,4.35,0,0,0-2.6-1.7,9.28,9.28,0,0,0-1.24-.22,16.42,16.42,0,0,0-1.93-.08h-3.23V36.86H147a9,9,0,0,0,2.68-.37,5.4,5.4,0,0,0,1.91-1.05,4.34,4.34,0,0,0,1.15-1.6A5.6,5.6,0,0,0,153.08,31.75Z"/><path class="cls-3" d="M178.51,46.91a19.35,19.35,0,0,1-.45,4.36,8.29,8.29,0,0,1-1.54,3.29,6.82,6.82,0,0,1-2.83,2.08,11.53,11.53,0,0,1-4.31.71,11.07,11.07,0,0,1-1.63-.12,11.25,11.25,0,0,1-1.48-.32,8.55,8.55,0,0,1-1.16-.41,2.18,2.18,0,0,1-.66-.4,1.84,1.84,0,0,1-.27-.37,2.11,2.11,0,0,1-.19-.51,3.84,3.84,0,0,1-.11-.78c0-.31,0-.71,0-1.18s0-1.15,0-1.58a6.42,6.42,0,0,1,.14-1,.94.94,0,0,1,.27-.52.68.68,0,0,1,.45-.15,1.24,1.24,0,0,1,.58.18l.74.37a8.23,8.23,0,0,0,1,.37,4.19,4.19,0,0,0,1.29.18,3.73,3.73,0,0,0,1.3-.21,2,2,0,0,0,.93-.71,3.82,3.82,0,0,0,.56-1.36,10.89,10.89,0,0,0,.19-2.2V22.19a.7.7,0,0,1,.18-.48,1.33,1.33,0,0,1,.57-.35,4.73,4.73,0,0,1,1.11-.2,17.13,17.13,0,0,1,1.75-.07,16.5,16.5,0,0,1,1.72.07,5.3,5.3,0,0,1,1.11.2,1.4,1.4,0,0,1,.6.35.7.7,0,0,1,.18.48Z"/><path class="cls-4" d="M114.89,75.52a13.2,13.2,0,0,1-.68,4.48,7.73,7.73,0,0,1-2,3,7.9,7.9,0,0,1-3.1,1.73,15.33,15.33,0,0,1-4.34.55h-4.53a1.2,1.2,0,0,1-.81-.29,1.17,1.17,0,0,1-.33-.93V67.5a1.18,1.18,0,0,1,.33-.94,1.2,1.2,0,0,1,.81-.29h4.87a13.47,13.47,0,0,1,4.3.6,7.89,7.89,0,0,1,3,1.77,7.63,7.63,0,0,1,1.84,2.89A11.6,11.6,0,0,1,114.89,75.52Zm-4,.13a9.67,9.67,0,0,0-.31-2.52,5.44,5.44,0,0,0-1-2,4.75,4.75,0,0,0-1.79-1.34,7.39,7.39,0,0,0-2.86-.47h-2v13h2a7.39,7.39,0,0,0,2.66-.42,4.35,4.35,0,0,0,1.81-1.24,5.36,5.36,0,0,0,1.08-2.07A10.3,10.3,0,0,0,110.9,75.65Z"/><path class="cls-4" d="M122.55,67.25a2.08,2.08,0,0,1-.45,1.54,2.49,2.49,0,0,1-1.69.43,2.53,2.53,0,0,1-1.68-.41,2.07,2.07,0,0,1-.43-1.49,2.11,2.11,0,0,1,.45-1.55,3.5,3.5,0,0,1,3.36,0A2.05,2.05,0,0,1,122.55,67.25Zm-.28,17.57a.37.37,0,0,1-.09.25.62.62,0,0,1-.3.19,2.91,2.91,0,0,1-.56.11c-.24,0-.53,0-.89,0s-.66,0-.9,0a2.91,2.91,0,0,1-.56-.11.62.62,0,0,1-.3-.19.37.37,0,0,1-.09-.25V71.72a.41.41,0,0,1,.09-.26.82.82,0,0,1,.3-.19,2.25,2.25,0,0,1,.56-.12,8,8,0,0,1,1.79,0,2.25,2.25,0,0,1,.56.12.82.82,0,0,1,.3.19.41.41,0,0,1,.09.26Z"/><path class="cls-4" d="M137.83,84.86a.4.4,0,0,1-.15.33,1.06,1.06,0,0,1-.46.16,5.36,5.36,0,0,1-.93.06,5.44,5.44,0,0,1-1-.06.83.83,0,0,1-.42-.16.42.42,0,0,1-.13-.33v-1a5.87,5.87,0,0,1-1.84,1.35,5.34,5.34,0,0,1-2.29.49,6.43,6.43,0,0,1-1.91-.28,4.31,4.31,0,0,1-1.51-.81,3.68,3.68,0,0,1-1-1.33,4.62,4.62,0,0,1-.35-1.85,4.22,4.22,0,0,1,.45-2A3.61,3.61,0,0,1,127.67,78a6.66,6.66,0,0,1,2.21-.82,15.26,15.26,0,0,1,3.06-.27h1.27v-.79a4.35,4.35,0,0,0-.12-1.08,1.84,1.84,0,0,0-.41-.77,1.69,1.69,0,0,0-.77-.46,3.91,3.91,0,0,0-1.17-.15,5.9,5.9,0,0,0-1.65.21,10.43,10.43,0,0,0-1.28.45c-.37.17-.68.32-.93.46a1.37,1.37,0,0,1-.61.21.46.46,0,0,1-.29-.11.71.71,0,0,1-.2-.29,1.88,1.88,0,0,1-.13-.47,4,4,0,0,1,0-.62,2.81,2.81,0,0,1,.07-.72,1.07,1.07,0,0,1,.28-.48,2.87,2.87,0,0,1,.72-.47,8.8,8.8,0,0,1,1.2-.48,10.3,10.3,0,0,1,1.5-.36,10.2,10.2,0,0,1,1.68-.14,10.07,10.07,0,0,1,2.63.3,4.42,4.42,0,0,1,1.79.93,3.64,3.64,0,0,1,1,1.61,7.74,7.74,0,0,1,.32,2.34Zm-3.62-5.62H132.8a7.42,7.42,0,0,0-1.52.13,2.82,2.82,0,0,0-1,.4,1.6,1.6,0,0,0-.58.64,2,2,0,0,0-.19.86,1.7,1.7,0,0,0,.52,1.3,2.11,2.11,0,0,0,1.45.47,2.78,2.78,0,0,0,1.43-.4,6.16,6.16,0,0,0,1.32-1.16Z"/><path class="cls-4" d="M154,72.6a2.56,2.56,0,0,1-.16,1.05c-.11.22-.24.34-.4.34h-1.53a2.2,2.2,0,0,1,.46.8,3.22,3.22,0,0,1,.14.93,5.19,5.19,0,0,1-.38,2,4,4,0,0,1-1.1,1.5,4.7,4.7,0,0,1-1.71.93,7.41,7.41,0,0,1-2.23.32,4.7,4.7,0,0,1-1.2-.16A2.84,2.84,0,0,1,145,80a2,2,0,0,0-.32.46,1.25,1.25,0,0,0-.14.59.82.82,0,0,0,.38.69,1.81,1.81,0,0,0,1,.31l3.18.11a7.82,7.82,0,0,1,2,.32,4.14,4.14,0,0,1,1.46.77,3.18,3.18,0,0,1,.91,1.18,3.76,3.76,0,0,1,.31,1.57,4,4,0,0,1-1.69,3.33,6.54,6.54,0,0,1-2.14,1,10.67,10.67,0,0,1-3,.37,13,13,0,0,1-2.85-.27,6.08,6.08,0,0,1-1.93-.73,3,3,0,0,1-1.1-1.13,3,3,0,0,1-.35-1.43,3.57,3.57,0,0,1,.49-1.78,5.18,5.18,0,0,1,.6-.77,6.17,6.17,0,0,1,.8-.7,2.53,2.53,0,0,1-1-.92,2.48,2.48,0,0,1-.34-1.28,3.25,3.25,0,0,1,.39-1.58,5.22,5.22,0,0,1,1-1.29,3.63,3.63,0,0,1-.82-1.23,4.51,4.51,0,0,1-.31-1.8,5,5,0,0,1,.4-2,4.31,4.31,0,0,1,1.12-1.53,4.89,4.89,0,0,1,1.72-1,6.89,6.89,0,0,1,2.19-.33,8.91,8.91,0,0,1,1.18.07,7.5,7.5,0,0,1,1.05.21h4.14c.17,0,.3.11.41.32A2.84,2.84,0,0,1,154,72.6Zm-3.87,13.59a1.15,1.15,0,0,0-.52-1,2.84,2.84,0,0,0-1.45-.38l-2.63-.08a4.16,4.16,0,0,0-.6.54,2.86,2.86,0,0,0-.37.49,1.56,1.56,0,0,0-.18.46,2.31,2.31,0,0,0,0,.46,1.22,1.22,0,0,0,.74,1.12,4.73,4.73,0,0,0,2.09.38A5.13,5.13,0,0,0,148.6,88a2.64,2.64,0,0,0,.92-.45,1.72,1.72,0,0,0,.5-.63A2,2,0,0,0,150.16,86.19Zm-.86-10.48a2,2,0,0,0-2.24-2.24,2.33,2.33,0,0,0-.95.18,2.08,2.08,0,0,0-.69.5,2.21,2.21,0,0,0-.4.74,2.84,2.84,0,0,0-.13.88,2.14,2.14,0,0,0,.59,1.58,2.19,2.19,0,0,0,1.62.58,2.4,2.4,0,0,0,1-.18,1.86,1.86,0,0,0,.68-.48,2.14,2.14,0,0,0,.41-.72A2.64,2.64,0,0,0,149.3,75.71Z"/><path class="cls-4" d="M166.42,81.11a4.56,4.56,0,0,1-.41,2,4,4,0,0,1-1.18,1.43,5.37,5.37,0,0,1-1.8.86,8.58,8.58,0,0,1-2.26.29,9,9,0,0,1-1.4-.11,10,10,0,0,1-1.19-.28,6.7,6.7,0,0,1-.88-.35,2,2,0,0,1-.51-.33,1,1,0,0,1-.25-.49,4,4,0,0,1-.09-1,6.13,6.13,0,0,1,0-.68,1.68,1.68,0,0,1,.09-.41.39.39,0,0,1,.14-.21.48.48,0,0,1,.22,0,1.1,1.1,0,0,1,.48.18c.21.13.47.26.78.41a8.37,8.37,0,0,0,1.09.41,4.79,4.79,0,0,0,1.42.19,3.38,3.38,0,0,0,.88-.1,2.49,2.49,0,0,0,.68-.29,1.27,1.27,0,0,0,.43-.49,1.48,1.48,0,0,0,.15-.68,1.12,1.12,0,0,0-.28-.75,2.38,2.38,0,0,0-.71-.56,10.89,10.89,0,0,0-1-.44l-1.16-.45a10.46,10.46,0,0,1-1.16-.58,4.52,4.52,0,0,1-1-.79,3.58,3.58,0,0,1-.72-1.14,4.2,4.2,0,0,1-.27-1.59,3.94,3.94,0,0,1,.37-1.72A3.64,3.64,0,0,1,157.94,72a5.13,5.13,0,0,1,1.68-.87,7.31,7.31,0,0,1,2.22-.31,7.66,7.66,0,0,1,1.19.09,8.37,8.37,0,0,1,1.05.22,4.42,4.42,0,0,1,.79.29,2.39,2.39,0,0,1,.46.26,1,1,0,0,1,.2.22,1,1,0,0,1,.09.27c0,.1,0,.23,0,.38s0,.34,0,.57,0,.48,0,.64a2.47,2.47,0,0,1-.07.4.36.36,0,0,1-.14.2.36.36,0,0,1-.21,0,1,1,0,0,1-.41-.15,5,5,0,0,0-.69-.33,9,9,0,0,0-1-.34,4.76,4.76,0,0,0-1.25-.15,3.72,3.72,0,0,0-.87.1,1.69,1.69,0,0,0-.6.3,1.37,1.37,0,0,0-.35.45,1.26,1.26,0,0,0-.12.55,1.11,1.11,0,0,0,.28.76,2.64,2.64,0,0,0,.73.55,8.56,8.56,0,0,0,1,.44l1.17.45a10.48,10.48,0,0,1,1.17.57,4.21,4.21,0,0,1,1,.79,3.57,3.57,0,0,1,.74,1.13A4,4,0,0,1,166.42,81.11Z"/><path class="cls-5" d="M46.15,29.26a14.93,14.93,0,0,0-2.4-.19,16.45,16.45,0,0,0-3.49.39,6,6,0,0,1,1.11,1.34c.1.16.21.36.33.58a13.24,13.24,0,0,1,4.12,0,1.08,1.08,0,0,0,.33-2.13Z"/><path class="cls-5" d="M56.31,51.07c-.21,0-.46,0-.73,0a13.79,13.79,0,0,1-2.9,4.13,1.07,1.07,0,0,0,0,1.52,1.06,1.06,0,0,0,.77.33,1.08,1.08,0,0,0,.75-.3A15.75,15.75,0,0,0,58,50.84a5.85,5.85,0,0,1-1.45.23Z"/><path class="cls-5" d="M30.06,49.39a1.08,1.08,0,0,0-1-.76,1.12,1.12,0,0,0-.31,0A1.07,1.07,0,0,0,28,50a15.67,15.67,0,0,0,3,5.55,5.92,5.92,0,0,1,.56-1.48,7.1,7.1,0,0,1,.43-.72c-.19-.28-.39-.56-.56-.85A13.68,13.68,0,0,1,30.06,49.39Z"/><path class="cls-5" d="M45.65,32.5a12.16,12.16,0,0,0-1.9-.15,13.13,13.13,0,0,0-1.54.09c.36.8.75,1.76,1.14,2.79a10.66,10.66,0,0,1,1.87.1,1.43,1.43,0,1,0,.43-2.83Z"/><path class="cls-5" d="M51.36,50.52a9.56,9.56,0,0,1-1.45,1.79,1.44,1.44,0,0,0,0,2,1.42,1.42,0,0,0,1,.44,1.44,1.44,0,0,0,1-.41A12.67,12.67,0,0,0,54.39,51C53.49,50.85,52.45,50.71,51.36,50.52Z"/><path class="cls-5" d="M32.44,51.94c.09.15.19.3.29.45.52-.73,1.16-1.56,1.87-2.42a10.56,10.56,0,0,1-.75-1.77,1.42,1.42,0,0,0-1.36-1,1.33,1.33,0,0,0-.43.07,1.42,1.42,0,0,0-.93,1.79A12.53,12.53,0,0,0,32.44,51.94Z"/><path class="cls-5" d="M38.19,43a5.44,5.44,0,0,1,2.09-2.38,5.37,5.37,0,0,1,2.86-.82h.19c-.39-1.49-.92-3-1.44-4.43-.4-1-.79-2-1.13-2.69-.2-.42-.38-.76-.53-1,0-.05,0-.1-.07-.14A4.88,4.88,0,0,0,38.52,30a4.66,4.66,0,0,0-6.28,6.5A40.47,40.47,0,0,0,38.19,43Z"/><path class="cls-5" d="M56.35,40.29h-.14a39.67,39.67,0,0,0-8.59,1.88c.05.08.11.16.15.24a5.46,5.46,0,0,1-.05,5.83c1.41.38,2.93.7,4.34.93,1.08.18,2.1.31,2.92.38.45,0,.84.07,1.15.07h.36a4.51,4.51,0,0,0,2-.54,4.68,4.68,0,0,0-2.17-8.8Z"/><path class="cls-5" d="M38.51,48.17l-.14-.24c-1,1-2,2.2-2.95,3.3-.7.86-1.31,1.67-1.78,2.34-.26.38-.48.71-.63,1l-.14.23a4.76,4.76,0,0,0-.55,2.14,4.64,4.64,0,0,0,8.74,2.29,39.8,39.8,0,0,0,2.68-8.48,4,4,0,0,1-.6,0A5.38,5.38,0,0,1,38.51,48.17Z"/><path class="cls-5" d="M45.51,43l-.15-.15a3,3,0,0,0-.45-.34,2.27,2.27,0,0,0-.34-.19,3.28,3.28,0,0,0-.52-.2l-.24-.06a3.07,3.07,0,0,0-.67-.08,3.25,3.25,0,0,0-1.74.5,3.28,3.28,0,0,0-1.45,2,2.21,2.21,0,0,0-.05.25,2.51,2.51,0,0,0-.06.55,3.69,3.69,0,0,0,.12.94,2,2,0,0,0,.07.23,2.79,2.79,0,0,0,.3.63,3.26,3.26,0,0,0,3.74,1.44h0a3,3,0,0,0,.73-.32l.06,0,.06,0a3.54,3.54,0,0,0,.62-.53l0,0a3.34,3.34,0,0,0,.36-4A3.51,3.51,0,0,0,45.51,43Z"/></g></g></svg>