<svg xmlns="http://www.w3.org/2000/svg" width="315.213" height="1359" viewBox="0 0 315.213 1359">
  <defs>
    <style>
      .cls-1 {
        fill: #0087a8;
      }

      .cls-1, .cls-10, .cls-11, .cls-3, .cls-4, .cls-5, .cls-6, .cls-9 {
        font-size: 20px;
        font-family: 'Roboto', sans-serif;
        font-weight: 900;
        letter-spacing: -0.03em;
      }

      .cls-2, .cls-8 {
        fill: #030303;
      }

      .cls-2 {
        font-size: 13px;
        font-family: 'Roboto Condensed', sans-serif;
      }

      .cls-3 {
        fill: #056e88;
      }

      .cls-16, .cls-4 {
        fill: #224c72;
      }

      .cls-15, .cls-5 {
        fill: #033075;
      }

      .cls-6, .cls-7 {
        fill: #1c3d9b;
      }

      .cls-14, .cls-9 {
        fill: #0065ad;
      }

      .cls-10, .cls-13 {
        fill: #0090d2;
      }

      .cls-11, .cls-12 {
        fill: #3fb1e1;
      }

      .cls-17 {
        fill: #1487a8;
      }

      .cls-18 {
        fill: #0e6e88;
      }

      .cls-19 {
        fill: #fff;
      }
    </style>
  </defs>
  <g id="Historique" transform="translate(-13.206 -63.575)">
    <g id="Aujourd_hui" data-name="Aujourd&apos;hui" transform="translate(83.909 826.766)">
      <text id="AUJOURD_HUI-2" data-name="AUJOURD’HUI" class="cls-1" transform="translate(62 538.81)"><tspan x="-123.297" y="0">AUJOURD’HUI</tspan></text>
      <text id="Nous_associons_nos_forces_avec_4_autres_entreprises_indépendantes_avec_qui_nous_partageons_des_modes_opératoires_et_des_valeurs_communes_visuel_My_Link_" data-name="Nous associons nos forces avec 4 autres entreprises indépendantes avec qui nous partageons des modes opératoires et des valeurs communes (visuel My Link)
" class="cls-2" transform="translate(102.51 468.81)"><tspan x="0" y="12">Nous associons nos forces </tspan><tspan x="0" y="30">avec 4 autres entreprises </tspan><tspan x="0" y="48">indépendantes avec qui </tspan><tspan x="0" y="66">nous partageons des </tspan><tspan x="0" y="84">modes opératoires et des </tspan><tspan x="0" y="102">valeurs communes (visuel </tspan><tspan x="0" y="120">My Link)</tspan></text>
    </g>
    <g id="_2018" data-name="2018" transform="translate(36.206 695.306)">
      <text id="_2018-2" data-name="2018" class="cls-3" transform="translate(149.916 432.269)"><tspan x="0" y="0">2018</tspan></text>
      <text id="Nouvelle_offre_de_service_:_Vérification_du_dimensionnement_de_la_mise_en_œuvre_et_de_l_étanchéité_du_conduit_3Cep_suite_à_la_parution_de_l_arrêté_du_23_février_2018_règles_techniques_et_de_sécurité_applicables_aux_installations_de_gaz_combustible_des_bâ" data-name="Nouvelle offre de service : Vérification du dimensionnement, de la mise en œuvre et de l’étanchéité du conduit 3Cep suite à la parution de l’arrêté du 23 février 2018 (règles techniques et de sécurité applicables aux installations de gaz combustible des bâ" class="cls-2" transform="translate(-23 282.269)"><tspan x="13.744" y="12">Nouvelle offre de service : </tspan><tspan x="73.107" y="30">Vérification du </tspan><tspan x="25.145" y="48">dimensionnement, de la </tspan><tspan x="43.68" y="66">mise en œuvre et de </tspan><tspan x="1.899" y="84">l’étanchéité du conduit 3Cep </tspan><tspan x="1.379" y="102">suite à la parution de l’arrêté </tspan><tspan x="16.029" y="120">du 23 février 2018 (règles </tspan><tspan x="18.238" y="138">techniques et de sécurité </tspan><tspan x="1.271" y="156">applicables aux installations </tspan><tspan x="25.583" y="174">de gaz combustible des </tspan><tspan x="32.406" y="192">bâtiments d&apos;habitation </tspan><tspan x="10.31" y="210">individuelle ou collective, y </tspan><tspan x="48.815" y="228">compris les parties </tspan><tspan x="31.264" y="246">communes modifie les </tspan><tspan x="3.366" y="264">contrôles à effectuer sur les </tspan><tspan x="69.375" y="282">conduits 3Cep)</tspan></text>
    </g>
    <g id="_2014" data-name="2014" transform="translate(132.523 679.687)">
      <text id="_2014-2" data-name="2014" class="cls-4" transform="translate(22 237.889)"><tspan x="-44.528" y="0">2014</tspan></text>
      <text id="_5_techniciens_répartis_sur_le_territoire_autorisés_8721_Réseau_de_ventilation_" data-name="5 techniciens répartis sur le territoire autorisés 8721 (Réseau de ventilation)
" class="cls-2" transform="translate(53.896 194.889)"><tspan x="0" y="12">5 techniciens répartis </tspan><tspan x="0" y="30">sur le territoire autorisés </tspan><tspan x="0" y="48">8721 (Réseau de </tspan><tspan x="0" y="66">ventilation)</tspan></text>
    </g>
    <g id="_2013" data-name="2013" transform="translate(83.037 612.847)">
      <text id="_2013-2" data-name="2013" class="cls-5" transform="translate(103.085 184.729)"><tspan x="0" y="0">2013</tspan></text>
      <text id="Première_Attestation_de_Prise_en_Compte_de_la_RT_2012_et_première_mesure_de_perméabilité_à_l_Air_des_réseaux_de_ventilation_" data-name="Première Attestation de Prise en Compte de la RT2012 et première mesure de perméabilité à l’Air des réseaux de ventilation
" class="cls-2" transform="translate(-47 124.729)"><tspan x="2.004" y="12">Première Attestation de </tspan><tspan x="10.974" y="30">Prise en Compte de la </tspan><tspan x="20.628" y="48">RT2012 et première </tspan><tspan x="2.855" y="66">mesure de perméabilité </tspan><tspan x="14.719" y="84">à l’Air des réseaux de </tspan><tspan x="69.651" y="102">ventilation</tspan></text>
    </g>
    <g id="Depuis_2013" data-name="Depuis 2013" transform="translate(89.14 414.772)">
      <text id="DEPUIS_2013-2" data-name="DEPUIS 2013" class="cls-6" transform="translate(57 44.841)"><tspan x="-114.293" y="0">DEPUIS 2013</tspan></text>
      <text id="Nos_animatrices_qualité_sont_formées_à_l_ISO_9001_à_la_conduite_d_audits_19011_et_nos_techniciens_sont_qualifiés_8711_par_Qualibat_mais_aussi_certifiés_pour_DPE_par_l_AFNOR_afin_réaliser_les_prestations_suivantes_:_Sensibilisation_VMC_et_Perméa_Mesure" data-name="Nos animatrices qualité sont formées à l’ISO 9001, à la conduite d’audits 19011 et nos techniciens sont qualifiés 8711 par Qualibat mais aussi certifiés pour DPE par l’AFNOR afin réaliser les prestations suivantes :
• Sensibilisation VMC et Perméa
• Mesure" class="cls-2" transform="translate(97.224)"><tspan x="0" y="12">Nos animatrices qualité </tspan><tspan x="0" y="30">sont formées à l’ISO 9001, </tspan><tspan x="0" y="48">à la conduite d’audits </tspan><tspan x="0" y="66">19011 et nos techniciens </tspan><tspan x="0" y="84">sont qualifiés 8711 par </tspan><tspan x="0" y="102">Qualibat mais aussi </tspan><tspan x="0" y="120">certifiés pour DPE par </tspan><tspan x="0" y="138">l’AFNOR afin réaliser les </tspan><tspan x="0" y="156">prestations suivantes :</tspan><tspan class="cls-7"><tspan x="0" y="174">•</tspan><tspan class="cls-8" y="174" xml:space="preserve"> Sensibilisation VMC et </tspan><tspan class="cls-8" x="0" y="192">Perméa</tspan><tspan x="0" y="210">•</tspan><tspan class="cls-8" y="210" xml:space="preserve"> Mesures de perméabilité </tspan><tspan class="cls-8" x="0" y="228">à l’air VMC et Bati</tspan><tspan x="0" y="246">•</tspan><tspan class="cls-8" y="246" xml:space="preserve"> Diagnostic de </tspan><tspan class="cls-8" x="0" y="264">Performance Energétique</tspan></tspan><tspan x="0" y="282">• Attestation Thermique </tspan></text>
    </g>
    <g id="_2012" data-name="2012" transform="translate(77.806 216.312)">
      <text id="_2012-2" data-name="2012" class="cls-9" transform="translate(108.316 138.264)"><tspan x="0" y="0">2012</tspan></text>
      <text id="Premier_Agrément_Annexe_VII_RT_2012_Démarche_Qualité_Perméabilité_à_l_Air_" data-name="Premier Agrément Annexe VII RT2012 (Démarche Qualité Perméabilité à l’Air)
" class="cls-2" transform="translate(-48 95.264)"><tspan x="36.672" y="12">Premier Agrément </tspan><tspan x="30.28" y="30">Annexe VII RT2012 </tspan><tspan x="34.412" y="48">(Démarche Qualité </tspan><tspan x="29.379" y="66">Perméabilité à l’Air)</tspan></text>
    </g>
    <g id="_2010" data-name="2010" transform="translate(132.523 122)">
      <text id="NRJ_Diags_est_certifié_ISO_9001_" data-name="NRJ Diags est certifié ISO 9001
" class="cls-2" transform="translate(53.896 122.575)"><tspan x="0" y="12">NRJ Diags est certifié </tspan><tspan x="0" y="30">ISO 9001</tspan></text>
      <text id="_2010-2" data-name="2010" class="cls-10" transform="translate(22 146.575)"><tspan x="-44.528" y="0">2010</tspan></text>
    </g>
    <g id="_2006" data-name="2006" transform="translate(68.883 169.006)">
      <text id="_2006-2" data-name="2006" class="cls-11" transform="translate(117.239 -42.431)"><tspan x="0" y="0">2006</tspan></text>
      <text id="Création_de_la_société_à_la_suite_de_la_parution_de_l_arrêté_du_15_septembre_2006_relatif_au_diagnostic_de_performance_énergétique._" data-name="Création de la société à la suite de la parution de l’arrêté du 15 septembre 2006 relatif au diagnostic de performance énergétique.
" class="cls-2" transform="translate(-52 -103.431)"><tspan x="9.662" y="12">Création de la société à la </tspan><tspan x="28.508" y="30">suite de la parution de </tspan><tspan x="18.136" y="48">l’arrêté du 15 septembre </tspan><tspan x="11.528" y="66">2006 relatif au diagnostic </tspan><tspan x="61.268" y="84">de performance </tspan><tspan x="78.407" y="102">énergétique.</tspan></text>
    </g>
    <g id="fleches_historique" data-name="fleches historique" transform="translate(166.727 63.947)">
      <path id="Tracé_1538" data-name="Tracé 1538" class="cls-12" d="M944.005,1276.066v8.146l-.079,112.286,6.292,6.206,6.294-6.206.079-120.432-6.294,6.344Z" transform="translate(-944.005 -1276.438)"/>
      <path id="Tracé_1539" data-name="Tracé 1539" class="cls-13" d="M944.005,1276.066v108.5l6.292,6.206,6.294-6.206v-108.5l-6.294,6.344Z" transform="translate(-944.005 -1154.438)"/>
      <path id="Tracé_1540" data-name="Tracé 1540" class="cls-14" d="M944.005,1276.066v99.609l6.292,6.206,6.294-6.206v-99.609l-6.294,6.344Z" transform="translate(-944.005 -1043.438)"/>
      <path id="Tracé_1542" data-name="Tracé 1542" class="cls-15" d="M944.005,1276.066V1416.4l6.292,6.206,6.294-6.206V1276.066l-6.294,6.344Z" transform="translate(-944.005 -620.38)"/>
      <path id="Tracé_1543" data-name="Tracé 1543" class="cls-16" d="M944.005,1228.446v97.546l6.292,6.206,6.294-6.206v-97.546l-6.294,6.344Z" transform="translate(-944.005 -429.818)"/>
      <path id="Tracé_1545" data-name="Tracé 1545" class="cls-17" d="M944.005,1200.478v125.514l6.292,6.206,6.294-6.206V1200.478l-6.294,6.344Z" transform="translate(-944.005 26.151)"/>
      <path id="Tracé_1544" data-name="Tracé 1544" class="cls-18" d="M943.958,1012.755l.048,271.458v54.167l6.292,6.205,6.294-6.205-.048-325.624-6.294,6.344Z" transform="translate(-944.005 -114.126)"/>
      <path id="Tracé_1541" data-name="Tracé 1541" class="cls-7" d="M944.005,1276.066v8.146l.127,310.915,6.292,6.206,6.294-6.206-.127-319.061-6.294,6.344Z" transform="translate(-944.005 -941.438)"/>
      <path id="Picto_Petite_Maison" class="cls-19" d="M6.042,2.6,3.343.1A.4.4,0,0,0,2.81.1L2.244.625H1.536a.474.474,0,0,0-.474.474v.618L.111,2.6A.339.339,0,0,0,0,2.846a.324.324,0,0,0,.033.144A.38.38,0,0,0,.378,3.2H.722V5.6a.428.428,0,0,0,.147.32.505.505,0,0,0,.335.125H4.948a.5.5,0,0,0,.335-.125.426.426,0,0,0,.147-.32V3.2h.345a.38.38,0,0,0,.345-.208.333.333,0,0,0,.033-.144A.341.341,0,0,0,6.042,2.6" transform="translate(3.077 52.629)"/>
      <path id="Picto_Petite_Maison-2" data-name="Picto_Petite_Maison" class="cls-19" d="M6.042,2.6,3.343.1A.4.4,0,0,0,2.81.1L2.244.625H1.536a.474.474,0,0,0-.474.474v.618L.111,2.6A.339.339,0,0,0,0,2.846a.324.324,0,0,0,.033.144A.38.38,0,0,0,.378,3.2H.722V5.6a.428.428,0,0,0,.147.32.505.505,0,0,0,.335.125H4.948a.5.5,0,0,0,.335-.125.426.426,0,0,0,.147-.32V3.2h.345a.38.38,0,0,0,.345-.208.333.333,0,0,0,.033-.144A.341.341,0,0,0,6.042,2.6" transform="translate(3.077 176.629)"/>
      <path id="Picto_Petite_Maison-3" data-name="Picto_Petite_Maison" class="cls-19" d="M6.042,2.6,3.343.1A.4.4,0,0,0,2.81.1L2.244.625H1.536a.474.474,0,0,0-.474.474v.618L.111,2.6A.339.339,0,0,0,0,2.846a.324.324,0,0,0,.033.144A.38.38,0,0,0,.378,3.2H.722V5.6a.428.428,0,0,0,.147.32.505.505,0,0,0,.335.125H4.948a.5.5,0,0,0,.335-.125.426.426,0,0,0,.147-.32V3.2h.345a.38.38,0,0,0,.345-.208.333.333,0,0,0,.033-.144A.341.341,0,0,0,6.042,2.6" transform="translate(3.077 282.629)"/>
      <path id="Picto_Petite_Maison-4" data-name="Picto_Petite_Maison" class="cls-19" d="M6.042,2.6,3.343.1A.4.4,0,0,0,2.81.1L2.244.625H1.536a.474.474,0,0,0-.474.474v.618L.111,2.6A.339.339,0,0,0,0,2.846a.324.324,0,0,0,.033.144A.38.38,0,0,0,.378,3.2H.722V5.6a.428.428,0,0,0,.147.32.505.505,0,0,0,.335.125H4.948a.5.5,0,0,0,.335-.125.426.426,0,0,0,.147-.32V3.2h.345a.38.38,0,0,0,.345-.208.333.333,0,0,0,.033-.144A.341.341,0,0,0,6.042,2.6" transform="translate(3.077 680.609)"/>
      <path id="Picto_Petite_Maison-5" data-name="Picto_Petite_Maison" class="cls-19" d="M6.042,2.6,3.343.1A.4.4,0,0,0,2.81.1L2.244.625H1.536a.474.474,0,0,0-.474.474v.618L.111,2.6A.339.339,0,0,0,0,2.846a.324.324,0,0,0,.033.144A.38.38,0,0,0,.378,3.2H.722V5.6a.428.428,0,0,0,.147.32.505.505,0,0,0,.335.125H4.948a.5.5,0,0,0,.335-.125.426.426,0,0,0,.147-.32V3.2h.345a.38.38,0,0,0,.345-.208.333.333,0,0,0,.033-.144A.341.341,0,0,0,6.042,2.6" transform="translate(3.077 847.629)"/>
      <path id="Picto_Petite_Maison-6" data-name="Picto_Petite_Maison" class="cls-19" d="M6.042,2.6,3.343.1A.4.4,0,0,0,2.81.1L2.244.625H1.536a.474.474,0,0,0-.474.474v.618L.111,2.6A.339.339,0,0,0,0,2.846a.324.324,0,0,0,.033.144A.38.38,0,0,0,.378,3.2H.722V5.6a.428.428,0,0,0,.147.32.505.505,0,0,0,.335.125H4.948a.5.5,0,0,0,.335-.125.426.426,0,0,0,.147-.32V3.2h.345a.38.38,0,0,0,.345-.208.333.333,0,0,0,.033-.144A.341.341,0,0,0,6.042,2.6" transform="translate(3.077 1289.629)"/>
      <path id="Picto_Petite_Maison-7" data-name="Picto_Petite_Maison" class="cls-19" d="M6.042,2.6,3.343.1A.4.4,0,0,0,2.81.1L2.244.625H1.536a.474.474,0,0,0-.474.474v.618L.111,2.6A.339.339,0,0,0,0,2.846a.324.324,0,0,0,.033.144A.38.38,0,0,0,.378,3.2H.722V5.6a.428.428,0,0,0,.147.32.505.505,0,0,0,.335.125H4.948a.5.5,0,0,0,.335-.125.426.426,0,0,0,.147-.32V3.2h.345a.38.38,0,0,0,.345-.208.333.333,0,0,0,.033-.144A.341.341,0,0,0,6.042,2.6" transform="translate(3.077 1061.629)"/>
      <path id="Picto_Petite_Maison-8" data-name="Picto_Petite_Maison" class="cls-19" d="M6.042,2.6,3.343.1A.4.4,0,0,0,2.81.1L2.244.625H1.536a.474.474,0,0,0-.474.474v.618L.111,2.6A.339.339,0,0,0,0,2.846a.324.324,0,0,0,.033.144A.38.38,0,0,0,.378,3.2H.722V5.6a.428.428,0,0,0,.147.32.505.505,0,0,0,.335.125H4.948a.5.5,0,0,0,.335-.125.426.426,0,0,0,.147-.32V3.2h.345a.38.38,0,0,0,.345-.208.333.333,0,0,0,.033-.144A.341.341,0,0,0,6.042,2.6" transform="translate(3.077 493.629)"/>
    </g>
  </g>
</svg>
