<?xml version="1.0" encoding="utf-8"?>
<!-- Generator: Adobe Illustrator 25.0.1, SVG Export Plug-In . SVG Version: 6.00 Build 0)  -->
<svg version="1.1" id="Capa_1" xmlns="http://www.w3.org/2000/svg" xmlns:xlink="http://www.w3.org/1999/xlink" x="0px" y="0px"
	 viewBox="0 0 51.032 50.922" enable-background="new 0 0 51.032 50.922" xml:space="preserve">
<g>
	<path fill="#FFFFFF" d="M20.887,41.773c4.3,0,8.273-1.311,11.59-3.522l12,12c0.942,0.942,2.499,0.942,3.481,0l2.334-2.334
		c0.942-0.942,0.942-2.498,0-3.481L38.251,32.477c2.211-3.317,3.522-7.29,3.522-11.59C41.773,9.378,32.394,0,20.886,0
		S0,9.377,0,20.885S9.338,41.773,20.887,41.773z M20.887,8.189c7.003,0,12.696,5.693,12.696,12.696S27.89,33.581,20.887,33.581
		S8.191,27.889,8.191,20.885C8.191,13.882,13.884,8.189,20.887,8.189z"/>
</g>
</svg>
