<svg xmlns="http://www.w3.org/2000/svg" viewBox="0 0 99.734 73.102">
  <path fill="#fff" d="M98.32 31.714H1.413A1.413 1.413 0 000 33.127v38.562a1.413 1.413 0 001.413 1.413h96.908a1.413 1.413 0 001.413-1.413V33.127a1.414 1.414 0 00-1.414-1.413zM15.264 52.446h-4.127V36.895h4.127zm9.119-6.532l-4.126-.043.094-9 4.126.043zm9.217 6.532h-4.13V36.895h4.13zm9.12-6.532l-4.126-.043.094-9 4.126.043zm9.213 6.532H47.8V36.895h4.13zm9.119-6.532l-4.126-.043.094-9 4.126.043zm9.214 6.532h-4.13V36.895h4.127zm9.12-6.532l-4.126-.043.094-9 4.126.043zm9.214 6.532h-4.13V36.895h4.13z" data-name="Tracé 1791"/>
  <g fill="#fff" data-name="Groupe 182">
    <path d="M7.331 8.415h85.071v3.439H7.331z" data-name="Rectangle 141"/>
    <g data-name="Groupe 181">
      <path d="M14.187 19.466a1.71 1.71 0 01-1.215-.5L5.358 11.35a1.717 1.717 0 010-2.431l7.613-7.613a1.72 1.72 0 012.431 2.436l-6.4 6.4 6.4 6.4a1.719 1.719 0 01-1.215 2.935z" data-name="Tracé 1792"/>
      <path d="M85.547 19.466a1.72 1.72 0 01-1.215-2.935l6.4-6.4-6.4-6.4A1.719 1.719 0 0186.763 1.3l7.612 7.612a1.718 1.718 0 010 2.431l-7.612 7.613a1.713 1.713 0 01-1.216.51z" data-name="Tracé 1793"/>
    </g>
  </g>
  <g fill="#fff" data-name="Groupe 183">
    <path d="M.048 0h3.439v28.358H.048z" data-name="Rectangle 142"/>
    <path d="M96.247 0h3.439v28.358h-3.439z" data-name="Rectangle 143"/>
  </g>
</svg>
