<svg xmlns="http://www.w3.org/2000/svg" viewBox="0 0 86.302 85.102">
  <g fill="#fff" data-name="Groupe 171">
    <path d="M73.122 19.296h13.181v45.212H73.122z" data-name="Rectangle 120"/>
    <path d="M79.688 77.795a6.121 6.121 0 004.659-2.24 8.265 8.265 0 001.931-5.408v-2.035H73.095v2.035a8.253 8.253 0 001.931 5.408 6.121 6.121 0 004.662 2.24z" data-name="Tracé 1708"/>
  </g>
  <path fill="#fff" d="M0 0v85.1h64.167V0zm50.826 71.1H13.413a1.841 1.841 0 010-3.683h37.413a1.841 1.841 0 010 3.683zm0-13.008H13.341a1.841 1.841 0 010-3.683h37.485a1.841 1.841 0 010 3.683zm0-13.006H13.341a1.841 1.841 0 010-3.683h37.485a1.841 1.841 0 010 3.683zm0-13.008H13.341a1.841 1.841 0 010-3.683h37.485a1.841 1.841 0 010 3.683zm0-13.006H13.341a1.841 1.841 0 010-3.683h37.485a1.841 1.841 0 010 3.683z" data-name="Tracé 1709"/>
  <path fill="#fff" d="M76.786 19.296l2.925-7.715 2.964 7.715h3.595l-5.069-13.2a1.65 1.65 0 00-1.5-1.131 1.655 1.655 0 00-1.5 1.138l-5 13.189z" data-name="Tracé 1710"/>
</svg>
