<svg xmlns="http://www.w3.org/2000/svg" viewBox="0 0 54 54">
  <g data-name="Calque 2">
    <g data-name="Calque 1">
      <path fill="#FFFFFF" d="M53 0H1a1 1 0 00-1 1v52a1 1 0 001 1h52a1 1 0 001-1V1a1 1 0 00-1-1zM27 53a26 26 0 1126-26 26 26 0 01-26 26z"/>
      <path fill="#FFFFFF" d="M46.66 30.12L39.57 29l-.71-.23A12.94 12.94 0 0039 27a12.52 12.52 0 00-.14-1.75l.14-.06 7.58-2.47a2 2 0 001.28-2.52 21.84 21.84 0 00-9-11.71l-.17-.1a2 2 0 00-2.69.87l-3.22 6.4a4.75 4.75 0 01-.55.55 11.83 11.83 0 00-3.18-1L29 15V7a2 2 0 00-2-2 21.92 21.92 0 00-13.93 5 1.95 1.95 0 00-.14 2.92L18 18c.15.23.28.45.39.65a12.15 12.15 0 00-1.91 2.58.65.65 0 00-.27.16L8.6 18.92a2 2 0 00-2.52 1.28A21.88 21.88 0 006.49 35a.8.8 0 00.08.16 2 2 0 002.7.84l6.39-3.22.67-.31a12.2 12.2 0 002.08 2.9l-.08.15-4.7 6.48a2 2 0 00-.36 1.49 2 2 0 00.8 1.31A21.9 21.9 0 0028.25 49a1 1 0 00.24 0 2 2 0 001.63-2.31L29 39.57c0-.28 0-.53.08-.76a12 12 0 003.2-1.05l.15.13 4.71 6.48a2 2 0 002.79.44 21.88 21.88 0 008.35-12.2 1.42 1.42 0 000-.2 2 2 0 00-1.62-2.29zm-10.32-4.05l.11.05.17.11.11.1A1 1 0 0137 27a.92.92 0 01-.17.52.94.94 0 01-.27.29l-.11.07-.12.05A.93.93 0 0136 28a1 1 0 010-2 1 1 0 01.34.07zM18 28a1 1 0 111-1 1 1 0 01-1 1zm14.65-8.07a1 1 0 011.42 0 1 1 0 11-1.42 0zm-11.3 14.14a1 1 0 01-1.42 0 1 1 0 111.42 0zM21 27a6 6 0 016-6 6 6 0 11-6 6zm6-8a1 1 0 111-1 1 1 0 01-1 1zm-7.07.93a1 1 0 110 1.42 1 1 0 010-1.42zM26 36a1 1 0 111 1 1 1 0 01-1-1zm6.66-3.34a1 1 0 011.41 0 1 1 0 010 1.42 1 1 0 01-1.41-1.41z"/>
    </g>
  </g>
</svg>
