<svg id="Historique" xmlns="http://www.w3.org/2000/svg" viewBox="0 0 315.2 619.21">
  <defs>
    <style>
      .cls-1{fill:#e95658}.cls-2{fill:#fff}.cls-3{isolation:isolate}.cls-4{fill:#030303}.cls-5{fill:#e5383b}.cls-6{fill:#c30000}.cls-7{fill:#d1183e}.cls-8{fill:#89122f}.cls-9{fill:#5f091e}
    </style>
  </defs>
  <g id="_2021" data-name="2021">
    <path id="Tracé" class="cls-1" d="M154.25 510v99.6l6.3 6.2 6.3-6.2V510l-6.3 6.4z"/>
    <path id="Maison" class="cls-2" d="M163.35 562.56l-2.7-2.5a.45.45 0 00-.5 0l-.6.5h-.7a.47.47 0 00-.5.5v.6l-1 .9a.31.31 0 00-.1.2v.1c.1.1.2.2.3.2h.3v2.4c0 .1.1.2.1.3a.37.37 0 00.3.1h4a.35.35 0 00.4-.4v-2.4h.3c.1 0 .3-.1.3-.2v-.1c.2 0 .2-.1.1-.2"/>
    <g class="cls-3">
      <path class="cls-1" d="M112.91 569.78h-9.74v-1.93l4.6-4.91a12.08 12.08 0 001.4-1.8 3 3 0 00.45-1.47 2.17 2.17 0 00-.48-1.49 1.72 1.72 0 00-1.36-.54 1.85 1.85 0 00-1.51.66 2.6 2.6 0 00-.55 1.73h-2.84a4.71 4.71 0 01.62-2.37 4.38 4.38 0 011.76-1.68 5.26 5.26 0 012.56-.61 5.07 5.07 0 013.42 1 3.73 3.73 0 011.21 3 4.85 4.85 0 01-.54 2.15 12 12 0 01-1.91 2.58l-3.23 3.4h6.11zM123.63 563.9a7.21 7.21 0 01-1.22 4.51 4.26 4.26 0 01-3.57 1.57 4.31 4.31 0 01-3.56-1.54 7 7 0 01-1.26-4.39v-2.62a7.08 7.08 0 011.24-4.52 4.9 4.9 0 017.11 0 7 7 0 011.26 4.39zm-2.82-2.9a5.22 5.22 0 00-.48-2.57 1.65 1.65 0 00-1.51-.81 1.6 1.6 0 00-1.47.77 4.81 4.81 0 00-.51 2.4v3.46a5.37 5.37 0 00.48 2.58 1.78 1.78 0 003 0 5.24 5.24 0 00.48-2.48zM134.7 569.78H125v-1.93l4.6-4.91a12.08 12.08 0 001.4-1.8 3 3 0 00.45-1.47 2.17 2.17 0 00-.48-1.49 1.73 1.73 0 00-1.37-.54 1.84 1.84 0 00-1.5.66 2.61 2.61 0 00-.56 1.73h-2.83a4.71 4.71 0 01.62-2.37 4.38 4.38 0 011.76-1.68 5.26 5.26 0 012.56-.61 5.07 5.07 0 013.42 1 3.73 3.73 0 011.21 3 4.85 4.85 0 01-.54 2.15 12 12 0 01-1.88 2.55l-3.23 3.4h6.11zM142.71 569.78h-2.83V558.9l-3.37 1.1v-2.3l5.89-2.11h.31z"/>
    </g>
    <g class="cls-3">
      <path class="cls-4" d="M179.83 556.17a4.59 4.59 0 01-.81 2.92 2.75 2.75 0 01-2.29 1 2.79 2.79 0 01-2.26-1 4.42 4.42 0 01-.86-2.81v-1.74a4.68 4.68 0 01.82-2.91 3 3 0 014.56 0 4.54 4.54 0 01.84 2.87zm-1.17-1.61a3.94 3.94 0 00-.47-2.18 1.64 1.64 0 00-1.47-.72 1.62 1.62 0 00-1.45.73 3.76 3.76 0 00-.5 2.13v1.65a3.88 3.88 0 00.49 2.16 1.84 1.84 0 002.92.06 3.87 3.87 0 00.48-2.1zM185 559.38a1.92 1.92 0 01-1.63.73 1.62 1.62 0 01-1.41-.64 3.19 3.19 0 01-.49-1.88v-4.47h1.12v4.39c0 1.07.32 1.6 1 1.6a1.41 1.41 0 001.41-.91v-5.08h1.12V560H185zM189.7 558.28l1.3-5.16h1.14l-2 6.86h-.83l-2.07-6.86h1.15zM195.68 560.11a2.48 2.48 0 01-2-.76 3.26 3.26 0 01-.7-2.25v-.83a3.86 3.86 0 01.67-2.41 2.22 2.22 0 011.87-.87 2.12 2.12 0 011.8.77 3.93 3.93 0 01.61 2.39v.74h-3.84v.11a2.48 2.48 0 00.42 1.61 1.49 1.49 0 001.2.5 1.86 1.86 0 00.87-.19 2.13 2.13 0 00.71-.59l.58.71a2.55 2.55 0 01-2.19 1.07zm-.12-6.16a1.19 1.19 0 00-1 .48 2.91 2.91 0 00-.38 1.49h2.7v-.15a2.61 2.61 0 00-.35-1.4 1.07 1.07 0 00-.97-.37zM202.15 554.17a2.67 2.67 0 00-.51 0 1.24 1.24 0 00-1.2 1V560h-1.13v-6.86h1.1v.69a1.41 1.41 0 011.28-.82.93.93 0 01.44.09zM205.06 551.45v1.67h1v.9h-1v4.27a1.13 1.13 0 00.13.61.5.5 0 00.46.21 1.41 1.41 0 00.45-.07v.96a2.36 2.36 0 01-.78.13 1.18 1.18 0 01-1-.48 2.23 2.23 0 01-.35-1.34V554h-1.05v-.9h1.05v-1.67zM210.93 559.38a1.92 1.92 0 01-1.63.73 1.64 1.64 0 01-1.41-.64 3.12 3.12 0 01-.48-1.88v-4.47h1.11v4.39c0 1.07.33 1.6 1 1.6a1.41 1.41 0 001.41-.91v-5.08H212V560h-1zM216.55 554.17a2.76 2.76 0 00-.51 0 1.24 1.24 0 00-1.21 1V560h-1.12v-6.86h1.09v.69a1.4 1.4 0 011.28-.82 1 1 0 01.44.09zM220 560.11a2.52 2.52 0 01-2-.76 3.36 3.36 0 01-.7-2.25v-.83a3.92 3.92 0 01.67-2.41 2.23 2.23 0 011.87-.87 2.13 2.13 0 011.81.77 4 4 0 01.61 2.39v.74h-3.84v.11a2.48 2.48 0 00.42 1.61 1.46 1.46 0 001.19.5 1.93 1.93 0 00.88-.19 2.1 2.1 0 00.7-.59l.59.71a2.55 2.55 0 01-2.2 1.07zm-.13-6.16a1.17 1.17 0 00-1 .48 2.81 2.81 0 00-.38 1.49h2.7v-.15a2.61 2.61 0 00-.35-1.4 1.1 1.1 0 00-.97-.37zM226.37 556.24a4.1 4.1 0 01.6-2.42 2 2 0 011.7-.83 1.75 1.75 0 011.54.8v-3.56h1.12V560h-1l-.05-.73a1.78 1.78 0 01-1.58.86 2 2 0 01-1.68-.83 4 4 0 01-.62-2.34zm1.13.64a3.22 3.22 0 00.34 1.69 1.23 1.23 0 001.12.54 1.33 1.33 0 001.25-.84v-3.46A1.35 1.35 0 00229 554a1.21 1.21 0 00-1.11.54 3.13 3.13 0 00-.35 1.66zM235.51 560.11a2.48 2.48 0 01-2-.76 3.31 3.31 0 01-.7-2.25v-.83a3.86 3.86 0 01.67-2.41 2.22 2.22 0 011.87-.87 2.12 2.12 0 011.8.77 3.93 3.93 0 01.61 2.39v.74H234v.11a2.49 2.49 0 00.41 1.61 1.49 1.49 0 001.2.5 1.86 1.86 0 00.87-.19 2.13 2.13 0 00.71-.59l.58.71a2.53 2.53 0 01-2.26 1.07zm-.12-6.16a1.19 1.19 0 00-1 .48 2.91 2.91 0 00-.38 1.49h2.71v-.15a2.6 2.6 0 00-.36-1.4 1.07 1.07 0 00-.97-.37zM243.33 560h-1.12v-9.75h1.12zM245.25 553.34l-.63-.45a3.47 3.47 0 00.51-1.73v-.93h1.11v.86a3.32 3.32 0 01-.28 1.24 2.91 2.91 0 01-.71 1.01zM250.84 560a2.75 2.75 0 01-.14-.75 1.79 1.79 0 01-1.53.88 2 2 0 01-1.45-.52 2 2 0 01-.53-1.48 2.09 2.09 0 01.71-1.66 3 3 0 011.95-.63h.83v-.73a1 1 0 00-1.11-1.14 1.15 1.15 0 00-.82.3 1 1 0 00-.32.77h-1.12a1.81 1.81 0 01.31-1 2.18 2.18 0 01.84-.75 2.52 2.52 0 011.17-.27 2.22 2.22 0 011.6.52 2.05 2.05 0 01.57 1.53v3.46a4.09 4.09 0 00.21 1.38v.1zm-1.49-.89a1.5 1.5 0 00.78-.23 1.43 1.43 0 00.55-.57v-1.64H250a2.14 2.14 0 00-1.26.36 1.13 1.13 0 00-.46 1 1.31 1.31 0 00.23.85 1.05 1.05 0 00.84.21zM253.31 556.24a4.19 4.19 0 01.59-2.43 2 2 0 011.7-.82 1.78 1.78 0 011.6.89l.06-.76h1v6.93a2.72 2.72 0 01-.65 2 2.4 2.4 0 01-1.82.69 3.27 3.27 0 01-1.14-.25 2.41 2.41 0 01-.95-.62l.45-.78a2.16 2.16 0 001.55.69q1.39 0 1.44-1.53v-.9a1.77 1.77 0 01-1.55.81 2 2 0 01-1.67-.8 4 4 0 01-.62-2.31zm1.13.64a3.22 3.22 0 00.34 1.69 1.2 1.2 0 001.11.54 1.34 1.34 0 001.26-.85v-3.43a1.37 1.37 0 00-1.25-.84 1.21 1.21 0 00-1.11.54 3.13 3.13 0 00-.35 1.66zM262.4 560.11a2.5 2.5 0 01-2-.76 3.31 3.31 0 01-.7-2.25v-.83a3.86 3.86 0 01.67-2.41 2.23 2.23 0 011.87-.87 2.12 2.12 0 011.8.77 3.93 3.93 0 01.61 2.39v.74h-3.83v.11a2.55 2.55 0 00.41 1.61 1.49 1.49 0 001.2.5 1.86 1.86 0 00.87-.19 2.13 2.13 0 00.71-.59l.58.71a2.53 2.53 0 01-2.19 1.07zm-.13-6.16a1.19 1.19 0 00-1 .48 2.91 2.91 0 00-.38 1.49h2.71v-.15a2.7 2.7 0 00-.35-1.4 1.1 1.1 0 00-.98-.37zM267.09 553.12v.74a2 2 0 011.67-.87c1.21 0 1.83.81 1.85 2.43V560h-1.12v-4.51a1.89 1.89 0 00-.27-1.15 1 1 0 00-.81-.33 1.15 1.15 0 00-.75.27 2.14 2.14 0 00-.54.73v5H266v-6.86zM274.7 559.15a1.18 1.18 0 00.9-.34 1.49 1.49 0 00.37-1H277a2.35 2.35 0 01-.7 1.64 2.27 2.27 0 01-1.63.65 2.4 2.4 0 01-1.94-.8 3.64 3.64 0 01-.67-2.39v-.76a3.59 3.59 0 01.67-2.36 2.36 2.36 0 011.94-.81 2.15 2.15 0 011.67.67 2.74 2.74 0 01.66 1.82h-1a1.92 1.92 0 00-.37-1.15 1.13 1.13 0 00-.9-.38 1.28 1.28 0 00-1.11.5 2.81 2.81 0 00-.38 1.61v.88a3 3 0 00.36 1.71 1.31 1.31 0 001.1.51zM280.78 560.11a2.5 2.5 0 01-2-.76 3.31 3.31 0 01-.7-2.25v-.83a3.92 3.92 0 01.67-2.41 2.23 2.23 0 011.87-.87 2.13 2.13 0 011.81.77 3.94 3.94 0 01.6 2.39v.74h-3.83v.11a2.48 2.48 0 00.42 1.61 1.46 1.46 0 001.19.5 1.93 1.93 0 00.88-.19 2.1 2.1 0 00.7-.59l.59.71a2.55 2.55 0 01-2.2 1.07zm-.13-6.16a1.17 1.17 0 00-1 .48 2.81 2.81 0 00-.38 1.49h2.7v-.15a2.7 2.7 0 00-.35-1.4 1.1 1.1 0 00-.97-.37zM177.19 575.58a2.41 2.41 0 01-.14-.75 1.79 1.79 0 01-1.53.88 2 2 0 01-1.45-.52 2 2 0 01-.53-1.48 2.09 2.09 0 01.71-1.66 3 3 0 011.95-.63h.8v-.73a1 1 0 00-1.11-1.14 1.13 1.13 0 00-.82.3 1 1 0 00-.32.77h-1.12a1.81 1.81 0 01.31-1 2.11 2.11 0 01.84-.75 2.52 2.52 0 011.17-.27 2.22 2.22 0 011.6.52 2 2 0 01.56 1.53v3.46a4.34 4.34 0 00.22 1.38v.1zm-.47-7.88h-1l-1.63-1.87h1.41zm-1 7a1.51 1.51 0 00.79-.23 1.43 1.43 0 00.55-.57v-1.64h-.64a2.14 2.14 0 00-1.26.36 1.13 1.13 0 00-.46 1 1.21 1.21 0 00.23.84 1 1 0 00.76.23zM184.18 572v3.62H183v-9.24h3a2.69 2.69 0 012 .77 2.86 2.86 0 01.74 2 2.83 2.83 0 01-.71 2.06 2.65 2.65 0 01-2 .74zm0-1H186a1.5 1.5 0 001.19-.47 1.91 1.91 0 00.41-1.33 2 2 0 00-.42-1.33 1.44 1.44 0 00-1.17-.5h-1.79zM193.53 575.58a2.15 2.15 0 01-.14-.75 1.79 1.79 0 01-1.53.88 2 2 0 01-1.46-.52 2.05 2.05 0 01-.52-1.48 2.09 2.09 0 01.71-1.66 3 3 0 011.95-.63h.83v-.73a1.2 1.2 0 00-.28-.88 1.18 1.18 0 00-.83-.26 1.13 1.13 0 00-.82.3 1 1 0 00-.32.77H190a1.81 1.81 0 01.31-1 2.08 2.08 0 01.83-.75 2.59 2.59 0 011.18-.27 2.22 2.22 0 011.6.52 2 2 0 01.56 1.53v3.46a4.34 4.34 0 00.22 1.38v.1zm-1.5-.89a1.51 1.51 0 00.79-.23 1.43 1.43 0 00.55-.57v-1.64h-.64a2.14 2.14 0 00-1.26.36 1.14 1.14 0 00-.47 1 1.2 1.2 0 00.24.84 1 1 0 00.76.24zM199.06 569.77a2.76 2.76 0 00-.51 0 1.23 1.23 0 00-1.2.95v4.91h-1.13v-6.87h1.09v.7a1.4 1.4 0 011.28-.82 1 1 0 01.44.09zM201.48 566.89a.71.71 0 01-.16.48.7.7 0 01-1 0 .8.8 0 010-1 .68.68 0 011 0 .81.81 0 01.16.52zm-.09 8.69h-1.12v-6.87h1.12zM206.49 573.83a.85.85 0 00-.27-.63 4.3 4.3 0 00-1.05-.61 6.42 6.42 0 01-1.28-.64 1.85 1.85 0 01-.56-.6 1.73 1.73 0 01-.18-.81 1.81 1.81 0 01.61-1.4 2.52 2.52 0 013.18 0 2 2 0 01.61 1.5h-1.12a1.09 1.09 0 00-.31-.79 1 1 0 00-.8-.33 1.1 1.1 0 00-.77.26.87.87 0 00-.28.68.76.76 0 00.2.56 3.81 3.81 0 001 .55 4.91 4.91 0 011.71.95 1.66 1.66 0 01.45 1.19 1.8 1.8 0 01-.62 1.43 2.41 2.41 0 01-1.65.54 2.49 2.49 0 01-1.74-.62 2 2 0 01-.67-1.56h1.13a1.31 1.31 0 00.35.9 1.3 1.3 0 00.93.32 1.25 1.25 0 00.85-.25.82.82 0 00.28-.64zM212 571.83a10.62 10.62 0 01.45-3.13 8.59 8.59 0 011.28-2.57 4.49 4.49 0 011-1l.22.78a5.2 5.2 0 00-1.25 2.2 11.07 11.07 0 00-.54 3.26v.52a11.45 11.45 0 00.63 4 5.53 5.53 0 001.16 2l-.22.72a4.79 4.79 0 01-1.19-1.3 9.62 9.62 0 01-1.54-5.48zM218.59 575.71a2.55 2.55 0 01-2-.76 3.31 3.31 0 01-.69-2.25v-.83a3.86 3.86 0 01.67-2.41 2.2 2.2 0 011.86-.87 2.13 2.13 0 011.81.77 3.93 3.93 0 01.61 2.39v.74H217v.15a2.48 2.48 0 00.42 1.61 1.47 1.47 0 001.19.5 1.9 1.9 0 00.88-.19 2.13 2.13 0 00.71-.59l.58.71a2.55 2.55 0 01-2.19 1.03zm-.13-6.16a1.17 1.17 0 00-1 .48 2.91 2.91 0 00-.38 1.49h2.7v-.15a2.61 2.61 0 00-.35-1.4 1.08 1.08 0 00-.97-.42zM223.28 568.71v.75a2 2 0 011.67-.87c1.22 0 1.83.81 1.85 2.43v4.56h-1.12v-4.51a1.89 1.89 0 00-.27-1.15 1 1 0 00-.81-.34 1.16 1.16 0 00-.75.28 2 2 0 00-.53.73v5h-1.13v-6.87zM233.88 574.75a1.18 1.18 0 00.89-.34 1.46 1.46 0 00.37-1h1.06a2.35 2.35 0 01-.7 1.64 2.23 2.23 0 01-1.62.65 2.42 2.42 0 01-1.95-.8 3.64 3.64 0 01-.67-2.39v-.76a3.59 3.59 0 01.67-2.36 2.36 2.36 0 011.94-.81 2.18 2.18 0 011.67.66 2.73 2.73 0 01.66 1.83h-1.06a1.92 1.92 0 00-.37-1.15 1.11 1.11 0 00-.9-.38 1.3 1.3 0 00-1.11.49 2.8 2.8 0 00-.37 1.62v.88a3.05 3.05 0 00.35 1.71 1.32 1.32 0 001.14.51zM237.26 571.83a3.55 3.55 0 01.73-2.37 2.37 2.37 0 011.92-.87 2.41 2.41 0 011.92.85 3.53 3.53 0 01.74 2.31v.73a3.6 3.6 0 01-.72 2.36 2.58 2.58 0 01-3.84 0 3.55 3.55 0 01-.75-2.29zm1.12.65a2.91 2.91 0 00.42 1.67 1.3 1.3 0 001.12.6c1 0 1.5-.71 1.53-2.14v-.78a2.93 2.93 0 00-.42-1.67 1.32 1.32 0 00-2.23 0 2.93 2.93 0 00-.42 1.67zM247.52 575a1.91 1.91 0 01-1.63.73 1.67 1.67 0 01-1.41-.64 3.27 3.27 0 01-.48-1.88v-4.48h1.12v4.4c0 1.07.32 1.6 1 1.6a1.41 1.41 0 001.41-.91v-5.09h1.13v6.87h-1.07zM253.14 569.77a2.67 2.67 0 00-.51 0 1.24 1.24 0 00-1.2.95v4.91h-1.13v-6.87h1.1v.7a1.38 1.38 0 011.27-.82 1 1 0 01.45.09zM257.6 573.83a.82.82 0 00-.28-.63 4.3 4.3 0 00-1.05-.61A7.05 7.05 0 01255 572a1.82 1.82 0 01-.55-.6 1.62 1.62 0 01-.19-.81 1.81 1.81 0 01.62-1.4 2.51 2.51 0 013.17 0 2 2 0 01.61 1.5h-1.12a1.09 1.09 0 00-.31-.79 1 1 0 00-.79-.33 1.13 1.13 0 00-.78.26.87.87 0 00-.28.68.76.76 0 00.21.56 3.47 3.47 0 001 .55 5 5 0 011.7.95 1.66 1.66 0 01.45 1.19 1.8 1.8 0 01-.61 1.43 2.77 2.77 0 01-3.39-.08 2 2 0 01-.67-1.56h1.13a1.27 1.27 0 00.35.9 1.3 1.3 0 00.93.32 1.27 1.27 0 00.85-.25.86.86 0 00.27-.69zM262.6 571.9a9.71 9.71 0 01-1.27 5 5.09 5.09 0 01-1.42 1.67l-.22-.72a5.47 5.47 0 001.31-2.35 12.12 12.12 0 00.5-3.45v-.23a11.13 11.13 0 00-.8-4.32 5.41 5.41 0 00-1-1.63l.22-.72a5.07 5.07 0 011.35 1.55 9.84 9.84 0 011.33 5.2z"/>
    </g>
  </g>
  <g id="_2019" data-name="2019">
    <path id="Tracé-2" data-name="Tracé" class="cls-5" d="M154.25 408.7v99.6l6.3 6.2 6.3-6.2v-99.6l-6.3 6.4z"/>
    <path id="Maison-2" data-name="Maison" class="cls-2" d="M163.35 461.3l-2.7-2.5a.45.45 0 00-.5 0l-.6.5h-.7a.47.47 0 00-.5.5v.6l-1 .9a.31.31 0 00-.1.2v.1c.1.1.2.2.3.2h.3v2.4c0 .1.1.2.1.3a.37.37 0 00.3.1h4a.35.35 0 00.4-.4v-2.4h.3c.1 0 .3-.1.3-.2v-.1c.2 0 .2-.1.1-.2"/>
    <g class="cls-3">
      <path class="cls-5" d="M182.85 468.52h-9.75v-1.94l4.6-4.9a11 11 0 001.4-1.81 2.92 2.92 0 00.46-1.46 2.22 2.22 0 00-.48-1.49 1.74 1.74 0 00-1.37-.54 1.86 1.86 0 00-1.51.66 2.6 2.6 0 00-.55 1.73h-2.83a4.59 4.59 0 01.62-2.37 4.32 4.32 0 011.75-1.69 5.39 5.39 0 012.57-.61 5 5 0 013.41 1.06 3.72 3.72 0 011.22 3 4.87 4.87 0 01-.55 2.15 12.13 12.13 0 01-1.87 2.54l-3.24 3.41h6.12zM193.56 462.64a7.17 7.17 0 01-1.22 4.51 4.87 4.87 0 01-7.12 0 6.93 6.93 0 01-1.26-4.39v-2.62a7.1 7.1 0 011.23-4.52 4.88 4.88 0 017.12 0 6.91 6.91 0 011.25 4.39zm-2.82-2.88a5.19 5.19 0 00-.48-2.57 1.64 1.64 0 00-1.51-.81 1.6 1.6 0 00-1.47.77 4.83 4.83 0 00-.5 2.4V463a5.38 5.38 0 00.47 2.58 1.61 1.61 0 001.52.85 1.57 1.57 0 001.49-.81 5.29 5.29 0 00.48-2.49zM201.74 468.52h-2.82v-10.88l-3.37 1v-2.29l5.89-2.11h.3zM212.39 462.83a3.56 3.56 0 01-2.58 1.09 3.79 3.79 0 01-3-1.3 5.07 5.07 0 01-1.13-3.49 5.4 5.4 0 01.61-2.56 4.46 4.46 0 011.7-1.82 4.76 4.76 0 012.46-.65 4.51 4.51 0 012.5.71 4.59 4.59 0 011.7 2 7.36 7.36 0 01.62 3v1a8.24 8.24 0 01-1.77 5.59 6.69 6.69 0 01-5 2.16h-.69v-2.26h.62q3.65-.17 3.96-3.47zm-1.89-1.07a2 2 0 001.18-.35 2.39 2.39 0 00.74-.85v-1.16a3.93 3.93 0 00-.54-2.23 1.71 1.71 0 00-1.47-.79 1.64 1.64 0 00-1.39.78 3.7 3.7 0 000 3.85 1.74 1.74 0 001.48.75z"/>
    </g>
    <g class="cls-3">
      <path class="cls-4" d="M51.89 450.72v-9.24h2.21a3.19 3.19 0 012.51 1 4.16 4.16 0 01.89 2.85v1.55a4.09 4.09 0 01-.9 2.83 3.39 3.39 0 01-2.64 1zm1.17-8.25v7.25H54a2.16 2.16 0 001.79-.7 3.37 3.37 0 00.58-2.08v-1.64a3.3 3.3 0 00-.57-2.14 2 2 0 00-1.69-.69zM61.61 450.85a2.52 2.52 0 01-2-.77 3.28 3.28 0 01-.69-2.24V447a3.9 3.9 0 01.66-2.41 2.23 2.23 0 011.87-.87 2.15 2.15 0 011.81.76 4 4 0 01.61 2.4v.73h-3.81v.16a2.5 2.5 0 00.42 1.61 1.48 1.48 0 001.2.5 1.86 1.86 0 00.87-.19 2.13 2.13 0 00.71-.59l.58.71a2.57 2.57 0 01-2.23 1.04zm-.13-6.16a1.17 1.17 0 00-1 .48 2.91 2.91 0 00-.38 1.49h2.7v-.15a2.58 2.58 0 00-.35-1.4 1.08 1.08 0 00-.97-.42zM62 441h1.42l-1.7 1.87h-.94zM67.11 449l1.3-5.16h1.14l-2 6.87h-.84l-2.07-6.87h1.15zM73.09 450.85a2.49 2.49 0 01-2-.77 3.28 3.28 0 01-.7-2.24V447a3.84 3.84 0 01.67-2.41 2.22 2.22 0 011.87-.87 2.14 2.14 0 011.8.76 4 4 0 01.61 2.4v.73h-3.79v.16a2.51 2.51 0 00.41 1.61 1.49 1.49 0 001.2.5 1.86 1.86 0 00.87-.19 2.13 2.13 0 00.71-.59l.58.71a2.56 2.56 0 01-2.23 1.04zm-.09-6.16a1.19 1.19 0 00-1 .48 2.91 2.91 0 00-.38 1.49h2.71v-.15a2.57 2.57 0 00-.36-1.4 1.07 1.07 0 00-.97-.42zM77.94 450.72h-1.13V441h1.13zM79.47 447a3.61 3.61 0 01.72-2.37 2.57 2.57 0 013.84 0 3.46 3.46 0 01.75 2.31v.73a3.6 3.6 0 01-.72 2.36 2.58 2.58 0 01-3.85 0 3.45 3.45 0 01-.74-2.28zm1.12.65a2.87 2.87 0 00.42 1.66 1.27 1.27 0 001.12.61c1 0 1.5-.72 1.53-2.15V447a2.93 2.93 0 00-.42-1.67 1.3 1.3 0 00-1.13-.61 1.25 1.25 0 00-1.1.61 2.89 2.89 0 00-.42 1.66zM91.19 447.62a4.07 4.07 0 01-.59 2.43 1.94 1.94 0 01-1.66.8 1.83 1.83 0 01-1.59-.78v3.29h-1.12v-9.51h1l.06.76a1.79 1.79 0 011.62-.88 1.92 1.92 0 011.68.78 4.1 4.1 0 01.58 2.36zm-1.12-.62a3.19 3.19 0 00-.35-1.71 1.28 1.28 0 00-1.14-.55 1.33 1.33 0 00-1.23.81v3.57a1.33 1.33 0 001.24.79 1.23 1.23 0 001.12-.55 3.13 3.13 0 00.36-1.68zM97.6 447.62a4.15 4.15 0 01-.58 2.43 2 2 0 01-1.66.8 1.86 1.86 0 01-1.6-.78v3.29h-1.12v-9.51h1l.06.76a1.79 1.79 0 011.62-.88 1.92 1.92 0 011.68.78 4.1 4.1 0 01.58 2.36zm-1.11-.62a3.18 3.18 0 00-.36-1.71 1.28 1.28 0 00-1.14-.55 1.33 1.33 0 00-1.23.81v3.57a1.33 1.33 0 001.24.79 1.23 1.23 0 001.12-.55 3.22 3.22 0 00.37-1.68zM101.51 450.85a2.51 2.51 0 01-2-.77 3.28 3.28 0 01-.7-2.24V447a3.84 3.84 0 01.67-2.41 2.23 2.23 0 011.87-.87 2.14 2.14 0 011.8.76 4 4 0 01.61 2.4v.73H100v.16a2.57 2.57 0 00.41 1.61 1.49 1.49 0 001.2.5 1.86 1.86 0 00.87-.19 2.13 2.13 0 00.71-.59l.58.71a2.54 2.54 0 01-2.26 1.04zm-.13-6.16a1.16 1.16 0 00-1 .48 2.8 2.8 0 00-.39 1.49h2.71v-.15a2.67 2.67 0 00-.35-1.4 1.1 1.1 0 00-.97-.42zM106.2 443.85v.64a2 2 0 011.66-.76 1.63 1.63 0 011.61 1 2 2 0 011.8-1c1.26 0 1.91.78 1.94 2.36v4.63h-1.12v-4.52a1.93 1.93 0 00-.26-1.11 1 1 0 00-.9-.37 1 1 0 00-.83.4 1.83 1.83 0 00-.37 1v4.6h-1.13v-4.57c0-.95-.4-1.43-1.16-1.43a1.23 1.23 0 00-1.2.85v5.15h-1.12v-6.87zM117.38 450.85a2.5 2.5 0 01-2-.77 3.28 3.28 0 01-.7-2.24V447a3.84 3.84 0 01.67-2.41 2.23 2.23 0 011.87-.87 2.14 2.14 0 011.8.76 4 4 0 01.61 2.4v.73h-3.83v.16a2.57 2.57 0 00.41 1.61 1.49 1.49 0 001.2.5 1.86 1.86 0 00.87-.19 2.13 2.13 0 00.71-.59l.58.71a2.55 2.55 0 01-2.19 1.04zm-.13-6.16a1.19 1.19 0 00-1 .48 2.91 2.91 0 00-.38 1.49h2.71v-.15a2.57 2.57 0 00-.36-1.4 1.07 1.07 0 00-.97-.42zM122.07 443.85v.75a2 2 0 011.67-.87c1.21 0 1.83.81 1.84 2.43v4.56h-1.08v-4.51a1.89 1.89 0 00-.27-1.15 1 1 0 00-.81-.34 1.16 1.16 0 00-.75.28 2 2 0 00-.54.73v5H121v-6.87zM128.77 442.19v1.66h1v.91h-1V449a1.15 1.15 0 00.13.62.5.5 0 00.46.21 1.41 1.41 0 00.45-.07v.94a2.36 2.36 0 01-.78.13 1.18 1.18 0 01-1-.48 2.25 2.25 0 01-.35-1.34v-4.27h-1.08v-.91h1.05v-1.66zM133.88 447a4.17 4.17 0 01.59-2.42 2 2 0 011.71-.83 1.74 1.74 0 011.53.8V441h1.13v9.75h-1l-.06-.74a1.76 1.76 0 01-1.58.87 2 2 0 01-1.67-.83 3.93 3.93 0 01-.62-2.34zm1.12.63a3.24 3.24 0 00.35 1.7 1.21 1.21 0 001.11.54 1.32 1.32 0 001.25-.84v-3.46a1.34 1.34 0 00-1.24-.83 1.23 1.23 0 00-1.12.54 3.3 3.3 0 00-.35 1.67zM144.07 450.12a2 2 0 01-1.63.73 1.63 1.63 0 01-1.41-.65 3.16 3.16 0 01-.49-1.87v-4.48h1.12v4.39c0 1.08.32 1.61 1 1.61a1.41 1.41 0 001.41-.91v-5.09h1.12v6.87h-1.07zM43.56 459.45v.64a2 2 0 011.66-.76 1.63 1.63 0 011.61 1 2 2 0 011.8-1c1.26 0 1.91.78 1.94 2.36v4.63h-1.09v-4.52a1.85 1.85 0 00-.27-1.11 1 1 0 00-.9-.37 1 1 0 00-.83.39 1.89 1.89 0 00-.37 1v4.6H46v-4.57c0-.95-.4-1.43-1.16-1.43a1.23 1.23 0 00-1.2.85v5.15h-1.13v-6.87zM54.74 466.45a2.51 2.51 0 01-2-.77 3.3 3.3 0 01-.7-2.24v-.83a3.84 3.84 0 01.67-2.41 2.23 2.23 0 011.87-.87 2.13 2.13 0 011.8.76 4 4 0 01.61 2.4v.73h-3.8v.16a2.57 2.57 0 00.41 1.62 1.49 1.49 0 001.2.5 1.86 1.86 0 00.87-.19 2 2 0 00.71-.59l.59.71a2.57 2.57 0 01-2.23 1.02zm-.13-6.16a1.16 1.16 0 00-1 .48 2.78 2.78 0 00-.39 1.49h2.68v-.15a2.67 2.67 0 00-.35-1.4 1.1 1.1 0 00-.94-.42zm.55-3.72h1.42l-1.7 1.87h-1zM59.84 457.79v1.66h1v.91h-1v4.26a1.25 1.25 0 00.13.62.51.51 0 00.46.21 1.19 1.19 0 00.45-.08v.95a2.36 2.36 0 01-.78.13 1.19 1.19 0 01-1-.48 2.28 2.28 0 01-.35-1.35v-4.26h-1v-.91h1v-1.66zM63.51 457.63a.71.71 0 01-.16.48.7.7 0 01-1 0 .8.8 0 010-1 .68.68 0 011 0 .71.71 0 01.16.52zm-.09 8.69H62.3v-6.87h1.12zM67.64 466.45a2.52 2.52 0 01-2-.77 3.3 3.3 0 01-.69-2.24v-.83a3.9 3.9 0 01.66-2.41 2.25 2.25 0 011.88-.87 2.14 2.14 0 011.8.76 4 4 0 01.61 2.4v.73h-3.81v.16a2.5 2.5 0 00.42 1.61 1.48 1.48 0 001.2.5 1.86 1.86 0 00.87-.19 2.13 2.13 0 00.71-.59l.58.71a2.57 2.57 0 01-2.23 1.03zm-.12-6.16a1.18 1.18 0 00-1 .48 2.88 2.88 0 00-.38 1.49h2.7v-.15a2.58 2.58 0 00-.35-1.4 1.08 1.08 0 00-.97-.42zM74.11 460.51a2.76 2.76 0 00-.51-.05 1.23 1.23 0 00-1.2 1v4.91h-1.13v-6.87h1.09v.7a1.4 1.4 0 011.28-.82 1 1 0 01.44.08zM78 462.58a4.17 4.17 0 01.59-2.42 2 2 0 011.71-.83 1.76 1.76 0 011.53.79v-3.55h1.13v9.75h-1l-.06-.74a1.76 1.76 0 01-1.58.87 2 2 0 01-1.67-.83 3.93 3.93 0 01-.62-2.34zm1.12.63a3.24 3.24 0 00.35 1.7 1.21 1.21 0 001.11.54 1.32 1.32 0 001.25-.84v-3.46a1.34 1.34 0 00-1.24-.83 1.23 1.23 0 00-1.12.54 3.3 3.3 0 00-.35 1.67zM84.8 459.68l-.63-.46a3.43 3.43 0 00.51-1.72v-.93h1.12v.86a3.34 3.34 0 01-.29 1.23 2.74 2.74 0 01-.71 1.02zM89.26 466.45a2.52 2.52 0 01-2-.77 3.3 3.3 0 01-.69-2.24v-.83a3.84 3.84 0 01.67-2.41 2.22 2.22 0 011.87-.87 2.14 2.14 0 011.8.76 4 4 0 01.61 2.4v.73h-3.81v.16a2.5 2.5 0 00.42 1.61 1.49 1.49 0 001.2.5 1.86 1.86 0 00.87-.19 2.13 2.13 0 00.71-.59l.58.71a2.57 2.57 0 01-2.23 1.03zm-.12-6.16a1.18 1.18 0 00-1 .48 2.88 2.88 0 00-.38 1.49h2.7v-.15a2.58 2.58 0 00-.35-1.4 1.08 1.08 0 00-.97-.42zm.54-3.72h1.42l-1.7 1.87h-.94zM95.28 465.49a1.18 1.18 0 00.89-.35 1.43 1.43 0 00.37-1h1.06a2.33 2.33 0 01-.7 1.64 2.23 2.23 0 01-1.62.65 2.39 2.39 0 01-2-.81 3.68 3.68 0 01-.67-2.39v-.75a3.68 3.68 0 01.67-2.37 2.35 2.35 0 011.94-.8A2.2 2.2 0 0197 460a2.7 2.7 0 01.65 1.82h-1.11a1.82 1.82 0 00-.36-1.14 1.15 1.15 0 00-.91-.38 1.28 1.28 0 00-1.11.49 2.88 2.88 0 00-.37 1.62v.87a3.08 3.08 0 00.36 1.72 1.3 1.3 0 001.13.49zM98.66 462.57a3.55 3.55 0 01.73-2.37 2.37 2.37 0 011.92-.87 2.39 2.39 0 011.92.85 3.57 3.57 0 01.75 2.31v.73a3.6 3.6 0 01-.73 2.36 2.57 2.57 0 01-3.84 0 3.51 3.51 0 01-.75-2.28zm1.13.65a3 3 0 00.41 1.66 1.29 1.29 0 001.12.61c1 0 1.5-.72 1.53-2.15v-.77a2.93 2.93 0 00-.42-1.67 1.32 1.32 0 00-2.23 0 3 3 0 00-.41 1.66zM106.48 459.45v.75a2 2 0 011.66-.87c1.22 0 1.83.81 1.85 2.43v4.56h-1.12v-4.51a1.89 1.89 0 00-.27-1.15 1 1 0 00-.8-.34 1.15 1.15 0 00-.76.28 2 2 0 00-.53.73v5h-1.13v-6.87zM111.48 462.57a3.55 3.55 0 01.73-2.37 2.37 2.37 0 011.92-.87 2.41 2.41 0 011.92.85 3.51 3.51 0 01.74 2.31v.73a3.6 3.6 0 01-.72 2.36 2.58 2.58 0 01-3.85 0 3.5 3.5 0 01-.74-2.28zm1.12.65a2.87 2.87 0 00.42 1.66 1.29 1.29 0 001.12.61c1 0 1.5-.72 1.53-2.15v-.77a2.93 2.93 0 00-.42-1.67 1.29 1.29 0 00-1.12-.61 1.27 1.27 0 00-1.11.61 2.89 2.89 0 00-.42 1.66zM119.3 459.45v.64a2 2 0 011.66-.76 1.63 1.63 0 011.61 1 2 2 0 011.8-1c1.26 0 1.91.78 1.94 2.36v4.63h-1.11v-4.52a1.85 1.85 0 00-.27-1.11 1 1 0 00-.9-.37 1 1 0 00-.83.39 1.89 1.89 0 00-.37 1v4.6h-1.13v-4.57c0-.95-.4-1.43-1.16-1.43a1.24 1.24 0 00-1.2.85v5.15h-1.11v-6.87zM129.32 457.63a.71.71 0 01-.16.48.59.59 0 01-.48.19.62.62 0 01-.48-.19.84.84 0 010-1 .68.68 0 011 0 .71.71 0 01.12.52zm-.09 8.69h-1.12v-6.87h1.12zM134.34 464.56a.8.8 0 00-.28-.62 4 4 0 00-1.05-.61 6.72 6.72 0 01-1.28-.64 1.75 1.75 0 01-.55-.61 1.57 1.57 0 01-.19-.81 1.82 1.82 0 01.61-1.39 2.52 2.52 0 013.18 0 2 2 0 01.61 1.5h-1.12a1.08 1.08 0 00-.31-.79 1 1 0 00-.79-.33 1.13 1.13 0 00-.78.26.87.87 0 00-.28.68.77.77 0 00.2.55 3.48 3.48 0 001 .55 5.1 5.1 0 011.7 1 1.65 1.65 0 01.45 1.19 1.79 1.79 0 01-.62 1.43 2.41 2.41 0 01-1.65.54 2.49 2.49 0 01-1.74-.62 2 2 0 01-.66-1.56h1.13a1.23 1.23 0 00.35.89 1.25 1.25 0 00.92.33 1.23 1.23 0 00.85-.25.84.84 0 00.3-.69zM138.39 457.79v1.66h1v.91h-1v4.26a1.14 1.14 0 00.14.62.48.48 0 00.45.21 1.19 1.19 0 00.45-.08v.95a2.28 2.28 0 01-.78.13 1.2 1.2 0 01-1-.48 2.28 2.28 0 01-.34-1.35v-4.26h-1.05v-.91h1.05v-1.66zM143.22 466.45a2.51 2.51 0 01-2-.77 3.3 3.3 0 01-.7-2.24v-.83a3.84 3.84 0 01.67-2.41 2.23 2.23 0 011.87-.87 2.14 2.14 0 011.8.76 4 4 0 01.61 2.4v.73h-3.83v.16a2.57 2.57 0 00.41 1.61 1.49 1.49 0 001.2.5 1.86 1.86 0 00.87-.19 2.13 2.13 0 00.71-.59l.58.71a2.54 2.54 0 01-2.19 1.03zm-.13-6.16a1.16 1.16 0 00-1 .48 2.78 2.78 0 00-.39 1.49h2.71v-.15a2.67 2.67 0 00-.35-1.4 1.1 1.1 0 00-.97-.42zM54.46 478.18a4.17 4.17 0 01.59-2.42 2 2 0 011.71-.83 1.75 1.75 0 011.53.8v-3.56h1.13v9.75h-1l-.06-.74a1.77 1.77 0 01-1.58.87 2 2 0 01-1.67-.83 3.93 3.93 0 01-.62-2.34zm1.12.63a3.36 3.36 0 00.34 1.7 1.23 1.23 0 001.12.54 1.32 1.32 0 001.25-.84v-3.46a1.35 1.35 0 00-1.24-.83 1.23 1.23 0 00-1.12.54 3.3 3.3 0 00-.35 1.67zM63.6 482.05a2.51 2.51 0 01-2-.77 3.28 3.28 0 01-.7-2.24v-.83a3.9 3.9 0 01.67-2.41 2.23 2.23 0 011.87-.87 2.12 2.12 0 011.8.76 3.9 3.9 0 01.61 2.4v.73h-3.8v.18a2.5 2.5 0 00.42 1.61 1.46 1.46 0 001.19.5 1.86 1.86 0 00.87-.19 2 2 0 00.71-.59l.59.71a2.57 2.57 0 01-2.23 1.01zm-.13-6.16a1.17 1.17 0 00-1 .48 2.81 2.81 0 00-.38 1.49h2.7v-.15a2.67 2.67 0 00-.35-1.4 1.1 1.1 0 00-.97-.42zM71.42 481.92H70.3v-9.75h1.12zM76.72 481.92a2.42 2.42 0 01-.15-.75 1.76 1.76 0 01-1.52.88 1.82 1.82 0 01-2-2 2.09 2.09 0 01.71-1.66 2.87 2.87 0 012-.63h.82V477a1 1 0 00-1.1-1.14 1.18 1.18 0 00-.83.3 1 1 0 00-.31.77h-1.16a1.9 1.9 0 01.31-1 2.18 2.18 0 01.84-.75 2.53 2.53 0 011.18-.27 2.23 2.23 0 011.6.52 2 2 0 01.56 1.53v3.46a4.34 4.34 0 00.22 1.38v.1zm-1.5-.89a1.51 1.51 0 00.79-.23 1.4 1.4 0 00.54-.57v-1.64h-.63a2.14 2.14 0 00-1.26.36 1.13 1.13 0 00-.47 1 1.23 1.23 0 00.24.85 1 1 0 00.79.2zM84.77 481.09a1.21 1.21 0 00.9-.35 1.48 1.48 0 00.37-1h1.06a2.37 2.37 0 01-.7 1.64 2.27 2.27 0 01-1.63.65 2.36 2.36 0 01-1.94-.81 3.62 3.62 0 01-.67-2.39v-.75a3.57 3.57 0 01.67-2.36 2.36 2.36 0 011.94-.81 2.18 2.18 0 011.67.66 2.76 2.76 0 01.66 1.82H86a1.91 1.91 0 00-.37-1.14 1.14 1.14 0 00-.9-.38 1.28 1.28 0 00-1.11.49 2.87 2.87 0 00-.38 1.62v.87a3.08 3.08 0 00.36 1.72 1.31 1.31 0 001.17.52zM88.16 478.17a3.61 3.61 0 01.72-2.37 2.57 2.57 0 013.84 0 3.46 3.46 0 01.75 2.31v.73a3.6 3.6 0 01-.72 2.36 2.58 2.58 0 01-3.85 0 3.45 3.45 0 01-.74-2.28zm1.12.65a2.87 2.87 0 00.42 1.66 1.27 1.27 0 001.12.61c1 0 1.5-.72 1.53-2.15v-.77a2.93 2.93 0 00-.42-1.67 1.3 1.3 0 00-1.13-.61 1.25 1.25 0 00-1.1.61 2.89 2.89 0 00-.42 1.66zM96 475.05v.75a2 2 0 011.67-.87c1.21 0 1.83.81 1.85 2.43v4.56h-1.11v-4.51a1.89 1.89 0 00-.27-1.15 1 1 0 00-.81-.34 1.16 1.16 0 00-.75.28 2 2 0 00-.54.73v5h-1.12v-6.87zM104.55 480.16a.8.8 0 00-.28-.62 4 4 0 00-1-.61 7.05 7.05 0 01-1.28-.64 1.75 1.75 0 01-.55-.61 1.57 1.57 0 01-.19-.81 1.83 1.83 0 01.61-1.39 2.25 2.25 0 011.57-.55 2.21 2.21 0 011.61.58 2 2 0 01.61 1.5h-1.12a1.09 1.09 0 00-.31-.79 1 1 0 00-.79-.33 1.13 1.13 0 00-.78.26.87.87 0 00-.28.68.74.74 0 00.21.55 3.24 3.24 0 001 .55 5.1 5.1 0 011.7 1 1.65 1.65 0 01.45 1.19 1.81 1.81 0 01-.61 1.43 2.77 2.77 0 01-3.39-.08 2 2 0 01-.67-1.56h1.13a1.27 1.27 0 00.35.9 1.54 1.54 0 001.78.07.86.86 0 00.23-.72zM108.6 473.39v1.66h1v.95h-1v4.26a1.14 1.14 0 00.14.62.49.49 0 00.45.21 1.41 1.41 0 00.45-.07v.94a2.28 2.28 0 01-.78.13 1.17 1.17 0 01-1-.48 2.18 2.18 0 01-.35-1.34V476h-1v-.91h1v-1.66zM113.81 476.11a2.76 2.76 0 00-.51-.05 1.25 1.25 0 00-1.21.95v4.91H111v-6.87h1.09v.7a1.4 1.4 0 011.28-.82 1 1 0 01.44.08zM118.43 481.32a2 2 0 01-1.63.73 1.65 1.65 0 01-1.41-.65 3.09 3.09 0 01-.48-1.87v-4.48H116v4.4c0 1.07.33 1.6 1 1.6a1.41 1.41 0 001.41-.91v-5.09h1.12v6.87h-1.07zM123.6 481.09a1.18 1.18 0 00.89-.35 1.43 1.43 0 00.37-1h1.06a2.37 2.37 0 01-.7 1.64 2.23 2.23 0 01-1.62.65 2.39 2.39 0 01-1.95-.81 3.62 3.62 0 01-.67-2.39v-.75a3.57 3.57 0 01.67-2.36 2.36 2.36 0 011.94-.81 2.18 2.18 0 011.67.66 2.7 2.7 0 01.66 1.82h-1.06a1.91 1.91 0 00-.37-1.14 1.11 1.11 0 00-.9-.38 1.28 1.28 0 00-1.11.49 2.87 2.87 0 00-.38 1.62v.87a3.08 3.08 0 00.36 1.72 1.32 1.32 0 001.14.52zM128.69 473.39v1.66h1v.95h-1v4.26a1.15 1.15 0 00.13.62.5.5 0 00.46.21 1.41 1.41 0 00.45-.07v.94a2.38 2.38 0 01-.79.13 1.17 1.17 0 01-1-.48 2.25 2.25 0 01-.35-1.34V476h-1v-.91h1v-1.66zM132.36 473.23a.77.77 0 01-.16.48.62.62 0 01-.48.19.61.61 0 01-.48-.19.8.8 0 010-1 .58.58 0 01.48-.2.56.56 0 01.47.2.72.72 0 01.17.52zm-.09 8.69h-1.13v-6.87h1.13zM133.8 478.17a3.61 3.61 0 01.72-2.37 2.57 2.57 0 013.84 0 3.46 3.46 0 01.75 2.31v.73a3.6 3.6 0 01-.72 2.36 2.58 2.58 0 01-3.85 0 3.45 3.45 0 01-.74-2.28zm1.12.65a2.87 2.87 0 00.42 1.66 1.27 1.27 0 001.12.61c1 0 1.5-.72 1.53-2.15v-.77a2.93 2.93 0 00-.42-1.67 1.3 1.3 0 00-1.13-.61 1.25 1.25 0 00-1.1.61 2.89 2.89 0 00-.42 1.66zM141.62 475.05v.75a2 2 0 011.67-.87c1.21 0 1.83.81 1.85 2.43v4.56h-1.12v-4.51a1.89 1.89 0 00-.27-1.15 1 1 0 00-.81-.34 1.16 1.16 0 00-.75.28 2 2 0 00-.54.73v5h-1.12v-6.87z"/>
    </g>
  </g>
  <g id="_2017" data-name="2017">
    <path id="Tracé-3" data-name="Tracé" class="cls-6" d="M154.25 307v99.6l6.3 6.2 6.3-6.2V307l-6.3 6.4z"/>
    <path id="Maison-3" data-name="Maison" class="cls-2" d="M163.35 359.56l-2.7-2.5a.45.45 0 00-.5 0l-.6.5h-.7a.47.47 0 00-.5.5v.6l-1 .9a.31.31 0 00-.1.2v.1c.1.1.2.2.3.2h.3v2.4c0 .1.1.2.1.3a.37.37 0 00.3.1h4a.35.35 0 00.4-.4v-2.4h.3c.1 0 .3-.1.3-.2v-.1c.2 0 .2-.1.1-.2"/>
    <g class="cls-3">
      <path class="cls-6" d="M112.91 366.78h-9.74v-1.93l4.6-4.91a12.08 12.08 0 001.4-1.8 3 3 0 00.45-1.47 2.17 2.17 0 00-.48-1.49 1.72 1.72 0 00-1.36-.54 1.85 1.85 0 00-1.51.66 2.6 2.6 0 00-.55 1.73h-2.84a4.71 4.71 0 01.62-2.37 4.38 4.38 0 011.76-1.68 5.26 5.26 0 012.56-.61 5.07 5.07 0 013.42 1.05 3.73 3.73 0 011.21 3 4.85 4.85 0 01-.54 2.15 12 12 0 01-1.91 2.53l-3.23 3.4h6.11zM123.63 360.9a7.21 7.21 0 01-1.22 4.51 4.26 4.26 0 01-3.57 1.57 4.31 4.31 0 01-3.56-1.54 7 7 0 01-1.26-4.39v-2.62a7.08 7.08 0 011.24-4.52 4.9 4.9 0 017.11 0 7 7 0 011.26 4.39zm-2.82-2.9a5.22 5.22 0 00-.48-2.57 1.65 1.65 0 00-1.51-.81 1.6 1.6 0 00-1.47.77 4.81 4.81 0 00-.51 2.4v3.46a5.37 5.37 0 00.48 2.58 1.78 1.78 0 003 0 5.24 5.24 0 00.48-2.48zM131.81 366.78H129V355.9l-3.38 1.1v-2.3l5.89-2.11h.3zM145.52 354.14L140 366.78h-3l5.51-11.94h-7.07v-2.28h10z"/>
    </g>
    <g class="cls-3">
      <path class="cls-4" d="M179.83 353.17a4.59 4.59 0 01-.81 2.92 2.75 2.75 0 01-2.29 1 2.79 2.79 0 01-2.26-1 4.42 4.42 0 01-.86-2.81v-1.74a4.68 4.68 0 01.82-2.91 3 3 0 014.56 0 4.54 4.54 0 01.84 2.87zm-1.17-1.61a3.94 3.94 0 00-.47-2.18 1.64 1.64 0 00-1.47-.72 1.62 1.62 0 00-1.45.73 3.76 3.76 0 00-.5 2.13v1.65a3.88 3.88 0 00.49 2.16 1.84 1.84 0 002.92.06 3.87 3.87 0 00.48-2.1zM185 356.38a1.92 1.92 0 01-1.63.73 1.62 1.62 0 01-1.41-.64 3.19 3.19 0 01-.49-1.88v-4.47h1.12v4.39c0 1.07.32 1.6 1 1.6a1.41 1.41 0 001.41-.91v-5.08h1.12V357H185zM189.7 355.28l1.3-5.16h1.14l-2 6.86h-.83l-2.07-6.86h1.15zM195.68 357.11a2.48 2.48 0 01-2-.76 3.26 3.26 0 01-.7-2.25v-.83a3.86 3.86 0 01.67-2.41 2.22 2.22 0 011.87-.87 2.12 2.12 0 011.8.77 3.93 3.93 0 01.61 2.39v.74h-3.84v.11a2.48 2.48 0 00.42 1.61 1.49 1.49 0 001.2.5 1.86 1.86 0 00.87-.19 2.13 2.13 0 00.71-.59l.58.71a2.55 2.55 0 01-2.19 1.07zm-.12-6.16a1.19 1.19 0 00-1 .48 2.91 2.91 0 00-.38 1.49h2.7v-.15a2.61 2.61 0 00-.35-1.4 1.07 1.07 0 00-.97-.37zM202.15 351.17a2.67 2.67 0 00-.51-.05 1.24 1.24 0 00-1.2.95V357h-1.13v-6.86h1.1v.69a1.41 1.41 0 011.28-.82.93.93 0 01.44.09zM205.06 348.45v1.67h1v.9h-1v4.27a1.13 1.13 0 00.13.61.5.5 0 00.46.21 1.41 1.41 0 00.45-.07v.96a2.36 2.36 0 01-.78.13 1.18 1.18 0 01-1-.48 2.23 2.23 0 01-.35-1.34V351h-1.05v-.9h1.05v-1.67zM210.93 356.38a1.92 1.92 0 01-1.63.73 1.64 1.64 0 01-1.41-.64 3.12 3.12 0 01-.48-1.88v-4.47h1.11v4.39c0 1.07.33 1.6 1 1.6a1.41 1.41 0 001.41-.91v-5.08H212V357h-1zM216.55 351.17a2.76 2.76 0 00-.51-.05 1.24 1.24 0 00-1.21.95V357h-1.12v-6.86h1.09v.69a1.4 1.4 0 011.28-.82 1 1 0 01.44.09zM220 357.11a2.52 2.52 0 01-2-.76 3.36 3.36 0 01-.7-2.25v-.83a3.92 3.92 0 01.67-2.41 2.23 2.23 0 011.87-.87 2.13 2.13 0 011.81.77 4 4 0 01.61 2.39v.74h-3.84v.11a2.48 2.48 0 00.42 1.61 1.46 1.46 0 001.19.5 1.93 1.93 0 00.88-.19 2.1 2.1 0 00.7-.59l.59.71a2.55 2.55 0 01-2.2 1.07zm-.13-6.16a1.17 1.17 0 00-1 .48 2.81 2.81 0 00-.38 1.49h2.7v-.15a2.61 2.61 0 00-.35-1.4 1.1 1.1 0 00-.97-.37zM226.37 353.24a4.1 4.1 0 01.6-2.42 2 2 0 011.7-.83 1.75 1.75 0 011.54.8v-3.56h1.12V357h-1l-.05-.73a1.78 1.78 0 01-1.58.86 2 2 0 01-1.68-.83 4 4 0 01-.62-2.34zm1.13.64a3.22 3.22 0 00.34 1.69 1.23 1.23 0 001.12.54 1.33 1.33 0 001.25-.84v-3.46A1.35 1.35 0 00229 351a1.21 1.21 0 00-1.11.54 3.13 3.13 0 00-.35 1.66zM235.51 357.11a2.48 2.48 0 01-2-.76 3.31 3.31 0 01-.7-2.25v-.83a3.86 3.86 0 01.67-2.41 2.22 2.22 0 011.87-.87 2.12 2.12 0 011.8.77 3.93 3.93 0 01.61 2.39v.74H234v.11a2.49 2.49 0 00.41 1.61 1.49 1.49 0 001.2.5 1.86 1.86 0 00.87-.19 2.13 2.13 0 00.71-.59l.58.71a2.53 2.53 0 01-2.26 1.07zm-.12-6.16a1.19 1.19 0 00-1 .48 2.91 2.91 0 00-.38 1.49h2.71v-.15a2.6 2.6 0 00-.36-1.4 1.07 1.07 0 00-.97-.37zM243.33 357h-1.12v-9.75h1.12zM245.25 350.34l-.63-.45a3.47 3.47 0 00.51-1.73v-.93h1.11v.86a3.32 3.32 0 01-.28 1.24 2.91 2.91 0 01-.71 1.01zM250.84 357a2.75 2.75 0 01-.14-.75 1.79 1.79 0 01-1.53.88 2 2 0 01-1.45-.52 2 2 0 01-.53-1.48 2.09 2.09 0 01.71-1.66 3 3 0 011.95-.63h.83v-.73a1 1 0 00-1.11-1.14 1.15 1.15 0 00-.82.3 1 1 0 00-.32.77h-1.12a1.81 1.81 0 01.31-1 2.18 2.18 0 01.84-.75 2.52 2.52 0 011.17-.27 2.22 2.22 0 011.6.52 2.05 2.05 0 01.57 1.53v3.46a4.09 4.09 0 00.21 1.38v.1zm-1.49-.89a1.5 1.5 0 00.78-.23 1.43 1.43 0 00.55-.57v-1.64H250a2.14 2.14 0 00-1.26.36 1.13 1.13 0 00-.46 1 1.31 1.31 0 00.23.85 1.05 1.05 0 00.84.21zM253.31 353.24a4.19 4.19 0 01.59-2.43 2 2 0 011.7-.82 1.78 1.78 0 011.6.89l.06-.76h1v6.93a2.72 2.72 0 01-.65 1.95 2.4 2.4 0 01-1.82.69 3.27 3.27 0 01-1.14-.25 2.41 2.41 0 01-.95-.62l.45-.78a2.16 2.16 0 001.55.69q1.39 0 1.44-1.53v-.9a1.77 1.77 0 01-1.55.81 2 2 0 01-1.67-.8 4 4 0 01-.62-2.31zm1.13.64a3.22 3.22 0 00.34 1.69 1.2 1.2 0 001.11.54 1.34 1.34 0 001.26-.85v-3.43a1.37 1.37 0 00-1.25-.84 1.21 1.21 0 00-1.11.54 3.13 3.13 0 00-.35 1.66zM262.4 357.11a2.5 2.5 0 01-2-.76 3.31 3.31 0 01-.7-2.25v-.83a3.86 3.86 0 01.67-2.41 2.23 2.23 0 011.87-.87 2.12 2.12 0 011.8.77 3.93 3.93 0 01.61 2.39v.74h-3.83v.11a2.55 2.55 0 00.41 1.61 1.49 1.49 0 001.2.5 1.86 1.86 0 00.87-.19 2.13 2.13 0 00.71-.59l.58.71a2.53 2.53 0 01-2.19 1.07zm-.13-6.16a1.19 1.19 0 00-1 .48 2.91 2.91 0 00-.38 1.49h2.71v-.15a2.7 2.7 0 00-.35-1.4 1.1 1.1 0 00-.98-.37zM267.09 350.12v.74a2 2 0 011.67-.87c1.21 0 1.83.81 1.85 2.43V357h-1.12v-4.51a1.89 1.89 0 00-.27-1.15 1 1 0 00-.81-.33 1.15 1.15 0 00-.75.27 2.14 2.14 0 00-.54.73v5H266v-6.86zM274.7 356.15a1.18 1.18 0 00.9-.34 1.49 1.49 0 00.37-1H277a2.35 2.35 0 01-.7 1.64 2.27 2.27 0 01-1.63.65 2.4 2.4 0 01-1.94-.8 3.64 3.64 0 01-.67-2.39v-.76a3.59 3.59 0 01.67-2.36 2.36 2.36 0 011.94-.81 2.15 2.15 0 011.67.67 2.74 2.74 0 01.66 1.82h-1a1.92 1.92 0 00-.37-1.15 1.13 1.13 0 00-.9-.38 1.28 1.28 0 00-1.11.5 2.81 2.81 0 00-.38 1.61v.88a3 3 0 00.36 1.71 1.31 1.31 0 001.1.51zM280.78 357.11a2.5 2.5 0 01-2-.76 3.31 3.31 0 01-.7-2.25v-.83a3.92 3.92 0 01.67-2.41 2.23 2.23 0 011.87-.87 2.13 2.13 0 011.81.77 3.94 3.94 0 01.6 2.39v.74h-3.83v.11a2.48 2.48 0 00.42 1.61 1.46 1.46 0 001.19.5 1.93 1.93 0 00.88-.19 2.1 2.1 0 00.7-.59l.59.71a2.55 2.55 0 01-2.2 1.07zm-.13-6.16a1.17 1.17 0 00-1 .48 2.81 2.81 0 00-.38 1.49h2.7v-.15a2.7 2.7 0 00-.35-1.4 1.1 1.1 0 00-.97-.37zM173.42 368.84a4.1 4.1 0 01.6-2.42 2 2 0 011.7-.83 1.75 1.75 0 011.54.8v-3.56h1.12v9.75h-1l-.06-.73a1.76 1.76 0 01-1.58.86 2 2 0 01-1.67-.83 4 4 0 01-.62-2.34zm1.13.64a3.24 3.24 0 00.34 1.69 1.23 1.23 0 001.12.54 1.34 1.34 0 001.25-.84v-3.46a1.37 1.37 0 00-1.25-.83 1.24 1.24 0 00-1.12.55 3.24 3.24 0 00-.34 1.66zM182.56 372.71a2.55 2.55 0 01-2-.76 3.31 3.31 0 01-.69-2.25v-.83a3.86 3.86 0 01.67-2.41 2.21 2.21 0 011.86-.87 2.13 2.13 0 011.81.77 3.93 3.93 0 01.61 2.39v.74H181v.15a2.48 2.48 0 00.42 1.61 1.48 1.48 0 001.2.5 1.86 1.86 0 00.87-.19 2.13 2.13 0 00.71-.59l.58.71a2.55 2.55 0 01-2.22 1.03zm-.13-6.16a1.17 1.17 0 00-1 .48 2.91 2.91 0 00-.38 1.49h2.7v-.15a2.61 2.61 0 00-.35-1.4 1.08 1.08 0 00-.97-.42zM194.48 364.34h-2.43v8.24h-1.17v-8.24h-2.42v-1h6zM194.82 368.83a3.55 3.55 0 01.73-2.37 2.37 2.37 0 011.92-.87 2.41 2.41 0 011.92.85 3.53 3.53 0 01.74 2.31v.73a3.6 3.6 0 01-.72 2.36 2.39 2.39 0 01-1.93.87 2.42 2.42 0 01-1.92-.84 3.61 3.61 0 01-.74-2.29zm1.12.65a2.91 2.91 0 00.42 1.67 1.3 1.3 0 001.12.6c1 0 1.5-.71 1.53-2.14v-.78a2.93 2.93 0 00-.42-1.67 1.32 1.32 0 00-2.23 0 2.93 2.93 0 00-.42 1.67zM205.08 372a1.91 1.91 0 01-1.63.73 1.67 1.67 0 01-1.41-.64 3.2 3.2 0 01-.48-1.88v-4.48h1.12v4.4c0 1.07.32 1.6 1 1.6a1.41 1.41 0 001.41-.91v-5.09h1.13v6.87h-1.07zM209.08 372.58H208v-9.75h1.13zM210.61 368.83a3.61 3.61 0 01.72-2.37 2.57 2.57 0 013.84 0 3.48 3.48 0 01.75 2.31v.73a3.6 3.6 0 01-.72 2.36 2.59 2.59 0 01-3.85 0 3.49 3.49 0 01-.74-2.29zm1.12.65a2.91 2.91 0 00.42 1.67 1.29 1.29 0 001.12.6c1 0 1.5-.71 1.53-2.14v-.78a2.93 2.93 0 00-.42-1.67 1.33 1.33 0 00-1.13-.61 1.28 1.28 0 00-1.1.61 2.93 2.93 0 00-.42 1.67zM220.87 372a1.92 1.92 0 01-1.63.73 1.67 1.67 0 01-1.41-.64 3.12 3.12 0 01-.48-1.88v-4.48h1.11v4.4c0 1.07.33 1.6 1 1.6a1.41 1.41 0 001.41-.91v-5.09H222v6.87h-1.1zM227 370.83a.85.85 0 00-.27-.63 4.63 4.63 0 00-1.06-.61 7.05 7.05 0 01-1.28-.64 1.93 1.93 0 01-.55-.6 1.73 1.73 0 01-.19-.81 1.81 1.81 0 01.62-1.4 2.24 2.24 0 011.56-.55 2.21 2.21 0 011.61.58 2 2 0 01.61 1.5h-1.11a1.1 1.1 0 00-.32-.79 1 1 0 00-.79-.33 1.13 1.13 0 00-.78.26.9.9 0 00-.28.68.76.76 0 00.21.56 3.63 3.63 0 001 .55 5 5 0 011.7.95 1.66 1.66 0 01.45 1.19 1.8 1.8 0 01-.61 1.43 2.41 2.41 0 01-1.65.54 2.45 2.45 0 01-1.74-.62 2 2 0 01-.67-1.56h1.13a1.27 1.27 0 00.35.9 1.3 1.3 0 00.93.32 1.27 1.27 0 00.85-.25.86.86 0 00.28-.67zM232 372.71a2.54 2.54 0 01-2-.76 3.31 3.31 0 01-.7-2.25v-.83a3.92 3.92 0 01.67-2.41 2.23 2.23 0 011.87-.87 2.13 2.13 0 011.81.77 3.94 3.94 0 01.6 2.39v.74h-3.83v.15a2.48 2.48 0 00.42 1.61 1.46 1.46 0 001.19.5 1.93 1.93 0 00.88-.19 2.1 2.1 0 00.7-.59l.59.71a2.55 2.55 0 01-2.2 1.03zm-.13-6.16a1.17 1.17 0 00-1 .48 2.81 2.81 0 00-.38 1.49h2.7v-.15a2.7 2.7 0 00-.35-1.4 1.1 1.1 0 00-.94-.42z"/>
    </g>
  </g>
  <g id="_2011" data-name="2011">
    <path id="Tracé_1540" data-name="Tracé 1540" class="cls-7" d="M154.25 204.7v99.6l6.3 6.2 6.3-6.2v-99.6l-6.3 6.4z"/>
    <path id="Maison-4" data-name="Maison" class="cls-2" d="M163.35 257.3l-2.7-2.5a.45.45 0 00-.5 0l-.6.5h-.7a.47.47 0 00-.5.5v.6l-1 .9a.31.31 0 00-.1.2v.1c.1.1.2.2.3.2h.3v2.4c0 .1.1.2.1.3a.37.37 0 00.3.1h4a.35.35 0 00.4-.4v-2.4h.3c.1 0 .3-.1.3-.2v-.1c.2 0 .2-.1.1-.2"/>
    <g class="cls-3">
      <path class="cls-7" d="M182.85 264.52h-9.75v-1.94l4.6-4.9a11 11 0 001.4-1.81 2.92 2.92 0 00.46-1.46 2.22 2.22 0 00-.48-1.49 1.74 1.74 0 00-1.37-.54 1.86 1.86 0 00-1.51.66 2.6 2.6 0 00-.55 1.73h-2.83a4.59 4.59 0 01.62-2.37 4.32 4.32 0 011.75-1.69 5.39 5.39 0 012.57-.61 5 5 0 013.41 1.06 3.72 3.72 0 011.22 3 4.87 4.87 0 01-.55 2.15 12.13 12.13 0 01-1.87 2.54l-3.24 3.41h6.12zM193.56 258.64a7.17 7.17 0 01-1.22 4.51 4.87 4.87 0 01-7.12 0 6.93 6.93 0 01-1.26-4.39v-2.62a7.1 7.1 0 011.23-4.52 4.88 4.88 0 017.12 0 6.91 6.91 0 011.25 4.39zm-2.82-2.88a5.19 5.19 0 00-.48-2.57 1.64 1.64 0 00-1.51-.81 1.6 1.6 0 00-1.47.77 4.83 4.83 0 00-.5 2.4V259a5.38 5.38 0 00.47 2.58 1.61 1.61 0 001.52.85 1.57 1.57 0 001.49-.81 5.29 5.29 0 00.48-2.49zM201.74 264.52h-2.82v-10.88l-3.37 1v-2.29l5.89-2.11h.3zM212.64 264.52h-2.82v-10.88l-3.37 1v-2.29l5.89-2.11h.3z"/>
    </g>
    <g class="cls-3">
      <path class="cls-4" d="M42.26 250.91a4.63 4.63 0 01-.8 2.92 3.07 3.07 0 01-4.55 0 4.38 4.38 0 01-.86-2.81v-1.73a4.6 4.6 0 01.82-2.91 2.73 2.73 0 012.28-1.05 2.77 2.77 0 012.28 1 4.54 4.54 0 01.83 2.87zm-1.16-1.62a4 4 0 00-.48-2.18 1.85 1.85 0 00-2.92 0 4 4 0 00-.5 2.14v1.65a3.87 3.87 0 00.5 2.16 1.85 1.85 0 002.91.06 3.78 3.78 0 00.49-2.1zM47.41 254.12a2 2 0 01-1.64.73 1.65 1.65 0 01-1.41-.65 3.24 3.24 0 01-.48-1.87v-4.48H45v4.39c0 1.08.32 1.61 1 1.61a1.39 1.39 0 001.41-.91v-5.09h1.09v6.87h-1.07zM52.13 253l1.31-5.16h1.14l-2 6.87h-.88l-2.06-6.87h1.14zM58.12 254.85a2.52 2.52 0 01-2-.77 3.33 3.33 0 01-.7-2.24V251a3.9 3.9 0 01.67-2.41 2.23 2.23 0 011.87-.87 2.15 2.15 0 011.81.76 4 4 0 01.61 2.4v.73h-3.81v.16a2.5 2.5 0 00.42 1.61 1.46 1.46 0 001.19.5 1.9 1.9 0 00.88-.19 2.1 2.1 0 00.7-.59l.59.71a2.57 2.57 0 01-2.23 1.04zm-.12-6.16a1.17 1.17 0 00-1 .48 2.81 2.81 0 00-.38 1.49h2.7v-.15a2.58 2.58 0 00-.35-1.4 1.1 1.1 0 00-.97-.42zM64.59 248.91a2.76 2.76 0 00-.51 0 1.25 1.25 0 00-1.21.95v4.91h-1.12v-6.87h1.09v.7a1.4 1.4 0 011.28-.82 1 1 0 01.44.08zM67.5 246.19v1.66h1v.91h-1V253a1.15 1.15 0 00.13.62.5.5 0 00.46.21 1.5 1.5 0 00.45-.07v.94a2.28 2.28 0 01-.78.13 1.17 1.17 0 01-1-.48 2.18 2.18 0 01-.35-1.34v-4.27h-1v-.91h1v-1.66zM73.37 254.12a2 2 0 01-1.63.73 1.63 1.63 0 01-1.41-.65 3.16 3.16 0 01-.49-1.87v-4.48H71v4.39c0 1.08.32 1.61 1 1.61a1.41 1.41 0 001.41-.91v-5.09h1.12v6.87h-1.14zM79 248.91a2.57 2.57 0 00-.5 0 1.24 1.24 0 00-1.21.95v4.91h-1.14v-6.87h1.09v.7a1.38 1.38 0 011.27-.82 1 1 0 01.45.08zM82.44 254.85a2.51 2.51 0 01-2-.77 3.28 3.28 0 01-.7-2.24V251a3.9 3.9 0 01.67-2.41 2.23 2.23 0 011.87-.87 2.12 2.12 0 011.8.76 3.9 3.9 0 01.61 2.4v.73h-3.8v.16a2.5 2.5 0 00.42 1.61 1.46 1.46 0 001.19.5 1.86 1.86 0 00.87-.19 2 2 0 00.71-.59l.59.71a2.57 2.57 0 01-2.23 1.04zm-.13-6.16a1.17 1.17 0 00-1 .48 2.81 2.81 0 00-.38 1.49h2.7v-.15a2.67 2.67 0 00-.35-1.4 1.1 1.1 0 00-.97-.42zM88.81 251a4.17 4.17 0 01.59-2.42 2 2 0 011.71-.83 1.72 1.72 0 011.53.8V245h1.13v9.75h-1l-.06-.74a1.76 1.76 0 01-1.58.87 2 2 0 01-1.67-.83 4 4 0 01-.62-2.34zm1.12.63a3.24 3.24 0 00.35 1.7 1.22 1.22 0 001.11.54 1.32 1.32 0 001.25-.84v-3.46a1.34 1.34 0 00-1.24-.83 1.24 1.24 0 00-1.12.54 3.41 3.41 0 00-.35 1.67zM98 254.85a2.52 2.52 0 01-2-.77 3.28 3.28 0 01-.69-2.24V251a3.84 3.84 0 01.69-2.4 2.2 2.2 0 011.86-.87 2.15 2.15 0 011.81.76 4 4 0 01.61 2.4v.73H96.4v.16a2.5 2.5 0 00.42 1.61 1.48 1.48 0 001.2.5 1.86 1.86 0 00.87-.19 2.13 2.13 0 00.71-.59l.58.71a2.57 2.57 0 01-2.18 1.03zm-.13-6.16a1.17 1.17 0 00-1 .48 2.91 2.91 0 00-.38 1.49h2.7v-.15a2.58 2.58 0 00-.35-1.4 1.08 1.08 0 00-1.02-.42zM105.77 254.72h-1.12V245h1.12zM107.68 248.08l-.63-.46a3.44 3.44 0 00.52-1.72v-.9h1.11v.86a3.27 3.27 0 01-.28 1.23 2.76 2.76 0 01-.72.99zM113.28 254.72a2.48 2.48 0 01-.14-.75 1.79 1.79 0 01-1.53.88 2 2 0 01-1.46-.53 2 2 0 01-.52-1.47 2.09 2.09 0 01.71-1.66 2.91 2.91 0 012-.63h.83v-.73a1.15 1.15 0 00-.28-.88 1.18 1.18 0 00-.83-.26 1.13 1.13 0 00-.82.3 1 1 0 00-.32.77h-1.12a1.81 1.81 0 01.31-1 2.08 2.08 0 01.83-.75 2.59 2.59 0 011.18-.27 2.22 2.22 0 011.6.52 2 2 0 01.56 1.53v3.46a4.34 4.34 0 00.22 1.38v.1zm-1.5-.89a1.57 1.57 0 001.34-.8v-1.64h-.64a2.14 2.14 0 00-1.26.36 1.12 1.12 0 00-.46 1 1.24 1.24 0 00.23.85 1 1 0 00.79.23zM115.75 251a4.27 4.27 0 01.58-2.43 2 2 0 011.71-.82 1.76 1.76 0 011.6.89v-.77h1v6.93a2.7 2.7 0 01-.66 2 2.37 2.37 0 01-1.82.68 3.06 3.06 0 01-1.14-.25 2.34 2.34 0 01-1-.62l.46-.77a2.16 2.16 0 001.54.69q1.41 0 1.44-1.53v-1a1.75 1.75 0 01-1.54.81 2 2 0 01-1.67-.81 4 4 0 01-.62-2.3zm1.12.63a3.36 3.36 0 00.34 1.7 1.23 1.23 0 001.12.54 1.31 1.31 0 001.25-.86v-3.42a1.34 1.34 0 00-1.24-.85 1.23 1.23 0 00-1.12.54 3.3 3.3 0 00-.35 1.67zM124.83 254.85a2.49 2.49 0 01-2-.77 3.28 3.28 0 01-.7-2.24V251a3.84 3.84 0 01.67-2.41 2.22 2.22 0 011.87-.87 2.14 2.14 0 011.8.76 4 4 0 01.61 2.4v.73h-3.83v.16a2.51 2.51 0 00.41 1.61 1.49 1.49 0 001.2.5 1.86 1.86 0 00.87-.19 2.13 2.13 0 00.71-.59l.58.71a2.56 2.56 0 01-2.19 1.04zm-.12-6.16a1.19 1.19 0 00-1 .48 2.91 2.91 0 00-.38 1.49H126v-.15a2.57 2.57 0 00-.36-1.4 1.07 1.07 0 00-.93-.42zM129.52 247.85v.75a2 2 0 011.67-.87c1.21 0 1.83.81 1.84 2.43v4.56H132v-4.51a1.89 1.89 0 00-.27-1.15 1 1 0 00-.81-.34 1.16 1.16 0 00-.75.28 1.91 1.91 0 00-.54.73v5h-1.12v-6.87zM137.14 253.89a1.21 1.21 0 00.9-.35 1.53 1.53 0 00.37-1h1.06a2.34 2.34 0 01-.71 1.64 2.23 2.23 0 01-1.62.65 2.36 2.36 0 01-1.94-.81 3.62 3.62 0 01-.67-2.39v-.75a3.63 3.63 0 01.66-2.36 2.36 2.36 0 011.95-.81 2.18 2.18 0 011.67.66 2.76 2.76 0 01.66 1.82h-1.06a1.91 1.91 0 00-.37-1.14 1.14 1.14 0 00-.9-.38 1.31 1.31 0 00-1.12.49 2.88 2.88 0 00-.37 1.62v.87a3.08 3.08 0 00.36 1.72 1.31 1.31 0 001.13.52zM143.22 254.85a2.51 2.51 0 01-2-.77 3.28 3.28 0 01-.7-2.24V251a3.84 3.84 0 01.67-2.41 2.23 2.23 0 011.87-.87 2.14 2.14 0 011.8.76 4 4 0 01.61 2.4v.73h-3.83v.16a2.57 2.57 0 00.41 1.61 1.49 1.49 0 001.2.5 1.86 1.86 0 00.87-.19 2.13 2.13 0 00.71-.59l.58.71a2.54 2.54 0 01-2.19 1.04zm-.13-6.16a1.16 1.16 0 00-1 .48 2.8 2.8 0 00-.39 1.49h2.71v-.15a2.67 2.67 0 00-.35-1.4 1.1 1.1 0 00-.97-.42zM36 267.9h-3.11l-.72 2.42H31l3-9.24h1l3 9.24h-1.26zm-2.82-1h2.52l-1.26-4.21zM42.47 269.72a2 2 0 01-1.63.73 1.63 1.63 0 01-1.41-.65 3.16 3.16 0 01-.49-1.87v-4.48h1.12v4.39c0 1.07.32 1.61 1 1.61a1.39 1.39 0 001.4-.91v-5.09h1.13v6.87h-1.1zM47.2 268.61l1.3-5.16h1.14l-2 6.87h-.84l-2.06-6.87h1.14zM53.18 270.45a2.52 2.52 0 01-2-.77 3.3 3.3 0 01-.69-2.24v-.83a3.9 3.9 0 01.66-2.41 2.25 2.25 0 011.88-.87 2.14 2.14 0 011.8.76 4 4 0 01.61 2.4v.73h-3.81v.16a2.5 2.5 0 00.42 1.61 1.49 1.49 0 001.2.5 1.86 1.86 0 00.87-.19 2.13 2.13 0 00.71-.59l.58.71a2.57 2.57 0 01-2.23 1.03zm-.12-6.16a1.18 1.18 0 00-1 .48 2.88 2.88 0 00-.38 1.49h2.7v-.15a2.58 2.58 0 00-.35-1.4 1.08 1.08 0 00-.97-.42zM59.65 264.51a2.76 2.76 0 00-.51-.05 1.23 1.23 0 00-1.2 1v4.91h-1.13v-6.87h1.09v.7a1.4 1.4 0 011.28-.82 1 1 0 01.44.08zM60.42 266.58a4.17 4.17 0 01.59-2.43 2 2 0 011.71-.82 1.74 1.74 0 011.59.89l.06-.77h1v6.93a2.74 2.74 0 01-.65 2 2.4 2.4 0 01-1.82.68 3.06 3.06 0 01-1.14-.25 2.28 2.28 0 01-1-.62l.45-.77a2.16 2.16 0 001.55.69q1.4 0 1.44-1.53v-.9a1.77 1.77 0 01-1.55.81 1.93 1.93 0 01-1.66-.81 3.91 3.91 0 01-.63-2.3zm1.13.63a3.26 3.26 0 00.34 1.7 1.21 1.21 0 001.11.54 1.35 1.35 0 001.26-.86v-3.43a1.36 1.36 0 00-1.25-.84 1.22 1.22 0 00-1.11.54 3.2 3.2 0 00-.35 1.67zM68.11 263.45v.75a2 2 0 011.67-.87c1.22 0 1.83.81 1.85 2.43v4.56h-1.09v-4.51a1.89 1.89 0 00-.27-1.15 1 1 0 00-.81-.34 1.11 1.11 0 00-.75.28 2 2 0 00-.53.73v5h-1.13v-6.87zM75.8 270.45a2.51 2.51 0 01-2-.77 3.3 3.3 0 01-.7-2.24v-.83a3.9 3.9 0 01.67-2.41 2.23 2.23 0 011.87-.87 2.12 2.12 0 011.8.76 3.9 3.9 0 01.61 2.4v.73h-3.8v.16a2.5 2.5 0 00.42 1.61 1.46 1.46 0 001.19.5 1.86 1.86 0 00.87-.19 2 2 0 00.71-.59l.59.71a2.57 2.57 0 01-2.23 1.03zm-.13-6.16a1.17 1.17 0 00-1 .48 2.78 2.78 0 00-.38 1.49H77v-.15a2.67 2.67 0 00-.35-1.4 1.1 1.1 0 00-.98-.42zM81.51 266.87h-2.62v-1h2.62zM85.61 266.58H84v3.74h-1.19v-9.24h2.59a2.74 2.74 0 012.06.71 3.28 3.28 0 01.32 3.56 2.32 2.32 0 01-1.07 1l1.79 3.93v.08h-1.25zm-1.63-1h1.41a1.46 1.46 0 001.16-.47 1.76 1.76 0 00.44-1.25c0-1.19-.54-1.79-1.61-1.79H84zM90.68 264.16a2 2 0 011.63-.83c1.22 0 1.83.81 1.85 2.43v4.56h-1.11v-4.51a1.89 1.89 0 00-.27-1.15 1 1 0 00-.81-.34 1.15 1.15 0 00-.76.28 2 2 0 00-.53.73v5h-1.13v-9.75h1.13zM95.6 266.57a3.61 3.61 0 01.72-2.37 2.57 2.57 0 013.84 0 3.46 3.46 0 01.75 2.31v.73a3.6 3.6 0 01-.72 2.36 2.58 2.58 0 01-3.85 0 3.45 3.45 0 01-.74-2.28zm4.26-4.26v.06H99l-.76-1.08-.76 1.08h-.9v-.08l1.33-1.72h.66zm-3.14 4.91a2.87 2.87 0 00.42 1.66 1.27 1.27 0 001.12.61c1 0 1.5-.72 1.53-2.15v-.77a2.93 2.93 0 00-.42-1.67 1.3 1.3 0 00-1.13-.61 1.25 1.25 0 00-1.1.61 2.89 2.89 0 00-.42 1.66zM103.42 263.45v.75a2 2 0 011.67-.87c1.21 0 1.83.81 1.85 2.43v4.56h-1.12v-4.51a1.89 1.89 0 00-.27-1.15 1 1 0 00-.81-.34 1.11 1.11 0 00-.75.28 2 2 0 00-.54.73v5h-1.12v-6.87zM111.1 270.45a2.49 2.49 0 01-2-.77 3.3 3.3 0 01-.7-2.24v-.83a3.84 3.84 0 01.67-2.41 2.22 2.22 0 011.87-.87 2.14 2.14 0 011.8.76 4 4 0 01.61 2.4v.73h-3.83v.16A2.51 2.51 0 00110 269a1.49 1.49 0 001.2.5 1.86 1.86 0 00.87-.19 2.13 2.13 0 00.71-.59l.58.71a2.56 2.56 0 01-2.26 1.02zm-.12-6.16a1.19 1.19 0 00-1 .48 2.88 2.88 0 00-.38 1.49h2.71v-.15a2.57 2.57 0 00-.36-1.4 1.07 1.07 0 00-.95-.42zM116.82 266.87h-2.62v-1h2.62zM122.43 267.9h-3.12l-.72 2.42h-1.2l3-9.24h1l3 9.24h-1.19zm-2.82-1h2.52l-1.26-4.21zM126.66 270.32h-1.12v-9.75h1.12zM133.39 267.22a4.14 4.14 0 01-.59 2.43 1.94 1.94 0 01-1.66.8 1.83 1.83 0 01-1.59-.78V273h-1.12v-9.51h1l.06.76a1.79 1.79 0 011.61-.88 1.93 1.93 0 011.69.78 4.1 4.1 0 01.58 2.36zm-1.12-.64a3.29 3.29 0 00-.35-1.71 1.26 1.26 0 00-1.14-.55 1.33 1.33 0 00-1.23.81v3.57a1.33 1.33 0 001.24.79 1.23 1.23 0 001.12-.55 3.13 3.13 0 00.36-1.68zM137.29 270.45a2.49 2.49 0 01-2-.77 3.3 3.3 0 01-.7-2.24v-.83a3.84 3.84 0 01.67-2.41 2.22 2.22 0 011.87-.87 2.14 2.14 0 011.8.76 4 4 0 01.61 2.4v.73h-3.83v.16a2.51 2.51 0 00.41 1.61 1.49 1.49 0 001.2.5 1.86 1.86 0 00.87-.19 2.13 2.13 0 00.71-.59l.58.71a2.56 2.56 0 01-2.19 1.03zm-.12-6.16a1.19 1.19 0 00-1 .48 2.88 2.88 0 00-.38 1.49h2.71v-.15a2.57 2.57 0 00-.36-1.4 1.07 1.07 0 00-.97-.42zM144.26 268.56a.83.83 0 00-.27-.62 4 4 0 00-1.05-.61 6.72 6.72 0 01-1.28-.64 1.89 1.89 0 01-.56-.61 1.67 1.67 0 01-.18-.81 1.78 1.78 0 01.61-1.39 2.52 2.52 0 013.18 0 2 2 0 01.61 1.5h-1.12a1.08 1.08 0 00-.31-.79 1 1 0 00-.79-.33 1.13 1.13 0 00-.78.26.87.87 0 00-.28.68.73.73 0 00.2.55 3.48 3.48 0 001 .55 5.1 5.1 0 011.7 1 1.65 1.65 0 01.45 1.19 1.82 1.82 0 01-.62 1.43 2.41 2.41 0 01-1.65.54 2.49 2.49 0 01-1.74-.62 2 2 0 01-.66-1.56h1.13a1.16 1.16 0 001.27 1.22 1.25 1.25 0 00.85-.25.83.83 0 00.29-.69z"/>
    </g>
  </g>
  <g id="_2009" data-name="2009">
    <path id="Tracé-4" data-name="Tracé" class="cls-8" d="M154.25 103v99.6l6.3 6.2 6.3-6.2V103l-6.3 6.4z"/>
    <path id="Maison-5" data-name="Maison" class="cls-2" d="M163.35 155.56l-2.7-2.5a.45.45 0 00-.5 0l-.6.5h-.7a.47.47 0 00-.5.5v.6l-1 .9a.31.31 0 00-.1.2v.1c.1.1.2.2.3.2h.3v2.4c0 .1.1.2.1.3a.37.37 0 00.3.1h4a.35.35 0 00.4-.4v-2.4h.3c.1 0 .3-.1.3-.2v-.1c.2 0 .2-.1.1-.2"/>
    <g class="cls-3">
      <path class="cls-8" d="M112.91 162.78h-9.74v-1.93l4.6-4.91a12.08 12.08 0 001.4-1.8 3 3 0 00.45-1.47 2.17 2.17 0 00-.48-1.49 1.72 1.72 0 00-1.36-.54 1.85 1.85 0 00-1.51.66 2.6 2.6 0 00-.55 1.73h-2.84a4.71 4.71 0 01.62-2.37 4.38 4.38 0 011.76-1.68 5.26 5.26 0 012.56-.61 5.07 5.07 0 013.42 1 3.73 3.73 0 011.21 3 4.85 4.85 0 01-.54 2.15 12 12 0 01-1.91 2.58l-3.23 3.4h6.11zM123.63 156.9a7.21 7.21 0 01-1.22 4.51 4.26 4.26 0 01-3.57 1.57 4.31 4.31 0 01-3.56-1.54 7 7 0 01-1.26-4.39v-2.62a7.08 7.08 0 011.24-4.52 4.9 4.9 0 017.11 0 7 7 0 011.26 4.39zm-2.82-2.9a5.22 5.22 0 00-.48-2.57 1.65 1.65 0 00-1.51-.81 1.6 1.6 0 00-1.47.77 4.81 4.81 0 00-.51 2.4v3.46a5.37 5.37 0 00.48 2.58 1.78 1.78 0 003 0 5.24 5.24 0 00.48-2.48zM134.53 156.9a7.21 7.21 0 01-1.22 4.51 4.86 4.86 0 01-7.13 0 7 7 0 01-1.26-4.39v-2.62a7.14 7.14 0 011.23-4.52 4.91 4.91 0 017.12 0 7 7 0 011.26 4.39zm-2.83-2.9a5.22 5.22 0 00-.48-2.57 1.8 1.8 0 00-3 0 4.94 4.94 0 00-.5 2.4v3.46a5.51 5.51 0 00.47 2.58 1.79 1.79 0 003 0 5.38 5.38 0 00.47-2.48zM142.45 157.1a3.55 3.55 0 01-2.58 1.08 3.8 3.8 0 01-3-1.29 5.11 5.11 0 01-1.14-3.49 5.54 5.54 0 01.61-2.57A4.46 4.46 0 01138 149a4.67 4.67 0 012.46-.65 4.51 4.51 0 012.5.7 4.66 4.66 0 011.7 2 7.24 7.24 0 01.61 3v1a8.29 8.29 0 01-1.76 5.59 6.7 6.7 0 01-5 2.17h-.7v-2.36h.63q3.7-.06 4.01-3.35zm-1.88-1.1a1.93 1.93 0 001.17-.35 2.34 2.34 0 00.75-.85v-1.16a3.85 3.85 0 00-.55-2.23 1.7 1.7 0 00-1.46-.79 1.65 1.65 0 00-1.4.78 3.32 3.32 0 00-.54 2 3.19 3.19 0 00.53 1.91 1.74 1.74 0 001.5.69z"/>
    </g>
    <g class="cls-3">
      <path class="cls-4" d="M176.61 149.24H175V153h-1.17v-9.24h2.59a2.77 2.77 0 012.06.71 2.8 2.8 0 01.7 2.07 2.93 2.93 0 01-.38 1.5 2.44 2.44 0 01-1.07 1l1.79 3.93v.03h-1.25zm-1.63-1h1.41a1.53 1.53 0 001.17-.47 1.8 1.8 0 00.43-1.26c0-1.19-.54-1.78-1.61-1.78H175zM183 153.11a2.48 2.48 0 01-2-.76 3.26 3.26 0 01-.7-2.25v-.83a3.86 3.86 0 01.67-2.41 2.22 2.22 0 011.87-.87 2.12 2.12 0 011.8.77 3.93 3.93 0 01.61 2.39v.74h-3.84v.11a2.48 2.48 0 00.42 1.61 1.49 1.49 0 001.2.5 1.86 1.86 0 00.97-.11 2.13 2.13 0 00.71-.59l.58.71a2.55 2.55 0 01-2.29.99zm-.12-6.16a1.19 1.19 0 00-1 .48 2.91 2.91 0 00-.38 1.49h2.7v-.15a2.61 2.61 0 00-.35-1.4 1.07 1.07 0 00-.96-.37zM187.7 146.12v.74a2 2 0 011.66-.87c1.22 0 1.83.81 1.85 2.43V153h-1.11v-4.51a1.89 1.89 0 00-.27-1.15 1 1 0 00-.81-.33 1.2 1.2 0 00-.76.27 2 2 0 00-.53.73v5h-1.13v-6.86zM195.32 152.15a1.21 1.21 0 00.9-.34 1.48 1.48 0 00.36-1h1.06a2.27 2.27 0 01-.7 1.64 2.23 2.23 0 01-1.62.65 2.38 2.38 0 01-1.94-.8 3.64 3.64 0 01-.67-2.39v-.76a3.65 3.65 0 01.66-2.36 2.37 2.37 0 011.94-.81 2.17 2.17 0 011.68.67 2.68 2.68 0 01.65 1.82h-1.06a1.85 1.85 0 00-.36-1.15 1.15 1.15 0 00-.91-.38 1.28 1.28 0 00-1.11.5 2.82 2.82 0 00-.37 1.61v.88a3 3 0 00.36 1.71 1.31 1.31 0 001.13.51zM198.7 149.23a3.61 3.61 0 01.73-2.37 2.57 2.57 0 013.84 0 3.55 3.55 0 01.75 2.32v.72a3.54 3.54 0 01-.73 2.36 2.58 2.58 0 01-3.84 0 3.55 3.55 0 01-.75-2.29zm1.13.65a3 3 0 00.41 1.67 1.3 1.3 0 001.12.6c1 0 1.5-.71 1.53-2.14v-.78a3 3 0 00-.41-1.66 1.31 1.31 0 00-1.13-.62 1.29 1.29 0 00-1.11.62 3 3 0 00-.41 1.66zM206.52 146.12v.74a2 2 0 011.67-.87c1.21 0 1.83.81 1.84 2.43V153H209v-4.51a1.89 1.89 0 00-.27-1.15 1 1 0 00-.81-.33 1.2 1.2 0 00-.76.27 2 2 0 00-.53.73v5h-1.13v-6.86zM213.23 144.45v1.67h1v.9h-1v4.27a1.13 1.13 0 00.13.61.5.5 0 00.46.21 1.41 1.41 0 00.45-.07v.96a2.36 2.36 0 01-.78.13 1.18 1.18 0 01-1-.48 2.23 2.23 0 01-.35-1.34V147h-1.05v-.9h1.05v-1.67zM218.43 147.17a2.57 2.57 0 00-.5 0 1.24 1.24 0 00-1.21.95V153h-1.12v-6.86h1.09v.69A1.38 1.38 0 01218 146a1 1 0 01.45.09zM221.89 153.11a2.5 2.5 0 01-2-.76 3.31 3.31 0 01-.7-2.25v-.83a3.86 3.86 0 01.67-2.41 2.23 2.23 0 011.87-.87 2.12 2.12 0 011.8.77 3.93 3.93 0 01.61 2.39v.74h-3.83v.11a2.55 2.55 0 00.41 1.61 1.49 1.49 0 001.2.5 1.86 1.86 0 00.87-.19 2.13 2.13 0 00.71-.59l.58.71a2.53 2.53 0 01-2.19 1.07zm-.13-6.16a1.19 1.19 0 00-1 .48 2.91 2.91 0 00-.38 1.49h2.71v-.15a2.6 2.6 0 00-.36-1.4 1.07 1.07 0 00-.97-.37zM232 153a2.35 2.35 0 01-.15-.75 1.76 1.76 0 01-1.52.88 2 2 0 01-1.46-.52 2 2 0 01-.52-1.48 2.09 2.09 0 01.71-1.66 2.92 2.92 0 011.95-.63h.82v-.73a1.2 1.2 0 00-.27-.88 1.37 1.37 0 00-1.66 0 1 1 0 00-.31.77h-1.13a1.83 1.83 0 01.32-1 2.08 2.08 0 01.83-.75 2.56 2.56 0 011.18-.27 2.23 2.23 0 011.6.52 2 2 0 01.61 1.5v3.46a4.34 4.34 0 00.22 1.38v.1zm-1.5-.89a1.51 1.51 0 00.79-.23 1.34 1.34 0 00.54-.57v-1.64h-.63a2.14 2.14 0 00-1.2.33 1.14 1.14 0 00-.47 1 1.25 1.25 0 00.24.85 1 1 0 00.76.24zM236.57 151.28l1.31-5.16H239l-2 6.88h-.84l-2.06-6.86h1.14zM242.56 153.11a2.52 2.52 0 01-2-.76 3.36 3.36 0 01-.7-2.25v-.83a3.92 3.92 0 01.67-2.41 2.23 2.23 0 011.87-.87 2.13 2.13 0 011.81.77 4 4 0 01.61 2.39v.74H241v.11a2.48 2.48 0 00.42 1.61 1.46 1.46 0 001.19.5 1.93 1.93 0 00.88-.19 2.1 2.1 0 00.7-.59l.59.71a2.55 2.55 0 01-2.22 1.07zm-.13-6.16a1.17 1.17 0 00-1 .48 2.81 2.81 0 00-.38 1.49h2.7v-.15a2.7 2.7 0 00-.35-1.4 1.1 1.1 0 00-.97-.37zM248.58 152.15a1.18 1.18 0 00.89-.34 1.44 1.44 0 00.37-1h1.06a2.31 2.31 0 01-.7 1.64 2.23 2.23 0 01-1.62.65 2.42 2.42 0 01-2-.8 3.7 3.7 0 01-.67-2.39v-.76a3.59 3.59 0 01.67-2.36 2.36 2.36 0 011.94-.81 2.15 2.15 0 011.67.67 2.64 2.64 0 01.66 1.82h-1.06a1.92 1.92 0 00-.36-1.15 1.15 1.15 0 00-.91-.38 1.28 1.28 0 00-1.11.5 2.74 2.74 0 00-.37 1.61v.88a3.14 3.14 0 00.35 1.71 1.32 1.32 0 001.19.51zM175.31 159.34l2.42 7.54 2.41-7.54h1.5v9.24h-1.17V165l.11-3.6-2.42 7.2h-.89l-2.4-7.18.13 3.58v3.6h-1.17v-9.24zM187 168.58a2.41 2.41 0 01-.14-.75 1.79 1.79 0 01-1.53.88 1.94 1.94 0 01-1.45-.52 2 2 0 01-.53-1.48 2.09 2.09 0 01.71-1.66 3 3 0 012-.63h.83v-.73a1.16 1.16 0 00-.28-.88 1.18 1.18 0 00-.83-.26 1.13 1.13 0 00-.82.3 1 1 0 00-.32.77h-1.12a1.81 1.81 0 01.31-1 2 2 0 01.84-.75 2.52 2.52 0 011.17-.27 2.22 2.22 0 011.6.52 2 2 0 01.56 1.53v3.46a4.34 4.34 0 00.22 1.38v.1zm-1.5-.89a1.51 1.51 0 00.79-.23 1.43 1.43 0 00.55-.57v-1.64h-.64a2.14 2.14 0 00-1.26.36 1.13 1.13 0 00-.46 1 1.21 1.21 0 00.23.84 1 1 0 00.8.24zM191.69 164.22l1.17-2.51h1.31l-1.87 3.4 1.91 3.47h-1.29l-1.21-2.58-1.22 2.57h-1.29l1.91-3.47-1.86-3.4h1.28zM196.71 159.89a.71.71 0 01-.16.48.57.57 0 01-.48.19.59.59 0 01-.48-.19.8.8 0 010-1 .68.68 0 011 0 .75.75 0 01.12.52zm-.09 8.69h-1.12v-6.87h1.12zM199.45 161.71v.64a2 2 0 011.66-.76 1.62 1.62 0 011.6 1 2.06 2.06 0 011.81-1c1.26 0 1.91.79 1.94 2.37v4.62h-1.12v-4.52a1.93 1.93 0 00-.26-1.11 1.07 1.07 0 00-.91-.37 1 1 0 00-.82.4 1.86 1.86 0 00-.37 1v4.6h-1.13V164c0-.95-.4-1.43-1.16-1.43a1.23 1.23 0 00-1.2.85v5.15h-1.12v-6.87zM210.63 168.71a2.52 2.52 0 01-2-.76 3.31 3.31 0 01-.7-2.25v-.83a3.86 3.86 0 01.67-2.41 2.23 2.23 0 011.87-.87 2.12 2.12 0 011.8.77 3.93 3.93 0 01.61 2.39v.74h-3.83v.15a2.55 2.55 0 00.41 1.61 1.49 1.49 0 001.2.5 1.86 1.86 0 00.87-.19 2.13 2.13 0 00.71-.59l.58.71a2.53 2.53 0 01-2.19 1.03zm-.13-6.16a1.19 1.19 0 00-1 .48 2.91 2.91 0 00-.38 1.49h2.71v-.15a2.6 2.6 0 00-.36-1.4 1.07 1.07 0 00-.97-.42zM220.58 159.34h1.17v6.55a3 3 0 01-.68 2.07 2.33 2.33 0 01-1.82.75 2.39 2.39 0 01-1.83-.71 2.82 2.82 0 01-.65-2h1.16a2 2 0 00.35 1.24 1.25 1.25 0 001.94 0 2.21 2.21 0 00.36-1.35zM227.85 166.16h-3.13l-.71 2.42h-1.2l3-9.24h1l3 9.24h-1.19zm-2.82-1h2.52l-1.27-4.2zM232.84 164l1.89-4.64H236l-2.63 5.8v3.44h-1.16v-3.44l-2.63-5.8h1.32zM238.75 159.34l2.41 7.54 2.41-7.54h1.5v9.24h-1.16V165l.1-3.6-2.41 7.2h-.89l-2.41-7.18.11 3.58v3.6h-1.16v-9.24zM253.08 164.77a4.59 4.59 0 01-.81 2.92 2.75 2.75 0 01-2.29 1 2.81 2.81 0 01-2.26-1 4.48 4.48 0 01-.86-2.81v-1.74a4.66 4.66 0 01.82-2.91 3 3 0 014.56 0 4.48 4.48 0 01.84 2.87zm-1.16-1.61a3.93 3.93 0 00-.48-2.18 1.83 1.83 0 00-2.92 0 3.76 3.76 0 00-.5 2.13v1.65a3.88 3.88 0 00.49 2.16 1.86 1.86 0 002.92.06 4 4 0 00.49-2.1zM260.91 168.58h-1.17l-3.7-7.12v7.12h-1.17v-9.24H256l3.72 7.15v-7.15h1.15zM262.92 168.58v-9.24h2.21a3.19 3.19 0 012.51 1 4.16 4.16 0 01.89 2.85v1.55a4.07 4.07 0 01-.9 2.83 3.39 3.39 0 01-2.64 1zm1.17-8.24v7.25h.91a2.16 2.16 0 001.79-.71 3.35 3.35 0 00.58-2.08v-1.64a3.32 3.32 0 00-.57-2.14 2.07 2.07 0 00-1.69-.68z"/>
    </g>
  </g>
  <g id="_2005" data-name="2005">
    <path id="Tracé-5" data-name="Tracé" class="cls-9" d="M154.25 1.5v99.6l6.3 6.2 6.3-6.2V1.5l-6.3 6.4z"/>
    <path id="Maison-6" data-name="Maison" class="cls-2" d="M163.35 54.1l-2.7-2.5a.45.45 0 00-.5 0l-.6.5h-.7a.47.47 0 00-.5.5v.6l-1 .9a.31.31 0 00-.1.2v.1c.1.1.2.2.3.2h.3V57c0 .1.1.2.1.3a.37.37 0 00.3.1h4a.35.35 0 00.4-.4v-2.4h.3c.1 0 .3-.1.3-.2v-.1c.2 0 .2-.1.1-.2"/>
    <g class="cls-3">
      <path class="cls-9" d="M182.85 61.33h-9.75v-1.94l4.6-4.9a11 11 0 001.4-1.81 2.92 2.92 0 00.46-1.46 2.22 2.22 0 00-.48-1.49 1.74 1.74 0 00-1.37-.54 1.86 1.86 0 00-1.51.66 2.58 2.58 0 00-.55 1.73h-2.83a4.56 4.56 0 01.62-2.37 4.32 4.32 0 011.75-1.69 5.39 5.39 0 012.57-.61 5 5 0 013.41 1.09 3.72 3.72 0 011.22 3 4.83 4.83 0 01-.55 2.14 11.9 11.9 0 01-1.84 2.5l-3.24 3.41h6.12zM193.56 55.45a7.17 7.17 0 01-1.22 4.55 4.87 4.87 0 01-7.12 0 6.94 6.94 0 01-1.26-4.4V53a7.15 7.15 0 011.23-4.53 4.9 4.9 0 017.12 0 6.91 6.91 0 011.25 4.39zm-2.82-2.88a5.26 5.26 0 00-.48-2.58 1.65 1.65 0 00-1.51-.8 1.61 1.61 0 00-1.47.76 4.88 4.88 0 00-.5 2.4v3.47a5.41 5.41 0 00.47 2.58 1.63 1.63 0 001.52.85 1.56 1.56 0 001.49-.82 5.21 5.21 0 00.48-2.48zM204.46 55.45a7.23 7.23 0 01-1.22 4.55 4.89 4.89 0 01-7.13 0 7 7 0 01-1.26-4.4V53a7.09 7.09 0 011.24-4.53 4.88 4.88 0 017.11 0 7 7 0 011.26 4.39zm-2.82-2.88a5.13 5.13 0 00-.49-2.58 1.64 1.64 0 00-1.51-.8 1.58 1.58 0 00-1.46.76 4.87 4.87 0 00-.51 2.4v3.47a5.4 5.4 0 00.48 2.58 1.61 1.61 0 001.51.85 1.59 1.59 0 001.5-.82 5.47 5.47 0 00.48-2.48zM206.2 54.33l.82-7.22h8v2.35h-5.65l-.37 3.06a4.45 4.45 0 012.14-.54 4.1 4.1 0 013.18 1.26 5 5 0 011.15 3.53 5.11 5.11 0 01-.58 2.46 4.1 4.1 0 01-1.66 1.69 5.24 5.24 0 01-2.56.6 5.54 5.54 0 01-2.4-.52 4.32 4.32 0 01-1.74-1.47 4 4 0 01-.68-2.16h2.8a2 2 0 00.62 1.38 1.94 1.94 0 001.39.5 1.73 1.73 0 001.47-.69 3.16 3.16 0 00.52-2 2.63 2.63 0 00-.6-1.86 2.17 2.17 0 00-1.69-.64 2.46 2.46 0 00-1.63.53l-.27.25z"/>
    </g>
    <g class="cls-3">
      <path class="cls-4" d="M91.16 48.59a3.42 3.42 0 01-.84 2.28 2.85 2.85 0 01-2.14.79A2.68 2.68 0 0186 50.6a4.62 4.62 0 01-.82-2.87v-1.67a4.38 4.38 0 01.82-2.85 2.77 2.77 0 012.29-1.05 2.68 2.68 0 012.07.8 3.49 3.49 0 01.8 2.29H90a2.89 2.89 0 00-.48-1.61 1.5 1.5 0 00-1.22-.48 1.64 1.64 0 00-1.45.74 3.79 3.79 0 00-.51 2.16v1.7a4.11 4.11 0 00.47 2.15 1.54 1.54 0 001.38.75 1.67 1.67 0 001.31-.45 2.86 2.86 0 00.5-1.62zM95.41 45.71a3.77 3.77 0 00-.51 0 1.24 1.24 0 00-1.2.95v4.91h-1.12v-6.91h1.09v.7a1.39 1.39 0 011.33-.83 1 1 0 01.45.09zM98.87 51.66a2.5 2.5 0 01-2-.77 3.3 3.3 0 01-.7-2.24v-.83a3.84 3.84 0 01.67-2.41 2.24 2.24 0 011.87-.88 2.15 2.15 0 011.8.77 4 4 0 01.61 2.4v.73h-3.8v.16a2.57 2.57 0 00.41 1.61 1.49 1.49 0 001.2.5 1.86 1.86 0 00.87-.19 2.13 2.13 0 00.71-.59l.58.71a2.55 2.55 0 01-2.22 1.03zm-.13-6.16a1.19 1.19 0 00-1 .48 2.88 2.88 0 00-.38 1.49H100v-.16a2.66 2.66 0 00-.35-1.39 1.1 1.1 0 00-.91-.42zm.54-3.72h1.43L99 43.65h-1zM106 51.53a2.48 2.48 0 01-.14-.75 1.81 1.81 0 01-1.53.88 2 2 0 01-1.45-.53 2 2 0 01-.53-1.47 2.11 2.11 0 01.71-1.67 2.91 2.91 0 012-.62h.83v-.74a1.12 1.12 0 00-.28-.87 1.16 1.16 0 00-.83-.26 1.13 1.13 0 00-.82.3 1 1 0 00-.32.77h-1.14a1.79 1.79 0 01.31-1 2.11 2.11 0 01.84-.75 2.41 2.41 0 011.17-.28 2.22 2.22 0 011.6.53 2 2 0 01.56 1.52v3.47a4.34 4.34 0 00.22 1.38v.1zm-1.5-.9a1.5 1.5 0 00.79-.22 1.52 1.52 0 00.55-.58V48.2h-.64a2.07 2.07 0 00-1.26.36 1.12 1.12 0 00-.46 1 1.24 1.24 0 00.23.85 1 1 0 00.82.22zM110.2 43v1.66h1v.91h-1v4.26a1.17 1.17 0 00.13.62.5.5 0 00.46.21 1.47 1.47 0 00.45-.08v1a2.67 2.67 0 01-.79.13 1.17 1.17 0 01-1-.48 2.28 2.28 0 01-.35-1.35v-4.31h-1v-.91h1V43zM113.87 42.84a.77.77 0 01-.16.48.63.63 0 01-.49.19.59.59 0 01-.47-.19.8.8 0 010-1 .56.56 0 01.47-.2.57.57 0 01.48.2.72.72 0 01.17.52zm-.09 8.69h-1.13v-6.87h1.13zM115.31 47.78a3.61 3.61 0 01.72-2.37 2.56 2.56 0 013.84 0 3.49 3.49 0 01.75 2.32v.73a3.6 3.6 0 01-.72 2.36 2.58 2.58 0 01-3.85 0 3.45 3.45 0 01-.74-2.28zm1.12.65a2.87 2.87 0 00.42 1.66 1.27 1.27 0 001.12.61c1 0 1.5-.72 1.53-2.15v-.77a2.93 2.93 0 00-.42-1.67 1.3 1.3 0 00-1.08-.61 1.25 1.25 0 00-1.1.61 2.89 2.89 0 00-.42 1.66zM123.13 44.66v.74a2 2 0 011.67-.87c1.21 0 1.83.81 1.85 2.43v4.57h-1.12V47a1.89 1.89 0 00-.27-1.15 1 1 0 00-.81-.34 1.11 1.11 0 00-.75.28 2 2 0 00-.54.73v5h-1.12v-6.86zM131.1 47.78a4.16 4.16 0 01.59-2.41 2 2 0 011.71-.84 1.77 1.77 0 011.53.8v-3.55h1.13v9.75h-1l-.06-.74a1.76 1.76 0 01-1.58.87 2 2 0 01-1.67-.83 3.93 3.93 0 01-.62-2.34zm1.12.64a3.24 3.24 0 00.35 1.7 1.21 1.21 0 001.11.54 1.32 1.32 0 001.25-.84v-3.47a1.35 1.35 0 00-1.24-.82 1.23 1.23 0 00-1.12.54 3.27 3.27 0 00-.35 1.67zM140.24 51.66a2.52 2.52 0 01-2-.77 3.3 3.3 0 01-.7-2.24v-.83a3.9 3.9 0 01.67-2.41 2.24 2.24 0 011.87-.88 2.16 2.16 0 011.81.77 4 4 0 01.6 2.4v.73h-3.83v.16a2.5 2.5 0 00.42 1.61 1.46 1.46 0 001.19.5 1.93 1.93 0 00.88-.19 2.1 2.1 0 00.7-.59l.59.71a2.57 2.57 0 01-2.2 1.03zm-.13-6.16a1.17 1.17 0 00-1 .48 2.78 2.78 0 00-.38 1.49h2.7v-.16a2.66 2.66 0 00-.35-1.39 1.1 1.1 0 00-.97-.42zM56.72 67.13h-1.13v-9.75h1.13zM62 67.13a2.42 2.42 0 01-.15-.75 1.79 1.79 0 01-1.52.88 1.82 1.82 0 01-2-2 2.08 2.08 0 01.71-1.67A2.92 2.92 0 0161 63h.82v-.73a1.16 1.16 0 00-.27-.87 1.18 1.18 0 00-.83-.26 1.16 1.16 0 00-.83.3 1 1 0 00-.31.76h-1.1a1.86 1.86 0 01.31-1 2.18 2.18 0 01.84-.75 2.42 2.42 0 011.18-.28 2.24 2.24 0 011.6.53 2.08 2.08 0 01.59 1.48v3.47a4.08 4.08 0 00.19 1.35v.1zm-1.5-.9a1.52 1.52 0 00.79-.22 1.42 1.42 0 00.54-.58V63.8h-.63a2 2 0 00-1.27.36 1.15 1.15 0 00-.46 1 1.25 1.25 0 00.24.85 1 1 0 00.81.22zM71 65.37a.83.83 0 00-.27-.62 4 4 0 00-1-.61 6.72 6.72 0 01-1.28-.64 1.89 1.89 0 01-.56-.61 1.7 1.7 0 01-.18-.81 1.78 1.78 0 01.61-1.39 2.49 2.49 0 013.18 0 2 2 0 01.61 1.5H71a1.08 1.08 0 00-.31-.79 1 1 0 00-.79-.33 1.13 1.13 0 00-.78.25.89.89 0 00-.28.69.77.77 0 00.2.55 3.75 3.75 0 001 .55 5.1 5.1 0 011.7 1 1.65 1.65 0 01.45 1.19 1.82 1.82 0 01-.62 1.43 2.41 2.41 0 01-1.65.54 2.49 2.49 0 01-1.74-.62 2 2 0 01-.66-1.56h1.13a1.17 1.17 0 001.27 1.22 1.29 1.29 0 00.85-.25.84.84 0 00.23-.69zM73.37 63.38A3.61 3.61 0 0174.1 61a2.37 2.37 0 011.9-.87 2.41 2.41 0 011.92.85 3.55 3.55 0 01.75 2.32v.7a3.54 3.54 0 01-.67 2.39 2.37 2.37 0 01-1.93.87 2.4 2.4 0 01-1.91-.85 3.51 3.51 0 01-.75-2.28zm1.13.62a3 3 0 00.41 1.66 1.29 1.29 0 001.09.64c1 0 1.5-.72 1.53-2.15v-.77a2.91 2.91 0 00-.42-1.67 1.32 1.32 0 00-2.23 0 3 3 0 00-.41 1.66zM82.52 66.3a1.22 1.22 0 00.9-.35 1.48 1.48 0 00.36-1h1.06a2.35 2.35 0 01-.7 1.65 2.23 2.23 0 01-1.62.65 2.36 2.36 0 01-1.94-.81 3.62 3.62 0 01-.67-2.39v-.75a3.68 3.68 0 01.66-2.37 2.37 2.37 0 011.94-.81 2.21 2.21 0 011.68.67 2.68 2.68 0 01.65 1.82h-1.06a1.8 1.8 0 00-.36-1.14 1.15 1.15 0 00-.91-.38 1.29 1.29 0 00-1.11.49 2.88 2.88 0 00-.4 1.63v.87a3.08 3.08 0 00.36 1.72 1.3 1.3 0 001.16.5zM87.44 58.44a.67.67 0 01-.16.47.57.57 0 01-.48.2.6.6 0 01-.48-.2.72.72 0 01-.16-.47.77.77 0 01.16-.48.68.68 0 011 0 .71.71 0 01.12.48zm-.09 8.69h-1.12v-6.87h1.12zM91.57 67.26a2.52 2.52 0 01-2-.77 3.3 3.3 0 01-.69-2.24v-.83a3.84 3.84 0 01.7-2.42 2.2 2.2 0 011.87-.88 2.15 2.15 0 011.8.77 3.93 3.93 0 01.61 2.39V64H90v.16a2.5 2.5 0 00.42 1.61 1.49 1.49 0 001.2.5 1.86 1.86 0 00.87-.19 2.13 2.13 0 00.71-.59l.58.71a2.57 2.57 0 01-2.21 1.06zm-.12-6.16a1.19 1.19 0 00-1 .48 2.88 2.88 0 00-.45 1.49h2.7v-.16a2.57 2.57 0 00-.35-1.39 1.08 1.08 0 00-.9-.42zm.55-3.72h1.42l-1.7 1.86h-.94zM96.68 58.6v1.66h1v.91h-1v4.26a1.17 1.17 0 00.13.62.5.5 0 00.46.21 1.53 1.53 0 00.45-.08v.95a2.55 2.55 0 01-.78.13 1.17 1.17 0 01-1-.48 2.28 2.28 0 01-.35-1.35v-4.26h-1v-.91h1V58.6zM101.5 67.26a2.51 2.51 0 01-2-.77 3.35 3.35 0 01-.7-2.24v-.83a3.9 3.9 0 01.7-2.42 2.21 2.21 0 011.87-.88 2.16 2.16 0 011.81.77 4 4 0 01.61 2.39V64H100v.16a2.5 2.5 0 00.42 1.61 1.46 1.46 0 001.19.5 1.93 1.93 0 00.88-.19 2.1 2.1 0 00.7-.59l.59.71a2.57 2.57 0 01-2.28 1.06zm-.13-6.16a1.17 1.17 0 00-1 .48 2.78 2.78 0 00-.38 1.49h2.7v-.16a2.57 2.57 0 00-.35-1.39 1.1 1.1 0 00-.97-.42zm.55-3.72h1.42l-1.7 1.86h-1zM112.7 62.86h-3.27v3.27h3.81v1h-5v-9.24h4.9v1h-3.74v3h3.27zM115.88 63.51v3.62h-1.16v-9.24h3a2.63 2.63 0 012 .77 3.28 3.28 0 010 4.1 2.74 2.74 0 01-2 .75zm0-1h1.79a1.49 1.49 0 001.18-.46 1.91 1.91 0 00.42-1.33 2 2 0 00-.43-1.33 1.43 1.43 0 00-1.17-.51h-1.79zM123.14 67.13H122v-9.24h1.16zM131.21 67.13h-1.16l-3.7-7.13v7.12h-1.17v-9.23h1.17l3.71 7.11v-7.11h1.15zM137.65 64.71h-3.12l-.72 2.42h-1.19l3-9.24h1l3 9.24h-1.19zm-2.82-1h2.52l-1.26-4.2zM142 66.13h3.62v1h-4.79v-9.24H142z"/>
    </g>
  </g>
</svg>
