<svg id="Historique" xmlns="http://www.w3.org/2000/svg" viewBox="0 0 1119 1052.02">
  <defs>
    <style>
      .cls-1{fill:#e95658}.cls-2{fill:#fff}.cls-3{isolation:isolate}.cls-4{fill:#030303}.cls-5{fill:#e5383b}.cls-6{fill:#c30000}.cls-7{fill:#d1183e}.cls-8{fill:#89122f}.cls-9{fill:#5f091e}
    </style>
  </defs>
  <g id="_2021" data-name="2021">
    <path id="Tracé" class="cls-1" d="M542 862.9v162.26l20.45 20.17 20.45-20.17V862.9l-20.45 20.62z"/>
    <path id="Maison" class="cls-2" d="M571.64 952.34l-8.78-8.11a1.3 1.3 0 00-1.73 0l-1.84 1.7H557a1.54 1.54 0 00-1.54 1.54v2l-3.09 2.86a1.09 1.09 0 00-.36.81 1 1 0 00.11.46 1.22 1.22 0 001.12.68h1.12v7.8a1.38 1.38 0 00.48 1 1.62 1.62 0 001.09.41h12.16a1.62 1.62 0 001.09-.41 1.38 1.38 0 00.48-1v-7.8h1.12a1.22 1.22 0 001.12-.68 1 1 0 00.11-.46 1.11 1.11 0 00-.36-.81"/>
    <g id="_2021-2" data-name="2021" class="cls-3">
      <g class="cls-3">
        <path class="cls-1" d="M452.2 968.58h-19.49v-3.87l9.2-9.8a22.45 22.45 0 002.8-3.62 5.72 5.72 0 00.91-2.92 4.32 4.32 0 00-1-3 3.42 3.42 0 00-2.73-1.09 3.73 3.73 0 00-3 1.32 5.27 5.27 0 00-1.1 3.47h-5.66a9.3 9.3 0 011.24-4.75 8.74 8.74 0 013.5-3.37 10.69 10.69 0 015.14-1.22 10.1 10.1 0 016.82 2.11 7.44 7.44 0 012.44 6 9.6 9.6 0 01-1.1 4.3 24.13 24.13 0 01-3.75 5.09L440 964h12.2zM473.64 956.82q0 5.89-2.44 9a9.76 9.76 0 01-14.26 0q-2.46-3.06-2.52-8.78v-5.24c0-4 .83-7 2.47-9a9.77 9.77 0 0114.23 0c1.64 2 2.48 5 2.52 8.78zm-5.64-5.75a10.44 10.44 0 00-1-5.15 3.26 3.26 0 00-3-1.62 3.2 3.2 0 00-2.94 1.54 9.76 9.76 0 00-1 4.8v6.92a11 11 0 00.94 5.17 3.23 3.23 0 003 1.69 3.17 3.17 0 003-1.62 10.75 10.75 0 001-5zM495.78 968.58h-19.49v-3.87l9.2-9.8a22.45 22.45 0 002.8-3.62 5.72 5.72 0 00.91-2.92 4.32 4.32 0 00-1-3 3.43 3.43 0 00-2.73-1.09 3.73 3.73 0 00-3 1.32 5.27 5.27 0 00-1.1 3.47h-5.67a9.4 9.4 0 011.24-4.75 8.83 8.83 0 013.51-3.37 10.69 10.69 0 015.14-1.22 10.1 10.1 0 016.82 2.11 7.47 7.47 0 012.43 6 9.58 9.58 0 01-1.09 4.3 24.13 24.13 0 01-3.75 5.09l-6.44 6.77h12.22zM511.79 968.58h-5.64v-21.76l-6.74 2.09v-4.59l11.77-4.22h.61z"/>
      </g>
    </g>
    <g id="Texte" class="cls-3">
      <g class="cls-3">
        <path class="cls-4" d="M615.7 956.82a6.43 6.43 0 01-1.11 4 3.82 3.82 0 01-3.18 1.41 3.87 3.87 0 01-3.12-1.37 6.14 6.14 0 01-1.19-3.86v-2.4a6.43 6.43 0 011.13-4 3.8 3.8 0 013.17-1.46 3.87 3.87 0 013.15 1.39 6.27 6.27 0 011.15 4zm-1.61-2.24a5.52 5.52 0 00-.66-3 2.55 2.55 0 00-4 0 5.24 5.24 0 00-.69 3v2.29a5.47 5.47 0 00.68 3 2.56 2.56 0 004 .08 5.29 5.29 0 00.67-2.91zM622.82 961.26a2.68 2.68 0 01-2.26 1 2.28 2.28 0 01-1.95-.89 4.41 4.41 0 01-.67-2.6v-6.2h1.55v6.09c0 1.48.45 2.22 1.34 2.22a2 2 0 001.95-1.27v-7h1.55v9.51h-1.47zM629.37 959.73l1.8-7.15h1.58l-2.82 9.51h-1.16l-2.85-9.51h1.58zM637.66 962.27a3.47 3.47 0 01-2.73-1.06 4.57 4.57 0 01-1-3.11V957a5.4 5.4 0 01.92-3.33 3.08 3.08 0 012.59-1.21 3 3 0 012.5 1.06 5.48 5.48 0 01.84 3.32v1h-5.31v.16a3.49 3.49 0 00.58 2.22 2 2 0 001.66.69 2.63 2.63 0 001.21-.26 2.91 2.91 0 001-.82l.81 1a3.51 3.51 0 01-3.07 1.44zm-.18-8.52a1.63 1.63 0 00-1.43.66 3.93 3.93 0 00-.53 2.06h3.75v-.21a3.63 3.63 0 00-.49-1.93 1.51 1.51 0 00-1.3-.58zM646.61 954a3.8 3.8 0 00-.7-.06 1.71 1.71 0 00-1.67 1.31v6.8h-1.55v-9.51h1.51v1a2 2 0 011.77-1.14 1.43 1.43 0 01.62.12zM650.64 950.28v2.3h1.43v1.26h-1.43v5.91a1.63 1.63 0 00.18.85.72.72 0 00.64.29 2 2 0 00.62-.1v1.31a3.59 3.59 0 01-1.08.17 1.63 1.63 0 01-1.4-.66 3 3 0 01-.49-1.86v-5.91h-1.45v-1.26h1.45v-2.3zM658.77 961.26a2.69 2.69 0 01-2.26 1 2.28 2.28 0 01-2-.89 4.41 4.41 0 01-.67-2.6v-6.2h1.55v6.09c0 1.48.44 2.22 1.33 2.22a2 2 0 002-1.27v-7h1.55v9.51h-1.47zM666.55 954a3.92 3.92 0 00-.71-.06 1.72 1.72 0 00-1.67 1.31v6.8h-1.55v-9.51h1.51v1a1.92 1.92 0 011.76-1.14 1.4 1.4 0 01.62.12zM671.33 962.27a3.48 3.48 0 01-2.73-1.06 4.57 4.57 0 01-1-3.11V957a5.4 5.4 0 01.92-3.33 3.08 3.08 0 012.59-1.21 3 3 0 012.5 1.06 5.48 5.48 0 01.84 3.32v1h-5.31v.16a3.49 3.49 0 00.58 2.22 2 2 0 001.66.69 2.56 2.56 0 001.2-.26 3 3 0 001-.82l.8 1a3.51 3.51 0 01-3.05 1.44zm-.18-8.52a1.63 1.63 0 00-1.43.66 3.93 3.93 0 00-.53 2.06h3.75v-.21a3.63 3.63 0 00-.49-1.93 1.5 1.5 0 00-1.3-.58zM680.15 956.91a5.79 5.79 0 01.82-3.35 2.73 2.73 0 012.36-1.15 2.44 2.44 0 012.13 1.11v-4.93H687v13.5h-1.43l-.08-1a2.44 2.44 0 01-2.18 1.19 2.7 2.7 0 01-2.32-1.15 5.53 5.53 0 01-.86-3.24zm1.56.88a4.57 4.57 0 00.47 2.35 1.71 1.71 0 001.55.75 1.84 1.84 0 001.73-1.17v-4.79a1.87 1.87 0 00-1.72-1.14 1.69 1.69 0 00-1.55.75 4.46 4.46 0 00-.48 2.3zM692.81 962.27a3.48 3.48 0 01-2.73-1.06 4.57 4.57 0 01-1-3.11V957a5.4 5.4 0 01.92-3.33 3.08 3.08 0 012.59-1.21 3 3 0 012.5 1.06 5.48 5.48 0 01.84 3.32v1h-5.3v.16a3.5 3.5 0 00.57 2.22 2 2 0 001.66.69 2.63 2.63 0 001.21-.26 2.94 2.94 0 001-.82l.8 1a3.51 3.51 0 01-3.06 1.44zm-.18-8.52a1.63 1.63 0 00-1.43.66 3.93 3.93 0 00-.53 2.06h3.75v-.21a3.63 3.63 0 00-.49-1.93 1.5 1.5 0 00-1.3-.58zM703.64 962.09h-1.56v-13.5h1.56zM706.28 952.9l-.87-.63a4.73 4.73 0 00.71-2.39v-1.29h1.54v1.19a4.51 4.51 0 01-.39 1.71 3.89 3.89 0 01-.99 1.41zM714 962.09a3.12 3.12 0 01-.21-1 2.46 2.46 0 01-2.11 1.21 2.72 2.72 0 01-2-.72 2.76 2.76 0 01-.73-2 2.89 2.89 0 011-2.3 4 4 0 012.69-.87h1.15v-1a1.34 1.34 0 00-1.53-1.57 1.61 1.61 0 00-1.15.41 1.4 1.4 0 00-.43 1.06h-1.56a2.5 2.5 0 01.43-1.39 3 3 0 011.16-1 3.53 3.53 0 011.63-.38 3.12 3.12 0 012.22.72 2.87 2.87 0 01.77 2.12v4.8a5.92 5.92 0 00.3 1.9v.14zm-2-1.23a2.06 2.06 0 001.09-.32 2 2 0 00.76-.79v-2.27h-.88a2.93 2.93 0 00-1.75.5 1.56 1.56 0 00-.64 1.34 1.76 1.76 0 00.32 1.17 1.44 1.44 0 001.1.37zM717.45 956.91a5.79 5.79 0 01.81-3.36 2.72 2.72 0 012.37-1.14 2.42 2.42 0 012.2 1.24l.08-1.07h1.41v9.6a3.73 3.73 0 01-.91 2.71 3.32 3.32 0 01-2.52 1 4.41 4.41 0 01-1.58-.35 3.28 3.28 0 01-1.31-.86l.63-1.07a3 3 0 002.14 1c1.29 0 2-.7 2-2.12v-1.24a2.42 2.42 0 01-2.14 1.12 2.69 2.69 0 01-2.3-1.11 5.44 5.44 0 01-.87-3.2zm1.56.88a4.57 4.57 0 00.47 2.35 1.68 1.68 0 001.54.75 1.84 1.84 0 001.74-1.18V955a1.88 1.88 0 00-1.72-1.17 1.71 1.71 0 00-1.55.75 4.56 4.56 0 00-.48 2.3zM730 962.27a3.45 3.45 0 01-2.72-1.06 4.52 4.52 0 01-1-3.11V957a5.34 5.34 0 01.93-3.33 3.06 3.06 0 012.59-1.21 3 3 0 012.49 1.06 5.55 5.55 0 01.85 3.32v1h-5.31v.16a3.5 3.5 0 00.57 2.22 2.05 2.05 0 001.66.69 2.6 2.6 0 001.21-.26 2.94 2.94 0 001-.82l.81 1a3.54 3.54 0 01-3.08 1.44zm-.17-8.52a1.64 1.64 0 00-1.44.66 3.93 3.93 0 00-.52 2.06h3.74v-.21a3.54 3.54 0 00-.49-1.93 1.48 1.48 0 00-1.26-.58zM736.53 952.58v1a2.77 2.77 0 012.31-1.2c1.68 0 2.54 1.12 2.56 3.37v6.31h-1.55v-6.24a2.58 2.58 0 00-.37-1.59 1.35 1.35 0 00-1.12-.47 1.55 1.55 0 00-1 .39 2.7 2.7 0 00-.75 1v6.9h-1.55v-9.51zM747.07 960.94a1.64 1.64 0 001.24-.48 2 2 0 00.51-1.36h1.47a3.26 3.26 0 01-1 2.27 3.08 3.08 0 01-2.25.9 3.32 3.32 0 01-2.69-1.11 5.06 5.06 0 01-.93-3.31v-1.05a5 5 0 01.93-3.27 3.26 3.26 0 012.68-1.12 3 3 0 012.32.92 3.8 3.8 0 01.91 2.52h-1.47a2.56 2.56 0 00-.5-1.58 1.57 1.57 0 00-1.26-.52 1.75 1.75 0 00-1.53.68 3.85 3.85 0 00-.52 2.23v1.22a4.23 4.23 0 00.49 2.37 1.82 1.82 0 001.6.69zM755.48 962.27a3.45 3.45 0 01-2.72-1.06 4.57 4.57 0 01-1-3.11V957a5.34 5.34 0 01.93-3.33 3.07 3.07 0 012.59-1.21 3 3 0 012.49 1.06 5.41 5.41 0 01.85 3.32v1h-5.31v.16a3.43 3.43 0 00.58 2.22 2 2 0 001.65.69 2.6 2.6 0 001.21-.26 2.85 2.85 0 001-.82l.81 1a3.52 3.52 0 01-3.08 1.44zm-.17-8.52a1.62 1.62 0 00-1.43.66 3.93 3.93 0 00-.53 2.06h3.74v-.21a3.65 3.65 0 00-.48-1.93 1.51 1.51 0 00-1.3-.58zM769.53 962.09a3.47 3.47 0 01-.2-1 2.47 2.47 0 01-2.11 1.21 2.74 2.74 0 01-2-.72 2.8 2.8 0 01-.72-2 2.88 2.88 0 011-2.3 4 4 0 012.7-.87h1.14v-1a1.62 1.62 0 00-.38-1.21 1.6 1.6 0 00-1.15-.36 1.57 1.57 0 00-1.14.41 1.41 1.41 0 00-.44 1.06h-1.56a2.58 2.58 0 01.43-1.39 3.07 3.07 0 011.16-1 3.53 3.53 0 011.63-.38 3.12 3.12 0 012.22.72 2.84 2.84 0 01.78 2.12v4.8a5.41 5.41 0 00.3 1.9v.14zm-.65-10.92h-1.4l-2.27-2.59h2zm-1.42 9.69a2 2 0 001.08-.32 2 2 0 00.76-.79v-2.27h-.88a2.93 2.93 0 00-1.75.5 1.59 1.59 0 00-.64 1.34 1.7 1.7 0 00.33 1.17 1.41 1.41 0 001.1.37zM779.21 957.08v5h-1.61V949.3h4.08a3.66 3.66 0 012.8 1.07 3.94 3.94 0 011 2.84 3.88 3.88 0 01-1 2.84 3.73 3.73 0 01-2.74 1zm0-1.37h2.47a2.08 2.08 0 001.64-.65 2.68 2.68 0 00.57-1.84 2.79 2.79 0 00-.59-1.85 2 2 0 00-1.62-.69h-2.47zM792.15 962.09a3.47 3.47 0 01-.2-1 2.46 2.46 0 01-2.11 1.21 2.76 2.76 0 01-2-.72 2.8 2.8 0 01-.72-2 2.91 2.91 0 011-2.3 4 4 0 012.7-.87h1.14v-1a1.62 1.62 0 00-.37-1.21 1.65 1.65 0 00-1.16-.36 1.58 1.58 0 00-1.14.41 1.41 1.41 0 00-.44 1.06h-1.55a2.5 2.5 0 01.43-1.39 2.92 2.92 0 011.16-1 3.49 3.49 0 011.62-.38 3.09 3.09 0 012.22.72 2.84 2.84 0 01.78 2.12v4.8a5.92 5.92 0 00.3 1.9v.14zm-2.07-1.23a2.09 2.09 0 001.09-.32 2 2 0 00.75-.79v-2.27H791a2.9 2.9 0 00-1.74.5 1.57 1.57 0 00-.65 1.34 1.7 1.7 0 00.33 1.17 1.43 1.43 0 001.14.37zM799.81 954a3.92 3.92 0 00-.71-.06 1.72 1.72 0 00-1.67 1.31v6.8h-1.55v-9.51h1.51v1a1.92 1.92 0 011.76-1.14 1.43 1.43 0 01.62.12zM803.16 950.06a1 1 0 01-.22.66 1 1 0 01-1.33 0 1 1 0 01-.22-.66 1 1 0 01.22-.67.81.81 0 01.66-.27.79.79 0 01.66.28 1 1 0 01.23.66zm-.13 12h-1.55v-9.51H803zM810.1 959.66a1.16 1.16 0 00-.38-.86 5.54 5.54 0 00-1.46-.84 10 10 0 01-1.77-.89 2.64 2.64 0 01-.77-.84 2.32 2.32 0 01-.25-1.12 2.47 2.47 0 01.85-1.93 3.44 3.44 0 014.39 0 2.72 2.72 0 01.85 2.07H810a1.5 1.5 0 00-.43-1.09 1.45 1.45 0 00-1.1-.45 1.52 1.52 0 00-1.07.35 1.2 1.2 0 00-.4.95 1 1 0 00.29.76 5 5 0 001.38.77 6.86 6.86 0 012.33 1.36 2.26 2.26 0 01.63 1.64 2.52 2.52 0 01-.86 2 3.86 3.86 0 01-4.69-.11 2.8 2.8 0 01-.92-2.16h1.56a1.79 1.79 0 00.48 1.24 1.82 1.82 0 001.29.44 1.79 1.79 0 001.18-.34 1.21 1.21 0 00.43-.95zM817.77 956.9a14.53 14.53 0 01.63-4.33 11.4 11.4 0 011.76-3.56 6 6 0 011.34-1.36l.31 1.08a7.29 7.29 0 00-1.73 3 15.22 15.22 0 00-.74 4.52v.75a15.8 15.8 0 00.87 5.46 7.68 7.68 0 001.61 2.76l-.31 1a6.52 6.52 0 01-1.64-1.8 13.29 13.29 0 01-2.1-7.52zM826.85 962.27a3.45 3.45 0 01-2.72-1.06 4.52 4.52 0 01-1-3.11V957a5.34 5.34 0 01.93-3.33 3.07 3.07 0 012.59-1.21 3 3 0 012.49 1.06 5.55 5.55 0 01.85 3.32v1h-5.31v.16a3.5 3.5 0 00.57 2.22 2.05 2.05 0 001.66.69 2.6 2.6 0 001.21-.26 2.94 2.94 0 001-.82l.81 1a3.54 3.54 0 01-3.08 1.44zm-.17-8.52a1.64 1.64 0 00-1.44.66 3.93 3.93 0 00-.52 2.06h3.74v-.21a3.54 3.54 0 00-.49-1.93 1.48 1.48 0 00-1.29-.58zM833.35 952.58v1a2.77 2.77 0 012.31-1.2c1.68 0 2.54 1.12 2.56 3.37v6.31h-1.55v-6.24a2.58 2.58 0 00-.37-1.59 1.35 1.35 0 00-1.12-.47 1.55 1.55 0 00-1 .39 2.7 2.7 0 00-.75 1v6.9h-1.55v-9.51zM848 960.94a1.63 1.63 0 001.23-.48 1.91 1.91 0 00.51-1.36h1.47a3.22 3.22 0 01-1 2.27 3.08 3.08 0 01-2.24.9 3.32 3.32 0 01-2.7-1.11 5.06 5.06 0 01-.93-3.31v-1.05a5 5 0 01.93-3.27 3.27 3.27 0 012.69-1.12 3 3 0 012.31.92 3.75 3.75 0 01.91 2.52h-1.47a2.56 2.56 0 00-.5-1.58 1.56 1.56 0 00-1.25-.52 1.77 1.77 0 00-1.54.68 3.85 3.85 0 00-.52 2.23v1.22a4.21 4.21 0 00.5 2.37 1.8 1.8 0 001.6.69zM852.7 956.9a5 5 0 011-3.28 3.55 3.55 0 015.31 0 4.82 4.82 0 011 3.2v1a5 5 0 01-1 3.27 3.28 3.28 0 01-2.67 1.2 3.32 3.32 0 01-2.65-1.17 4.85 4.85 0 01-1-3.16zm1.56.9a4 4 0 00.57 2.3 1.78 1.78 0 001.55.84c1.37 0 2.08-1 2.12-3v-1.04a4 4 0 00-.58-2.31 1.84 1.84 0 00-3.09 0 4.08 4.08 0 00-.57 2.3zM866.91 961.26a2.68 2.68 0 01-2.26 1 2.28 2.28 0 01-1.95-.89 4.41 4.41 0 01-.67-2.6v-6.2h1.55v6.09c0 1.48.45 2.22 1.34 2.22a2 2 0 002-1.27v-7h1.55v9.51H867zM874.69 954a3.88 3.88 0 00-.7-.06 1.7 1.7 0 00-1.67 1.31v6.8h-1.56v-9.51h1.51v1a1.94 1.94 0 011.77-1.14 1.38 1.38 0 01.61.12zM880.86 959.66a1.16 1.16 0 00-.38-.86 5.54 5.54 0 00-1.48-.8 10.81 10.81 0 01-1.77-.89 2.64 2.64 0 01-.77-.84 2.32 2.32 0 01-.25-1.12 2.47 2.47 0 01.85-1.93 3.46 3.46 0 014.4 0 2.75 2.75 0 01.84 2.07h-1.55a1.5 1.5 0 00-.43-1.09 1.45 1.45 0 00-1.1-.45 1.52 1.52 0 00-1.07.35 1.22 1.22 0 00-.39.95 1 1 0 00.28.76 5 5 0 001.38.77 6.86 6.86 0 012.35 1.32 2.26 2.26 0 01.63 1.64 2.52 2.52 0 01-.86 2 3.36 3.36 0 01-2.28.74 3.41 3.41 0 01-2.41-.85 2.8 2.8 0 01-.92-2.16h1.56a1.75 1.75 0 00.49 1.24 2.14 2.14 0 002.46.1 1.18 1.18 0 00.42-.95zM887.79 957a13.52 13.52 0 01-1.76 6.93 7 7 0 01-2 2.31l-.31-1a7.61 7.61 0 001.79-3.24 16.54 16.54 0 00.69-4.79v-.32a15.42 15.42 0 00-1.1-6 7.28 7.28 0 00-1.38-2.26l.31-1a6.87 6.87 0 011.87 2.14 13.59 13.59 0 011.89 7.23z"/>
      </g>
    </g>
  </g>
  <g id="_2019" data-name="2019">
    <path id="Tracé-2" data-name="Tracé" class="cls-5" d="M542 690v162.26l20.45 20.17 20.45-20.17V690l-20.45 20.62z"/>
    <path id="Maison-2" data-name="Maison" class="cls-2" d="M571.64 779.44l-8.78-8.11a1.3 1.3 0 00-1.73 0l-1.84 1.7H557a1.54 1.54 0 00-1.54 1.54v2l-3.09 2.86a1.09 1.09 0 00-.36.81 1 1 0 00.11.46 1.22 1.22 0 001.12.68h1.12v7.8a1.38 1.38 0 00.48 1 1.62 1.62 0 001.09.41h12.16a1.62 1.62 0 001.09-.41 1.38 1.38 0 00.48-1v-7.8h1.12a1.22 1.22 0 001.12-.68 1 1 0 00.11-.46 1.11 1.11 0 00-.36-.81"/>
    <g id="_2019-2" data-name="2019" class="cls-3">
      <g class="cls-3">
        <path class="cls-5" d="M626.46 795.68H607v-3.87l9.2-9.8a23 23 0 002.8-3.62 5.73 5.73 0 00.91-2.93 4.31 4.31 0 00-1-3 3.43 3.43 0 00-2.73-1.09 3.72 3.72 0 00-3 1.32 5.19 5.19 0 00-1.1 3.47h-5.68a9.3 9.3 0 011.24-4.75 8.83 8.83 0 013.51-3.37 10.68 10.68 0 015.13-1.22 10.08 10.08 0 016.83 2.11 7.47 7.47 0 012.43 6 9.51 9.51 0 01-1.09 4.29 23.9 23.9 0 01-3.75 5.1l-6.47 6.82h12.23zM647.9 783.92c0 3.93-.82 6.94-2.44 9a9.76 9.76 0 01-14.26 0q-2.46-3.06-2.52-8.79V779q0-6 2.47-9a9.77 9.77 0 0114.23 0c1.64 2 2.48 5 2.52 8.78zm-5.65-5.75a10.45 10.45 0 00-1-5.15 3.27 3.27 0 00-3-1.62 3.2 3.2 0 00-2.94 1.54 9.75 9.75 0 00-1 4.8v6.92a11 11 0 00.95 5.17 3.21 3.21 0 003 1.69 3.18 3.18 0 003-1.62 10.64 10.64 0 001-5zM664.26 795.68h-5.65v-21.76l-6.74 2.08v-4.59l11.78-4.22h.61zM685.54 784.31a7.11 7.11 0 01-5.16 2.17 7.6 7.6 0 01-6-2.59 10.21 10.21 0 01-2.27-7 11 11 0 011.22-5.13 9 9 0 013.41-3.63 9.42 9.42 0 014.92-1.3 9 9 0 015 1.41 9.25 9.25 0 013.4 4 14.44 14.44 0 011.23 6v2.09q0 7.11-3.53 11.17t-10 4.33h-1.39v-4.7h1.25q7.32-.24 7.92-6.82zm-3.77-2.15a3.93 3.93 0 002.35-.7 4.67 4.67 0 001.5-1.7v-2.32a7.78 7.78 0 00-1.1-4.46 3.4 3.4 0 00-2.93-1.58 3.29 3.29 0 00-2.79 1.6 6.57 6.57 0 00-1.09 3.89 6.43 6.43 0 001.06 3.82 3.46 3.46 0 003 1.45z"/>
      </g>
    </g>
    <g class="cls-3">
      <path class="cls-4" d="M105.24 790.64v-12.8h3.05a4.4 4.4 0 013.48 1.4 5.75 5.75 0 011.24 3.94v2.15a5.61 5.61 0 01-1.26 3.92 4.63 4.63 0 01-3.64 1.39zm1.61-11.42v10h1.29a3 3 0 002.48-1 4.61 4.61 0 00.8-2.89v-2.27a4.62 4.62 0 00-.78-3 2.87 2.87 0 00-2.35-.95zM118.7 790.81a3.47 3.47 0 01-2.73-1.06 4.56 4.56 0 01-1-3.1v-1.15a5.43 5.43 0 01.92-3.34 3.08 3.08 0 012.59-1.21A3 3 0 01121 782a5.48 5.48 0 01.84 3.32v1h-5.31v.22a3.47 3.47 0 00.58 2.22 2 2 0 001.66.7 2.68 2.68 0 001.2-.26 3 3 0 001-.83l.81 1a3.51 3.51 0 01-3.08 1.44zm-.18-8.52a1.63 1.63 0 00-1.43.66 3.93 3.93 0 00-.53 2.06h3.75v-.21a3.63 3.63 0 00-.49-1.93 1.51 1.51 0 00-1.3-.58zm.76-5.15h2l-2.36 2.58h-1.31zM126.31 788.27l1.8-7.14h1.58l-2.82 9.51h-1.16l-2.85-9.51h1.58zM134.6 790.81a3.47 3.47 0 01-2.73-1.06 4.56 4.56 0 01-1-3.1v-1.15a5.37 5.37 0 01.92-3.34 3.07 3.07 0 012.59-1.21 3 3 0 012.5 1.06 5.48 5.48 0 01.84 3.32v1h-5.31v.22a3.41 3.41 0 00.58 2.22 2 2 0 001.66.7 2.71 2.71 0 001.2-.26 3 3 0 001-.83l.81 1a3.51 3.51 0 01-3.06 1.43zm-.18-8.52a1.63 1.63 0 00-1.42.71 3.93 3.93 0 00-.53 2.06h3.75v-.21a3.63 3.63 0 00-.49-1.93 1.51 1.51 0 00-1.31-.63zM141.3 790.64h-1.55v-13.5h1.55zM143.42 785.44a5 5 0 011-3.28 3.28 3.28 0 012.66-1.21 3.33 3.33 0 012.66 1.18 4.88 4.88 0 011 3.21v1a5 5 0 01-1 3.27 3.59 3.59 0 01-5.33 0 4.91 4.91 0 01-1-3.16zm1.56.9a4.07 4.07 0 00.57 2.31 1.8 1.8 0 001.55.84c1.38 0 2.08-1 2.12-3v-1.07a4 4 0 00-.58-2.31 1.84 1.84 0 00-3.09 0 4.1 4.1 0 00-.57 2.3zM159.66 786.34a5.73 5.73 0 01-.82 3.37 2.7 2.7 0 01-2.3 1.1 2.54 2.54 0 01-2.2-1.08v4.56h-1.55v-13.16h1.41l.08 1a2.49 2.49 0 012.24-1.23 2.68 2.68 0 012.34 1.09 5.83 5.83 0 01.8 3.26zm-1.55-.89a4.51 4.51 0 00-.49-2.36 1.75 1.75 0 00-1.59-.76 1.81 1.81 0 00-1.69 1.12v4.95a1.84 1.84 0 001.71 1.09 1.72 1.72 0 001.55-.77 4.38 4.38 0 00.51-2.32zM168.53 786.34a5.73 5.73 0 01-.81 3.37 2.7 2.7 0 01-2.3 1.1 2.57 2.57 0 01-2.21-1.08v4.56h-1.54v-13.16h1.4l.08 1a2.5 2.5 0 012.24-1.23 2.66 2.66 0 012.34 1.09 5.75 5.75 0 01.8 3.26zm-1.54-.89a4.41 4.41 0 00-.5-2.36 1.72 1.72 0 00-1.58-.76 1.84 1.84 0 00-1.7 1.12v4.95a1.86 1.86 0 001.72 1.09 1.72 1.72 0 001.55-.77 4.38 4.38 0 00.51-2.32zM173.94 790.81a3.47 3.47 0 01-2.73-1.06 4.56 4.56 0 01-1-3.1v-1.15a5.37 5.37 0 01.92-3.34 3.07 3.07 0 012.59-1.21 3 3 0 012.5 1.06 5.48 5.48 0 01.84 3.32v1h-5.31v.22a3.41 3.41 0 00.58 2.22 2 2 0 001.66.7 2.71 2.71 0 001.2-.26 3 3 0 001-.83l.81 1a3.51 3.51 0 01-3.06 1.43zm-.18-8.52a1.63 1.63 0 00-1.43.66 3.93 3.93 0 00-.53 2.06h3.75v-.21a3.73 3.73 0 00-.49-1.93 1.51 1.51 0 00-1.3-.58zM180.43 781.13v.88a2.8 2.8 0 012.29-1.06 2.27 2.27 0 012.23 1.38 2.81 2.81 0 012.49-1.38c1.75 0 2.65 1.09 2.69 3.28v6.41h-1.55v-6.26a2.57 2.57 0 00-.37-1.54 1.61 1.61 0 00-2.39 0 2.5 2.5 0 00-.51 1.38v6.38h-1.56v-6.33c0-1.32-.55-2-1.61-2a1.69 1.69 0 00-1.66 1.18v7.13H179v-9.51zM195.91 790.81a3.45 3.45 0 01-2.72-1.06 4.51 4.51 0 01-1-3.1v-1.15a5.37 5.37 0 01.93-3.34 3.05 3.05 0 012.58-1.21 3 3 0 012.5 1.06 5.48 5.48 0 01.84 3.32v1h-5.3v.22a3.48 3.48 0 00.57 2.22 2 2 0 001.66.7 2.73 2.73 0 001.21-.26 3.22 3.22 0 001-.83l.81 1a3.54 3.54 0 01-3.08 1.43zm-.18-8.52a1.63 1.63 0 00-1.43.66 4 4 0 00-.53 2.06h3.75v-.21a3.63 3.63 0 00-.49-1.93 1.5 1.5 0 00-1.3-.58zM202.41 781.13v1a2.75 2.75 0 012.31-1.21c1.68 0 2.53 1.12 2.56 3.37v6.32h-1.55v-6.25a2.6 2.6 0 00-.37-1.59 1.35 1.35 0 00-1.12-.47 1.55 1.55 0 00-1 .39 2.78 2.78 0 00-.75 1v6.91h-1.55v-9.51zM211.69 778.82v2.31h1.43v1.25h-1.43v5.91a1.63 1.63 0 00.18.85.68.68 0 00.63.29 2 2 0 00.63-.1v1.31a3.59 3.59 0 01-1.08.17 1.65 1.65 0 01-1.41-.66 3.12 3.12 0 01-.48-1.86v-5.91h-1.45v-1.25h1.45v-2.31zM218.76 785.45a5.81 5.81 0 01.82-3.35 2.73 2.73 0 012.36-1.15 2.44 2.44 0 012.13 1.11v-4.92h1.56v13.5h-1.43l-.08-1a2.46 2.46 0 01-2.19 1.19 2.71 2.71 0 01-2.31-1.14 5.5 5.5 0 01-.86-3.24zm1.56.88a4.57 4.57 0 00.47 2.35 1.69 1.69 0 001.55.75 1.85 1.85 0 001.73-1.16v-4.8a1.87 1.87 0 00-1.72-1.14 1.69 1.69 0 00-1.55.75 4.37 4.37 0 00-.48 2.31zM232.87 789.8a2.66 2.66 0 01-2.26 1 2.26 2.26 0 01-2-.89 4.39 4.39 0 01-.67-2.6v-6.19h1.55v6.08c0 1.48.44 2.22 1.33 2.22a1.94 1.94 0 001.95-1.26v-7h1.56v9.51h-1.43zM242.31 781.13v.88a2.82 2.82 0 012.3-1.06 2.24 2.24 0 012.22 1.38 2.83 2.83 0 012.5-1.38c1.75 0 2.64 1.09 2.69 3.28v6.41h-1.52v-6.26a2.57 2.57 0 00-.37-1.54 1.44 1.44 0 00-1.25-.51 1.38 1.38 0 00-1.14.55 2.5 2.5 0 00-.51 1.38v6.38h-1.56v-6.33c0-1.32-.56-2-1.61-2a1.68 1.68 0 00-1.66 1.18v7.13h-1.55v-9.51zM257.79 790.81a3.46 3.46 0 01-2.73-1.06 4.61 4.61 0 01-1-3.1v-1.15a5.37 5.37 0 01.93-3.34 3.07 3.07 0 012.59-1.21 3 3 0 012.5 1.06 5.48 5.48 0 01.84 3.32v1h-5.31v.22a3.41 3.41 0 00.58 2.22 2 2 0 001.65.7 2.73 2.73 0 001.21-.26 3 3 0 001-.83l.81 1a3.51 3.51 0 01-3.07 1.43zm-.18-8.52a1.62 1.62 0 00-1.43.66 3.93 3.93 0 00-.53 2.06h3.74v-.21a3.65 3.65 0 00-.48-1.93 1.51 1.51 0 00-1.3-.58zm.76-5.15h2l-2.37 2.58h-1.31zM264.85 778.82v2.31h1.43v1.25h-1.43v5.91a1.53 1.53 0 00.19.85.67.67 0 00.63.29 2 2 0 00.62-.1v1.31a3.7 3.7 0 01-1.09.17 1.63 1.63 0 01-1.4-.66 3.12 3.12 0 01-.49-1.86v-5.91h-1.45v-1.25h1.45v-2.31zM269.93 778.6a1 1 0 01-.22.66 1 1 0 01-1.33 0 1 1 0 01-.21-.66 1 1 0 01.21-.66.79.79 0 01.66-.28.82.82 0 01.67.28 1 1 0 01.22.66zm-.12 12h-1.56v-9.51h1.56zM275.65 790.81a3.45 3.45 0 01-2.72-1.06 4.56 4.56 0 01-1-3.1v-1.15a5.37 5.37 0 01.93-3.34 3.07 3.07 0 012.59-1.21A3 3 0 01278 782a5.48 5.48 0 01.85 3.32v1h-5.31v.22a3.48 3.48 0 00.57 2.22 2.06 2.06 0 001.66.7 2.73 2.73 0 001.21-.26 3.1 3.1 0 001-.83l.81 1a3.53 3.53 0 01-3.14 1.44zm-.17-8.52a1.65 1.65 0 00-1.48.71 3.93 3.93 0 00-.52 2.06h3.74v-.21a3.54 3.54 0 00-.49-1.93 1.48 1.48 0 00-1.25-.63zM284.61 782.59a3.14 3.14 0 00-.7-.07 1.7 1.7 0 00-1.67 1.31v6.81h-1.56v-9.51h1.51v1A1.93 1.93 0 01284 781a1.38 1.38 0 01.61.12zM290 785.45a5.81 5.81 0 01.82-3.35 2.73 2.73 0 012.36-1.15 2.44 2.44 0 012.13 1.11v-4.92h1.56v13.5h-1.43l-.08-1a2.44 2.44 0 01-2.18 1.19 2.72 2.72 0 01-2.32-1.14 5.5 5.5 0 01-.86-3.24zm1.56.88a4.57 4.57 0 00.47 2.35 1.71 1.71 0 001.55.75 1.85 1.85 0 001.73-1.16v-4.8a1.87 1.87 0 00-1.72-1.14 1.69 1.69 0 00-1.55.75 4.47 4.47 0 00-.48 2.31zM299.41 781.44l-.87-.63a4.8 4.8 0 00.71-2.39v-1.28h1.54v1.18a4.42 4.42 0 01-.39 1.71 3.89 3.89 0 01-.99 1.41zM305.59 790.81a3.48 3.48 0 01-2.73-1.06 4.56 4.56 0 01-1-3.1v-1.15a5.43 5.43 0 01.92-3.34 3.08 3.08 0 012.59-1.21 3 3 0 012.5 1.06 5.48 5.48 0 01.84 3.32v1h-5.31v.22a3.47 3.47 0 00.58 2.22 2 2 0 001.66.7 2.68 2.68 0 001.2-.26 3.13 3.13 0 001-.83l.8 1a3.51 3.51 0 01-3.05 1.43zm-.18-8.52a1.63 1.63 0 00-1.41.71 3.93 3.93 0 00-.53 2.06h3.75v-.21a3.63 3.63 0 00-.49-1.93 1.51 1.51 0 00-1.32-.63zm.76-5.15h2l-2.36 2.58h-1.31zM313.92 789.49a1.64 1.64 0 001.24-.48 2.05 2.05 0 00.51-1.37h1.47a3.26 3.26 0 01-1 2.27 3.1 3.1 0 01-2.25.9 3.29 3.29 0 01-2.69-1.11 5 5 0 01-.93-3.31v-1a5.09 5.09 0 01.92-3.28 3.28 3.28 0 012.69-1.12 3 3 0 012.32.92 3.81 3.81 0 01.91 2.53h-1.47a2.59 2.59 0 00-.51-1.59 1.55 1.55 0 00-1.25-.52 1.78 1.78 0 00-1.54.68 4 4 0 00-.51 2.24v1.21a4.23 4.23 0 00.49 2.37 1.81 1.81 0 001.6.66zM318.61 785.44a5 5 0 011-3.28 3.28 3.28 0 012.66-1.21 3.32 3.32 0 012.66 1.18 4.88 4.88 0 011 3.21v1a4.93 4.93 0 01-1 3.27 3.58 3.58 0 01-5.32 0 4.79 4.79 0 01-1-3.16zm1.55.9a4 4 0 00.58 2.31 1.78 1.78 0 001.55.84c1.37 0 2.08-1 2.12-3v-1.07a4.11 4.11 0 00-.58-2.31 1.81 1.81 0 00-1.56-.84 1.76 1.76 0 00-1.53.84 4 4 0 00-.58 2.3zM329.43 781.13l.05 1a2.75 2.75 0 012.31-1.21c1.68 0 2.53 1.12 2.56 3.37v6.32h-1.55v-6.25a2.67 2.67 0 00-.37-1.59 1.36 1.36 0 00-1.12-.47 1.59 1.59 0 00-1.05.39 2.88 2.88 0 00-.74 1v6.91H328v-9.51zM336.35 785.44a5 5 0 011-3.28 3.55 3.55 0 015.31 0 4.88 4.88 0 011 3.21v1a5 5 0 01-1 3.27 3.59 3.59 0 01-5.33 0 4.85 4.85 0 01-1-3.16zm1.56.9a4.07 4.07 0 00.57 2.31 1.8 1.8 0 001.55.84c1.37 0 2.08-1 2.12-3v-1.07a4 4 0 00-.58-2.31 1.84 1.84 0 00-3.09 0 4.1 4.1 0 00-.57 2.3zM347.18 781.13v.88a2.82 2.82 0 012.3-1.06 2.24 2.24 0 012.22 1.38 2.83 2.83 0 012.5-1.38c1.75 0 2.65 1.09 2.69 3.28v6.41h-1.55v-6.26a2.57 2.57 0 00-.37-1.54 1.44 1.44 0 00-1.25-.51 1.38 1.38 0 00-1.14.55 2.5 2.5 0 00-.51 1.38v6.38h-1.56v-6.33c0-1.32-.56-2-1.61-2a1.68 1.68 0 00-1.66 1.18v7.13h-1.55v-9.51zM361.06 778.6a1 1 0 01-.22.66 1 1 0 01-1.33 0 1 1 0 01-.22-.66 1 1 0 01.22-.66.79.79 0 01.66-.28.82.82 0 01.66.28 1 1 0 01.23.66zm-.13 12h-1.55v-9.51h1.55zM368 788.2a1.16 1.16 0 00-.38-.86 5.54 5.54 0 00-1.46-.84 9.7 9.7 0 01-1.77-.89 2.64 2.64 0 01-.77-.84 2.32 2.32 0 01-.25-1.12 2.48 2.48 0 01.85-1.93 3.46 3.46 0 014.4 0 2.75 2.75 0 01.84 2.07h-1.55a1.52 1.52 0 00-.43-1.09 1.45 1.45 0 00-1.1-.45 1.57 1.57 0 00-1.07.35 1.2 1.2 0 00-.39 1 1.06 1.06 0 00.28.77 5.31 5.31 0 001.38.76 6.86 6.86 0 012.35 1.32 2.26 2.26 0 01.63 1.64 2.52 2.52 0 01-.86 2 3.86 3.86 0 01-4.7-.09 2.8 2.8 0 01-.92-2.16h1.56a1.87 1.87 0 003 1.34 1.18 1.18 0 00.36-.98zM373.62 778.82v2.31h1.43v1.25h-1.43v5.91a1.63 1.63 0 00.18.85.67.67 0 00.63.29 2 2 0 00.63-.1v1.31a3.59 3.59 0 01-1.08.17 1.65 1.65 0 01-1.41-.66 3.12 3.12 0 01-.48-1.86v-5.91h-1.45v-1.25h1.45v-2.31zM380.3 790.81a3.46 3.46 0 01-2.73-1.06 4.61 4.61 0 01-1-3.1v-1.15a5.37 5.37 0 01.93-3.34 3.07 3.07 0 012.59-1.21 3 3 0 012.5 1.06 5.48 5.48 0 01.84 3.32v1h-5.31v.22a3.41 3.41 0 00.58 2.22 2 2 0 001.65.7 2.73 2.73 0 001.21-.26 3 3 0 001-.83l.81 1a3.51 3.51 0 01-3.07 1.43zm-.18-8.52a1.63 1.63 0 00-1.43.66 3.93 3.93 0 00-.53 2.06h3.74v-.21a3.65 3.65 0 00-.48-1.93 1.51 1.51 0 00-1.3-.58zM389.12 785.45a5.73 5.73 0 01.82-3.35 2.73 2.73 0 012.36-1.1 2.44 2.44 0 012.13 1.11v-4.92H396v13.5h-1.42l-.08-1a2.46 2.46 0 01-2.19 1.19 2.71 2.71 0 01-2.31-1.14 5.5 5.5 0 01-.86-3.24zm1.56.88a4.47 4.47 0 00.47 2.35 1.69 1.69 0 001.55.75 1.85 1.85 0 001.73-1.16v-4.8a1.87 1.87 0 00-1.72-1.14 1.69 1.69 0 00-1.55.75 4.37 4.37 0 00-.48 2.31zM401.78 790.81a3.46 3.46 0 01-2.73-1.06 4.61 4.61 0 01-1-3.1v-1.15a5.37 5.37 0 01.93-3.34 3.07 3.07 0 012.62-1.16 3 3 0 012.5 1.06 5.48 5.48 0 01.84 3.32v1h-5.31v.22a3.41 3.41 0 00.58 2.22 2 2 0 001.65.7 2.73 2.73 0 001.21-.26 3 3 0 001-.83l.81 1a3.51 3.51 0 01-3.1 1.38zm-.18-8.52a1.63 1.63 0 00-1.43.66 3.93 3.93 0 00-.53 2.06h3.74v-.21a3.65 3.65 0 00-.48-1.93 1.51 1.51 0 00-1.3-.58zM412.6 790.64h-1.55v-13.5h1.55zM419.94 790.64a3.56 3.56 0 01-.2-1 2.46 2.46 0 01-2.11 1.21 2.76 2.76 0 01-2-.72 2.8 2.8 0 01-.72-2.05 2.91 2.91 0 011-2.3 4 4 0 012.7-.87h1.14v-1a1.59 1.59 0 00-2.67-1.15 1.39 1.39 0 00-.44 1h-1.55a2.5 2.5 0 01.43-1.39 3 3 0 011.16-1 3.49 3.49 0 011.62-.38 3 3 0 012.22.73 2.8 2.8 0 01.78 2.11v4.8a6 6 0 00.3 1.91v.14zm-2.07-1.24a2.09 2.09 0 001.09-.32 1.89 1.89 0 00.75-.79V786h-.87a2.91 2.91 0 00-1.75.5 1.58 1.58 0 00-.64 1.34 1.71 1.71 0 00.32 1.17 1.39 1.39 0 001.1.39zM431.1 789.49a1.66 1.66 0 001.24-.48 2.05 2.05 0 00.51-1.37h1.46a3.22 3.22 0 01-1 2.27 3.08 3.08 0 01-2.24.9 3.32 3.32 0 01-2.7-1.11 5 5 0 01-.92-3.31v-1a5 5 0 01.92-3.28 3.27 3.27 0 012.69-1.12 3 3 0 012.31.92 3.76 3.76 0 01.91 2.53h-1.46a2.66 2.66 0 00-.51-1.59 1.56 1.56 0 00-1.25-.52 1.77 1.77 0 00-1.54.68 3.94 3.94 0 00-.52 2.24v1.21a4.21 4.21 0 00.5 2.37 1.8 1.8 0 001.6.66zM435.78 785.44a5 5 0 011-3.28 3.55 3.55 0 015.31 0 4.83 4.83 0 011 3.21v1a5 5 0 01-1 3.27 3.59 3.59 0 01-5.33 0 4.85 4.85 0 01-1-3.16zm1.56.9a4.07 4.07 0 00.57 2.31 1.8 1.8 0 001.55.84c1.37 0 2.08-1 2.12-3v-1.07a4 4 0 00-.58-2.31 1.84 1.84 0 00-3.09 0 4.1 4.1 0 00-.57 2.3zM446.61 781.13v1A2.78 2.78 0 01449 781c1.69 0 2.54 1.12 2.56 3.37v6.32H450v-6.25a2.59 2.59 0 00-.38-1.59 1.35 1.35 0 00-1.12-.47 1.57 1.57 0 00-1 .39 2.66 2.66 0 00-.74 1v6.91h-1.56v-9.51zM458.47 788.2a1.15 1.15 0 00-.37-.86 5.72 5.72 0 00-1.46-.84 9.36 9.36 0 01-1.77-.89 2.52 2.52 0 01-.77-.84 2.32 2.32 0 01-.26-1.12 2.48 2.48 0 01.85-1.93 3.13 3.13 0 012.17-.77 3.09 3.09 0 012.23.81 2.75 2.75 0 01.84 2.07h-1.54a1.56 1.56 0 00-.43-1.09 1.47 1.47 0 00-1.1-.45 1.58 1.58 0 00-1.08.35 1.24 1.24 0 00-.39 1 1.06 1.06 0 00.28.77 5.5 5.5 0 001.38.76 6.92 6.92 0 012.36 1.32 2.29 2.29 0 01.62 1.64 2.51 2.51 0 01-.85 2 3.88 3.88 0 01-4.7-.11 2.83 2.83 0 01-.92-2.16h1.57a1.69 1.69 0 00.48 1.24 1.74 1.74 0 001.28.45 1.77 1.77 0 001.18-.35 1.18 1.18 0 00.4-1zM464.09 778.82v2.31h1.43v1.25h-1.43v5.91a1.53 1.53 0 00.19.85.67.67 0 00.63.29 2 2 0 00.62-.1v1.31a3.59 3.59 0 01-1.08.17 1.63 1.63 0 01-1.4-.66 3.12 3.12 0 01-.49-1.86v-5.91h-1.45v-1.25h1.45v-2.31zM471.3 782.59a3.17 3.17 0 00-.71-.07 1.72 1.72 0 00-1.67 1.31v6.81h-1.55v-9.51h1.51v1a1.92 1.92 0 011.76-1.14 1.43 1.43 0 01.62.12zM477.7 789.8a2.66 2.66 0 01-2.26 1 2.26 2.26 0 01-1.95-.89 4.31 4.31 0 01-.67-2.6v-6.19h1.55v6.08c0 1.48.44 2.22 1.33 2.22a2 2 0 001.95-1.26v-7h1.56v9.51h-1.48zM484.85 789.49a1.64 1.64 0 001.24-.48 2.05 2.05 0 00.51-1.37h1.47a3.26 3.26 0 01-1 2.27 3.1 3.1 0 01-2.25.9 3.29 3.29 0 01-2.69-1.11 5 5 0 01-.93-3.31v-1a5.09 5.09 0 01.92-3.28 3.28 3.28 0 012.69-1.12 3 3 0 012.32.92 3.81 3.81 0 01.91 2.53h-1.44a2.59 2.59 0 00-.51-1.59 1.55 1.55 0 00-1.25-.52 1.78 1.78 0 00-1.54.68 4 4 0 00-.51 2.24v1.21a4.23 4.23 0 00.49 2.37 1.81 1.81 0 001.57.66zM491.9 778.82v2.31h1.43v1.25h-1.43v5.91a1.63 1.63 0 00.18.85.7.7 0 00.64.29 2 2 0 00.62-.1v1.31a3.59 3.59 0 01-1.08.17 1.63 1.63 0 01-1.4-.66 3 3 0 01-.49-1.86v-5.91h-1.47v-1.25h1.45v-2.31zM497 778.6a1 1 0 01-.22.66 1 1 0 01-1.33 0 1 1 0 01-.22-.66 1 1 0 01.22-.66.79.79 0 01.66-.28.8.8 0 01.66.28 1 1 0 01.23.66zm-.12 12h-1.58v-9.51h1.56zM499 785.44a5 5 0 011-3.28 3.28 3.28 0 012.66-1.21 3.32 3.32 0 012.66 1.18 4.88 4.88 0 011 3.21v1a4.93 4.93 0 01-1 3.27 3.58 3.58 0 01-5.32 0 4.85 4.85 0 01-1-3.16zm1.56.9a4 4 0 00.58 2.31 1.78 1.78 0 001.55.84c1.37 0 2.07-1 2.12-3v-1.07a4.11 4.11 0 00-.58-2.31 1.81 1.81 0 00-1.56-.84 1.76 1.76 0 00-1.53.84 4 4 0 00-.58 2.3zM509.8 781.13l.05 1a2.75 2.75 0 012.31-1.21c1.68 0 2.53 1.12 2.56 3.37v6.32h-1.55v-6.25a2.59 2.59 0 00-.38-1.59 1.34 1.34 0 00-1.12-.47 1.58 1.58 0 00-1 .39 2.88 2.88 0 00-.74 1v6.91h-1.56v-9.51z"/>
    </g>
  </g>
  <g id="_2017" data-name="2017">
    <path id="Tracé-3" data-name="Tracé" class="cls-6" d="M542 517.92v162.26l20.45 20.17 20.45-20.17V517.92l-20.45 20.62z"/>
    <path id="Maison-3" data-name="Maison" class="cls-2" d="M571.64 607.36l-8.78-8.11a1.3 1.3 0 00-1.73 0l-1.84 1.7H557a1.54 1.54 0 00-1.54 1.54v2l-3.09 2.86a1.09 1.09 0 00-.36.81 1.12 1.12 0 00.11.47 1.22 1.22 0 001.12.67h1.12v7.8a1.38 1.38 0 00.48 1 1.62 1.62 0 001.09.41h12.16a1.62 1.62 0 001.09-.41 1.38 1.38 0 00.48-1v-7.8h1.12a1.22 1.22 0 001.12-.67 1.12 1.12 0 00.11-.47 1.13 1.13 0 00-.36-.81"/>
    <g id="_2017-2" data-name="2017" class="cls-3">
      <g class="cls-3">
        <path class="cls-6" d="M452.2 623.6h-19.49v-3.87l9.2-9.8a22.89 22.89 0 002.8-3.61 5.78 5.78 0 00.91-2.93 4.32 4.32 0 00-1-3 3.45 3.45 0 00-2.73-1.09 3.73 3.73 0 00-3 1.32 5.27 5.27 0 00-1.1 3.47h-5.66a9.33 9.33 0 011.24-4.75 8.74 8.74 0 013.5-3.37 10.69 10.69 0 015.14-1.22 10.1 10.1 0 016.82 2.11 7.44 7.44 0 012.44 6 9.57 9.57 0 01-1.1 4.3 24.13 24.13 0 01-3.75 5.09l-6.42 6.8h12.2zM473.64 611.84c0 3.94-.81 6.94-2.44 9a9.77 9.77 0 01-14.26.06q-2.46-3.07-2.52-8.79v-5.21c0-4 .83-7 2.47-9a9.77 9.77 0 0114.23 0c1.64 2 2.48 5 2.52 8.78zm-5.64-5.75a10.44 10.44 0 00-1-5.15 3.26 3.26 0 00-3-1.62 3.22 3.22 0 00-2.94 1.54 9.76 9.76 0 00-1 4.8v6.92a11 11 0 00.94 5.17 3.23 3.23 0 003 1.69 3.17 3.17 0 003-1.62 10.75 10.75 0 001-5zM490 623.6h-5.64v-21.76l-6.74 2.09v-4.59l11.78-4.22h.6zM517.42 598.31l-11 25.29h-6l11-23.89h-14.08v-4.55h20.08z"/>
      </g>
    </g>
    <g id="Texte-2" data-name="Texte" class="cls-3">
      <g class="cls-3">
        <path class="cls-4" d="M615.7 611.84a6.43 6.43 0 01-1.11 4 3.82 3.82 0 01-3.18 1.41 3.87 3.87 0 01-3.12-1.37 6.14 6.14 0 01-1.19-3.88v-2.41a6.43 6.43 0 011.13-4 3.8 3.8 0 013.17-1.46 3.85 3.85 0 013.15 1.4 6.24 6.24 0 011.15 4zm-1.61-2.24a5.52 5.52 0 00-.66-3 2.54 2.54 0 00-4 0 5.18 5.18 0 00-.69 2.95v2.29a5.44 5.44 0 00.68 3 2.56 2.56 0 004 .08 5.29 5.29 0 00.67-2.91zM622.82 616.28a2.65 2.65 0 01-2.26 1 2.26 2.26 0 01-1.95-.89 4.39 4.39 0 01-.67-2.6v-6.19h1.55v6.08c0 1.48.45 2.22 1.34 2.22a2 2 0 001.95-1.26v-7h1.55v9.51h-1.47zM629.37 614.75l1.8-7.14h1.58l-2.82 9.51h-1.16l-2.85-9.51h1.58zM637.66 617.29a3.47 3.47 0 01-2.73-1.06 4.56 4.56 0 01-1-3.1V612a5.42 5.42 0 01.92-3.33 3.08 3.08 0 012.59-1.21 3 3 0 012.5 1.06 5.48 5.48 0 01.84 3.32v1h-5.31v.22a3.47 3.47 0 00.58 2.22 2 2 0 001.66.69 2.76 2.76 0 001.21-.25 3.08 3.08 0 001-.83l.81 1a3.51 3.51 0 01-3.07 1.4zm-.18-8.52a1.63 1.63 0 00-1.43.66 3.93 3.93 0 00-.53 2.06h3.75v-.21a3.63 3.63 0 00-.49-1.93 1.51 1.51 0 00-1.3-.58zM646.61 609.07a3.08 3.08 0 00-.7-.07 1.71 1.71 0 00-1.67 1.31v6.81h-1.55v-9.51h1.51v1a2 2 0 011.77-1.14 1.43 1.43 0 01.62.12zM650.64 605.3v2.31h1.43v1.25h-1.43v5.91a1.63 1.63 0 00.18.85.7.7 0 00.64.29 2 2 0 00.62-.1v1.31a3.59 3.59 0 01-1.08.17 1.63 1.63 0 01-1.4-.66 3 3 0 01-.49-1.86v-5.91h-1.45v-1.25h1.45v-2.31zM658.77 616.28a2.66 2.66 0 01-2.26 1 2.26 2.26 0 01-2-.89 4.39 4.39 0 01-.67-2.6v-6.19h1.55v6.08c0 1.48.44 2.22 1.33 2.22a2 2 0 002-1.26v-7h1.55v9.51h-1.47zM666.55 609.07a3.17 3.17 0 00-.71-.07 1.72 1.72 0 00-1.67 1.31v6.81h-1.55v-9.51h1.51v1a1.92 1.92 0 011.76-1.14 1.4 1.4 0 01.62.12zM671.33 617.29a3.48 3.48 0 01-2.73-1.06 4.56 4.56 0 01-1-3.1V612a5.42 5.42 0 01.92-3.33 3.08 3.08 0 012.59-1.21 3 3 0 012.5 1.06 5.48 5.48 0 01.84 3.32v1h-5.31v.22a3.47 3.47 0 00.58 2.22 2 2 0 001.66.69 2.68 2.68 0 001.2-.25 3.13 3.13 0 001-.83l.8 1a3.51 3.51 0 01-3.05 1.4zm-.18-8.52a1.63 1.63 0 00-1.43.66 3.93 3.93 0 00-.53 2.06h3.75v-.21a3.63 3.63 0 00-.49-1.93 1.5 1.5 0 00-1.3-.58zM680.15 611.93a5.81 5.81 0 01.82-3.35 2.73 2.73 0 012.36-1.15 2.44 2.44 0 012.13 1.11v-4.92H687v13.5h-1.43l-.08-1a2.44 2.44 0 01-2.18 1.19 2.72 2.72 0 01-2.32-1.14 5.57 5.57 0 01-.86-3.24zm1.56.88a4.57 4.57 0 00.47 2.35 1.71 1.71 0 001.55.75 1.85 1.85 0 001.73-1.16V610a1.87 1.87 0 00-1.72-1.14 1.69 1.69 0 00-1.55.75 4.47 4.47 0 00-.48 2.31zM692.81 617.29a3.48 3.48 0 01-2.73-1.06 4.56 4.56 0 01-1-3.1V612a5.42 5.42 0 01.92-3.33 3.08 3.08 0 012.59-1.21 3 3 0 012.5 1.06 5.48 5.48 0 01.84 3.32v1h-5.3v.22a3.48 3.48 0 00.57 2.22 2 2 0 001.66.69 2.76 2.76 0 001.21-.25 3.1 3.1 0 001-.83l.8 1a3.51 3.51 0 01-3.06 1.4zm-.18-8.52a1.63 1.63 0 00-1.43.66 3.93 3.93 0 00-.53 2.06h3.75v-.21a3.63 3.63 0 00-.49-1.93 1.5 1.5 0 00-1.3-.58zM703.64 617.12h-1.56v-13.5h1.56zM706.28 607.92l-.87-.63a4.7 4.7 0 00.71-2.39v-1.28h1.54v1.18a4.42 4.42 0 01-.39 1.71 3.89 3.89 0 01-.99 1.41zM714 617.12a3.19 3.19 0 01-.21-1 2.46 2.46 0 01-2.11 1.21 2.72 2.72 0 01-2-.72 2.76 2.76 0 01-.73-2.05 2.89 2.89 0 011-2.3 4 4 0 012.69-.87h1.15v-1a1.34 1.34 0 00-1.53-1.57 1.65 1.65 0 00-1.15.41 1.42 1.42 0 00-.43 1.06h-1.56a2.5 2.5 0 01.43-1.39 3 3 0 011.16-1 3.53 3.53 0 011.63-.38 3.08 3.08 0 012.22.73 2.83 2.83 0 01.77 2.11v4.8a6 6 0 00.3 1.91v.14zm-2-1.24a2.06 2.06 0 001.09-.32 1.92 1.92 0 00.76-.79v-2.27h-.88a2.93 2.93 0 00-1.75.5 1.56 1.56 0 00-.64 1.34 1.76 1.76 0 00.32 1.17 1.4 1.4 0 001.1.37zM717.45 611.93a5.79 5.79 0 01.81-3.36 2.72 2.72 0 012.37-1.14 2.42 2.42 0 012.2 1.24l.08-1.06h1.41v9.59a3.76 3.76 0 01-.91 2.72 3.35 3.35 0 01-2.52.94 4.41 4.41 0 01-1.58-.35 3.27 3.27 0 01-1.31-.85l.63-1.08a3 3 0 002.14.95c1.29 0 2-.7 2-2.11v-1.24a2.44 2.44 0 01-2.14 1.11 2.69 2.69 0 01-2.3-1.11 5.43 5.43 0 01-.87-3.19zm1.56.88a4.57 4.57 0 00.47 2.35 1.68 1.68 0 001.54.75 1.84 1.84 0 001.74-1.18V610a1.88 1.88 0 00-1.72-1.17 1.71 1.71 0 00-1.55.75 4.57 4.57 0 00-.48 2.31zM730 617.29a3.45 3.45 0 01-2.72-1.06 4.51 4.51 0 01-1-3.1V612a5.36 5.36 0 01.93-3.33 3.06 3.06 0 012.59-1.21 3 3 0 012.49 1.06 5.55 5.55 0 01.85 3.32v1h-5.31v.22a3.48 3.48 0 00.57 2.22 2.05 2.05 0 001.66.69 2.73 2.73 0 001.21-.25 3.1 3.1 0 001-.83l.81 1a3.54 3.54 0 01-3.08 1.4zm-.17-8.52a1.64 1.64 0 00-1.44.66 3.93 3.93 0 00-.52 2.06h3.74v-.21a3.54 3.54 0 00-.49-1.93 1.48 1.48 0 00-1.26-.58zM736.53 607.61v1a2.77 2.77 0 012.31-1.2c1.68 0 2.54 1.12 2.56 3.37v6.32h-1.55v-6.25a2.58 2.58 0 00-.37-1.59 1.35 1.35 0 00-1.12-.47 1.55 1.55 0 00-1 .39 2.78 2.78 0 00-.75 1v6.91h-1.55v-9.51zM747.07 616a1.64 1.64 0 001.24-.47 2.05 2.05 0 00.51-1.37h1.47a3.26 3.26 0 01-1 2.27 3.08 3.08 0 01-2.25.9 3.32 3.32 0 01-2.69-1.11 5 5 0 01-.93-3.31v-1a5 5 0 01.93-3.28 3.26 3.26 0 012.68-1.12 3 3 0 012.32.92 3.81 3.81 0 01.91 2.53h-1.47a2.59 2.59 0 00-.5-1.59 1.57 1.57 0 00-1.26-.52 1.75 1.75 0 00-1.53.68 3.85 3.85 0 00-.52 2.23v1.22a4.23 4.23 0 00.49 2.37 1.82 1.82 0 001.6.65zM755.48 617.29a3.45 3.45 0 01-2.72-1.06 4.56 4.56 0 01-1-3.1V612a5.36 5.36 0 01.93-3.33 3.07 3.07 0 012.59-1.21 3 3 0 012.49 1.06 5.41 5.41 0 01.85 3.32v1h-5.31v.22a3.41 3.41 0 00.58 2.22 2 2 0 001.65.69 2.73 2.73 0 001.21-.25 3 3 0 001-.83l.81 1a3.52 3.52 0 01-3.08 1.4zm-.17-8.52a1.62 1.62 0 00-1.43.66 3.93 3.93 0 00-.53 2.06h3.74v-.21a3.65 3.65 0 00-.48-1.93 1.51 1.51 0 00-1.3-.58zM764.31 611.93a5.73 5.73 0 01.82-3.35 2.71 2.71 0 012.36-1.15 2.44 2.44 0 012.13 1.11v-4.92h1.55v13.5h-1.42l-.08-1a2.46 2.46 0 01-2.19 1.19 2.7 2.7 0 01-2.31-1.14 5.5 5.5 0 01-.86-3.24zm1.55.88a4.46 4.46 0 00.48 2.35 1.69 1.69 0 001.55.75 1.85 1.85 0 001.73-1.16V610a1.88 1.88 0 00-1.73-1.14 1.68 1.68 0 00-1.54.75 4.46 4.46 0 00-.49 2.31zM777 617.29a3.45 3.45 0 01-2.72-1.06 4.61 4.61 0 01-1-3.1V612a5.36 5.36 0 01.93-3.33 3.07 3.07 0 012.59-1.21 3 3 0 012.5 1.06 5.48 5.48 0 01.84 3.32v1h-5.31v.22a3.41 3.41 0 00.58 2.22 2 2 0 001.65.69 2.73 2.73 0 001.21-.25 3 3 0 001-.83l.81 1a3.52 3.52 0 01-3.08 1.4zm-.17-8.52a1.62 1.62 0 00-1.43.66 3.93 3.93 0 00-.53 2.06h3.74v-.21a3.65 3.65 0 00-.48-1.93 1.51 1.51 0 00-1.34-.58zM793.46 605.7h-3.36v11.42h-1.61V605.7h-3.36v-1.38h8.33zM793.94 611.92a5 5 0 011-3.28 3.28 3.28 0 012.66-1.21 3.32 3.32 0 012.66 1.18 4.83 4.83 0 011 3.21v1a4.93 4.93 0 01-1 3.27 3.58 3.58 0 01-5.32 0 4.79 4.79 0 01-1-3.16zm1.55.9a4 4 0 00.58 2.31 1.78 1.78 0 001.55.83c1.37 0 2.08-1 2.12-3v-1.07a4.11 4.11 0 00-.58-2.31 1.81 1.81 0 00-1.56-.84 1.76 1.76 0 00-1.53.84 4 4 0 00-.58 2.3zM808.15 616.28a2.66 2.66 0 01-2.26 1 2.26 2.26 0 01-1.95-.89 4.39 4.39 0 01-.67-2.6v-6.19h1.55v6.08c0 1.48.44 2.22 1.33 2.22a1.94 1.94 0 002-1.26v-7h1.56v9.51h-1.48zM813.68 617.12h-1.56v-13.5h1.56zM815.79 611.92a5 5 0 011-3.28 3.28 3.28 0 012.66-1.21 3.32 3.32 0 012.66 1.18 4.88 4.88 0 011 3.21v1a4.93 4.93 0 01-1 3.27 3.58 3.58 0 01-5.32 0 4.85 4.85 0 01-1-3.16zm1.56.9a4 4 0 00.58 2.31 1.78 1.78 0 001.55.83c1.37 0 2.07-1 2.12-3v-1.07a4.11 4.11 0 00-.58-2.31 1.81 1.81 0 00-1.56-.84 1.76 1.76 0 00-1.53.84 4 4 0 00-.58 2.3zM830 616.28a2.66 2.66 0 01-2.26 1 2.26 2.26 0 01-2-.89 4.31 4.31 0 01-.67-2.6v-6.19h1.55v6.08c0 1.48.44 2.22 1.33 2.22a1.94 1.94 0 002-1.26v-7h1.56v9.51H830zM838.48 614.68a1.16 1.16 0 00-.38-.86 5.54 5.54 0 00-1.46-.84 10 10 0 01-1.77-.89 2.64 2.64 0 01-.77-.84 2.32 2.32 0 01-.25-1.12 2.48 2.48 0 01.85-1.93 3.44 3.44 0 014.39 0 2.72 2.72 0 01.85 2.07h-1.55a1.52 1.52 0 00-.43-1.09 1.45 1.45 0 00-1.1-.45 1.52 1.52 0 00-1.07.35 1.23 1.23 0 00-.4 1 1 1 0 00.29.76 5 5 0 001.38.77 6.86 6.86 0 012.35 1.32 2.26 2.26 0 01.63 1.64 2.52 2.52 0 01-.86 2 3.86 3.86 0 01-4.69-.11 2.8 2.8 0 01-.92-2.16h1.56a1.88 1.88 0 003 1.34 1.21 1.21 0 00.35-.96zM845.46 617.29a3.47 3.47 0 01-2.73-1.06 4.56 4.56 0 01-1-3.1V612a5.42 5.42 0 01.92-3.33 3.07 3.07 0 012.59-1.21 3 3 0 012.5 1.06 5.48 5.48 0 01.84 3.32v1h-5.31v.22a3.47 3.47 0 00.58 2.22 2 2 0 001.66.69 2.68 2.68 0 001.2-.25 3 3 0 001-.83l.81 1a3.51 3.51 0 01-3.06 1.4zm-.18-8.52a1.63 1.63 0 00-1.43.66 3.93 3.93 0 00-.53 2.06h3.75v-.21a3.63 3.63 0 00-.49-1.93 1.51 1.51 0 00-1.3-.58z"/>
      </g>
    </g>
  </g>
  <g id="_2011" data-name="2011">
    <path id="Tracé-4" data-name="Tracé" class="cls-7" d="M542 346v162.26l20.45 20.17 20.45-20.17V346l-20.45 20.62z"/>
    <path id="Maison-4" data-name="Maison" class="cls-2" d="M571.64 435.44l-8.78-8.11a1.3 1.3 0 00-1.73 0l-1.84 1.7H557a1.54 1.54 0 00-1.54 1.54v2l-3.09 2.86a1.09 1.09 0 00-.36.81 1 1 0 00.11.46 1.22 1.22 0 001.12.68h1.12v7.8a1.38 1.38 0 00.48 1 1.62 1.62 0 001.09.41h12.16a1.62 1.62 0 001.09-.41 1.38 1.38 0 00.48-1v-7.8h1.12a1.22 1.22 0 001.12-.68 1 1 0 00.11-.46 1.11 1.11 0 00-.36-.81"/>
    <g id="_2011-2" data-name="2011" class="cls-3">
      <g class="cls-3">
        <path class="cls-7" d="M626.46 451.68H607v-3.87l9.2-9.8a23 23 0 002.8-3.62 5.73 5.73 0 00.91-2.93 4.31 4.31 0 00-1-3 3.43 3.43 0 00-2.73-1.09 3.72 3.72 0 00-3 1.32 5.19 5.19 0 00-1.1 3.47h-5.68a9.3 9.3 0 011.24-4.75 8.83 8.83 0 013.51-3.37 10.68 10.68 0 015.13-1.22 10.08 10.08 0 016.83 2.11 7.47 7.47 0 012.43 6 9.51 9.51 0 01-1.09 4.29 23.9 23.9 0 01-3.75 5.1l-6.47 6.82h12.23zM647.9 439.92c0 3.93-.82 6.94-2.44 9a9.76 9.76 0 01-14.26.05q-2.46-3.06-2.52-8.79V435q0-6 2.47-9a9.77 9.77 0 0114.23 0c1.64 2 2.48 5 2.52 8.78zm-5.65-5.75a10.45 10.45 0 00-1-5.15 3.27 3.27 0 00-3-1.62 3.2 3.2 0 00-2.94 1.54 9.75 9.75 0 00-1 4.8v6.92a11 11 0 00.95 5.17 3.21 3.21 0 003 1.69 3.18 3.18 0 003-1.62 10.64 10.64 0 001-5zM664.26 451.68h-5.65v-21.76l-6.74 2.08v-4.59l11.78-4.22h.61zM686.05 451.68h-5.65v-21.76l-6.74 2.08v-4.59l11.78-4.22h.61z"/>
      </g>
    </g>
    <g class="cls-3">
      <path class="cls-4" d="M208.46 441.36a6.37 6.37 0 01-1.12 4 3.8 3.8 0 01-3.17 1.41 3.85 3.85 0 01-3.12-1.37 6.08 6.08 0 01-1.19-3.89v-2.41a6.36 6.36 0 011.13-4 4.2 4.2 0 016.31-.06 6.24 6.24 0 011.16 4zm-1.61-2.24a5.52 5.52 0 00-.66-3 2.54 2.54 0 00-4 0 5.18 5.18 0 00-.69 2.95v2.29a5.36 5.36 0 00.68 3 2.26 2.26 0 002 1 2.29 2.29 0 002-.95 5.38 5.38 0 00.67-2.91zM215.58 445.8a2.66 2.66 0 01-2.26 1 2.26 2.26 0 01-1.95-.89 4.39 4.39 0 01-.67-2.6v-6.19h1.55v6.08c0 1.48.44 2.22 1.33 2.22a2 2 0 002-1.26v-7h1.55v9.51h-1.47zM222.13 444.27l1.8-7.14h1.58l-2.82 9.51h-1.16l-2.86-9.51h1.59zM230.42 446.81a3.46 3.46 0 01-2.73-1.06 4.61 4.61 0 01-1-3.1v-1.15a5.37 5.37 0 01.93-3.34 3.07 3.07 0 012.59-1.21 3 3 0 012.5 1.06 5.48 5.48 0 01.84 3.32v1h-5.31v.22a3.41 3.41 0 00.58 2.22 2 2 0 001.65.7 2.73 2.73 0 001.21-.26 3 3 0 001-.83l.81 1a3.51 3.51 0 01-3.07 1.43zm-.18-8.52a1.63 1.63 0 00-1.43.66 3.93 3.93 0 00-.53 2.06H232v-.21a3.65 3.65 0 00-.48-1.93 1.51 1.51 0 00-1.28-.58zM239.37 438.59a3.08 3.08 0 00-.7-.07 1.71 1.71 0 00-1.67 1.31v6.81h-1.56v-9.51H237v1a2 2 0 011.77-1.14 1.38 1.38 0 01.61.12zM243.4 434.82v2.31h1.43v1.25h-1.43v5.91a1.63 1.63 0 00.18.85.69.69 0 00.63.29 2 2 0 00.63-.1v1.31a3.59 3.59 0 01-1.08.17 1.65 1.65 0 01-1.41-.66 3.12 3.12 0 01-.48-1.86v-5.91h-1.47v-1.25h1.45v-2.31zM251.53 445.8a2.66 2.66 0 01-2.26 1 2.26 2.26 0 01-2-.89 4.39 4.39 0 01-.67-2.6v-6.19h1.55v6.08c0 1.48.44 2.22 1.33 2.22a1.94 1.94 0 001.95-1.26v-7H253v9.51h-1.48zM259.31 438.59a3.23 3.23 0 00-.71-.07 1.72 1.72 0 00-1.67 1.31v6.81h-1.55v-9.51h1.51v1a1.92 1.92 0 011.76-1.14 1.43 1.43 0 01.62.12zM264.09 446.81a3.47 3.47 0 01-2.73-1.06 4.56 4.56 0 01-1-3.1v-1.15a5.37 5.37 0 01.92-3.34 3.07 3.07 0 012.59-1.21 3 3 0 012.5 1.06 5.48 5.48 0 01.84 3.32v1h-5.31v.22a3.41 3.41 0 00.58 2.22 2 2 0 001.65.7 2.73 2.73 0 001.21-.26 3 3 0 001-.83l.81 1a3.51 3.51 0 01-3.06 1.43zm-.18-8.52a1.63 1.63 0 00-1.43.66A3.93 3.93 0 00262 441h3.75v-.21a3.73 3.73 0 00-.49-1.93 1.51 1.51 0 00-1.35-.57zM272.91 441.45a5.73 5.73 0 01.82-3.35 2.73 2.73 0 012.36-1.15 2.44 2.44 0 012.13 1.11v-4.92h1.56v13.5h-1.43l-.08-1a2.46 2.46 0 01-2.19 1.19 2.71 2.71 0 01-2.31-1.14 5.5 5.5 0 01-.86-3.24zm1.56.88a4.47 4.47 0 00.47 2.35 1.69 1.69 0 001.55.75 1.85 1.85 0 001.73-1.16v-4.8a1.87 1.87 0 00-1.72-1.14 1.69 1.69 0 00-1.55.75 4.37 4.37 0 00-.48 2.31zM285.57 446.81a3.47 3.47 0 01-2.73-1.06 4.56 4.56 0 01-1-3.1v-1.15a5.37 5.37 0 01.92-3.34 3.07 3.07 0 012.59-1.21 3 3 0 012.5 1.06 5.48 5.48 0 01.84 3.32v1h-5.31v.22a3.41 3.41 0 00.58 2.22 2 2 0 001.66.7 2.71 2.71 0 001.2-.26 3 3 0 001-.83l.81 1a3.51 3.51 0 01-3.06 1.43zm-.18-8.52a1.63 1.63 0 00-1.39.71 3.93 3.93 0 00-.53 2.06h3.75v-.21a3.73 3.73 0 00-.49-1.93 1.51 1.51 0 00-1.34-.63zM296.4 446.64h-1.56v-13.5h1.56zM299 437.44l-.87-.63a4.7 4.7 0 00.71-2.39v-1.28h1.54v1.18A4.42 4.42 0 01300 436a3.89 3.89 0 01-1 1.44zM306.79 446.64a3.56 3.56 0 01-.2-1 2.46 2.46 0 01-2.11 1.21 2.76 2.76 0 01-2-.72 2.8 2.8 0 01-.72-2 2.91 2.91 0 011-2.3 4 4 0 012.7-.87h1.14v-1a1.59 1.59 0 00-2.67-1.15 1.39 1.39 0 00-.44 1.05h-1.59a2.5 2.5 0 01.43-1.39 3 3 0 011.16-1 3.49 3.49 0 011.62-.38 3 3 0 012.22.73 2.8 2.8 0 01.78 2.11v4.8a6 6 0 00.3 1.91v.14zm-2.07-1.24a2.09 2.09 0 001.09-.32 1.89 1.89 0 00.75-.79V442h-.87a2.91 2.91 0 00-1.75.5 1.58 1.58 0 00-.65 1.34 1.7 1.7 0 00.33 1.17 1.39 1.39 0 001.1.39zM310.21 441.45a5.79 5.79 0 01.81-3.36 2.72 2.72 0 012.36-1.14 2.42 2.42 0 012.21 1.24l.08-1.06h1.41v9.59a3.8 3.8 0 01-.91 2.72 3.31 3.31 0 01-2.52.94 4.36 4.36 0 01-1.58-.35 3.27 3.27 0 01-1.31-.85l.63-1.08a3 3 0 002.14.95c1.29 0 2-.7 2-2.11v-1.24a2.44 2.44 0 01-2.14 1.11 2.71 2.71 0 01-2.31-1.11 5.5 5.5 0 01-.86-3.19zm1.56.88a4.47 4.47 0 00.47 2.35 1.68 1.68 0 001.54.75 1.86 1.86 0 001.74-1.18v-4.75a1.88 1.88 0 00-1.72-1.17 1.69 1.69 0 00-1.55.75 4.37 4.37 0 00-.48 2.31zM322.79 446.81a3.48 3.48 0 01-2.73-1.06 4.56 4.56 0 01-1-3.1v-1.15a5.43 5.43 0 01.92-3.34 3.08 3.08 0 012.59-1.21 3 3 0 012.5 1.06 5.48 5.48 0 01.84 3.32v1h-5.31v.22a3.47 3.47 0 00.58 2.22 2 2 0 001.66.7 2.68 2.68 0 001.2-.26 3.13 3.13 0 001-.83l.8 1a3.51 3.51 0 01-3.05 1.43zm-.18-8.52a1.63 1.63 0 00-1.43.66 3.93 3.93 0 00-.53 2.06h3.75v-.21a3.63 3.63 0 00-.49-1.93 1.51 1.51 0 00-1.3-.58zM329.28 437.13l.05 1a2.75 2.75 0 012.31-1.21c1.68 0 2.53 1.12 2.56 3.37v6.32h-1.55v-6.25a2.6 2.6 0 00-.37-1.59 1.36 1.36 0 00-1.12-.47 1.59 1.59 0 00-1.05.39 2.88 2.88 0 00-.74 1v6.91h-1.55v-9.51zM339.83 445.49a1.64 1.64 0 001.24-.48 2.05 2.05 0 00.51-1.37h1.47a3.26 3.26 0 01-1 2.27 3.1 3.1 0 01-2.25.9 3.29 3.29 0 01-2.69-1.11 5 5 0 01-.93-3.31v-1a5.09 5.09 0 01.92-3.28 3.28 3.28 0 012.69-1.12 3 3 0 012.32.92 3.81 3.81 0 01.91 2.53h-1.47a2.59 2.59 0 00-.51-1.59 1.55 1.55 0 00-1.25-.52 1.78 1.78 0 00-1.54.68 4 4 0 00-.51 2.24v1.21a4.23 4.23 0 00.49 2.37 1.81 1.81 0 001.6.66zM348.24 446.81a3.45 3.45 0 01-2.72-1.06 4.51 4.51 0 01-1-3.1v-1.15a5.37 5.37 0 01.93-3.34 3.07 3.07 0 012.59-1.21 3 3 0 012.49 1.06 5.55 5.55 0 01.85 3.32v1h-5.28v.22a3.48 3.48 0 00.57 2.22 2.06 2.06 0 001.66.7 2.73 2.73 0 001.21-.26 3.1 3.1 0 001-.83l.81 1a3.54 3.54 0 01-3.11 1.43zm-.17-8.52a1.64 1.64 0 00-1.44.66 3.93 3.93 0 00-.52 2.06h3.74v-.21a3.54 3.54 0 00-.49-1.93 1.48 1.48 0 00-1.29-.58zM363.58 443.29h-4.33l-1 3.35h-1.65l4.12-12.8h1.38l4.13 12.8h-1.65zm-3.9-1.38h3.49l-1.75-5.82zM372.52 445.8a2.66 2.66 0 01-2.26 1 2.26 2.26 0 01-1.95-.89 4.39 4.39 0 01-.67-2.6v-6.19h1.55v6.08c0 1.48.44 2.22 1.33 2.22a1.94 1.94 0 002-1.26v-7H374v9.51h-1.48zM379.07 444.27l1.8-7.14h1.58l-2.82 9.51h-1.16l-2.86-9.51h1.58zM387.35 446.81a3.45 3.45 0 01-2.72-1.06 4.56 4.56 0 01-1-3.1v-1.15a5.37 5.37 0 01.93-3.34 3.07 3.07 0 012.59-1.21 3 3 0 012.49 1.06 5.48 5.48 0 01.85 3.32v1h-5.31v.22a3.48 3.48 0 00.57 2.22 2.06 2.06 0 001.66.7 2.73 2.73 0 001.21-.26 3 3 0 001-.83l.81 1a3.53 3.53 0 01-3.08 1.43zm-.17-8.52a1.62 1.62 0 00-1.43.66 3.83 3.83 0 00-.53 2.06H389v-.21a3.54 3.54 0 00-.49-1.93 1.48 1.48 0 00-1.33-.58zM396.31 438.59a3.14 3.14 0 00-.7-.07 1.7 1.7 0 00-1.67 1.31v6.81h-1.56v-9.51h1.51v1a1.93 1.93 0 011.77-1.14 1.38 1.38 0 01.61.12zM397.38 441.45a5.79 5.79 0 01.81-3.36 2.72 2.72 0 012.36-1.14 2.42 2.42 0 012.21 1.24l.08-1.06h1.41v9.59a3.8 3.8 0 01-.91 2.72 3.31 3.31 0 01-2.52.94 4.36 4.36 0 01-1.58-.35 3.27 3.27 0 01-1.31-.85l.63-1.08a3 3 0 002.14.95c1.29 0 2-.7 2-2.11v-1.24a2.44 2.44 0 01-2.14 1.11 2.71 2.71 0 01-2.31-1.11 5.5 5.5 0 01-.86-3.19zm1.56.88a4.47 4.47 0 00.47 2.35 1.68 1.68 0 001.54.75 1.86 1.86 0 001.74-1.18v-4.75a1.88 1.88 0 00-1.72-1.17 1.69 1.69 0 00-1.55.75 4.37 4.37 0 00-.48 2.31zM408 437.13v1a2.75 2.75 0 012.31-1.21c1.68 0 2.54 1.12 2.56 3.37v6.32h-1.55v-6.25a2.6 2.6 0 00-.37-1.59 1.35 1.35 0 00-1.12-.47 1.55 1.55 0 00-1 .39 2.78 2.78 0 00-.75 1v6.91h-1.55v-9.51zM418.67 446.81a3.48 3.48 0 01-2.73-1.06 4.56 4.56 0 01-1-3.1v-1.15a5.43 5.43 0 01.92-3.34 3.08 3.08 0 012.59-1.21A3 3 0 01421 438a5.48 5.48 0 01.84 3.32v1h-5.31v.22a3.47 3.47 0 00.58 2.22 2 2 0 001.66.7 2.68 2.68 0 001.2-.26 3.13 3.13 0 001-.83l.8 1a3.51 3.51 0 01-3.1 1.44zm-.18-8.52a1.63 1.63 0 00-1.43.66 3.93 3.93 0 00-.53 2.06h3.75v-.21a3.63 3.63 0 00-.49-1.93 1.51 1.51 0 00-1.3-.58zM426.58 441.86H423v-1.32h3.63zM432.25 441.46H430v5.18h-1.62v-12.8H432a3.82 3.82 0 012.84 1 3.89 3.89 0 011 2.87 4 4 0 01-.52 2.07 3.3 3.3 0 01-1.48 1.33l2.48 5.44v.11h-1.74zm-2.25-1.38h2a2.1 2.1 0 001.61-.65 2.49 2.49 0 00.6-1.74c0-1.65-.74-2.47-2.23-2.47H430zM439.27 438.1a2.74 2.74 0 012.27-1.15c1.68 0 2.53 1.12 2.56 3.37v6.32h-1.55v-6.25a2.59 2.59 0 00-.38-1.59 1.34 1.34 0 00-1.12-.47 1.58 1.58 0 00-1 .39 2.88 2.88 0 00-.74 1v6.91h-1.56v-13.5h1.56zM446.08 441.44a5 5 0 011-3.28 3.28 3.28 0 012.66-1.21 3.33 3.33 0 012.66 1.18 4.88 4.88 0 011 3.21v1a5 5 0 01-1 3.27 3.59 3.59 0 01-5.33 0 4.91 4.91 0 01-1-3.16zm5.9-5.9v.09h-1.25l-1.05-1.49-1.06 1.49h-1.25v-.11l1.84-2.38h.92zm-4.34 6.8a4.07 4.07 0 00.57 2.31 1.8 1.8 0 001.55.84c1.38 0 2.08-1 2.12-3v-1.07a4 4 0 00-.58-2.31 1.84 1.84 0 00-3.09 0 4.1 4.1 0 00-.57 2.3zM456.91 437.13v1a2.78 2.78 0 012.32-1.21c1.68 0 2.53 1.12 2.55 3.37v6.32h-1.54v-6.25a2.59 2.59 0 00-.38-1.59 1.35 1.35 0 00-1.12-.47 1.58 1.58 0 00-1 .39 2.76 2.76 0 00-.74 1v6.91h-1.56v-9.51zM467.55 446.81a3.45 3.45 0 01-2.72-1.06 4.56 4.56 0 01-1-3.1v-1.15a5.37 5.37 0 01.93-3.34 3.07 3.07 0 012.59-1.21 3 3 0 012.49 1.06 5.48 5.48 0 01.85 3.32v1h-5.31v.22a3.48 3.48 0 00.57 2.22 2.06 2.06 0 001.66.7 2.73 2.73 0 001.21-.26 3 3 0 001-.83l.81 1a3.53 3.53 0 01-3.08 1.43zm-.17-8.52a1.62 1.62 0 00-1.38.71 3.83 3.83 0 00-.53 2.06h3.74v-.21a3.54 3.54 0 00-.49-1.93 1.48 1.48 0 00-1.34-.63zM475.46 441.86h-3.63v-1.32h3.63zM483.23 443.29h-4.32l-1 3.35h-1.66l4.13-12.8h1.38l4.13 12.8h-1.66zm-3.9-1.38h3.49l-1.75-5.82zM489.1 446.64h-1.56v-13.5h1.56zM498.41 442.34a5.73 5.73 0 01-.81 3.37 2.7 2.7 0 01-2.3 1.1 2.57 2.57 0 01-2.21-1.08v4.56h-1.54v-13.16H493l.08 1.05a2.5 2.5 0 012.24-1.23 2.66 2.66 0 012.34 1.09 5.75 5.75 0 01.8 3.26zm-1.54-.89a4.41 4.41 0 00-.5-2.36 1.73 1.73 0 00-1.58-.76 1.84 1.84 0 00-1.7 1.12v4.95a1.86 1.86 0 001.72 1.09 1.72 1.72 0 001.55-.77 4.38 4.38 0 00.51-2.32zM503.82 446.81a3.47 3.47 0 01-2.73-1.06 4.56 4.56 0 01-1-3.1v-1.15a5.37 5.37 0 01.92-3.34 3.07 3.07 0 012.59-1.21 3 3 0 012.5 1.06 5.48 5.48 0 01.84 3.32v1h-5.31v.22a3.41 3.41 0 00.58 2.22 2 2 0 001.66.7 2.71 2.71 0 001.2-.26 3 3 0 001-.83l.81 1a3.51 3.51 0 01-3.06 1.43zm-.18-8.52a1.63 1.63 0 00-1.43.66 3.93 3.93 0 00-.53 2.06h3.75v-.21a3.73 3.73 0 00-.49-1.93 1.51 1.51 0 00-1.3-.58zM513.47 444.2a1.16 1.16 0 00-.38-.86 5.54 5.54 0 00-1.46-.84 9.36 9.36 0 01-1.77-.89 2.64 2.64 0 01-.77-.84 2.32 2.32 0 01-.25-1.12 2.51 2.51 0 01.84-1.93 3.13 3.13 0 012.17-.77 3.07 3.07 0 012.23.81 2.72 2.72 0 01.85 2.07h-1.55a1.52 1.52 0 00-.43-1.09 1.45 1.45 0 00-1.1-.45 1.58 1.58 0 00-1.08.35 1.24 1.24 0 00-.39.95 1.06 1.06 0 00.29.77 5.37 5.37 0 001.37.76 6.92 6.92 0 012.36 1.32 2.25 2.25 0 01.62 1.64 2.51 2.51 0 01-.85 2 3.86 3.86 0 01-4.69-.11 2.81 2.81 0 01-.93-2.16h1.57a1.86 1.86 0 002.94 1.34 1.18 1.18 0 00.41-.95z"/>
    </g>
  </g>
  <g id="_2009" data-name="2009">
    <path id="Tracé-5" data-name="Tracé" class="cls-8" d="M542 174v162.26l20.45 20.17 20.45-20.17V174l-20.45 20.62z"/>
    <path id="Maison-5" data-name="Maison" class="cls-2" d="M571.64 263.44l-8.78-8.11a1.3 1.3 0 00-1.73 0l-1.84 1.7H557a1.54 1.54 0 00-1.54 1.54v2l-3.09 2.86a1.09 1.09 0 00-.36.81 1 1 0 00.11.46 1.22 1.22 0 001.12.68h1.12v7.8a1.38 1.38 0 00.48 1 1.62 1.62 0 001.09.41h12.16a1.62 1.62 0 001.09-.41 1.38 1.38 0 00.48-1v-7.8h1.12a1.22 1.22 0 001.12-.68 1 1 0 00.11-.46 1.11 1.11 0 00-.36-.81"/>
    <g id="_2009-2" data-name="2009" class="cls-3">
      <g class="cls-3">
        <path class="cls-8" d="M452.2 279.68h-19.49v-3.87l9.2-9.8a22.45 22.45 0 002.8-3.62 5.73 5.73 0 00.91-2.93 4.31 4.31 0 00-1-3 3.42 3.42 0 00-2.73-1.09 3.73 3.73 0 00-3 1.32 5.25 5.25 0 00-1.1 3.47h-5.66a9.3 9.3 0 011.24-4.75 8.74 8.74 0 013.5-3.37 10.69 10.69 0 015.14-1.22 10.05 10.05 0 016.82 2.11 7.44 7.44 0 012.44 6 9.53 9.53 0 01-1.1 4.29 23.9 23.9 0 01-3.75 5.1l-6.42 6.81h12.2zM473.64 267.92q0 5.9-2.44 9a9.76 9.76 0 01-14.26.05q-2.46-3.06-2.52-8.79V263c0-4 .83-7 2.47-9a9.77 9.77 0 0114.23 0c1.64 2 2.48 5 2.52 8.78zm-5.64-5.75a10.44 10.44 0 00-1-5.15 3.26 3.26 0 00-3-1.62 3.2 3.2 0 00-2.94 1.54 9.76 9.76 0 00-1 4.8v6.92a11 11 0 00.94 5.17 3.23 3.23 0 003 1.69 3.17 3.17 0 003-1.62 10.75 10.75 0 001-5zM495.43 267.92q0 5.9-2.44 9a9.76 9.76 0 01-14.26.05q-2.46-3.06-2.52-8.79V263c0-4 .83-7 2.47-9a9.77 9.77 0 0114.23 0c1.64 2 2.48 5 2.52 8.78zm-5.64-5.75a10.44 10.44 0 00-1-5.15 3.27 3.27 0 00-3-1.62 3.2 3.2 0 00-2.94 1.54 9.76 9.76 0 00-1 4.8v6.92a11 11 0 00.94 5.17 3.23 3.23 0 003 1.69 3.17 3.17 0 003-1.62 10.75 10.75 0 001-5zM511.28 268.31a7.1 7.1 0 01-5.15 2.17 7.61 7.61 0 01-6-2.59 10.21 10.21 0 01-2.26-7 10.85 10.85 0 011.22-5.13 9 9 0 013.4-3.63 9.43 9.43 0 014.93-1.3 9 9 0 015 1.41 9.23 9.23 0 013.39 4 14.44 14.44 0 011.23 6v2.09q0 7.11-3.53 11.17t-10 4.33h-1.39v-4.7h1.25q7.31-.24 7.91-6.82zm-3.77-2.15a4 4 0 002.36-.7 4.73 4.73 0 001.49-1.7v-2.32a7.78 7.78 0 00-1.09-4.46 3.41 3.41 0 00-2.93-1.58 3.3 3.3 0 00-2.8 1.56 6.57 6.57 0 00-1.09 3.89 6.43 6.43 0 001.06 3.82 3.46 3.46 0 003 1.49z"/>
      </g>
    </g>
    <g id="Texte-3" data-name="Texte" class="cls-3">
      <g class="cls-3">
        <path class="cls-4" d="M611.25 268H609v5.18h-1.62V260.4H611a3.82 3.82 0 012.84 1 3.89 3.89 0 011 2.87 4 4 0 01-.52 2.07 3.3 3.3 0 01-1.48 1.33l2.47 5.44v.11h-1.73zm-2.25-1.36h2a2.1 2.1 0 001.61-.65 2.5 2.5 0 00.6-1.75c0-1.64-.74-2.46-2.23-2.46H609zM620.12 273.37a3.46 3.46 0 01-2.73-1.06 4.61 4.61 0 01-1-3.1v-1.16a5.34 5.34 0 01.93-3.33 3.07 3.07 0 012.59-1.21 3 3 0 012.5 1.06 5.48 5.48 0 01.84 3.32v1H618v.22a3.41 3.41 0 00.58 2.22 2 2 0 001.65.69 2.73 2.73 0 001.21-.25 3 3 0 001-.83l.81 1a3.51 3.51 0 01-3.13 1.43zm-.18-8.52a1.62 1.62 0 00-1.43.66 3.93 3.93 0 00-.53 2.06h3.74v-.21a3.65 3.65 0 00-.48-1.93 1.51 1.51 0 00-1.3-.58zM626.61 263.69v1a2.8 2.8 0 012.32-1.2c1.68 0 2.53 1.12 2.55 3.37v6.32H630V267a2.57 2.57 0 00-.38-1.59 1.35 1.35 0 00-1.12-.47 1.58 1.58 0 00-1 .39 2.68 2.68 0 00-.74 1v6.91h-1.56v-9.51zM637.16 272a1.66 1.66 0 001.24-.48 2 2 0 00.51-1.36h1.46a3.18 3.18 0 01-1 2.27 3.08 3.08 0 01-2.24.9 3.32 3.32 0 01-2.7-1.11 5.1 5.1 0 01-.92-3.31v-1.01a5 5 0 01.92-3.27 3.27 3.27 0 012.69-1.12 3 3 0 012.31.92 3.71 3.71 0 01.91 2.53h-1.46a2.63 2.63 0 00-.51-1.59 1.56 1.56 0 00-1.25-.52 1.77 1.77 0 00-1.54.68 3.93 3.93 0 00-.52 2.23V269a4.21 4.21 0 00.5 2.37 1.8 1.8 0 001.6.63zM641.84 268a5 5 0 011-3.28 3.28 3.28 0 012.66-1.21 3.33 3.33 0 012.66 1.18 4.88 4.88 0 011 3.21v1a5 5 0 01-1 3.27 3.58 3.58 0 01-5.32 0 4.85 4.85 0 01-1-3.16zm1.56.9a4.07 4.07 0 00.57 2.31 1.81 1.81 0 001.55.83c1.38 0 2.08-1 2.12-3V268a4 4 0 00-.58-2.31 1.84 1.84 0 00-3.09 0 4.1 4.1 0 00-.57 2.3zM652.67 263.69v1a2.8 2.8 0 012.32-1.2c1.68 0 2.53 1.12 2.55 3.37v6.32H656V267a2.57 2.57 0 00-.38-1.59 1.35 1.35 0 00-1.12-.47 1.58 1.58 0 00-1 .39 2.68 2.68 0 00-.74 1v6.91h-1.56v-9.51zM662 261.38v2.31h1.43v1.25H662v5.91a1.53 1.53 0 00.19.85.69.69 0 00.63.29 2 2 0 00.62-.1v1.31a3.7 3.7 0 01-1.09.17 1.63 1.63 0 01-1.4-.66 3.12 3.12 0 01-.49-1.86v-5.91H659v-1.25h1.45v-2.31zM669.16 265.14a3.88 3.88 0 00-.7-.06 1.7 1.7 0 00-1.67 1.31v6.81h-1.56v-9.51h1.51v1a1.92 1.92 0 011.76-1.14 1.4 1.4 0 01.62.12zM673.94 273.37a3.48 3.48 0 01-2.73-1.06 4.56 4.56 0 01-1-3.1v-1.16a5.34 5.34 0 01.93-3.33 3.05 3.05 0 012.58-1.21 3 3 0 012.5 1.06 5.48 5.48 0 01.84 3.32v1h-5.31v.22a3.47 3.47 0 00.58 2.22 2 2 0 001.67.67 2.76 2.76 0 001.21-.25 3.22 3.22 0 001-.83l.8 1a3.51 3.51 0 01-3.07 1.45zm-.18-8.52a1.63 1.63 0 00-1.43.66 3.93 3.93 0 00-.53 2.06h3.75v-.21a3.63 3.63 0 00-.49-1.93 1.5 1.5 0 00-1.3-.58zM688 273.2a3.63 3.63 0 01-.2-1 2.46 2.46 0 01-2.11 1.21 2.72 2.72 0 01-2-.72 2.76 2.76 0 01-.73-2 2.89 2.89 0 011-2.3 4 4 0 012.69-.87h1.15v-1a1.34 1.34 0 00-1.53-1.57 1.65 1.65 0 00-1.15.41 1.41 1.41 0 00-.44 1.06h-1.55a2.5 2.5 0 01.43-1.39 3 3 0 011.16-1 3.53 3.53 0 011.63-.38 3.12 3.12 0 012.22.72 2.87 2.87 0 01.77 2.12v4.8a5.92 5.92 0 00.3 1.9v.15zm-2.09-1.2a2.09 2.09 0 001.09-.32 1.92 1.92 0 00.76-.79v-2.27h-.88a2.93 2.93 0 00-1.75.5 1.56 1.56 0 00-.64 1.34 1.71 1.71 0 00.32 1.17 1.43 1.43 0 001.1.37zM694.28 270.83l1.8-7.14h1.58l-2.82 9.51h-1.16l-2.86-9.51h1.59zM702.57 273.37a3.46 3.46 0 01-2.73-1.06 4.61 4.61 0 01-1-3.1v-1.16a5.34 5.34 0 01.93-3.33 3.07 3.07 0 012.59-1.21 3 3 0 012.5 1.06 5.48 5.48 0 01.84 3.32v1h-5.31v.22a3.41 3.41 0 00.58 2.22 2 2 0 001.65.69 2.73 2.73 0 001.21-.25 3 3 0 001-.83l.81 1a3.51 3.51 0 01-3.07 1.43zm-.18-8.52a1.63 1.63 0 00-1.43.66 3.93 3.93 0 00-.53 2.06h3.74v-.21a3.65 3.65 0 00-.48-1.93 1.51 1.51 0 00-1.3-.58zM710.9 272a1.66 1.66 0 001.24-.48 2 2 0 00.51-1.36h1.46a3.18 3.18 0 01-1 2.27 3.08 3.08 0 01-2.24.9 3.32 3.32 0 01-2.7-1.11 5.1 5.1 0 01-.92-3.31v-1.01a5 5 0 01.92-3.27 3.27 3.27 0 012.69-1.12 3 3 0 012.32.92 3.75 3.75 0 01.9 2.53h-1.46a2.63 2.63 0 00-.51-1.59 1.56 1.56 0 00-1.25-.52 1.77 1.77 0 00-1.54.68 3.93 3.93 0 00-.52 2.23V269a4.21 4.21 0 00.5 2.37 1.8 1.8 0 001.6.63zM722.32 260.4l3.34 10.44L729 260.4h2.08v12.8h-1.61v-5l.15-5-3.35 10H725l-3.33-9.95.15 5v5h-1.61V260.4zM738.52 273.2a3.63 3.63 0 01-.2-1 2.46 2.46 0 01-2.11 1.21 2.76 2.76 0 01-2-.72 2.8 2.8 0 01-.72-2 2.91 2.91 0 011-2.3 4 4 0 012.7-.87h1.14v-1a1.62 1.62 0 00-.37-1.21 1.65 1.65 0 00-1.16-.36 1.61 1.61 0 00-1.14.41 1.41 1.41 0 00-.44 1.06h-1.55a2.5 2.5 0 01.43-1.39 2.92 2.92 0 011.16-1 3.49 3.49 0 011.62-.38 3.1 3.1 0 012.22.72 2.84 2.84 0 01.78 2.12v4.8a5.92 5.92 0 00.3 1.9v.15zm-2.07-1.2a2.09 2.09 0 001.09-.32 2 2 0 00.75-.79v-2.27h-.88a2.9 2.9 0 00-1.74.5 1.57 1.57 0 00-.65 1.34 1.7 1.7 0 00.33 1.17 1.43 1.43 0 001.1.37zM745 267.16l1.62-3.47h1.81l-2.59 4.7 2.65 4.81h-1.79l-1.7-3.56-1.69 3.56h-1.8l2.65-4.81-2.57-4.7h1.78zM752 261.16a1 1 0 01-.22.66 1 1 0 01-1.33 0 1 1 0 01-.22-.66 1 1 0 01.22-.66.93.93 0 011.33 0 1 1 0 01.22.66zm-.12 12h-1.56v-9.51h1.56zM755.74 263.69v.87a2.84 2.84 0 012.3-1.05 2.24 2.24 0 012.22 1.38 2.83 2.83 0 012.5-1.38c1.75 0 2.65 1.09 2.69 3.28v6.41h-1.55v-6.26a2.63 2.63 0 00-.37-1.55 1.45 1.45 0 00-1.25-.5 1.39 1.39 0 00-1.14.54 2.56 2.56 0 00-.51 1.39v6.38h-1.53v-6.33c0-1.32-.56-2-1.61-2a1.68 1.68 0 00-1.66 1.18v7.13h-1.55v-9.51zM771.22 273.37a3.46 3.46 0 01-2.73-1.06 4.56 4.56 0 01-1-3.1v-1.16a5.34 5.34 0 01.92-3.33 3.07 3.07 0 012.59-1.21 3 3 0 012.5 1.06 5.48 5.48 0 01.84 3.32v1h-5.31v.22a3.41 3.41 0 00.58 2.22 2 2 0 001.65.69 2.73 2.73 0 001.21-.25 3 3 0 001-.83l.81 1a3.51 3.51 0 01-3.06 1.43zm-.18-8.52a1.63 1.63 0 00-1.43.66 3.93 3.93 0 00-.53 2.06h3.75v-.21a3.73 3.73 0 00-.49-1.93 1.51 1.51 0 00-1.34-.58zM785 260.4h1.62v9.06a4.15 4.15 0 01-.94 2.87 3.2 3.2 0 01-2.52 1 3.28 3.28 0 01-2.53-1 3.91 3.91 0 01-.91-2.73h1.61a2.69 2.69 0 00.49 1.72 1.6 1.6 0 001.34.61 1.59 1.59 0 001.34-.67 3.08 3.08 0 00.5-1.87zM795.06 269.85h-4.32l-1 3.35h-1.65l4.12-12.8h1.38l4.13 12.8h-1.65zm-3.9-1.38h3.49l-1.75-5.82zM802 266.82l2.62-6.42h1.82l-3.64 8v4.78h-1.61v-4.78l-3.64-8h1.83zM810.15 260.4l3.34 10.44 3.34-10.44h2.08v12.8h-1.61v-5l.15-5-3.35 10h-1.23l-3.33-9.95.15 5v5h-1.61V260.4zM830 267.92a6.37 6.37 0 01-1.12 4 3.8 3.8 0 01-3.17 1.41 3.89 3.89 0 01-3.13-1.37 6.14 6.14 0 01-1.19-3.89v-2.37a6.36 6.36 0 011.14-4 3.78 3.78 0 013.16-1.46 3.82 3.82 0 013.15 1.4 6.22 6.22 0 011.16 4zm-1.61-2.24a5.52 5.52 0 00-.66-3 2.56 2.56 0 00-4.05 0 5.41 5.41 0 00-.69 3v2.29a5.47 5.47 0 00.68 3 2.29 2.29 0 002 1 2.26 2.26 0 002-.95 5.28 5.28 0 00.68-2.91zM840.84 273.2h-1.61l-5.13-9.87v9.87h-1.61v-12.8h1.61l5.14 9.9v-9.9h1.6zM843.63 273.2v-12.8h3a4.43 4.43 0 013.48 1.4 5.75 5.75 0 011.24 3.94v2.15a5.61 5.61 0 01-1.26 3.92 4.68 4.68 0 01-3.64 1.39zm1.61-11.42v10h1.29a3 3 0 002.48-1 4.56 4.56 0 00.8-2.88v-2.27a4.63 4.63 0 00-.78-3 2.86 2.86 0 00-2.35-.94z"/>
      </g>
    </g>
  </g>
  <g id="_2005" data-name="2005">
    <path id="Tracé-6" data-name="Tracé" class="cls-9" d="M542 2v162.26l20.45 20.17 20.45-20.17V2l-20.45 20.62z"/>
    <path id="Maison-6" data-name="Maison" class="cls-2" d="M571.64 91.44l-8.78-8.11a1.3 1.3 0 00-1.73 0L559.29 85H557a1.54 1.54 0 00-1.54 1.54v2l-3.09 2.86a1.09 1.09 0 00-.36.81 1 1 0 00.11.46 1.22 1.22 0 001.12.68h1.12v7.8a1.38 1.38 0 00.48 1 1.62 1.62 0 001.09.41h12.16a1.62 1.62 0 001.09-.41 1.38 1.38 0 00.48-1v-7.8h1.12a1.22 1.22 0 001.12-.68 1 1 0 00.11-.46 1.11 1.11 0 00-.36-.81"/>
    <g id="_2005-2" data-name="2005" class="cls-3">
      <g class="cls-3">
        <path class="cls-9" d="M626.46 107.68H607v-3.87l9.2-9.8a23 23 0 002.8-3.62 5.73 5.73 0 00.91-2.93 4.31 4.31 0 00-1-3 3.43 3.43 0 00-2.73-1.09 3.72 3.72 0 00-3 1.32 5.19 5.19 0 00-1.1 3.47h-5.68a9.3 9.3 0 011.24-4.75 8.83 8.83 0 013.51-3.37 10.68 10.68 0 015.13-1.22 10.08 10.08 0 016.83 2.18 7.47 7.47 0 012.43 6 9.51 9.51 0 01-1.09 4.29 23.9 23.9 0 01-3.75 5.1l-6.47 6.82h12.23zM647.9 95.92c0 3.93-.82 6.94-2.44 9a9.76 9.76 0 01-14.26 0q-2.46-3.06-2.52-8.79V91q0-6 2.47-9a9.77 9.77 0 0114.23 0c1.64 2 2.48 5 2.52 8.78zm-5.65-5.75a10.45 10.45 0 00-1-5.15 3.27 3.27 0 00-3-1.62 3.2 3.2 0 00-2.94 1.54 9.75 9.75 0 00-1 4.8v6.92a11 11 0 00.95 5.17 3.21 3.21 0 003 1.69 3.18 3.18 0 003-1.62 10.64 10.64 0 001-5zM669.69 95.92c0 3.93-.82 6.94-2.44 9A9.76 9.76 0 01653 105q-2.46-3.06-2.52-8.79V91q0-6 2.47-9a9.77 9.77 0 0114.23 0c1.64 2 2.48 5 2.52 8.78zM664 90.17a10.45 10.45 0 00-1-5.15 3.28 3.28 0 00-3-1.62 3.2 3.2 0 00-2.94 1.54 9.75 9.75 0 00-1 4.8v6.92a11 11 0 00.95 5.17 3.21 3.21 0 003 1.69 3.16 3.16 0 003-1.62 10.5 10.5 0 001-5zM673.17 93.7l1.65-14.46h15.93V84h-11.31l-.7 6.11A9 9 0 01683 89a8.2 8.2 0 016.37 2.52 10.09 10.09 0 012.3 7 10.37 10.37 0 01-1.16 4.93 8.27 8.27 0 01-3.33 3.38 10.42 10.42 0 01-5.12 1.2 11.1 11.1 0 01-4.78-1 8.47 8.47 0 01-3.49-2.94 8.06 8.06 0 01-1.36-4.32H678a4.17 4.17 0 001.24 2.76 3.93 3.93 0 002.78 1 3.46 3.46 0 003-1.38 6.36 6.36 0 001-3.89 5.22 5.22 0 00-1.2-3.71 4.36 4.36 0 00-3.37-1.29 4.92 4.92 0 00-3.27 1l-.54.51z"/>
      </g>
    </g>
    <g class="cls-3">
      <path class="cls-4" d="M314 94.75a4.74 4.74 0 01-1.16 3.15 3.92 3.92 0 01-3 1.1 3.65 3.65 0 01-3.06-1.47 6.29 6.29 0 01-1.13-4v-2.29a6.08 6.08 0 011.16-3.94 3.86 3.86 0 013.19-1.45 3.74 3.74 0 012.9 1.15 4.91 4.91 0 011.1 3.18h-1.63a4 4 0 00-.66-2.24 2.06 2.06 0 00-1.68-.66 2.3 2.3 0 00-2 1 5.36 5.36 0 00-.7 3v2.32a5.58 5.58 0 00.66 3 2.12 2.12 0 001.91 1 2.3 2.3 0 001.81-.63 3.84 3.84 0 00.68-2.24zM319.89 90.77a3.88 3.88 0 00-.7-.06 1.69 1.69 0 00-1.67 1.29v6.8H316v-9.49h1.51v1a1.92 1.92 0 011.76-1.15 1.27 1.27 0 01.62.13zM324.67 99a3.52 3.52 0 01-2.73-1.06 4.61 4.61 0 01-1-3.11v-1.15a5.37 5.37 0 01.93-3.34 3.08 3.08 0 012.58-1.21A3 3 0 01327 90.2a5.45 5.45 0 01.84 3.31v1h-5.31v.22a3.47 3.47 0 00.57 2.27 2 2 0 001.66.7 2.76 2.76 0 001.21-.26 3.17 3.17 0 001-.82l.8 1a3.52 3.52 0 01-3.1 1.38zm-.18-8.53a1.63 1.63 0 00-1.43.66 4 4 0 00-.53 2.06h3.75V93a3.66 3.66 0 00-.49-1.93 1.5 1.5 0 00-1.3-.6zm.76-5.15h2l-2.36 2.58h-1.31zM334.59 98.82a3.56 3.56 0 01-.2-1 2.47 2.47 0 01-2.11 1.18 2.52 2.52 0 01-2.74-2.77 2.92 2.92 0 011-2.31 4.16 4.16 0 012.7-.87h1.14V92a1.62 1.62 0 00-.37-1.21 1.65 1.65 0 00-1.16-.36 1.59 1.59 0 00-1.14.42 1.41 1.41 0 00-.44 1.06h-1.57a2.53 2.53 0 01.43-1.4 2.92 2.92 0 011.16-1 3.49 3.49 0 011.62-.38 3.09 3.09 0 012.22.73 2.81 2.81 0 01.78 2.11v4.8a6 6 0 00.3 1.91v.14zm-2.07-1.24a2.09 2.09 0 001.09-.32 1.89 1.89 0 00.75-.79v-2.26h-.88a2.9 2.9 0 00-1.74.49 1.58 1.58 0 00-.65 1.34 1.75 1.75 0 00.33 1.18 1.43 1.43 0 001.1.36zM340.36 87v2.3h1.43v1.26h-1.43v5.9a1.67 1.67 0 00.18.86.72.72 0 00.64.29 2 2 0 00.62-.11v1.31a3.31 3.31 0 01-1.08.18 1.66 1.66 0 01-1.41-.66 3.13 3.13 0 01-.48-1.87v-5.9h-1.45v-1.25h1.45V87zM345.44 86.79a1 1 0 01-.22.66 1 1 0 01-1.33 0 1.12 1.12 0 010-1.33.94.94 0 011.32 0 1 1 0 01.23.67zm-.13 12h-1.55v-9.48h1.55zM347.43 93.62a5 5 0 011-3.28 3.31 3.31 0 012.66-1.21 3.35 3.35 0 012.66 1.18 4.92 4.92 0 011 3.21v1a4.93 4.93 0 01-1 3.27 3.57 3.57 0 01-5.32 0 4.88 4.88 0 01-1-3.17zm1.56.9a4.07 4.07 0 00.57 2.31 1.81 1.81 0 001.56.84c1.37 0 2.07-1 2.11-3v-1.05a4 4 0 00-.58-2.3 1.83 1.83 0 00-3.09 0 4.06 4.06 0 00-.57 2.3zM358.26 89.31l.05 1a2.78 2.78 0 012.31-1.21c1.68 0 2.53 1.13 2.55 3.37v6.32h-1.54v-6.22a2.61 2.61 0 00-.38-1.59 1.35 1.35 0 00-1.12-.47 1.58 1.58 0 00-1 .39 2.85 2.85 0 00-.74 1v6.91h-1.56v-9.5zM369.3 93.63a5.68 5.68 0 01.82-3.34 2.73 2.73 0 012.36-1.16 2.44 2.44 0 012.13 1.11v-4.92h1.55v13.5h-1.42l-.08-1a2.45 2.45 0 01-2.19 1.2 2.72 2.72 0 01-2.31-1.15 5.5 5.5 0 01-.86-3.24zm1.56.89a4.46 4.46 0 00.47 2.34 1.68 1.68 0 001.55.76 1.84 1.84 0 001.73-1.17v-4.79a1.86 1.86 0 00-1.72-1.15 1.69 1.69 0 00-1.55.75 4.37 4.37 0 00-.48 2.31zM382 99a3.49 3.49 0 01-2.73-1.06 4.61 4.61 0 01-1-3.11v-1.15a5.37 5.37 0 01.92-3.34 3.09 3.09 0 012.59-1.21 3 3 0 012.5 1.07 5.45 5.45 0 01.84 3.31v1h-5.31v.22a3.41 3.41 0 00.58 2.22 2 2 0 001.65.7 2.73 2.73 0 001.21-.26 3 3 0 001-.82l.81 1A3.52 3.52 0 01382 99zm-.18-8.53a1.63 1.63 0 00-1.43.66 4 4 0 00-.53 2.06h3.74V93a3.67 3.67 0 00-.48-1.93 1.51 1.51 0 00-1.34-.6zM392.78 98.82h-1.55v-13.5h1.55zM400.12 98.82a3.56 3.56 0 01-.2-1 2.47 2.47 0 01-2.11 1.18 2.52 2.52 0 01-2.74-2.77 2.92 2.92 0 011-2.31 4.16 4.16 0 012.7-.87h1.15V92a1.6 1.6 0 00-2.68-1.15 1.41 1.41 0 00-.44 1.06h-1.55a2.53 2.53 0 01.43-1.4 3 3 0 011.16-1 3.52 3.52 0 011.62-.38 3.09 3.09 0 012.22.73 2.81 2.81 0 01.78 2.11v4.8a6 6 0 00.3 1.91v.14zm-2.07-1.24a2.09 2.09 0 001.09-.32 2 2 0 00.76-.79v-2.26h-.9a2.91 2.91 0 00-1.75.49 1.58 1.58 0 00-.64 1.34 1.75 1.75 0 00.32 1.18 1.43 1.43 0 001.12.36zM412.6 96.38a1.16 1.16 0 00-.38-.86 5.54 5.54 0 00-1.46-.84 9.36 9.36 0 01-1.77-.89 2.35 2.35 0 01-.77-.84 2.29 2.29 0 01-.26-1.12 2.53 2.53 0 01.85-1.93 3.13 3.13 0 012.17-.77 3.09 3.09 0 012.23.81 2.76 2.76 0 01.84 2.08h-1.54a1.57 1.57 0 00-.43-1.1 1.47 1.47 0 00-1.1-.45 1.58 1.58 0 00-1.08.35 1.24 1.24 0 00-.39 1 1.06 1.06 0 00.29.76 5.19 5.19 0 001.37.76 6.92 6.92 0 012.36 1.32 2.31 2.31 0 01.62 1.65 2.49 2.49 0 01-.85 2 3.34 3.34 0 01-2.3.69 3.42 3.42 0 01-2.41-.86 2.83 2.83 0 01-.92-2.16h1.57a1.61 1.61 0 001.76 1.69 1.77 1.77 0 001.18-.35 1.17 1.17 0 00.42-.94zM415.85 93.62a5 5 0 011-3.28 3.31 3.31 0 012.66-1.21 3.35 3.35 0 012.66 1.18 4.86 4.86 0 011 3.21v1a4.93 4.93 0 01-1 3.27 3.57 3.57 0 01-5.32 0 4.82 4.82 0 01-1-3.17zm1.55.9a4 4 0 00.58 2.31 1.78 1.78 0 001.55.84c1.37 0 2.08-1 2.12-3v-1.05a4.05 4.05 0 00-.58-2.3 1.8 1.8 0 00-1.56-.85 1.75 1.75 0 00-1.53.85 4 4 0 00-.58 2.3zM428.51 97.67a1.64 1.64 0 001.24-.48 2.05 2.05 0 00.51-1.37h1.47a3.25 3.25 0 01-1 2.27 3.05 3.05 0 01-2.25.91 3.31 3.31 0 01-2.69-1.12 5 5 0 01-.93-3.31v-1a5.09 5.09 0 01.92-3.28 3.32 3.32 0 012.69-1.12 3 3 0 012.32.93 3.76 3.76 0 01.91 2.52h-1.47a2.56 2.56 0 00-.5-1.58 1.59 1.59 0 00-1.26-.53 1.77 1.77 0 00-1.53.68 3.88 3.88 0 00-.52 2.24v1.17a4.23 4.23 0 00.49 2.37 1.79 1.79 0 001.6.7zM435.32 86.79a1 1 0 01-.22.66.82.82 0 01-.66.26.81.81 0 01-.66-.26 1.12 1.12 0 010-1.33.78.78 0 01.66-.27.81.81 0 01.66.27 1 1 0 01.22.67zm-.12 12h-1.55v-9.48h1.55zM441.05 99a3.49 3.49 0 01-2.73-1.06 4.66 4.66 0 01-1-3.11v-1.15a5.37 5.37 0 01.93-3.34 3.09 3.09 0 012.59-1.21 3 3 0 012.5 1.07 5.45 5.45 0 01.84 3.31v1h-5.28v.22a3.41 3.41 0 00.58 2.22 2 2 0 001.65.7 2.73 2.73 0 001.21-.26 3 3 0 001-.82l.81 1a3.52 3.52 0 01-3.1 1.43zm-.18-8.53a1.63 1.63 0 00-1.43.66 4 4 0 00-.53 2.06h3.74V93a3.67 3.67 0 00-.48-1.93 1.51 1.51 0 00-1.3-.6zm.76-5.15h2l-2.35 2.58h-1.31zM448.11 87v2.3h1.43v1.26h-1.43v5.9a1.57 1.57 0 00.19.86.69.69 0 00.63.29 2 2 0 00.62-.11v1.31a3.41 3.41 0 01-1.09.18 1.63 1.63 0 01-1.4-.66 3.13 3.13 0 01-.49-1.87v-5.9h-1.45v-1.25h1.45V87zM454.79 99a3.48 3.48 0 01-2.72-1.06 4.56 4.56 0 01-1-3.11v-1.15a5.37 5.37 0 01.93-3.34 3.09 3.09 0 012.59-1.21 3 3 0 012.49 1.07 5.52 5.52 0 01.85 3.31v1h-5.31v.22a3.48 3.48 0 00.57 2.22 2 2 0 001.66.7 2.73 2.73 0 001.21-.26 3.06 3.06 0 001-.82l.81 1a3.55 3.55 0 01-3.08 1.43zm-.17-8.53a1.64 1.64 0 00-1.44.66 4 4 0 00-.52 2.06h3.74V93a3.57 3.57 0 00-.49-1.93 1.48 1.48 0 00-1.29-.6zm.75-5.15h2L455 87.9h-1.3zM470.3 92.9h-4.53v4.54H471v1.38h-6.88V86H471v1.4h-5.18v4.12h4.53zM474.71 93.81v5h-1.61V86h4.08a3.69 3.69 0 012.8 1.07 4.57 4.57 0 010 5.69 3.77 3.77 0 01-2.74 1zm0-1.38h2.47a2.07 2.07 0 001.64-.64 2.68 2.68 0 00.57-1.84 2.72 2.72 0 00-.59-1.85 2 2 0 00-1.61-.7h-2.48zM484.75 98.82h-1.6V86h1.6zM495.93 98.82h-1.61L489.19 89v9.86h-1.62V86h1.62l5.14 9.91V86h1.6zM504.85 95.47h-4.33l-1 3.35h-1.65L502 86h1.38l4.13 12.8h-1.65zm-3.91-1.38h3.49l-1.75-5.82zM510.87 97.44h5v1.38h-6.63V86h1.62z"/>
    </g>
  </g>
</svg>
