<?xml version="1.0" encoding="UTF-8" standalone="no"?>
<svg
   id="Historique"
   viewBox="0 0 1119 1225.02"
   version="1.1"
   sodipodi:docname="timeline-2022-2.svg"
   inkscape:version="1.1.2 (b8e25be833, 2022-02-05)"
   width="1119"
   height="1225.02"
   xmlns:inkscape="http://www.inkscape.org/namespaces/inkscape"
   xmlns:sodipodi="http://sodipodi.sourceforge.net/DTD/sodipodi-0.dtd"
   xmlns="http://www.w3.org/2000/svg"
   xmlns:svg="http://www.w3.org/2000/svg">
  <sodipodi:namedview
     id="namedview1038"
     pagecolor="#ffffff"
     bordercolor="#666666"
     borderopacity="1.0"
     inkscape:pageshadow="2"
     inkscape:pageopacity="0.0"
     inkscape:pagecheckerboard="0"
     showgrid="false"
     inkscape:zoom="1.6369738"
     inkscape:cx="393.7143"
     inkscape:cy="978.94051"
     inkscape:window-width="1920"
     inkscape:window-height="976"
     inkscape:window-x="-8"
     inkscape:window-y="-8"
     inkscape:window-maximized="1"
     inkscape:current-layer="_2021"
     height="1052.02px" />
  <defs
     id="defs530">
    <style
       id="style528">.cls-1{fill:#e95658;}.cls-2{fill:#fff;}.cls-3{isolation:isolate;}.cls-4{fill:#030303;}.cls-5{fill:#e5383b;}.cls-6{fill:#c30000;}.cls-7{fill:#d1183e;}.cls-8{fill:#89122f;}.cls-9{fill:#5f091e;}</style>
  </defs>
  <g
     id="_2021"
     data-name="2021">
    <path
       id="Tracé"
       class="cls-1"
       d="m 542,862.9 v 162.26 l 20.45,20.17 20.45,-20.17 V 862.9 l -20.45,20.62 z" />
    <path
       id="Tracé-8"
       class="cls-1"
       d="m 542,1034.71 v 162.26 l 20.45,20.17 20.45,-20.17 v -162.26 l -20.45,20.62 z"
       style="fill:#e96b58;fill-opacity:1" />
    <path
       id="Maison"
       class="cls-2"
       d="m 571.64,952.34 -8.78,-8.11 a 1.3,1.3 0 0 0 -1.73,0 l -1.84,1.7 H 557 a 1.54,1.54 0 0 0 -1.54,1.54 v 2 l -3.09,2.86 a 1.09,1.09 0 0 0 -0.36,0.81 1,1 0 0 0 0.11,0.46 1.22,1.22 0 0 0 1.12,0.68 h 1.12 v 7.8 a 1.38,1.38 0 0 0 0.48,1 1.62,1.62 0 0 0 1.09,0.41 h 12.16 a 1.62,1.62 0 0 0 1.09,-0.41 1.38,1.38 0 0 0 0.48,-1 v -7.8 h 1.12 a 1.22,1.22 0 0 0 1.12,-0.68 1,1 0 0 0 0.11,-0.46 1.11,1.11 0 0 0 -0.36,-0.81" />
    <path
       id="Maison-55"
       class="cls-2"
       d="m 571.64001,1124.3395 -8.78,-8.11 a 1.3,1.3 0 0 0 -1.73,0 l -1.84,1.7 h -2.29 a 1.54,1.54 0 0 0 -1.54,1.54 v 2 l -3.09,2.86 a 1.09,1.09 0 0 0 -0.36,0.81 1,1 0 0 0 0.11,0.46 1.22,1.22 0 0 0 1.12,0.68 h 1.12 v 7.8 a 1.38,1.38 0 0 0 0.48,1 1.62,1.62 0 0 0 1.09,0.41 h 12.16 a 1.62,1.62 0 0 0 1.09,-0.41 1.38,1.38 0 0 0 0.48,-1 v -7.8 h 1.12 a 1.22,1.22 0 0 0 1.12,-0.68 1,1 0 0 0 0.11,-0.46 1.11,1.11 0 0 0 -0.36,-0.81"
       style="fill:#ffffff" />
    <text
       xml:space="preserve"
       style="font-style:normal;font-variant:normal;font-weight:normal;font-stretch:normal;font-size:16px;line-height:1.25;font-family:sans-serif;-inkscape-font-specification:'sans-serif, Normal';font-variant-ligatures:normal;font-variant-caps:normal;font-variant-numeric:normal;font-variant-east-asian:normal"
       x="296.66144"
       y="101.12199"
       id="text177828"><tspan
         sodipodi:role="line"
         id="tspan177826"
         x="296.66144"
         y="101.12199">Création de la société EPINAL</tspan></text>
    <text
       xml:space="preserve"
       style="font-style:normal;font-variant:normal;font-weight:normal;font-stretch:normal;font-size:16px;line-height:1.25;font-family:sans-serif;-inkscape-font-specification:'sans-serif, Normal';font-variant-ligatures:normal;font-variant-caps:normal;font-variant-numeric:normal;font-variant-east-asian:normal"
       x="605.82532"
       y="272.00906"
       id="text177828-0"><tspan
         sodipodi:role="line"
         id="tspan177826-6"
         x="605.82532"
         y="272.00906">Rencontre avec Maxime JAYMOND</tspan></text>
    <text
       xml:space="preserve"
       style="font-style:normal;font-variant:normal;font-weight:normal;font-stretch:normal;font-size:16px;line-height:1.25;font-family:sans-serif;-inkscape-font-specification:'sans-serif, Normal';font-variant-ligatures:normal;font-variant-caps:normal;font-variant-numeric:normal;font-variant-east-asian:normal"
       x="172.03291"
       y="445.38782"
       id="text177828-0-3"><tspan
         sodipodi:role="line"
         id="tspan177826-6-5"
         x="172.03291"
         y="445.38782">Ouverture de l'agence Auvergne-Rhône-Alpes </tspan></text>
    <text
       xml:space="preserve"
       style="font-style:normal;font-variant:normal;font-weight:normal;font-stretch:normal;font-size:16px;line-height:1.25;font-family:sans-serif;-inkscape-font-specification:'sans-serif, Normal';font-variant-ligatures:normal;font-variant-caps:normal;font-variant-numeric:normal;font-variant-east-asian:normal"
       x="605.53632"
       y="615.87781"
       id="text177828-0-3-4"><tspan
         sodipodi:role="line"
         id="tspan177826-6-5-7"
         x="605.53632"
         y="615.87781">Développement de l'activité d'audit énergetique</tspan></text>
    <text
       xml:space="preserve"
       style="font-style:normal;font-variant:normal;font-weight:normal;font-stretch:normal;font-size:16px;line-height:1.25;font-family:sans-serif;-inkscape-font-specification:'sans-serif, Normal';font-variant-ligatures:normal;font-variant-caps:normal;font-variant-numeric:normal;font-variant-east-asian:normal"
       x="76.185265"
       y="788.78784"
       id="text177828-0-3-4-3"><tspan
         sodipodi:role="line"
         id="tspan177826-6-5-7-7"
         x="76.185265"
         y="788.78784">Développement de métier d'économiste de la construction</tspan></text>
    <text
       xml:space="preserve"
       style="font-style:normal;font-variant:normal;font-weight:normal;font-stretch:normal;font-size:16px;line-height:1.25;font-family:sans-serif;-inkscape-font-specification:'sans-serif, Normal';font-variant-ligatures:normal;font-variant-caps:normal;font-variant-numeric:normal;font-variant-east-asian:normal"
       x="606.11444"
       y="960.84784"
       id="text177828-0-3-4-3-1"><tspan
         sodipodi:role="line"
         id="tspan177826-6-5-7-7-7"
         x="606.11444"
         y="960.84784">Création de NEW ENERGIE CARBONE</tspan></text>
    <text
       xml:space="preserve"
       style="font-style:normal;font-variant:normal;font-weight:normal;font-stretch:normal;font-size:16px;line-height:1.25;font-family:sans-serif;-inkscape-font-specification:'sans-serif, Normal';font-variant-ligatures:normal;font-variant-caps:normal;font-variant-numeric:normal;font-variant-east-asian:normal"
       x="285.38004"
       y="1133.6562"
       id="text177828-0-3-4-3-1-2"><tspan
         sodipodi:role="line"
         id="tspan177826-6-5-7-7-7-8"
         x="285.38004"
         y="1133.6562">Ouverture de l'agence de Paris</tspan></text>
    <text
       xml:space="preserve"
       style="font-style:normal;font-variant:normal;font-weight:bold;font-stretch:normal;font-size:40.197px;line-height:1.25;font-family:sans-serif;-inkscape-font-specification:'sans-serif, Bold';font-variant-ligatures:normal;font-variant-caps:normal;font-variant-numeric:normal;font-variant-east-asian:normal;stroke-width:1.50739;fill:#5f091e;fill-opacity:1"
       x="598.82678"
       y="108.74475"
       id="text180696"
       transform="scale(1.0100628,0.99003745)"><tspan
         sodipodi:role="line"
         id="tspan180694"
         x="598.82678"
         y="108.74475"
         style="font-style:normal;font-variant:normal;font-weight:bold;font-stretch:normal;font-size:40.197px;font-family:sans-serif;-inkscape-font-specification:'sans-serif, Bold';font-variant-ligatures:normal;font-variant-caps:normal;font-variant-numeric:normal;font-variant-east-asian:normal;stroke-width:1.50739;fill:#5f091e;fill-opacity:1">2005</tspan></text>
    <text
       xml:space="preserve"
       style="font-style:normal;font-variant:normal;font-weight:bold;font-stretch:normal;font-size:39.8363px;line-height:1.25;font-family:sans-serif;-inkscape-font-specification:'sans-serif, Bold';font-variant-ligatures:normal;font-variant-caps:normal;font-variant-numeric:normal;font-variant-east-asian:normal;stroke-width:1.49386;fill:#89122f;fill-opacity:1"
       x="430.18033"
       y="279.93588"
       id="text180696-3"
       transform="scale(1.0009995,0.99900153)"><tspan
         sodipodi:role="line"
         id="tspan180694-7"
         x="430.18033"
         y="279.93588"
         style="font-style:normal;font-variant:normal;font-weight:bold;font-stretch:normal;font-size:39.8363px;font-family:sans-serif;-inkscape-font-specification:'sans-serif, Bold';font-variant-ligatures:normal;font-variant-caps:normal;font-variant-numeric:normal;font-variant-east-asian:normal;stroke-width:1.49386;fill:#89122f;fill-opacity:1">2009</tspan></text>
    <text
       xml:space="preserve"
       style="font-style:normal;font-variant:normal;font-weight:bold;font-stretch:normal;font-size:39.6804px;line-height:1.25;font-family:sans-serif;-inkscape-font-specification:'sans-serif, Bold';font-variant-ligatures:normal;font-variant-caps:normal;font-variant-numeric:normal;font-variant-east-asian:normal;stroke-width:1.48802;fill:#c30000;fill-opacity:1"
       x="606.6618"
       y="450.33884"
       id="text180696-3-1"
       transform="scale(0.99708296,1.0029256)"><tspan
         sodipodi:role="line"
         id="tspan180694-7-4"
         x="606.6618"
         y="450.33884"
         style="font-style:normal;font-variant:normal;font-weight:bold;font-stretch:normal;font-size:39.6804px;font-family:sans-serif;-inkscape-font-specification:'sans-serif, Bold';font-variant-ligatures:normal;font-variant-caps:normal;font-variant-numeric:normal;font-variant-east-asian:normal;stroke-width:1.48802;fill:#c30000;fill-opacity:1">2011</tspan></text>
    <text
       xml:space="preserve"
       style="font-style:normal;font-variant:normal;font-weight:bold;font-stretch:normal;font-size:39.7776px;line-height:1.25;font-family:sans-serif;-inkscape-font-specification:'sans-serif, Bold';font-variant-ligatures:normal;font-variant-caps:normal;font-variant-numeric:normal;font-variant-east-asian:normal;stroke-width:1.49166;fill:#d1183e;fill-opacity:1"
       x="430.58292"
       y="623.61646"
       id="text180696-3-1-3"
       transform="scale(1.000072,0.99992803)"><tspan
         sodipodi:role="line"
         id="tspan180694-7-4-4"
         x="430.58292"
         y="623.61646"
         style="font-style:normal;font-variant:normal;font-weight:bold;font-stretch:normal;font-size:39.7776px;font-family:sans-serif;-inkscape-font-specification:'sans-serif, Bold';font-variant-ligatures:normal;font-variant-caps:normal;font-variant-numeric:normal;font-variant-east-asian:normal;stroke-width:1.49166;fill:#d1183e;fill-opacity:1">2014</tspan></text>
    <text
       xml:space="preserve"
       style="font-style:normal;font-variant:normal;font-weight:bold;font-stretch:normal;font-size:39.8316px;line-height:1.25;font-family:sans-serif;-inkscape-font-specification:'sans-serif, Bold';font-variant-ligatures:normal;font-variant-caps:normal;font-variant-numeric:normal;font-variant-east-asian:normal;stroke-width:1.49369;fill:#e5383b;fill-opacity:1"
       x="604.34784"
       y="796.35779"
       id="text180696-3-1-3-5"
       transform="scale(1.0008816,0.9991192)"><tspan
         sodipodi:role="line"
         id="tspan180694-7-4-4-4"
         x="604.34784"
         y="796.35779"
         style="font-style:normal;font-variant:normal;font-weight:bold;font-stretch:normal;font-size:39.8316px;font-family:sans-serif;-inkscape-font-specification:'sans-serif, Bold';font-variant-ligatures:normal;font-variant-caps:normal;font-variant-numeric:normal;font-variant-east-asian:normal;stroke-width:1.49369;fill:#e5383b;fill-opacity:1">2019</tspan></text>
    <text
       xml:space="preserve"
       style="font-style:normal;font-variant:normal;font-weight:bold;font-stretch:normal;font-size:41.4178px;line-height:1.25;font-family:sans-serif;-inkscape-font-specification:'sans-serif, Bold';font-variant-ligatures:normal;font-variant-caps:normal;font-variant-numeric:normal;font-variant-east-asian:normal;stroke-width:1.55317;fill:#e95658;fill-opacity:1"
       x="420.87723"
       y="990.69885"
       id="text180696-3-1-3-5-2"
       transform="scale(1.0229002,0.97761246)"><tspan
         sodipodi:role="line"
         id="tspan180694-7-4-4-4-1"
         x="420.87723"
         y="990.69885"
         style="font-style:normal;font-variant:normal;font-weight:bold;font-stretch:normal;font-size:41.4178px;font-family:sans-serif;-inkscape-font-specification:'sans-serif, Bold';font-variant-ligatures:normal;font-variant-caps:normal;font-variant-numeric:normal;font-variant-east-asian:normal;stroke-width:1.55317;fill:#e95658;fill-opacity:1">2021</tspan></text>
    <text
       xml:space="preserve"
       style="font-style:normal;font-variant:normal;font-weight:bold;font-stretch:normal;font-size:40.197px;line-height:1.25;font-family:sans-serif;-inkscape-font-specification:'sans-serif, Bold';font-variant-ligatures:normal;font-variant-caps:normal;font-variant-numeric:normal;font-variant-east-asian:normal;stroke-width:1.50739;fill:#e96b58;fill-opacity:1"
       x="598.82678"
       y="1151.5579"
       id="text180696-3-1-3-5-2-0"
       transform="scale(1.0100628,0.99003745)"><tspan
         sodipodi:role="line"
         id="tspan180694-7-4-4-4-1-1"
         x="598.82678"
         y="1151.5579"
         style="font-style:normal;font-variant:normal;font-weight:bold;font-stretch:normal;font-size:40.197px;font-family:sans-serif;-inkscape-font-specification:'sans-serif, Bold';font-variant-ligatures:normal;font-variant-caps:normal;font-variant-numeric:normal;font-variant-east-asian:normal;stroke-width:1.50739;fill:#e96b58;fill-opacity:1">2022</tspan></text>
    <text
       xml:space="preserve"
       style="font-size:26.6667px;line-height:1.25;font-family:sans-serif"
       x="749.01819"
       y="1029.792"
       id="text238829"><tspan
         sodipodi:role="line"
         id="tspan238827"
         x="749.01819"
         y="1029.792"></tspan><tspan
         sodipodi:role="line"
         id="tspan238831"
         x="749.01819"
         y="1063.1254" /></text>
  </g>
  <g
     id="_2019"
     data-name="2019">
    <path
       id="Tracé-2"
       data-name="Tracé"
       class="cls-5"
       d="m 542,690 v 162.26 l 20.45,20.17 20.45,-20.17 V 690 l -20.45,20.62 z" />
    <path
       id="Maison-2"
       data-name="Maison"
       class="cls-2"
       d="m 571.64,779.44 -8.78,-8.11 a 1.3,1.3 0 0 0 -1.73,0 l -1.84,1.7 H 557 a 1.54,1.54 0 0 0 -1.54,1.54 v 2 l -3.09,2.86 a 1.09,1.09 0 0 0 -0.36,0.81 1,1 0 0 0 0.11,0.46 1.22,1.22 0 0 0 1.12,0.68 h 1.12 v 7.8 a 1.38,1.38 0 0 0 0.48,1 1.62,1.62 0 0 0 1.09,0.41 h 12.16 a 1.62,1.62 0 0 0 1.09,-0.41 1.38,1.38 0 0 0 0.48,-1 v -7.8 h 1.12 a 1.22,1.22 0 0 0 1.12,-0.68 1,1 0 0 0 0.11,-0.46 1.11,1.11 0 0 0 -0.36,-0.81" />
  </g>
  <g
     id="_2017"
     data-name="2017">
    <path
       id="Tracé-3"
       data-name="Tracé"
       class="cls-6"
       d="m 542,517.92 v 162.26 l 20.45,20.17 20.45,-20.17 V 517.92 l -20.45,20.62 z"
       style="fill:#d1183e;fill-opacity:1" />
    <path
       id="Maison-3"
       data-name="Maison"
       class="cls-2"
       d="m 571.64,607.36 -8.78,-8.11 a 1.3,1.3 0 0 0 -1.73,0 l -1.84,1.7 H 557 a 1.54,1.54 0 0 0 -1.54,1.54 v 2 l -3.09,2.86 a 1.09,1.09 0 0 0 -0.36,0.81 1.12,1.12 0 0 0 0.11,0.47 1.22,1.22 0 0 0 1.12,0.67 h 1.12 v 7.8 a 1.38,1.38 0 0 0 0.48,1 1.62,1.62 0 0 0 1.09,0.41 h 12.16 a 1.62,1.62 0 0 0 1.09,-0.41 1.38,1.38 0 0 0 0.48,-1 v -7.8 h 1.12 a 1.22,1.22 0 0 0 1.12,-0.67 1.12,1.12 0 0 0 0.11,-0.47 1.13,1.13 0 0 0 -0.36,-0.81" />
    <g
       id="Texte-2"
       data-name="Texte"
       class="cls-3" />
  </g>
  <g
     id="_2011"
     data-name=" 2011">
    <path
       id="Tracé-4"
       data-name="Tracé"
       class="cls-7"
       d="m 542,346 v 162.26 l 20.45,20.17 20.45,-20.17 V 346 l -20.45,20.62 z"
       style="fill:#c30000;fill-opacity:1" />
    <path
       id="Maison-4"
       data-name="Maison"
       class="cls-2"
       d="m 571.64,435.44 -8.78,-8.11 a 1.3,1.3 0 0 0 -1.73,0 l -1.84,1.7 H 557 a 1.54,1.54 0 0 0 -1.54,1.54 v 2 l -3.09,2.86 a 1.09,1.09 0 0 0 -0.36,0.81 1,1 0 0 0 0.11,0.46 1.22,1.22 0 0 0 1.12,0.68 h 1.12 v 7.8 a 1.38,1.38 0 0 0 0.48,1 1.62,1.62 0 0 0 1.09,0.41 h 12.16 a 1.62,1.62 0 0 0 1.09,-0.41 1.38,1.38 0 0 0 0.48,-1 v -7.8 h 1.12 a 1.22,1.22 0 0 0 1.12,-0.68 1,1 0 0 0 0.11,-0.46 1.11,1.11 0 0 0 -0.36,-0.81" />
  </g>
  <g
     id="_2009"
     data-name=" 2009">
    <path
       id="Tracé-5"
       data-name="Tracé"
       class="cls-8"
       d="m 542,174 v 162.26 l 20.45,20.17 20.45,-20.17 V 174 l -20.45,20.62 z" />
    <path
       id="Maison-5"
       data-name="Maison"
       class="cls-2"
       d="m 571.64,263.44 -8.78,-8.11 a 1.3,1.3 0 0 0 -1.73,0 l -1.84,1.7 H 557 a 1.54,1.54 0 0 0 -1.54,1.54 v 2 l -3.09,2.86 a 1.09,1.09 0 0 0 -0.36,0.81 1,1 0 0 0 0.11,0.46 1.22,1.22 0 0 0 1.12,0.68 h 1.12 v 7.8 a 1.38,1.38 0 0 0 0.48,1 1.62,1.62 0 0 0 1.09,0.41 h 12.16 a 1.62,1.62 0 0 0 1.09,-0.41 1.38,1.38 0 0 0 0.48,-1 v -7.8 h 1.12 a 1.22,1.22 0 0 0 1.12,-0.68 1,1 0 0 0 0.11,-0.46 1.11,1.11 0 0 0 -0.36,-0.81" />
  </g>
  <g
     id="_2005"
     data-name=" 2005">
    <path
       id="Tracé-6"
       data-name="Tracé"
       class="cls-9"
       d="m 542,2 v 162.26 l 20.45,20.17 20.45,-20.17 V 2 l -20.45,20.62 z" />
    <path
       id="Maison-6"
       data-name="Maison"
       class="cls-2"
       d="m 571.64,91.44 -8.78,-8.11 a 1.3,1.3 0 0 0 -1.73,0 L 559.29,85 H 557 a 1.54,1.54 0 0 0 -1.54,1.54 v 2 l -3.09,2.86 a 1.09,1.09 0 0 0 -0.36,0.81 1,1 0 0 0 0.11,0.46 1.22,1.22 0 0 0 1.12,0.68 h 1.12 v 7.8 a 1.38,1.38 0 0 0 0.48,1 1.62,1.62 0 0 0 1.09,0.41 h 12.16 a 1.62,1.62 0 0 0 1.09,-0.41 1.38,1.38 0 0 0 0.48,-1 v -7.8 h 1.12 a 1.22,1.22 0 0 0 1.12,-0.68 1,1 0 0 0 0.11,-0.46 1.11,1.11 0 0 0 -0.36,-0.81" />
  </g>
</svg>
