<svg id="Historique" xmlns="http://www.w3.org/2000/svg" viewBox="0 0 1119 1052.02"><defs><style>.cls-1{fill:#e95658;}.cls-2{fill:#fff;}.cls-3{isolation:isolate;}.cls-4{fill:#030303;}.cls-5{fill:#e5383b;}.cls-6{fill:#c30000;}.cls-7{fill:#d1183e;}.cls-8{fill:#89122f;}.cls-9{fill:#5f091e;}</style></defs><g id="_2021" data-name="2021"><path id="Tracé" class="cls-1" d="M542,862.9v162.26l20.45,20.17,20.45-20.17V862.9l-20.45,20.62Z"/><path id="Maison" class="cls-2" d="M571.64,952.34l-8.78-8.11a1.3,1.3,0,0,0-1.73,0l-1.84,1.7H557a1.54,1.54,0,0,0-1.54,1.54v2l-3.09,2.86a1.09,1.09,0,0,0-.36.81,1,1,0,0,0,.11.46,1.22,1.22,0,0,0,1.12.68h1.12v7.8a1.38,1.38,0,0,0,.48,1,1.62,1.62,0,0,0,1.09.41h12.16a1.62,1.62,0,0,0,1.09-.41,1.38,1.38,0,0,0,.48-1v-7.8h1.12a1.22,1.22,0,0,0,1.12-.68,1,1,0,0,0,.11-.46,1.11,1.11,0,0,0-.36-.81"/><g id="_2021-2" data-name="2021" class="cls-3"><g class="cls-3"><path class="cls-1" d="M452.2,968.58H432.71v-3.87l9.2-9.8a22.45,22.45,0,0,0,2.8-3.62,5.72,5.72,0,0,0,.91-2.92,4.32,4.32,0,0,0-1-3,3.42,3.42,0,0,0-2.73-1.09,3.73,3.73,0,0,0-3,1.32,5.27,5.27,0,0,0-1.1,3.47h-5.66a9.3,9.3,0,0,1,1.24-4.75,8.74,8.74,0,0,1,3.5-3.37,10.69,10.69,0,0,1,5.14-1.22,10.1,10.1,0,0,1,6.82,2.11,7.44,7.44,0,0,1,2.44,6,9.6,9.6,0,0,1-1.1,4.3,24.13,24.13,0,0,1-3.75,5.09L440,964H452.2Z"/><path class="cls-1" d="M473.64,956.82q0,5.89-2.44,9a9.76,9.76,0,0,1-14.26,0q-2.46-3.06-2.52-8.78v-5.24c0-4,.83-7,2.47-9a9.77,9.77,0,0,1,14.23,0c1.64,2,2.48,5,2.52,8.78ZM468,951.07a10.44,10.44,0,0,0-1-5.15,3.26,3.26,0,0,0-3-1.62,3.2,3.2,0,0,0-2.94,1.54,9.76,9.76,0,0,0-1,4.8v6.92a11,11,0,0,0,.94,5.17,3.23,3.23,0,0,0,3,1.69,3.17,3.17,0,0,0,3-1.62,10.75,10.75,0,0,0,1-5Z"/><path class="cls-1" d="M495.78,968.58H476.29v-3.87l9.2-9.8a22.45,22.45,0,0,0,2.8-3.62,5.72,5.72,0,0,0,.91-2.92,4.32,4.32,0,0,0-1-3,3.43,3.43,0,0,0-2.73-1.09,3.73,3.73,0,0,0-3,1.32,5.27,5.27,0,0,0-1.1,3.47h-5.67a9.4,9.4,0,0,1,1.24-4.75,8.83,8.83,0,0,1,3.51-3.37,10.69,10.69,0,0,1,5.14-1.22,10.1,10.1,0,0,1,6.82,2.11,7.47,7.47,0,0,1,2.43,6,9.58,9.58,0,0,1-1.09,4.3,24.13,24.13,0,0,1-3.75,5.09L483.56,964h12.22Z"/><path class="cls-1" d="M511.79,968.58h-5.64V946.82l-6.74,2.09v-4.59l11.77-4.22h.61Z"/></g></g><g id="Texte" class="cls-3"><g class="cls-3"><path class="cls-4" d="M615.7,956.82a6.43,6.43,0,0,1-1.11,4,3.82,3.82,0,0,1-3.18,1.41,3.87,3.87,0,0,1-3.12-1.37A6.14,6.14,0,0,1,607.1,957V954.6a6.43,6.43,0,0,1,1.13-4,3.8,3.8,0,0,1,3.17-1.46,3.87,3.87,0,0,1,3.15,1.39,6.27,6.27,0,0,1,1.15,4Zm-1.61-2.24a5.52,5.52,0,0,0-.66-3,2.55,2.55,0,0,0-4,0,5.24,5.24,0,0,0-.69,3v2.29a5.47,5.47,0,0,0,.68,3,2.56,2.56,0,0,0,4,.08,5.29,5.29,0,0,0,.67-2.91Z"/><path class="cls-4" d="M622.82,961.26a2.68,2.68,0,0,1-2.26,1,2.28,2.28,0,0,1-1.95-.89,4.41,4.41,0,0,1-.67-2.6v-6.2h1.55v6.09c0,1.48.45,2.22,1.34,2.22a2,2,0,0,0,1.95-1.27v-7h1.55v9.51h-1.47Z"/><path class="cls-4" d="M629.37,959.73l1.8-7.15h1.58l-2.82,9.51h-1.16l-2.85-9.51h1.58Z"/><path class="cls-4" d="M637.66,962.27a3.47,3.47,0,0,1-2.73-1.06,4.57,4.57,0,0,1-1-3.11V957a5.4,5.4,0,0,1,.92-3.33,3.08,3.08,0,0,1,2.59-1.21,3,3,0,0,1,2.5,1.06,5.48,5.48,0,0,1,.84,3.32v1h-5.31V958a3.49,3.49,0,0,0,.58,2.22,2,2,0,0,0,1.66.69,2.63,2.63,0,0,0,1.21-.26,2.91,2.91,0,0,0,1-.82l.81,1A3.51,3.51,0,0,1,637.66,962.27Zm-.18-8.52a1.63,1.63,0,0,0-1.43.66,3.93,3.93,0,0,0-.53,2.06h3.75v-.21a3.63,3.63,0,0,0-.49-1.93A1.51,1.51,0,0,0,637.48,953.75Z"/><path class="cls-4" d="M646.61,954a3.8,3.8,0,0,0-.7-.06,1.71,1.71,0,0,0-1.67,1.31v6.8h-1.55v-9.51h1.51l0,1a2,2,0,0,1,1.77-1.14,1.43,1.43,0,0,1,.62.12Z"/><path class="cls-4" d="M650.64,950.28v2.3h1.43v1.26h-1.43v5.91a1.63,1.63,0,0,0,.18.85.72.72,0,0,0,.64.29,2,2,0,0,0,.62-.1l0,1.31a3.59,3.59,0,0,1-1.08.17,1.63,1.63,0,0,1-1.4-.66,3,3,0,0,1-.49-1.86v-5.91h-1.45v-1.26h1.45v-2.3Z"/><path class="cls-4" d="M658.77,961.26a2.69,2.69,0,0,1-2.26,1,2.28,2.28,0,0,1-2-.89,4.41,4.41,0,0,1-.67-2.6v-6.2h1.55v6.09c0,1.48.44,2.22,1.33,2.22a2,2,0,0,0,2-1.27v-7h1.55v9.51H658.8Z"/><path class="cls-4" d="M666.55,954a3.92,3.92,0,0,0-.71-.06,1.72,1.72,0,0,0-1.67,1.31v6.8h-1.55v-9.51h1.51l0,1a1.92,1.92,0,0,1,1.76-1.14,1.4,1.4,0,0,1,.62.12Z"/><path class="cls-4" d="M671.33,962.27a3.48,3.48,0,0,1-2.73-1.06,4.57,4.57,0,0,1-1-3.11V957a5.4,5.4,0,0,1,.92-3.33,3.08,3.08,0,0,1,2.59-1.21,3,3,0,0,1,2.5,1.06,5.48,5.48,0,0,1,.84,3.32v1h-5.31V958a3.49,3.49,0,0,0,.58,2.22,2,2,0,0,0,1.66.69,2.56,2.56,0,0,0,1.2-.26,3,3,0,0,0,1-.82l.8,1A3.51,3.51,0,0,1,671.33,962.27Zm-.18-8.52a1.63,1.63,0,0,0-1.43.66,3.93,3.93,0,0,0-.53,2.06h3.75v-.21a3.63,3.63,0,0,0-.49-1.93A1.5,1.5,0,0,0,671.15,953.75Z"/><path class="cls-4" d="M680.15,956.91a5.79,5.79,0,0,1,.82-3.35,2.73,2.73,0,0,1,2.36-1.15,2.44,2.44,0,0,1,2.13,1.11v-4.93H687v13.5h-1.43l-.08-1a2.44,2.44,0,0,1-2.18,1.19,2.7,2.7,0,0,1-2.32-1.15,5.53,5.53,0,0,1-.86-3.24Zm1.56.88a4.57,4.57,0,0,0,.47,2.35,1.71,1.71,0,0,0,1.55.75,1.84,1.84,0,0,0,1.73-1.17v-4.79a1.87,1.87,0,0,0-1.72-1.14,1.69,1.69,0,0,0-1.55.75,4.46,4.46,0,0,0-.48,2.3Z"/><path class="cls-4" d="M692.81,962.27a3.48,3.48,0,0,1-2.73-1.06,4.57,4.57,0,0,1-1-3.11V957a5.4,5.4,0,0,1,.92-3.33,3.08,3.08,0,0,1,2.59-1.21,3,3,0,0,1,2.5,1.06,5.48,5.48,0,0,1,.84,3.32v1h-5.3V958a3.5,3.5,0,0,0,.57,2.22,2,2,0,0,0,1.66.69,2.63,2.63,0,0,0,1.21-.26,2.94,2.94,0,0,0,1-.82l.8,1A3.51,3.51,0,0,1,692.81,962.27Zm-.18-8.52a1.63,1.63,0,0,0-1.43.66,3.93,3.93,0,0,0-.53,2.06h3.75v-.21a3.63,3.63,0,0,0-.49-1.93A1.5,1.5,0,0,0,692.63,953.75Z"/><path class="cls-4" d="M703.64,962.09h-1.56v-13.5h1.56Z"/><path class="cls-4" d="M706.28,952.9l-.87-.63a4.73,4.73,0,0,0,.71-2.39v-1.29h1.54v1.19a4.51,4.51,0,0,1-.39,1.71A3.89,3.89,0,0,1,706.28,952.9Z"/><path class="cls-4" d="M714,962.09a3.12,3.12,0,0,1-.21-1,2.46,2.46,0,0,1-2.11,1.21,2.72,2.72,0,0,1-2-.72,2.76,2.76,0,0,1-.73-2,2.89,2.89,0,0,1,1-2.3,4,4,0,0,1,2.69-.87h1.15v-1a1.34,1.34,0,0,0-1.53-1.57,1.61,1.61,0,0,0-1.15.41,1.4,1.4,0,0,0-.43,1.06h-1.56a2.5,2.5,0,0,1,.43-1.39,3,3,0,0,1,1.16-1,3.53,3.53,0,0,1,1.63-.38,3.12,3.12,0,0,1,2.22.72,2.87,2.87,0,0,1,.77,2.12v4.8a5.92,5.92,0,0,0,.3,1.9v.14ZM712,960.86a2.06,2.06,0,0,0,1.09-.32,2,2,0,0,0,.76-.79v-2.27h-.88a2.93,2.93,0,0,0-1.75.5,1.56,1.56,0,0,0-.64,1.34,1.76,1.76,0,0,0,.32,1.17A1.44,1.44,0,0,0,712,960.86Z"/><path class="cls-4" d="M717.45,956.91a5.79,5.79,0,0,1,.81-3.36,2.72,2.72,0,0,1,2.37-1.14,2.42,2.42,0,0,1,2.2,1.24l.08-1.07h1.41v9.6a3.73,3.73,0,0,1-.91,2.71,3.32,3.32,0,0,1-2.52,1,4.41,4.41,0,0,1-1.58-.35,3.28,3.28,0,0,1-1.31-.86l.63-1.07a3,3,0,0,0,2.14,1c1.29,0,2-.7,2-2.12v-1.24a2.42,2.42,0,0,1-2.14,1.12,2.69,2.69,0,0,1-2.3-1.11,5.44,5.44,0,0,1-.87-3.2Zm1.56.88a4.57,4.57,0,0,0,.47,2.35,1.68,1.68,0,0,0,1.54.75,1.84,1.84,0,0,0,1.74-1.18V955a1.88,1.88,0,0,0-1.72-1.17,1.71,1.71,0,0,0-1.55.75,4.56,4.56,0,0,0-.48,2.3Z"/><path class="cls-4" d="M730,962.27a3.45,3.45,0,0,1-2.72-1.06,4.52,4.52,0,0,1-1-3.11V957a5.34,5.34,0,0,1,.93-3.33,3.06,3.06,0,0,1,2.59-1.21,3,3,0,0,1,2.49,1.06,5.55,5.55,0,0,1,.85,3.32v1h-5.31V958a3.5,3.5,0,0,0,.57,2.22,2.05,2.05,0,0,0,1.66.69,2.6,2.6,0,0,0,1.21-.26,2.94,2.94,0,0,0,1-.82l.81,1A3.54,3.54,0,0,1,730,962.27Zm-.17-8.52a1.64,1.64,0,0,0-1.44.66,3.93,3.93,0,0,0-.52,2.06h3.74v-.21a3.54,3.54,0,0,0-.49-1.93A1.48,1.48,0,0,0,729.86,953.75Z"/><path class="cls-4" d="M736.53,952.58l0,1a2.77,2.77,0,0,1,2.31-1.2c1.68,0,2.54,1.12,2.56,3.37v6.31h-1.55v-6.24a2.58,2.58,0,0,0-.37-1.59,1.35,1.35,0,0,0-1.12-.47,1.55,1.55,0,0,0-1,.39,2.7,2.7,0,0,0-.75,1v6.9h-1.55v-9.51Z"/><path class="cls-4" d="M747.07,960.94a1.64,1.64,0,0,0,1.24-.48,2,2,0,0,0,.51-1.36h1.47a3.26,3.26,0,0,1-1,2.27,3.08,3.08,0,0,1-2.25.9,3.32,3.32,0,0,1-2.69-1.11,5.06,5.06,0,0,1-.93-3.31V956.8a5,5,0,0,1,.93-3.27,3.26,3.26,0,0,1,2.68-1.12,3,3,0,0,1,2.32.92,3.8,3.8,0,0,1,.91,2.52h-1.47a2.56,2.56,0,0,0-.5-1.58,1.57,1.57,0,0,0-1.26-.52,1.75,1.75,0,0,0-1.53.68,3.85,3.85,0,0,0-.52,2.23v1.22a4.23,4.23,0,0,0,.49,2.37A1.82,1.82,0,0,0,747.07,960.94Z"/><path class="cls-4" d="M755.48,962.27a3.45,3.45,0,0,1-2.72-1.06,4.57,4.57,0,0,1-1-3.11V957a5.34,5.34,0,0,1,.93-3.33,3.07,3.07,0,0,1,2.59-1.21,3,3,0,0,1,2.49,1.06,5.41,5.41,0,0,1,.85,3.32v1h-5.31V958a3.43,3.43,0,0,0,.58,2.22,2,2,0,0,0,1.65.69,2.6,2.6,0,0,0,1.21-.26,2.85,2.85,0,0,0,1-.82l.81,1A3.52,3.52,0,0,1,755.48,962.27Zm-.17-8.52a1.62,1.62,0,0,0-1.43.66,3.93,3.93,0,0,0-.53,2.06h3.74v-.21a3.65,3.65,0,0,0-.48-1.93A1.51,1.51,0,0,0,755.31,953.75Z"/><path class="cls-4" d="M764.31,956.91a5.71,5.71,0,0,1,.82-3.35,2.71,2.71,0,0,1,2.36-1.15,2.44,2.44,0,0,1,2.13,1.11v-4.93h1.55v13.5h-1.42l-.08-1a2.46,2.46,0,0,1-2.19,1.19,2.68,2.68,0,0,1-2.31-1.15,5.46,5.46,0,0,1-.86-3.24Zm1.55.88a4.46,4.46,0,0,0,.48,2.35,1.69,1.69,0,0,0,1.55.75,1.84,1.84,0,0,0,1.73-1.17v-4.79a1.88,1.88,0,0,0-1.73-1.14,1.68,1.68,0,0,0-1.54.75,4.44,4.44,0,0,0-.49,2.3Z"/><path class="cls-4" d="M777,962.27a3.45,3.45,0,0,1-2.72-1.06,4.62,4.62,0,0,1-1-3.11V957a5.34,5.34,0,0,1,.93-3.33,3.07,3.07,0,0,1,2.59-1.21,3,3,0,0,1,2.5,1.06,5.48,5.48,0,0,1,.84,3.32v1h-5.31V958a3.43,3.43,0,0,0,.58,2.22,2,2,0,0,0,1.65.69,2.6,2.6,0,0,0,1.21-.26,2.85,2.85,0,0,0,1-.82l.81,1A3.52,3.52,0,0,1,777,962.27Zm-.17-8.52a1.62,1.62,0,0,0-1.43.66,3.93,3.93,0,0,0-.53,2.06h3.74v-.21a3.65,3.65,0,0,0-.48-1.93A1.51,1.51,0,0,0,776.79,953.75Z"/><path class="cls-4" d="M787.94,957.08v5h-1.61V949.3h4.08a3.68,3.68,0,0,1,2.81,1.07,3.94,3.94,0,0,1,1,2.84,3.89,3.89,0,0,1-1,2.84,3.7,3.7,0,0,1-2.73,1Zm0-1.37h2.47a2.1,2.1,0,0,0,1.65-.65,2.68,2.68,0,0,0,.57-1.84,2.79,2.79,0,0,0-.59-1.85,2,2,0,0,0-1.62-.69h-2.48Z"/><path class="cls-4" d="M800.89,962.09a3.18,3.18,0,0,1-.2-1,2.47,2.47,0,0,1-2.11,1.21,2.74,2.74,0,0,1-2-.72,2.8,2.8,0,0,1-.73-2,2.89,2.89,0,0,1,1-2.3,4,4,0,0,1,2.7-.87h1.14v-1a1.62,1.62,0,0,0-.38-1.21,1.6,1.6,0,0,0-1.15-.36,1.57,1.57,0,0,0-1.14.41,1.41,1.41,0,0,0-.44,1.06H796a2.58,2.58,0,0,1,.43-1.39,3.07,3.07,0,0,1,1.16-1,3.53,3.53,0,0,1,1.63-.38,3.12,3.12,0,0,1,2.22.72,2.84,2.84,0,0,1,.78,2.12v4.8a5.41,5.41,0,0,0,.3,1.9v.14Zm-2.08-1.23a2,2,0,0,0,1.09-.32,2,2,0,0,0,.76-.79v-2.27h-.88a2.93,2.93,0,0,0-1.75.5,1.56,1.56,0,0,0-.64,1.34,1.7,1.7,0,0,0,.33,1.17A1.4,1.4,0,0,0,798.81,960.86Z"/><path class="cls-4" d="M808.54,954a3.8,3.8,0,0,0-.7-.06,1.71,1.71,0,0,0-1.67,1.31v6.8h-1.55v-9.51h1.51l0,1a2,2,0,0,1,1.77-1.14,1.43,1.43,0,0,1,.62.12Z"/><path class="cls-4" d="M811.89,950.06a1,1,0,0,1-.22.66.8.8,0,0,1-.67.27.78.78,0,0,1-.65-.27,1,1,0,0,1-.22-.66,1,1,0,0,1,.22-.67.78.78,0,0,1,.65-.27.79.79,0,0,1,.67.28A1,1,0,0,1,811.89,950.06Zm-.12,12h-1.56v-9.51h1.56Z"/><path class="cls-4" d="M818.84,959.66a1.16,1.16,0,0,0-.38-.86A5.54,5.54,0,0,0,817,958a10,10,0,0,1-1.77-.89,2.52,2.52,0,0,1-.77-.84,2.32,2.32,0,0,1-.26-1.12,2.5,2.5,0,0,1,.85-1.93,3.13,3.13,0,0,1,2.17-.77,3.09,3.09,0,0,1,2.23.81,2.75,2.75,0,0,1,.84,2.07h-1.54a1.54,1.54,0,0,0-.43-1.09,1.47,1.47,0,0,0-1.1-.45,1.53,1.53,0,0,0-1.08.35,1.22,1.22,0,0,0-.39.95,1,1,0,0,0,.29.76,5,5,0,0,0,1.37.77,6.92,6.92,0,0,1,2.36,1.32,2.29,2.29,0,0,1,.62,1.64,2.51,2.51,0,0,1-.85,2,3.86,3.86,0,0,1-4.69-.11,2.81,2.81,0,0,1-.93-2.16h1.57a1.75,1.75,0,0,0,.48,1.24,1.79,1.79,0,0,0,1.28.44,1.77,1.77,0,0,0,1.18-.34A1.18,1.18,0,0,0,818.84,959.66Z"/><path class="cls-4" d="M826.51,956.9a14.86,14.86,0,0,1,.62-4.33A11.64,11.64,0,0,1,828.9,949a5.76,5.76,0,0,1,1.34-1.36l.3,1.08a7.4,7.4,0,0,0-1.73,3,15.55,15.55,0,0,0-.74,4.52V957a15.8,15.8,0,0,0,.87,5.46,7.83,7.83,0,0,0,1.61,2.76l-.3,1a6.69,6.69,0,0,1-1.65-1.8A13.28,13.28,0,0,1,826.51,956.9Z"/><path class="cls-4" d="M835.59,962.27a3.47,3.47,0,0,1-2.73-1.06,4.57,4.57,0,0,1-1-3.11V957a5.4,5.4,0,0,1,.92-3.33,3.07,3.07,0,0,1,2.59-1.21,3,3,0,0,1,2.5,1.06,5.48,5.48,0,0,1,.84,3.32v1h-5.31V958a3.43,3.43,0,0,0,.58,2.22,2,2,0,0,0,1.66.69,2.56,2.56,0,0,0,1.2-.26,2.85,2.85,0,0,0,1-.82l.81,1A3.51,3.51,0,0,1,835.59,962.27Zm-.18-8.52a1.63,1.63,0,0,0-1.43.66,3.93,3.93,0,0,0-.53,2.06h3.75v-.21a3.63,3.63,0,0,0-.49-1.93A1.51,1.51,0,0,0,835.41,953.75Z"/><path class="cls-4" d="M842.08,952.58l0,1a2.77,2.77,0,0,1,2.31-1.2c1.68,0,2.53,1.12,2.56,3.37v6.31h-1.55v-6.24a2.65,2.65,0,0,0-.37-1.59,1.36,1.36,0,0,0-1.12-.47,1.59,1.59,0,0,0-1.05.39,2.79,2.79,0,0,0-.74,1v6.9h-1.55v-9.51Z"/><path class="cls-4" d="M856.75,960.94a1.64,1.64,0,0,0,1.24-.48,2,2,0,0,0,.51-1.36H860a3.26,3.26,0,0,1-1,2.27,3.1,3.1,0,0,1-2.25.9,3.3,3.3,0,0,1-2.69-1.11,5.06,5.06,0,0,1-.93-3.31V956.8a5.08,5.08,0,0,1,.92-3.27,3.29,3.29,0,0,1,2.69-1.12,3,3,0,0,1,2.32.92,3.8,3.8,0,0,1,.91,2.52H858.5a2.56,2.56,0,0,0-.5-1.58,1.58,1.58,0,0,0-1.26-.52,1.75,1.75,0,0,0-1.53.68,3.85,3.85,0,0,0-.52,2.23v1.22a4.23,4.23,0,0,0,.49,2.37A1.81,1.81,0,0,0,856.75,960.94Z"/><path class="cls-4" d="M861.44,956.9a5,5,0,0,1,1-3.28,3.28,3.28,0,0,1,2.66-1.21,3.32,3.32,0,0,1,2.66,1.18,4.82,4.82,0,0,1,1,3.2v1a5,5,0,0,1-1,3.27,3.58,3.58,0,0,1-5.32,0,4.79,4.79,0,0,1-1-3.16Zm1.55.9a4,4,0,0,0,.58,2.3,1.78,1.78,0,0,0,1.55.84c1.37,0,2.08-1,2.12-3V956.9a4.11,4.11,0,0,0-.58-2.31,1.81,1.81,0,0,0-1.56-.84,1.76,1.76,0,0,0-1.53.84,4,4,0,0,0-.58,2.3Z"/><path class="cls-4" d="M875.65,961.26a2.69,2.69,0,0,1-2.26,1,2.28,2.28,0,0,1-1.95-.89,4.41,4.41,0,0,1-.67-2.6v-6.2h1.55v6.09c0,1.48.44,2.22,1.33,2.22a1.93,1.93,0,0,0,2-1.27v-7h1.56v9.51h-1.48Z"/><path class="cls-4" d="M883.43,954a3.92,3.92,0,0,0-.71-.06,1.72,1.72,0,0,0-1.67,1.31v6.8H879.5v-9.51H881l0,1a1.92,1.92,0,0,1,1.76-1.14,1.43,1.43,0,0,1,.62.12Z"/><path class="cls-4" d="M889.6,959.66a1.16,1.16,0,0,0-.38-.86,5.54,5.54,0,0,0-1.46-.84,10,10,0,0,1-1.77-.89,2.64,2.64,0,0,1-.77-.84,2.32,2.32,0,0,1-.26-1.12,2.5,2.5,0,0,1,.85-1.93,3.13,3.13,0,0,1,2.17-.77,3.07,3.07,0,0,1,2.23.81,2.76,2.76,0,0,1,.85,2.07h-1.55a1.5,1.5,0,0,0-.43-1.09,1.47,1.47,0,0,0-1.1-.45,1.53,1.53,0,0,0-1.08.35,1.22,1.22,0,0,0-.39.95,1,1,0,0,0,.29.76,5,5,0,0,0,1.37.77,6.92,6.92,0,0,1,2.36,1.32,2.29,2.29,0,0,1,.62,1.64,2.51,2.51,0,0,1-.85,2,3.86,3.86,0,0,1-4.69-.11,2.81,2.81,0,0,1-.93-2.16h1.57a1.59,1.59,0,0,0,1.76,1.68,1.77,1.77,0,0,0,1.18-.34A1.18,1.18,0,0,0,889.6,959.66Z"/><path class="cls-4" d="M896.52,957a13.43,13.43,0,0,1-1.76,6.93,7,7,0,0,1-2,2.31l-.31-1a7.5,7.5,0,0,0,1.78-3.24,16.54,16.54,0,0,0,.7-4.79v-.32a15.42,15.42,0,0,0-1.1-6,7.68,7.68,0,0,0-1.38-2.26l.31-1a7,7,0,0,1,1.87,2.14A13.68,13.68,0,0,1,896.52,957Z"/></g></g></g><g id="_2019" data-name="2019"><path id="Tracé-2" data-name="Tracé" class="cls-5" d="M542,690V852.26l20.45,20.17,20.45-20.17V690l-20.45,20.62Z"/><path id="Maison-2" data-name="Maison" class="cls-2" d="M571.64,779.44l-8.78-8.11a1.3,1.3,0,0,0-1.73,0l-1.84,1.7H557a1.54,1.54,0,0,0-1.54,1.54v2l-3.09,2.86a1.09,1.09,0,0,0-.36.81,1,1,0,0,0,.11.46,1.22,1.22,0,0,0,1.12.68h1.12v7.8a1.38,1.38,0,0,0,.48,1,1.62,1.62,0,0,0,1.09.41h12.16a1.62,1.62,0,0,0,1.09-.41,1.38,1.38,0,0,0,.48-1v-7.8h1.12a1.22,1.22,0,0,0,1.12-.68,1,1,0,0,0,.11-.46,1.11,1.11,0,0,0-.36-.81"/><g id="_2019-2" data-name="2019" class="cls-3"><g class="cls-3"><path class="cls-5" d="M626.46,795.68H607v-3.87l9.2-9.8a23,23,0,0,0,2.8-3.62,5.73,5.73,0,0,0,.91-2.93,4.31,4.31,0,0,0-1-3,3.43,3.43,0,0,0-2.73-1.09,3.72,3.72,0,0,0-3,1.32,5.19,5.19,0,0,0-1.1,3.47H606.4a9.3,9.3,0,0,1,1.24-4.75,8.83,8.83,0,0,1,3.51-3.37,10.68,10.68,0,0,1,5.13-1.22,10.08,10.08,0,0,1,6.83,2.11,7.47,7.47,0,0,1,2.43,6,9.51,9.51,0,0,1-1.09,4.29,23.9,23.9,0,0,1-3.75,5.1l-6.47,6.82h12.23Z"/><path class="cls-5" d="M647.9,783.92c0,3.93-.82,6.94-2.44,9a9.76,9.76,0,0,1-14.26,0q-2.46-3.06-2.52-8.79V779q0-6,2.47-9a9.77,9.77,0,0,1,14.23,0c1.64,2,2.48,5,2.52,8.78Zm-5.65-5.75a10.45,10.45,0,0,0-1-5.15,3.27,3.27,0,0,0-3-1.62,3.2,3.2,0,0,0-2.94,1.54,9.75,9.75,0,0,0-1,4.8v6.92a11,11,0,0,0,.95,5.17,3.21,3.21,0,0,0,3,1.69,3.18,3.18,0,0,0,3-1.62,10.64,10.64,0,0,0,1-5Z"/><path class="cls-5" d="M664.26,795.68h-5.65V773.92L651.87,776v-4.59l11.78-4.22h.61Z"/><path class="cls-5" d="M685.54,784.31a7.11,7.11,0,0,1-5.16,2.17,7.6,7.6,0,0,1-6-2.59,10.21,10.21,0,0,1-2.27-7,11,11,0,0,1,1.22-5.13,9,9,0,0,1,3.41-3.63,9.42,9.42,0,0,1,4.92-1.3,9,9,0,0,1,5,1.41,9.25,9.25,0,0,1,3.4,4,14.44,14.44,0,0,1,1.23,6v2.09q0,7.11-3.53,11.17t-10,4.33l-1.39,0v-4.7l1.25,0Q684.94,790.89,685.54,784.31Zm-3.77-2.15a3.93,3.93,0,0,0,2.35-.7,4.67,4.67,0,0,0,1.5-1.7v-2.32a7.78,7.78,0,0,0-1.1-4.46,3.4,3.4,0,0,0-2.93-1.58A3.29,3.29,0,0,0,678.8,773a6.57,6.57,0,0,0-1.09,3.89,6.43,6.43,0,0,0,1.06,3.82A3.46,3.46,0,0,0,681.77,782.16Z"/></g></g><g class="cls-3"><path class="cls-4" d="M105.24,790.64v-12.8h3.05a4.4,4.4,0,0,1,3.48,1.4,5.75,5.75,0,0,1,1.24,3.94v2.15a5.61,5.61,0,0,1-1.26,3.92,4.63,4.63,0,0,1-3.64,1.39Zm1.61-11.42v10h1.29a3,3,0,0,0,2.48-1,4.61,4.61,0,0,0,.8-2.89v-2.27a4.62,4.62,0,0,0-.78-3,2.87,2.87,0,0,0-2.35-.95Z"/><path class="cls-4" d="M118.7,790.81a3.47,3.47,0,0,1-2.73-1.06,4.56,4.56,0,0,1-1-3.1V785.5a5.43,5.43,0,0,1,.92-3.34,3.08,3.08,0,0,1,2.59-1.21A3,3,0,0,1,121,782a5.48,5.48,0,0,1,.84,3.32v1h-5.31v.22a3.47,3.47,0,0,0,.58,2.22,2,2,0,0,0,1.66.7,2.68,2.68,0,0,0,1.2-.26,3,3,0,0,0,1-.83l.81,1A3.51,3.51,0,0,1,118.7,790.81Zm-.18-8.52a1.63,1.63,0,0,0-1.43.66,3.93,3.93,0,0,0-.53,2.06h3.75v-.21a3.63,3.63,0,0,0-.49-1.93A1.51,1.51,0,0,0,118.52,782.29Zm.76-5.15h2l-2.36,2.58h-1.31Z"/><path class="cls-4" d="M126.31,788.27l1.8-7.14h1.58l-2.82,9.51h-1.16l-2.85-9.51h1.58Z"/><path class="cls-4" d="M134.6,790.81a3.47,3.47,0,0,1-2.73-1.06,4.56,4.56,0,0,1-1-3.1V785.5a5.37,5.37,0,0,1,.92-3.34,3.07,3.07,0,0,1,2.59-1.21,3,3,0,0,1,2.5,1.06,5.48,5.48,0,0,1,.84,3.32v1h-5.31v.22a3.41,3.41,0,0,0,.58,2.22,2,2,0,0,0,1.66.7,2.71,2.71,0,0,0,1.2-.26,3,3,0,0,0,1-.83l.81,1A3.51,3.51,0,0,1,134.6,790.81Zm-.18-8.52A1.63,1.63,0,0,0,133,783a3.93,3.93,0,0,0-.53,2.06h3.75v-.21a3.63,3.63,0,0,0-.49-1.93A1.51,1.51,0,0,0,134.42,782.29Z"/><path class="cls-4" d="M141.3,790.64h-1.55v-13.5h1.55Z"/><path class="cls-4" d="M143.42,785.44a5,5,0,0,1,1-3.28,3.28,3.28,0,0,1,2.66-1.21,3.33,3.33,0,0,1,2.66,1.18,4.88,4.88,0,0,1,1,3.21v1a5,5,0,0,1-1,3.27,3.59,3.59,0,0,1-5.33,0,4.91,4.91,0,0,1-1-3.16Zm1.56.9a4.07,4.07,0,0,0,.57,2.31,1.8,1.8,0,0,0,1.55.84c1.38,0,2.08-1,2.12-3v-1.07a4,4,0,0,0-.58-2.31,1.84,1.84,0,0,0-3.09,0,4.1,4.1,0,0,0-.57,2.3Z"/><path class="cls-4" d="M159.66,786.34a5.73,5.73,0,0,1-.82,3.37,2.7,2.7,0,0,1-2.3,1.1,2.54,2.54,0,0,1-2.2-1.08v4.56h-1.55V781.13h1.41l.08,1a2.49,2.49,0,0,1,2.24-1.23,2.68,2.68,0,0,1,2.34,1.09,5.83,5.83,0,0,1,.8,3.26Zm-1.55-.89a4.51,4.51,0,0,0-.49-2.36,1.75,1.75,0,0,0-1.59-.76,1.81,1.81,0,0,0-1.69,1.12v4.95a1.84,1.84,0,0,0,1.71,1.09,1.72,1.72,0,0,0,1.55-.77,4.38,4.38,0,0,0,.51-2.32Z"/><path class="cls-4" d="M168.53,786.34a5.73,5.73,0,0,1-.81,3.37,2.7,2.7,0,0,1-2.3,1.1,2.57,2.57,0,0,1-2.21-1.08v4.56h-1.54V781.13h1.4l.08,1a2.5,2.5,0,0,1,2.24-1.23,2.66,2.66,0,0,1,2.34,1.09,5.75,5.75,0,0,1,.8,3.26Zm-1.54-.89a4.41,4.41,0,0,0-.5-2.36,1.72,1.72,0,0,0-1.58-.76,1.84,1.84,0,0,0-1.7,1.12v4.95a1.86,1.86,0,0,0,1.72,1.09,1.72,1.72,0,0,0,1.55-.77,4.38,4.38,0,0,0,.51-2.32Z"/><path class="cls-4" d="M173.94,790.81a3.47,3.47,0,0,1-2.73-1.06,4.56,4.56,0,0,1-1-3.1V785.5a5.37,5.37,0,0,1,.92-3.34,3.07,3.07,0,0,1,2.59-1.21,3,3,0,0,1,2.5,1.06,5.48,5.48,0,0,1,.84,3.32v1h-5.31v.22a3.41,3.41,0,0,0,.58,2.22,2,2,0,0,0,1.66.7,2.71,2.71,0,0,0,1.2-.26,3,3,0,0,0,1-.83l.81,1A3.51,3.51,0,0,1,173.94,790.81Zm-.18-8.52a1.63,1.63,0,0,0-1.43.66,3.93,3.93,0,0,0-.53,2.06h3.75v-.21a3.73,3.73,0,0,0-.49-1.93A1.51,1.51,0,0,0,173.76,782.29Z"/><path class="cls-4" d="M180.43,781.13l0,.88a2.8,2.8,0,0,1,2.29-1.06,2.27,2.27,0,0,1,2.23,1.38,2.81,2.81,0,0,1,2.49-1.38c1.75,0,2.65,1.09,2.69,3.28v6.41h-1.55v-6.26a2.57,2.57,0,0,0-.37-1.54,1.61,1.61,0,0,0-2.39,0,2.5,2.5,0,0,0-.51,1.38v6.38h-1.56v-6.33c0-1.32-.55-2-1.61-2a1.69,1.69,0,0,0-1.66,1.18v7.13H179v-9.51Z"/><path class="cls-4" d="M195.91,790.81a3.45,3.45,0,0,1-2.72-1.06,4.51,4.51,0,0,1-1-3.1V785.5a5.37,5.37,0,0,1,.93-3.34,3.05,3.05,0,0,1,2.58-1.21,3,3,0,0,1,2.5,1.06,5.48,5.48,0,0,1,.84,3.32v1h-5.3v.22a3.48,3.48,0,0,0,.57,2.22,2,2,0,0,0,1.66.7,2.73,2.73,0,0,0,1.21-.26,3.22,3.22,0,0,0,1-.83l.81,1A3.54,3.54,0,0,1,195.91,790.81Zm-.18-8.52a1.63,1.63,0,0,0-1.43.66,4,4,0,0,0-.53,2.06h3.75v-.21a3.63,3.63,0,0,0-.49-1.93A1.5,1.5,0,0,0,195.73,782.29Z"/><path class="cls-4" d="M202.41,781.13l0,1a2.75,2.75,0,0,1,2.31-1.21c1.68,0,2.53,1.12,2.56,3.37v6.32h-1.55v-6.25a2.6,2.6,0,0,0-.37-1.59,1.35,1.35,0,0,0-1.12-.47,1.55,1.55,0,0,0-1,.39,2.78,2.78,0,0,0-.75,1v6.91h-1.55v-9.51Z"/><path class="cls-4" d="M211.69,778.82v2.31h1.43v1.25h-1.43v5.91a1.63,1.63,0,0,0,.18.85.68.68,0,0,0,.63.29,2,2,0,0,0,.63-.1l0,1.31a3.59,3.59,0,0,1-1.08.17,1.65,1.65,0,0,1-1.41-.66,3.12,3.12,0,0,1-.48-1.86v-5.91h-1.45v-1.25h1.45v-2.31Z"/><path class="cls-4" d="M218.76,785.45a5.81,5.81,0,0,1,.82-3.35,2.73,2.73,0,0,1,2.36-1.15,2.44,2.44,0,0,1,2.13,1.11v-4.92h1.56v13.5H224.2l-.08-1a2.46,2.46,0,0,1-2.19,1.19,2.71,2.71,0,0,1-2.31-1.14,5.5,5.5,0,0,1-.86-3.24Zm1.56.88a4.57,4.57,0,0,0,.47,2.35,1.69,1.69,0,0,0,1.55.75,1.85,1.85,0,0,0,1.73-1.16v-4.8a1.87,1.87,0,0,0-1.72-1.14,1.69,1.69,0,0,0-1.55.75,4.37,4.37,0,0,0-.48,2.31Z"/><path class="cls-4" d="M232.87,789.8a2.66,2.66,0,0,1-2.26,1,2.26,2.26,0,0,1-2-.89,4.39,4.39,0,0,1-.67-2.6v-6.19h1.55v6.08c0,1.48.44,2.22,1.33,2.22a1.94,1.94,0,0,0,1.95-1.26v-7h1.56v9.51H232.9Z"/><path class="cls-4" d="M242.31,781.13l0,.88a2.82,2.82,0,0,1,2.3-1.06,2.24,2.24,0,0,1,2.22,1.38,2.83,2.83,0,0,1,2.5-1.38c1.75,0,2.64,1.09,2.69,3.28v6.41H250.5v-6.26a2.57,2.57,0,0,0-.37-1.54,1.44,1.44,0,0,0-1.25-.51,1.38,1.38,0,0,0-1.14.55,2.5,2.5,0,0,0-.51,1.38v6.38h-1.56v-6.33c0-1.32-.56-2-1.61-2a1.68,1.68,0,0,0-1.66,1.18v7.13h-1.55v-9.51Z"/><path class="cls-4" d="M257.79,790.81a3.46,3.46,0,0,1-2.73-1.06,4.61,4.61,0,0,1-1-3.1V785.5a5.37,5.37,0,0,1,.93-3.34,3.07,3.07,0,0,1,2.59-1.21,3,3,0,0,1,2.5,1.06,5.48,5.48,0,0,1,.84,3.32v1h-5.31v.22a3.41,3.41,0,0,0,.58,2.22,2,2,0,0,0,1.65.7,2.73,2.73,0,0,0,1.21-.26,3,3,0,0,0,1-.83l.81,1A3.51,3.51,0,0,1,257.79,790.81Zm-.18-8.52a1.62,1.62,0,0,0-1.43.66,3.93,3.93,0,0,0-.53,2.06h3.74v-.21a3.65,3.65,0,0,0-.48-1.93A1.51,1.51,0,0,0,257.61,782.29Zm.76-5.15h2L258,779.72h-1.31Z"/><path class="cls-4" d="M264.85,778.82v2.31h1.43v1.25h-1.43v5.91a1.53,1.53,0,0,0,.19.85.67.67,0,0,0,.63.29,2,2,0,0,0,.62-.1v1.31a3.7,3.7,0,0,1-1.09.17,1.63,1.63,0,0,1-1.4-.66,3.12,3.12,0,0,1-.49-1.86v-5.91h-1.45v-1.25h1.45v-2.31Z"/><path class="cls-4" d="M269.93,778.6a1,1,0,0,1-.22.66,1,1,0,0,1-1.33,0,1,1,0,0,1-.21-.66,1,1,0,0,1,.21-.66.79.79,0,0,1,.66-.28.82.82,0,0,1,.67.28A1,1,0,0,1,269.93,778.6Zm-.12,12h-1.56v-9.51h1.56Z"/><path class="cls-4" d="M275.65,790.81a3.45,3.45,0,0,1-2.72-1.06,4.56,4.56,0,0,1-1-3.1V785.5a5.37,5.37,0,0,1,.93-3.34,3.07,3.07,0,0,1,2.59-1.21A3,3,0,0,1,278,782a5.48,5.48,0,0,1,.85,3.32v1h-5.31v.22a3.48,3.48,0,0,0,.57,2.22,2.06,2.06,0,0,0,1.66.7,2.73,2.73,0,0,0,1.21-.26,3.1,3.1,0,0,0,1-.83l.81,1A3.53,3.53,0,0,1,275.65,790.81Zm-.17-8.52A1.65,1.65,0,0,0,274,783a3.93,3.93,0,0,0-.52,2.06h3.74v-.21a3.54,3.54,0,0,0-.49-1.93A1.48,1.48,0,0,0,275.48,782.29Z"/><path class="cls-4" d="M284.61,782.59a3.14,3.14,0,0,0-.7-.07,1.7,1.7,0,0,0-1.67,1.31v6.81h-1.56v-9.51h1.51l0,1A1.93,1.93,0,0,1,284,781a1.38,1.38,0,0,1,.61.12Z"/><path class="cls-4" d="M290,785.45a5.81,5.81,0,0,1,.82-3.35,2.73,2.73,0,0,1,2.36-1.15,2.44,2.44,0,0,1,2.13,1.11v-4.92h1.56v13.5h-1.43l-.08-1a2.44,2.44,0,0,1-2.18,1.19,2.72,2.72,0,0,1-2.32-1.14,5.5,5.5,0,0,1-.86-3.24Zm1.56.88a4.57,4.57,0,0,0,.47,2.35,1.71,1.71,0,0,0,1.55.75,1.85,1.85,0,0,0,1.73-1.16v-4.8a1.87,1.87,0,0,0-1.72-1.14,1.69,1.69,0,0,0-1.55.75,4.47,4.47,0,0,0-.48,2.31Z"/><path class="cls-4" d="M299.41,781.44l-.87-.63a4.8,4.8,0,0,0,.71-2.39v-1.28h1.54v1.18a4.42,4.42,0,0,1-.39,1.71A3.89,3.89,0,0,1,299.41,781.44Z"/><path class="cls-4" d="M305.59,790.81a3.48,3.48,0,0,1-2.73-1.06,4.56,4.56,0,0,1-1-3.1V785.5a5.43,5.43,0,0,1,.92-3.34,3.08,3.08,0,0,1,2.59-1.21,3,3,0,0,1,2.5,1.06,5.48,5.48,0,0,1,.84,3.32v1h-5.31v.22a3.47,3.47,0,0,0,.58,2.22,2,2,0,0,0,1.66.7,2.68,2.68,0,0,0,1.2-.26,3.13,3.13,0,0,0,1-.83l.8,1A3.51,3.51,0,0,1,305.59,790.81Zm-.18-8.52A1.63,1.63,0,0,0,304,783a3.93,3.93,0,0,0-.53,2.06h3.75v-.21a3.63,3.63,0,0,0-.49-1.93A1.51,1.51,0,0,0,305.41,782.29Zm.76-5.15h2l-2.36,2.58h-1.31Z"/><path class="cls-4" d="M313.92,789.49a1.64,1.64,0,0,0,1.24-.48,2.05,2.05,0,0,0,.51-1.37h1.47a3.26,3.26,0,0,1-1,2.27,3.1,3.1,0,0,1-2.25.9,3.29,3.29,0,0,1-2.69-1.11,5,5,0,0,1-.93-3.31v-1a5.09,5.09,0,0,1,.92-3.28,3.28,3.28,0,0,1,2.69-1.12,3,3,0,0,1,2.32.92,3.81,3.81,0,0,1,.91,2.53h-1.47a2.59,2.59,0,0,0-.51-1.59,1.55,1.55,0,0,0-1.25-.52,1.78,1.78,0,0,0-1.54.68,4,4,0,0,0-.51,2.24v1.21a4.23,4.23,0,0,0,.49,2.37A1.81,1.81,0,0,0,313.92,789.49Z"/><path class="cls-4" d="M318.61,785.44a5,5,0,0,1,1-3.28,3.28,3.28,0,0,1,2.66-1.21,3.32,3.32,0,0,1,2.66,1.18,4.88,4.88,0,0,1,1,3.21v1a4.93,4.93,0,0,1-1,3.27,3.58,3.58,0,0,1-5.32,0,4.79,4.79,0,0,1-1-3.16Zm1.55.9a4,4,0,0,0,.58,2.31,1.78,1.78,0,0,0,1.55.84c1.37,0,2.08-1,2.12-3v-1.07a4.11,4.11,0,0,0-.58-2.31,1.81,1.81,0,0,0-1.56-.84,1.76,1.76,0,0,0-1.53.84,4,4,0,0,0-.58,2.3Z"/><path class="cls-4" d="M329.43,781.13l.05,1a2.75,2.75,0,0,1,2.31-1.21c1.68,0,2.53,1.12,2.56,3.37v6.32H332.8v-6.25a2.67,2.67,0,0,0-.37-1.59,1.36,1.36,0,0,0-1.12-.47,1.59,1.59,0,0,0-1.05.39,2.88,2.88,0,0,0-.74,1v6.91H328v-9.51Z"/><path class="cls-4" d="M336.35,785.44a5,5,0,0,1,1-3.28,3.55,3.55,0,0,1,5.31,0,4.88,4.88,0,0,1,1,3.21v1a5,5,0,0,1-1,3.27,3.59,3.59,0,0,1-5.33,0,4.85,4.85,0,0,1-1-3.16Zm1.56.9a4.07,4.07,0,0,0,.57,2.31,1.8,1.8,0,0,0,1.55.84c1.37,0,2.08-1,2.12-3v-1.07a4,4,0,0,0-.58-2.31,1.84,1.84,0,0,0-3.09,0,4.1,4.1,0,0,0-.57,2.3Z"/><path class="cls-4" d="M347.18,781.13l0,.88a2.82,2.82,0,0,1,2.3-1.06,2.24,2.24,0,0,1,2.22,1.38,2.83,2.83,0,0,1,2.5-1.38c1.75,0,2.65,1.09,2.69,3.28v6.41h-1.55v-6.26a2.57,2.57,0,0,0-.37-1.54,1.44,1.44,0,0,0-1.25-.51,1.38,1.38,0,0,0-1.14.55,2.5,2.5,0,0,0-.51,1.38v6.38h-1.56v-6.33c0-1.32-.56-2-1.61-2a1.68,1.68,0,0,0-1.66,1.18v7.13h-1.55v-9.51Z"/><path class="cls-4" d="M361.06,778.6a1,1,0,0,1-.22.66,1,1,0,0,1-1.33,0,1,1,0,0,1-.22-.66,1,1,0,0,1,.22-.66.79.79,0,0,1,.66-.28.82.82,0,0,1,.66.28A1,1,0,0,1,361.06,778.6Zm-.13,12h-1.55v-9.51h1.55Z"/><path class="cls-4" d="M368,788.2a1.16,1.16,0,0,0-.38-.86,5.54,5.54,0,0,0-1.46-.84,9.7,9.7,0,0,1-1.77-.89,2.64,2.64,0,0,1-.77-.84,2.32,2.32,0,0,1-.25-1.12,2.48,2.48,0,0,1,.85-1.93,3.46,3.46,0,0,1,4.4,0,2.75,2.75,0,0,1,.84,2.07h-1.55a1.52,1.52,0,0,0-.43-1.09,1.45,1.45,0,0,0-1.1-.45,1.57,1.57,0,0,0-1.07.35,1.2,1.2,0,0,0-.39,1,1.06,1.06,0,0,0,.28.77,5.31,5.31,0,0,0,1.38.76,6.86,6.86,0,0,1,2.35,1.32,2.26,2.26,0,0,1,.63,1.64,2.52,2.52,0,0,1-.86,2A3.86,3.86,0,0,1,364,790a2.8,2.8,0,0,1-.92-2.16h1.56a1.87,1.87,0,0,0,3,1.34A1.18,1.18,0,0,0,368,788.2Z"/><path class="cls-4" d="M373.62,778.82v2.31h1.43v1.25h-1.43v5.91a1.63,1.63,0,0,0,.18.85.67.67,0,0,0,.63.29,2,2,0,0,0,.63-.1l0,1.31a3.59,3.59,0,0,1-1.08.17,1.65,1.65,0,0,1-1.41-.66,3.12,3.12,0,0,1-.48-1.86v-5.91h-1.45v-1.25h1.45v-2.31Z"/><path class="cls-4" d="M380.3,790.81a3.46,3.46,0,0,1-2.73-1.06,4.61,4.61,0,0,1-1-3.1V785.5a5.37,5.37,0,0,1,.93-3.34,3.07,3.07,0,0,1,2.59-1.21,3,3,0,0,1,2.5,1.06,5.48,5.48,0,0,1,.84,3.32v1h-5.31v.22a3.41,3.41,0,0,0,.58,2.22,2,2,0,0,0,1.65.7,2.73,2.73,0,0,0,1.21-.26,3,3,0,0,0,1-.83l.81,1A3.51,3.51,0,0,1,380.3,790.81Zm-.18-8.52a1.63,1.63,0,0,0-1.43.66,3.93,3.93,0,0,0-.53,2.06h3.74v-.21a3.65,3.65,0,0,0-.48-1.93A1.51,1.51,0,0,0,380.12,782.29Z"/><path class="cls-4" d="M389.12,785.45a5.73,5.73,0,0,1,.82-3.35A2.73,2.73,0,0,1,392.3,781a2.44,2.44,0,0,1,2.13,1.11v-4.92H396v13.5h-1.42l-.08-1a2.46,2.46,0,0,1-2.19,1.19,2.71,2.71,0,0,1-2.31-1.14,5.5,5.5,0,0,1-.86-3.24Zm1.56.88a4.47,4.47,0,0,0,.47,2.35,1.69,1.69,0,0,0,1.55.75,1.85,1.85,0,0,0,1.73-1.16v-4.8a1.87,1.87,0,0,0-1.72-1.14,1.69,1.69,0,0,0-1.55.75,4.37,4.37,0,0,0-.48,2.31Z"/><path class="cls-4" d="M401.78,790.81a3.46,3.46,0,0,1-2.73-1.06,4.61,4.61,0,0,1-1-3.1V785.5a5.37,5.37,0,0,1,.93-3.34A3.07,3.07,0,0,1,401.6,781a3,3,0,0,1,2.5,1.06,5.48,5.48,0,0,1,.84,3.32v1h-5.31v.22a3.41,3.41,0,0,0,.58,2.22,2,2,0,0,0,1.65.7,2.73,2.73,0,0,0,1.21-.26,3,3,0,0,0,1-.83l.81,1A3.51,3.51,0,0,1,401.78,790.81Zm-.18-8.52a1.63,1.63,0,0,0-1.43.66,3.93,3.93,0,0,0-.53,2.06h3.74v-.21a3.65,3.65,0,0,0-.48-1.93A1.51,1.51,0,0,0,401.6,782.29Z"/><path class="cls-4" d="M412.6,790.64h-1.55v-13.5h1.55Z"/><path class="cls-4" d="M419.94,790.64a3.56,3.56,0,0,1-.2-1,2.46,2.46,0,0,1-2.11,1.21,2.76,2.76,0,0,1-2-.72,2.8,2.8,0,0,1-.72-2.05,2.91,2.91,0,0,1,1-2.3,4,4,0,0,1,2.7-.87h1.14v-1a1.59,1.59,0,0,0-2.67-1.15,1.39,1.39,0,0,0-.44,1h-1.55a2.5,2.5,0,0,1,.43-1.39,3,3,0,0,1,1.16-1,3.49,3.49,0,0,1,1.62-.38,3,3,0,0,1,2.22.73,2.8,2.8,0,0,1,.78,2.11v4.8a6,6,0,0,0,.3,1.91v.14Zm-2.07-1.24a2.09,2.09,0,0,0,1.09-.32,1.89,1.89,0,0,0,.75-.79V786h-.87a2.91,2.91,0,0,0-1.75.5,1.58,1.58,0,0,0-.64,1.34,1.71,1.71,0,0,0,.32,1.17A1.39,1.39,0,0,0,417.87,789.4Z"/><path class="cls-4" d="M431.1,789.49a1.66,1.66,0,0,0,1.24-.48,2.05,2.05,0,0,0,.51-1.37h1.46a3.22,3.22,0,0,1-1,2.27,3.08,3.08,0,0,1-2.24.9,3.32,3.32,0,0,1-2.7-1.11,5,5,0,0,1-.92-3.31v-1a5,5,0,0,1,.92-3.28,3.27,3.27,0,0,1,2.69-1.12,3,3,0,0,1,2.31.92,3.76,3.76,0,0,1,.91,2.53h-1.46a2.66,2.66,0,0,0-.51-1.59,1.56,1.56,0,0,0-1.25-.52,1.77,1.77,0,0,0-1.54.68,3.94,3.94,0,0,0-.52,2.24v1.21a4.21,4.21,0,0,0,.5,2.37A1.8,1.8,0,0,0,431.1,789.49Z"/><path class="cls-4" d="M435.78,785.44a5,5,0,0,1,1-3.28,3.55,3.55,0,0,1,5.31,0,4.83,4.83,0,0,1,1,3.21v1a5,5,0,0,1-1,3.27,3.59,3.59,0,0,1-5.33,0,4.85,4.85,0,0,1-1-3.16Zm1.56.9a4.07,4.07,0,0,0,.57,2.31,1.8,1.8,0,0,0,1.55.84c1.37,0,2.08-1,2.12-3v-1.07a4,4,0,0,0-.58-2.31,1.84,1.84,0,0,0-3.09,0,4.1,4.1,0,0,0-.57,2.3Z"/><path class="cls-4" d="M446.61,781.13l0,1A2.78,2.78,0,0,1,449,781c1.69,0,2.54,1.12,2.56,3.37v6.32H450v-6.25a2.59,2.59,0,0,0-.38-1.59,1.35,1.35,0,0,0-1.12-.47,1.57,1.57,0,0,0-1,.39,2.66,2.66,0,0,0-.74,1v6.91h-1.56v-9.51Z"/><path class="cls-4" d="M458.47,788.2a1.15,1.15,0,0,0-.37-.86,5.72,5.72,0,0,0-1.46-.84,9.36,9.36,0,0,1-1.77-.89,2.52,2.52,0,0,1-.77-.84,2.32,2.32,0,0,1-.26-1.12,2.48,2.48,0,0,1,.85-1.93,3.13,3.13,0,0,1,2.17-.77,3.09,3.09,0,0,1,2.23.81,2.75,2.75,0,0,1,.84,2.07h-1.54a1.56,1.56,0,0,0-.43-1.09,1.47,1.47,0,0,0-1.1-.45,1.58,1.58,0,0,0-1.08.35,1.24,1.24,0,0,0-.39,1,1.06,1.06,0,0,0,.28.77,5.5,5.5,0,0,0,1.38.76,6.92,6.92,0,0,1,2.36,1.32,2.29,2.29,0,0,1,.62,1.64,2.51,2.51,0,0,1-.85,2,3.88,3.88,0,0,1-4.7-.11,2.83,2.83,0,0,1-.92-2.16h1.57a1.69,1.69,0,0,0,.48,1.24,1.74,1.74,0,0,0,1.28.45,1.77,1.77,0,0,0,1.18-.35A1.18,1.18,0,0,0,458.47,788.2Z"/><path class="cls-4" d="M464.09,778.82v2.31h1.43v1.25h-1.43v5.91a1.53,1.53,0,0,0,.19.85.67.67,0,0,0,.63.29,2,2,0,0,0,.62-.1l0,1.31a3.59,3.59,0,0,1-1.08.17,1.63,1.63,0,0,1-1.4-.66,3.12,3.12,0,0,1-.49-1.86v-5.91h-1.45v-1.25h1.45v-2.31Z"/><path class="cls-4" d="M471.3,782.59a3.17,3.17,0,0,0-.71-.07,1.72,1.72,0,0,0-1.67,1.31v6.81h-1.55v-9.51h1.51l0,1a1.92,1.92,0,0,1,1.76-1.14,1.43,1.43,0,0,1,.62.12Z"/><path class="cls-4" d="M477.7,789.8a2.66,2.66,0,0,1-2.26,1,2.26,2.26,0,0,1-1.95-.89,4.31,4.31,0,0,1-.67-2.6v-6.19h1.55v6.08c0,1.48.44,2.22,1.33,2.22a2,2,0,0,0,1.95-1.26v-7h1.56v9.51h-1.48Z"/><path class="cls-4" d="M484.85,789.49a1.64,1.64,0,0,0,1.24-.48,2.05,2.05,0,0,0,.51-1.37h1.47a3.26,3.26,0,0,1-1,2.27,3.1,3.1,0,0,1-2.25.9,3.29,3.29,0,0,1-2.69-1.11,5,5,0,0,1-.93-3.31v-1a5.09,5.09,0,0,1,.92-3.28,3.28,3.28,0,0,1,2.69-1.12,3,3,0,0,1,2.32.92,3.81,3.81,0,0,1,.91,2.53H486.6a2.59,2.59,0,0,0-.51-1.59,1.55,1.55,0,0,0-1.25-.52,1.78,1.78,0,0,0-1.54.68,4,4,0,0,0-.51,2.24v1.21a4.23,4.23,0,0,0,.49,2.37A1.81,1.81,0,0,0,484.85,789.49Z"/><path class="cls-4" d="M491.9,778.82v2.31h1.43v1.25H491.9v5.91a1.63,1.63,0,0,0,.18.85.7.7,0,0,0,.64.29,2,2,0,0,0,.62-.1l0,1.31a3.59,3.59,0,0,1-1.08.17,1.63,1.63,0,0,1-1.4-.66,3,3,0,0,1-.49-1.86v-5.91H488.9v-1.25h1.45v-2.31Z"/><path class="cls-4" d="M497,778.6a1,1,0,0,1-.22.66,1,1,0,0,1-1.33,0,1,1,0,0,1-.22-.66,1,1,0,0,1,.22-.66.79.79,0,0,1,.66-.28.8.8,0,0,1,.66.28A1,1,0,0,1,497,778.6Zm-.12,12H495.3v-9.51h1.56Z"/><path class="cls-4" d="M499,785.44a5,5,0,0,1,1-3.28,3.28,3.28,0,0,1,2.66-1.21,3.32,3.32,0,0,1,2.66,1.18,4.88,4.88,0,0,1,1,3.21v1a4.93,4.93,0,0,1-1,3.27,3.58,3.58,0,0,1-5.32,0,4.85,4.85,0,0,1-1-3.16Zm1.56.9a4,4,0,0,0,.58,2.31,1.78,1.78,0,0,0,1.55.84c1.37,0,2.07-1,2.12-3v-1.07a4.11,4.11,0,0,0-.58-2.31,1.81,1.81,0,0,0-1.56-.84,1.76,1.76,0,0,0-1.53.84,4,4,0,0,0-.58,2.3Z"/><path class="cls-4" d="M509.8,781.13l.05,1a2.75,2.75,0,0,1,2.31-1.21c1.68,0,2.53,1.12,2.56,3.37v6.32h-1.55v-6.25a2.59,2.59,0,0,0-.38-1.59,1.34,1.34,0,0,0-1.12-.47,1.58,1.58,0,0,0-1,.39,2.88,2.88,0,0,0-.74,1v6.91h-1.56v-9.51Z"/></g></g><g id="_2017" data-name="2017"><path id="Tracé-3" data-name="Tracé" class="cls-6" d="M542,517.92V680.18l20.45,20.17,20.45-20.17V517.92l-20.45,20.62Z"/><path id="Maison-3" data-name="Maison" class="cls-2" d="M571.64,607.36l-8.78-8.11a1.3,1.3,0,0,0-1.73,0l-1.84,1.7H557a1.54,1.54,0,0,0-1.54,1.54v2l-3.09,2.86a1.09,1.09,0,0,0-.36.81,1.12,1.12,0,0,0,.11.47,1.22,1.22,0,0,0,1.12.67h1.12v7.8a1.38,1.38,0,0,0,.48,1,1.62,1.62,0,0,0,1.09.41h12.16a1.62,1.62,0,0,0,1.09-.41,1.38,1.38,0,0,0,.48-1v-7.8h1.12a1.22,1.22,0,0,0,1.12-.67,1.12,1.12,0,0,0,.11-.47,1.13,1.13,0,0,0-.36-.81"/><g id="_2017-2" data-name="2017" class="cls-3"><g class="cls-3"><path class="cls-6" d="M452.2,623.6H432.71v-3.87l9.2-9.8a22.89,22.89,0,0,0,2.8-3.61,5.78,5.78,0,0,0,.91-2.93,4.32,4.32,0,0,0-1-3,3.45,3.45,0,0,0-2.73-1.09,3.73,3.73,0,0,0-3,1.32,5.27,5.27,0,0,0-1.1,3.47h-5.66a9.33,9.33,0,0,1,1.24-4.75,8.74,8.74,0,0,1,3.5-3.37,10.69,10.69,0,0,1,5.14-1.22,10.1,10.1,0,0,1,6.82,2.11,7.44,7.44,0,0,1,2.44,6,9.57,9.57,0,0,1-1.1,4.3,24.13,24.13,0,0,1-3.75,5.09L440,619.05H452.2Z"/><path class="cls-6" d="M473.64,611.84c0,3.94-.81,6.94-2.44,9a9.77,9.77,0,0,1-14.26.06q-2.46-3.07-2.52-8.79V606.9c0-4,.83-7,2.47-9a9.77,9.77,0,0,1,14.23,0c1.64,2,2.48,5,2.52,8.78ZM468,606.09a10.44,10.44,0,0,0-1-5.15,3.26,3.26,0,0,0-3-1.62,3.22,3.22,0,0,0-2.94,1.54,9.76,9.76,0,0,0-1,4.8v6.92a11,11,0,0,0,.94,5.17,3.23,3.23,0,0,0,3,1.69,3.17,3.17,0,0,0,3-1.62,10.75,10.75,0,0,0,1-5Z"/><path class="cls-6" d="M490,623.6h-5.64V601.84l-6.74,2.09v-4.59l11.78-4.22h.6Z"/><path class="cls-6" d="M517.42,598.31l-11,25.29h-6l11-23.89H497.34v-4.55h20.08Z"/></g></g><g id="Texte-2" data-name="Texte" class="cls-3"><g class="cls-3"><path class="cls-4" d="M615.7,611.84a6.43,6.43,0,0,1-1.11,4,3.82,3.82,0,0,1-3.18,1.41,3.87,3.87,0,0,1-3.12-1.37A6.14,6.14,0,0,1,607.1,612v-2.41a6.43,6.43,0,0,1,1.13-4,3.8,3.8,0,0,1,3.17-1.46,3.85,3.85,0,0,1,3.15,1.4,6.24,6.24,0,0,1,1.15,4Zm-1.61-2.24a5.52,5.52,0,0,0-.66-3,2.54,2.54,0,0,0-4,0,5.18,5.18,0,0,0-.69,2.95v2.29a5.44,5.44,0,0,0,.68,3,2.56,2.56,0,0,0,4,.08,5.29,5.29,0,0,0,.67-2.91Z"/><path class="cls-4" d="M622.82,616.28a2.65,2.65,0,0,1-2.26,1,2.26,2.26,0,0,1-1.95-.89,4.39,4.39,0,0,1-.67-2.6v-6.19h1.55v6.08c0,1.48.45,2.22,1.34,2.22a2,2,0,0,0,1.95-1.26v-7h1.55v9.51h-1.47Z"/><path class="cls-4" d="M629.37,614.75l1.8-7.14h1.58l-2.82,9.51h-1.16l-2.85-9.51h1.58Z"/><path class="cls-4" d="M637.66,617.29a3.47,3.47,0,0,1-2.73-1.06,4.56,4.56,0,0,1-1-3.1V612a5.42,5.42,0,0,1,.92-3.33,3.08,3.08,0,0,1,2.59-1.21,3,3,0,0,1,2.5,1.06,5.48,5.48,0,0,1,.84,3.32v1h-5.31v.22a3.47,3.47,0,0,0,.58,2.22,2,2,0,0,0,1.66.69,2.76,2.76,0,0,0,1.21-.25,3.08,3.08,0,0,0,1-.83l.81,1A3.51,3.51,0,0,1,637.66,617.29Zm-.18-8.52a1.63,1.63,0,0,0-1.43.66,3.93,3.93,0,0,0-.53,2.06h3.75v-.21a3.63,3.63,0,0,0-.49-1.93A1.51,1.51,0,0,0,637.48,608.77Z"/><path class="cls-4" d="M646.61,609.07a3.08,3.08,0,0,0-.7-.07,1.71,1.71,0,0,0-1.67,1.31v6.81h-1.55v-9.51h1.51l0,1a2,2,0,0,1,1.77-1.14,1.43,1.43,0,0,1,.62.12Z"/><path class="cls-4" d="M650.64,605.3v2.31h1.43v1.25h-1.43v5.91a1.63,1.63,0,0,0,.18.85.7.7,0,0,0,.64.29,2,2,0,0,0,.62-.1l0,1.31a3.59,3.59,0,0,1-1.08.17,1.63,1.63,0,0,1-1.4-.66,3,3,0,0,1-.49-1.86v-5.91h-1.45v-1.25h1.45V605.3Z"/><path class="cls-4" d="M658.77,616.28a2.66,2.66,0,0,1-2.26,1,2.26,2.26,0,0,1-2-.89,4.39,4.39,0,0,1-.67-2.6v-6.19h1.55v6.08c0,1.48.44,2.22,1.33,2.22a2,2,0,0,0,2-1.26v-7h1.55v9.51H658.8Z"/><path class="cls-4" d="M666.55,609.07a3.17,3.17,0,0,0-.71-.07,1.72,1.72,0,0,0-1.67,1.31v6.81h-1.55v-9.51h1.51l0,1a1.92,1.92,0,0,1,1.76-1.14,1.4,1.4,0,0,1,.62.12Z"/><path class="cls-4" d="M671.33,617.29a3.48,3.48,0,0,1-2.73-1.06,4.56,4.56,0,0,1-1-3.1V612a5.42,5.42,0,0,1,.92-3.33,3.08,3.08,0,0,1,2.59-1.21,3,3,0,0,1,2.5,1.06,5.48,5.48,0,0,1,.84,3.32v1h-5.31v.22a3.47,3.47,0,0,0,.58,2.22,2,2,0,0,0,1.66.69,2.68,2.68,0,0,0,1.2-.25,3.13,3.13,0,0,0,1-.83l.8,1A3.51,3.51,0,0,1,671.33,617.29Zm-.18-8.52a1.63,1.63,0,0,0-1.43.66,3.93,3.93,0,0,0-.53,2.06h3.75v-.21a3.63,3.63,0,0,0-.49-1.93A1.5,1.5,0,0,0,671.15,608.77Z"/><path class="cls-4" d="M680.15,611.93a5.81,5.81,0,0,1,.82-3.35,2.73,2.73,0,0,1,2.36-1.15,2.44,2.44,0,0,1,2.13,1.11v-4.92H687v13.5h-1.43l-.08-1a2.44,2.44,0,0,1-2.18,1.19,2.72,2.72,0,0,1-2.32-1.14,5.57,5.57,0,0,1-.86-3.24Zm1.56.88a4.57,4.57,0,0,0,.47,2.35,1.71,1.71,0,0,0,1.55.75,1.85,1.85,0,0,0,1.73-1.16V610a1.87,1.87,0,0,0-1.72-1.14,1.69,1.69,0,0,0-1.55.75,4.47,4.47,0,0,0-.48,2.31Z"/><path class="cls-4" d="M692.81,617.29a3.48,3.48,0,0,1-2.73-1.06,4.56,4.56,0,0,1-1-3.1V612a5.42,5.42,0,0,1,.92-3.33,3.08,3.08,0,0,1,2.59-1.21,3,3,0,0,1,2.5,1.06,5.48,5.48,0,0,1,.84,3.32v1h-5.3v.22a3.48,3.48,0,0,0,.57,2.22,2,2,0,0,0,1.66.69,2.76,2.76,0,0,0,1.21-.25,3.1,3.1,0,0,0,1-.83l.8,1A3.51,3.51,0,0,1,692.81,617.29Zm-.18-8.52a1.63,1.63,0,0,0-1.43.66,3.93,3.93,0,0,0-.53,2.06h3.75v-.21a3.63,3.63,0,0,0-.49-1.93A1.5,1.5,0,0,0,692.63,608.77Z"/><path class="cls-4" d="M703.64,617.12h-1.56v-13.5h1.56Z"/><path class="cls-4" d="M706.28,607.92l-.87-.63a4.7,4.7,0,0,0,.71-2.39v-1.28h1.54v1.18a4.42,4.42,0,0,1-.39,1.71A3.89,3.89,0,0,1,706.28,607.92Z"/><path class="cls-4" d="M714,617.12a3.19,3.19,0,0,1-.21-1,2.46,2.46,0,0,1-2.11,1.21,2.72,2.72,0,0,1-2-.72,2.76,2.76,0,0,1-.73-2.05,2.89,2.89,0,0,1,1-2.3,4,4,0,0,1,2.69-.87h1.15v-1a1.34,1.34,0,0,0-1.53-1.57,1.65,1.65,0,0,0-1.15.41,1.42,1.42,0,0,0-.43,1.06h-1.56a2.5,2.5,0,0,1,.43-1.39,3,3,0,0,1,1.16-1,3.53,3.53,0,0,1,1.63-.38,3.08,3.08,0,0,1,2.22.73,2.83,2.83,0,0,1,.77,2.11v4.8a6,6,0,0,0,.3,1.91v.14ZM712,615.88a2.06,2.06,0,0,0,1.09-.32,1.92,1.92,0,0,0,.76-.79V612.5h-.88a2.93,2.93,0,0,0-1.75.5,1.56,1.56,0,0,0-.64,1.34,1.76,1.76,0,0,0,.32,1.17A1.4,1.4,0,0,0,712,615.88Z"/><path class="cls-4" d="M717.45,611.93a5.79,5.79,0,0,1,.81-3.36,2.72,2.72,0,0,1,2.37-1.14,2.42,2.42,0,0,1,2.2,1.24l.08-1.06h1.41v9.59a3.76,3.76,0,0,1-.91,2.72,3.35,3.35,0,0,1-2.52.94,4.41,4.41,0,0,1-1.58-.35,3.27,3.27,0,0,1-1.31-.85l.63-1.08a3,3,0,0,0,2.14.95c1.29,0,2-.7,2-2.11v-1.24a2.44,2.44,0,0,1-2.14,1.11,2.69,2.69,0,0,1-2.3-1.11,5.43,5.43,0,0,1-.87-3.19Zm1.56.88a4.57,4.57,0,0,0,.47,2.35,1.68,1.68,0,0,0,1.54.75,1.84,1.84,0,0,0,1.74-1.18V610a1.88,1.88,0,0,0-1.72-1.17,1.71,1.71,0,0,0-1.55.75,4.57,4.57,0,0,0-.48,2.31Z"/><path class="cls-4" d="M730,617.29a3.45,3.45,0,0,1-2.72-1.06,4.51,4.51,0,0,1-1-3.1V612a5.36,5.36,0,0,1,.93-3.33,3.06,3.06,0,0,1,2.59-1.21,3,3,0,0,1,2.49,1.06,5.55,5.55,0,0,1,.85,3.32v1h-5.31v.22a3.48,3.48,0,0,0,.57,2.22,2.05,2.05,0,0,0,1.66.69,2.73,2.73,0,0,0,1.21-.25,3.1,3.1,0,0,0,1-.83l.81,1A3.54,3.54,0,0,1,730,617.29Zm-.17-8.52a1.64,1.64,0,0,0-1.44.66,3.93,3.93,0,0,0-.52,2.06h3.74v-.21a3.54,3.54,0,0,0-.49-1.93A1.48,1.48,0,0,0,729.86,608.77Z"/><path class="cls-4" d="M736.53,607.61l0,1a2.77,2.77,0,0,1,2.31-1.2c1.68,0,2.54,1.12,2.56,3.37v6.32h-1.55v-6.25a2.58,2.58,0,0,0-.37-1.59,1.35,1.35,0,0,0-1.12-.47,1.55,1.55,0,0,0-1,.39,2.78,2.78,0,0,0-.75,1v6.91h-1.55v-9.51Z"/><path class="cls-4" d="M747.07,616a1.64,1.64,0,0,0,1.24-.47,2.05,2.05,0,0,0,.51-1.37h1.47a3.26,3.26,0,0,1-1,2.27,3.08,3.08,0,0,1-2.25.9,3.32,3.32,0,0,1-2.69-1.11,5,5,0,0,1-.93-3.31v-1a5,5,0,0,1,.93-3.28,3.26,3.26,0,0,1,2.68-1.12,3,3,0,0,1,2.32.92,3.81,3.81,0,0,1,.91,2.53h-1.47a2.59,2.59,0,0,0-.5-1.59,1.57,1.57,0,0,0-1.26-.52,1.75,1.75,0,0,0-1.53.68,3.85,3.85,0,0,0-.52,2.23v1.22a4.23,4.23,0,0,0,.49,2.37A1.82,1.82,0,0,0,747.07,616Z"/><path class="cls-4" d="M755.48,617.29a3.45,3.45,0,0,1-2.72-1.06,4.56,4.56,0,0,1-1-3.1V612a5.36,5.36,0,0,1,.93-3.33,3.07,3.07,0,0,1,2.59-1.21,3,3,0,0,1,2.49,1.06,5.41,5.41,0,0,1,.85,3.32v1h-5.31v.22a3.41,3.41,0,0,0,.58,2.22,2,2,0,0,0,1.65.69,2.73,2.73,0,0,0,1.21-.25,3,3,0,0,0,1-.83l.81,1A3.52,3.52,0,0,1,755.48,617.29Zm-.17-8.52a1.62,1.62,0,0,0-1.43.66,3.93,3.93,0,0,0-.53,2.06h3.74v-.21a3.65,3.65,0,0,0-.48-1.93A1.51,1.51,0,0,0,755.31,608.77Z"/><path class="cls-4" d="M764.31,611.93a5.73,5.73,0,0,1,.82-3.35,2.71,2.71,0,0,1,2.36-1.15,2.44,2.44,0,0,1,2.13,1.11v-4.92h1.55v13.5h-1.42l-.08-1a2.46,2.46,0,0,1-2.19,1.19,2.7,2.7,0,0,1-2.31-1.14,5.5,5.5,0,0,1-.86-3.24Zm1.55.88a4.46,4.46,0,0,0,.48,2.35,1.69,1.69,0,0,0,1.55.75,1.85,1.85,0,0,0,1.73-1.16V610a1.88,1.88,0,0,0-1.73-1.14,1.68,1.68,0,0,0-1.54.75,4.46,4.46,0,0,0-.49,2.31Z"/><path class="cls-4" d="M777,617.29a3.45,3.45,0,0,1-2.72-1.06,4.61,4.61,0,0,1-1-3.1V612a5.36,5.36,0,0,1,.93-3.33,3.07,3.07,0,0,1,2.59-1.21,3,3,0,0,1,2.5,1.06,5.48,5.48,0,0,1,.84,3.32v1h-5.31v.22a3.41,3.41,0,0,0,.58,2.22,2,2,0,0,0,1.65.69,2.73,2.73,0,0,0,1.21-.25,3,3,0,0,0,1-.83l.81,1A3.52,3.52,0,0,1,777,617.29Zm-.17-8.52a1.62,1.62,0,0,0-1.43.66,3.93,3.93,0,0,0-.53,2.06h3.74v-.21a3.65,3.65,0,0,0-.48-1.93A1.51,1.51,0,0,0,776.79,608.77Z"/><path class="cls-4" d="M793.46,605.7H790.1v11.42h-1.61V605.7h-3.36v-1.38h8.33Z"/><path class="cls-4" d="M793.94,611.92a5,5,0,0,1,1-3.28,3.28,3.28,0,0,1,2.66-1.21,3.32,3.32,0,0,1,2.66,1.18,4.83,4.83,0,0,1,1,3.21v1a4.93,4.93,0,0,1-1,3.27,3.58,3.58,0,0,1-5.32,0,4.79,4.79,0,0,1-1-3.16Zm1.55.9a4,4,0,0,0,.58,2.31,1.78,1.78,0,0,0,1.55.83c1.37,0,2.08-1,2.12-3v-1.07a4.11,4.11,0,0,0-.58-2.31,1.81,1.81,0,0,0-1.56-.84,1.76,1.76,0,0,0-1.53.84,4,4,0,0,0-.58,2.3Z"/><path class="cls-4" d="M808.15,616.28a2.66,2.66,0,0,1-2.26,1,2.26,2.26,0,0,1-1.95-.89,4.39,4.39,0,0,1-.67-2.6v-6.19h1.55v6.08c0,1.48.44,2.22,1.33,2.22a1.94,1.94,0,0,0,2-1.26v-7h1.56v9.51h-1.48Z"/><path class="cls-4" d="M813.68,617.12h-1.56v-13.5h1.56Z"/><path class="cls-4" d="M815.79,611.92a5,5,0,0,1,1-3.28,3.28,3.28,0,0,1,2.66-1.21,3.32,3.32,0,0,1,2.66,1.18,4.88,4.88,0,0,1,1,3.21v1a4.93,4.93,0,0,1-1,3.27,3.58,3.58,0,0,1-5.32,0,4.85,4.85,0,0,1-1-3.16Zm1.56.9a4,4,0,0,0,.58,2.31,1.78,1.78,0,0,0,1.55.83c1.37,0,2.07-1,2.12-3v-1.07a4.11,4.11,0,0,0-.58-2.31,1.81,1.81,0,0,0-1.56-.84,1.76,1.76,0,0,0-1.53.84,4,4,0,0,0-.58,2.3Z"/><path class="cls-4" d="M830,616.28a2.66,2.66,0,0,1-2.26,1,2.26,2.26,0,0,1-2-.89,4.31,4.31,0,0,1-.67-2.6v-6.19h1.55v6.08c0,1.48.44,2.22,1.33,2.22a1.94,1.94,0,0,0,2-1.26v-7h1.56v9.51H830Z"/><path class="cls-4" d="M838.48,614.68a1.16,1.16,0,0,0-.38-.86,5.54,5.54,0,0,0-1.46-.84,10,10,0,0,1-1.77-.89,2.64,2.64,0,0,1-.77-.84,2.32,2.32,0,0,1-.25-1.12,2.48,2.48,0,0,1,.85-1.93,3.44,3.44,0,0,1,4.39,0,2.72,2.72,0,0,1,.85,2.07h-1.55a1.52,1.52,0,0,0-.43-1.09,1.45,1.45,0,0,0-1.1-.45,1.52,1.52,0,0,0-1.07.35,1.23,1.23,0,0,0-.4,1,1,1,0,0,0,.29.76,5,5,0,0,0,1.38.77,6.86,6.86,0,0,1,2.35,1.32,2.26,2.26,0,0,1,.63,1.64,2.52,2.52,0,0,1-.86,2,3.86,3.86,0,0,1-4.69-.11,2.8,2.8,0,0,1-.92-2.16h1.56a1.88,1.88,0,0,0,3,1.34A1.21,1.21,0,0,0,838.48,614.68Z"/><path class="cls-4" d="M845.46,617.29a3.47,3.47,0,0,1-2.73-1.06,4.56,4.56,0,0,1-1-3.1V612a5.42,5.42,0,0,1,.92-3.33,3.07,3.07,0,0,1,2.59-1.21,3,3,0,0,1,2.5,1.06,5.48,5.48,0,0,1,.84,3.32v1h-5.31v.22a3.47,3.47,0,0,0,.58,2.22,2,2,0,0,0,1.66.69,2.68,2.68,0,0,0,1.2-.25,3,3,0,0,0,1-.83l.81,1A3.51,3.51,0,0,1,845.46,617.29Zm-.18-8.52a1.63,1.63,0,0,0-1.43.66,3.93,3.93,0,0,0-.53,2.06h3.75v-.21a3.63,3.63,0,0,0-.49-1.93A1.51,1.51,0,0,0,845.28,608.77Z"/></g></g></g><g id="_2011" data-name=" 2011"><path id="Tracé-4" data-name="Tracé" class="cls-7" d="M542,346V508.26l20.45,20.17,20.45-20.17V346l-20.45,20.62Z"/><path id="Maison-4" data-name="Maison" class="cls-2" d="M571.64,435.44l-8.78-8.11a1.3,1.3,0,0,0-1.73,0l-1.84,1.7H557a1.54,1.54,0,0,0-1.54,1.54v2l-3.09,2.86a1.09,1.09,0,0,0-.36.81,1,1,0,0,0,.11.46,1.22,1.22,0,0,0,1.12.68h1.12v7.8a1.38,1.38,0,0,0,.48,1,1.62,1.62,0,0,0,1.09.41h12.16a1.62,1.62,0,0,0,1.09-.41,1.38,1.38,0,0,0,.48-1v-7.8h1.12a1.22,1.22,0,0,0,1.12-.68,1,1,0,0,0,.11-.46,1.11,1.11,0,0,0-.36-.81"/><g id="_2011-2" data-name="2011" class="cls-3"><g class="cls-3"><path class="cls-7" d="M626.46,451.68H607v-3.87l9.2-9.8a23,23,0,0,0,2.8-3.62,5.73,5.73,0,0,0,.91-2.93,4.31,4.31,0,0,0-1-3,3.43,3.43,0,0,0-2.73-1.09,3.72,3.72,0,0,0-3,1.32,5.19,5.19,0,0,0-1.1,3.47H606.4a9.3,9.3,0,0,1,1.24-4.75,8.83,8.83,0,0,1,3.51-3.37,10.68,10.68,0,0,1,5.13-1.22,10.08,10.08,0,0,1,6.83,2.11,7.47,7.47,0,0,1,2.43,6,9.51,9.51,0,0,1-1.09,4.29,23.9,23.9,0,0,1-3.75,5.1l-6.47,6.82h12.23Z"/><path class="cls-7" d="M647.9,439.92c0,3.93-.82,6.94-2.44,9a9.76,9.76,0,0,1-14.26.05q-2.46-3.06-2.52-8.79V435q0-6,2.47-9a9.77,9.77,0,0,1,14.23,0c1.64,2,2.48,5,2.52,8.78Zm-5.65-5.75a10.45,10.45,0,0,0-1-5.15,3.27,3.27,0,0,0-3-1.62,3.2,3.2,0,0,0-2.94,1.54,9.75,9.75,0,0,0-1,4.8v6.92a11,11,0,0,0,.95,5.17,3.21,3.21,0,0,0,3,1.69,3.18,3.18,0,0,0,3-1.62,10.64,10.64,0,0,0,1-5Z"/><path class="cls-7" d="M664.26,451.68h-5.65V429.92L651.87,432v-4.59l11.78-4.22h.61Z"/><path class="cls-7" d="M686.05,451.68H680.4V429.92L673.66,432v-4.59l11.78-4.22h.61Z"/></g></g><g class="cls-3"><path class="cls-4" d="M208.46,441.36a6.37,6.37,0,0,1-1.12,4,3.8,3.8,0,0,1-3.17,1.41,3.85,3.85,0,0,1-3.12-1.37,6.08,6.08,0,0,1-1.19-3.89v-2.41a6.36,6.36,0,0,1,1.13-4,4.2,4.2,0,0,1,6.31-.06,6.24,6.24,0,0,1,1.16,4Zm-1.61-2.24a5.52,5.52,0,0,0-.66-3,2.54,2.54,0,0,0-4,0,5.18,5.18,0,0,0-.69,2.95v2.29a5.36,5.36,0,0,0,.68,3,2.26,2.26,0,0,0,2,1,2.29,2.29,0,0,0,2-.95,5.38,5.38,0,0,0,.67-2.91Z"/><path class="cls-4" d="M215.58,445.8a2.66,2.66,0,0,1-2.26,1,2.26,2.26,0,0,1-1.95-.89,4.39,4.39,0,0,1-.67-2.6v-6.19h1.55v6.08c0,1.48.44,2.22,1.33,2.22a2,2,0,0,0,2-1.26v-7h1.55v9.51h-1.47Z"/><path class="cls-4" d="M222.13,444.27l1.8-7.14h1.58l-2.82,9.51h-1.16l-2.86-9.51h1.59Z"/><path class="cls-4" d="M230.42,446.81a3.46,3.46,0,0,1-2.73-1.06,4.61,4.61,0,0,1-1-3.1V441.5a5.37,5.37,0,0,1,.93-3.34,3.07,3.07,0,0,1,2.59-1.21,3,3,0,0,1,2.5,1.06,5.48,5.48,0,0,1,.84,3.32v1h-5.31v.22a3.41,3.41,0,0,0,.58,2.22,2,2,0,0,0,1.65.7,2.73,2.73,0,0,0,1.21-.26,3,3,0,0,0,1-.83l.81,1A3.51,3.51,0,0,1,230.42,446.81Zm-.18-8.52a1.63,1.63,0,0,0-1.43.66,3.93,3.93,0,0,0-.53,2.06H232v-.21a3.65,3.65,0,0,0-.48-1.93A1.51,1.51,0,0,0,230.24,438.29Z"/><path class="cls-4" d="M239.37,438.59a3.08,3.08,0,0,0-.7-.07,1.71,1.71,0,0,0-1.67,1.31v6.81h-1.56v-9.51H237l0,1a2,2,0,0,1,1.77-1.14,1.38,1.38,0,0,1,.61.12Z"/><path class="cls-4" d="M243.4,434.82v2.31h1.43v1.25H243.4v5.91a1.63,1.63,0,0,0,.18.85.69.69,0,0,0,.63.29,2,2,0,0,0,.63-.1l0,1.31a3.59,3.59,0,0,1-1.08.17,1.65,1.65,0,0,1-1.41-.66,3.12,3.12,0,0,1-.48-1.86v-5.91H240.4v-1.25h1.45v-2.31Z"/><path class="cls-4" d="M251.53,445.8a2.66,2.66,0,0,1-2.26,1,2.26,2.26,0,0,1-2-.89,4.39,4.39,0,0,1-.67-2.6v-6.19h1.55v6.08c0,1.48.44,2.22,1.33,2.22a1.94,1.94,0,0,0,1.95-1.26v-7H253v9.51h-1.48Z"/><path class="cls-4" d="M259.31,438.59a3.23,3.23,0,0,0-.71-.07,1.72,1.72,0,0,0-1.67,1.31v6.81h-1.55v-9.51h1.51l0,1a1.92,1.92,0,0,1,1.76-1.14,1.43,1.43,0,0,1,.62.12Z"/><path class="cls-4" d="M264.09,446.81a3.47,3.47,0,0,1-2.73-1.06,4.56,4.56,0,0,1-1-3.1V441.5a5.37,5.37,0,0,1,.92-3.34,3.07,3.07,0,0,1,2.59-1.21,3,3,0,0,1,2.5,1.06,5.48,5.48,0,0,1,.84,3.32v1h-5.31v.22a3.41,3.41,0,0,0,.58,2.22,2,2,0,0,0,1.65.7,2.73,2.73,0,0,0,1.21-.26,3,3,0,0,0,1-.83l.81,1A3.51,3.51,0,0,1,264.09,446.81Zm-.18-8.52a1.63,1.63,0,0,0-1.43.66A3.93,3.93,0,0,0,262,441h3.75v-.21a3.73,3.73,0,0,0-.49-1.93A1.51,1.51,0,0,0,263.91,438.29Z"/><path class="cls-4" d="M272.91,441.45a5.73,5.73,0,0,1,.82-3.35,2.73,2.73,0,0,1,2.36-1.15,2.44,2.44,0,0,1,2.13,1.11v-4.92h1.56v13.5h-1.43l-.08-1a2.46,2.46,0,0,1-2.19,1.19,2.71,2.71,0,0,1-2.31-1.14,5.5,5.5,0,0,1-.86-3.24Zm1.56.88a4.47,4.47,0,0,0,.47,2.35,1.69,1.69,0,0,0,1.55.75,1.85,1.85,0,0,0,1.73-1.16v-4.8a1.87,1.87,0,0,0-1.72-1.14,1.69,1.69,0,0,0-1.55.75,4.37,4.37,0,0,0-.48,2.31Z"/><path class="cls-4" d="M285.57,446.81a3.47,3.47,0,0,1-2.73-1.06,4.56,4.56,0,0,1-1-3.1V441.5a5.37,5.37,0,0,1,.92-3.34,3.07,3.07,0,0,1,2.59-1.21,3,3,0,0,1,2.5,1.06,5.48,5.48,0,0,1,.84,3.32v1h-5.31v.22a3.41,3.41,0,0,0,.58,2.22,2,2,0,0,0,1.66.7,2.71,2.71,0,0,0,1.2-.26,3,3,0,0,0,1-.83l.81,1A3.51,3.51,0,0,1,285.57,446.81Zm-.18-8.52A1.63,1.63,0,0,0,284,439a3.93,3.93,0,0,0-.53,2.06h3.75v-.21a3.73,3.73,0,0,0-.49-1.93A1.51,1.51,0,0,0,285.39,438.29Z"/><path class="cls-4" d="M296.4,446.64h-1.56v-13.5h1.56Z"/><path class="cls-4" d="M299,437.44l-.87-.63a4.7,4.7,0,0,0,.71-2.39v-1.28h1.54v1.18A4.42,4.42,0,0,1,300,436,3.89,3.89,0,0,1,299,437.44Z"/><path class="cls-4" d="M306.79,446.64a3.56,3.56,0,0,1-.2-1,2.46,2.46,0,0,1-2.11,1.21,2.76,2.76,0,0,1-2-.72,2.8,2.8,0,0,1-.72-2,2.91,2.91,0,0,1,1-2.3,4,4,0,0,1,2.7-.87h1.14v-1a1.59,1.59,0,0,0-2.67-1.15,1.39,1.39,0,0,0-.44,1.05H301.9a2.5,2.5,0,0,1,.43-1.39,3,3,0,0,1,1.16-1,3.49,3.49,0,0,1,1.62-.38,3,3,0,0,1,2.22.73,2.8,2.8,0,0,1,.78,2.11v4.8a6,6,0,0,0,.3,1.91v.14Zm-2.07-1.24a2.09,2.09,0,0,0,1.09-.32,1.89,1.89,0,0,0,.75-.79V442h-.87a2.91,2.91,0,0,0-1.75.5,1.58,1.58,0,0,0-.65,1.34,1.7,1.7,0,0,0,.33,1.17A1.39,1.39,0,0,0,304.72,445.4Z"/><path class="cls-4" d="M310.21,441.45a5.79,5.79,0,0,1,.81-3.36,2.72,2.72,0,0,1,2.36-1.14,2.42,2.42,0,0,1,2.21,1.24l.08-1.06h1.41v9.59a3.8,3.8,0,0,1-.91,2.72,3.31,3.31,0,0,1-2.52.94,4.36,4.36,0,0,1-1.58-.35,3.27,3.27,0,0,1-1.31-.85l.63-1.08a3,3,0,0,0,2.14.95c1.29,0,2-.7,2-2.11V445.7a2.44,2.44,0,0,1-2.14,1.11,2.71,2.71,0,0,1-2.31-1.11,5.5,5.5,0,0,1-.86-3.19Zm1.56.88a4.47,4.47,0,0,0,.47,2.35,1.68,1.68,0,0,0,1.54.75,1.86,1.86,0,0,0,1.74-1.18V439.5a1.88,1.88,0,0,0-1.72-1.17,1.69,1.69,0,0,0-1.55.75,4.37,4.37,0,0,0-.48,2.31Z"/><path class="cls-4" d="M322.79,446.81a3.48,3.48,0,0,1-2.73-1.06,4.56,4.56,0,0,1-1-3.1V441.5a5.43,5.43,0,0,1,.92-3.34,3.08,3.08,0,0,1,2.59-1.21,3,3,0,0,1,2.5,1.06,5.48,5.48,0,0,1,.84,3.32v1h-5.31v.22a3.47,3.47,0,0,0,.58,2.22,2,2,0,0,0,1.66.7,2.68,2.68,0,0,0,1.2-.26,3.13,3.13,0,0,0,1-.83l.8,1A3.51,3.51,0,0,1,322.79,446.81Zm-.18-8.52a1.63,1.63,0,0,0-1.43.66,3.93,3.93,0,0,0-.53,2.06h3.75v-.21a3.63,3.63,0,0,0-.49-1.93A1.51,1.51,0,0,0,322.61,438.29Z"/><path class="cls-4" d="M329.28,437.13l.05,1a2.75,2.75,0,0,1,2.31-1.21c1.68,0,2.53,1.12,2.56,3.37v6.32h-1.55v-6.25a2.6,2.6,0,0,0-.37-1.59,1.36,1.36,0,0,0-1.12-.47,1.59,1.59,0,0,0-1.05.39,2.88,2.88,0,0,0-.74,1v6.91h-1.55v-9.51Z"/><path class="cls-4" d="M339.83,445.49a1.64,1.64,0,0,0,1.24-.48,2.05,2.05,0,0,0,.51-1.37h1.47a3.26,3.26,0,0,1-1,2.27,3.1,3.1,0,0,1-2.25.9,3.29,3.29,0,0,1-2.69-1.11,5,5,0,0,1-.93-3.31v-1a5.09,5.09,0,0,1,.92-3.28,3.28,3.28,0,0,1,2.69-1.12,3,3,0,0,1,2.32.92,3.81,3.81,0,0,1,.91,2.53h-1.47a2.59,2.59,0,0,0-.51-1.59,1.55,1.55,0,0,0-1.25-.52,1.78,1.78,0,0,0-1.54.68,4,4,0,0,0-.51,2.24v1.21a4.23,4.23,0,0,0,.49,2.37A1.81,1.81,0,0,0,339.83,445.49Z"/><path class="cls-4" d="M348.24,446.81a3.45,3.45,0,0,1-2.72-1.06,4.51,4.51,0,0,1-1-3.1V441.5a5.37,5.37,0,0,1,.93-3.34,3.07,3.07,0,0,1,2.59-1.21,3,3,0,0,1,2.49,1.06,5.55,5.55,0,0,1,.85,3.32v1H346.1v.22a3.48,3.48,0,0,0,.57,2.22,2.06,2.06,0,0,0,1.66.7,2.73,2.73,0,0,0,1.21-.26,3.1,3.1,0,0,0,1-.83l.81,1A3.54,3.54,0,0,1,348.24,446.81Zm-.17-8.52a1.64,1.64,0,0,0-1.44.66,3.93,3.93,0,0,0-.52,2.06h3.74v-.21a3.54,3.54,0,0,0-.49-1.93A1.48,1.48,0,0,0,348.07,438.29Z"/><path class="cls-4" d="M363.58,443.29h-4.33l-1,3.35h-1.65l4.12-12.8h1.38l4.13,12.8h-1.65Zm-3.9-1.38h3.49l-1.75-5.82Z"/><path class="cls-4" d="M372.52,445.8a2.66,2.66,0,0,1-2.26,1,2.26,2.26,0,0,1-1.95-.89,4.39,4.39,0,0,1-.67-2.6v-6.19h1.55v6.08c0,1.48.44,2.22,1.33,2.22a1.94,1.94,0,0,0,2-1.26v-7H374v9.51h-1.48Z"/><path class="cls-4" d="M379.07,444.27l1.8-7.14h1.58l-2.82,9.51h-1.16l-2.86-9.51h1.58Z"/><path class="cls-4" d="M387.35,446.81a3.45,3.45,0,0,1-2.72-1.06,4.56,4.56,0,0,1-1-3.1V441.5a5.37,5.37,0,0,1,.93-3.34,3.07,3.07,0,0,1,2.59-1.21,3,3,0,0,1,2.49,1.06,5.48,5.48,0,0,1,.85,3.32v1h-5.31v.22a3.48,3.48,0,0,0,.57,2.22,2.06,2.06,0,0,0,1.66.7,2.73,2.73,0,0,0,1.21-.26,3,3,0,0,0,1-.83l.81,1A3.53,3.53,0,0,1,387.35,446.81Zm-.17-8.52a1.62,1.62,0,0,0-1.43.66,3.83,3.83,0,0,0-.53,2.06H389v-.21a3.54,3.54,0,0,0-.49-1.93A1.48,1.48,0,0,0,387.18,438.29Z"/><path class="cls-4" d="M396.31,438.59a3.14,3.14,0,0,0-.7-.07,1.7,1.7,0,0,0-1.67,1.31v6.81h-1.56v-9.51h1.51l0,1a1.93,1.93,0,0,1,1.77-1.14,1.38,1.38,0,0,1,.61.12Z"/><path class="cls-4" d="M397.38,441.45a5.79,5.79,0,0,1,.81-3.36,2.72,2.72,0,0,1,2.36-1.14,2.42,2.42,0,0,1,2.21,1.24l.08-1.06h1.41v9.59a3.8,3.8,0,0,1-.91,2.72,3.31,3.31,0,0,1-2.52.94,4.36,4.36,0,0,1-1.58-.35,3.27,3.27,0,0,1-1.31-.85l.63-1.08a3,3,0,0,0,2.14.95c1.29,0,2-.7,2-2.11V445.7a2.44,2.44,0,0,1-2.14,1.11,2.71,2.71,0,0,1-2.31-1.11,5.5,5.5,0,0,1-.86-3.19Zm1.56.88a4.47,4.47,0,0,0,.47,2.35,1.68,1.68,0,0,0,1.54.75,1.86,1.86,0,0,0,1.74-1.18V439.5a1.88,1.88,0,0,0-1.72-1.17,1.69,1.69,0,0,0-1.55.75,4.37,4.37,0,0,0-.48,2.31Z"/><path class="cls-4" d="M408,437.13l0,1a2.75,2.75,0,0,1,2.31-1.21c1.68,0,2.54,1.12,2.56,3.37v6.32h-1.55v-6.25a2.6,2.6,0,0,0-.37-1.59,1.35,1.35,0,0,0-1.12-.47,1.55,1.55,0,0,0-1,.39,2.78,2.78,0,0,0-.75,1v6.91h-1.55v-9.51Z"/><path class="cls-4" d="M418.67,446.81a3.48,3.48,0,0,1-2.73-1.06,4.56,4.56,0,0,1-1-3.1V441.5a5.43,5.43,0,0,1,.92-3.34,3.08,3.08,0,0,1,2.59-1.21A3,3,0,0,1,421,438a5.48,5.48,0,0,1,.84,3.32v1h-5.31v.22a3.47,3.47,0,0,0,.58,2.22,2,2,0,0,0,1.66.7,2.68,2.68,0,0,0,1.2-.26,3.13,3.13,0,0,0,1-.83l.8,1A3.51,3.51,0,0,1,418.67,446.81Zm-.18-8.52a1.63,1.63,0,0,0-1.43.66,3.93,3.93,0,0,0-.53,2.06h3.75v-.21a3.63,3.63,0,0,0-.49-1.93A1.51,1.51,0,0,0,418.49,438.29Z"/><path class="cls-4" d="M426.58,441.86H423v-1.32h3.63Z"/><path class="cls-4" d="M432.25,441.46H430v5.18h-1.62v-12.8H432a3.82,3.82,0,0,1,2.84,1,3.89,3.89,0,0,1,1,2.87,4,4,0,0,1-.52,2.07,3.3,3.3,0,0,1-1.48,1.33l2.48,5.44v.11h-1.74ZM430,440.08H432a2.1,2.1,0,0,0,1.61-.65,2.49,2.49,0,0,0,.6-1.74c0-1.65-.74-2.47-2.23-2.47H430Z"/><path class="cls-4" d="M439.27,438.1a2.74,2.74,0,0,1,2.27-1.15c1.68,0,2.53,1.12,2.56,3.37v6.32h-1.55v-6.25a2.59,2.59,0,0,0-.38-1.59,1.34,1.34,0,0,0-1.12-.47,1.58,1.58,0,0,0-1,.39,2.88,2.88,0,0,0-.74,1v6.91h-1.56v-13.5h1.56Z"/><path class="cls-4" d="M446.08,441.44a5,5,0,0,1,1-3.28,3.28,3.28,0,0,1,2.66-1.21,3.33,3.33,0,0,1,2.66,1.18,4.88,4.88,0,0,1,1,3.21v1a5,5,0,0,1-1,3.27,3.59,3.59,0,0,1-5.33,0,4.91,4.91,0,0,1-1-3.16Zm5.9-5.9v.09h-1.25l-1.05-1.49-1.06,1.49h-1.25v-.11l1.84-2.38h.92Zm-4.34,6.8a4.07,4.07,0,0,0,.57,2.31,1.8,1.8,0,0,0,1.55.84c1.38,0,2.08-1,2.12-3v-1.07a4,4,0,0,0-.58-2.31,1.84,1.84,0,0,0-3.09,0,4.1,4.1,0,0,0-.57,2.3Z"/><path class="cls-4" d="M456.91,437.13l0,1a2.78,2.78,0,0,1,2.32-1.21c1.68,0,2.53,1.12,2.55,3.37v6.32h-1.54v-6.25a2.59,2.59,0,0,0-.38-1.59,1.35,1.35,0,0,0-1.12-.47,1.58,1.58,0,0,0-1,.39,2.76,2.76,0,0,0-.74,1v6.91h-1.56v-9.51Z"/><path class="cls-4" d="M467.55,446.81a3.45,3.45,0,0,1-2.72-1.06,4.56,4.56,0,0,1-1-3.1V441.5a5.37,5.37,0,0,1,.93-3.34,3.07,3.07,0,0,1,2.59-1.21,3,3,0,0,1,2.49,1.06,5.48,5.48,0,0,1,.85,3.32v1h-5.31v.22a3.48,3.48,0,0,0,.57,2.22,2.06,2.06,0,0,0,1.66.7,2.73,2.73,0,0,0,1.21-.26,3,3,0,0,0,1-.83l.81,1A3.53,3.53,0,0,1,467.55,446.81Zm-.17-8.52A1.62,1.62,0,0,0,466,439a3.83,3.83,0,0,0-.53,2.06h3.74v-.21a3.54,3.54,0,0,0-.49-1.93A1.48,1.48,0,0,0,467.38,438.29Z"/><path class="cls-4" d="M475.46,441.86h-3.63v-1.32h3.63Z"/><path class="cls-4" d="M483.23,443.29h-4.32l-1,3.35h-1.66l4.13-12.8h1.38l4.13,12.8h-1.66Zm-3.9-1.38h3.49l-1.75-5.82Z"/><path class="cls-4" d="M489.1,446.64h-1.56v-13.5h1.56Z"/><path class="cls-4" d="M498.41,442.34a5.73,5.73,0,0,1-.81,3.37,2.7,2.7,0,0,1-2.3,1.1,2.57,2.57,0,0,1-2.21-1.08v4.56h-1.54V437.13H493l.08,1.05a2.5,2.5,0,0,1,2.24-1.23,2.66,2.66,0,0,1,2.34,1.09,5.75,5.75,0,0,1,.8,3.26Zm-1.54-.89a4.41,4.41,0,0,0-.5-2.36,1.73,1.73,0,0,0-1.58-.76,1.84,1.84,0,0,0-1.7,1.12v4.95a1.86,1.86,0,0,0,1.72,1.09,1.72,1.72,0,0,0,1.55-.77,4.38,4.38,0,0,0,.51-2.32Z"/><path class="cls-4" d="M503.82,446.81a3.47,3.47,0,0,1-2.73-1.06,4.56,4.56,0,0,1-1-3.1V441.5a5.37,5.37,0,0,1,.92-3.34,3.07,3.07,0,0,1,2.59-1.21,3,3,0,0,1,2.5,1.06,5.48,5.48,0,0,1,.84,3.32v1h-5.31v.22a3.41,3.41,0,0,0,.58,2.22,2,2,0,0,0,1.66.7,2.71,2.71,0,0,0,1.2-.26,3,3,0,0,0,1-.83l.81,1A3.51,3.51,0,0,1,503.82,446.81Zm-.18-8.52a1.63,1.63,0,0,0-1.43.66,3.93,3.93,0,0,0-.53,2.06h3.75v-.21a3.73,3.73,0,0,0-.49-1.93A1.51,1.51,0,0,0,503.64,438.29Z"/><path class="cls-4" d="M513.47,444.2a1.16,1.16,0,0,0-.38-.86,5.54,5.54,0,0,0-1.46-.84,9.36,9.36,0,0,1-1.77-.89,2.64,2.64,0,0,1-.77-.84,2.32,2.32,0,0,1-.25-1.12,2.51,2.51,0,0,1,.84-1.93,3.13,3.13,0,0,1,2.17-.77,3.07,3.07,0,0,1,2.23.81,2.72,2.72,0,0,1,.85,2.07h-1.55a1.52,1.52,0,0,0-.43-1.09,1.45,1.45,0,0,0-1.1-.45,1.58,1.58,0,0,0-1.08.35,1.24,1.24,0,0,0-.39.95,1.06,1.06,0,0,0,.29.77,5.37,5.37,0,0,0,1.37.76,6.92,6.92,0,0,1,2.36,1.32,2.25,2.25,0,0,1,.62,1.64,2.51,2.51,0,0,1-.85,2,3.86,3.86,0,0,1-4.69-.11,2.81,2.81,0,0,1-.93-2.16h1.57a1.86,1.86,0,0,0,2.94,1.34A1.18,1.18,0,0,0,513.47,444.2Z"/></g></g><g id="_2009" data-name=" 2009"><path id="Tracé-5" data-name="Tracé" class="cls-8" d="M542,174V336.26l20.45,20.17,20.45-20.17V174l-20.45,20.62Z"/><path id="Maison-5" data-name="Maison" class="cls-2" d="M571.64,263.44l-8.78-8.11a1.3,1.3,0,0,0-1.73,0l-1.84,1.7H557a1.54,1.54,0,0,0-1.54,1.54v2l-3.09,2.86a1.09,1.09,0,0,0-.36.81,1,1,0,0,0,.11.46,1.22,1.22,0,0,0,1.12.68h1.12v7.8a1.38,1.38,0,0,0,.48,1,1.62,1.62,0,0,0,1.09.41h12.16a1.62,1.62,0,0,0,1.09-.41,1.38,1.38,0,0,0,.48-1v-7.8h1.12a1.22,1.22,0,0,0,1.12-.68,1,1,0,0,0,.11-.46,1.11,1.11,0,0,0-.36-.81"/><g id="_2009-2" data-name="2009" class="cls-3"><g class="cls-3"><path class="cls-8" d="M452.2,279.68H432.71v-3.87l9.2-9.8a22.45,22.45,0,0,0,2.8-3.62,5.73,5.73,0,0,0,.91-2.93,4.31,4.31,0,0,0-1-3,3.42,3.42,0,0,0-2.73-1.09,3.73,3.73,0,0,0-3,1.32,5.25,5.25,0,0,0-1.1,3.47h-5.66a9.3,9.3,0,0,1,1.24-4.75,8.74,8.74,0,0,1,3.5-3.37,10.69,10.69,0,0,1,5.14-1.22,10.05,10.05,0,0,1,6.82,2.11,7.44,7.44,0,0,1,2.44,6,9.53,9.53,0,0,1-1.1,4.29,23.9,23.9,0,0,1-3.75,5.1L440,275.13H452.2Z"/><path class="cls-8" d="M473.64,267.92q0,5.9-2.44,9a9.76,9.76,0,0,1-14.26.05q-2.46-3.06-2.52-8.79V263c0-4,.83-7,2.47-9a9.77,9.77,0,0,1,14.23,0c1.64,2,2.48,5,2.52,8.78ZM468,262.17a10.44,10.44,0,0,0-1-5.15,3.26,3.26,0,0,0-3-1.62,3.2,3.2,0,0,0-2.94,1.54,9.76,9.76,0,0,0-1,4.8v6.92a11,11,0,0,0,.94,5.17,3.23,3.23,0,0,0,3,1.69,3.17,3.17,0,0,0,3-1.62,10.75,10.75,0,0,0,1-5Z"/><path class="cls-8" d="M495.43,267.92q0,5.9-2.44,9a9.76,9.76,0,0,1-14.26.05q-2.46-3.06-2.52-8.79V263c0-4,.83-7,2.47-9a9.77,9.77,0,0,1,14.23,0c1.64,2,2.48,5,2.52,8.78Zm-5.64-5.75a10.44,10.44,0,0,0-1-5.15,3.27,3.27,0,0,0-3-1.62,3.2,3.2,0,0,0-2.94,1.54,9.76,9.76,0,0,0-1,4.8v6.92a11,11,0,0,0,.94,5.17,3.23,3.23,0,0,0,3,1.69,3.17,3.17,0,0,0,3-1.62,10.75,10.75,0,0,0,1-5Z"/><path class="cls-8" d="M511.28,268.31a7.1,7.1,0,0,1-5.15,2.17,7.61,7.61,0,0,1-6-2.59,10.21,10.21,0,0,1-2.26-7,10.85,10.85,0,0,1,1.22-5.13,9,9,0,0,1,3.4-3.63,9.43,9.43,0,0,1,4.93-1.3,9,9,0,0,1,5,1.41,9.23,9.23,0,0,1,3.39,4,14.44,14.44,0,0,1,1.23,6v2.09q0,7.11-3.53,11.17t-10,4.33l-1.39,0v-4.7l1.25,0Q510.68,274.89,511.28,268.31Zm-3.77-2.15a4,4,0,0,0,2.36-.7,4.73,4.73,0,0,0,1.49-1.7v-2.32a7.78,7.78,0,0,0-1.09-4.46,3.41,3.41,0,0,0-2.93-1.58,3.3,3.3,0,0,0-2.8,1.56,6.57,6.57,0,0,0-1.09,3.89,6.43,6.43,0,0,0,1.06,3.82A3.46,3.46,0,0,0,507.51,266.16Z"/></g></g><g id="Texte-3" data-name="Texte" class="cls-3"><g class="cls-3"><path class="cls-4" d="M611.25,268H609v5.18h-1.62V260.4H611a3.82,3.82,0,0,1,2.84,1,3.89,3.89,0,0,1,1,2.87,4,4,0,0,1-.52,2.07,3.3,3.3,0,0,1-1.48,1.33l2.47,5.44v.11h-1.73ZM609,266.64h2a2.1,2.1,0,0,0,1.61-.65,2.5,2.5,0,0,0,.6-1.75c0-1.64-.74-2.46-2.23-2.46H609Z"/><path class="cls-4" d="M620.12,273.37a3.46,3.46,0,0,1-2.73-1.06,4.61,4.61,0,0,1-1-3.1v-1.16a5.34,5.34,0,0,1,.93-3.33,3.07,3.07,0,0,1,2.59-1.21,3,3,0,0,1,2.5,1.06,5.48,5.48,0,0,1,.84,3.32v1H618v.22a3.41,3.41,0,0,0,.58,2.22,2,2,0,0,0,1.65.69,2.73,2.73,0,0,0,1.21-.25,3,3,0,0,0,1-.83l.81,1A3.51,3.51,0,0,1,620.12,273.37Zm-.18-8.52a1.62,1.62,0,0,0-1.43.66,3.93,3.93,0,0,0-.53,2.06h3.74v-.21a3.65,3.65,0,0,0-.48-1.93A1.51,1.51,0,0,0,619.94,264.85Z"/><path class="cls-4" d="M626.61,263.69l0,1a2.8,2.8,0,0,1,2.32-1.2c1.68,0,2.53,1.12,2.55,3.37v6.32H630V267a2.57,2.57,0,0,0-.38-1.59,1.35,1.35,0,0,0-1.12-.47,1.58,1.58,0,0,0-1,.39,2.68,2.68,0,0,0-.74,1v6.91h-1.56v-9.51Z"/><path class="cls-4" d="M637.16,272a1.66,1.66,0,0,0,1.24-.48,2,2,0,0,0,.51-1.36h1.46a3.18,3.18,0,0,1-1,2.27,3.08,3.08,0,0,1-2.24.9,3.32,3.32,0,0,1-2.7-1.11,5.1,5.1,0,0,1-.92-3.31V267.9a5,5,0,0,1,.92-3.27,3.27,3.27,0,0,1,2.69-1.12,3,3,0,0,1,2.31.92,3.71,3.71,0,0,1,.91,2.53h-1.46a2.63,2.63,0,0,0-.51-1.59,1.56,1.56,0,0,0-1.25-.52,1.77,1.77,0,0,0-1.54.68,3.93,3.93,0,0,0-.52,2.23V269a4.21,4.21,0,0,0,.5,2.37A1.8,1.8,0,0,0,637.16,272Z"/><path class="cls-4" d="M641.84,268a5,5,0,0,1,1-3.28,3.28,3.28,0,0,1,2.66-1.21,3.33,3.33,0,0,1,2.66,1.18,4.88,4.88,0,0,1,1,3.21v1a5,5,0,0,1-1,3.27,3.58,3.58,0,0,1-5.32,0,4.85,4.85,0,0,1-1-3.16Zm1.56.9a4.07,4.07,0,0,0,.57,2.31,1.81,1.81,0,0,0,1.55.83c1.38,0,2.08-1,2.12-3V268a4,4,0,0,0-.58-2.31,1.84,1.84,0,0,0-3.09,0,4.1,4.1,0,0,0-.57,2.3Z"/><path class="cls-4" d="M652.67,263.69l0,1a2.8,2.8,0,0,1,2.32-1.2c1.68,0,2.53,1.12,2.55,3.37v6.32H656V267a2.57,2.57,0,0,0-.38-1.59,1.35,1.35,0,0,0-1.12-.47,1.58,1.58,0,0,0-1,.39,2.68,2.68,0,0,0-.74,1v6.91H651.2v-9.51Z"/><path class="cls-4" d="M662,261.38v2.31h1.43v1.25H662v5.91a1.53,1.53,0,0,0,.19.85.69.69,0,0,0,.63.29,2,2,0,0,0,.62-.1v1.31a3.7,3.7,0,0,1-1.09.17,1.63,1.63,0,0,1-1.4-.66,3.12,3.12,0,0,1-.49-1.86v-5.91H659v-1.25h1.45v-2.31Z"/><path class="cls-4" d="M669.16,265.14a3.88,3.88,0,0,0-.7-.06,1.7,1.7,0,0,0-1.67,1.31v6.81h-1.56v-9.51h1.51l0,1a1.92,1.92,0,0,1,1.76-1.14,1.4,1.4,0,0,1,.62.12Z"/><path class="cls-4" d="M673.94,273.37a3.48,3.48,0,0,1-2.73-1.06,4.56,4.56,0,0,1-1-3.1v-1.16a5.34,5.34,0,0,1,.93-3.33,3.05,3.05,0,0,1,2.58-1.21,3,3,0,0,1,2.5,1.06,5.48,5.48,0,0,1,.84,3.32v1h-5.31v.22a3.47,3.47,0,0,0,.58,2.22A2,2,0,0,0,674,272a2.76,2.76,0,0,0,1.21-.25,3.22,3.22,0,0,0,1-.83l.8,1A3.51,3.51,0,0,1,673.94,273.37Zm-.18-8.52a1.63,1.63,0,0,0-1.43.66,3.93,3.93,0,0,0-.53,2.06h3.75v-.21a3.63,3.63,0,0,0-.49-1.93A1.5,1.5,0,0,0,673.76,264.85Z"/><path class="cls-4" d="M688,273.2a3.63,3.63,0,0,1-.2-1,2.46,2.46,0,0,1-2.11,1.21,2.72,2.72,0,0,1-2-.72,2.76,2.76,0,0,1-.73-2,2.89,2.89,0,0,1,1-2.3,4,4,0,0,1,2.69-.87h1.15v-1a1.34,1.34,0,0,0-1.53-1.57,1.65,1.65,0,0,0-1.15.41,1.41,1.41,0,0,0-.44,1.06h-1.55a2.5,2.5,0,0,1,.43-1.39,3,3,0,0,1,1.16-1,3.53,3.53,0,0,1,1.63-.38,3.12,3.12,0,0,1,2.22.72,2.87,2.87,0,0,1,.77,2.12v4.8a5.92,5.92,0,0,0,.3,1.9v.15ZM685.91,272a2.09,2.09,0,0,0,1.09-.32,1.92,1.92,0,0,0,.76-.79v-2.27h-.88a2.93,2.93,0,0,0-1.75.5,1.56,1.56,0,0,0-.64,1.34,1.71,1.71,0,0,0,.32,1.17A1.43,1.43,0,0,0,685.91,272Z"/><path class="cls-4" d="M694.28,270.83l1.8-7.14h1.58l-2.82,9.51h-1.16l-2.86-9.51h1.59Z"/><path class="cls-4" d="M702.57,273.37a3.46,3.46,0,0,1-2.73-1.06,4.61,4.61,0,0,1-1-3.1v-1.16a5.34,5.34,0,0,1,.93-3.33,3.07,3.07,0,0,1,2.59-1.21,3,3,0,0,1,2.5,1.06,5.48,5.48,0,0,1,.84,3.32v1h-5.31v.22a3.41,3.41,0,0,0,.58,2.22,2,2,0,0,0,1.65.69,2.73,2.73,0,0,0,1.21-.25,3,3,0,0,0,1-.83l.81,1A3.51,3.51,0,0,1,702.57,273.37Zm-.18-8.52a1.63,1.63,0,0,0-1.43.66,3.93,3.93,0,0,0-.53,2.06h3.74v-.21a3.65,3.65,0,0,0-.48-1.93A1.51,1.51,0,0,0,702.39,264.85Z"/><path class="cls-4" d="M710.9,272a1.66,1.66,0,0,0,1.24-.48,2,2,0,0,0,.51-1.36h1.46a3.18,3.18,0,0,1-1,2.27,3.08,3.08,0,0,1-2.24.9,3.32,3.32,0,0,1-2.7-1.11,5.1,5.1,0,0,1-.92-3.31V267.9a5,5,0,0,1,.92-3.27,3.27,3.27,0,0,1,2.69-1.12,3,3,0,0,1,2.32.92,3.75,3.75,0,0,1,.9,2.53h-1.46a2.63,2.63,0,0,0-.51-1.59,1.56,1.56,0,0,0-1.25-.52,1.77,1.77,0,0,0-1.54.68,3.93,3.93,0,0,0-.52,2.23V269a4.21,4.21,0,0,0,.5,2.37A1.8,1.8,0,0,0,710.9,272Z"/><path class="cls-4" d="M722.32,260.4l3.34,10.44L729,260.4h2.08v12.8h-1.61v-5l.15-5-3.35,10H725l-3.33-9.95.15,5v5h-1.61V260.4Z"/><path class="cls-4" d="M738.52,273.2a3.63,3.63,0,0,1-.2-1,2.46,2.46,0,0,1-2.11,1.21,2.76,2.76,0,0,1-2-.72,2.8,2.8,0,0,1-.72-2,2.91,2.91,0,0,1,1-2.3,4,4,0,0,1,2.7-.87h1.14v-1a1.62,1.62,0,0,0-.37-1.21,1.65,1.65,0,0,0-1.16-.36,1.61,1.61,0,0,0-1.14.41,1.41,1.41,0,0,0-.44,1.06h-1.55a2.5,2.5,0,0,1,.43-1.39,2.92,2.92,0,0,1,1.16-1,3.49,3.49,0,0,1,1.62-.38,3.1,3.1,0,0,1,2.22.72,2.84,2.84,0,0,1,.78,2.12v4.8a5.92,5.92,0,0,0,.3,1.9v.15ZM736.45,272a2.09,2.09,0,0,0,1.09-.32,2,2,0,0,0,.75-.79v-2.27h-.88a2.9,2.9,0,0,0-1.74.5,1.57,1.57,0,0,0-.65,1.34,1.7,1.7,0,0,0,.33,1.17A1.43,1.43,0,0,0,736.45,272Z"/><path class="cls-4" d="M745,267.16l1.62-3.47h1.81l-2.59,4.7,2.65,4.81H746.7L745,269.64l-1.69,3.56h-1.8l2.65-4.81-2.57-4.7h1.78Z"/><path class="cls-4" d="M752,261.16a1,1,0,0,1-.22.66,1,1,0,0,1-1.33,0,1,1,0,0,1-.22-.66,1,1,0,0,1,.22-.66.93.93,0,0,1,1.33,0A1,1,0,0,1,752,261.16Zm-.12,12h-1.56v-9.51h1.56Z"/><path class="cls-4" d="M755.74,263.69l0,.87a2.84,2.84,0,0,1,2.3-1.05,2.24,2.24,0,0,1,2.22,1.38,2.83,2.83,0,0,1,2.5-1.38c1.75,0,2.65,1.09,2.69,3.28v6.41h-1.55v-6.26a2.63,2.63,0,0,0-.37-1.55,1.45,1.45,0,0,0-1.25-.5,1.39,1.39,0,0,0-1.14.54,2.56,2.56,0,0,0-.51,1.39v6.38H759.1v-6.33c0-1.32-.56-2-1.61-2a1.68,1.68,0,0,0-1.66,1.18v7.13h-1.55v-9.51Z"/><path class="cls-4" d="M771.22,273.37a3.46,3.46,0,0,1-2.73-1.06,4.56,4.56,0,0,1-1-3.1v-1.16a5.34,5.34,0,0,1,.92-3.33,3.07,3.07,0,0,1,2.59-1.21,3,3,0,0,1,2.5,1.06,5.48,5.48,0,0,1,.84,3.32v1h-5.31v.22a3.41,3.41,0,0,0,.58,2.22,2,2,0,0,0,1.65.69,2.73,2.73,0,0,0,1.21-.25,3,3,0,0,0,1-.83l.81,1A3.51,3.51,0,0,1,771.22,273.37Zm-.18-8.52a1.63,1.63,0,0,0-1.43.66,3.93,3.93,0,0,0-.53,2.06h3.75v-.21a3.73,3.73,0,0,0-.49-1.93A1.51,1.51,0,0,0,771,264.85Z"/><path class="cls-4" d="M785,260.4h1.62v9.06a4.15,4.15,0,0,1-.94,2.87,3.2,3.2,0,0,1-2.52,1,3.28,3.28,0,0,1-2.53-1,3.91,3.91,0,0,1-.91-2.73h1.61a2.69,2.69,0,0,0,.49,1.72,1.6,1.6,0,0,0,1.34.61,1.59,1.59,0,0,0,1.34-.67,3.08,3.08,0,0,0,.5-1.87Z"/><path class="cls-4" d="M795.06,269.85h-4.32l-1,3.35h-1.65l4.12-12.8h1.38l4.13,12.8h-1.65Zm-3.9-1.38h3.49l-1.75-5.82Z"/><path class="cls-4" d="M802,266.82l2.62-6.42h1.82l-3.64,8v4.78h-1.61v-4.78l-3.64-8h1.83Z"/><path class="cls-4" d="M810.15,260.4l3.34,10.44,3.34-10.44h2.08v12.8H817.3v-5l.15-5-3.35,10h-1.23l-3.33-9.95.15,5v5h-1.61V260.4Z"/><path class="cls-4" d="M830,267.92a6.37,6.37,0,0,1-1.12,4,3.8,3.8,0,0,1-3.17,1.41,3.89,3.89,0,0,1-3.13-1.37,6.14,6.14,0,0,1-1.19-3.89V265.7a6.36,6.36,0,0,1,1.14-4,3.78,3.78,0,0,1,3.16-1.46,3.82,3.82,0,0,1,3.15,1.4,6.22,6.22,0,0,1,1.16,4Zm-1.61-2.24a5.52,5.52,0,0,0-.66-3,2.56,2.56,0,0,0-4.05,0,5.41,5.41,0,0,0-.69,3v2.29a5.47,5.47,0,0,0,.68,3,2.29,2.29,0,0,0,2,1,2.26,2.26,0,0,0,2-.95,5.28,5.28,0,0,0,.68-2.91Z"/><path class="cls-4" d="M840.84,273.2h-1.61l-5.13-9.87v9.87h-1.61V260.4h1.61l5.14,9.9v-9.9h1.6Z"/><path class="cls-4" d="M843.63,273.2V260.4h3a4.43,4.43,0,0,1,3.48,1.4,5.75,5.75,0,0,1,1.24,3.94v2.15a5.61,5.61,0,0,1-1.26,3.92,4.68,4.68,0,0,1-3.64,1.39Zm1.61-11.42v10h1.29a3,3,0,0,0,2.48-1,4.56,4.56,0,0,0,.8-2.88v-2.27a4.63,4.63,0,0,0-.78-3,2.86,2.86,0,0,0-2.35-.94Z"/></g></g></g><g id="_2005" data-name=" 2005"><path id="Tracé-6" data-name="Tracé" class="cls-9" d="M542,2V164.26l20.45,20.17,20.45-20.17V2L562.45,22.62Z"/><path id="Maison-6" data-name="Maison" class="cls-2" d="M571.64,91.44l-8.78-8.11a1.3,1.3,0,0,0-1.73,0L559.29,85H557a1.54,1.54,0,0,0-1.54,1.54v2l-3.09,2.86a1.09,1.09,0,0,0-.36.81,1,1,0,0,0,.11.46,1.22,1.22,0,0,0,1.12.68h1.12v7.8a1.38,1.38,0,0,0,.48,1,1.62,1.62,0,0,0,1.09.41h12.16a1.62,1.62,0,0,0,1.09-.41,1.38,1.38,0,0,0,.48-1v-7.8h1.12a1.22,1.22,0,0,0,1.12-.68,1,1,0,0,0,.11-.46,1.11,1.11,0,0,0-.36-.81"/><g id="_2005-2" data-name="2005" class="cls-3"><g class="cls-3"><path class="cls-9" d="M626.46,107.68H607v-3.87l9.2-9.8a23,23,0,0,0,2.8-3.62,5.73,5.73,0,0,0,.91-2.93,4.31,4.31,0,0,0-1-3,3.43,3.43,0,0,0-2.73-1.09,3.72,3.72,0,0,0-3,1.32,5.19,5.19,0,0,0-1.1,3.47H606.4a9.3,9.3,0,0,1,1.24-4.75,8.83,8.83,0,0,1,3.51-3.37,10.68,10.68,0,0,1,5.13-1.22A10.08,10.08,0,0,1,623.11,81a7.47,7.47,0,0,1,2.43,6,9.51,9.51,0,0,1-1.09,4.29,23.9,23.9,0,0,1-3.75,5.1l-6.47,6.82h12.23Z"/><path class="cls-9" d="M647.9,95.92c0,3.93-.82,6.94-2.44,9a9.76,9.76,0,0,1-14.26,0q-2.46-3.06-2.52-8.79V91q0-6,2.47-9a9.77,9.77,0,0,1,14.23,0c1.64,2,2.48,5,2.52,8.78Zm-5.65-5.75a10.45,10.45,0,0,0-1-5.15,3.27,3.27,0,0,0-3-1.62,3.2,3.2,0,0,0-2.94,1.54,9.75,9.75,0,0,0-1,4.8v6.92a11,11,0,0,0,.95,5.17,3.21,3.21,0,0,0,3,1.69,3.18,3.18,0,0,0,3-1.62,10.64,10.64,0,0,0,1-5Z"/><path class="cls-9" d="M669.69,95.92c0,3.93-.82,6.94-2.44,9A9.76,9.76,0,0,1,653,105q-2.46-3.06-2.52-8.79V91q0-6,2.47-9a9.77,9.77,0,0,1,14.23,0c1.64,2,2.48,5,2.52,8.78ZM664,90.17a10.45,10.45,0,0,0-1-5.15,3.28,3.28,0,0,0-3-1.62,3.2,3.2,0,0,0-2.94,1.54,9.75,9.75,0,0,0-1,4.8v6.92a11,11,0,0,0,.95,5.17,3.21,3.21,0,0,0,3,1.69,3.16,3.16,0,0,0,3-1.62,10.5,10.5,0,0,0,1-5Z"/><path class="cls-9" d="M673.17,93.7l1.65-14.46h15.93V84H679.44l-.7,6.11A9,9,0,0,1,683,89a8.2,8.2,0,0,1,6.37,2.52,10.09,10.09,0,0,1,2.3,7,10.37,10.37,0,0,1-1.16,4.93,8.27,8.27,0,0,1-3.33,3.38,10.42,10.42,0,0,1-5.12,1.2,11.1,11.1,0,0,1-4.78-1,8.47,8.47,0,0,1-3.49-2.94,8.06,8.06,0,0,1-1.36-4.32H678a4.17,4.17,0,0,0,1.24,2.76,3.93,3.93,0,0,0,2.78,1,3.46,3.46,0,0,0,3-1.38,6.36,6.36,0,0,0,1-3.89,5.22,5.22,0,0,0-1.2-3.71,4.36,4.36,0,0,0-3.37-1.29,4.92,4.92,0,0,0-3.27,1l-.54.51Z"/></g></g><g class="cls-3"><path class="cls-4" d="M314,94.75a4.74,4.74,0,0,1-1.16,3.15,3.92,3.92,0,0,1-3,1.1,3.65,3.65,0,0,1-3.06-1.47,6.29,6.29,0,0,1-1.13-4V91.24a6.08,6.08,0,0,1,1.16-3.94A3.86,3.86,0,0,1,310,85.85,3.74,3.74,0,0,1,312.9,87a4.91,4.91,0,0,1,1.1,3.18h-1.63a4,4,0,0,0-.66-2.24,2.06,2.06,0,0,0-1.68-.66,2.3,2.3,0,0,0-2,1,5.36,5.36,0,0,0-.7,3V93.6a5.58,5.58,0,0,0,.66,3,2.12,2.12,0,0,0,1.91,1,2.3,2.3,0,0,0,1.81-.63,3.84,3.84,0,0,0,.68-2.24Z"/><path class="cls-4" d="M319.89,90.77a3.88,3.88,0,0,0-.7-.06A1.69,1.69,0,0,0,317.52,92v6.8H316V89.31h1.51l0,1a1.92,1.92,0,0,1,1.76-1.15,1.27,1.27,0,0,1,.62.13Z"/><path class="cls-4" d="M324.67,99a3.52,3.52,0,0,1-2.73-1.06,4.61,4.61,0,0,1-1-3.11V93.68a5.37,5.37,0,0,1,.93-3.34,3.08,3.08,0,0,1,2.58-1.21A3,3,0,0,1,327,90.2a5.45,5.45,0,0,1,.84,3.31v1h-5.31v.22A3.47,3.47,0,0,0,323.1,97a2,2,0,0,0,1.66.7,2.76,2.76,0,0,0,1.21-.26,3.17,3.17,0,0,0,1-.82l.8,1A3.52,3.52,0,0,1,324.67,99Zm-.18-8.53a1.63,1.63,0,0,0-1.43.66,4,4,0,0,0-.53,2.06h3.75V93a3.66,3.66,0,0,0-.49-1.93A1.5,1.5,0,0,0,324.49,90.47Zm.76-5.15h2l-2.36,2.58h-1.31Z"/><path class="cls-4" d="M334.59,98.82a3.56,3.56,0,0,1-.2-1A2.47,2.47,0,0,1,332.28,99a2.52,2.52,0,0,1-2.74-2.77,2.92,2.92,0,0,1,1-2.31,4.16,4.16,0,0,1,2.7-.87h1.14V92a1.62,1.62,0,0,0-.37-1.21,1.65,1.65,0,0,0-1.16-.36,1.59,1.59,0,0,0-1.14.42,1.41,1.41,0,0,0-.44,1.06H329.7a2.53,2.53,0,0,1,.43-1.4,2.92,2.92,0,0,1,1.16-1,3.49,3.49,0,0,1,1.62-.38,3.09,3.09,0,0,1,2.22.73,2.81,2.81,0,0,1,.78,2.11v4.8a6,6,0,0,0,.3,1.91v.14Zm-2.07-1.24a2.09,2.09,0,0,0,1.09-.32,1.89,1.89,0,0,0,.75-.79V94.21h-.88a2.9,2.9,0,0,0-1.74.49,1.58,1.58,0,0,0-.65,1.34,1.75,1.75,0,0,0,.33,1.18A1.43,1.43,0,0,0,332.52,97.58Z"/><path class="cls-4" d="M340.36,87v2.3h1.43v1.26h-1.43v5.9a1.67,1.67,0,0,0,.18.86.72.72,0,0,0,.64.29,2,2,0,0,0,.62-.11l0,1.31a3.31,3.31,0,0,1-1.08.18,1.66,1.66,0,0,1-1.41-.66,3.13,3.13,0,0,1-.48-1.87v-5.9h-1.45V89.31h1.45V87Z"/><path class="cls-4" d="M345.44,86.79a1,1,0,0,1-.22.66,1,1,0,0,1-1.33,0,1.12,1.12,0,0,1,0-1.33.94.94,0,0,1,1.32,0A1,1,0,0,1,345.44,86.79Zm-.13,12h-1.55V89.31h1.55Z"/><path class="cls-4" d="M347.43,93.62a5,5,0,0,1,1-3.28,3.31,3.31,0,0,1,2.66-1.21,3.35,3.35,0,0,1,2.66,1.18,4.92,4.92,0,0,1,1,3.21v1a4.93,4.93,0,0,1-1,3.27,3.57,3.57,0,0,1-5.32,0,4.88,4.88,0,0,1-1-3.17Zm1.56.9a4.07,4.07,0,0,0,.57,2.31,1.81,1.81,0,0,0,1.56.84c1.37,0,2.07-1,2.11-3V93.62a4,4,0,0,0-.58-2.3,1.83,1.83,0,0,0-3.09,0,4.06,4.06,0,0,0-.57,2.3Z"/><path class="cls-4" d="M358.26,89.31l.05,1a2.78,2.78,0,0,1,2.31-1.21c1.68,0,2.53,1.13,2.55,3.37v6.32h-1.54V92.57a2.61,2.61,0,0,0-.38-1.59,1.35,1.35,0,0,0-1.12-.47,1.58,1.58,0,0,0-1,.39,2.85,2.85,0,0,0-.74,1v6.91h-1.56V89.31Z"/><path class="cls-4" d="M369.3,93.63a5.68,5.68,0,0,1,.82-3.34,2.73,2.73,0,0,1,2.36-1.16,2.44,2.44,0,0,1,2.13,1.11V85.32h1.55v13.5h-1.42l-.08-1a2.45,2.45,0,0,1-2.19,1.2,2.72,2.72,0,0,1-2.31-1.15,5.5,5.5,0,0,1-.86-3.24Zm1.56.89a4.46,4.46,0,0,0,.47,2.34,1.68,1.68,0,0,0,1.55.76,1.84,1.84,0,0,0,1.73-1.17V91.66a1.86,1.86,0,0,0-1.72-1.15,1.69,1.69,0,0,0-1.55.75,4.37,4.37,0,0,0-.48,2.31Z"/><path class="cls-4" d="M382,99a3.49,3.49,0,0,1-2.73-1.06,4.61,4.61,0,0,1-1-3.11V93.68a5.37,5.37,0,0,1,.92-3.34,3.09,3.09,0,0,1,2.59-1.21,3,3,0,0,1,2.5,1.07,5.45,5.45,0,0,1,.84,3.31v1h-5.31v.22a3.41,3.41,0,0,0,.58,2.22,2,2,0,0,0,1.65.7,2.73,2.73,0,0,0,1.21-.26,3,3,0,0,0,1-.82l.81,1A3.52,3.52,0,0,1,382,99Zm-.18-8.53a1.63,1.63,0,0,0-1.43.66,4,4,0,0,0-.53,2.06h3.74V93a3.67,3.67,0,0,0-.48-1.93A1.51,1.51,0,0,0,381.78,90.47Z"/><path class="cls-4" d="M392.78,98.82h-1.55V85.32h1.55Z"/><path class="cls-4" d="M400.12,98.82a3.56,3.56,0,0,1-.2-1A2.47,2.47,0,0,1,397.81,99a2.52,2.52,0,0,1-2.74-2.77,2.92,2.92,0,0,1,1-2.31,4.16,4.16,0,0,1,2.7-.87h1.15V92a1.6,1.6,0,0,0-2.68-1.15,1.41,1.41,0,0,0-.44,1.06h-1.55a2.53,2.53,0,0,1,.43-1.4,3,3,0,0,1,1.16-1,3.52,3.52,0,0,1,1.62-.38,3.09,3.09,0,0,1,2.22.73,2.81,2.81,0,0,1,.78,2.11v4.8a6,6,0,0,0,.3,1.91v.14Zm-2.07-1.24a2.09,2.09,0,0,0,1.09-.32,2,2,0,0,0,.76-.79V94.21H399a2.91,2.91,0,0,0-1.75.49,1.58,1.58,0,0,0-.64,1.34,1.75,1.75,0,0,0,.32,1.18A1.43,1.43,0,0,0,398.05,97.58Z"/><path class="cls-4" d="M412.6,96.38a1.16,1.16,0,0,0-.38-.86,5.54,5.54,0,0,0-1.46-.84,9.36,9.36,0,0,1-1.77-.89,2.35,2.35,0,0,1-.77-.84,2.29,2.29,0,0,1-.26-1.12,2.53,2.53,0,0,1,.85-1.93,3.13,3.13,0,0,1,2.17-.77,3.09,3.09,0,0,1,2.23.81,2.76,2.76,0,0,1,.84,2.08h-1.54a1.57,1.57,0,0,0-.43-1.1,1.47,1.47,0,0,0-1.1-.45,1.58,1.58,0,0,0-1.08.35,1.24,1.24,0,0,0-.39,1,1.06,1.06,0,0,0,.29.76,5.19,5.19,0,0,0,1.37.76,6.92,6.92,0,0,1,2.36,1.32,2.31,2.31,0,0,1,.62,1.65,2.49,2.49,0,0,1-.85,2A3.34,3.34,0,0,1,411,99a3.42,3.42,0,0,1-2.41-.86,2.83,2.83,0,0,1-.92-2.16h1.57A1.61,1.61,0,0,0,411,97.67a1.77,1.77,0,0,0,1.18-.35A1.17,1.17,0,0,0,412.6,96.38Z"/><path class="cls-4" d="M415.85,93.62a5,5,0,0,1,1-3.28,3.31,3.31,0,0,1,2.66-1.21,3.35,3.35,0,0,1,2.66,1.18,4.86,4.86,0,0,1,1,3.21v1a4.93,4.93,0,0,1-1,3.27,3.57,3.57,0,0,1-5.32,0,4.82,4.82,0,0,1-1-3.17Zm1.55.9a4,4,0,0,0,.58,2.31,1.78,1.78,0,0,0,1.55.84c1.37,0,2.08-1,2.12-3V93.62a4.05,4.05,0,0,0-.58-2.3,1.8,1.8,0,0,0-1.56-.85,1.75,1.75,0,0,0-1.53.85,4,4,0,0,0-.58,2.3Z"/><path class="cls-4" d="M428.51,97.67a1.64,1.64,0,0,0,1.24-.48,2.05,2.05,0,0,0,.51-1.37h1.47a3.25,3.25,0,0,1-1,2.27,3.05,3.05,0,0,1-2.25.91,3.31,3.31,0,0,1-2.69-1.12,5,5,0,0,1-.93-3.31v-1a5.09,5.09,0,0,1,.92-3.28,3.32,3.32,0,0,1,2.69-1.12,3,3,0,0,1,2.32.93,3.76,3.76,0,0,1,.91,2.52h-1.47a2.56,2.56,0,0,0-.5-1.58,1.59,1.59,0,0,0-1.26-.53,1.77,1.77,0,0,0-1.53.68,3.88,3.88,0,0,0-.52,2.24V94.6a4.23,4.23,0,0,0,.49,2.37A1.79,1.79,0,0,0,428.51,97.67Z"/><path class="cls-4" d="M435.32,86.79a1,1,0,0,1-.22.66.82.82,0,0,1-.66.26.81.81,0,0,1-.66-.26,1.12,1.12,0,0,1,0-1.33.78.78,0,0,1,.66-.27.81.81,0,0,1,.66.27A1,1,0,0,1,435.32,86.79Zm-.12,12h-1.55V89.31h1.55Z"/><path class="cls-4" d="M441.05,99a3.49,3.49,0,0,1-2.73-1.06,4.66,4.66,0,0,1-1-3.11V93.68a5.37,5.37,0,0,1,.93-3.34,3.09,3.09,0,0,1,2.59-1.21,3,3,0,0,1,2.5,1.07,5.45,5.45,0,0,1,.84,3.31v1H438.9v.22a3.41,3.41,0,0,0,.58,2.22,2,2,0,0,0,1.65.7,2.73,2.73,0,0,0,1.21-.26,3,3,0,0,0,1-.82l.81,1A3.52,3.52,0,0,1,441.05,99Zm-.18-8.53a1.63,1.63,0,0,0-1.43.66,4,4,0,0,0-.53,2.06h3.74V93a3.67,3.67,0,0,0-.48-1.93A1.51,1.51,0,0,0,440.87,90.47Zm.76-5.15h2l-2.35,2.58h-1.31Z"/><path class="cls-4" d="M448.11,87v2.3h1.43v1.26h-1.43v5.9a1.57,1.57,0,0,0,.19.86.69.69,0,0,0,.63.29,2,2,0,0,0,.62-.11v1.31a3.41,3.41,0,0,1-1.09.18,1.63,1.63,0,0,1-1.4-.66,3.13,3.13,0,0,1-.49-1.87v-5.9h-1.45V89.31h1.45V87Z"/><path class="cls-4" d="M454.79,99a3.48,3.48,0,0,1-2.72-1.06,4.56,4.56,0,0,1-1-3.11V93.68a5.37,5.37,0,0,1,.93-3.34,3.09,3.09,0,0,1,2.59-1.21,3,3,0,0,1,2.49,1.07,5.52,5.52,0,0,1,.85,3.31v1h-5.31v.22a3.48,3.48,0,0,0,.57,2.22,2,2,0,0,0,1.66.7,2.73,2.73,0,0,0,1.21-.26,3.06,3.06,0,0,0,1-.82l.81,1A3.55,3.55,0,0,1,454.79,99Zm-.17-8.53a1.64,1.64,0,0,0-1.44.66,4,4,0,0,0-.52,2.06h3.74V93a3.57,3.57,0,0,0-.49-1.93A1.48,1.48,0,0,0,454.62,90.47Zm.75-5.15h2L455,87.9h-1.3Z"/><path class="cls-4" d="M470.3,92.9h-4.53v4.54H471v1.38h-6.88V86H471V87.4h-5.18v4.12h4.53Z"/><path class="cls-4" d="M474.71,93.81v5H473.1V86h4.08a3.69,3.69,0,0,1,2.8,1.07,4.57,4.57,0,0,1,0,5.69,3.77,3.77,0,0,1-2.74,1Zm0-1.38h2.47a2.07,2.07,0,0,0,1.64-.64,2.68,2.68,0,0,0,.57-1.84,2.72,2.72,0,0,0-.59-1.85,2,2,0,0,0-1.61-.7h-2.48Z"/><path class="cls-4" d="M484.75,98.82h-1.6V86h1.6Z"/><path class="cls-4" d="M495.93,98.82h-1.61L489.19,89v9.86h-1.62V86h1.62l5.14,9.91V86h1.6Z"/><path class="cls-4" d="M504.85,95.47h-4.33l-1,3.35h-1.65L502,86h1.38l4.13,12.8h-1.65Zm-3.91-1.38h3.49l-1.75-5.82Z"/><path class="cls-4" d="M510.87,97.44h5v1.38h-6.63V86h1.62Z"/></g></g></svg>