<?xml version="1.0" encoding="UTF-8" standalone="no"?>
<svg
   id="Historique"
   viewBox="0 0 315.2 619.21"
   version="1.1"
   sodipodi:docname="timeline-mobile.svg"
   inkscape:version="1.1.2 (b8e25be833, 2022-02-05)"
   xmlns:inkscape="http://www.inkscape.org/namespaces/inkscape"
   xmlns:sodipodi="http://sodipodi.sourceforge.net/DTD/sodipodi-0.dtd"
   xmlns="http://www.w3.org/2000/svg"
   xmlns:svg="http://www.w3.org/2000/svg">
  <sodipodi:namedview
     id="namedview1031"
     pagecolor="#ffffff"
     bordercolor="#666666"
     borderopacity="1.0"
     inkscape:pageshadow="2"
     inkscape:pageopacity="0.0"
     inkscape:pagecheckerboard="0"
     showgrid="false"
     inkscape:zoom="2.5191891"
     inkscape:cx="157.78887"
     inkscape:cy="528.34462"
     inkscape:window-width="1920"
     inkscape:window-height="1017"
     inkscape:window-x="-1928"
     inkscape:window-y="-8"
     inkscape:window-maximized="1"
     inkscape:current-layer="g616" />
  <defs
     id="defs532">
    <style
       id="style530">.cls-1{fill:#e95658;}.cls-2{fill:#fff;}.cls-3{isolation:isolate;}.cls-4{fill:#030303;}.cls-5{fill:#e5383b;}.cls-6{fill:#c30000;}.cls-7{fill:#d1183e;}.cls-8{fill:#89122f;}.cls-9{fill:#5f091e;}</style>
  </defs>
  <g
     id="_2021"
     data-name="2021">
    <path
       id="Tracé"
       class="cls-1"
       d="M154.25,510v99.6l6.3,6.2,6.3-6.2V510l-6.3,6.4Z" />
    <path
       id="Maison"
       class="cls-2"
       d="M163.35,562.56l-2.7-2.5a.45.45,0,0,0-.5,0l-.6.5h-.7a.47.47,0,0,0-.5.5v.6l-1,.9a.31.31,0,0,0-.1.2v.1c.1.1.2.2.3.2h.3v2.4c0,.1.1.2.1.3a.37.37,0,0,0,.3.1h4a.35.35,0,0,0,.4-.4v-2.4h.3c.1,0,.3-.1.3-.2v-.1c.2,0,.2-.1.1-.2" />
    <g
       class="cls-3"
       id="g544">
      <path
         class="cls-1"
         d="M112.91,569.78h-9.74v-1.93l4.6-4.91a12.08,12.08,0,0,0,1.4-1.8,3,3,0,0,0,.45-1.47,2.17,2.17,0,0,0-.48-1.49,1.72,1.72,0,0,0-1.36-.54,1.85,1.85,0,0,0-1.51.66,2.6,2.6,0,0,0-.55,1.73h-2.84a4.71,4.71,0,0,1,.62-2.37,4.38,4.38,0,0,1,1.76-1.68,5.26,5.26,0,0,1,2.56-.61,5.07,5.07,0,0,1,3.42,1,3.73,3.73,0,0,1,1.21,3,4.85,4.85,0,0,1-.54,2.15A12,12,0,0,1,110,564.1l-3.23,3.4h6.11Z"
         id="path536" />
      <path
         class="cls-1"
         d="M123.63,563.9a7.21,7.21,0,0,1-1.22,4.51,4.26,4.26,0,0,1-3.57,1.57,4.31,4.31,0,0,1-3.56-1.54,7,7,0,0,1-1.26-4.39v-2.62a7.08,7.08,0,0,1,1.24-4.52,4.9,4.9,0,0,1,7.11,0,7,7,0,0,1,1.26,4.39ZM120.81,561a5.22,5.22,0,0,0-.48-2.57,1.65,1.65,0,0,0-1.51-.81,1.6,1.6,0,0,0-1.47.77,4.81,4.81,0,0,0-.51,2.4v3.46a5.37,5.37,0,0,0,.48,2.58,1.78,1.78,0,0,0,3,0,5.24,5.24,0,0,0,.48-2.48Z"
         id="path538" />
      <path
         class="cls-1"
         d="M134.7,569.78H125v-1.93l4.6-4.91a12.08,12.08,0,0,0,1.4-1.8,3,3,0,0,0,.45-1.47,2.17,2.17,0,0,0-.48-1.49,1.73,1.73,0,0,0-1.37-.54,1.84,1.84,0,0,0-1.5.66,2.61,2.61,0,0,0-.56,1.73h-2.83a4.71,4.71,0,0,1,.62-2.37,4.38,4.38,0,0,1,1.76-1.68,5.26,5.26,0,0,1,2.56-.61,5.07,5.07,0,0,1,3.42,1,3.73,3.73,0,0,1,1.21,3,4.85,4.85,0,0,1-.54,2.15,12,12,0,0,1-1.88,2.55l-3.23,3.4h6.11Z"
         id="path540" />
      <path
         class="cls-1"
         d="m 145.71312,569.78 h -3.94404 -5.75596 v -1.93 l 4.6,-4.91 c 0.52238,-0.55451 0.99113,-1.15719 1.4,-1.79999 0.27513,-0.4426 0.43023,-0.94923 0.45,-1.47 0.031,-0.53909 -0.14019,-1.07036 -0.48,-1.49001 -0.35344,-0.37507 -0.8557,-0.57304 -1.37,-0.53999 -0.57578,-0.0271 -1.13098,0.21719 -1.5,0.66 -0.38801,0.4909 -0.58674,1.10485 -0.56,1.73 h -2.83 c -0.006,-0.83086 0.20791,-1.64852 0.62,-2.37 0.41623,-0.71498 1.02644,-1.29746 1.76,-1.68 0.78786,-0.41697 1.66876,-0.62687 2.56,-0.61 1.22344,-0.0914 2.43854,0.26385 3.42,1 0.83853,0.76398 1.28383,1.86803 1.21,3 -0.0116,0.74874 -0.19643,1.48463 -0.54,2.15 -0.51122,0.92935 -1.14339,1.78681 -1.88,2.54999 l -3.23,3.4 h 6.11 z"
         id="path540-4"
         style="fill:#e95658"
         sodipodi:nodetypes="cccccccccccccccccccccc" />
    </g>
    <g
       class="cls-3"
       id="g616">
      <path
         class="cls-4"
         d="M179.83,556.17a4.59,4.59,0,0,1-.81,2.92,2.75,2.75,0,0,1-2.29,1,2.79,2.79,0,0,1-2.26-1,4.42,4.42,0,0,1-.86-2.81v-1.74a4.68,4.68,0,0,1,.82-2.91,3,3,0,0,1,4.56,0,4.54,4.54,0,0,1,.84,2.87Zm-1.17-1.61a3.94,3.94,0,0,0-.47-2.18,1.64,1.64,0,0,0-1.47-.72,1.62,1.62,0,0,0-1.45.73,3.76,3.76,0,0,0-.5,2.13v1.65a3.88,3.88,0,0,0,.49,2.16,1.84,1.84,0,0,0,2.92.06,3.87,3.87,0,0,0,.48-2.1Z"
         id="path546" />
      <path
         class="cls-4"
         d="M185,559.38a1.92,1.92,0,0,1-1.63.73,1.62,1.62,0,0,1-1.41-.64,3.19,3.19,0,0,1-.49-1.88v-4.47h1.12v4.39c0,1.07.32,1.6,1,1.6a1.41,1.41,0,0,0,1.41-.91v-5.08h1.12V560H185Z"
         id="path548" />
      <path
         class="cls-4"
         d="M189.7,558.28l1.3-5.16h1.14l-2,6.86h-.83l-2.07-6.86h1.15Z"
         id="path550" />
      <path
         class="cls-4"
         d="M195.68,560.11a2.48,2.48,0,0,1-2-.76,3.26,3.26,0,0,1-.7-2.25v-.83a3.86,3.86,0,0,1,.67-2.41,2.22,2.22,0,0,1,1.87-.87,2.12,2.12,0,0,1,1.8.77,3.93,3.93,0,0,1,.61,2.39v.74h-3.84V557a2.48,2.48,0,0,0,.42,1.61,1.49,1.49,0,0,0,1.2.5,1.86,1.86,0,0,0,.87-.19,2.13,2.13,0,0,0,.71-.59l.58.71A2.55,2.55,0,0,1,195.68,560.11Zm-.12-6.16a1.19,1.19,0,0,0-1,.48,2.91,2.91,0,0,0-.38,1.49h2.7v-.15a2.61,2.61,0,0,0-.35-1.4A1.07,1.07,0,0,0,195.56,554Z"
         id="path552" />
      <path
         class="cls-4"
         d="M202.15,554.17a2.67,2.67,0,0,0-.51,0,1.24,1.24,0,0,0-1.2,1V560h-1.13v-6.86h1.1v.69a1.41,1.41,0,0,1,1.28-.82.93.93,0,0,1,.44.09Z"
         id="path554" />
      <path
         class="cls-4"
         d="M205.06,551.45v1.67h1v.9h-1v4.27a1.13,1.13,0,0,0,.13.61.5.5,0,0,0,.46.21,1.41,1.41,0,0,0,.45-.07V560a2.36,2.36,0,0,1-.78.13,1.18,1.18,0,0,1-1-.48,2.23,2.23,0,0,1-.35-1.34V554h-1.05v-.9h1.05v-1.67Z"
         id="path556" />
      <path
         class="cls-4"
         d="M210.93,559.38a1.92,1.92,0,0,1-1.63.73,1.64,1.64,0,0,1-1.41-.64,3.12,3.12,0,0,1-.48-1.88v-4.47h1.11v4.39c0,1.07.33,1.6,1,1.6a1.41,1.41,0,0,0,1.41-.91v-5.08H212V560H211Z"
         id="path558" />
      <path
         class="cls-4"
         d="M216.55,554.17a2.76,2.76,0,0,0-.51,0,1.24,1.24,0,0,0-1.21,1V560h-1.12v-6.86h1.09l0,.69a1.4,1.4,0,0,1,1.28-.82,1,1,0,0,1,.44.09Z"
         id="path560" />
      <path
         class="cls-4"
         d="M220,560.11a2.52,2.52,0,0,1-2-.76,3.36,3.36,0,0,1-.7-2.25v-.83a3.92,3.92,0,0,1,.67-2.41,2.23,2.23,0,0,1,1.87-.87,2.13,2.13,0,0,1,1.81.77,4,4,0,0,1,.61,2.39v.74h-3.84V557a2.48,2.48,0,0,0,.42,1.61,1.46,1.46,0,0,0,1.19.5,1.93,1.93,0,0,0,.88-.19,2.1,2.1,0,0,0,.7-.59l.59.71A2.55,2.55,0,0,1,220,560.11Zm-.13-6.16a1.17,1.17,0,0,0-1,.48,2.81,2.81,0,0,0-.38,1.49h2.7v-.15a2.61,2.61,0,0,0-.35-1.4A1.1,1.1,0,0,0,219.87,554Z"
         id="path562" />
      <path
         class="cls-4"
         d="M226.37,556.24a4.1,4.1,0,0,1,.6-2.42,2,2,0,0,1,1.7-.83,1.75,1.75,0,0,1,1.54.8v-3.56h1.12V560h-1l-.05-.73a1.78,1.78,0,0,1-1.58.86,2,2,0,0,1-1.68-.83,4,4,0,0,1-.62-2.34Zm1.13.64a3.22,3.22,0,0,0,.34,1.69,1.23,1.23,0,0,0,1.12.54,1.33,1.33,0,0,0,1.25-.84v-3.46A1.35,1.35,0,0,0,229,554a1.21,1.21,0,0,0-1.11.54,3.13,3.13,0,0,0-.35,1.66Z"
         id="path564" />
      <path
         class="cls-4"
         d="M235.51,560.11a2.48,2.48,0,0,1-2-.76,3.31,3.31,0,0,1-.7-2.25v-.83a3.86,3.86,0,0,1,.67-2.41,2.22,2.22,0,0,1,1.87-.87,2.12,2.12,0,0,1,1.8.77,3.93,3.93,0,0,1,.61,2.39v.74H234V557a2.49,2.49,0,0,0,.41,1.61,1.49,1.49,0,0,0,1.2.5,1.86,1.86,0,0,0,.87-.19,2.13,2.13,0,0,0,.71-.59l.58.71A2.53,2.53,0,0,1,235.51,560.11Zm-.12-6.16a1.19,1.19,0,0,0-1,.48,2.91,2.91,0,0,0-.38,1.49h2.71v-.15a2.6,2.6,0,0,0-.36-1.4A1.07,1.07,0,0,0,235.39,554Z"
         id="path566" />
      <path
         class="cls-4"
         d="M243.33,560h-1.12v-9.75h1.12Z"
         id="path568" />
      <path
         class="cls-4"
         d="M245.25,553.34l-.63-.45a3.47,3.47,0,0,0,.51-1.73v-.93h1.11v.86a3.32,3.32,0,0,1-.28,1.24A2.91,2.91,0,0,1,245.25,553.34Z"
         id="path570" />
      <path
         class="cls-4"
         d="M250.84,560a2.75,2.75,0,0,1-.14-.75,1.79,1.79,0,0,1-1.53.88,2,2,0,0,1-1.45-.52,2,2,0,0,1-.53-1.48,2.09,2.09,0,0,1,.71-1.66,3,3,0,0,1,1.95-.63h.83v-.73a1,1,0,0,0-1.11-1.14,1.15,1.15,0,0,0-.82.3,1,1,0,0,0-.32.77h-1.12a1.81,1.81,0,0,1,.31-1,2.18,2.18,0,0,1,.84-.75,2.52,2.52,0,0,1,1.17-.27,2.22,2.22,0,0,1,1.6.52,2.05,2.05,0,0,1,.57,1.53v3.46a4.09,4.09,0,0,0,.21,1.38v.1Zm-1.49-.89a1.5,1.5,0,0,0,.78-.23,1.43,1.43,0,0,0,.55-.57v-1.64H250a2.14,2.14,0,0,0-1.26.36,1.13,1.13,0,0,0-.46,1,1.31,1.31,0,0,0,.23.85A1.05,1.05,0,0,0,249.35,559.09Z"
         id="path572" />
      <path
         class="cls-4"
         d="M253.31,556.24a4.19,4.19,0,0,1,.59-2.43,2,2,0,0,1,1.7-.82,1.78,1.78,0,0,1,1.6.89l.06-.76h1v6.93a2.72,2.72,0,0,1-.65,2,2.4,2.4,0,0,1-1.82.69,3.27,3.27,0,0,1-1.14-.25,2.41,2.41,0,0,1-.95-.62l.45-.78a2.16,2.16,0,0,0,1.55.69q1.39,0,1.44-1.53v-.9a1.77,1.77,0,0,1-1.55.81,2,2,0,0,1-1.67-.8,4,4,0,0,1-.62-2.31Zm1.13.64a3.22,3.22,0,0,0,.34,1.69,1.2,1.2,0,0,0,1.11.54,1.34,1.34,0,0,0,1.26-.85v-3.43a1.37,1.37,0,0,0-1.25-.84,1.21,1.21,0,0,0-1.11.54,3.13,3.13,0,0,0-.35,1.66Z"
         id="path574" />
      <path
         class="cls-4"
         d="M262.4,560.11a2.5,2.5,0,0,1-2-.76,3.31,3.31,0,0,1-.7-2.25v-.83a3.86,3.86,0,0,1,.67-2.41,2.23,2.23,0,0,1,1.87-.87,2.12,2.12,0,0,1,1.8.77,3.93,3.93,0,0,1,.61,2.39v.74h-3.83V557a2.55,2.55,0,0,0,.41,1.61,1.49,1.49,0,0,0,1.2.5,1.86,1.86,0,0,0,.87-.19,2.13,2.13,0,0,0,.71-.59l.58.71A2.53,2.53,0,0,1,262.4,560.11Zm-.13-6.16a1.19,1.19,0,0,0-1,.48,2.91,2.91,0,0,0-.38,1.49h2.71v-.15a2.7,2.7,0,0,0-.35-1.4A1.1,1.1,0,0,0,262.27,554Z"
         id="path576" />
      <path
         class="cls-4"
         d="M267.09,553.12l0,.74a2,2,0,0,1,1.67-.87c1.21,0,1.83.81,1.85,2.43V560h-1.12v-4.51a1.89,1.89,0,0,0-.27-1.15,1,1,0,0,0-.81-.33,1.15,1.15,0,0,0-.75.27,2.14,2.14,0,0,0-.54.73v5H266v-6.86Z"
         id="path578" />
      <path
         class="cls-4"
         d="M274.7,559.15a1.18,1.18,0,0,0,.9-.34,1.49,1.49,0,0,0,.37-1H277a2.35,2.35,0,0,1-.7,1.64,2.27,2.27,0,0,1-1.63.65,2.4,2.4,0,0,1-1.94-.8,3.64,3.64,0,0,1-.67-2.39v-.76a3.59,3.59,0,0,1,.67-2.36,2.36,2.36,0,0,1,1.94-.81,2.15,2.15,0,0,1,1.67.67,2.74,2.74,0,0,1,.66,1.82H276a1.92,1.92,0,0,0-.37-1.15,1.13,1.13,0,0,0-.9-.38,1.28,1.28,0,0,0-1.11.5,2.81,2.81,0,0,0-.38,1.61v.88a3,3,0,0,0,.36,1.71A1.31,1.31,0,0,0,274.7,559.15Z"
         id="path580" />
      <path
         class="cls-4"
         d="M280.78,560.11a2.5,2.5,0,0,1-2-.76,3.31,3.31,0,0,1-.7-2.25v-.83a3.92,3.92,0,0,1,.67-2.41,2.23,2.23,0,0,1,1.87-.87,2.13,2.13,0,0,1,1.81.77,3.94,3.94,0,0,1,.6,2.39v.74h-3.83V557a2.48,2.48,0,0,0,.42,1.61,1.46,1.46,0,0,0,1.19.5,1.93,1.93,0,0,0,.88-.19,2.1,2.1,0,0,0,.7-.59l.59.71A2.55,2.55,0,0,1,280.78,560.11Zm-.13-6.16a1.17,1.17,0,0,0-1,.48,2.81,2.81,0,0,0-.38,1.49h2.7v-.15a2.7,2.7,0,0,0-.35-1.4A1.1,1.1,0,0,0,280.65,554Z"
         id="path582" />
      <path
         class="cls-4"
         d="M173.42,571.84a4.1,4.1,0,0,1,.6-2.42,2,2,0,0,1,1.7-.83,1.75,1.75,0,0,1,1.54.8v-3.56h1.12v9.75h-1l-.06-.73a1.76,1.76,0,0,1-1.58.86,2,2,0,0,1-1.67-.83,4,4,0,0,1-.62-2.34Zm1.13.64a3.24,3.24,0,0,0,.34,1.69,1.23,1.23,0,0,0,1.12.54,1.34,1.34,0,0,0,1.25-.84v-3.46a1.37,1.37,0,0,0-1.25-.83,1.24,1.24,0,0,0-1.12.55,3.24,3.24,0,0,0-.34,1.66Z"
         id="path584" />
      <path
         class="cls-4"
         d="M182.56,575.71a2.55,2.55,0,0,1-2-.76,3.31,3.31,0,0,1-.69-2.25v-.83a3.86,3.86,0,0,1,.67-2.41,2.21,2.21,0,0,1,1.86-.87,2.13,2.13,0,0,1,1.81.77,3.93,3.93,0,0,1,.61,2.39v.74H181v.15a2.48,2.48,0,0,0,.42,1.61,1.48,1.48,0,0,0,1.2.5,1.86,1.86,0,0,0,.87-.19,2.13,2.13,0,0,0,.71-.59l.58.71A2.55,2.55,0,0,1,182.56,575.71Zm-.13-6.16a1.17,1.17,0,0,0-1,.48,2.91,2.91,0,0,0-.38,1.49h2.7v-.15a2.61,2.61,0,0,0-.35-1.4A1.08,1.08,0,0,0,182.43,569.55Z"
         id="path586" />
      <path
         class="cls-4"
         d="M190.49,572v3.62h-1.16v-9.24h2.94a2.69,2.69,0,0,1,2,.77,2.86,2.86,0,0,1,.74,2,2.83,2.83,0,0,1-.71,2.06,2.65,2.65,0,0,1-2,.74Zm0-1h1.78a1.5,1.5,0,0,0,1.19-.47,1.91,1.91,0,0,0,.41-1.33,2,2,0,0,0-.42-1.33,1.44,1.44,0,0,0-1.17-.5h-1.79Z"
         id="path588" />
      <path
         class="cls-4"
         d="M199.84,575.58a2.35,2.35,0,0,1-.15-.75,1.76,1.76,0,0,1-1.52.88,2,2,0,0,1-1.46-.52,2.05,2.05,0,0,1-.52-1.48,2.09,2.09,0,0,1,.71-1.66,2.94,2.94,0,0,1,1.95-.63h.83v-.73a1.2,1.2,0,0,0-.28-.88,1.18,1.18,0,0,0-.83-.26,1.13,1.13,0,0,0-.82.3,1,1,0,0,0-.32.77h-1.12a1.81,1.81,0,0,1,.31-1,2.08,2.08,0,0,1,.83-.75,2.59,2.59,0,0,1,1.18-.27,2.23,2.23,0,0,1,1.6.52,2,2,0,0,1,.56,1.53v3.46a4.34,4.34,0,0,0,.22,1.38v.1Zm-1.5-.89a1.51,1.51,0,0,0,.79-.23,1.43,1.43,0,0,0,.55-.57v-1.64H199a2.14,2.14,0,0,0-1.26.36,1.14,1.14,0,0,0-.47,1,1.2,1.2,0,0,0,.24.84A1,1,0,0,0,198.34,574.69Z"
         id="path590" />
      <path
         class="cls-4"
         d="M205.37,569.77a2.76,2.76,0,0,0-.51,0,1.23,1.23,0,0,0-1.2.95v4.91h-1.13v-6.87h1.09l0,.7a1.4,1.4,0,0,1,1.28-.82,1,1,0,0,1,.44.09Z"
         id="path592" />
      <path
         class="cls-4"
         d="M207.79,566.89a.77.77,0,0,1-.16.48.59.59,0,0,1-.48.19.58.58,0,0,1-.48-.19.8.8,0,0,1,0-1,.58.58,0,0,1,.48-.2.6.6,0,0,1,.48.2A.81.81,0,0,1,207.79,566.89Zm-.09,8.69h-1.12v-6.87h1.12Z"
         id="path594" />
      <path
         class="cls-4"
         d="M212.8,573.83a.85.85,0,0,0-.27-.63,4.3,4.3,0,0,0-1.05-.61,6.42,6.42,0,0,1-1.28-.64,1.85,1.85,0,0,1-.56-.6,1.73,1.73,0,0,1-.18-.81,1.81,1.81,0,0,1,.61-1.4,2.52,2.52,0,0,1,3.18,0,2,2,0,0,1,.61,1.5h-1.12a1.09,1.09,0,0,0-.31-.79,1,1,0,0,0-.8-.33,1.1,1.1,0,0,0-.77.26.88.88,0,0,0-.29.68.76.76,0,0,0,.21.56,3.81,3.81,0,0,0,1,.55,4.91,4.91,0,0,1,1.71.95,1.66,1.66,0,0,1,.45,1.19,1.8,1.8,0,0,1-.62,1.43,2.41,2.41,0,0,1-1.65.54,2.45,2.45,0,0,1-1.74-.62,2,2,0,0,1-.67-1.56h1.13a1.31,1.31,0,0,0,.35.9,1.3,1.3,0,0,0,.93.32,1.25,1.25,0,0,0,.85-.25A.82.82,0,0,0,212.8,573.83Z"
         id="path596" />
    </g>
  </g>
  <g
     id="_2019"
     data-name="2019">
    <path
       id="Tracé-2"
       data-name="Tracé"
       class="cls-5"
       d="M154.25,408.7v99.6l6.3,6.2,6.3-6.2V408.7l-6.3,6.4Z" />
    <path
       id="Maison-2"
       data-name="Maison"
       class="cls-2"
       d="M163.35,461.3l-2.7-2.5a.45.45,0,0,0-.5,0l-.6.5h-.7a.47.47,0,0,0-.5.5v.6l-1,.9a.31.31,0,0,0-.1.2v.1c.1.1.2.2.3.2h.3v2.4c0,.1.1.2.1.3a.37.37,0,0,0,.3.1h4a.35.35,0,0,0,.4-.4v-2.4h.3c.1,0,.3-.1.3-.2v-.1c.2,0,.2-.1.1-.2" />
    <g
       class="cls-3"
       id="g629">
      <path
         class="cls-5"
         d="M182.85,468.52H173.1v-1.94l4.6-4.9a11,11,0,0,0,1.4-1.81,2.92,2.92,0,0,0,.46-1.46,2.22,2.22,0,0,0-.48-1.49,1.74,1.74,0,0,0-1.37-.54,1.86,1.86,0,0,0-1.51.66,2.6,2.6,0,0,0-.55,1.73h-2.83a4.59,4.59,0,0,1,.62-2.37,4.32,4.32,0,0,1,1.75-1.69,5.39,5.39,0,0,1,2.57-.61,5,5,0,0,1,3.41,1.06,3.72,3.72,0,0,1,1.22,3,4.87,4.87,0,0,1-.55,2.15,12.13,12.13,0,0,1-1.87,2.54l-3.24,3.41h6.12Z"
         id="path621" />
      <path
         class="cls-5"
         d="M193.56,462.64a7.17,7.17,0,0,1-1.22,4.51,4.87,4.87,0,0,1-7.12,0,6.93,6.93,0,0,1-1.26-4.39v-2.62a7.1,7.1,0,0,1,1.23-4.52,4.88,4.88,0,0,1,7.12,0,6.91,6.91,0,0,1,1.25,4.39Zm-2.82-2.88a5.19,5.19,0,0,0-.48-2.57,1.64,1.64,0,0,0-1.51-.81,1.6,1.6,0,0,0-1.47.77,4.83,4.83,0,0,0-.5,2.4V463a5.38,5.38,0,0,0,.47,2.58,1.61,1.61,0,0,0,1.52.85,1.57,1.57,0,0,0,1.49-.81,5.29,5.29,0,0,0,.48-2.49Z"
         id="path623" />
      <path
         class="cls-5"
         d="M201.74,468.52h-2.82V457.64l-3.37,1v-2.29l5.89-2.11h.3Z"
         id="path625" />
      <path
         class="cls-5"
         d="M212.39,462.83a3.56,3.56,0,0,1-2.58,1.09,3.79,3.79,0,0,1-3-1.3,5.07,5.07,0,0,1-1.13-3.49,5.4,5.4,0,0,1,.61-2.56,4.46,4.46,0,0,1,1.7-1.82,4.76,4.76,0,0,1,2.46-.65,4.51,4.51,0,0,1,2.5.71,4.59,4.59,0,0,1,1.7,2,7.36,7.36,0,0,1,.62,3v1a8.24,8.24,0,0,1-1.77,5.59,6.69,6.69,0,0,1-5,2.16h-.69V466.3h.62Q212.08,466.13,212.39,462.83Zm-1.89-1.07a2,2,0,0,0,1.18-.35,2.39,2.39,0,0,0,.74-.85V459.4a3.93,3.93,0,0,0-.54-2.23,1.71,1.71,0,0,0-1.47-.79,1.64,1.64,0,0,0-1.39.78,3.7,3.7,0,0,0,0,3.85A1.74,1.74,0,0,0,210.5,461.76Z"
         id="path627" />
    </g>
    <g
       class="cls-3"
       id="g729">
      <path
         class="cls-4"
         d="M51.89,450.72v-9.24H54.1a3.19,3.19,0,0,1,2.51,1,4.16,4.16,0,0,1,.89,2.85v1.55a4.09,4.09,0,0,1-.9,2.83,3.39,3.39,0,0,1-2.64,1Zm1.17-8.25v7.25H54a2.16,2.16,0,0,0,1.79-.7,3.37,3.37,0,0,0,.58-2.08V445.3a3.3,3.3,0,0,0-.57-2.14,2,2,0,0,0-1.69-.69Z"
         id="path631" />
      <path
         class="cls-4"
         d="M61.61,450.85a2.52,2.52,0,0,1-2-.77,3.28,3.28,0,0,1-.69-2.24V447a3.9,3.9,0,0,1,.66-2.41,2.23,2.23,0,0,1,1.87-.87,2.15,2.15,0,0,1,1.81.76,4,4,0,0,1,.61,2.4v.73H60.06v.16a2.5,2.5,0,0,0,.42,1.61,1.48,1.48,0,0,0,1.2.5,1.86,1.86,0,0,0,.87-.19,2.13,2.13,0,0,0,.71-.59l.58.71A2.57,2.57,0,0,1,61.61,450.85Zm-.13-6.16a1.17,1.17,0,0,0-1,.48,2.91,2.91,0,0,0-.38,1.49h2.7v-.15a2.58,2.58,0,0,0-.35-1.4A1.08,1.08,0,0,0,61.48,444.69ZM62,441h1.42l-1.7,1.87h-.94Z"
         id="path633" />
      <path
         class="cls-4"
         d="M67.11,449l1.3-5.16h1.14l-2,6.87h-.84l-2.07-6.87h1.15Z"
         id="path635" />
      <path
         class="cls-4"
         d="M73.09,450.85a2.49,2.49,0,0,1-2-.77,3.28,3.28,0,0,1-.7-2.24V447a3.84,3.84,0,0,1,.67-2.41,2.22,2.22,0,0,1,1.87-.87,2.14,2.14,0,0,1,1.8.76,4,4,0,0,1,.61,2.4v.73H71.55v.16a2.51,2.51,0,0,0,.41,1.61,1.49,1.49,0,0,0,1.2.5,1.86,1.86,0,0,0,.87-.19,2.13,2.13,0,0,0,.71-.59l.58.71A2.56,2.56,0,0,1,73.09,450.85ZM73,444.69a1.19,1.19,0,0,0-1,.48,2.91,2.91,0,0,0-.38,1.49h2.71v-.15a2.57,2.57,0,0,0-.36-1.4A1.07,1.07,0,0,0,73,444.69Z"
         id="path637" />
      <path
         class="cls-4"
         d="M77.94,450.72H76.81V441h1.13Z"
         id="path639" />
      <path
         class="cls-4"
         d="M79.47,447a3.61,3.61,0,0,1,.72-2.37,2.57,2.57,0,0,1,3.84,0,3.46,3.46,0,0,1,.75,2.31v.73a3.6,3.6,0,0,1-.72,2.36,2.58,2.58,0,0,1-3.85,0,3.45,3.45,0,0,1-.74-2.28Zm1.12.65a2.87,2.87,0,0,0,.42,1.66,1.27,1.27,0,0,0,1.12.61c1,0,1.5-.72,1.53-2.15V447a2.93,2.93,0,0,0-.42-1.67,1.3,1.3,0,0,0-1.13-.61,1.25,1.25,0,0,0-1.1.61,2.89,2.89,0,0,0-.42,1.66Z"
         id="path641" />
      <path
         class="cls-4"
         d="M91.19,447.62a4.07,4.07,0,0,1-.59,2.43,1.94,1.94,0,0,1-1.66.8,1.83,1.83,0,0,1-1.59-.78v3.29H86.23v-9.51h1l.06.76a1.79,1.79,0,0,1,1.62-.88,1.92,1.92,0,0,1,1.68.78,4.1,4.1,0,0,1,.58,2.36ZM90.07,447a3.19,3.19,0,0,0-.35-1.71,1.28,1.28,0,0,0-1.14-.55,1.33,1.33,0,0,0-1.23.81v3.57a1.33,1.33,0,0,0,1.24.79,1.23,1.23,0,0,0,1.12-.55,3.13,3.13,0,0,0,.36-1.68Z"
         id="path643" />
      <path
         class="cls-4"
         d="M97.6,447.62a4.15,4.15,0,0,1-.58,2.43,2,2,0,0,1-1.66.8,1.86,1.86,0,0,1-1.6-.78v3.29H92.64v-9.51h1l.06.76a1.79,1.79,0,0,1,1.62-.88,1.92,1.92,0,0,1,1.68.78,4.1,4.1,0,0,1,.58,2.36ZM96.49,447a3.18,3.18,0,0,0-.36-1.71,1.28,1.28,0,0,0-1.14-.55,1.33,1.33,0,0,0-1.23.81v3.57a1.33,1.33,0,0,0,1.24.79,1.23,1.23,0,0,0,1.12-.55,3.22,3.22,0,0,0,.37-1.68Z"
         id="path645" />
      <path
         class="cls-4"
         d="M101.51,450.85a2.51,2.51,0,0,1-2-.77,3.28,3.28,0,0,1-.7-2.24V447a3.84,3.84,0,0,1,.67-2.41,2.23,2.23,0,0,1,1.87-.87,2.14,2.14,0,0,1,1.8.76,4,4,0,0,1,.61,2.4v.73H100v.16a2.57,2.57,0,0,0,.41,1.61,1.49,1.49,0,0,0,1.2.5,1.86,1.86,0,0,0,.87-.19,2.13,2.13,0,0,0,.71-.59l.58.71A2.54,2.54,0,0,1,101.51,450.85Zm-.13-6.16a1.16,1.16,0,0,0-1,.48,2.8,2.8,0,0,0-.39,1.49h2.71v-.15a2.67,2.67,0,0,0-.35-1.4A1.1,1.1,0,0,0,101.38,444.69Z"
         id="path647" />
      <path
         class="cls-4"
         d="M106.2,443.85l0,.64a2,2,0,0,1,1.66-.76,1.63,1.63,0,0,1,1.61,1,2,2,0,0,1,1.8-1c1.26,0,1.91.78,1.94,2.36v4.63h-1.12V446.2a1.93,1.93,0,0,0-.26-1.11,1,1,0,0,0-.9-.37,1,1,0,0,0-.83.4,1.83,1.83,0,0,0-.37,1v4.6h-1.13v-4.57c0-.95-.4-1.43-1.16-1.43a1.23,1.23,0,0,0-1.2.85v5.15h-1.12v-6.87Z"
         id="path649" />
      <path
         class="cls-4"
         d="M117.38,450.85a2.5,2.5,0,0,1-2-.77,3.28,3.28,0,0,1-.7-2.24V447a3.84,3.84,0,0,1,.67-2.41,2.23,2.23,0,0,1,1.87-.87,2.14,2.14,0,0,1,1.8.76,4,4,0,0,1,.61,2.4v.73h-3.83v.16a2.57,2.57,0,0,0,.41,1.61,1.49,1.49,0,0,0,1.2.5,1.86,1.86,0,0,0,.87-.19,2.13,2.13,0,0,0,.71-.59l.58.71A2.55,2.55,0,0,1,117.38,450.85Zm-.13-6.16a1.19,1.19,0,0,0-1,.48,2.91,2.91,0,0,0-.38,1.49h2.71v-.15a2.57,2.57,0,0,0-.36-1.4A1.07,1.07,0,0,0,117.25,444.69Z"
         id="path651" />
      <path
         class="cls-4"
         d="M122.07,443.85l0,.75a2,2,0,0,1,1.67-.87c1.21,0,1.83.81,1.84,2.43v4.56H124.5v-4.51a1.89,1.89,0,0,0-.27-1.15,1,1,0,0,0-.81-.34,1.16,1.16,0,0,0-.75.28,2,2,0,0,0-.54.73v5H121v-6.87Z"
         id="path653" />
      <path
         class="cls-4"
         d="M128.77,442.19v1.66h1v.91h-1V449a1.15,1.15,0,0,0,.13.62.5.5,0,0,0,.46.21,1.41,1.41,0,0,0,.45-.07v.94a2.36,2.36,0,0,1-.78.13,1.18,1.18,0,0,1-1-.48,2.25,2.25,0,0,1-.35-1.34v-4.27H126.6v-.91h1.05v-1.66Z"
         id="path655" />
      <path
         class="cls-4"
         d="M133.88,447a4.17,4.17,0,0,1,.59-2.42,2,2,0,0,1,1.71-.83,1.74,1.74,0,0,1,1.53.8V441h1.13v9.75h-1l-.06-.74a1.76,1.76,0,0,1-1.58.87,2,2,0,0,1-1.67-.83,3.93,3.93,0,0,1-.62-2.34Zm1.12.63a3.24,3.24,0,0,0,.35,1.7,1.21,1.21,0,0,0,1.11.54,1.32,1.32,0,0,0,1.25-.84v-3.46a1.34,1.34,0,0,0-1.24-.83,1.23,1.23,0,0,0-1.12.54,3.3,3.3,0,0,0-.35,1.67Z"
         id="path657" />
      <path
         class="cls-4"
         d="M144.07,450.12a2,2,0,0,1-1.63.73,1.63,1.63,0,0,1-1.41-.65,3.16,3.16,0,0,1-.49-1.87v-4.48h1.12v4.39c0,1.08.32,1.61,1,1.61a1.41,1.41,0,0,0,1.41-.91v-5.09h1.12v6.87h-1.07Z"
         id="path659" />
      <path
         class="cls-4"
         d="M43.56,459.45l0,.64a2,2,0,0,1,1.66-.76,1.63,1.63,0,0,1,1.61,1,2,2,0,0,1,1.8-1c1.26,0,1.91.78,1.94,2.36v4.63H49.48V461.8a1.85,1.85,0,0,0-.27-1.11,1,1,0,0,0-.9-.37,1,1,0,0,0-.83.39,1.89,1.89,0,0,0-.37,1v4.6H46v-4.57c0-.95-.4-1.43-1.16-1.43a1.23,1.23,0,0,0-1.2.85v5.15H42.51v-6.87Z"
         id="path661" />
      <path
         class="cls-4"
         d="M54.74,466.45a2.51,2.51,0,0,1-2-.77,3.3,3.3,0,0,1-.7-2.24v-.83a3.84,3.84,0,0,1,.67-2.41,2.23,2.23,0,0,1,1.87-.87,2.13,2.13,0,0,1,1.8.76,4,4,0,0,1,.61,2.4v.73H53.19v.16A2.57,2.57,0,0,0,53.6,465a1.49,1.49,0,0,0,1.2.5,1.86,1.86,0,0,0,.87-.19,2,2,0,0,0,.71-.59l.59.71A2.57,2.57,0,0,1,54.74,466.45Zm-.13-6.16a1.16,1.16,0,0,0-1,.48,2.78,2.78,0,0,0-.39,1.49H55.9v-.15a2.67,2.67,0,0,0-.35-1.4A1.1,1.1,0,0,0,54.61,460.29Zm.55-3.72h1.42l-1.7,1.87h-1Z"
         id="path663" />
      <path
         class="cls-4"
         d="M59.84,457.79v1.66h1v.91h-1v4.26a1.25,1.25,0,0,0,.13.62.51.51,0,0,0,.46.21,1.19,1.19,0,0,0,.45-.08v.95a2.36,2.36,0,0,1-.78.13,1.19,1.19,0,0,1-1-.48,2.28,2.28,0,0,1-.35-1.35v-4.26h-1v-.91h1v-1.66Z"
         id="path665" />
      <path
         class="cls-4"
         d="M63.51,457.63a.71.71,0,0,1-.16.48.7.7,0,0,1-1,0,.8.8,0,0,1,0-1,.68.68,0,0,1,1,0A.71.71,0,0,1,63.51,457.63Zm-.09,8.69H62.3v-6.87h1.12Z"
         id="path667" />
      <path
         class="cls-4"
         d="M67.64,466.45a2.52,2.52,0,0,1-2-.77,3.3,3.3,0,0,1-.69-2.24v-.83a3.9,3.9,0,0,1,.66-2.41,2.25,2.25,0,0,1,1.88-.87,2.14,2.14,0,0,1,1.8.76,4,4,0,0,1,.61,2.4v.73H66.09v.16a2.5,2.5,0,0,0,.42,1.61,1.48,1.48,0,0,0,1.2.5,1.86,1.86,0,0,0,.87-.19,2.13,2.13,0,0,0,.71-.59l.58.71A2.57,2.57,0,0,1,67.64,466.45Zm-.12-6.16a1.18,1.18,0,0,0-1,.48,2.88,2.88,0,0,0-.38,1.49h2.7v-.15a2.58,2.58,0,0,0-.35-1.4A1.08,1.08,0,0,0,67.52,460.29Z"
         id="path669" />
      <path
         class="cls-4"
         d="M74.11,460.51a2.76,2.76,0,0,0-.51-.05,1.23,1.23,0,0,0-1.2,1v4.91H71.27v-6.87h1.09l0,.7a1.4,1.4,0,0,1,1.28-.82,1,1,0,0,1,.44.08Z"
         id="path671" />
      <path
         class="cls-4"
         d="M78,462.58a4.17,4.17,0,0,1,.59-2.42,2,2,0,0,1,1.71-.83,1.76,1.76,0,0,1,1.53.79v-3.55h1.13v9.75h-1l-.06-.74a1.76,1.76,0,0,1-1.58.87,2,2,0,0,1-1.67-.83,3.93,3.93,0,0,1-.62-2.34Zm1.12.63a3.24,3.24,0,0,0,.35,1.7,1.21,1.21,0,0,0,1.11.54,1.32,1.32,0,0,0,1.25-.84v-3.46a1.34,1.34,0,0,0-1.24-.83,1.23,1.23,0,0,0-1.12.54,3.3,3.3,0,0,0-.35,1.67Z"
         id="path673" />
      <path
         class="cls-4"
         d="M84.8,459.68l-.63-.46a3.43,3.43,0,0,0,.51-1.72v-.93H85.8v.86a3.34,3.34,0,0,1-.29,1.23A2.74,2.74,0,0,1,84.8,459.68Z"
         id="path675" />
      <path
         class="cls-4"
         d="M89.26,466.45a2.52,2.52,0,0,1-2-.77,3.3,3.3,0,0,1-.69-2.24v-.83a3.84,3.84,0,0,1,.67-2.41,2.22,2.22,0,0,1,1.87-.87,2.14,2.14,0,0,1,1.8.76,4,4,0,0,1,.61,2.4v.73H87.71v.16a2.5,2.5,0,0,0,.42,1.61,1.49,1.49,0,0,0,1.2.5,1.86,1.86,0,0,0,.87-.19,2.13,2.13,0,0,0,.71-.59l.58.71A2.57,2.57,0,0,1,89.26,466.45Zm-.12-6.16a1.18,1.18,0,0,0-1,.48,2.88,2.88,0,0,0-.38,1.49h2.7v-.15a2.58,2.58,0,0,0-.35-1.4A1.08,1.08,0,0,0,89.14,460.29Zm.54-3.72H91.1l-1.7,1.87h-.94Z"
         id="path677" />
      <path
         class="cls-4"
         d="M95.28,465.49a1.18,1.18,0,0,0,.89-.35,1.43,1.43,0,0,0,.37-1H97.6a2.33,2.33,0,0,1-.7,1.64,2.23,2.23,0,0,1-1.62.65,2.39,2.39,0,0,1-2-.81,3.68,3.68,0,0,1-.67-2.39v-.75a3.68,3.68,0,0,1,.67-2.37,2.35,2.35,0,0,1,1.94-.8A2.2,2.2,0,0,1,97,460a2.7,2.7,0,0,1,.65,1.82H96.54a1.82,1.82,0,0,0-.36-1.14,1.15,1.15,0,0,0-.91-.38,1.28,1.28,0,0,0-1.11.49,2.88,2.88,0,0,0-.37,1.62v.87a3.08,3.08,0,0,0,.36,1.72A1.3,1.3,0,0,0,95.28,465.49Z"
         id="path679" />
      <path
         class="cls-4"
         d="M98.66,462.57a3.55,3.55,0,0,1,.73-2.37,2.37,2.37,0,0,1,1.92-.87,2.39,2.39,0,0,1,1.92.85,3.57,3.57,0,0,1,.75,2.31v.73a3.6,3.6,0,0,1-.73,2.36,2.57,2.57,0,0,1-3.84,0,3.51,3.51,0,0,1-.75-2.28Zm1.13.65a3,3,0,0,0,.41,1.66,1.29,1.29,0,0,0,1.12.61c1,0,1.5-.72,1.53-2.15v-.77a2.93,2.93,0,0,0-.42-1.67,1.32,1.32,0,0,0-2.23,0,3,3,0,0,0-.41,1.66Z"
         id="path681" />
      <path
         class="cls-4"
         d="M106.48,459.45l0,.75a2,2,0,0,1,1.66-.87c1.22,0,1.83.81,1.85,2.43v4.56h-1.12v-4.51a1.89,1.89,0,0,0-.27-1.15,1,1,0,0,0-.8-.34,1.15,1.15,0,0,0-.76.28,2,2,0,0,0-.53.73v5h-1.13v-6.87Z"
         id="path683" />
      <path
         class="cls-4"
         d="M111.48,462.57a3.55,3.55,0,0,1,.73-2.37,2.37,2.37,0,0,1,1.92-.87,2.41,2.41,0,0,1,1.92.85,3.51,3.51,0,0,1,.74,2.31v.73a3.6,3.6,0,0,1-.72,2.36,2.58,2.58,0,0,1-3.85,0,3.5,3.5,0,0,1-.74-2.28Zm1.12.65a2.87,2.87,0,0,0,.42,1.66,1.29,1.29,0,0,0,1.12.61c1,0,1.5-.72,1.53-2.15v-.77a2.93,2.93,0,0,0-.42-1.67,1.29,1.29,0,0,0-1.12-.61,1.27,1.27,0,0,0-1.11.61,2.89,2.89,0,0,0-.42,1.66Z"
         id="path685" />
      <path
         class="cls-4"
         d="M119.3,459.45l0,.64a2,2,0,0,1,1.66-.76,1.63,1.63,0,0,1,1.61,1,2,2,0,0,1,1.8-1c1.26,0,1.91.78,1.94,2.36v4.63h-1.11V461.8a1.85,1.85,0,0,0-.27-1.11,1,1,0,0,0-.9-.37,1,1,0,0,0-.83.39,1.89,1.89,0,0,0-.37,1v4.6h-1.13v-4.57c0-.95-.4-1.43-1.16-1.43a1.24,1.24,0,0,0-1.2.85v5.15h-1.11v-6.87Z"
         id="path687" />
      <path
         class="cls-4"
         d="M129.32,457.63a.71.71,0,0,1-.16.48.59.59,0,0,1-.48.19.62.62,0,0,1-.48-.19.84.84,0,0,1,0-1,.68.68,0,0,1,1,0A.71.71,0,0,1,129.32,457.63Zm-.09,8.69h-1.12v-6.87h1.12Z"
         id="path689" />
      <path
         class="cls-4"
         d="M134.34,464.56a.8.8,0,0,0-.28-.62,4,4,0,0,0-1.05-.61,6.72,6.72,0,0,1-1.28-.64,1.75,1.75,0,0,1-.55-.61,1.57,1.57,0,0,1-.19-.81,1.82,1.82,0,0,1,.61-1.39,2.52,2.52,0,0,1,3.18,0,2,2,0,0,1,.61,1.5h-1.12a1.08,1.08,0,0,0-.31-.79,1,1,0,0,0-.79-.33,1.13,1.13,0,0,0-.78.26.87.87,0,0,0-.28.68.77.77,0,0,0,.2.55,3.48,3.48,0,0,0,1,.55,5.1,5.1,0,0,1,1.7,1,1.65,1.65,0,0,1,.45,1.19,1.79,1.79,0,0,1-.62,1.43,2.41,2.41,0,0,1-1.65.54,2.49,2.49,0,0,1-1.74-.62,2,2,0,0,1-.66-1.56h1.13a1.23,1.23,0,0,0,.35.89,1.25,1.25,0,0,0,.92.33,1.23,1.23,0,0,0,.85-.25A.84.84,0,0,0,134.34,464.56Z"
         id="path691" />
      <path
         class="cls-4"
         d="M138.39,457.79v1.66h1v.91h-1v4.26a1.14,1.14,0,0,0,.14.62.48.48,0,0,0,.45.21,1.19,1.19,0,0,0,.45-.08v.95a2.28,2.28,0,0,1-.78.13,1.2,1.2,0,0,1-1-.48,2.28,2.28,0,0,1-.34-1.35v-4.26h-1.05v-.91h1.05v-1.66Z"
         id="path693" />
      <path
         class="cls-4"
         d="M143.22,466.45a2.51,2.51,0,0,1-2-.77,3.3,3.3,0,0,1-.7-2.24v-.83a3.84,3.84,0,0,1,.67-2.41,2.23,2.23,0,0,1,1.87-.87,2.14,2.14,0,0,1,1.8.76,4,4,0,0,1,.61,2.4v.73h-3.83v.16a2.57,2.57,0,0,0,.41,1.61,1.49,1.49,0,0,0,1.2.5,1.86,1.86,0,0,0,.87-.19,2.13,2.13,0,0,0,.71-.59l.58.71A2.54,2.54,0,0,1,143.22,466.45Zm-.13-6.16a1.16,1.16,0,0,0-1,.48,2.78,2.78,0,0,0-.39,1.49h2.71v-.15a2.67,2.67,0,0,0-.35-1.4A1.1,1.1,0,0,0,143.09,460.29Z"
         id="path695" />
      <path
         class="cls-4"
         d="M54.46,478.18a4.17,4.17,0,0,1,.59-2.42,2,2,0,0,1,1.71-.83,1.75,1.75,0,0,1,1.53.8v-3.56h1.13v9.75h-1l-.06-.74a1.77,1.77,0,0,1-1.58.87,2,2,0,0,1-1.67-.83,3.93,3.93,0,0,1-.62-2.34Zm1.12.63a3.36,3.36,0,0,0,.34,1.7,1.23,1.23,0,0,0,1.12.54,1.32,1.32,0,0,0,1.25-.84v-3.46a1.35,1.35,0,0,0-1.24-.83,1.23,1.23,0,0,0-1.12.54,3.3,3.3,0,0,0-.35,1.67Z"
         id="path697" />
      <path
         class="cls-4"
         d="M63.6,482.05a2.51,2.51,0,0,1-2-.77,3.28,3.28,0,0,1-.7-2.24v-.83a3.9,3.9,0,0,1,.67-2.41,2.23,2.23,0,0,1,1.87-.87,2.12,2.12,0,0,1,1.8.76,3.9,3.9,0,0,1,.61,2.4v.73H62.05V479a2.5,2.5,0,0,0,.42,1.61,1.46,1.46,0,0,0,1.19.5,1.86,1.86,0,0,0,.87-.19,2,2,0,0,0,.71-.59l.59.71A2.57,2.57,0,0,1,63.6,482.05Zm-.13-6.16a1.17,1.17,0,0,0-1,.48,2.81,2.81,0,0,0-.38,1.49h2.7v-.15a2.67,2.67,0,0,0-.35-1.4A1.1,1.1,0,0,0,63.47,475.89Z"
         id="path699" />
      <path
         class="cls-4"
         d="M71.42,481.92H70.3v-9.75h1.12Z"
         id="path701" />
      <path
         class="cls-4"
         d="M76.72,481.92a2.42,2.42,0,0,1-.15-.75,1.76,1.76,0,0,1-1.52.88,1.82,1.82,0,0,1-2-2,2.09,2.09,0,0,1,.71-1.66,2.87,2.87,0,0,1,2-.63h.82V477a1,1,0,0,0-1.1-1.14,1.18,1.18,0,0,0-.83.3,1,1,0,0,0-.31.77H73.18a1.9,1.9,0,0,1,.31-1,2.18,2.18,0,0,1,.84-.75,2.53,2.53,0,0,1,1.18-.27,2.23,2.23,0,0,1,1.6.52,2,2,0,0,1,.56,1.53v3.46a4.34,4.34,0,0,0,.22,1.38v.1Zm-1.5-.89a1.51,1.51,0,0,0,.79-.23,1.4,1.4,0,0,0,.54-.57v-1.64h-.63a2.14,2.14,0,0,0-1.26.36,1.13,1.13,0,0,0-.47,1,1.23,1.23,0,0,0,.24.85A1,1,0,0,0,75.22,481Z"
         id="path703" />
      <path
         class="cls-4"
         d="M84.77,481.09a1.21,1.21,0,0,0,.9-.35,1.48,1.48,0,0,0,.37-1H87.1a2.37,2.37,0,0,1-.7,1.64,2.27,2.27,0,0,1-1.63.65,2.36,2.36,0,0,1-1.94-.81,3.62,3.62,0,0,1-.67-2.39v-.75a3.57,3.57,0,0,1,.67-2.36,2.36,2.36,0,0,1,1.94-.81,2.18,2.18,0,0,1,1.67.66,2.76,2.76,0,0,1,.66,1.82H86a1.91,1.91,0,0,0-.37-1.14,1.14,1.14,0,0,0-.9-.38,1.28,1.28,0,0,0-1.11.49,2.87,2.87,0,0,0-.38,1.62v.87a3.08,3.08,0,0,0,.36,1.72A1.31,1.31,0,0,0,84.77,481.09Z"
         id="path705" />
      <path
         class="cls-4"
         d="M88.16,478.17a3.61,3.61,0,0,1,.72-2.37,2.57,2.57,0,0,1,3.84,0,3.46,3.46,0,0,1,.75,2.31v.73a3.6,3.6,0,0,1-.72,2.36,2.58,2.58,0,0,1-3.85,0,3.45,3.45,0,0,1-.74-2.28Zm1.12.65a2.87,2.87,0,0,0,.42,1.66,1.27,1.27,0,0,0,1.12.61c1,0,1.5-.72,1.53-2.15v-.77a2.93,2.93,0,0,0-.42-1.67,1.3,1.3,0,0,0-1.13-.61,1.25,1.25,0,0,0-1.1.61,2.89,2.89,0,0,0-.42,1.66Z"
         id="path707" />
      <path
         class="cls-4"
         d="M96,475.05l0,.75a2,2,0,0,1,1.67-.87c1.21,0,1.83.81,1.85,2.43v4.56H98.41v-4.51a1.89,1.89,0,0,0-.27-1.15,1,1,0,0,0-.81-.34,1.16,1.16,0,0,0-.75.28,2,2,0,0,0-.54.73v5H94.92v-6.87Z"
         id="path709" />
      <path
         class="cls-4"
         d="M104.55,480.16a.8.8,0,0,0-.28-.62,4,4,0,0,0-1-.61,7.05,7.05,0,0,1-1.28-.64,1.75,1.75,0,0,1-.55-.61,1.57,1.57,0,0,1-.19-.81,1.83,1.83,0,0,1,.61-1.39,2.25,2.25,0,0,1,1.57-.55,2.21,2.21,0,0,1,1.61.58,2,2,0,0,1,.61,1.5h-1.12a1.09,1.09,0,0,0-.31-.79,1,1,0,0,0-.79-.33,1.13,1.13,0,0,0-.78.26.87.87,0,0,0-.28.68.74.74,0,0,0,.21.55,3.24,3.24,0,0,0,1,.55,5.1,5.1,0,0,1,1.7,1,1.65,1.65,0,0,1,.45,1.19,1.81,1.81,0,0,1-.61,1.43,2.77,2.77,0,0,1-3.39-.08,2,2,0,0,1-.67-1.56h1.13a1.27,1.27,0,0,0,.35.9,1.54,1.54,0,0,0,1.78.07A.86.86,0,0,0,104.55,480.16Z"
         id="path711" />
      <path
         class="cls-4"
         d="M108.6,473.39v1.66h1V476h-1v4.26a1.14,1.14,0,0,0,.14.62.49.49,0,0,0,.45.21,1.41,1.41,0,0,0,.45-.07v.94a2.28,2.28,0,0,1-.78.13,1.17,1.17,0,0,1-1-.48,2.18,2.18,0,0,1-.35-1.34V476h-1v-.91h1v-1.66Z"
         id="path713" />
      <path
         class="cls-4"
         d="M113.81,476.11a2.76,2.76,0,0,0-.51-.05,1.25,1.25,0,0,0-1.21.95v4.91H111v-6.87h1.09l0,.7a1.4,1.4,0,0,1,1.28-.82,1,1,0,0,1,.44.08Z"
         id="path715" />
      <path
         class="cls-4"
         d="M118.43,481.32a2,2,0,0,1-1.63.73,1.65,1.65,0,0,1-1.41-.65,3.09,3.09,0,0,1-.48-1.87v-4.48H116v4.4c0,1.07.33,1.6,1,1.6a1.41,1.41,0,0,0,1.41-.91v-5.09h1.12v6.87h-1.07Z"
         id="path717" />
      <path
         class="cls-4"
         d="M123.6,481.09a1.18,1.18,0,0,0,.89-.35,1.43,1.43,0,0,0,.37-1h1.06a2.37,2.37,0,0,1-.7,1.64,2.23,2.23,0,0,1-1.62.65,2.39,2.39,0,0,1-1.95-.81,3.62,3.62,0,0,1-.67-2.39v-.75a3.57,3.57,0,0,1,.67-2.36,2.36,2.36,0,0,1,1.94-.81,2.18,2.18,0,0,1,1.67.66,2.7,2.7,0,0,1,.66,1.82h-1.06a1.91,1.91,0,0,0-.37-1.14,1.11,1.11,0,0,0-.9-.38,1.28,1.28,0,0,0-1.11.49,2.87,2.87,0,0,0-.38,1.62v.87a3.08,3.08,0,0,0,.36,1.72A1.32,1.32,0,0,0,123.6,481.09Z"
         id="path719" />
      <path
         class="cls-4"
         d="M128.69,473.39v1.66h1V476h-1v4.26a1.15,1.15,0,0,0,.13.62.5.5,0,0,0,.46.21,1.41,1.41,0,0,0,.45-.07v.94a2.38,2.38,0,0,1-.79.13,1.17,1.17,0,0,1-1-.48,2.25,2.25,0,0,1-.35-1.34V476h-1v-.91h1v-1.66Z"
         id="path721" />
      <path
         class="cls-4"
         d="M132.36,473.23a.77.77,0,0,1-.16.48.62.62,0,0,1-.48.19.61.61,0,0,1-.48-.19.8.8,0,0,1,0-1,.58.58,0,0,1,.48-.2.56.56,0,0,1,.47.2A.72.72,0,0,1,132.36,473.23Zm-.09,8.69h-1.13v-6.87h1.13Z"
         id="path723" />
      <path
         class="cls-4"
         d="M133.8,478.17a3.61,3.61,0,0,1,.72-2.37,2.57,2.57,0,0,1,3.84,0,3.46,3.46,0,0,1,.75,2.31v.73a3.6,3.6,0,0,1-.72,2.36,2.58,2.58,0,0,1-3.85,0,3.45,3.45,0,0,1-.74-2.28Zm1.12.65a2.87,2.87,0,0,0,.42,1.66,1.27,1.27,0,0,0,1.12.61c1,0,1.5-.72,1.53-2.15v-.77a2.93,2.93,0,0,0-.42-1.67,1.3,1.3,0,0,0-1.13-.61,1.25,1.25,0,0,0-1.1.61,2.89,2.89,0,0,0-.42,1.66Z"
         id="path725" />
      <path
         class="cls-4"
         d="M141.62,475.05l0,.75a2,2,0,0,1,1.67-.87c1.21,0,1.83.81,1.85,2.43v4.56h-1.12v-4.51a1.89,1.89,0,0,0-.27-1.15,1,1,0,0,0-.81-.34,1.16,1.16,0,0,0-.75.28,2,2,0,0,0-.54.73v5h-1.12v-6.87Z"
         id="path727" />
    </g>
  </g>
  <g
     id="_2017"
     data-name="2017">
    <path
       id="Tracé-3"
       data-name="Tracé"
       class="cls-6"
       d="M154.25,307v99.6l6.3,6.2,6.3-6.2V307l-6.3,6.4Z" />
    <path
       id="Maison-3"
       data-name="Maison"
       class="cls-2"
       d="M163.35,359.56l-2.7-2.5a.45.45,0,0,0-.5,0l-.6.5h-.7a.47.47,0,0,0-.5.5v.6l-1,.9a.31.31,0,0,0-.1.2v.1c.1.1.2.2.3.2h.3v2.4c0,.1.1.2.1.3a.37.37,0,0,0,.3.1h4a.35.35,0,0,0,.4-.4v-2.4h.3c.1,0,.3-.1.3-.2v-.1c.2,0,.2-.1.1-.2" />
    <g
       class="cls-3"
       id="g742">
      <path
         class="cls-6"
         d="M112.91,366.78h-9.74v-1.93l4.6-4.91a12.08,12.08,0,0,0,1.4-1.8,3,3,0,0,0,.45-1.47,2.17,2.17,0,0,0-.48-1.49,1.72,1.72,0,0,0-1.36-.54,1.85,1.85,0,0,0-1.51.66,2.6,2.6,0,0,0-.55,1.73h-2.84a4.71,4.71,0,0,1,.62-2.37,4.38,4.38,0,0,1,1.76-1.68,5.26,5.26,0,0,1,2.56-.61,5.07,5.07,0,0,1,3.42,1.05,3.73,3.73,0,0,1,1.21,3,4.85,4.85,0,0,1-.54,2.15A12,12,0,0,1,110,361.1l-3.23,3.4h6.11Z"
         id="path734" />
      <path
         class="cls-6"
         d="M123.63,360.9a7.21,7.21,0,0,1-1.22,4.51,4.26,4.26,0,0,1-3.57,1.57,4.31,4.31,0,0,1-3.56-1.54,7,7,0,0,1-1.26-4.39v-2.62a7.08,7.08,0,0,1,1.24-4.52,4.9,4.9,0,0,1,7.11,0,7,7,0,0,1,1.26,4.39ZM120.81,358a5.22,5.22,0,0,0-.48-2.57,1.65,1.65,0,0,0-1.51-.81,1.6,1.6,0,0,0-1.47.77,4.81,4.81,0,0,0-.51,2.4v3.46a5.37,5.37,0,0,0,.48,2.58,1.78,1.78,0,0,0,3,0,5.24,5.24,0,0,0,.48-2.48Z"
         id="path736" />
      <path
         class="cls-6"
         d="M131.81,366.78H129V355.9L125.62,357v-2.3l5.89-2.11h.3Z"
         id="path738" />
      <path
         class="cls-6"
         d="M145.52,354.14,140,366.78h-3l5.51-11.94h-7.07v-2.28h10Z"
         id="path740" />
    </g>
    <g
       class="cls-3"
       id="g802">
      <path
         class="cls-4"
         d="M179.83,353.17a4.59,4.59,0,0,1-.81,2.92,2.75,2.75,0,0,1-2.29,1,2.79,2.79,0,0,1-2.26-1,4.42,4.42,0,0,1-.86-2.81v-1.74a4.68,4.68,0,0,1,.82-2.91,3,3,0,0,1,4.56,0,4.54,4.54,0,0,1,.84,2.87Zm-1.17-1.61a3.94,3.94,0,0,0-.47-2.18,1.64,1.64,0,0,0-1.47-.72,1.62,1.62,0,0,0-1.45.73,3.76,3.76,0,0,0-.5,2.13v1.65a3.88,3.88,0,0,0,.49,2.16,1.84,1.84,0,0,0,2.92.06,3.87,3.87,0,0,0,.48-2.1Z"
         id="path744" />
      <path
         class="cls-4"
         d="M185,356.38a1.92,1.92,0,0,1-1.63.73,1.62,1.62,0,0,1-1.41-.64,3.19,3.19,0,0,1-.49-1.88v-4.47h1.12v4.39c0,1.07.32,1.6,1,1.6a1.41,1.41,0,0,0,1.41-.91v-5.08h1.12V357H185Z"
         id="path746" />
      <path
         class="cls-4"
         d="M189.7,355.28l1.3-5.16h1.14l-2,6.86h-.83l-2.07-6.86h1.15Z"
         id="path748" />
      <path
         class="cls-4"
         d="M195.68,357.11a2.48,2.48,0,0,1-2-.76,3.26,3.26,0,0,1-.7-2.25v-.83a3.86,3.86,0,0,1,.67-2.41,2.22,2.22,0,0,1,1.87-.87,2.12,2.12,0,0,1,1.8.77,3.93,3.93,0,0,1,.61,2.39v.74h-3.84V354a2.48,2.48,0,0,0,.42,1.61,1.49,1.49,0,0,0,1.2.5,1.86,1.86,0,0,0,.87-.19,2.13,2.13,0,0,0,.71-.59l.58.71A2.55,2.55,0,0,1,195.68,357.11Zm-.12-6.16a1.19,1.19,0,0,0-1,.48,2.91,2.91,0,0,0-.38,1.49h2.7v-.15a2.61,2.61,0,0,0-.35-1.4A1.07,1.07,0,0,0,195.56,351Z"
         id="path750" />
      <path
         class="cls-4"
         d="M202.15,351.17a2.67,2.67,0,0,0-.51-.05,1.24,1.24,0,0,0-1.2.95V357h-1.13v-6.86h1.1v.69a1.41,1.41,0,0,1,1.28-.82.93.93,0,0,1,.44.09Z"
         id="path752" />
      <path
         class="cls-4"
         d="M205.06,348.45v1.67h1v.9h-1v4.27a1.13,1.13,0,0,0,.13.61.5.5,0,0,0,.46.21,1.41,1.41,0,0,0,.45-.07V357a2.36,2.36,0,0,1-.78.13,1.18,1.18,0,0,1-1-.48,2.23,2.23,0,0,1-.35-1.34V351h-1.05v-.9h1.05v-1.67Z"
         id="path754" />
      <path
         class="cls-4"
         d="M210.93,356.38a1.92,1.92,0,0,1-1.63.73,1.64,1.64,0,0,1-1.41-.64,3.12,3.12,0,0,1-.48-1.88v-4.47h1.11v4.39c0,1.07.33,1.6,1,1.6a1.41,1.41,0,0,0,1.41-.91v-5.08H212V357H211Z"
         id="path756" />
      <path
         class="cls-4"
         d="M216.55,351.17a2.76,2.76,0,0,0-.51-.05,1.24,1.24,0,0,0-1.21.95V357h-1.12v-6.86h1.09l0,.69a1.4,1.4,0,0,1,1.28-.82,1,1,0,0,1,.44.09Z"
         id="path758" />
      <path
         class="cls-4"
         d="M220,357.11a2.52,2.52,0,0,1-2-.76,3.36,3.36,0,0,1-.7-2.25v-.83a3.92,3.92,0,0,1,.67-2.41,2.23,2.23,0,0,1,1.87-.87,2.13,2.13,0,0,1,1.81.77,4,4,0,0,1,.61,2.39v.74h-3.84V354a2.48,2.48,0,0,0,.42,1.61,1.46,1.46,0,0,0,1.19.5,1.93,1.93,0,0,0,.88-.19,2.1,2.1,0,0,0,.7-.59l.59.71A2.55,2.55,0,0,1,220,357.11Zm-.13-6.16a1.17,1.17,0,0,0-1,.48,2.81,2.81,0,0,0-.38,1.49h2.7v-.15a2.61,2.61,0,0,0-.35-1.4A1.1,1.1,0,0,0,219.87,351Z"
         id="path760" />
      <path
         class="cls-4"
         d="M226.37,353.24a4.1,4.1,0,0,1,.6-2.42,2,2,0,0,1,1.7-.83,1.75,1.75,0,0,1,1.54.8v-3.56h1.12V357h-1l-.05-.73a1.78,1.78,0,0,1-1.58.86,2,2,0,0,1-1.68-.83,4,4,0,0,1-.62-2.34Zm1.13.64a3.22,3.22,0,0,0,.34,1.69,1.23,1.23,0,0,0,1.12.54,1.33,1.33,0,0,0,1.25-.84v-3.46A1.35,1.35,0,0,0,229,351a1.21,1.21,0,0,0-1.11.54,3.13,3.13,0,0,0-.35,1.66Z"
         id="path762" />
      <path
         class="cls-4"
         d="M235.51,357.11a2.48,2.48,0,0,1-2-.76,3.31,3.31,0,0,1-.7-2.25v-.83a3.86,3.86,0,0,1,.67-2.41,2.22,2.22,0,0,1,1.87-.87,2.12,2.12,0,0,1,1.8.77,3.93,3.93,0,0,1,.61,2.39v.74H234V354a2.49,2.49,0,0,0,.41,1.61,1.49,1.49,0,0,0,1.2.5,1.86,1.86,0,0,0,.87-.19,2.13,2.13,0,0,0,.71-.59l.58.71A2.53,2.53,0,0,1,235.51,357.11Zm-.12-6.16a1.19,1.19,0,0,0-1,.48,2.91,2.91,0,0,0-.38,1.49h2.71v-.15a2.6,2.6,0,0,0-.36-1.4A1.07,1.07,0,0,0,235.39,351Z"
         id="path764" />
      <path
         class="cls-4"
         d="M243.33,357h-1.12v-9.75h1.12Z"
         id="path766" />
      <path
         class="cls-4"
         d="M245.25,350.34l-.63-.45a3.47,3.47,0,0,0,.51-1.73v-.93h1.11v.86a3.32,3.32,0,0,1-.28,1.24A2.91,2.91,0,0,1,245.25,350.34Z"
         id="path768" />
      <path
         class="cls-4"
         d="M250.84,357a2.75,2.75,0,0,1-.14-.75,1.79,1.79,0,0,1-1.53.88,2,2,0,0,1-1.45-.52,2,2,0,0,1-.53-1.48,2.09,2.09,0,0,1,.71-1.66,3,3,0,0,1,1.95-.63h.83v-.73a1,1,0,0,0-1.11-1.14,1.15,1.15,0,0,0-.82.3,1,1,0,0,0-.32.77h-1.12a1.81,1.81,0,0,1,.31-1,2.18,2.18,0,0,1,.84-.75,2.52,2.52,0,0,1,1.17-.27,2.22,2.22,0,0,1,1.6.52,2.05,2.05,0,0,1,.57,1.53v3.46a4.09,4.09,0,0,0,.21,1.38v.1Zm-1.49-.89a1.5,1.5,0,0,0,.78-.23,1.43,1.43,0,0,0,.55-.57v-1.64H250a2.14,2.14,0,0,0-1.26.36,1.13,1.13,0,0,0-.46,1,1.31,1.31,0,0,0,.23.85A1.05,1.05,0,0,0,249.35,356.09Z"
         id="path770" />
      <path
         class="cls-4"
         d="M253.31,353.24a4.19,4.19,0,0,1,.59-2.43,2,2,0,0,1,1.7-.82,1.78,1.78,0,0,1,1.6.89l.06-.76h1v6.93a2.72,2.72,0,0,1-.65,1.95,2.4,2.4,0,0,1-1.82.69,3.27,3.27,0,0,1-1.14-.25,2.41,2.41,0,0,1-.95-.62l.45-.78a2.16,2.16,0,0,0,1.55.69q1.39,0,1.44-1.53v-.9a1.77,1.77,0,0,1-1.55.81,2,2,0,0,1-1.67-.8,4,4,0,0,1-.62-2.31Zm1.13.64a3.22,3.22,0,0,0,.34,1.69,1.2,1.2,0,0,0,1.11.54,1.34,1.34,0,0,0,1.26-.85v-3.43a1.37,1.37,0,0,0-1.25-.84,1.21,1.21,0,0,0-1.11.54,3.13,3.13,0,0,0-.35,1.66Z"
         id="path772" />
      <path
         class="cls-4"
         d="M262.4,357.11a2.5,2.5,0,0,1-2-.76,3.31,3.31,0,0,1-.7-2.25v-.83a3.86,3.86,0,0,1,.67-2.41,2.23,2.23,0,0,1,1.87-.87,2.12,2.12,0,0,1,1.8.77,3.93,3.93,0,0,1,.61,2.39v.74h-3.83V354a2.55,2.55,0,0,0,.41,1.61,1.49,1.49,0,0,0,1.2.5,1.86,1.86,0,0,0,.87-.19,2.13,2.13,0,0,0,.71-.59l.58.71A2.53,2.53,0,0,1,262.4,357.11Zm-.13-6.16a1.19,1.19,0,0,0-1,.48,2.91,2.91,0,0,0-.38,1.49h2.71v-.15a2.7,2.7,0,0,0-.35-1.4A1.1,1.1,0,0,0,262.27,351Z"
         id="path774" />
      <path
         class="cls-4"
         d="M267.09,350.12l0,.74a2,2,0,0,1,1.67-.87c1.21,0,1.83.81,1.85,2.43V357h-1.12v-4.51a1.89,1.89,0,0,0-.27-1.15,1,1,0,0,0-.81-.33,1.15,1.15,0,0,0-.75.27,2.14,2.14,0,0,0-.54.73v5H266v-6.86Z"
         id="path776" />
      <path
         class="cls-4"
         d="M274.7,356.15a1.18,1.18,0,0,0,.9-.34,1.49,1.49,0,0,0,.37-1H277a2.35,2.35,0,0,1-.7,1.64,2.27,2.27,0,0,1-1.63.65,2.4,2.4,0,0,1-1.94-.8,3.64,3.64,0,0,1-.67-2.39v-.76a3.59,3.59,0,0,1,.67-2.36,2.36,2.36,0,0,1,1.94-.81,2.15,2.15,0,0,1,1.67.67,2.74,2.74,0,0,1,.66,1.82H276a1.92,1.92,0,0,0-.37-1.15,1.13,1.13,0,0,0-.9-.38,1.28,1.28,0,0,0-1.11.5,2.81,2.81,0,0,0-.38,1.61v.88a3,3,0,0,0,.36,1.71A1.31,1.31,0,0,0,274.7,356.15Z"
         id="path778" />
      <path
         class="cls-4"
         d="M280.78,357.11a2.5,2.5,0,0,1-2-.76,3.31,3.31,0,0,1-.7-2.25v-.83a3.92,3.92,0,0,1,.67-2.41,2.23,2.23,0,0,1,1.87-.87,2.13,2.13,0,0,1,1.81.77,3.94,3.94,0,0,1,.6,2.39v.74h-3.83V354a2.48,2.48,0,0,0,.42,1.61,1.46,1.46,0,0,0,1.19.5,1.93,1.93,0,0,0,.88-.19,2.1,2.1,0,0,0,.7-.59l.59.71A2.55,2.55,0,0,1,280.78,357.11Zm-.13-6.16a1.17,1.17,0,0,0-1,.48,2.81,2.81,0,0,0-.38,1.49h2.7v-.15a2.7,2.7,0,0,0-.35-1.4A1.1,1.1,0,0,0,280.65,351Z"
         id="path780" />
      <path
         class="cls-4"
         d="M173.42,368.84a4.1,4.1,0,0,1,.6-2.42,2,2,0,0,1,1.7-.83,1.75,1.75,0,0,1,1.54.8v-3.56h1.12v9.75h-1l-.06-.73a1.76,1.76,0,0,1-1.58.86,2,2,0,0,1-1.67-.83,4,4,0,0,1-.62-2.34Zm1.13.64a3.24,3.24,0,0,0,.34,1.69,1.23,1.23,0,0,0,1.12.54,1.34,1.34,0,0,0,1.25-.84v-3.46a1.37,1.37,0,0,0-1.25-.83,1.24,1.24,0,0,0-1.12.55,3.24,3.24,0,0,0-.34,1.66Z"
         id="path782" />
      <path
         class="cls-4"
         d="M182.56,372.71a2.55,2.55,0,0,1-2-.76,3.31,3.31,0,0,1-.69-2.25v-.83a3.86,3.86,0,0,1,.67-2.41,2.21,2.21,0,0,1,1.86-.87,2.13,2.13,0,0,1,1.81.77,3.93,3.93,0,0,1,.61,2.39v.74H181v.15a2.48,2.48,0,0,0,.42,1.61,1.48,1.48,0,0,0,1.2.5,1.86,1.86,0,0,0,.87-.19,2.13,2.13,0,0,0,.71-.59l.58.71A2.55,2.55,0,0,1,182.56,372.71Zm-.13-6.16a1.17,1.17,0,0,0-1,.48,2.91,2.91,0,0,0-.38,1.49h2.7v-.15a2.61,2.61,0,0,0-.35-1.4A1.08,1.08,0,0,0,182.43,366.55Z"
         id="path784" />
      <path
         class="cls-4"
         d="M194.48,364.34h-2.43v8.24h-1.17v-8.24h-2.42v-1h6Z"
         id="path786" />
      <path
         class="cls-4"
         d="M194.82,368.83a3.55,3.55,0,0,1,.73-2.37,2.37,2.37,0,0,1,1.92-.87,2.41,2.41,0,0,1,1.92.85,3.53,3.53,0,0,1,.74,2.31v.73a3.6,3.6,0,0,1-.72,2.36,2.39,2.39,0,0,1-1.93.87,2.42,2.42,0,0,1-1.92-.84,3.61,3.61,0,0,1-.74-2.29Zm1.12.65a2.91,2.91,0,0,0,.42,1.67,1.3,1.3,0,0,0,1.12.6c1,0,1.5-.71,1.53-2.14v-.78a2.93,2.93,0,0,0-.42-1.67,1.32,1.32,0,0,0-2.23,0,2.93,2.93,0,0,0-.42,1.67Z"
         id="path788" />
      <path
         class="cls-4"
         d="M205.08,372a1.91,1.91,0,0,1-1.63.73,1.67,1.67,0,0,1-1.41-.64,3.2,3.2,0,0,1-.48-1.88v-4.48h1.12v4.4c0,1.07.32,1.6,1,1.6a1.41,1.41,0,0,0,1.41-.91v-5.09h1.13v6.87h-1.07Z"
         id="path790" />
      <path
         class="cls-4"
         d="M209.08,372.58H208v-9.75h1.13Z"
         id="path792" />
      <path
         class="cls-4"
         d="M210.61,368.83a3.61,3.61,0,0,1,.72-2.37,2.57,2.57,0,0,1,3.84,0,3.48,3.48,0,0,1,.75,2.31v.73a3.6,3.6,0,0,1-.72,2.36,2.59,2.59,0,0,1-3.85,0,3.49,3.49,0,0,1-.74-2.29Zm1.12.65a2.91,2.91,0,0,0,.42,1.67,1.29,1.29,0,0,0,1.12.6c1,0,1.5-.71,1.53-2.14v-.78a2.93,2.93,0,0,0-.42-1.67,1.33,1.33,0,0,0-1.13-.61,1.28,1.28,0,0,0-1.1.61,2.93,2.93,0,0,0-.42,1.67Z"
         id="path794" />
      <path
         class="cls-4"
         d="M220.87,372a1.92,1.92,0,0,1-1.63.73,1.67,1.67,0,0,1-1.41-.64,3.12,3.12,0,0,1-.48-1.88v-4.48h1.11v4.4c0,1.07.33,1.6,1,1.6a1.41,1.41,0,0,0,1.41-.91v-5.09H222v6.87H220.9Z"
         id="path796" />
      <path
         class="cls-4"
         d="M227,370.83a.85.85,0,0,0-.27-.63,4.63,4.63,0,0,0-1.06-.61,7.05,7.05,0,0,1-1.28-.64,1.93,1.93,0,0,1-.55-.6,1.73,1.73,0,0,1-.19-.81,1.81,1.81,0,0,1,.62-1.4,2.24,2.24,0,0,1,1.56-.55,2.21,2.21,0,0,1,1.61.58,2,2,0,0,1,.61,1.5h-1.11a1.1,1.1,0,0,0-.32-.79,1,1,0,0,0-.79-.33,1.13,1.13,0,0,0-.78.26.9.9,0,0,0-.28.68.76.76,0,0,0,.21.56,3.63,3.63,0,0,0,1,.55,5,5,0,0,1,1.7.95,1.66,1.66,0,0,1,.45,1.19,1.8,1.8,0,0,1-.61,1.43,2.41,2.41,0,0,1-1.65.54,2.45,2.45,0,0,1-1.74-.62,2,2,0,0,1-.67-1.56h1.13a1.27,1.27,0,0,0,.35.9,1.3,1.3,0,0,0,.93.32,1.27,1.27,0,0,0,.85-.25A.86.86,0,0,0,227,370.83Z"
         id="path798" />
      <path
         class="cls-4"
         d="M232,372.71a2.54,2.54,0,0,1-2-.76,3.31,3.31,0,0,1-.7-2.25v-.83a3.92,3.92,0,0,1,.67-2.41,2.23,2.23,0,0,1,1.87-.87,2.13,2.13,0,0,1,1.81.77,3.94,3.94,0,0,1,.6,2.39v.74h-3.83v.15a2.48,2.48,0,0,0,.42,1.61,1.46,1.46,0,0,0,1.19.5,1.93,1.93,0,0,0,.88-.19,2.1,2.1,0,0,0,.7-.59l.59.71A2.55,2.55,0,0,1,232,372.71Zm-.13-6.16a1.17,1.17,0,0,0-1,.48,2.81,2.81,0,0,0-.38,1.49h2.7v-.15a2.7,2.7,0,0,0-.35-1.4A1.1,1.1,0,0,0,231.9,366.55Z"
         id="path800" />
    </g>
  </g>
  <g
     id="_2011"
     data-name="2011">
    <path
       id="Tracé_1540"
       data-name="Tracé 1540"
       class="cls-7"
       d="M154.25,204.7v99.6l6.3,6.2,6.3-6.2V204.7l-6.3,6.4Z" />
    <path
       id="Maison-4"
       data-name="Maison"
       class="cls-2"
       d="M163.35,257.3l-2.7-2.5a.45.45,0,0,0-.5,0l-.6.5h-.7a.47.47,0,0,0-.5.5v.6l-1,.9a.31.31,0,0,0-.1.2v.1c.1.1.2.2.3.2h.3v2.4c0,.1.1.2.1.3a.37.37,0,0,0,.3.1h4a.35.35,0,0,0,.4-.4v-2.4h.3c.1,0,.3-.1.3-.2v-.1c.2,0,.2-.1.1-.2" />
    <g
       class="cls-3"
       id="g815">
      <path
         class="cls-7"
         d="M182.85,264.52H173.1v-1.94l4.6-4.9a11,11,0,0,0,1.4-1.81,2.92,2.92,0,0,0,.46-1.46,2.22,2.22,0,0,0-.48-1.49,1.74,1.74,0,0,0-1.37-.54,1.86,1.86,0,0,0-1.51.66,2.6,2.6,0,0,0-.55,1.73h-2.83a4.59,4.59,0,0,1,.62-2.37,4.32,4.32,0,0,1,1.75-1.69,5.39,5.39,0,0,1,2.57-.61,5,5,0,0,1,3.41,1.06,3.72,3.72,0,0,1,1.22,3,4.87,4.87,0,0,1-.55,2.15,12.13,12.13,0,0,1-1.87,2.54l-3.24,3.41h6.12Z"
         id="path807" />
      <path
         class="cls-7"
         d="M193.56,258.64a7.17,7.17,0,0,1-1.22,4.51,4.87,4.87,0,0,1-7.12,0,6.93,6.93,0,0,1-1.26-4.39v-2.62a7.1,7.1,0,0,1,1.23-4.52,4.88,4.88,0,0,1,7.12,0,6.91,6.91,0,0,1,1.25,4.39Zm-2.82-2.88a5.19,5.19,0,0,0-.48-2.57,1.64,1.64,0,0,0-1.51-.81,1.6,1.6,0,0,0-1.47.77,4.83,4.83,0,0,0-.5,2.4V259a5.38,5.38,0,0,0,.47,2.58,1.61,1.61,0,0,0,1.52.85,1.57,1.57,0,0,0,1.49-.81,5.29,5.29,0,0,0,.48-2.49Z"
         id="path809" />
      <path
         class="cls-7"
         d="M201.74,264.52h-2.82V253.64l-3.37,1v-2.29l5.89-2.11h.3Z"
         id="path811" />
      <path
         class="cls-7"
         d="M212.64,264.52h-2.82V253.64l-3.37,1v-2.29l5.89-2.11h.3Z"
         id="path813" />
    </g>
    <g
       class="cls-3"
       id="g895">
      <path
         class="cls-4"
         d="M42.26,250.91a4.63,4.63,0,0,1-.8,2.92,3.07,3.07,0,0,1-4.55,0,4.38,4.38,0,0,1-.86-2.81v-1.73a4.6,4.6,0,0,1,.82-2.91,2.73,2.73,0,0,1,2.28-1.05,2.77,2.77,0,0,1,2.28,1,4.54,4.54,0,0,1,.83,2.87Zm-1.16-1.62a4,4,0,0,0-.48-2.18,1.85,1.85,0,0,0-2.92,0,4,4,0,0,0-.5,2.14v1.65a3.87,3.87,0,0,0,.5,2.16,1.85,1.85,0,0,0,2.91.06,3.78,3.78,0,0,0,.49-2.1Z"
         id="path817" />
      <path
         class="cls-4"
         d="M47.41,254.12a2,2,0,0,1-1.64.73,1.65,1.65,0,0,1-1.41-.65,3.24,3.24,0,0,1-.48-1.87v-4.48H45v4.39c0,1.08.32,1.61,1,1.61a1.39,1.39,0,0,0,1.41-.91v-5.09H48.5v6.87H47.43Z"
         id="path819" />
      <path
         class="cls-4"
         d="M52.13,253l1.31-5.16h1.14l-2,6.87H51.7l-2.06-6.87h1.14Z"
         id="path821" />
      <path
         class="cls-4"
         d="M58.12,254.85a2.52,2.52,0,0,1-2-.77,3.33,3.33,0,0,1-.7-2.24V251a3.9,3.9,0,0,1,.67-2.41,2.23,2.23,0,0,1,1.87-.87,2.15,2.15,0,0,1,1.81.76,4,4,0,0,1,.61,2.4v.73H56.57v.16a2.5,2.5,0,0,0,.42,1.61,1.46,1.46,0,0,0,1.19.5,1.9,1.9,0,0,0,.88-.19,2.1,2.1,0,0,0,.7-.59l.59.71A2.57,2.57,0,0,1,58.12,254.85ZM58,248.69a1.17,1.17,0,0,0-1,.48,2.81,2.81,0,0,0-.38,1.49h2.7v-.15a2.58,2.58,0,0,0-.35-1.4A1.1,1.1,0,0,0,58,248.69Z"
         id="path823" />
      <path
         class="cls-4"
         d="M64.59,248.91a2.76,2.76,0,0,0-.51,0,1.25,1.25,0,0,0-1.21.95v4.91H61.75v-6.87h1.09l0,.7a1.4,1.4,0,0,1,1.28-.82,1,1,0,0,1,.44.08Z"
         id="path825" />
      <path
         class="cls-4"
         d="M67.5,246.19v1.66h1v.91h-1V253a1.15,1.15,0,0,0,.13.62.5.5,0,0,0,.46.21,1.5,1.5,0,0,0,.45-.07l0,.94a2.28,2.28,0,0,1-.78.13,1.17,1.17,0,0,1-1-.48,2.18,2.18,0,0,1-.35-1.34v-4.27h-1v-.91h1v-1.66Z"
         id="path827" />
      <path
         class="cls-4"
         d="M73.37,254.12a2,2,0,0,1-1.63.73,1.63,1.63,0,0,1-1.41-.65,3.16,3.16,0,0,1-.49-1.87v-4.48H71v4.39c0,1.08.32,1.61,1,1.61a1.41,1.41,0,0,0,1.41-.91v-5.09h1.12v6.87H73.39Z"
         id="path829" />
      <path
         class="cls-4"
         d="M79,248.91a2.57,2.57,0,0,0-.5,0,1.24,1.24,0,0,0-1.21.95v4.91H76.15v-6.87h1.09l0,.7a1.38,1.38,0,0,1,1.27-.82,1,1,0,0,1,.45.08Z"
         id="path831" />
      <path
         class="cls-4"
         d="M82.44,254.85a2.51,2.51,0,0,1-2-.77,3.28,3.28,0,0,1-.7-2.24V251a3.9,3.9,0,0,1,.67-2.41,2.23,2.23,0,0,1,1.87-.87,2.12,2.12,0,0,1,1.8.76,3.9,3.9,0,0,1,.61,2.4v.73H80.89v.16a2.5,2.5,0,0,0,.42,1.61,1.46,1.46,0,0,0,1.19.5,1.86,1.86,0,0,0,.87-.19,2,2,0,0,0,.71-.59l.59.71A2.57,2.57,0,0,1,82.44,254.85Zm-.13-6.16a1.17,1.17,0,0,0-1,.48,2.81,2.81,0,0,0-.38,1.49h2.7v-.15a2.67,2.67,0,0,0-.35-1.4A1.1,1.1,0,0,0,82.31,248.69Z"
         id="path833" />
      <path
         class="cls-4"
         d="M88.81,251a4.17,4.17,0,0,1,.59-2.42,2,2,0,0,1,1.71-.83,1.72,1.72,0,0,1,1.53.8V245h1.13v9.75h-1l-.06-.74a1.76,1.76,0,0,1-1.58.87,2,2,0,0,1-1.67-.83,4,4,0,0,1-.62-2.34Zm1.12.63a3.24,3.24,0,0,0,.35,1.7,1.22,1.22,0,0,0,1.11.54,1.32,1.32,0,0,0,1.25-.84v-3.46a1.34,1.34,0,0,0-1.24-.83,1.24,1.24,0,0,0-1.12.54,3.41,3.41,0,0,0-.35,1.67Z"
         id="path835" />
      <path
         class="cls-4"
         d="M98,254.85a2.52,2.52,0,0,1-2-.77,3.28,3.28,0,0,1-.69-2.24V251A3.84,3.84,0,0,1,96,248.6a2.2,2.2,0,0,1,1.86-.87,2.15,2.15,0,0,1,1.81.76,4,4,0,0,1,.61,2.4v.73H96.4v.16a2.5,2.5,0,0,0,.42,1.61,1.48,1.48,0,0,0,1.2.5,1.86,1.86,0,0,0,.87-.19,2.13,2.13,0,0,0,.71-.59l.58.71A2.57,2.57,0,0,1,98,254.85Zm-.13-6.16a1.17,1.17,0,0,0-1,.48,2.91,2.91,0,0,0-.38,1.49h2.7v-.15a2.58,2.58,0,0,0-.35-1.4A1.08,1.08,0,0,0,97.82,248.69Z"
         id="path837" />
      <path
         class="cls-4"
         d="M105.77,254.72h-1.12V245h1.12Z"
         id="path839" />
      <path
         class="cls-4"
         d="M107.68,248.08l-.63-.46a3.44,3.44,0,0,0,.52-1.72V245h1.11v.86a3.27,3.27,0,0,1-.28,1.23A2.76,2.76,0,0,1,107.68,248.08Z"
         id="path841" />
      <path
         class="cls-4"
         d="M113.28,254.72a2.48,2.48,0,0,1-.14-.75,1.79,1.79,0,0,1-1.53.88,2,2,0,0,1-1.46-.53,2,2,0,0,1-.52-1.47,2.09,2.09,0,0,1,.71-1.66,2.91,2.91,0,0,1,2-.63h.83v-.73a1.15,1.15,0,0,0-.28-.88,1.18,1.18,0,0,0-.83-.26,1.13,1.13,0,0,0-.82.3,1,1,0,0,0-.32.77h-1.12a1.81,1.81,0,0,1,.31-1,2.08,2.08,0,0,1,.83-.75,2.59,2.59,0,0,1,1.18-.27,2.22,2.22,0,0,1,1.6.52,2,2,0,0,1,.56,1.53v3.46a4.34,4.34,0,0,0,.22,1.38v.1Zm-1.5-.89a1.57,1.57,0,0,0,1.34-.8v-1.64h-.64a2.14,2.14,0,0,0-1.26.36,1.12,1.12,0,0,0-.46,1,1.24,1.24,0,0,0,.23.85A1,1,0,0,0,111.78,253.83Z"
         id="path843" />
      <path
         class="cls-4"
         d="M115.75,251a4.27,4.27,0,0,1,.58-2.43,2,2,0,0,1,1.71-.82,1.76,1.76,0,0,1,1.6.89l0-.77h1v6.93a2.7,2.7,0,0,1-.66,2,2.37,2.37,0,0,1-1.82.68,3.06,3.06,0,0,1-1.14-.25,2.34,2.34,0,0,1-1-.62l.46-.77a2.16,2.16,0,0,0,1.54.69q1.41,0,1.44-1.53V254a1.75,1.75,0,0,1-1.54.81,2,2,0,0,1-1.67-.81,4,4,0,0,1-.62-2.3Zm1.12.63a3.36,3.36,0,0,0,.34,1.7,1.23,1.23,0,0,0,1.12.54,1.31,1.31,0,0,0,1.25-.86v-3.42a1.34,1.34,0,0,0-1.24-.85,1.23,1.23,0,0,0-1.12.54,3.3,3.3,0,0,0-.35,1.67Z"
         id="path845" />
      <path
         class="cls-4"
         d="M124.83,254.85a2.49,2.49,0,0,1-2-.77,3.28,3.28,0,0,1-.7-2.24V251a3.84,3.84,0,0,1,.67-2.41,2.22,2.22,0,0,1,1.87-.87,2.14,2.14,0,0,1,1.8.76,4,4,0,0,1,.61,2.4v.73h-3.83v.16a2.51,2.51,0,0,0,.41,1.61,1.49,1.49,0,0,0,1.2.5,1.86,1.86,0,0,0,.87-.19,2.13,2.13,0,0,0,.71-.59l.58.71A2.56,2.56,0,0,1,124.83,254.85Zm-.12-6.16a1.19,1.19,0,0,0-1,.48,2.91,2.91,0,0,0-.38,1.49H126v-.15a2.57,2.57,0,0,0-.36-1.4A1.07,1.07,0,0,0,124.71,248.69Z"
         id="path847" />
      <path
         class="cls-4"
         d="M129.52,247.85l0,.75a2,2,0,0,1,1.67-.87c1.21,0,1.83.81,1.84,2.43v4.56H132v-4.51a1.89,1.89,0,0,0-.27-1.15,1,1,0,0,0-.81-.34,1.16,1.16,0,0,0-.75.28,1.91,1.91,0,0,0-.54.73v5h-1.12v-6.87Z"
         id="path849" />
      <path
         class="cls-4"
         d="M137.14,253.89a1.21,1.21,0,0,0,.9-.35,1.53,1.53,0,0,0,.37-1h1.06a2.34,2.34,0,0,1-.71,1.64,2.23,2.23,0,0,1-1.62.65,2.36,2.36,0,0,1-1.94-.81,3.62,3.62,0,0,1-.67-2.39v-.75a3.63,3.63,0,0,1,.66-2.36,2.36,2.36,0,0,1,1.95-.81,2.18,2.18,0,0,1,1.67.66,2.76,2.76,0,0,1,.66,1.82h-1.06a1.91,1.91,0,0,0-.37-1.14,1.14,1.14,0,0,0-.9-.38,1.31,1.31,0,0,0-1.12.49,2.88,2.88,0,0,0-.37,1.62v.87a3.08,3.08,0,0,0,.36,1.72A1.31,1.31,0,0,0,137.14,253.89Z"
         id="path851" />
      <path
         class="cls-4"
         d="M143.22,254.85a2.51,2.51,0,0,1-2-.77,3.28,3.28,0,0,1-.7-2.24V251a3.84,3.84,0,0,1,.67-2.41,2.23,2.23,0,0,1,1.87-.87,2.14,2.14,0,0,1,1.8.76,4,4,0,0,1,.61,2.4v.73h-3.83v.16a2.57,2.57,0,0,0,.41,1.61,1.49,1.49,0,0,0,1.2.5,1.86,1.86,0,0,0,.87-.19,2.13,2.13,0,0,0,.71-.59l.58.71A2.54,2.54,0,0,1,143.22,254.85Zm-.13-6.16a1.16,1.16,0,0,0-1,.48,2.8,2.8,0,0,0-.39,1.49h2.71v-.15a2.67,2.67,0,0,0-.35-1.4A1.1,1.1,0,0,0,143.09,248.69Z"
         id="path853" />
      <path
         class="cls-4"
         d="M36,267.9H32.89l-.72,2.42H31l3-9.24h1l3,9.24H36.74Zm-2.82-1h2.52l-1.26-4.21Z"
         id="path855" />
      <path
         class="cls-4"
         d="M42.47,269.72a2,2,0,0,1-1.63.73,1.63,1.63,0,0,1-1.41-.65,3.16,3.16,0,0,1-.49-1.87v-4.48h1.12v4.39c0,1.07.32,1.61,1,1.61a1.39,1.39,0,0,0,1.4-.91v-5.09h1.13v6.87H42.49Z"
         id="path857" />
      <path
         class="cls-4"
         d="M47.2,268.61l1.3-5.16h1.14l-2,6.87h-.84l-2.06-6.87h1.14Z"
         id="path859" />
      <path
         class="cls-4"
         d="M53.18,270.45a2.52,2.52,0,0,1-2-.77,3.3,3.3,0,0,1-.69-2.24v-.83a3.9,3.9,0,0,1,.66-2.41,2.25,2.25,0,0,1,1.88-.87,2.14,2.14,0,0,1,1.8.76,4,4,0,0,1,.61,2.4v.73H51.63v.16a2.5,2.5,0,0,0,.42,1.61,1.49,1.49,0,0,0,1.2.5,1.86,1.86,0,0,0,.87-.19,2.13,2.13,0,0,0,.71-.59l.58.71A2.57,2.57,0,0,1,53.18,270.45Zm-.12-6.16a1.18,1.18,0,0,0-1,.48,2.88,2.88,0,0,0-.38,1.49h2.7v-.15a2.58,2.58,0,0,0-.35-1.4A1.08,1.08,0,0,0,53.06,264.29Z"
         id="path861" />
      <path
         class="cls-4"
         d="M59.65,264.51a2.76,2.76,0,0,0-.51-.05,1.23,1.23,0,0,0-1.2,1v4.91H56.81v-6.87H57.9l0,.7a1.4,1.4,0,0,1,1.28-.82,1,1,0,0,1,.44.08Z"
         id="path863" />
      <path
         class="cls-4"
         d="M60.42,266.58a4.17,4.17,0,0,1,.59-2.43,2,2,0,0,1,1.71-.82,1.74,1.74,0,0,1,1.59.89l.06-.77h1v6.93a2.74,2.74,0,0,1-.65,2,2.4,2.4,0,0,1-1.82.68,3.06,3.06,0,0,1-1.14-.25,2.28,2.28,0,0,1-1-.62l.45-.77a2.16,2.16,0,0,0,1.55.69q1.4,0,1.44-1.53v-.9a1.77,1.77,0,0,1-1.55.81,1.93,1.93,0,0,1-1.66-.81,3.91,3.91,0,0,1-.63-2.3Zm1.13.63a3.26,3.26,0,0,0,.34,1.7,1.21,1.21,0,0,0,1.11.54,1.35,1.35,0,0,0,1.26-.86v-3.43a1.36,1.36,0,0,0-1.25-.84,1.22,1.22,0,0,0-1.11.54,3.2,3.2,0,0,0-.35,1.67Z"
         id="path865" />
      <path
         class="cls-4"
         d="M68.11,263.45l0,.75a2,2,0,0,1,1.67-.87c1.22,0,1.83.81,1.85,2.43v4.56H70.54v-4.51a1.89,1.89,0,0,0-.27-1.15,1,1,0,0,0-.81-.34,1.11,1.11,0,0,0-.75.28,2,2,0,0,0-.53.73v5H67.05v-6.87Z"
         id="path867" />
      <path
         class="cls-4"
         d="M75.8,270.45a2.51,2.51,0,0,1-2-.77,3.3,3.3,0,0,1-.7-2.24v-.83a3.9,3.9,0,0,1,.67-2.41,2.23,2.23,0,0,1,1.87-.87,2.12,2.12,0,0,1,1.8.76,3.9,3.9,0,0,1,.61,2.4v.73H74.25v.16a2.5,2.5,0,0,0,.42,1.61,1.46,1.46,0,0,0,1.19.5,1.86,1.86,0,0,0,.87-.19,2,2,0,0,0,.71-.59l.59.71A2.57,2.57,0,0,1,75.8,270.45Zm-.13-6.16a1.17,1.17,0,0,0-1,.48,2.78,2.78,0,0,0-.38,1.49H77v-.15a2.67,2.67,0,0,0-.35-1.4A1.1,1.1,0,0,0,75.67,264.29Z"
         id="path869" />
      <path
         class="cls-4"
         d="M81.51,266.87H78.89v-1h2.62Z"
         id="path871" />
      <path
         class="cls-4"
         d="M85.61,266.58H84v3.74H82.81v-9.24H85.4a2.74,2.74,0,0,1,2.06.71,3.28,3.28,0,0,1,.32,3.56,2.32,2.32,0,0,1-1.07,1l1.79,3.93v.08H87.25Zm-1.63-1h1.41a1.46,1.46,0,0,0,1.16-.47,1.76,1.76,0,0,0,.44-1.25c0-1.19-.54-1.79-1.61-1.79H84Z"
         id="path873" />
      <path
         class="cls-4"
         d="M90.68,264.16a2,2,0,0,1,1.63-.83c1.22,0,1.83.81,1.85,2.43v4.56H93.05v-4.51a1.89,1.89,0,0,0-.27-1.15,1,1,0,0,0-.81-.34,1.15,1.15,0,0,0-.76.28,2,2,0,0,0-.53.73v5H89.55v-9.75h1.13Z"
         id="path875" />
      <path
         class="cls-4"
         d="M95.6,266.57a3.61,3.61,0,0,1,.72-2.37,2.57,2.57,0,0,1,3.84,0,3.46,3.46,0,0,1,.75,2.31v.73a3.6,3.6,0,0,1-.72,2.36,2.58,2.58,0,0,1-3.85,0,3.45,3.45,0,0,1-.74-2.28Zm4.26-4.26v.06H99l-.76-1.08-.76,1.08h-.9v-.08l1.33-1.72h.66Zm-3.14,4.91a2.87,2.87,0,0,0,.42,1.66,1.27,1.27,0,0,0,1.12.61c1,0,1.5-.72,1.53-2.15v-.77a2.93,2.93,0,0,0-.42-1.67,1.3,1.3,0,0,0-1.13-.61,1.25,1.25,0,0,0-1.1.61,2.89,2.89,0,0,0-.42,1.66Z"
         id="path877" />
      <path
         class="cls-4"
         d="M103.42,263.45l0,.75a2,2,0,0,1,1.67-.87c1.21,0,1.83.81,1.85,2.43v4.56h-1.12v-4.51a1.89,1.89,0,0,0-.27-1.15,1,1,0,0,0-.81-.34,1.11,1.11,0,0,0-.75.28,2,2,0,0,0-.54.73v5h-1.12v-6.87Z"
         id="path879" />
      <path
         class="cls-4"
         d="M111.1,270.45a2.49,2.49,0,0,1-2-.77,3.3,3.3,0,0,1-.7-2.24v-.83a3.84,3.84,0,0,1,.67-2.41,2.22,2.22,0,0,1,1.87-.87,2.14,2.14,0,0,1,1.8.76,4,4,0,0,1,.61,2.4v.73h-3.83v.16A2.51,2.51,0,0,0,110,269a1.49,1.49,0,0,0,1.2.5,1.86,1.86,0,0,0,.87-.19,2.13,2.13,0,0,0,.71-.59l.58.71A2.56,2.56,0,0,1,111.1,270.45Zm-.12-6.16a1.19,1.19,0,0,0-1,.48,2.88,2.88,0,0,0-.38,1.49h2.71v-.15a2.57,2.57,0,0,0-.36-1.4A1.07,1.07,0,0,0,111,264.29Z"
         id="path881" />
      <path
         class="cls-4"
         d="M116.82,266.87H114.2v-1h2.62Z"
         id="path883" />
      <path
         class="cls-4"
         d="M122.43,267.9h-3.12l-.72,2.42h-1.2l3-9.24h1l3,9.24h-1.19Zm-2.82-1h2.52l-1.26-4.21Z"
         id="path885" />
      <path
         class="cls-4"
         d="M126.66,270.32h-1.12v-9.75h1.12Z"
         id="path887" />
      <path
         class="cls-4"
         d="M133.39,267.22a4.14,4.14,0,0,1-.59,2.43,1.94,1.94,0,0,1-1.66.8,1.83,1.83,0,0,1-1.59-.78V273h-1.12v-9.51h1l.06.76a1.79,1.79,0,0,1,1.61-.88,1.93,1.93,0,0,1,1.69.78,4.1,4.1,0,0,1,.58,2.36Zm-1.12-.64a3.29,3.29,0,0,0-.35-1.71,1.26,1.26,0,0,0-1.14-.55,1.33,1.33,0,0,0-1.23.81v3.57a1.33,1.33,0,0,0,1.24.79,1.23,1.23,0,0,0,1.12-.55,3.13,3.13,0,0,0,.36-1.68Z"
         id="path889" />
      <path
         class="cls-4"
         d="M137.29,270.45a2.49,2.49,0,0,1-2-.77,3.3,3.3,0,0,1-.7-2.24v-.83a3.84,3.84,0,0,1,.67-2.41,2.22,2.22,0,0,1,1.87-.87,2.14,2.14,0,0,1,1.8.76,4,4,0,0,1,.61,2.4v.73h-3.83v.16a2.51,2.51,0,0,0,.41,1.61,1.49,1.49,0,0,0,1.2.5,1.86,1.86,0,0,0,.87-.19,2.13,2.13,0,0,0,.71-.59l.58.71A2.56,2.56,0,0,1,137.29,270.45Zm-.12-6.16a1.19,1.19,0,0,0-1,.48,2.88,2.88,0,0,0-.38,1.49h2.71v-.15a2.57,2.57,0,0,0-.36-1.4A1.07,1.07,0,0,0,137.17,264.29Z"
         id="path891" />
      <path
         class="cls-4"
         d="M144.26,268.56a.83.83,0,0,0-.27-.62,4,4,0,0,0-1.05-.61,6.72,6.72,0,0,1-1.28-.64,1.89,1.89,0,0,1-.56-.61,1.67,1.67,0,0,1-.18-.81,1.78,1.78,0,0,1,.61-1.39,2.52,2.52,0,0,1,3.18,0,2,2,0,0,1,.61,1.5H144.2a1.08,1.08,0,0,0-.31-.79,1,1,0,0,0-.79-.33,1.13,1.13,0,0,0-.78.26.87.87,0,0,0-.28.68.73.73,0,0,0,.2.55,3.48,3.48,0,0,0,1,.55,5.1,5.1,0,0,1,1.7,1,1.65,1.65,0,0,1,.45,1.19,1.82,1.82,0,0,1-.62,1.43,2.41,2.41,0,0,1-1.65.54,2.49,2.49,0,0,1-1.74-.62,2,2,0,0,1-.66-1.56h1.13a1.16,1.16,0,0,0,1.27,1.22,1.25,1.25,0,0,0,.85-.25A.83.83,0,0,0,144.26,268.56Z"
         id="path893" />
    </g>
  </g>
  <g
     id="_2009"
     data-name="2009">
    <path
       id="Tracé-4"
       data-name="Tracé"
       class="cls-8"
       d="M154.25,103v99.6l6.3,6.2,6.3-6.2V103l-6.3,6.4Z" />
    <path
       id="Maison-5"
       data-name="Maison"
       class="cls-2"
       d="M163.35,155.56l-2.7-2.5a.45.45,0,0,0-.5,0l-.6.5h-.7a.47.47,0,0,0-.5.5v.6l-1,.9a.31.31,0,0,0-.1.2v.1c.1.1.2.2.3.2h.3v2.4c0,.1.1.2.1.3a.37.37,0,0,0,.3.1h4a.35.35,0,0,0,.4-.4v-2.4h.3c.1,0,.3-.1.3-.2v-.1c.2,0,.2-.1.1-.2" />
    <g
       class="cls-3"
       id="g908">
      <path
         class="cls-8"
         d="M112.91,162.78h-9.74v-1.93l4.6-4.91a12.08,12.08,0,0,0,1.4-1.8,3,3,0,0,0,.45-1.47,2.17,2.17,0,0,0-.48-1.49,1.72,1.72,0,0,0-1.36-.54,1.85,1.85,0,0,0-1.51.66,2.6,2.6,0,0,0-.55,1.73h-2.84a4.71,4.71,0,0,1,.62-2.37,4.38,4.38,0,0,1,1.76-1.68,5.26,5.26,0,0,1,2.56-.61,5.07,5.07,0,0,1,3.42,1,3.73,3.73,0,0,1,1.21,3,4.85,4.85,0,0,1-.54,2.15A12,12,0,0,1,110,157.1l-3.23,3.4h6.11Z"
         id="path900" />
      <path
         class="cls-8"
         d="M123.63,156.9a7.21,7.21,0,0,1-1.22,4.51,4.26,4.26,0,0,1-3.57,1.57,4.31,4.31,0,0,1-3.56-1.54,7,7,0,0,1-1.26-4.39v-2.62a7.08,7.08,0,0,1,1.24-4.52,4.9,4.9,0,0,1,7.11,0,7,7,0,0,1,1.26,4.39ZM120.81,154a5.22,5.22,0,0,0-.48-2.57,1.65,1.65,0,0,0-1.51-.81,1.6,1.6,0,0,0-1.47.77,4.81,4.81,0,0,0-.51,2.4v3.46a5.37,5.37,0,0,0,.48,2.58,1.78,1.78,0,0,0,3,0,5.24,5.24,0,0,0,.48-2.48Z"
         id="path902" />
      <path
         class="cls-8"
         d="M134.53,156.9a7.21,7.21,0,0,1-1.22,4.51,4.86,4.86,0,0,1-7.13,0,7,7,0,0,1-1.26-4.39v-2.62a7.14,7.14,0,0,1,1.23-4.52,4.91,4.91,0,0,1,7.12,0,7,7,0,0,1,1.26,4.39ZM131.7,154a5.22,5.22,0,0,0-.48-2.57,1.8,1.8,0,0,0-3,0,4.94,4.94,0,0,0-.5,2.4v3.46a5.51,5.51,0,0,0,.47,2.58,1.79,1.79,0,0,0,3,0,5.38,5.38,0,0,0,.47-2.48Z"
         id="path904" />
      <path
         class="cls-8"
         d="M142.45,157.1a3.55,3.55,0,0,1-2.58,1.08,3.8,3.8,0,0,1-3-1.29,5.11,5.11,0,0,1-1.14-3.49,5.54,5.54,0,0,1,.61-2.57A4.46,4.46,0,0,1,138,149a4.67,4.67,0,0,1,2.46-.65,4.51,4.51,0,0,1,2.5.7,4.66,4.66,0,0,1,1.7,2,7.24,7.24,0,0,1,.61,3v1a8.29,8.29,0,0,1-1.76,5.59,6.7,6.7,0,0,1-5,2.17h-.7v-2.36h.63Q142.14,160.39,142.45,157.1ZM140.57,156a1.93,1.93,0,0,0,1.17-.35,2.34,2.34,0,0,0,.75-.85v-1.16a3.85,3.85,0,0,0-.55-2.23,1.7,1.7,0,0,0-1.46-.79,1.65,1.65,0,0,0-1.4.78,3.32,3.32,0,0,0-.54,2,3.19,3.19,0,0,0,.53,1.91A1.74,1.74,0,0,0,140.57,156Z"
         id="path906" />
    </g>
    <g
       class="cls-3"
       id="g962">
      <path
         class="cls-4"
         d="M176.61,149.24H175V153h-1.17v-9.24h2.59a2.77,2.77,0,0,1,2.06.71,2.8,2.8,0,0,1,.7,2.07,2.93,2.93,0,0,1-.38,1.5,2.44,2.44,0,0,1-1.07,1l1.79,3.93V153h-1.25Zm-1.63-1h1.41a1.53,1.53,0,0,0,1.17-.47,1.8,1.8,0,0,0,.43-1.26c0-1.19-.54-1.78-1.61-1.78H175Z"
         id="path910" />
      <path
         class="cls-4"
         d="M183,153.11a2.48,2.48,0,0,1-2-.76,3.26,3.26,0,0,1-.7-2.25v-.83a3.86,3.86,0,0,1,.67-2.41,2.22,2.22,0,0,1,1.87-.87,2.12,2.12,0,0,1,1.8.77,3.93,3.93,0,0,1,.61,2.39v.74h-3.84V150a2.48,2.48,0,0,0,.42,1.61,1.49,1.49,0,0,0,1.2.5A1.86,1.86,0,0,0,184,152a2.13,2.13,0,0,0,.71-.59l.58.71A2.55,2.55,0,0,1,183,153.11Zm-.12-6.16a1.19,1.19,0,0,0-1,.48,2.91,2.91,0,0,0-.38,1.49h2.7v-.15a2.61,2.61,0,0,0-.35-1.4A1.07,1.07,0,0,0,182.89,147Z"
         id="path912" />
      <path
         class="cls-4"
         d="M187.7,146.12l0,.74a2,2,0,0,1,1.66-.87c1.22,0,1.83.81,1.85,2.43V153h-1.11v-4.51a1.89,1.89,0,0,0-.27-1.15,1,1,0,0,0-.81-.33,1.2,1.2,0,0,0-.76.27,2,2,0,0,0-.53.73v5h-1.13v-6.86Z"
         id="path914" />
      <path
         class="cls-4"
         d="M195.32,152.15a1.21,1.21,0,0,0,.9-.34,1.48,1.48,0,0,0,.36-1h1.06a2.27,2.27,0,0,1-.7,1.64,2.23,2.23,0,0,1-1.62.65,2.38,2.38,0,0,1-1.94-.8,3.64,3.64,0,0,1-.67-2.39v-.76a3.65,3.65,0,0,1,.66-2.36,2.37,2.37,0,0,1,1.94-.81,2.17,2.17,0,0,1,1.68.67,2.68,2.68,0,0,1,.65,1.82h-1.06a1.85,1.85,0,0,0-.36-1.15,1.15,1.15,0,0,0-.91-.38,1.28,1.28,0,0,0-1.11.5,2.82,2.82,0,0,0-.37,1.61v.88a3,3,0,0,0,.36,1.71A1.31,1.31,0,0,0,195.32,152.15Z"
         id="path916" />
      <path
         class="cls-4"
         d="M198.7,149.23a3.61,3.61,0,0,1,.73-2.37,2.57,2.57,0,0,1,3.84,0,3.55,3.55,0,0,1,.75,2.32v.72a3.54,3.54,0,0,1-.73,2.36,2.58,2.58,0,0,1-3.84,0,3.55,3.55,0,0,1-.75-2.29Zm1.13.65a3,3,0,0,0,.41,1.67,1.3,1.3,0,0,0,1.12.6c1,0,1.5-.71,1.53-2.14v-.78a3,3,0,0,0-.41-1.66,1.31,1.31,0,0,0-1.13-.62,1.29,1.29,0,0,0-1.11.62,3,3,0,0,0-.41,1.66Z"
         id="path918" />
      <path
         class="cls-4"
         d="M206.52,146.12l0,.74a2,2,0,0,1,1.67-.87c1.21,0,1.83.81,1.84,2.43V153H209v-4.51a1.89,1.89,0,0,0-.27-1.15,1,1,0,0,0-.81-.33,1.2,1.2,0,0,0-.76.27,2,2,0,0,0-.53.73v5h-1.13v-6.86Z"
         id="path920" />
      <path
         class="cls-4"
         d="M213.23,144.45v1.67h1v.9h-1v4.27a1.13,1.13,0,0,0,.13.61.5.5,0,0,0,.46.21,1.41,1.41,0,0,0,.45-.07V153a2.36,2.36,0,0,1-.78.13,1.18,1.18,0,0,1-1-.48,2.23,2.23,0,0,1-.35-1.34V147h-1.05v-.9h1.05v-1.67Z"
         id="path922" />
      <path
         class="cls-4"
         d="M218.43,147.17a2.57,2.57,0,0,0-.5,0,1.24,1.24,0,0,0-1.21.95V153H215.6v-6.86h1.09l0,.69A1.38,1.38,0,0,1,218,146a1,1,0,0,1,.45.09Z"
         id="path924" />
      <path
         class="cls-4"
         d="M221.89,153.11a2.5,2.5,0,0,1-2-.76,3.31,3.31,0,0,1-.7-2.25v-.83a3.86,3.86,0,0,1,.67-2.41,2.23,2.23,0,0,1,1.87-.87,2.12,2.12,0,0,1,1.8.77,3.93,3.93,0,0,1,.61,2.39v.74h-3.83V150a2.55,2.55,0,0,0,.41,1.61,1.49,1.49,0,0,0,1.2.5,1.86,1.86,0,0,0,.87-.19,2.13,2.13,0,0,0,.71-.59l.58.71A2.53,2.53,0,0,1,221.89,153.11Zm-.13-6.16a1.19,1.19,0,0,0-1,.48,2.91,2.91,0,0,0-.38,1.49h2.71v-.15a2.6,2.6,0,0,0-.36-1.4A1.07,1.07,0,0,0,221.76,147Z"
         id="path926" />
      <path
         class="cls-4"
         d="M232,153a2.35,2.35,0,0,1-.15-.75,1.76,1.76,0,0,1-1.52.88,2,2,0,0,1-1.46-.52,2,2,0,0,1-.52-1.48,2.09,2.09,0,0,1,.71-1.66,2.92,2.92,0,0,1,1.95-.63h.82v-.73a1.2,1.2,0,0,0-.27-.88,1.37,1.37,0,0,0-1.66,0,1,1,0,0,0-.31.77h-1.13a1.83,1.83,0,0,1,.32-1,2.08,2.08,0,0,1,.83-.75,2.56,2.56,0,0,1,1.18-.27,2.23,2.23,0,0,1,1.6.52A2,2,0,0,1,233,148v3.46a4.34,4.34,0,0,0,.22,1.38v.1Zm-1.5-.89a1.51,1.51,0,0,0,.79-.23,1.34,1.34,0,0,0,.54-.57v-1.64h-.63A2.14,2.14,0,0,0,230,150a1.14,1.14,0,0,0-.47,1,1.25,1.25,0,0,0,.24.85A1,1,0,0,0,230.53,152.09Z"
         id="path928" />
      <path
         class="cls-4"
         d="M236.57,151.28l1.31-5.16H239L237,153h-.84l-2.06-6.86h1.14Z"
         id="path930" />
      <path
         class="cls-4"
         d="M242.56,153.11a2.52,2.52,0,0,1-2-.76,3.36,3.36,0,0,1-.7-2.25v-.83a3.92,3.92,0,0,1,.67-2.41,2.23,2.23,0,0,1,1.87-.87,2.13,2.13,0,0,1,1.81.77,4,4,0,0,1,.61,2.39v.74H241V150a2.48,2.48,0,0,0,.42,1.61,1.46,1.46,0,0,0,1.19.5,1.93,1.93,0,0,0,.88-.19,2.1,2.1,0,0,0,.7-.59l.59.71A2.55,2.55,0,0,1,242.56,153.11Zm-.13-6.16a1.17,1.17,0,0,0-1,.48,2.81,2.81,0,0,0-.38,1.49h2.7v-.15a2.7,2.7,0,0,0-.35-1.4A1.1,1.1,0,0,0,242.43,147Z"
         id="path932" />
      <path
         class="cls-4"
         d="M248.58,152.15a1.18,1.18,0,0,0,.89-.34,1.44,1.44,0,0,0,.37-1h1.06a2.31,2.31,0,0,1-.7,1.64,2.23,2.23,0,0,1-1.62.65,2.42,2.42,0,0,1-2-.8,3.7,3.7,0,0,1-.67-2.39v-.76a3.59,3.59,0,0,1,.67-2.36,2.36,2.36,0,0,1,1.94-.81,2.15,2.15,0,0,1,1.67.67,2.64,2.64,0,0,1,.66,1.82h-1.06a1.92,1.92,0,0,0-.36-1.15,1.15,1.15,0,0,0-.91-.38,1.28,1.28,0,0,0-1.11.5,2.74,2.74,0,0,0-.37,1.61v.88a3.14,3.14,0,0,0,.35,1.71A1.32,1.32,0,0,0,248.58,152.15Z"
         id="path934" />
      <path
         class="cls-4"
         d="M175.31,159.34l2.42,7.54,2.41-7.54h1.5v9.24h-1.17V165l.11-3.6-2.42,7.2h-.89l-2.4-7.18L175,165v3.6h-1.17v-9.24Z"
         id="path936" />
      <path
         class="cls-4"
         d="M187,168.58a2.41,2.41,0,0,1-.14-.75,1.79,1.79,0,0,1-1.53.88,1.94,1.94,0,0,1-1.45-.52,2,2,0,0,1-.53-1.48,2.09,2.09,0,0,1,.71-1.66,3,3,0,0,1,2-.63h.83v-.73a1.16,1.16,0,0,0-.28-.88,1.18,1.18,0,0,0-.83-.26,1.13,1.13,0,0,0-.82.3,1,1,0,0,0-.32.77h-1.12a1.81,1.81,0,0,1,.31-1,2,2,0,0,1,.84-.75,2.52,2.52,0,0,1,1.17-.27,2.22,2.22,0,0,1,1.6.52,2,2,0,0,1,.56,1.53v3.46a4.34,4.34,0,0,0,.22,1.38v.1Zm-1.5-.89a1.51,1.51,0,0,0,.79-.23,1.43,1.43,0,0,0,.55-.57v-1.64h-.64a2.14,2.14,0,0,0-1.26.36,1.13,1.13,0,0,0-.46,1,1.21,1.21,0,0,0,.23.84A1,1,0,0,0,185.51,167.69Z"
         id="path938" />
      <path
         class="cls-4"
         d="M191.69,164.22l1.17-2.51h1.31l-1.87,3.4,1.91,3.47h-1.29L191.71,166l-1.22,2.57H189.2l1.91-3.47-1.86-3.4h1.28Z"
         id="path940" />
      <path
         class="cls-4"
         d="M196.71,159.89a.71.71,0,0,1-.16.48.57.57,0,0,1-.48.19.59.59,0,0,1-.48-.19.8.8,0,0,1,0-1,.68.68,0,0,1,1,0A.75.75,0,0,1,196.71,159.89Zm-.09,8.69H195.5v-6.87h1.12Z"
         id="path942" />
      <path
         class="cls-4"
         d="M199.45,161.71l0,.64a2,2,0,0,1,1.66-.76,1.62,1.62,0,0,1,1.6,1,2.06,2.06,0,0,1,1.81-1c1.26,0,1.91.79,1.94,2.37v4.62h-1.12v-4.52a1.93,1.93,0,0,0-.26-1.11,1.07,1.07,0,0,0-.91-.37,1,1,0,0,0-.82.4,1.86,1.86,0,0,0-.37,1v4.6h-1.13V164c0-.95-.4-1.43-1.16-1.43a1.23,1.23,0,0,0-1.2.85v5.15h-1.12v-6.87Z"
         id="path944" />
      <path
         class="cls-4"
         d="M210.63,168.71a2.52,2.52,0,0,1-2-.76,3.31,3.31,0,0,1-.7-2.25v-.83a3.86,3.86,0,0,1,.67-2.41,2.23,2.23,0,0,1,1.87-.87,2.12,2.12,0,0,1,1.8.77,3.93,3.93,0,0,1,.61,2.39v.74h-3.83v.15a2.55,2.55,0,0,0,.41,1.61,1.49,1.49,0,0,0,1.2.5,1.86,1.86,0,0,0,.87-.19,2.13,2.13,0,0,0,.71-.59l.58.71A2.53,2.53,0,0,1,210.63,168.71Zm-.13-6.16a1.19,1.19,0,0,0-1,.48,2.91,2.91,0,0,0-.38,1.49h2.71v-.15a2.6,2.6,0,0,0-.36-1.4A1.07,1.07,0,0,0,210.5,162.55Z"
         id="path946" />
      <path
         class="cls-4"
         d="M220.58,159.34h1.17v6.55a3,3,0,0,1-.68,2.07,2.33,2.33,0,0,1-1.82.75,2.39,2.39,0,0,1-1.83-.71,2.82,2.82,0,0,1-.65-2h1.16a2,2,0,0,0,.35,1.24,1.25,1.25,0,0,0,1.94,0,2.21,2.21,0,0,0,.36-1.35Z"
         id="path948" />
      <path
         class="cls-4"
         d="M227.85,166.16h-3.13l-.71,2.42h-1.2l3-9.24h1l3,9.24h-1.19Zm-2.82-1h2.52l-1.27-4.2Z"
         id="path950" />
      <path
         class="cls-4"
         d="M232.84,164l1.89-4.64H236l-2.63,5.8v3.44h-1.16v-3.44l-2.63-5.8h1.32Z"
         id="path952" />
      <path
         class="cls-4"
         d="M238.75,159.34l2.41,7.54,2.41-7.54h1.5v9.24h-1.16V165l.1-3.6-2.41,7.2h-.89l-2.41-7.18.11,3.58v3.6h-1.16v-9.24Z"
         id="path954" />
      <path
         class="cls-4"
         d="M253.08,164.77a4.59,4.59,0,0,1-.81,2.92,2.75,2.75,0,0,1-2.29,1,2.81,2.81,0,0,1-2.26-1,4.48,4.48,0,0,1-.86-2.81v-1.74a4.66,4.66,0,0,1,.82-2.91,3,3,0,0,1,4.56,0,4.48,4.48,0,0,1,.84,2.87Zm-1.16-1.61a3.93,3.93,0,0,0-.48-2.18,1.83,1.83,0,0,0-2.92,0,3.76,3.76,0,0,0-.5,2.13v1.65a3.88,3.88,0,0,0,.49,2.16,1.86,1.86,0,0,0,2.92.06,4,4,0,0,0,.49-2.1Z"
         id="path956" />
      <path
         class="cls-4"
         d="M260.91,168.58h-1.17l-3.7-7.12v7.12h-1.17v-9.24H256l3.72,7.15v-7.15h1.15Z"
         id="path958" />
      <path
         class="cls-4"
         d="M262.92,168.58v-9.24h2.21a3.19,3.19,0,0,1,2.51,1,4.16,4.16,0,0,1,.89,2.85v1.55a4.07,4.07,0,0,1-.9,2.83,3.39,3.39,0,0,1-2.64,1Zm1.17-8.24v7.25H265a2.16,2.16,0,0,0,1.79-.71,3.35,3.35,0,0,0,.58-2.08v-1.64a3.32,3.32,0,0,0-.57-2.14,2.07,2.07,0,0,0-1.69-.68Z"
         id="path960" />
    </g>
  </g>
  <g
     id="_2005"
     data-name=" 2005">
    <path
       id="Tracé-5"
       data-name="Tracé"
       class="cls-9"
       d="M154.25,1.5v99.6l6.3,6.2,6.3-6.2V1.5l-6.3,6.4Z" />
    <path
       id="Maison-6"
       data-name="Maison"
       class="cls-2"
       d="M163.35,54.1l-2.7-2.5a.45.45,0,0,0-.5,0l-.6.5h-.7a.47.47,0,0,0-.5.5v.6l-1,.9a.31.31,0,0,0-.1.2v.1c.1.1.2.2.3.2h.3V57c0,.1.1.2.1.3a.37.37,0,0,0,.3.1h4a.35.35,0,0,0,.4-.4V54.6h.3c.1,0,.3-.1.3-.2v-.1c.2,0,.2-.1.1-.2" />
    <g
       class="cls-3"
       id="g975">
      <path
         class="cls-9"
         d="M182.85,61.33H173.1V59.39l4.6-4.9a11,11,0,0,0,1.4-1.81,2.92,2.92,0,0,0,.46-1.46,2.22,2.22,0,0,0-.48-1.49,1.74,1.74,0,0,0-1.37-.54,1.86,1.86,0,0,0-1.51.66,2.58,2.58,0,0,0-.55,1.73h-2.83a4.56,4.56,0,0,1,.62-2.37,4.32,4.32,0,0,1,1.75-1.69,5.39,5.39,0,0,1,2.57-.61A5,5,0,0,1,181.17,48a3.72,3.72,0,0,1,1.22,3,4.83,4.83,0,0,1-.55,2.14A11.9,11.9,0,0,1,180,55.64l-3.24,3.41h6.12Z"
         id="path967" />
      <path
         class="cls-9"
         d="M193.56,55.45A7.17,7.17,0,0,1,192.34,60a4.87,4.87,0,0,1-7.12,0,6.94,6.94,0,0,1-1.26-4.4V53a7.15,7.15,0,0,1,1.23-4.53,4.9,4.9,0,0,1,7.12,0,6.91,6.91,0,0,1,1.25,4.39Zm-2.82-2.88a5.26,5.26,0,0,0-.48-2.58,1.65,1.65,0,0,0-1.51-.8,1.61,1.61,0,0,0-1.47.76,4.88,4.88,0,0,0-.5,2.4v3.47a5.41,5.41,0,0,0,.47,2.58,1.63,1.63,0,0,0,1.52.85,1.56,1.56,0,0,0,1.49-.82,5.21,5.21,0,0,0,.48-2.48Z"
         id="path969" />
      <path
         class="cls-9"
         d="M204.46,55.45A7.23,7.23,0,0,1,203.24,60a4.89,4.89,0,0,1-7.13,0,7,7,0,0,1-1.26-4.4V53a7.09,7.09,0,0,1,1.24-4.53,4.88,4.88,0,0,1,7.11,0,7,7,0,0,1,1.26,4.39Zm-2.82-2.88a5.13,5.13,0,0,0-.49-2.58,1.64,1.64,0,0,0-1.51-.8,1.58,1.58,0,0,0-1.46.76,4.87,4.87,0,0,0-.51,2.4v3.47a5.4,5.4,0,0,0,.48,2.58,1.61,1.61,0,0,0,1.51.85,1.59,1.59,0,0,0,1.5-.82,5.47,5.47,0,0,0,.48-2.48Z"
         id="path971" />
      <path
         class="cls-9"
         d="M206.2,54.33l.82-7.22h8v2.35h-5.65L209,52.52a4.45,4.45,0,0,1,2.14-.54,4.1,4.1,0,0,1,3.18,1.26,5,5,0,0,1,1.15,3.53,5.11,5.11,0,0,1-.58,2.46,4.1,4.1,0,0,1-1.66,1.69,5.24,5.24,0,0,1-2.56.6,5.54,5.54,0,0,1-2.4-.52,4.32,4.32,0,0,1-1.74-1.47,4,4,0,0,1-.68-2.16h2.8a2,2,0,0,0,.62,1.38,1.94,1.94,0,0,0,1.39.5,1.73,1.73,0,0,0,1.47-.69,3.16,3.16,0,0,0,.52-2,2.63,2.63,0,0,0-.6-1.86,2.17,2.17,0,0,0-1.69-.64,2.46,2.46,0,0,0-1.63.53l-.27.25Z"
         id="path973" />
    </g>
    <g
       class="cls-3"
       id="g1027">
      <path
         class="cls-4"
         d="M91.16,48.59a3.42,3.42,0,0,1-.84,2.28,2.85,2.85,0,0,1-2.14.79A2.68,2.68,0,0,1,86,50.6a4.62,4.62,0,0,1-.82-2.87V46.06A4.38,4.38,0,0,1,86,43.21a2.77,2.77,0,0,1,2.29-1.05,2.68,2.68,0,0,1,2.07.8,3.49,3.49,0,0,1,.8,2.29H90a2.89,2.89,0,0,0-.48-1.61,1.5,1.5,0,0,0-1.22-.48,1.64,1.64,0,0,0-1.45.74,3.79,3.79,0,0,0-.51,2.16v1.7a4.11,4.11,0,0,0,.47,2.15,1.54,1.54,0,0,0,1.38.75,1.67,1.67,0,0,0,1.31-.45,2.86,2.86,0,0,0,.5-1.62Z"
         id="path977" />
      <path
         class="cls-4"
         d="M95.41,45.71a3.77,3.77,0,0,0-.51,0,1.24,1.24,0,0,0-1.2.95v4.91H92.58V44.66h1.09l0,.7A1.39,1.39,0,0,1,95,44.53a1,1,0,0,1,.45.09Z"
         id="path979" />
      <path
         class="cls-4"
         d="M98.87,51.66a2.5,2.5,0,0,1-2-.77,3.3,3.3,0,0,1-.7-2.24v-.83a3.84,3.84,0,0,1,.67-2.41,2.24,2.24,0,0,1,1.87-.88,2.15,2.15,0,0,1,1.8.77,4,4,0,0,1,.61,2.4v.73H97.32v.16a2.57,2.57,0,0,0,.41,1.61,1.49,1.49,0,0,0,1.2.5,1.86,1.86,0,0,0,.87-.19,2.13,2.13,0,0,0,.71-.59l.58.71A2.55,2.55,0,0,1,98.87,51.66Zm-.13-6.16a1.19,1.19,0,0,0-1,.48,2.88,2.88,0,0,0-.38,1.49H100v-.16a2.66,2.66,0,0,0-.35-1.39A1.1,1.1,0,0,0,98.74,45.5Zm.54-3.72h1.43L99,43.65h-1Z"
         id="path981" />
      <path
         class="cls-4"
         d="M106,51.53a2.48,2.48,0,0,1-.14-.75,1.81,1.81,0,0,1-1.53.88,2,2,0,0,1-1.45-.53,2,2,0,0,1-.53-1.47,2.11,2.11,0,0,1,.71-1.67,2.91,2.91,0,0,1,2-.62h.83v-.74a1.12,1.12,0,0,0-.28-.87,1.16,1.16,0,0,0-.83-.26,1.13,1.13,0,0,0-.82.3,1,1,0,0,0-.32.77H102.5a1.79,1.79,0,0,1,.31-1,2.11,2.11,0,0,1,.84-.75,2.41,2.41,0,0,1,1.17-.28,2.22,2.22,0,0,1,1.6.53,2,2,0,0,1,.56,1.52v3.47a4.34,4.34,0,0,0,.22,1.38v.1Zm-1.5-.9a1.5,1.5,0,0,0,.79-.22,1.52,1.52,0,0,0,.55-.58V48.2h-.64a2.07,2.07,0,0,0-1.26.36,1.12,1.12,0,0,0-.46,1,1.24,1.24,0,0,0,.23.85A1,1,0,0,0,104.53,50.63Z"
         id="path983" />
      <path
         class="cls-4"
         d="M110.2,43v1.66h1v.91h-1v4.26a1.17,1.17,0,0,0,.13.62.5.5,0,0,0,.46.21,1.47,1.47,0,0,0,.45-.08v1a2.67,2.67,0,0,1-.79.13,1.17,1.17,0,0,1-1-.48,2.28,2.28,0,0,1-.35-1.35V45.57h-1v-.91h1V43Z"
         id="path985" />
      <path
         class="cls-4"
         d="M113.87,42.84a.77.77,0,0,1-.16.48.63.63,0,0,1-.49.19.59.59,0,0,1-.47-.19.8.8,0,0,1,0-1,.56.56,0,0,1,.47-.2.57.57,0,0,1,.48.2A.72.72,0,0,1,113.87,42.84Zm-.09,8.69h-1.13V44.66h1.13Z"
         id="path987" />
      <path
         class="cls-4"
         d="M115.31,47.78a3.61,3.61,0,0,1,.72-2.37,2.56,2.56,0,0,1,3.84,0,3.49,3.49,0,0,1,.75,2.32v.73a3.6,3.6,0,0,1-.72,2.36,2.58,2.58,0,0,1-3.85,0,3.45,3.45,0,0,1-.74-2.28Zm1.12.65a2.87,2.87,0,0,0,.42,1.66,1.27,1.27,0,0,0,1.12.61c1,0,1.5-.72,1.53-2.15v-.77a2.93,2.93,0,0,0-.42-1.67A1.3,1.3,0,0,0,118,45.5a1.25,1.25,0,0,0-1.1.61,2.89,2.89,0,0,0-.42,1.66Z"
         id="path989" />
      <path
         class="cls-4"
         d="M123.13,44.66l0,.74a2,2,0,0,1,1.67-.87c1.21,0,1.83.81,1.85,2.43v4.57h-1.12V47a1.89,1.89,0,0,0-.27-1.15,1,1,0,0,0-.81-.34,1.11,1.11,0,0,0-.75.28,2,2,0,0,0-.54.73v5h-1.12V44.66Z"
         id="path991" />
      <path
         class="cls-4"
         d="M131.1,47.78a4.16,4.16,0,0,1,.59-2.41,2,2,0,0,1,1.71-.84,1.77,1.77,0,0,1,1.53.8V41.78h1.13v9.75h-1l-.06-.74a1.76,1.76,0,0,1-1.58.87,2,2,0,0,1-1.67-.83,3.93,3.93,0,0,1-.62-2.34Zm1.12.64a3.24,3.24,0,0,0,.35,1.7,1.21,1.21,0,0,0,1.11.54,1.32,1.32,0,0,0,1.25-.84V46.35a1.35,1.35,0,0,0-1.24-.82,1.23,1.23,0,0,0-1.12.54,3.27,3.27,0,0,0-.35,1.67Z"
         id="path993" />
      <path
         class="cls-4"
         d="M140.24,51.66a2.52,2.52,0,0,1-2-.77,3.3,3.3,0,0,1-.7-2.24v-.83a3.9,3.9,0,0,1,.67-2.41,2.24,2.24,0,0,1,1.87-.88,2.16,2.16,0,0,1,1.81.77,4,4,0,0,1,.6,2.4v.73h-3.83v.16a2.5,2.5,0,0,0,.42,1.61,1.46,1.46,0,0,0,1.19.5,1.93,1.93,0,0,0,.88-.19,2.1,2.1,0,0,0,.7-.59l.59.71A2.57,2.57,0,0,1,140.24,51.66Zm-.13-6.16a1.17,1.17,0,0,0-1,.48,2.78,2.78,0,0,0-.38,1.49h2.7v-.16a2.66,2.66,0,0,0-.35-1.39A1.1,1.1,0,0,0,140.11,45.5Z"
         id="path995" />
      <path
         class="cls-4"
         d="M56.72,67.13H55.59V57.38h1.13Z"
         id="path997" />
      <path
         class="cls-4"
         d="M62,67.13a2.42,2.42,0,0,1-.15-.75,1.79,1.79,0,0,1-1.52.88,1.82,1.82,0,0,1-2-2,2.08,2.08,0,0,1,.71-1.67A2.92,2.92,0,0,1,61,63h.82v-.73a1.16,1.16,0,0,0-.27-.87,1.18,1.18,0,0,0-.83-.26,1.16,1.16,0,0,0-.83.3,1,1,0,0,0-.31.76H58.48a1.86,1.86,0,0,1,.31-1,2.18,2.18,0,0,1,.84-.75,2.42,2.42,0,0,1,1.18-.28,2.24,2.24,0,0,1,1.6.53A2.08,2.08,0,0,1,63,62.18v3.47A4.08,4.08,0,0,0,63.19,67v.1Zm-1.5-.9a1.52,1.52,0,0,0,.79-.22,1.42,1.42,0,0,0,.54-.58V63.8h-.63a2,2,0,0,0-1.27.36,1.15,1.15,0,0,0-.46,1,1.25,1.25,0,0,0,.24.85A1,1,0,0,0,60.52,66.23Z"
         id="path999" />
      <path
         class="cls-4"
         d="M71,65.37a.83.83,0,0,0-.27-.62,4,4,0,0,0-1-.61,6.72,6.72,0,0,1-1.28-.64,1.89,1.89,0,0,1-.56-.61,1.7,1.7,0,0,1-.18-.81,1.78,1.78,0,0,1,.61-1.39,2.49,2.49,0,0,1,3.18,0,2,2,0,0,1,.61,1.5H71a1.08,1.08,0,0,0-.31-.79,1,1,0,0,0-.79-.33,1.13,1.13,0,0,0-.78.25.89.89,0,0,0-.28.69.77.77,0,0,0,.2.55,3.75,3.75,0,0,0,1,.55,5.1,5.1,0,0,1,1.7,1,1.65,1.65,0,0,1,.45,1.19,1.82,1.82,0,0,1-.62,1.43,2.41,2.41,0,0,1-1.65.54,2.49,2.49,0,0,1-1.74-.62,2,2,0,0,1-.66-1.56h1.13a1.17,1.17,0,0,0,1.27,1.22,1.29,1.29,0,0,0,.85-.25A.84.84,0,0,0,71,65.37Z"
         id="path1001" />
      <path
         class="cls-4"
         d="M73.37,63.38A3.61,3.61,0,0,1,74.1,61,2.37,2.37,0,0,1,76,60.13a2.41,2.41,0,0,1,1.92.85,3.55,3.55,0,0,1,.75,2.32V64A3.54,3.54,0,0,1,78,66.39a2.37,2.37,0,0,1-1.93.87,2.4,2.4,0,0,1-1.91-.85,3.51,3.51,0,0,1-.75-2.28ZM74.5,64a3,3,0,0,0,.41,1.66A1.29,1.29,0,0,0,76,66.3c1,0,1.5-.72,1.53-2.15v-.77a2.91,2.91,0,0,0-.42-1.67,1.32,1.32,0,0,0-2.23,0,3,3,0,0,0-.41,1.66Z"
         id="path1003" />
      <path
         class="cls-4"
         d="M82.52,66.3a1.22,1.22,0,0,0,.9-.35,1.48,1.48,0,0,0,.36-1h1.06a2.35,2.35,0,0,1-.7,1.65,2.23,2.23,0,0,1-1.62.65,2.36,2.36,0,0,1-1.94-.81,3.62,3.62,0,0,1-.67-2.39v-.75a3.68,3.68,0,0,1,.66-2.37,2.37,2.37,0,0,1,1.94-.81,2.21,2.21,0,0,1,1.68.67,2.68,2.68,0,0,1,.65,1.82H83.78a1.8,1.8,0,0,0-.36-1.14,1.15,1.15,0,0,0-.91-.38,1.29,1.29,0,0,0-1.11.49A2.88,2.88,0,0,0,81,63.21v.87a3.08,3.08,0,0,0,.36,1.72A1.3,1.3,0,0,0,82.52,66.3Z"
         id="path1005" />
      <path
         class="cls-4"
         d="M87.44,58.44a.67.67,0,0,1-.16.47.57.57,0,0,1-.48.2.6.6,0,0,1-.48-.2.72.72,0,0,1-.16-.47.77.77,0,0,1,.16-.48.68.68,0,0,1,1,0A.71.71,0,0,1,87.44,58.44Zm-.09,8.69H86.23V60.26h1.12Z"
         id="path1007" />
      <path
         class="cls-4"
         d="M91.57,67.26a2.52,2.52,0,0,1-2-.77,3.3,3.3,0,0,1-.69-2.24v-.83A3.84,3.84,0,0,1,89.58,61a2.2,2.2,0,0,1,1.87-.88,2.15,2.15,0,0,1,1.8.77,3.93,3.93,0,0,1,.61,2.39V64H90v.16a2.5,2.5,0,0,0,.42,1.61,1.49,1.49,0,0,0,1.2.5,1.86,1.86,0,0,0,.87-.19,2.13,2.13,0,0,0,.71-.59l.58.71A2.57,2.57,0,0,1,91.57,67.26Zm-.12-6.16a1.19,1.19,0,0,0-1,.48A2.88,2.88,0,0,0,90,63.07h2.7v-.16a2.57,2.57,0,0,0-.35-1.39A1.08,1.08,0,0,0,91.45,61.1ZM92,57.38h1.42l-1.7,1.86h-.94Z"
         id="path1009" />
      <path
         class="cls-4"
         d="M96.68,58.6v1.66h1v.91h-1v4.26a1.17,1.17,0,0,0,.13.62.5.5,0,0,0,.46.21,1.53,1.53,0,0,0,.45-.08l0,.95a2.55,2.55,0,0,1-.78.13,1.17,1.17,0,0,1-1-.48,2.28,2.28,0,0,1-.35-1.35V61.17h-1v-.91h1V58.6Z"
         id="path1011" />
      <path
         class="cls-4"
         d="M101.5,67.26a2.51,2.51,0,0,1-2-.77,3.35,3.35,0,0,1-.7-2.24v-.83A3.9,3.9,0,0,1,99.5,61a2.21,2.21,0,0,1,1.87-.88,2.16,2.16,0,0,1,1.81.77,4,4,0,0,1,.61,2.39V64H100v.16a2.5,2.5,0,0,0,.42,1.61,1.46,1.46,0,0,0,1.19.5,1.93,1.93,0,0,0,.88-.19,2.1,2.1,0,0,0,.7-.59l.59.71A2.57,2.57,0,0,1,101.5,67.26Zm-.13-6.16a1.17,1.17,0,0,0-1,.48,2.78,2.78,0,0,0-.38,1.49h2.7v-.16a2.57,2.57,0,0,0-.35-1.39A1.1,1.1,0,0,0,101.37,61.1Zm.55-3.72h1.42l-1.7,1.86h-1Z"
         id="path1013" />
      <path
         class="cls-4"
         d="M112.7,62.86h-3.27v3.27h3.81v1h-5V57.89h4.9v1h-3.74v3h3.27Z"
         id="path1015" />
      <path
         class="cls-4"
         d="M115.88,63.51v3.62h-1.16V57.89h3a2.63,2.63,0,0,1,2,.77,3.28,3.28,0,0,1,0,4.1,2.74,2.74,0,0,1-2,.75Zm0-1h1.79a1.49,1.49,0,0,0,1.18-.46,1.91,1.91,0,0,0,.42-1.33,2,2,0,0,0-.43-1.33,1.43,1.43,0,0,0-1.17-.51h-1.79Z"
         id="path1017" />
      <path
         class="cls-4"
         d="M123.14,67.13H122V57.89h1.16Z"
         id="path1019" />
      <path
         class="cls-4"
         d="M131.21,67.13h-1.16L126.35,60v7.12h-1.17V57.89h1.17L130.06,65V57.89h1.15Z"
         id="path1021" />
      <path
         class="cls-4"
         d="M137.65,64.71h-3.12l-.72,2.42h-1.19l3-9.24h1l3,9.24h-1.19Zm-2.82-1h2.52l-1.26-4.2Z"
         id="path1023" />
      <path
         class="cls-4"
         d="M142,66.13h3.62v1h-4.79V57.89H142Z"
         id="path1025" />
    </g>
  </g>
</svg>
