<?xml version="1.0" encoding="utf-8"?>
<!-- Generator: Adobe Illustrator 25.0.1, SVG Export Plug-In . SVG Version: 6.00 Build 0)  -->
<svg version="1.1" id="Calque_2" xmlns="http://www.w3.org/2000/svg" xmlns:xlink="http://www.w3.org/1999/xlink" x="0px" y="0px"
	 viewBox="0 0 413.712 186.12" enable-background="new 0 0 413.712 186.12" xml:space="preserve">
<path fill="#FFFFFF" d="M125.229,121.413"/>
<path fill="#FFFFFF" d="M38.759,62.964"/>
<linearGradient id="SVGID_1_" gradientUnits="userSpaceOnUse" x1="83.2121" y1="150.0222" x2="83.2121" y2="-0.0794">
	<stop  offset="0" style="stop-color:#878787"/>
	<stop  offset="1" style="stop-color:#B3B2B2"/>
</linearGradient>
<path fill="url(#SVGID_1_)" d="M79.61,123.074v15.403c0.03,0.928-0.174,1.849-0.588,2.679c-0.369,0.644-0.96,1.129-1.661,1.365
	c-0.26,0.098-0.53,0.17-0.805,0.216H36.67c-1.335,0.032-2.634-0.437-3.643-1.313c-0.798-0.664-1.267-1.642-1.285-2.679V72.232
	H16.257c-0.897,0.061-1.754-0.382-2.221-1.152c-0.039-0.166-0.039-0.341,0-0.508c0.014-0.397,0.199-0.769,0.509-1.018L40.42,45.633
	V27.203c0-2.604,2.112-4.714,4.715-4.714l0,0h20.333l16.07-14.868c1.064-0.886,2.607-0.886,3.67,0l66.968,61.905
	c0.307,0.251,0.493,0.621,0.509,1.018c0.039,0.168,0.039,0.341,0,0.509c-0.463,0.76-1.307,1.202-2.196,1.152h-15.616v66.672
	c-0.019,1.037-0.488,2.015-1.287,2.678c-1.008,0.876-2.307,1.345-3.643,1.312H93.806c-1.945,0.17-3.384,1.885-3.214,3.83
	c0.149,1.71,1.503,3.066,3.214,3.216h35.815c3.051,0.019,6.005-1.075,8.304-3.081c2.322-2.027,3.658-4.954,3.669-8.036V79.277h8.598
	c3.613,0.06,6.941-1.947,8.573-5.17c0.531-1.113,0.805-2.33,0.802-3.563c0.007-2.345-0.963-4.588-2.678-6.188L89.923,2.453
	c-3.765-3.376-9.467-3.376-13.231,0L62.654,15.444H44.921c-6.495,0-11.76,5.265-11.76,11.76v15.349L9.535,64.383
	c-1.715,1.601-2.684,3.843-2.679,6.188c0.006,1.235,0.29,2.452,0.83,3.563c1.632,3.222,4.96,5.231,8.571,5.17h8.546v59.601
	c0.011,3.082,1.348,6.009,3.67,8.037c2.301,2.004,5.253,3.1,8.305,3.08h39.912c1.791-0.086,3.53-0.62,5.06-1.553
	c1.467-0.891,2.675-2.146,3.511-3.643c1.022-1.918,1.531-4.069,1.473-6.242v-15.509H79.61z"/>
<path fill="#FFFFFF" d="M125.255,130.334"/>
<path d="M114.54,141.932"/>
<linearGradient id="SVGID_2_" gradientUnits="userSpaceOnUse" x1="212.3317" y1="15.5746" x2="212.3317" y2="62.7765">
	<stop  offset="0" style="stop-color:#F3C51B"/>
	<stop  offset="1" style="stop-color:#ED7E00"/>
</linearGradient>
<path fill="url(#SVGID_2_)" d="M228.357,29.936c0.045,2.387-0.374,4.762-1.231,6.991c-0.778,1.965-2.008,3.718-3.589,5.117
	c-1.678,1.446-3.639,2.522-5.758,3.16c-2.608,0.772-5.318,1.143-8.037,1.099h-3.911V61.25c-0.005,0.236-0.089,0.463-0.241,0.643
	c-0.208,0.231-0.477,0.399-0.777,0.482c-0.472,0.145-0.956,0.244-1.447,0.295c-1.533,0.142-3.074,0.142-4.607,0
	c-0.5-0.051-0.994-0.149-1.474-0.295c-0.292-0.083-0.555-0.25-0.751-0.482c-0.141-0.185-0.216-0.411-0.214-0.643V19.114
	c-0.111-0.979,0.212-1.958,0.883-2.679c0.631-0.587,1.471-0.896,2.332-0.857h11.033c1.109,0,2.162,0,3.161,0
	c1.206,0.115,2.405,0.294,3.591,0.535c1.485,0.304,2.919,0.818,4.258,1.528c1.39,0.712,2.632,1.674,3.67,2.839
	c1.024,1.175,1.807,2.54,2.303,4.018C228.139,26.25,228.412,28.089,228.357,29.936z M218.42,30.632
	c0.056-1.398-0.24-2.788-0.857-4.044c-0.488-0.965-1.229-1.778-2.143-2.357c-0.819-0.5-1.729-0.828-2.679-0.965
	c-0.949-0.129-1.908-0.192-2.866-0.187h-4.045v15.885h4.258c1.297,0.034,2.587-0.174,3.804-0.617
	c0.963-0.366,1.826-0.953,2.519-1.714c0.672-0.782,1.172-1.694,1.472-2.679c0.351-1.063,0.532-2.175,0.537-3.294V30.632z"/>
<linearGradient id="SVGID_3_" gradientUnits="userSpaceOnUse" x1="267.5694" y1="15.7298" x2="267.5694" y2="62.7773">
	<stop  offset="0" style="stop-color:#F3C51B"/>
	<stop  offset="1" style="stop-color:#ED7E00"/>
</linearGradient>
<path fill="url(#SVGID_3_)" d="M294.575,61.223c0.005,0.229-0.061,0.452-0.188,0.643c-0.183,0.234-0.436,0.403-0.722,0.482
	c-0.453,0.144-0.92,0.243-1.392,0.295c-0.731,0.044-1.466,0.044-2.197,0c-0.723,0.044-1.448,0.044-2.17,0
	c-0.463-0.051-0.922-0.15-1.366-0.295c-0.283-0.086-0.535-0.254-0.723-0.482c-0.138-0.185-0.215-0.412-0.215-0.643V23.131l0,0
	l-13.555,38.038c-0.087,0.297-0.254,0.565-0.482,0.777c-0.255,0.224-0.556,0.388-0.883,0.483c-0.461,0.137-0.938,0.217-1.419,0.241
	h-2.089c-0.697,0.034-1.394,0.034-2.089,0c-0.483-0.044-0.96-0.143-1.419-0.295c-0.322-0.103-0.622-0.267-0.883-0.482
	c-0.207-0.185-0.359-0.427-0.429-0.697l-13.1-38.038l0,0V61.25c0.005,0.228-0.06,0.453-0.186,0.643
	c-0.191,0.238-0.454,0.407-0.751,0.482c-0.454,0.141-0.92,0.24-1.393,0.295c-1.451,0.143-2.914,0.143-4.367,0
	c-0.471-0.052-0.938-0.151-1.391-0.295c-0.287-0.08-0.542-0.249-0.724-0.482c-0.126-0.19-0.191-0.414-0.187-0.643V19.516
	c-0.07-1.029,0.277-2.043,0.965-2.813c0.715-0.685,1.69-1.036,2.679-0.964h6.215c0.961-0.018,1.922,0.072,2.866,0.268
	c0.743,0.158,1.444,0.468,2.061,0.91c0.596,0.442,1.089,1.009,1.448,1.661c0.446,0.848,0.788,1.748,1.017,2.679l10.127,27.885h0.133
	l10.5-27.805c0.251-0.924,0.59-1.821,1.017-2.678c0.332-0.637,0.778-1.209,1.313-1.687c0.511-0.438,1.115-0.749,1.767-0.911
	c0.772-0.192,1.565-0.283,2.359-0.268h6.401c0.572-0.018,1.145,0.064,1.689,0.241c0.441,0.152,0.835,0.41,1.153,0.751
	c0.316,0.346,0.554,0.757,0.696,1.205c0.167,0.519,0.246,1.062,0.241,1.607v41.708L294.575,61.223z"/>
<linearGradient id="SVGID_4_" gradientUnits="userSpaceOnUse" x1="326.1306" y1="15.7068" x2="326.1306" y2="62.5635">
	<stop  offset="0" style="stop-color:#F3C51B"/>
	<stop  offset="1" style="stop-color:#ED7E00"/>
</linearGradient>
<path fill="url(#SVGID_4_)" d="M343.061,48.499c0.016,1.536-0.22,3.067-0.697,4.527c-0.427,1.296-1.07,2.51-1.903,3.589
	c-0.811,1.043-1.79,1.949-2.893,2.679c-1.152,0.765-2.394,1.385-3.695,1.848c-1.399,0.497-2.843,0.855-4.313,1.072
	c-1.694,0.242-3.404,0.358-5.117,0.347h-12.427c-0.734,0.027-1.449-0.221-2.01-0.695c-0.595-0.612-0.89-1.455-0.804-2.304v-40.85
	c-0.086-0.849,0.209-1.692,0.804-2.304c0.561-0.474,1.276-0.723,2.01-0.697h11.757c2.45-0.044,4.896,0.199,7.288,0.723
	c1.803,0.402,3.513,1.147,5.035,2.196c1.34,0.947,2.419,2.219,3.134,3.697c0.772,1.677,1.149,3.51,1.097,5.356
	c0.009,1.087-0.132,2.17-0.427,3.215c-0.279,0.953-0.704,1.855-1.26,2.68c-0.559,0.826-1.245,1.559-2.035,2.169
	c-0.813,0.639-1.715,1.153-2.68,1.526c1.283,0.224,2.521,0.65,3.67,1.259c1.108,0.594,2.094,1.384,2.921,2.331
	c0.858,0.987,1.529,2.122,1.983,3.349C342.938,45.597,343.131,47.049,343.061,48.499z M330.765,28.784
	c0.018-0.868-0.127-1.731-0.429-2.545c-0.27-0.727-0.722-1.373-1.313-1.875c-0.643-0.532-1.392-0.925-2.196-1.153
	c-1.154-0.298-2.344-0.434-3.536-0.401h-4.822v12.162h5.358c1.12,0.044,2.237-0.119,3.295-0.483c0.768-0.294,1.46-0.751,2.035-1.339
	c0.541-0.565,0.954-1.242,1.206-1.982c0.229-0.773,0.329-1.579,0.293-2.384H330.765z M333.177,48.82
	c0.018-0.999-0.164-1.992-0.538-2.92c-0.345-0.831-0.888-1.567-1.578-2.143c-0.793-0.625-1.703-1.08-2.68-1.339
	c-1.383-0.352-2.807-0.514-4.231-0.482h-5.734v13.393h6.884c1.131,0.024,2.262-0.122,3.35-0.428c0.858-0.252,1.66-0.671,2.357-1.233
	c0.665-0.55,1.199-1.246,1.553-2.035c0.386-0.887,0.568-1.848,0.534-2.813H333.177z"/>
<linearGradient id="SVGID_5_" gradientUnits="userSpaceOnUse" x1="82.3689" y1="43.0069" x2="82.3689" y2="115.4127">
	<stop  offset="0" style="stop-color:#F3C51B"/>
	<stop  offset="1" style="stop-color:#ED7E00"/>
</linearGradient>
<path fill="url(#SVGID_5_)" d="M85.905,115.413V91.305l6.99-4.393c4.474-2.678,10.983-6.697,12.296-13.099h1.715
	c0.622,0.015,1.137-0.476,1.151-1.097c0-0.001,0-0.001,0-0.002v-7.232c-0.014-0.621-0.529-1.113-1.151-1.098l0,0h-7.447
	c-0.622-0.015-1.137,0.476-1.152,1.098l0,0v7.153c0.015,0.621,0.529,1.112,1.152,1.098l0,0h1.474
	c-1.233,3.937-5.519,6.884-10.234,9.751l-4.794,2.973V58.732h6.509l-9.482-15.725l-9.484,15.725h6.511v42.242l-4.662-2.866
	c-5.357-3.187-9.964-6.455-10.554-11.063c1.971-0.835,3.257-2.762,3.268-4.902c0-3.129-2.537-5.665-5.666-5.665
	c-3.128,0-5.664,2.536-5.664,5.665c0.007,2.396,1.603,4.497,3.911,5.143c0.722,7.018,7.742,11.278,12.456,14.17l7.019,4.206v9.724"
	/>
<path fill="#878787" d="M200.661,127.895c-0.005-0.478-0.22-0.93-0.589-1.232c-0.618-0.45-1.335-0.743-2.09-0.857
	c-0.954-0.148-1.867-0.495-2.678-1.017c-0.568-0.419-0.888-1.091-0.859-1.795c-0.005-0.767,0.354-1.492,0.965-1.955
	c0.763-0.589,1.717-0.876,2.678-0.804c0.967-0.046,1.919,0.258,2.68,0.857c0.643,0.498,1.002,1.278,0.964,2.089l0,0h-1.019
	c0-0.563-0.257-1.096-0.697-1.447c-0.522-0.436-1.192-0.656-1.874-0.617c-0.652-0.048-1.299,0.142-1.821,0.537
	c-0.384,0.294-0.611,0.748-0.615,1.232c-0.006,0.437,0.192,0.852,0.536,1.124c0.628,0.418,1.341,0.693,2.089,0.804
	c0.961,0.17,1.874,0.545,2.678,1.098c0.59,0.439,0.932,1.14,0.911,1.876c0.015,0.803-0.368,1.564-1.02,2.035
	c-0.779,0.551-1.723,0.824-2.678,0.778c-1.029,0.055-2.046-0.258-2.866-0.884c-0.656-0.489-1.027-1.272-0.99-2.09l0,0h1.017
	c-0.006,0.646,0.329,1.248,0.883,1.58c0.588,0.334,1.254,0.501,1.929,0.483c0.676,0.039,1.346-0.15,1.902-0.536
	C200.468,128.843,200.675,128.38,200.661,127.895z"/>
<path fill="#878787" d="M213.143,125.726c0.066,1.276-0.292,2.538-1.019,3.59c-0.633,0.843-1.625,1.339-2.679,1.339
	c-0.638,0.014-1.272-0.124-1.849-0.401c-0.518-0.259-0.961-0.646-1.285-1.125v5.196h-1.124v-13.876h0.856l0.216,1.555
	c0.311-0.532,0.754-0.975,1.285-1.287c0.575-0.315,1.222-0.472,1.875-0.455c1.124-0.033,2.186,0.513,2.813,1.447
	c0.729,1.141,1.085,2.479,1.017,3.831v0.187H213.143z M212.019,125.538c0.045-1.086-0.214-2.163-0.752-3.107
	c-0.462-0.78-1.315-1.243-2.223-1.205c-0.639-0.026-1.271,0.163-1.794,0.535c-0.471,0.353-0.84,0.824-1.071,1.367v4.848
	c0.24,0.524,0.62,0.969,1.098,1.287c0.532,0.321,1.147,0.479,1.767,0.456c0.883,0.049,1.728-0.367,2.223-1.099
	c0.54-0.865,0.802-1.875,0.752-2.893V125.538L212.019,125.538z"/>
<path fill="#878787" d="M220.215,130.655c-1.206,0.043-2.367-0.46-3.161-1.366c-0.831-0.986-1.262-2.248-1.205-3.535v-0.509
	c0.001-1.289,0.466-2.535,1.312-3.509c0.75-0.912,1.874-1.435,3.055-1.419c1.068-0.056,2.103,0.378,2.812,1.179
	c0.702,0.899,1.054,2.022,0.991,3.16v0.857h-6.99v0.295c-0.041,1.016,0.262,2.015,0.855,2.839c0.563,0.743,1.455,1.164,2.386,1.125
	c0.576,0.007,1.148-0.093,1.688-0.295c0.477-0.177,0.915-0.449,1.285-0.803l0.482,0.75c-0.397,0.393-0.872,0.704-1.392,0.911
	C221.654,130.581,220.935,130.691,220.215,130.655z M220.215,121.199c-0.806-0.03-1.585,0.304-2.117,0.911
	c-0.567,0.651-0.906,1.469-0.965,2.331l0,0h5.762V124.2c0.03-0.791-0.216-1.569-0.698-2.197c-0.526-0.592-1.304-0.891-2.091-0.804
	H220.215z M221.393,116.189h1.125l0,0l-2.303,2.411h-0.992L221.393,116.189z"/>
<path fill="#878787" d="M230.553,129.771c0.681,0.005,1.342-0.223,1.876-0.643c0.545-0.41,0.855-1.061,0.83-1.741h0.991l0,0
	c0.057,0.913-0.358,1.792-1.098,2.331c-0.748,0.627-1.7,0.961-2.679,0.937c-1.204,0.053-2.359-0.475-3.107-1.419
	c-0.781-1.04-1.179-2.318-1.125-3.617v-0.402c-0.049-1.289,0.349-2.557,1.125-3.589c0.748-0.945,1.903-1.473,3.107-1.419
	c0.983-0.032,1.942,0.313,2.679,0.964c0.753,0.676,1.141,1.671,1.045,2.679l0,0h-0.964c0.039-0.726-0.246-1.432-0.777-1.929
	c-0.52-0.488-1.215-0.749-1.929-0.723c-0.923-0.044-1.804,0.392-2.329,1.152c-0.542,0.866-0.812,1.873-0.777,2.893v0.401
	c-0.039,1.029,0.232,2.046,0.777,2.92C228.716,129.355,229.611,129.813,230.553,129.771z"/>
<path fill="#878787" d="M238.591,117.556h-1.099v-1.552h1.099V117.556z M238.591,130.467h-1.099v-10.019h1.099V130.467z"/>
<path fill="#878787" d="M248.876,130.467c0-0.348,0-0.643-0.161-0.911c-0.016-0.259-0.016-0.518,0-0.777
	c-0.365,0.558-0.861,1.018-1.447,1.339c-0.654,0.364-1.392,0.549-2.142,0.535c-0.831,0.051-1.65-0.228-2.278-0.777
	c-0.552-0.562-0.843-1.329-0.804-2.116c0.017-0.872,0.458-1.681,1.18-2.169c0.907-0.588,1.975-0.878,3.053-0.83h2.464v-1.233
	c0.034-0.633-0.211-1.25-0.669-1.687c-0.537-0.45-1.231-0.671-1.929-0.616c-0.663-0.033-1.316,0.167-1.849,0.563
	c-0.441,0.325-0.7,0.843-0.696,1.392h-1.019l0,0c-0.02-0.779,0.34-1.518,0.965-1.982c0.761-0.597,1.712-0.901,2.678-0.856
	c0.966-0.06,1.919,0.236,2.68,0.83c0.681,0.61,1.045,1.498,0.99,2.411v4.929c-0.02,0.339-0.02,0.678,0,1.017
	c0.036,0.335,0.099,0.667,0.188,0.991h-1.151L248.876,130.467z M245.181,129.691c0.783,0.018,1.558-0.197,2.221-0.617
	c0.584-0.362,1.027-0.91,1.26-1.553v-1.929h-2.464c-0.793-0.03-1.572,0.195-2.223,0.643c-0.538,0.335-0.871,0.92-0.883,1.554
	c-0.018,0.515,0.186,1.012,0.561,1.366c0.411,0.395,0.957,0.616,1.529,0.616V129.691z"/>
<path fill="#878787" d="M254.663,130.467h-1.098v-14.464h1.098V130.467z"/>
<path fill="#878787" d="M259.805,117.556h-1.097v-1.552h1.097V117.556z M259.805,130.467h-1.097v-10.019h1.097V130.467z"/>
<path fill="#878787" d="M269.636,127.895c-0.005-0.478-0.219-0.93-0.588-1.232c-0.618-0.45-1.335-0.743-2.092-0.857
	c-0.954-0.148-1.867-0.495-2.677-1.017c-0.567-0.419-0.889-1.091-0.857-1.795c-0.005-0.767,0.352-1.492,0.963-1.955
	c0.763-0.589,1.719-0.876,2.679-0.804c0.966-0.046,1.919,0.258,2.679,0.857c0.644,0.498,1.004,1.278,0.965,2.089l0,0h-1.019
	c0.001-0.563-0.255-1.096-0.696-1.447c-0.523-0.436-1.194-0.656-1.876-0.617c-0.652-0.048-1.299,0.142-1.821,0.537
	c-0.383,0.294-0.609,0.748-0.615,1.232c-0.005,0.437,0.193,0.852,0.536,1.124c0.629,0.418,1.342,0.693,2.088,0.804
	c0.963,0.17,1.876,0.545,2.679,1.098c0.593,0.439,0.933,1.14,0.913,1.876c0.011,0.803-0.367,1.564-1.02,2.035
	c-0.781,0.551-1.724,0.824-2.678,0.778c-1.03,0.055-2.048-0.258-2.866-0.884c-0.659-0.489-1.029-1.272-0.992-2.09l0,0h1.017
	c-0.005,0.646,0.332,1.248,0.886,1.58c0.586,0.334,1.254,0.501,1.928,0.483c0.676,0.039,1.344-0.15,1.902-0.536
	C269.446,128.843,269.651,128.38,269.636,127.895z"/>
<path fill="#878787" d="M275.796,117.851v2.679h2.198v0.911h-2.198v6.535c-0.045,0.491,0.077,0.983,0.35,1.394
	c0.237,0.266,0.581,0.413,0.938,0.402h0.402h0.457l0.159,0.831l-0.561,0.187h-0.644c-0.617,0.03-1.214-0.216-1.634-0.669
	c-0.443-0.612-0.652-1.364-0.588-2.117v-6.536h-1.742v-0.91h1.742v-2.679h1.122V117.851z"/>
<path fill="#878787" d="M284.744,130.655c-1.205,0.043-2.364-0.46-3.161-1.366c-0.83-0.986-1.259-2.248-1.204-3.535v-0.509
	c-0.041-1.307,0.397-2.583,1.231-3.589c0.749-0.913,1.874-1.435,3.055-1.42c1.067-0.056,2.104,0.377,2.813,1.178
	c0.702,0.899,1.055,2.022,0.991,3.161v0.858h-7.019v0.294c-0.04,1.015,0.262,2.016,0.857,2.839c0.562,0.744,1.452,1.165,2.385,1.126
	c0.575,0.007,1.148-0.093,1.687-0.295c0.479-0.175,0.917-0.45,1.285-0.805l0.482,0.751c-0.397,0.394-0.871,0.704-1.392,0.91
	C286.115,130.514,285.434,130.652,284.744,130.655z M284.744,121.199c-0.806-0.03-1.583,0.304-2.117,0.911
	c-0.565,0.651-0.904,1.469-0.963,2.331l0,0h5.759V124.2c0.033-0.791-0.215-1.569-0.697-2.197c-0.525-0.592-1.304-0.891-2.089-0.804
	H284.744z"/>
<path fill="#878787" d="M297.523,127.895c-0.005-0.478-0.22-0.93-0.591-1.232c-0.617-0.45-1.334-0.743-2.089-0.857
	c-0.954-0.148-1.867-0.495-2.68-1.017c-0.565-0.419-0.888-1.091-0.856-1.795c-0.005-0.767,0.354-1.492,0.965-1.955
	c0.762-0.589,1.717-0.876,2.678-0.804c0.967-0.046,1.919,0.258,2.678,0.857c0.645,0.498,1.005,1.278,0.965,2.089l0,0h-1.07
	c0-0.563-0.258-1.096-0.697-1.447c-0.523-0.436-1.195-0.656-1.876-0.617c-0.652-0.048-1.299,0.142-1.821,0.537
	c-0.384,0.294-0.609,0.748-0.615,1.232c-0.006,0.437,0.193,0.852,0.535,1.124c0.63,0.418,1.343,0.693,2.089,0.804
	c0.962,0.17,1.876,0.545,2.679,1.098c0.593,0.439,0.931,1.14,0.911,1.876c0.014,0.803-0.367,1.564-1.017,2.035
	c-0.781,0.551-1.724,0.824-2.678,0.778c-1.031,0.055-2.048-0.258-2.868-0.884c-0.656-0.489-1.027-1.272-0.991-2.09l0,0h0.991
	c-0.005,0.646,0.332,1.248,0.885,1.58c0.587,0.334,1.255,0.501,1.929,0.483c0.675,0.039,1.347-0.15,1.901-0.536
	C297.279,128.86,297.516,128.393,297.523,127.895z"/>
<path fill="#878787" d="M306.816,125.538c-0.064-1.351,0.291-2.688,1.017-3.831c0.634-0.942,1.708-1.489,2.841-1.447
	c1.249-0.04,2.426,0.595,3.08,1.661v-5.919h1.124v14.464h-0.911l-0.159-1.447c-0.316,0.514-0.758,0.94-1.288,1.233
	c-0.57,0.294-1.206,0.442-1.846,0.428c-1.102,0.044-2.153-0.457-2.814-1.339c-0.725-1.052-1.081-2.314-1.017-3.589v-0.187
	L306.816,125.538z M307.941,125.726c-0.054,1.015,0.2,2.024,0.725,2.893c0.491,0.722,1.326,1.128,2.196,1.073
	c0.634,0.023,1.26-0.146,1.794-0.483c0.491-0.325,0.881-0.779,1.127-1.313v-4.768c-0.234-0.547-0.604-1.025-1.072-1.393
	c-0.522-0.374-1.154-0.562-1.794-0.535c-0.902-0.04-1.746,0.425-2.196,1.205c-0.532,0.948-0.793,2.023-0.752,3.107v0.188
	L307.941,125.726z"/>
<path fill="#878787" d="M322.408,130.655c-1.206,0.043-2.367-0.46-3.161-1.366c-0.831-0.986-1.263-2.248-1.206-3.535v-0.509
	c-0.041-1.307,0.397-2.583,1.233-3.589c0.75-0.913,1.874-1.435,3.052-1.42c1.07-0.056,2.105,0.377,2.814,1.178
	c0.702,0.899,1.054,2.022,0.992,3.161v0.858h-6.993v0.294c-0.041,1.015,0.261,2.016,0.856,2.839
	c0.563,0.744,1.453,1.165,2.385,1.126c0.577,0.007,1.149-0.093,1.687-0.295c0.479-0.175,0.917-0.45,1.285-0.805l0.484,0.751
	c-0.4,0.394-0.872,0.704-1.394,0.91C323.797,130.519,323.105,130.655,322.408,130.655z M322.408,121.199
	c-0.806-0.03-1.585,0.304-2.117,0.911c-0.565,0.651-0.906,1.469-0.963,2.331l0,0h5.757V124.2c0.034-0.791-0.214-1.569-0.695-2.197
	c-0.525-0.592-1.306-0.891-2.092-0.804H322.408z"/>
<path fill="#878787" d="M335.746,130.467h-1.097v-14.464h1.097V130.467z"/>
<path fill="#878787" d="M338.934,125.297c-0.061-1.321,0.368-2.619,1.206-3.642c1.633-1.775,4.394-1.892,6.171-0.26
	c0.091,0.082,0.175,0.169,0.259,0.26c0.838,1.023,1.267,2.321,1.204,3.642v0.296c0.064,1.321-0.366,2.619-1.204,3.643
	c-1.624,1.782-4.388,1.911-6.171,0.287c-0.098-0.09-0.195-0.187-0.286-0.287c-0.84-1.024-1.267-2.322-1.206-3.643v-0.296H338.934z
	 M340.058,125.592c-0.032,1.044,0.277,2.07,0.886,2.92c1.054,1.352,3.005,1.596,4.363,0.541c0.2-0.158,0.382-0.339,0.538-0.541
	c0.609-0.85,0.92-1.876,0.886-2.92v-0.296c0.032-1.044-0.279-2.068-0.886-2.919c-1.065-1.346-3.018-1.574-4.365-0.51
	c-0.188,0.15-0.361,0.322-0.511,0.51c-0.604,0.851-0.913,1.877-0.883,2.919v0.296H340.058z"/>
<path fill="#878787" d="M350.478,125.538c-0.064-1.351,0.293-2.688,1.02-3.831c0.631-0.942,1.706-1.489,2.841-1.447
	c0.645-0.016,1.283,0.141,1.846,0.455c0.534,0.323,0.974,0.774,1.285,1.313l0.161-1.581h0.911v10.099
	c0.07,1.084-0.307,2.15-1.045,2.947c-0.82,0.738-1.901,1.115-3,1.045c-0.522-0.007-1.045-0.07-1.553-0.188
	c-0.493-0.1-0.97-0.263-1.419-0.482l0.214-0.938c0.409,0.202,0.84,0.356,1.285,0.454c0.475,0.107,0.961,0.161,1.447,0.162
	c0.813,0.068,1.619-0.203,2.223-0.75c0.525-0.627,0.786-1.434,0.724-2.251v-1.419c-0.325,0.487-0.768,0.883-1.285,1.153
	c-0.568,0.278-1.192,0.415-1.821,0.401c-1.102,0.044-2.153-0.457-2.814-1.339c-0.724-1.052-1.083-2.314-1.02-3.589v-0.187V125.538z
	 M351.605,125.726c-0.057,1.015,0.195,2.024,0.725,2.893c0.49,0.722,1.326,1.128,2.194,1.073c0.625,0.017,1.242-0.151,1.769-0.483
	c0.488-0.325,0.879-0.779,1.126-1.313V123.1c-0.207-0.526-0.538-0.994-0.965-1.366c-0.522-0.374-1.154-0.562-1.794-0.535
	c-0.899-0.034-1.742,0.429-2.196,1.205c-0.534,0.947-0.793,2.022-0.752,3.107v0.188L351.605,125.726z"/>
<path fill="#878787" d="M363.444,117.556h-1.097v-1.552h1.097V117.556z M363.444,130.467h-1.097v-10.019h1.097V130.467z"/>
<path fill="#878787" d="M370.945,129.771c0.679,0.005,1.342-0.223,1.874-0.643c0.545-0.41,0.856-1.061,0.831-1.741h0.99l0,0
	c0.057,0.913-0.359,1.792-1.097,2.331c-0.749,0.627-1.701,0.961-2.678,0.937c-1.206,0.053-2.362-0.475-3.109-1.419
	c-0.781-1.04-1.179-2.318-1.124-3.617v-0.402c-0.048-1.289,0.35-2.557,1.124-3.589c0.747-0.945,1.903-1.473,3.109-1.419
	c0.983-0.032,1.939,0.313,2.678,0.964c0.754,0.676,1.142,1.671,1.045,2.679l0,0h-0.993c0.039-0.726-0.245-1.432-0.777-1.929
	c-0.52-0.488-1.213-0.749-1.928-0.723c-0.924-0.044-1.803,0.392-2.33,1.152c-0.541,0.866-0.811,1.873-0.777,2.893v0.401
	c-0.039,1.029,0.234,2.046,0.777,2.92C369.085,129.364,369.991,129.822,370.945,129.771z"/>
<path fill="#878787" d="M379.062,117.556h-1.181v-1.552h1.099v1.552H379.062z M379.062,130.467h-1.181v-10.019h1.099v10.019H379.062
	z"/>
<path fill="#878787" d="M386.695,130.655c-1.204,0.043-2.367-0.46-3.159-1.366c-0.831-0.986-1.263-2.248-1.206-3.535v-0.509
	c-0.041-1.307,0.397-2.583,1.231-3.589c0.75-0.913,1.874-1.435,3.055-1.42c1.067-0.056,2.103,0.377,2.812,1.178
	c0.702,0.899,1.054,2.022,0.992,3.161v0.858h-6.99v0.294c-0.041,1.015,0.261,2.016,0.856,2.839c0.561,0.744,1.451,1.165,2.382,1.126
	c0.577,0.007,1.149-0.093,1.687-0.295c0.482-0.175,0.92-0.45,1.288-0.805l0.482,0.751c-0.397,0.394-0.872,0.704-1.394,0.91
	C388.085,130.519,387.395,130.655,386.695,130.655z M386.695,121.199c-0.806-0.03-1.583,0.304-2.117,0.911
	c-0.565,0.651-0.904,1.469-0.963,2.331l0,0h5.759V124.2c0.032-0.791-0.216-1.569-0.699-2.197c-0.522-0.592-1.301-0.891-2.087-0.804
	H386.695z"/>
<path fill="#878787" d="M394.651,130.467h-1.097v-14.464h1.097V130.467z"/>
<path fill="#878787" d="M404.482,127.895c-0.002-0.478-0.22-0.93-0.588-1.232c-0.618-0.45-1.335-0.743-2.092-0.857
	c-0.954-0.148-1.867-0.495-2.678-1.017c-0.565-0.419-0.888-1.091-0.856-1.795c-0.005-0.767,0.352-1.492,0.963-1.955
	c0.763-0.589,1.719-0.876,2.68-0.804c0.965-0.046,1.917,0.258,2.678,0.857c0.643,0.498,1.004,1.278,0.965,2.089l0,0h-1.02
	c0-0.563-0.257-1.096-0.695-1.447c-0.525-0.436-1.195-0.656-1.876-0.617c-0.652-0.048-1.299,0.142-1.821,0.537
	c-0.382,0.294-0.609,0.748-0.615,1.232c-0.005,0.437,0.193,0.852,0.536,1.124c0.627,0.418,1.34,0.693,2.089,0.804
	c0.961,0.17,1.874,0.545,2.678,1.098c0.593,0.439,0.931,1.14,0.911,1.876c0.014,0.803-0.368,1.564-1.017,2.035
	c-0.781,0.551-1.724,0.824-2.68,0.778c-1.029,0.055-2.044-0.258-2.866-0.884c-0.656-0.489-1.027-1.272-0.99-2.09l0,0h1.017
	c-0.007,0.646,0.332,1.248,0.886,1.58c0.586,0.334,1.254,0.501,1.928,0.483c0.675,0.039,1.344-0.15,1.901-0.536
	C404.289,128.843,404.498,128.38,404.482,127.895z"/>
<path fill="#878787" d="M195.597,143.164v1.661c0.304-0.553,0.747-1.015,1.287-1.34c0.577-0.333,1.237-0.5,1.902-0.482
	c0.686-0.024,1.363,0.173,1.928,0.561c0.546,0.422,0.933,1.017,1.099,1.69c0.27-0.654,0.715-1.219,1.285-1.634
	c0.6-0.408,1.313-0.614,2.035-0.589c0.945-0.048,1.857,0.347,2.464,1.07c0.663,0.966,0.974,2.129,0.885,3.295v5.839h-1.123v-5.866
	c0.097-0.944-0.141-1.892-0.672-2.678c-0.457-0.523-1.125-0.81-1.821-0.778c-0.734-0.042-1.45,0.242-1.955,0.778
	c-0.486,0.568-0.794,1.267-0.883,2.008c0,0,0,0.134,0,0.216c0,0.08,0,0.16,0,0.268v6.027h-0.937v-5.867
	c0.1-0.944-0.137-1.893-0.669-2.679c-0.454-0.527-1.129-0.813-1.821-0.777c-0.67-0.041-1.329,0.169-1.851,0.588
	c-0.472,0.42-0.807,0.97-0.963,1.581v7.072h-1.124v-9.964h0.99H195.597z"/>
<path fill="#878787" d="M216.036,153.424c-1.206,0.041-2.366-0.46-3.161-1.367c-0.831-0.986-1.26-2.246-1.205-3.535v-0.509
	c-0.042-1.307,0.396-2.583,1.232-3.589c0.75-0.913,1.873-1.435,3.052-1.419c1.069-0.057,2.103,0.377,2.814,1.179
	c0.702,0.898,1.054,2.021,0.991,3.16v0.857h-6.992v0.321c-0.041,1.015,0.262,2.016,0.856,2.839c0.562,0.744,1.453,1.165,2.385,1.125
	c0.576,0.008,1.149-0.093,1.687-0.295c0.48-0.175,0.917-0.45,1.285-0.804l0.482,0.752c-0.397,0.394-0.87,0.704-1.392,0.911
	C217.424,153.305,216.732,153.432,216.036,153.424z M216.036,143.968c-0.806-0.031-1.585,0.303-2.117,0.911
	c-0.567,0.651-0.906,1.468-0.963,2.331l0,0h5.757v-0.243c0.032-0.79-0.213-1.568-0.695-2.196c-0.527-0.59-1.305-0.89-2.092-0.803
	H216.036z M217.214,138.959h1.366l0,0l-2.303,2.411h-0.99L217.214,138.959z"/>
<path fill="#878787" d="M224.501,140.646v2.68h2.196v0.911h-2.196v6.535c-0.048,0.491,0.075,0.983,0.349,1.393
	c0.237,0.267,0.579,0.413,0.937,0.402h0.402h0.457l0.159,0.83l-0.562,0.188H225.6c-0.618,0.028-1.217-0.217-1.634-0.671
	c-0.444-0.612-0.653-1.363-0.589-2.116v-6.536h-1.742v-1.098h1.742v-2.679h1.124V140.646z"/>
<path fill="#878787" d="M410.381,140.646v2.68h2.196v0.911h-2.196v6.535c-0.048,0.491,0.075,0.983,0.349,1.393
	c0.237,0.267,0.579,0.413,0.937,0.402h0.402h0.457l0.159,0.83l-0.562,0.188h-0.642c-0.618,0.028-1.217-0.217-1.634-0.671
	c-0.444-0.612-0.653-1.363-0.589-2.116v-6.536h-1.742v-1.098h1.742v-2.679h1.124V140.646z"/>
<path fill="#878787" d="M230.876,140.324h-1.098v-1.553h1.098V140.324z M230.876,153.235h-1.098v-10.071h1.098v10.019V153.235z"/>
<path fill="#878787" d="M238.591,153.424c-1.206,0.041-2.365-0.46-3.161-1.367c-0.83-0.986-1.26-2.246-1.206-3.535v-0.509
	c-0.04-1.307,0.398-2.583,1.233-3.589c0.748-0.913,1.874-1.435,3.054-1.419c1.068-0.057,2.104,0.377,2.813,1.179
	c0.702,0.898,1.054,2.021,0.991,3.16v0.857h-6.991v0.321c-0.04,1.015,0.261,2.016,0.855,2.839c0.563,0.744,1.455,1.165,2.386,1.125
	c0.576,0.008,1.147-0.093,1.686-0.295c0.479-0.175,0.917-0.45,1.285-0.804l0.483,0.752c-0.396,0.394-0.872,0.704-1.392,0.911
	C239.979,153.305,239.288,153.432,238.591,153.424z M238.591,143.968c-0.806-0.031-1.584,0.303-2.117,0.911
	c-0.565,0.651-0.904,1.468-0.964,2.331l0,0h5.758v-0.243c0.034-0.79-0.212-1.568-0.695-2.196c-0.543-0.615-1.358-0.917-2.171-0.803
	H238.591z"/>
<path fill="#878787" d="M249.814,144.156h-0.777c-0.625-0.023-1.235,0.186-1.715,0.589c-0.473,0.428-0.806,0.989-0.965,1.607v6.911
	h-1.124v-10.098h0.965l0.134,1.661l0,0c0.259-0.578,0.665-1.077,1.176-1.447c0.513-0.35,1.122-0.528,1.742-0.51h0.375h0.295
	L249.814,144.156z"/>
<path fill="#878787" d="M258.467,150.665c-0.005-0.478-0.219-0.929-0.59-1.232c-0.615-0.45-1.333-0.744-2.089-0.857
	c-0.954-0.148-1.867-0.495-2.678-1.017c-0.567-0.419-0.889-1.092-0.857-1.795c-0.005-0.767,0.353-1.491,0.964-1.955
	c0.763-0.589,1.717-0.874,2.679-0.803c0.965-0.048,1.919,0.258,2.679,0.856c0.643,0.497,1.004,1.278,0.963,2.089l0,0h-1.124
	c0-0.563-0.257-1.095-0.696-1.447c-0.525-0.436-1.196-0.656-1.875-0.615c-0.653-0.05-1.301,0.141-1.821,0.536
	c-0.385,0.295-0.611,0.75-0.617,1.232c-0.006,0.437,0.192,0.853,0.537,1.125c0.628,0.418,1.341,0.692,2.087,0.804
	c0.963,0.168,1.876,0.544,2.68,1.097c0.593,0.438,0.931,1.139,0.911,1.876c0.014,0.804-0.368,1.564-1.017,2.035
	c-0.782,0.551-1.725,0.824-2.68,0.778c-1.031,0.054-2.046-0.259-2.866-0.885c-0.656-0.488-1.028-1.271-0.992-2.089l0,0h1.02
	c-0.007,0.647,0.328,1.248,0.883,1.581c0.587,0.334,1.254,0.501,1.929,0.482c0.676,0.041,1.346-0.149,1.901-0.535
	C258.207,151.634,258.456,151.166,258.467,150.665z"/>
<path fill="#878787" d="M276.334,148.522c0.067,1.275-0.291,2.538-1.02,3.589c-0.631,0.844-1.624,1.339-2.678,1.339
	c-0.639,0.015-1.272-0.124-1.849-0.401c-0.518-0.259-0.961-0.647-1.285-1.125v5.196h-1.124v-13.956h0.856l0.216,1.555
	c0.311-0.534,0.752-0.977,1.285-1.287c0.573-0.315,1.221-0.472,1.874-0.455c1.125-0.034,2.187,0.513,2.814,1.447
	c0.728,1.14,1.083,2.479,1.017,3.83v0.268H276.334z M275.207,148.334c0.05-1.086-0.211-2.163-0.75-3.108
	c-0.463-0.78-1.316-1.243-2.223-1.205c-0.64-0.025-1.272,0.163-1.794,0.535c-0.472,0.353-0.841,0.824-1.072,1.367v4.848
	c0.24,0.524,0.62,0.97,1.099,1.285c0.531,0.322,1.146,0.48,1.767,0.457c0.882,0.049,1.726-0.368,2.223-1.099
	c0.539-0.864,0.802-1.874,0.75-2.892V148.334L275.207,148.334z"/>
<path fill="#878787" d="M278.959,148.066c-0.062-1.322,0.367-2.619,1.204-3.643c1.633-1.776,4.395-1.892,6.171-0.26
	c0.091,0.083,0.177,0.17,0.259,0.26c0.838,1.024,1.267,2.321,1.206,3.643v0.294c0.061,1.322-0.368,2.62-1.206,3.643
	c-1.624,1.783-4.385,1.912-6.168,0.29c-0.1-0.093-0.197-0.188-0.287-0.29c-0.837-1.023-1.266-2.321-1.205-3.643v-0.294H278.959z
	 M280.083,148.361c-0.033,1.045,0.277,2.07,0.885,2.919c1.055,1.355,3.007,1.597,4.36,0.542c0.201-0.158,0.384-0.34,0.542-0.542
	c0.606-0.849,0.917-1.875,0.883-2.919v-0.294c0.032-1.045-0.277-2.069-0.883-2.921c-1.065-1.346-3.019-1.574-4.365-0.511
	c-0.188,0.151-0.361,0.322-0.51,0.511c-0.605,0.852-0.916,1.878-0.886,2.921v0.294H280.083z"/>
<path fill="#878787" d="M297.523,151.603c-0.299,0.557-0.743,1.02-1.285,1.339c-0.589,0.33-1.256,0.497-1.93,0.483
	c-0.952,0.052-1.874-0.345-2.491-1.072c-0.672-0.98-0.986-2.163-0.884-3.348v-5.84h1.124v5.84c-0.091,0.936,0.125,1.876,0.618,2.678
	c0.425,0.538,1.083,0.838,1.766,0.804c0.714,0.04,1.421-0.159,2.011-0.562c0.5-0.385,0.868-0.92,1.045-1.527v-7.232h1.124v10.019
	h-1.097V151.603z"/>
<path fill="#878787" d="M306.816,144.156h-0.777c-0.625-0.023-1.235,0.186-1.715,0.589c-0.472,0.428-0.806,0.989-0.963,1.607v6.911
	h-1.124v-10.098h0.962l0.135,1.661l0,0c0.259-0.578,0.665-1.077,1.179-1.447c0.511-0.35,1.122-0.528,1.742-0.51h0.375h0.295
	L306.816,144.156z"/>
<path fill="#878787" d="M316.112,153.235h-1.097v-14.464h1.097V153.235z"/>
<path fill="#878787" d="M323.745,153.424c-1.204,0.041-2.364-0.46-3.159-1.367c-0.831-0.986-1.26-2.246-1.208-3.535v-0.509
	c-0.039-1.307,0.4-2.583,1.235-3.589c0.747-0.913,1.871-1.435,3.052-1.419c1.07-0.057,2.105,0.377,2.814,1.179
	c0.702,0.898,1.054,2.021,0.99,3.16v0.857h-6.993v0.321c-0.036,1.015,0.263,2.016,0.858,2.839c0.561,0.744,1.453,1.165,2.385,1.125
	c0.577,0.008,1.147-0.093,1.687-0.295c0.477-0.175,0.915-0.45,1.285-0.804l0.482,0.752c-0.397,0.394-0.872,0.704-1.392,0.911
	C325.135,153.305,324.442,153.432,323.745,153.424z M323.745,143.968c-0.806-0.031-1.583,0.303-2.114,0.911
	c-0.568,0.651-0.906,1.468-0.965,2.331l0,0h5.759v-0.243c0.032-0.79-0.213-1.568-0.695-2.196c-0.527-0.59-1.306-0.89-2.089-0.803
	H323.745z"/>
<path fill="#878787" d="M343.917,148.522c0.066,1.275-0.293,2.538-1.017,3.589c-0.634,0.844-1.626,1.339-2.678,1.339
	c-0.663,0.015-1.32-0.143-1.903-0.455c-0.543-0.295-0.995-0.729-1.313-1.258l-0.189,1.499h-0.99v-14.464h1.126v5.974
	c0.64-1.114,1.849-1.775,3.132-1.714c1.135-0.045,2.207,0.503,2.841,1.444c0.727,1.14,1.086,2.48,1.015,3.831v0.215H343.917z
	 M342.793,148.334c0.041-1.086-0.218-2.161-0.749-3.108c-0.452-0.78-1.299-1.246-2.199-1.205c-0.661-0.031-1.315,0.168-1.849,0.562
	c-0.47,0.382-0.831,0.881-1.042,1.447v4.58c0.468,1.188,1.642,1.942,2.918,1.876c0.87,0.057,1.706-0.351,2.196-1.072
	c0.527-0.869,0.779-1.877,0.724-2.892V148.334z"/>
<path fill="#878787" d="M353.508,153.235c0-0.347,0-0.643-0.163-0.911c-0.016-0.258-0.016-0.518,0-0.777
	c-0.363,0.559-0.858,1.019-1.444,1.34c-0.654,0.363-1.394,0.55-2.144,0.536c-0.831,0.05-1.649-0.228-2.276-0.777
	c-0.554-0.561-0.845-1.329-0.804-2.117c0.016-0.872,0.457-1.681,1.179-2.17c0.906-0.587,1.974-0.878,3.052-0.83h2.466V146.3
	c0.032-0.634-0.211-1.251-0.672-1.689c-0.536-0.45-1.229-0.671-1.928-0.617c-0.663-0.032-1.315,0.168-1.846,0.563
	c-0.443,0.325-0.702,0.844-0.697,1.392h-1.02l0,0c-0.02-0.778,0.341-1.519,0.968-1.982c0.761-0.597,1.71-0.9,2.678-0.857
	c0.965-0.059,1.917,0.236,2.678,0.831c0.681,0.609,1.045,1.497,0.99,2.41v4.849c-0.018,0.338-0.018,0.679,0,1.017
	c0.036,0.336,0.1,0.667,0.189,0.993h-1.204V153.235z M349.811,152.459c0.784,0.018,1.56-0.195,2.223-0.615
	c0.581-0.362,1.024-0.91,1.258-1.553v-1.929h-2.464c-0.79-0.029-1.569,0.196-2.224,0.644c-0.538,0.334-0.872,0.919-0.883,1.553
	c-0.018,0.516,0.186,1.013,0.563,1.366C348.707,152.291,349.252,152.481,349.811,152.459L349.811,152.459z M353.292,141.209v0.161
	h-1.045l-1.553-1.554l-1.526,1.554h-1.017v-0.188l2.117-2.035h0.831L353.292,141.209z"/>
<path fill="#878787" d="M359.855,140.646v2.68h2.196v0.911h-2.196v6.535c-0.048,0.491,0.075,0.983,0.348,1.393
	c0.238,0.267,0.581,0.413,0.94,0.402h0.4h0.454l0.161,0.83l-0.561,0.188h-0.645c-0.615,0.028-1.215-0.217-1.633-0.671
	c-0.443-0.612-0.652-1.363-0.59-2.116v-6.536h-1.74v-1.098h1.74v-2.679h1.126V140.646z"/>
<path fill="#878787" d="M366.231,140.324h-1.097v-1.553h1.097V140.324z M366.231,153.235h-1.097v-10.071h1.097v10.019V153.235z"/>
<path fill="#878787" d="M371,143.164v1.661c0.302-0.553,0.745-1.015,1.285-1.34c0.575-0.333,1.233-0.5,1.901-0.482
	c0.686-0.024,1.363,0.173,1.928,0.561c0.547,0.422,0.933,1.017,1.099,1.69c0.27-0.654,0.715-1.219,1.288-1.634
	c0.597-0.408,1.308-0.614,2.035-0.589c0.94-0.048,1.853,0.347,2.464,1.07c0.659,0.966,0.972,2.129,0.883,3.295v5.839h-1.127v-5.866
	c0.1-0.944-0.138-1.892-0.67-2.678c-0.457-0.523-1.127-0.81-1.819-0.778c-0.736-0.042-1.451,0.242-1.958,0.778
	c-0.486,0.568-0.793,1.267-0.883,2.008c0,0,0,0.134,0,0.216c0,0.08,0,0.16,0,0.268v6.027h-1.124v-5.867
	c0.1-0.944-0.139-1.893-0.67-2.679c-0.454-0.527-1.127-0.813-1.821-0.777c-0.668-0.041-1.329,0.169-1.849,0.588
	c-0.472,0.42-0.808,0.97-0.963,1.581v7.072h-1.126v-9.964h0.992H371z"/>
<path fill="#878787" d="M391.465,153.424c-1.206,0.041-2.366-0.46-3.161-1.367c-0.831-0.986-1.26-2.246-1.206-3.535v-0.509
	c-0.041-1.307,0.397-2.583,1.231-3.589c0.749-0.913,1.874-1.435,3.055-1.419c1.07-0.057,2.103,0.377,2.814,1.179
	c0.7,0.898,1.054,2.021,0.99,3.16v0.857h-6.99v0.321c-0.039,1.015,0.261,2.016,0.856,2.839c0.563,0.744,1.453,1.165,2.385,1.125
	c0.575,0.008,1.149-0.093,1.687-0.295c0.479-0.175,0.917-0.45,1.285-0.804l0.482,0.752c-0.397,0.394-0.87,0.704-1.392,0.911
	C392.852,153.305,392.162,153.432,391.465,153.424z M391.465,143.968c-0.809-0.031-1.585,0.303-2.117,0.911
	c-0.565,0.651-0.904,1.468-0.963,2.331l0,0h5.571v-0.243c0.032-0.79-0.216-1.568-0.697-2.196c-0.502-0.559-1.233-0.855-1.983-0.803
	H391.465z"/>
<path fill="#878787" d="M399.15,143.164v1.741c0.304-0.581,0.756-1.072,1.315-1.419c0.581-0.347,1.249-0.523,1.928-0.509
	c0.938-0.068,1.855,0.297,2.491,0.991c0.643,0.903,0.945,2.002,0.856,3.107v6.108h-1.072v-6.108
	c0.084-0.863-0.145-1.727-0.643-2.438c-0.472-0.493-1.138-0.757-1.819-0.723c-0.686-0.027-1.356,0.181-1.903,0.589
	c-0.491,0.406-0.854,0.947-1.045,1.553v7.099h-1.126v-9.992h0.992H399.15z"/>
<linearGradient id="SVGID_6_" gradientUnits="userSpaceOnUse" x1="201.3978" y1="80.3723" x2="201.3978" y2="100.2522">
	<stop  offset="0" style="stop-color:#F3C51B"/>
	<stop  offset="1" style="stop-color:#ED7E00"/>
</linearGradient>
<path fill="url(#SVGID_6_)" d="M208.081,94.144c0.025,0.925-0.168,1.842-0.562,2.679c-0.371,0.748-0.914,1.4-1.582,1.902
	c-0.731,0.535-1.558,0.926-2.437,1.151c-0.997,0.262-2.023,0.387-3.055,0.375c-0.629-0.005-1.255-0.057-1.876-0.161
	c-0.543-0.086-1.079-0.212-1.606-0.375c-0.404-0.123-0.797-0.274-1.179-0.456c-0.254-0.118-0.488-0.27-0.697-0.455
	c-0.161-0.182-0.273-0.404-0.32-0.643c-0.055-0.436-0.055-0.877,0-1.313c-0.018-0.303-0.018-0.607,0-0.911
	c-0.025-0.186-0.025-0.375,0-0.563c0.032-0.107,0.098-0.201,0.187-0.267c0.097-0.026,0.198-0.026,0.294,0
	c0.229,0.028,0.45,0.111,0.643,0.241l1.072,0.536c0.477,0.222,0.97,0.409,1.473,0.563c0.619,0.182,1.257,0.273,1.903,0.267
	c0.405,0.008,0.81-0.036,1.205-0.133c0.325-0.082,0.633-0.217,0.911-0.402c0.25-0.158,0.453-0.381,0.588-0.643
	c0.134-0.285,0.198-0.597,0.188-0.911c0.002-0.374-0.129-0.737-0.375-1.018c-0.271-0.309-0.6-0.564-0.965-0.751
	c-0.441-0.227-0.898-0.423-1.365-0.589l-1.555-0.615c-0.534-0.227-1.053-0.487-1.553-0.777c-0.505-0.288-0.966-0.649-1.366-1.071
	c-0.416-0.442-0.743-0.961-0.965-1.527c-0.263-0.683-0.391-1.411-0.375-2.143c-0.016-0.803,0.15-1.599,0.483-2.33
	c0.326-0.709,0.812-1.331,1.419-1.822c0.677-0.534,1.45-0.935,2.277-1.178c0.975-0.284,1.986-0.42,3-0.403
	c0.536-0.04,1.074-0.04,1.608,0c0.479,0.069,0.953,0.168,1.419,0.295c0.368,0.096,0.726,0.221,1.072,0.375
	c0.216,0.097,0.422,0.213,0.615,0.349c0.109,0.08,0.2,0.179,0.268,0.295c0.018,0.115,0.018,0.233,0,0.347
	c0.008,0.17,0.008,0.34,0,0.51c0,0.214,0,0.455,0,0.749c0,0.295,0,0.643,0,0.884c0.02,0.178,0.02,0.357,0,0.536
	c-0.027,0.108-0.094,0.205-0.188,0.268c-0.086,0.023-0.179,0.023-0.268,0c-0.2-0.028-0.393-0.102-0.562-0.215l-0.937-0.456
	c-0.382-0.055-0.768-0.091-1.151-0.106c-0.552-0.149-1.119-0.221-1.687-0.215c-0.39-0.007-0.777,0.037-1.154,0.134
	c-0.291,0.077-0.565,0.214-0.802,0.401c-0.207,0.164-0.372,0.375-0.484,0.617c-0.107,0.235-0.163,0.491-0.159,0.749
	c-0.009,0.375,0.124,0.739,0.375,1.018c0.284,0.298,0.619,0.543,0.99,0.724c0.452,0.226,0.918,0.423,1.392,0.589l1.582,0.615
	c0.542,0.218,1.071,0.468,1.58,0.751c0.515,0.286,0.984,0.647,1.393,1.071c0.419,0.435,0.755,0.943,0.991,1.499
	C208.005,92.817,208.103,93.48,208.081,94.144z"/>
<linearGradient id="SVGID_7_" gradientUnits="userSpaceOnUse" x1="222.5458" y1="80.3727" x2="222.5458" y2="100.2548">
	<stop  offset="0" style="stop-color:#F3C51B"/>
	<stop  offset="1" style="stop-color:#ED7E00"/>
</linearGradient>
<path fill="url(#SVGID_7_)" d="M232.002,90.125c0.018,1.398-0.181,2.79-0.59,4.126c-0.361,1.187-0.973,2.284-1.796,3.215
	c-0.836,0.911-1.871,1.616-3.025,2.061c-1.36,0.513-2.807,0.758-4.258,0.724c-1.396,0.033-2.783-0.183-4.099-0.643
	c-1.102-0.396-2.094-1.049-2.893-1.903c-0.786-0.877-1.363-1.921-1.687-3.053c-0.393-1.349-0.581-2.749-0.562-4.153
	c-0.011-1.398,0.196-2.789,0.617-4.124c0.368-1.191,0.989-2.287,1.819-3.215c0.838-0.911,1.874-1.617,3.029-2.063
	c1.352-0.509,2.788-0.755,4.232-0.723c1.394-0.028,2.78,0.19,4.099,0.643c1.091,0.384,2.076,1.028,2.866,1.875
	c0.779,0.882,1.355,1.925,1.687,3.054C231.83,87.305,232.019,88.714,232.002,90.125z M226.885,90.314
	c0.002-0.808-0.068-1.616-0.215-2.412c-0.115-0.671-0.351-1.314-0.698-1.901c-0.319-0.525-0.772-0.96-1.312-1.258
	c-0.656-0.355-1.397-0.531-2.143-0.509c-0.665-0.016-1.324,0.122-1.928,0.402c-0.552,0.265-1.023,0.671-1.367,1.179
	c-0.377,0.572-0.652,1.207-0.803,1.875c-0.186,0.817-0.276,1.653-0.268,2.49c-0.007,0.809,0.065,1.617,0.215,2.412
	c0.12,0.668,0.359,1.311,0.697,1.901c0.312,0.533,0.765,0.969,1.31,1.259c0.64,0.32,1.349,0.476,2.064,0.455
	c0.673,0.017,1.342-0.12,1.954-0.401c0.551-0.269,1.021-0.676,1.366-1.179c0.377-0.57,0.64-1.207,0.778-1.875
	c0.204-0.789,0.321-1.597,0.349-2.411V90.314z"/>
<linearGradient id="SVGID_8_" gradientUnits="userSpaceOnUse" x1="248.4078" y1="72.2314" x2="248.4078" y2="100.2016">
	<stop  offset="0" style="stop-color:#F3C51B"/>
	<stop  offset="1" style="stop-color:#ED7E00"/>
</linearGradient>
<path fill="url(#SVGID_8_)" d="M244.215,84.849v14.277c0.04,0.113,0.04,0.236,0,0.349c-0.109,0.116-0.246,0.198-0.401,0.241
	c-0.252,0.083-0.512,0.138-0.777,0.16h-1.206h-1.205c-0.265-0.024-0.523-0.079-0.776-0.16c-0.157-0.039-0.296-0.123-0.403-0.241
	c-0.037-0.113-0.037-0.235,0-0.349V84.849h-2.223c-0.267-0.015-0.493-0.198-0.562-0.456c-0.152-0.504-0.216-1.029-0.188-1.553
	c-0.018-0.323-0.018-0.644,0-0.965c0.023-0.21,0.068-0.417,0.134-0.617c0.045-0.129,0.131-0.24,0.243-0.32
	c0.114-0.033,0.234-0.033,0.346,0h2.197v-1.474c-0.018-1.063,0.099-2.125,0.348-3.16c0.196-0.822,0.572-1.589,1.098-2.25
	c0.514-0.614,1.179-1.085,1.929-1.365c0.859-0.312,1.766-0.467,2.679-0.457c0.512-0.004,1.023,0.041,1.527,0.135
	c0.373,0.055,0.74,0.145,1.098,0.268c0.174,0.062,0.337,0.152,0.483,0.268c0.1,0.106,0.173,0.233,0.212,0.375
	c0.025,0.212,0.025,0.429,0,0.643c0,0.267,0,0.59,0,0.964c0.017,0.303,0.017,0.606,0,0.91c0.026,0.178,0.026,0.359,0,0.537
	c-0.035,0.105-0.099,0.198-0.186,0.267h-0.215h-0.294l-0.429-0.161l-0.562-0.16c-0.259-0.027-0.52-0.027-0.777,0
	c-0.311-0.01-0.622,0.045-0.911,0.16c-0.263,0.111-0.486,0.297-0.643,0.537c-0.184,0.286-0.311,0.603-0.376,0.937
	c-0.049,0.472-0.049,0.948,0,1.419v1.634h6.671v-3.937c-0.036-0.114-0.036-0.235,0-0.348c0.107-0.124,0.245-0.216,0.402-0.268
	c0.241-0.085,0.493-0.14,0.749-0.161h1.205h1.205c0.255,0.023,0.509,0.077,0.749,0.161c0.157,0.053,0.295,0.145,0.403,0.268
	c0.035,0.113,0.035,0.234,0,0.348v3.937h3.83c0.113-0.034,0.235-0.034,0.347,0c0.11,0.083,0.194,0.194,0.243,0.321
	c0.079,0.198,0.134,0.405,0.159,0.617c0.019,0.321,0.019,0.642,0,0.964c0.034,0.526-0.03,1.052-0.186,1.553
	c-0.07,0.258-0.297,0.442-0.563,0.455h-3.859v8.278c-0.043,0.75,0.114,1.5,0.457,2.169c0.372,0.519,0.999,0.795,1.634,0.723h0.723
	l0.563-0.161l0.402-0.161h0.32h0.215c0.078,0.072,0.135,0.165,0.16,0.268c0.018,0.187,0.018,0.375,0,0.563
	c0.02,0.304,0.02,0.608,0,0.911c0.048,0.444,0.048,0.894,0,1.339c-0.038,0.237-0.139,0.46-0.294,0.643
	c-0.159,0.137-0.34,0.245-0.535,0.321c-0.26,0.113-0.529,0.204-0.804,0.268l-0.991,0.161h-1.098
	c-0.909,0.027-1.814-0.099-2.68-0.375c-0.686-0.225-1.304-0.622-1.794-1.151c-0.495-0.563-0.854-1.232-1.045-1.955
	c-0.232-0.874-0.349-1.775-0.347-2.679V85.01h-6.403V84.849z"/>
<linearGradient id="SVGID_9_" gradientUnits="userSpaceOnUse" x1="279.0433" y1="80.9444" x2="279.0433" y2="100.0907">
	<stop  offset="0" style="stop-color:#F3C51B"/>
	<stop  offset="1" style="stop-color:#ED7E00"/>
</linearGradient>
<path fill="url(#SVGID_9_)" d="M293.343,81.555c0.015,0.178,0.015,0.357,0,0.535c0,0.215,0,0.509-0.215,0.911l-4.715,16.072
	c-0.055,0.193-0.145,0.375-0.268,0.535c-0.125,0.15-0.294,0.262-0.482,0.321c-0.304,0.095-0.62,0.149-0.938,0.161h-1.58h-1.582
	c-0.327-0.015-0.65-0.07-0.963-0.161c-0.198-0.053-0.377-0.165-0.509-0.321c-0.117-0.16-0.199-0.343-0.242-0.535l-2.974-10.715l0,0
	l-2.68,10.715c-0.044,0.192-0.125,0.373-0.238,0.535c-0.132,0.159-0.311,0.271-0.51,0.321c-0.312,0.093-0.637,0.147-0.964,0.161
	h-1.582h-1.578c-0.319-0.018-0.633-0.071-0.938-0.161c-0.199-0.055-0.376-0.166-0.51-0.321c-0.116-0.16-0.198-0.343-0.241-0.535
	l-4.66-16.072c-0.093-0.299-0.165-0.603-0.216-0.911c-0.011-0.178-0.011-0.357,0-0.535c-0.037-0.114-0.037-0.236,0-0.348
	c0.104-0.123,0.245-0.208,0.404-0.242c0.257-0.027,0.518-0.027,0.776,0h2.491c0.263,0.011,0.525,0.057,0.777,0.134
	c0.15,0.048,0.28,0.142,0.375,0.268c0.075,0.124,0.128,0.26,0.16,0.402l3.509,12.938l0,0l3.295-12.938
	c0.034-0.146,0.098-0.283,0.189-0.402c0.098-0.123,0.227-0.215,0.375-0.268c0.232-0.078,0.476-0.123,0.722-0.134h1.206h1.179
	l0.723,0.134c0.147,0.04,0.277,0.125,0.376,0.241c0.07,0.106,0.125,0.224,0.16,0.348l3.509,13.045v0.215v-0.241l3.376-12.938
	c0.022-0.145,0.075-0.282,0.159-0.402c0.104-0.128,0.243-0.222,0.402-0.268c0.244-0.075,0.495-0.12,0.752-0.134h2.489
	c0.242-0.026,0.484-0.026,0.724,0c0.149,0.037,0.279,0.122,0.376,0.242C293.325,81.311,293.353,81.432,293.343,81.555z"/>
<linearGradient id="SVGID_10_" gradientUnits="userSpaceOnUse" x1="305.4904" y1="80.3476" x2="305.4904" y2="100.2795">
	<stop  offset="0" style="stop-color:#F3C51B"/>
	<stop  offset="1" style="stop-color:#ED7E00"/>
</linearGradient>
<path fill="url(#SVGID_10_)" d="M313.593,99.207c0.007,0.163-0.061,0.321-0.186,0.428c-0.186,0.12-0.397,0.194-0.615,0.215
	c-0.42,0.032-0.84,0.032-1.26,0c-0.429,0.033-0.856,0.033-1.285,0c-0.211-0.015-0.418-0.089-0.59-0.215
	c-0.111-0.113-0.17-0.27-0.159-0.428v-1.393c-0.706,0.762-1.553,1.381-2.491,1.821c-0.968,0.44-2.019,0.659-3.082,0.643
	c-0.906,0.016-1.81-0.112-2.678-0.375c-0.745-0.226-1.439-0.598-2.036-1.097c-0.578-0.488-1.038-1.102-1.339-1.795
	c-0.334-0.787-0.499-1.636-0.483-2.491c-0.017-0.93,0.194-1.85,0.615-2.679c0.419-0.774,1.039-1.422,1.795-1.874
	c0.918-0.542,1.926-0.913,2.973-1.099c1.36-0.249,2.743-0.367,4.127-0.348h1.712v-1.071c0.011-0.487-0.043-0.973-0.159-1.447
	c-0.1-0.39-0.291-0.748-0.563-1.044c-0.279-0.292-0.631-0.505-1.017-0.617c-0.515-0.137-1.047-0.201-1.581-0.187
	c-0.749-0.013-1.497,0.078-2.223,0.268c-0.595,0.163-1.176,0.369-1.741,0.616l-1.259,0.616c-0.252,0.154-0.535,0.246-0.831,0.268
	c-0.136,0-0.27-0.047-0.375-0.134c-0.12-0.111-0.211-0.249-0.268-0.401c-0.08-0.207-0.134-0.424-0.16-0.643
	c-0.022-0.277-0.022-0.554,0-0.831c-0.041-0.32-0.041-0.644,0-0.964c0.069-0.242,0.199-0.463,0.375-0.643
	c0.284-0.265,0.61-0.483,0.964-0.643c0.527-0.258,1.073-0.473,1.635-0.643c0.665-0.208,1.346-0.369,2.035-0.483
	c1.933-0.31,3.909-0.237,5.814,0.214c0.888,0.221,1.71,0.643,2.41,1.233c0.652,0.583,1.133,1.334,1.392,2.169
	c0.307,1.017,0.452,2.074,0.429,3.134v11.867L313.593,99.207z M308.72,91.653h-1.903c-0.693-0.009-1.383,0.054-2.062,0.187
	c-0.495,0.088-0.967,0.27-1.392,0.537c-0.332,0.211-0.602,0.506-0.778,0.857c-0.165,0.361-0.248,0.755-0.241,1.151
	c-0.035,0.654,0.218,1.292,0.696,1.741c0.54,0.467,1.242,0.698,1.955,0.643c0.679,0.005,1.349-0.181,1.93-0.536
	c0.67-0.425,1.276-0.949,1.794-1.553v-3V91.653z"/>
<linearGradient id="SVGID_11_" gradientUnits="userSpaceOnUse" x1="326.6837" y1="80.4021" x2="326.6837" y2="99.85">
	<stop  offset="0" style="stop-color:#F3C51B"/>
	<stop  offset="1" style="stop-color:#ED7E00"/>
</linearGradient>
<path fill="url(#SVGID_11_)" d="M332.103,83.134c0,0.483,0,0.857,0,1.152c0.025,0.241,0.025,0.484,0,0.723
	c-0.032,0.136-0.107,0.257-0.214,0.349c-0.104,0.034-0.218,0.034-0.32,0h-0.35l-0.454-0.161l-0.536-0.161h-0.645
	c-0.282-0.001-0.565,0.054-0.829,0.161c-0.309,0.129-0.597,0.3-0.856,0.51c-0.345,0.279-0.659,0.593-0.938,0.937
	c-0.377,0.47-0.727,0.962-1.045,1.473v10.983c0.039,0.113,0.039,0.236,0,0.349c-0.109,0.115-0.248,0.198-0.402,0.241
	c-0.243,0.081-0.495,0.135-0.749,0.161h-1.206h-1.206c-0.254-0.026-0.507-0.08-0.75-0.161c-0.154-0.043-0.291-0.126-0.402-0.241
	c-0.039-0.114-0.039-0.236,0-0.349V81.555c-0.034-0.114-0.034-0.236,0-0.348c0.091-0.115,0.211-0.198,0.348-0.242
	c0.216-0.081,0.443-0.135,0.67-0.16h1.02h1.042c0.223,0.023,0.438,0.077,0.645,0.16c0.127,0.049,0.238,0.133,0.32,0.242
	c0.034,0.112,0.034,0.234,0,0.348v2.197c0.397-0.576,0.836-1.122,1.313-1.634c0.357-0.38,0.749-0.721,1.179-1.019
	c0.334-0.238,0.704-0.418,1.097-0.535c0.359-0.102,0.727-0.156,1.099-0.161h0.563h0.615l0.561,0.161
	c0.127,0.04,0.248,0.103,0.35,0.187c0.068,0.06,0.123,0.134,0.161,0.215c0.011,0.107,0.011,0.215,0,0.321
	c0.014,0.205,0.014,0.411,0,0.617C332.103,82.304,332.103,82.679,332.103,83.134z"/>
<linearGradient id="SVGID_12_" gradientUnits="userSpaceOnUse" x1="344.8006" y1="80.2922" x2="344.8006" y2="100.2005">
	<stop  offset="0" style="stop-color:#F3C51B"/>
	<stop  offset="1" style="stop-color:#ED7E00"/>
</linearGradient>
<path fill="url(#SVGID_12_)" d="M353.344,89.805c0.039,0.481-0.102,0.959-0.4,1.339c-0.298,0.297-0.706,0.453-1.124,0.429h-10.717
	c-0.007,0.688,0.084,1.374,0.27,2.036c0.161,0.577,0.454,1.109,0.856,1.553c0.411,0.448,0.927,0.789,1.501,0.991
	c0.706,0.233,1.451,0.341,2.194,0.321c0.774,0.01,1.544-0.053,2.305-0.187c0.579-0.109,1.151-0.251,1.715-0.429l1.204-0.402
	c0.248-0.11,0.511-0.173,0.779-0.187c0.095-0.025,0.198-0.025,0.293,0c0.084,0.06,0.15,0.143,0.189,0.24
	c0.025,0.169,0.025,0.341,0,0.509c0,0.213,0,0.483,0,0.83c0,0.349,0,0.536,0,0.751c0.011,0.178,0.011,0.357,0,0.535
	c0.018,0.124,0.018,0.251,0,0.375c-0.057,0.107-0.129,0.207-0.214,0.295c-0.211,0.162-0.445,0.288-0.697,0.375
	c-0.481,0.186-0.972,0.337-1.474,0.455c-0.67,0.17-1.349,0.303-2.035,0.402c-0.818,0.113-1.642,0.167-2.464,0.161
	c-1.399,0.027-2.791-0.173-4.127-0.589c-1.111-0.356-2.121-0.971-2.946-1.795c-0.824-0.862-1.431-1.909-1.767-3.054
	c-0.416-1.399-0.615-2.854-0.59-4.312c-0.018-1.435,0.193-2.863,0.615-4.233c0.359-1.183,0.963-2.278,1.769-3.214
	c0.779-0.878,1.751-1.567,2.839-2.009c1.199-0.48,2.485-0.717,3.775-0.695c1.292-0.036,2.573,0.183,3.779,0.643
	c1.027,0.382,1.946,1.007,2.678,1.821c0.677,0.779,1.179,1.691,1.474,2.679c0.327,1.113,0.488,2.268,0.484,3.428v0.777
	L353.344,89.805z M348.525,88.385c0.104-1.16-0.189-2.323-0.831-3.295c-0.649-0.806-1.644-1.255-2.68-1.205
	c-0.572-0.019-1.142,0.101-1.66,0.349c-0.461,0.227-0.865,0.556-1.179,0.963c-0.325,0.426-0.57,0.907-0.722,1.42
	c-0.17,0.566-0.268,1.151-0.295,1.741h7.258L348.525,88.385z"/>
<radialGradient id="SVGID_13_" cx="-923.2896" cy="-19.1274" r="26.2373" gradientTransform="matrix(3.0957 0 0 -0.3446 2939.3633 170.2557)" gradientUnits="userSpaceOnUse">
	<stop  offset="0" style="stop-color:#DADADA"/>
	<stop  offset="0.9902" style="stop-color:#FFFFFF"/>
	<stop  offset="1" style="stop-color:#FFFFFF"/>
</radialGradient>
<path fill="url(#SVGID_13_)" d="M162.271,176.847c0,4.977-36.331,9.03-81.125,9.03c-44.815,0-81.146-4.053-81.146-9.03
	c0-4.998,36.331-9.03,81.146-9.03C125.96,167.816,162.271,171.869,162.271,176.847z"/>
</svg>
