<?xml version="1.0" encoding="utf-8"?>
<!-- Generator: Adobe Illustrator 25.0.1, SVG Export Plug-In . SVG Version: 6.00 Build 0)  -->
<svg version="1.1" id="Calque_1" xmlns="http://www.w3.org/2000/svg" xmlns:xlink="http://www.w3.org/1999/xlink" x="0px" y="0px"
	 viewBox="0 0 407.948 186.12" enable-background="new 0 0 407.948 186.12" xml:space="preserve">
<radialGradient id="SVGID_1_" cx="-923.2896" cy="-19.1274" r="26.2373" gradientTransform="matrix(3.0957 0 0 -0.3446 2939.3633 170.2557)" gradientUnits="userSpaceOnUse">
	<stop  offset="0" style="stop-color:#DADADA"/>
	<stop  offset="0.9902" style="stop-color:#FFFFFF"/>
	<stop  offset="1" style="stop-color:#FFFFFF"/>
</radialGradient>
<path fill="url(#SVGID_1_)" d="M162.271,176.847c0,4.977-36.331,9.03-81.125,9.03c-44.815,0-81.146-4.053-81.146-9.03
	c0-4.998,36.331-9.03,81.146-9.03C125.96,167.816,162.271,171.869,162.271,176.847z"/>
<linearGradient id="SVGID_2_" gradientUnits="userSpaceOnUse" x1="-649.0815" y1="247.6347" x2="-649.0815" y2="247.6347" gradientTransform="matrix(2.1001 0 0 -2.1001 1549.619 661.6647)">
	<stop  offset="0" style="stop-color:#2DAAB9"/>
	<stop  offset="1" style="stop-color:#48BCC7"/>
</linearGradient>
<path fill="url(#SVGID_2_)" d="M186.483,141.607"/>
<linearGradient id="SVGID_3_" gradientUnits="userSpaceOnUse" x1="-648.0763" y1="264.0865" x2="-648.0763" y2="256.2966" gradientTransform="matrix(2.1001 0 0 -2.1001 1549.619 661.6647)">
	<stop  offset="0" style="stop-color:#4BC1F0"/>
	<stop  offset="0.5" style="stop-color:#229EDA"/>
	<stop  offset="1" style="stop-color:#148BCC"/>
</linearGradient>
<path fill="url(#SVGID_3_)" d="M188.626,118.948c-0.042-0.021-0.064,0-0.084,0.042l-0.042,0.147l0,0
	c0,0.042,0.021,0.084,0.062,0.084s0.084-0.021,0.084-0.063l0.042-0.148C188.668,118.99,188.647,118.97,188.626,118.948z"/>
<g>
	<path fill="#878787" d="M193.477,126.445c0-0.44-0.188-0.819-0.546-1.155c-0.357-0.336-1.008-0.588-1.953-0.798
		c-1.112-0.23-1.932-0.546-2.478-0.945c-0.546-0.398-0.819-0.966-0.819-1.68s0.294-1.323,0.903-1.827
		c0.608-0.504,1.407-0.734,2.393-0.734c1.051,0,1.891,0.272,2.499,0.798c0.631,0.524,0.925,1.176,0.903,1.953l-0.021,0.062h-0.967
		c0-0.524-0.231-0.966-0.672-1.344c-0.44-0.378-1.029-0.567-1.764-0.567c-0.756,0-1.323,0.168-1.701,0.504s-0.567,0.715-0.567,1.155
		c0,0.42,0.168,0.777,0.483,1.071c0.336,0.273,0.987,0.524,1.953,0.734c1.092,0.253,1.932,0.589,2.499,1.009
		c0.566,0.42,0.84,1.028,0.84,1.743c0,0.776-0.315,1.406-0.945,1.91c-0.63,0.483-1.47,0.735-2.52,0.735
		c-1.134,0-2.037-0.272-2.688-0.819c-0.65-0.546-0.966-1.196-0.924-1.952l0.021-0.042h0.944c0.042,0.672,0.315,1.176,0.819,1.47
		c0.504,0.294,1.113,0.462,1.806,0.462c0.756,0,1.345-0.168,1.785-0.504C193.267,127.327,193.477,126.907,193.477,126.445z"/>
	<path fill="#878787" d="M205.174,124.43c0,1.406-0.314,2.52-0.966,3.359c-0.63,0.841-1.512,1.261-2.625,1.261
		c-0.651,0-1.218-0.126-1.722-0.378s-0.903-0.609-1.219-1.051v4.852h-1.05v-12.999h0.84l0.19,1.47
		c0.315-0.525,0.714-0.924,1.218-1.218s1.071-0.42,1.743-0.42c1.134,0,2.017,0.44,2.646,1.344c0.63,0.903,0.966,2.1,0.966,3.591
		v0.189H205.174z M204.146,124.24c0-1.197-0.231-2.163-0.714-2.919s-1.177-1.134-2.079-1.134c-0.693,0-1.261,0.168-1.681,0.504
		c-0.44,0.336-0.776,0.756-0.987,1.281v4.536c0.253,0.504,0.589,0.902,1.029,1.196c0.441,0.294,1.008,0.441,1.659,0.441
		c0.903,0,1.596-0.336,2.058-1.029c0.463-0.692,0.715-1.596,0.715-2.709V124.24L204.146,124.24z"/>
	<path fill="#878787" d="M211.789,129.028c-1.218,0-2.205-0.44-2.961-1.281c-0.756-0.86-1.134-1.953-1.134-3.317v-0.483
		c0-1.344,0.378-2.478,1.154-3.339c0.757-0.882,1.723-1.323,2.857-1.323s2.016,0.358,2.646,1.092
		c0.63,0.735,0.924,1.723,0.924,2.961v0.799h-6.531v0.294c0,1.07,0.272,1.953,0.819,2.667c0.546,0.714,1.28,1.05,2.247,1.05
		c0.566,0,1.092-0.084,1.574-0.273c0.483-0.189,0.883-0.44,1.197-0.756l0.441,0.714c-0.336,0.337-0.756,0.631-1.302,0.861
		C213.175,128.924,212.524,129.028,211.789,129.028z M211.685,120.166c-0.799,0-1.449,0.294-1.975,0.861
		c-0.524,0.567-0.819,1.302-0.903,2.184l0.021,0.042h5.376v-0.21c0-0.84-0.21-1.512-0.651-2.058S212.503,120.166,211.685,120.166z
		 M212.797,115.483h1.281l0.021,0.042l-2.163,2.247h-0.925L212.797,115.483z"/>
	<path fill="#878787" d="M221.513,128.167c0.672,0,1.26-0.188,1.764-0.588c0.504-0.398,0.777-0.944,0.777-1.638h0.924l0.021,0.042
		c0.021,0.861-0.314,1.596-1.028,2.184c-0.714,0.589-1.533,0.883-2.457,0.883c-1.239,0-2.227-0.441-2.919-1.323
		c-0.693-0.882-1.051-1.995-1.051-3.381v-0.358c0-1.365,0.357-2.478,1.051-3.36c0.692-0.882,1.658-1.322,2.919-1.322
		c1.008,0,1.848,0.294,2.52,0.902c0.672,0.609,0.987,1.407,0.966,2.394l-0.021,0.062h-0.924c0-0.756-0.252-1.344-0.735-1.806
		c-0.483-0.441-1.092-0.672-1.806-0.672c-0.987,0-1.723,0.356-2.185,1.092c-0.462,0.735-0.714,1.638-0.714,2.709v0.358
		c0,1.112,0.231,2.016,0.714,2.729C219.79,127.789,220.525,128.167,221.513,128.167z"/>
	<path fill="#878787" d="M229.094,116.785h-1.029v-1.449h1.029V116.785z M229.094,128.86h-1.029v-9.387h1.029V128.86z"/>
	<path fill="#878787" d="M238.606,128.86c-0.062-0.336-0.104-0.608-0.146-0.84c-0.021-0.232-0.042-0.483-0.042-0.735
		c-0.315,0.504-0.777,0.925-1.365,1.261s-1.26,0.504-2.016,0.504c-0.925,0-1.639-0.252-2.143-0.735s-0.756-1.155-0.756-1.995
		s0.356-1.512,1.092-2.037c0.735-0.524,1.681-0.777,2.856-0.777h2.31v-1.154c0-0.672-0.21-1.197-0.63-1.575
		s-1.029-0.567-1.806-0.567c-0.714,0-1.281,0.168-1.723,0.525c-0.44,0.356-0.65,0.777-0.65,1.302h-0.967l-0.02-0.042
		c-0.042-0.714,0.273-1.323,0.903-1.869c0.63-0.524,1.47-0.798,2.499-0.798c1.028,0,1.848,0.273,2.478,0.798
		s0.945,1.281,0.945,2.268v4.62c0,0.336,0.021,0.65,0.062,0.966c0.042,0.315,0.105,0.63,0.189,0.924h-1.071L238.606,128.86
		L238.606,128.86z M235.163,128.104c0.798,0,1.49-0.189,2.079-0.567c0.588-0.378,0.986-0.86,1.196-1.47v-1.785h-2.31
		c-0.84,0-1.533,0.21-2.101,0.609c-0.566,0.398-0.818,0.882-0.818,1.449c0,0.524,0.168,0.966,0.524,1.28
		C234.092,127.936,234.554,128.104,235.163,128.104z"/>
	<path fill="#878787" d="M244.088,128.86h-1.029v-13.524h1.029V128.86z"/>
	<path fill="#878787" d="M248.834,116.785h-1.029v-1.449h1.029V116.785z M248.834,128.86h-1.029v-9.387h1.029V128.86z"/>
	<path fill="#878787" d="M258.053,126.445c0-0.44-0.188-0.819-0.546-1.155c-0.356-0.336-1.008-0.588-1.952-0.798
		c-1.113-0.23-1.933-0.546-2.479-0.945c-0.546-0.398-0.819-0.966-0.819-1.68s0.294-1.323,0.903-1.827s1.407-0.734,2.395-0.734
		c1.05,0,1.89,0.272,2.499,0.798c0.63,0.524,0.924,1.176,0.902,1.953l-0.021,0.062h-0.967c0-0.524-0.23-0.966-0.672-1.344
		c-0.44-0.378-1.028-0.567-1.764-0.567c-0.756,0-1.323,0.168-1.701,0.504s-0.567,0.715-0.567,1.155c0,0.42,0.169,0.777,0.483,1.071
		c0.336,0.273,0.987,0.524,1.953,0.734c1.092,0.253,1.932,0.589,2.499,1.009s0.84,1.028,0.84,1.743c0,0.776-0.314,1.406-0.944,1.91
		c-0.631,0.483-1.471,0.735-2.521,0.735c-1.134,0-2.037-0.272-2.688-0.819c-0.65-0.546-0.966-1.196-0.924-1.952l0.021-0.042h0.944
		c0.042,0.672,0.315,1.176,0.819,1.47c0.504,0.294,1.113,0.462,1.806,0.462c0.757,0,1.345-0.168,1.785-0.504
		C257.822,127.327,258.053,126.907,258.053,126.445z"/>
	<path fill="#878787" d="M263.808,117.058v2.394h2.058v0.84h-2.058v6.111c0,0.609,0.104,1.05,0.336,1.302
		c0.23,0.252,0.524,0.378,0.882,0.378c0.126,0,0.252,0,0.378-0.021c0.126-0.022,0.252-0.042,0.42-0.084l0.147,0.777
		c-0.147,0.062-0.315,0.126-0.525,0.168s-0.398,0.062-0.609,0.062c-0.65,0-1.176-0.21-1.532-0.63
		c-0.357-0.42-0.546-1.071-0.546-1.974v-6.111h-1.617v-0.84h1.617v-2.395h1.05L263.808,117.058L263.808,117.058z"/>
	<path fill="#878787" d="M272.187,129.028c-1.218,0-2.205-0.44-2.961-1.281c-0.756-0.86-1.134-1.953-1.134-3.317v-0.483
		c0-1.344,0.378-2.478,1.154-3.339c0.757-0.882,1.723-1.323,2.856-1.323c1.134,0,2.016,0.358,2.646,1.092
		c0.63,0.735,0.924,1.723,0.924,2.961v0.799h-6.531v0.294c0,1.07,0.273,1.953,0.819,2.667s1.28,1.05,2.247,1.05
		c0.566,0,1.092-0.084,1.574-0.273c0.483-0.189,0.883-0.44,1.197-0.756l0.441,0.714c-0.336,0.337-0.756,0.631-1.302,0.861
		C273.572,128.924,272.922,129.028,272.187,129.028z M272.082,120.166c-0.799,0-1.449,0.294-1.975,0.861
		c-0.525,0.567-0.819,1.302-0.903,2.184l0.022,0.042h5.376v-0.21c0-0.84-0.21-1.512-0.651-2.058
		C273.51,120.439,272.9,120.166,272.082,120.166z"/>
	<path fill="#878787" d="M284.094,126.445c0-0.44-0.188-0.819-0.546-1.155s-1.008-0.588-1.953-0.798
		c-1.113-0.23-1.932-0.546-2.477-0.945c-0.547-0.398-0.819-0.966-0.819-1.68s0.294-1.323,0.903-1.827
		c0.608-0.504,1.406-0.734,2.393-0.734c1.05,0,1.89,0.272,2.499,0.798c0.63,0.524,0.924,1.176,0.903,1.953l-0.021,0.062h-0.966
		c0-0.524-0.231-0.966-0.672-1.344s-1.029-0.567-1.764-0.567c-0.757,0-1.323,0.168-1.701,0.504s-0.567,0.715-0.567,1.155
		c0,0.42,0.168,0.777,0.483,1.071c0.336,0.273,0.986,0.524,1.953,0.734c1.092,0.253,1.932,0.589,2.499,1.009
		c0.566,0.42,0.84,1.028,0.84,1.743c0,0.776-0.315,1.406-0.945,1.91c-0.63,0.483-1.47,0.735-2.52,0.735
		c-1.135,0-2.037-0.272-2.688-0.819c-0.651-0.546-0.966-1.196-0.924-1.952l0.02-0.042h0.945c0.042,0.672,0.315,1.176,0.819,1.47
		c0.504,0.294,1.112,0.462,1.806,0.462c0.756,0,1.344-0.168,1.785-0.504C283.863,127.327,284.094,126.907,284.094,126.445z"/>
	<path fill="#878787" d="M292.852,124.24c0-1.491,0.314-2.688,0.944-3.591s1.513-1.344,2.646-1.344c0.65,0,1.197,0.126,1.68,0.398
		c0.483,0.273,0.882,0.651,1.197,1.155v-5.523h1.05v13.524h-0.84l-0.147-1.365c-0.314,0.504-0.714,0.883-1.218,1.135
		c-0.482,0.272-1.071,0.398-1.743,0.398c-1.134,0-1.995-0.42-2.625-1.26s-0.944-1.953-0.944-3.36L292.852,124.24L292.852,124.24z
		 M293.88,124.43c0,1.134,0.231,2.037,0.672,2.709c0.462,0.672,1.135,1.008,2.059,1.008c0.672,0,1.218-0.147,1.68-0.441
		c0.441-0.294,0.798-0.714,1.05-1.238v-4.452c-0.23-0.525-0.566-0.967-1.008-1.303c-0.44-0.336-1.008-0.504-1.701-0.504
		c-0.924,0-1.596,0.378-2.058,1.113c-0.462,0.756-0.693,1.722-0.693,2.919L293.88,124.43L293.88,124.43z"/>
	<path fill="#878787" d="M309.987,127.327c-0.294,0.546-0.692,0.967-1.218,1.261c-0.525,0.294-1.113,0.44-1.807,0.44
		c-0.986,0-1.764-0.336-2.33-1.008c-0.567-0.672-0.841-1.701-0.841-3.129v-5.44h1.051v5.46c0,1.135,0.189,1.975,0.588,2.457
		c0.398,0.505,0.944,0.757,1.659,0.757c0.776,0,1.406-0.168,1.868-0.525c0.463-0.357,0.799-0.819,0.987-1.428v-6.699h1.05v9.387
		h-0.924L309.987,127.327z"/>
	<path fill="#878787" d="M322.924,128.167c0.672,0,1.26-0.188,1.764-0.588c0.504-0.398,0.777-0.944,0.777-1.638h0.924l0.021,0.042
		c0.021,0.861-0.316,1.596-1.029,2.184c-0.714,0.589-1.533,0.883-2.457,0.883c-1.239,0-2.227-0.441-2.919-1.323
		c-0.693-0.882-1.05-1.995-1.05-3.381v-0.358c0-1.365,0.356-2.478,1.05-3.36c0.692-0.882,1.659-1.322,2.919-1.322
		c1.008,0,1.848,0.294,2.52,0.902c0.673,0.609,0.987,1.407,0.967,2.394l-0.021,0.062h-0.924c0-0.756-0.252-1.344-0.735-1.806
		c-0.482-0.441-1.092-0.672-1.806-0.672c-0.987,0-1.722,0.356-2.185,1.092c-0.462,0.735-0.714,1.638-0.714,2.709v0.358
		c0,1.112,0.231,2.016,0.714,2.729C321.202,127.789,321.937,128.167,322.924,128.167z"/>
	<path fill="#878787" d="M328.762,124.01c0-1.387,0.378-2.521,1.134-3.402c0.757-0.882,1.765-1.323,3.004-1.323
		c1.26,0,2.268,0.441,3.024,1.323c0.756,0.882,1.134,2.016,1.134,3.402v0.294c0,1.386-0.378,2.52-1.134,3.401
		c-0.756,0.883-1.764,1.323-3.003,1.323c-1.26,0-2.268-0.44-3.024-1.323c-0.756-0.882-1.134-2.016-1.134-3.401L328.762,124.01
		L328.762,124.01z M329.791,124.304c0,1.092,0.274,1.995,0.819,2.73c0.546,0.735,1.322,1.113,2.289,1.113
		c0.966,0,1.722-0.378,2.268-1.113c0.546-0.734,0.819-1.659,0.819-2.73v-0.294c0-1.071-0.273-1.975-0.84-2.73
		c-0.547-0.756-1.323-1.113-2.289-1.113c-0.967,0-1.743,0.378-2.289,1.113s-0.819,1.659-0.819,2.73v0.294H329.791z"/>
	<path fill="#878787" d="M340.858,119.474l0.084,1.638c0.314-0.567,0.714-1.008,1.218-1.323c0.504-0.314,1.113-0.482,1.807-0.482
		c1.008,0,1.784,0.314,2.33,0.924c0.525,0.63,0.799,1.596,0.799,2.919v5.712h-1.051v-5.712c0-1.071-0.21-1.827-0.608-2.289
		c-0.399-0.441-0.966-0.672-1.723-0.672c-0.756,0-1.344,0.188-1.784,0.546c-0.463,0.356-0.777,0.861-0.987,1.47v6.637h-1.05v-9.388
		h0.966L340.858,119.474L340.858,119.474z"/>
	<path fill="#878787" d="M352.156,117.058v2.394h2.058v0.84h-2.058v6.111c0,0.609,0.105,1.05,0.336,1.302s0.526,0.378,0.883,0.378
		c0.126,0,0.252,0,0.378-0.021c0.126-0.022,0.252-0.042,0.42-0.084l0.146,0.777c-0.146,0.062-0.314,0.126-0.524,0.168
		c-0.21,0.042-0.399,0.062-0.609,0.062c-0.651,0-1.176-0.21-1.533-0.63c-0.356-0.42-0.546-1.071-0.546-1.974v-6.111h-1.617v-0.84
		h1.617v-2.395h1.05v0.023C352.157,117.058,352.156,117.058,352.156,117.058z"/>
	<path fill="#878787" d="M361.25,120.355l-0.735-0.042c-0.651,0-1.197,0.189-1.617,0.546c-0.42,0.378-0.714,0.882-0.903,1.512v6.489
		h-1.05v-9.387h0.903l0.126,1.554v0.105c0.274-0.588,0.63-1.028,1.092-1.344c0.462-0.314,1.008-0.482,1.639-0.482
		c0.126,0,0.252,0,0.356,0.02c0.105,0.022,0.21,0.042,0.294,0.064L361.25,120.355z"/>
	<path fill="#878787" d="M362.993,124.01c0-1.387,0.378-2.521,1.134-3.402c0.756-0.882,1.764-1.323,3.003-1.323
		c1.26,0,2.268,0.441,3.024,1.323c0.756,0.882,1.134,2.016,1.134,3.402v0.294c0,1.386-0.378,2.52-1.134,3.401
		c-0.757,0.883-1.765,1.323-3.004,1.323c-1.26,0-2.268-0.44-3.023-1.323c-0.756-0.882-1.134-2.016-1.134-3.401L362.993,124.01
		L362.993,124.01z M364.021,124.304c0,1.092,0.273,1.995,0.819,2.73s1.323,1.113,2.289,1.113s1.722-0.378,2.268-1.113
		c0.547-0.734,0.819-1.659,0.819-2.73v-0.294c0-1.071-0.272-1.975-0.84-2.73c-0.546-0.756-1.323-1.113-2.289-1.113
		s-1.743,0.378-2.289,1.113s-0.819,1.659-0.819,2.73v0.294H364.021z M369.671,117.604v0.147h-0.966l-1.449-1.449l-1.449,1.449
		h-0.966v-0.188l1.974-1.911h0.841L369.671,117.604z"/>
	<path fill="#878787" d="M375.341,128.86h-1.028v-13.524h1.028V128.86z"/>
	<path fill="#878787" d="M382.481,129.028c-1.218,0-2.205-0.44-2.961-1.281c-0.757-0.86-1.135-1.953-1.135-3.317v-0.483
		c0-1.344,0.378-2.478,1.155-3.339c0.756-0.882,1.723-1.323,2.857-1.323s2.016,0.358,2.646,1.092
		c0.63,0.735,0.925,1.723,0.925,2.961v0.799h-6.531v0.294c0,1.07,0.272,1.953,0.818,2.667s1.281,1.05,2.247,1.05
		c0.567,0,1.093-0.084,1.575-0.273c0.483-0.189,0.882-0.44,1.197-0.756l0.44,0.714c-0.336,0.337-0.756,0.631-1.302,0.861
		C383.867,128.924,383.216,129.028,382.481,129.028z M382.376,120.166c-0.798,0-1.449,0.294-1.974,0.861s-0.819,1.302-0.903,2.184
		l0.021,0.042h5.376v-0.21c0-0.84-0.21-1.512-0.651-2.058C383.805,120.439,383.195,120.166,382.376,120.166z"/>
	<path fill="#878787" d="M191.44,150.365c-1.218,0-2.205-0.441-2.961-1.281c-0.756-0.861-1.134-1.953-1.134-3.318v-0.482
		c0-1.345,0.378-2.479,1.155-3.34c0.756-0.882,1.722-1.322,2.856-1.322c1.135,0,2.017,0.357,2.646,1.092
		c0.63,0.735,0.924,1.722,0.924,2.961v0.798h-6.531v0.294c0,1.071,0.273,1.953,0.819,2.667c0.546,0.715,1.281,1.051,2.247,1.051
		c0.567,0,1.092-0.084,1.575-0.273c0.482-0.189,0.882-0.441,1.197-0.756l0.44,0.714c-0.336,0.336-0.756,0.63-1.302,0.861
		C192.826,150.239,192.175,150.365,191.44,150.365z M191.335,141.503c-0.798,0-1.449,0.294-1.975,0.861
		c-0.524,0.566-0.818,1.302-0.902,2.184l0.021,0.042h5.376v-0.21c0-0.84-0.21-1.512-0.65-2.058
		C192.763,141.775,192.154,141.503,191.335,141.503z"/>
	<path fill="#878787" d="M199.336,138.374v2.394h2.059v0.84h-2.059v6.111c0,0.609,0.105,1.05,0.336,1.302s0.525,0.379,0.882,0.379
		c0.126,0,0.252,0,0.378-0.022c0.126-0.021,0.252-0.042,0.421-0.084l0.146,0.777c-0.146,0.062-0.314,0.126-0.525,0.168
		c-0.21,0.042-0.398,0.062-0.608,0.062c-0.651,0-1.176-0.21-1.533-0.63s-0.546-1.071-0.546-1.974v-6.111h-1.617v-0.84h1.617v-2.395
		h1.05L199.336,138.374L199.336,138.374z"/>
	<path fill="#878787" d="M208.765,145.556c0-1.491,0.315-2.688,0.945-3.591s1.512-1.344,2.646-1.344c0.65,0,1.196,0.126,1.68,0.398
		c0.483,0.273,0.882,0.651,1.197,1.155v-5.523h1.05v13.524h-0.84l-0.147-1.365c-0.315,0.505-0.714,0.883-1.218,1.135
		c-0.483,0.272-1.071,0.398-1.743,0.398c-1.134,0-1.995-0.42-2.625-1.26s-0.945-1.953-0.945-3.36V145.556z M209.815,145.745
		c0,1.134,0.231,2.037,0.672,2.709c0.462,0.672,1.134,1.008,2.058,1.008c0.672,0,1.219-0.148,1.681-0.441
		c0.44-0.294,0.798-0.714,1.05-1.238v-4.452c-0.231-0.525-0.567-0.966-1.008-1.303c-0.441-0.336-1.009-0.504-1.701-0.504
		c-0.924,0-1.597,0.378-2.059,1.113c-0.462,0.756-0.692,1.722-0.692,2.919L209.815,145.745L209.815,145.745z"/>
	<path fill="#878787" d="M223.34,150.365c-1.219,0-2.205-0.441-2.962-1.281c-0.756-0.861-1.134-1.953-1.134-3.318v-0.482
		c0-1.345,0.378-2.479,1.155-3.34c0.756-0.882,1.722-1.322,2.857-1.322c1.134,0,2.016,0.357,2.646,1.092s0.924,1.722,0.924,2.961
		v0.798h-6.531v0.294c0,1.071,0.273,1.953,0.819,2.667c0.546,0.715,1.281,1.051,2.247,1.051c0.567,0,1.092-0.084,1.575-0.273
		c0.482-0.189,0.882-0.441,1.197-0.756l0.44,0.714c-0.336,0.336-0.756,0.63-1.302,0.861
		C224.726,150.239,224.096,150.365,223.34,150.365z M223.256,141.503c-0.799,0-1.449,0.294-1.975,0.861
		c-0.525,0.566-0.819,1.302-0.903,2.184l0.021,0.042h5.376v-0.21c0-0.84-0.21-1.512-0.651-2.058
		C224.684,141.775,224.054,141.503,223.256,141.503z"/>
	<path fill="#878787" d="M235.835,150.176h-1.029v-13.525h1.029V150.176z"/>
	<path fill="#878787" d="M245.348,150.176c-0.062-0.336-0.104-0.608-0.146-0.84c-0.021-0.232-0.042-0.483-0.042-0.735
		c-0.315,0.504-0.777,0.925-1.365,1.261s-1.26,0.504-2.017,0.504c-0.924,0-1.638-0.252-2.142-0.735
		c-0.504-0.482-0.756-1.155-0.756-1.995s0.356-1.512,1.092-2.037c0.735-0.524,1.68-0.776,2.856-0.776h2.31v-1.155
		c0-0.672-0.21-1.197-0.63-1.575s-1.029-0.567-1.806-0.567c-0.714,0-1.281,0.168-1.723,0.525c-0.44,0.357-0.65,0.777-0.65,1.302
		h-0.967l-0.021-0.042c-0.042-0.714,0.273-1.323,0.903-1.869c0.63-0.524,1.47-0.798,2.499-0.798c1.028,0,1.848,0.273,2.478,0.798
		c0.63,0.525,0.945,1.281,0.945,2.269v4.62c0,0.336,0.021,0.65,0.062,0.966c0.042,0.315,0.106,0.63,0.189,0.924h-1.071v-0.045
		L245.348,150.176L245.348,150.176z M241.904,149.441c0.798,0,1.49-0.19,2.078-0.567c0.589-0.378,0.987-0.861,1.197-1.47v-1.785
		h-2.31c-0.84,0-1.533,0.21-2.101,0.608c-0.566,0.399-0.818,0.883-0.818,1.449c0,0.525,0.168,0.966,0.524,1.281
		C240.833,149.272,241.295,149.441,241.904,149.441z"/>
	<path fill="#878787" d="M262.253,145.745c0,1.407-0.314,2.519-0.966,3.359c-0.63,0.841-1.512,1.261-2.625,1.261
		c-0.65,0-1.218-0.126-1.722-0.378s-0.903-0.609-1.219-1.051v4.852h-1.05v-12.999h0.798l0.19,1.47
		c0.315-0.525,0.714-0.924,1.218-1.218s1.071-0.42,1.743-0.42c1.134,0,2.017,0.44,2.646,1.344c0.63,0.903,0.966,2.1,0.966,3.591
		v0.19L262.253,145.745L262.253,145.745z M261.225,145.556c0-1.197-0.231-2.163-0.714-2.919s-1.177-1.134-2.079-1.134
		c-0.693,0-1.261,0.168-1.681,0.504c-0.44,0.336-0.776,0.756-0.987,1.281v4.536c0.253,0.504,0.589,0.902,1.029,1.197
		c0.441,0.294,1.008,0.441,1.659,0.441c0.903,0,1.596-0.336,2.058-1.029c0.463-0.692,0.715-1.596,0.715-2.709V145.556
		L261.225,145.556z"/>
	<path fill="#878787" d="M268.868,150.365c-1.218,0-2.205-0.441-2.961-1.281c-0.756-0.861-1.134-1.953-1.134-3.318v-0.482
		c0-1.345,0.378-2.479,1.155-3.34c0.756-0.882,1.722-1.322,2.856-1.322c1.135,0,2.017,0.357,2.646,1.092
		c0.63,0.735,0.924,1.722,0.924,2.961v0.798h-6.531v0.294c0,1.071,0.273,1.953,0.819,2.667c0.546,0.715,1.281,1.051,2.247,1.051
		c0.566,0,1.092-0.084,1.575-0.273c0.482-0.189,0.882-0.441,1.196-0.756l0.441,0.714c-0.336,0.336-0.756,0.63-1.302,0.861
		C270.255,150.239,269.604,150.365,268.868,150.365z M268.764,141.503c-0.798,0-1.449,0.294-1.975,0.861
		c-0.524,0.566-0.818,1.302-0.902,2.184l0.021,0.042h5.376v-0.21c0-0.84-0.21-1.512-0.65-2.058
		C270.191,141.775,269.582,141.503,268.764,141.503z"/>
	<path fill="#878787" d="M279.432,141.671l-0.735-0.042c-0.65,0-1.196,0.188-1.616,0.546c-0.42,0.378-0.715,0.882-0.903,1.512v6.489
		h-1.05v-9.387h0.902l0.126,1.554v0.105c0.273-0.589,0.631-1.029,1.093-1.345c0.462-0.315,1.008-0.483,1.638-0.483
		c0.126,0,0.252,0,0.357,0.021c0.104,0.021,0.21,0.042,0.294,0.063L279.432,141.671z"/>
	<path fill="#878787" d="M282.812,140.789l0.084,1.532c0.294-0.546,0.693-0.966,1.197-1.26s1.092-0.44,1.785-0.44
		c0.714,0,1.323,0.168,1.785,0.525c0.482,0.336,0.819,0.861,1.029,1.575c0.272-0.651,0.692-1.155,1.218-1.533
		c0.524-0.378,1.155-0.546,1.89-0.546c1.008,0,1.765,0.336,2.31,1.008c0.546,0.672,0.818,1.701,0.818,3.088v5.48h-1.05v-5.48
		c0-1.155-0.21-1.975-0.608-2.457c-0.42-0.483-0.967-0.715-1.701-0.715c-0.798,0-1.407,0.231-1.849,0.715
		c-0.44,0.482-0.714,1.112-0.818,1.868c0,0.064,0,0.126,0,0.189c0,0.062,0,0.147,0,0.252v5.628h-1.051v-5.481
		c0-1.134-0.21-1.952-0.63-2.436c-0.42-0.483-0.986-0.735-1.701-0.735c-0.734,0-1.302,0.189-1.742,0.546
		c-0.441,0.357-0.735,0.861-0.903,1.491v6.615h-1.05v-9.387h0.986L282.812,140.789L282.812,140.789z"/>
	<path fill="#878787" d="M301.944,150.365c-1.218,0-2.205-0.441-2.961-1.281c-0.756-0.861-1.134-1.953-1.134-3.318v-0.482
		c0-1.345,0.378-2.479,1.154-3.34c0.756-0.882,1.723-1.322,2.856-1.322c1.134,0,2.016,0.357,2.646,1.092
		c0.631,0.735,0.925,1.722,0.925,2.961v0.798h-6.531v0.294c0,1.071,0.273,1.953,0.818,2.667c0.547,0.715,1.281,1.051,2.247,1.051
		c0.567,0,1.093-0.084,1.575-0.273c0.483-0.189,0.882-0.441,1.197-0.756l0.441,0.714c-0.336,0.336-0.757,0.63-1.303,0.861
		C303.33,150.239,302.7,150.365,301.944,150.365z M301.86,141.503c-0.798,0-1.449,0.294-1.974,0.861
		c-0.525,0.566-0.819,1.302-0.903,2.184l0.021,0.042h5.376v-0.21c0-0.84-0.21-1.512-0.65-2.058
		C303.288,141.775,302.68,141.503,301.86,141.503z M302.952,136.799h1.281l0.021,0.042l-2.163,2.247h-0.924L302.952,136.799z"/>
	<path fill="#878787" d="M314.188,150.176c-0.062-0.336-0.104-0.608-0.147-0.84c-0.021-0.232-0.043-0.483-0.043-0.735
		c-0.314,0.504-0.776,0.925-1.364,1.261s-1.261,0.504-2.017,0.504c-0.924,0-1.638-0.252-2.142-0.735
		c-0.504-0.482-0.756-1.155-0.756-1.995s0.357-1.512,1.092-2.037c0.735-0.524,1.68-0.776,2.857-0.776h2.31v-1.155
		c0-0.672-0.21-1.197-0.63-1.575s-1.029-0.567-1.807-0.567c-0.714,0-1.28,0.168-1.722,0.525c-0.441,0.357-0.651,0.777-0.651,1.302
		h-0.966l-0.021-0.042c-0.042-0.714,0.273-1.323,0.902-1.869c0.631-0.524,1.471-0.798,2.499-0.798c1.029,0,1.849,0.273,2.478,0.798
		c0.63,0.525,0.945,1.281,0.945,2.269v4.62c0,0.336,0.021,0.65,0.062,0.966c0.042,0.315,0.106,0.63,0.19,0.924h-1.071v-0.045
		L314.188,150.176L314.188,150.176z M310.723,149.441c0.798,0,1.491-0.19,2.079-0.567c0.588-0.378,0.987-0.861,1.197-1.47v-1.785
		h-2.31c-0.84,0-1.533,0.21-2.1,0.608c-0.567,0.399-0.819,0.883-0.819,1.449c0,0.525,0.168,0.966,0.525,1.281
		C309.651,149.272,310.113,149.441,310.723,149.441z"/>
	<path fill="#878787" d="M326.074,145.745c0,1.407-0.315,2.519-0.945,3.359c-0.63,0.841-1.512,1.261-2.625,1.261
		c-0.693,0-1.281-0.147-1.764-0.42s-0.903-0.672-1.219-1.177l-0.168,1.407h-0.818v-13.524h1.05v5.587
		c0.314-0.525,0.714-0.903,1.197-1.197c0.483-0.273,1.05-0.42,1.722-0.42c1.134,0,2.016,0.44,2.645,1.344
		c0.631,0.903,0.945,2.1,0.945,3.591v0.19L326.074,145.745L326.074,145.745z M325.023,145.556c0-1.197-0.23-2.163-0.692-2.919
		c-0.462-0.756-1.155-1.113-2.059-1.113c-0.714,0-1.302,0.168-1.743,0.525c-0.44,0.357-0.776,0.798-0.986,1.365v4.284
		c0.23,0.546,0.566,0.966,1.028,1.28c0.463,0.315,1.029,0.483,1.723,0.483c0.903,0,1.596-0.336,2.037-1.008
		c0.462-0.672,0.692-1.575,0.692-2.709V145.556L325.023,145.556z"/>
	<path fill="#878787" d="M330.274,138.1h-1.029v-1.449h1.029V138.1z M330.274,150.176h-1.029v-9.387h1.029V150.176z"/>
	<path fill="#878787" d="M335.021,150.176h-1.029v-13.525h1.029V150.176z"/>
	<path fill="#878787" d="M339.745,138.1h-1.029v-1.449h1.029V138.1z M339.745,150.176h-1.029v-9.387h1.029V150.176z"/>
	<path fill="#878787" d="M344.953,138.374v2.394h2.059v0.84h-2.059v6.111c0,0.609,0.105,1.05,0.336,1.302s0.525,0.379,0.882,0.379
		c0.126,0,0.253,0,0.379-0.022c0.126-0.021,0.252-0.042,0.42-0.084l0.146,0.777c-0.146,0.062-0.314,0.126-0.524,0.168
		c-0.211,0.042-0.399,0.062-0.609,0.062c-0.651,0-1.176-0.21-1.533-0.63c-0.356-0.42-0.546-1.071-0.546-1.974v-6.111h-1.617v-0.84
		h1.617v-2.395h1.05v0.023L344.953,138.374L344.953,138.374z"/>
	<path fill="#878787" d="M353.332,150.365c-1.218,0-2.205-0.441-2.961-1.281c-0.756-0.861-1.134-1.953-1.134-3.318v-0.482
		c0-1.345,0.378-2.479,1.155-3.34c0.756-0.882,1.722-1.322,2.855-1.322c1.135,0,2.017,0.357,2.646,1.092
		c0.63,0.735,0.924,1.722,0.924,2.961v0.798h-6.531v0.294c0,1.071,0.273,1.953,0.819,2.667c0.546,0.715,1.281,1.051,2.247,1.051
		c0.567,0,1.092-0.084,1.575-0.273c0.482-0.189,0.882-0.441,1.197-0.756l0.44,0.714c-0.336,0.336-0.756,0.63-1.302,0.861
		C354.719,150.239,354.089,150.365,353.332,150.365z M353.228,141.503c-0.798,0-1.449,0.294-1.974,0.861
		c-0.525,0.566-0.819,1.302-0.903,2.184l0.021,0.042h5.377v-0.21c0-0.84-0.211-1.512-0.651-2.058
		C354.655,141.775,354.047,141.503,353.228,141.503z M354.341,136.799h1.28l0.022,0.042l-2.163,2.247h-0.924L354.341,136.799z"/>
	<path fill="#878787" d="M370.595,150.176c-0.062-0.336-0.104-0.608-0.146-0.84c-0.021-0.232-0.042-0.483-0.042-0.735
		c-0.316,0.504-0.777,0.925-1.365,1.261s-1.26,0.504-2.017,0.504c-0.924,0-1.638-0.252-2.142-0.735
		c-0.504-0.482-0.756-1.155-0.756-1.995s0.356-1.512,1.092-2.037c0.735-0.524,1.68-0.776,2.856-0.776h2.31v-1.155
		c0-0.672-0.21-1.197-0.63-1.575s-1.029-0.567-1.806-0.567c-0.715,0-1.281,0.168-1.723,0.525c-0.441,0.357-0.65,0.777-0.65,1.302
		h-0.967l-0.021-0.042c-0.042-0.714,0.272-1.323,0.903-1.869c0.63-0.524,1.47-0.798,2.499-0.798c1.028,0,1.848,0.273,2.478,0.798
		c0.63,0.525,0.945,1.281,0.945,2.269v4.62c0,0.336,0.021,0.65,0.062,0.966c0.042,0.315,0.105,0.63,0.189,0.924h-1.071v-0.045
		L370.595,150.176L370.595,150.176z M367.13,149.441c0.798,0,1.491-0.19,2.079-0.567c0.588-0.378,0.987-0.861,1.197-1.47v-1.785
		h-2.311c-0.84,0-1.533,0.21-2.1,0.608c-0.567,0.399-0.819,0.883-0.819,1.449c0,0.525,0.168,0.966,0.525,1.281
		C366.059,149.272,366.521,149.441,367.13,149.441z M368.6,139.046h-1.008l-2.1-2.269l0.021-0.042h1.344L368.6,139.046z"/>
	<path fill="#878787" d="M381.116,150.176h-1.029v-13.525h1.029V150.176z"/>
	<path fill="#878787" d="M385.799,139.234l-0.63,2.395h-0.63l0.21-2.311v-1.764h1.05L385.799,139.234L385.799,139.234z"/>
	<path fill="#878787" d="M394.577,150.176c-0.062-0.336-0.104-0.608-0.146-0.84c-0.021-0.232-0.042-0.483-0.042-0.735
		c-0.316,0.504-0.777,0.925-1.365,1.261s-1.26,0.504-2.016,0.504c-0.925,0-1.639-0.252-2.143-0.735
		c-0.504-0.482-0.756-1.155-0.756-1.995s0.357-1.512,1.092-2.037c0.735-0.524,1.681-0.776,2.856-0.776h2.31v-1.155
		c0-0.672-0.21-1.197-0.63-1.575s-1.029-0.567-1.806-0.567c-0.714,0-1.281,0.168-1.723,0.525c-0.44,0.357-0.65,0.777-0.65,1.302
		h-0.966l-0.022-0.042c-0.042-0.714,0.273-1.323,0.903-1.869c0.63-0.524,1.47-0.798,2.499-0.798c1.028,0,1.848,0.273,2.478,0.798
		c0.63,0.525,0.945,1.281,0.945,2.269v4.62c0,0.336,0.021,0.65,0.062,0.966c0.043,0.315,0.106,0.63,0.189,0.924h-1.071v-0.045
		L394.577,150.176L394.577,150.176z M391.134,149.441c0.798,0,1.49-0.19,2.079-0.567c0.588-0.378,0.986-0.861,1.196-1.47v-1.785
		h-2.31c-0.84,0-1.533,0.21-2.101,0.608c-0.566,0.399-0.818,0.883-0.818,1.449c0,0.525,0.168,0.966,0.524,1.281
		C390.062,149.272,390.504,149.441,391.134,149.441z"/>
	<path fill="#878787" d="M400.059,138.1h-1.029v-1.449h1.029V138.1z M400.059,150.176h-1.029v-9.387h1.029V150.176z"/>
	<path fill="#878787" d="M407.934,141.671l-0.734-0.042c-0.651,0-1.197,0.188-1.617,0.546c-0.42,0.378-0.714,0.882-0.903,1.512
		v6.489h-1.05v-9.387h0.902l0.127,1.554v0.105c0.273-0.589,0.63-1.029,1.092-1.345c0.462-0.315,1.008-0.483,1.638-0.483
		c0.126,0,0.252,0,0.357,0.021c0.104,0.021,0.21,0.042,0.294,0.063L407.934,141.671z"/>
</g>
<g>
	<g>
		
			<linearGradient id="SVGID_4_" gradientUnits="userSpaceOnUse" x1="-637.2246" y1="301.3331" x2="-637.1664" y2="301.3331" gradientTransform="matrix(2.1001 0 0 -2.1001 1549.619 661.6647)">
			<stop  offset="0" style="stop-color:#4BC1F0"/>
			<stop  offset="0.5" style="stop-color:#229EDA"/>
			<stop  offset="1" style="stop-color:#148BCC"/>
		</linearGradient>
		<path fill="url(#SVGID_4_)" d="M211.39,28.877l0.021-0.126c0-0.022,0.021-0.042,0.062-0.042c0.021,0,0.042,0.02,0.042,0.063v0.125
			c0,0.043-0.021,0.064-0.062,0.064S211.39,28.919,211.39,28.877C211.39,28.897,211.39,28.877,211.39,28.877z"/>
	</g>
	
		<linearGradient id="SVGID_5_" gradientUnits="userSpaceOnUse" x1="-638.2056" y1="301.9715" x2="-638.2056" y2="283.1435" gradientTransform="matrix(2.1001 0 0 -2.1001 1549.619 661.6647)">
		<stop  offset="0" style="stop-color:#4BC1F0"/>
		<stop  offset="0.5" style="stop-color:#229EDA"/>
		<stop  offset="1" style="stop-color:#148BCC"/>
	</linearGradient>
	<path fill="url(#SVGID_5_)" d="M228.002,61.848c0,0.546-0.084,1.009-0.273,1.429c-0.189,0.42-0.441,0.776-0.756,1.05
		c-0.315,0.273-0.693,0.483-1.113,0.608c-0.42,0.127-0.861,0.189-1.323,0.189h-3.927c-0.819,0-1.533-0.084-2.121-0.252
		s-1.134-0.462-1.638-0.883c-0.504-0.42-0.987-1.008-1.449-1.742c-0.462-0.735-0.987-1.68-1.575-2.856l-11.277-21.19
		c-0.65-1.26-1.322-2.625-1.995-4.074c-0.672-1.448-1.28-2.877-1.826-4.263h-0.063c0.084,1.68,0.168,3.359,0.21,5.02
		c0.042,1.658,0.063,3.381,0.063,5.166v23.709c0,0.23-0.063,0.441-0.189,0.63c-0.126,0.19-0.357,0.337-0.672,0.483
		c-0.315,0.126-0.735,0.23-1.281,0.294c-0.546,0.063-1.218,0.105-2.058,0.105c-0.819,0-1.491-0.041-2.037-0.105
		c-0.546-0.063-0.966-0.168-1.261-0.294c-0.294-0.126-0.504-0.294-0.63-0.483c-0.126-0.188-0.168-0.399-0.168-0.63v-40.72
		c0-1.093,0.315-1.911,0.966-2.478c0.651-0.547,1.429-0.82,2.374-0.82h4.935c0.882,0,1.638,0.084,2.247,0.231
		c0.609,0.147,1.155,0.399,1.638,0.757c0.483,0.357,0.925,0.84,1.345,1.448c0.42,0.609,0.86,1.386,1.302,2.289l8.82,16.548
		c0.504,1.009,1.028,1.996,1.532,2.962c0.505,0.966,0.987,1.932,1.449,2.897c0.462,0.967,0.924,1.912,1.365,2.856
		c0.441,0.925,0.882,1.869,1.302,2.793h0.042c-0.062-1.638-0.126-3.339-0.168-5.102c-0.042-1.765-0.062-3.465-0.062-5.082V21.085
		c0-0.232,0.062-0.44,0.21-0.63c0.147-0.189,0.378-0.357,0.693-0.483c0.336-0.147,0.756-0.231,1.302-0.294s1.218-0.084,2.058-0.084
		c0.798,0,1.449,0.021,1.995,0.084s0.945,0.168,1.239,0.294c0.294,0.147,0.504,0.294,0.609,0.483c0.126,0.19,0.168,0.398,0.168,0.63
		v40.763H228.002z"/>
	
		<linearGradient id="SVGID_6_" gradientUnits="userSpaceOnUse" x1="-615.8671" y1="302.2532" x2="-615.8671" y2="283.4258" gradientTransform="matrix(2.1001 0 0 -2.1001 1549.619 661.6647)">
		<stop  offset="0" style="stop-color:#4BC1F0"/>
		<stop  offset="0.5" style="stop-color:#229EDA"/>
		<stop  offset="1" style="stop-color:#148BCC"/>
	</linearGradient>
	<path fill="url(#SVGID_6_)" d="M273.048,63.297c0,0.252-0.042,0.462-0.148,0.651c-0.084,0.168-0.314,0.314-0.672,0.44
		c-0.357,0.126-0.861,0.19-1.533,0.253c-0.672,0.041-1.596,0.062-2.771,0.062c-0.987,0-1.765-0.022-2.353-0.062
		c-0.588-0.043-1.05-0.127-1.386-0.273c-0.336-0.126-0.588-0.295-0.714-0.483c-0.148-0.189-0.252-0.44-0.357-0.714l-4.053-10.122
		c-0.483-1.134-0.966-2.163-1.429-3.046c-0.462-0.881-0.986-1.637-1.554-2.226c-0.567-0.588-1.239-1.05-1.974-1.344
		c-0.757-0.294-1.617-0.462-2.583-0.462h-2.878v17.262c0,0.231-0.084,0.441-0.23,0.631c-0.148,0.189-0.399,0.336-0.756,0.462
		s-0.819,0.21-1.407,0.273c-0.588,0.064-1.323,0.105-2.247,0.105c-0.882,0-1.638-0.042-2.227-0.105
		c-0.588-0.062-1.07-0.168-1.406-0.273c-0.357-0.126-0.588-0.273-0.735-0.462s-0.21-0.399-0.21-0.631v-41.14
		c0-1.028,0.273-1.764,0.798-2.226c0.525-0.463,1.176-0.672,1.933-0.672h11.718c1.197,0,2.163,0.021,2.94,0.062
		c0.776,0.042,1.47,0.105,2.1,0.168c1.827,0.252,3.465,0.693,4.914,1.323s2.688,1.448,3.718,2.478
		c1.008,1.008,1.784,2.227,2.331,3.612c0.546,1.386,0.798,2.982,0.798,4.788c0,1.512-0.189,2.898-0.588,4.158
		c-0.378,1.239-0.945,2.373-1.701,3.34c-0.756,0.986-1.681,1.826-2.772,2.562c-1.092,0.714-2.352,1.302-3.738,1.743
		c0.672,0.336,1.323,0.714,1.911,1.197c0.588,0.461,1.155,1.028,1.681,1.701c0.524,0.672,1.028,1.428,1.49,2.267
		c0.463,0.861,0.925,1.806,1.365,2.898l3.822,8.925c0.357,0.882,0.588,1.533,0.693,1.933
		C272.984,62.751,273.048,63.065,273.048,63.297z M261.183,32.552c0-1.49-0.336-2.75-1.009-3.779
		c-0.672-1.029-1.784-1.744-3.317-2.164c-0.462-0.125-1.008-0.209-1.597-0.272c-0.588-0.064-1.428-0.105-2.478-0.105h-4.137v12.852
		h4.683c1.302,0,2.457-0.168,3.423-0.483c0.987-0.315,1.807-0.756,2.457-1.323c0.651-0.567,1.135-1.261,1.471-2.037
		C261.015,34.421,261.183,33.539,261.183,32.552z"/>
	
		<linearGradient id="SVGID_7_" gradientUnits="userSpaceOnUse" x1="-598.2432" y1="301.9711" x2="-598.2432" y2="283.1438" gradientTransform="matrix(2.1001 0 0 -2.1001 1549.619 661.6647)">
		<stop  offset="0" style="stop-color:#4BC1F0"/>
		<stop  offset="0.5" style="stop-color:#229EDA"/>
		<stop  offset="1" style="stop-color:#148BCC"/>
	</linearGradient>
	<path fill="url(#SVGID_7_)" d="M304.717,52.481c0,2.059-0.231,3.906-0.715,5.545c-0.482,1.638-1.28,3.045-2.394,4.199
		c-1.134,1.155-2.604,2.037-4.432,2.647c-1.826,0.609-4.095,0.902-6.783,0.902c-0.86,0-1.7-0.041-2.541-0.146
		c-0.84-0.106-1.616-0.231-2.31-0.399c-0.693-0.168-1.302-0.336-1.827-0.525c-0.504-0.19-0.861-0.358-1.029-0.504
		c-0.168-0.147-0.314-0.315-0.42-0.463c-0.104-0.168-0.21-0.377-0.294-0.65c-0.084-0.273-0.146-0.609-0.168-1.008
		c-0.021-0.4-0.042-0.903-0.042-1.512c0-0.799,0.022-1.471,0.064-2.017s0.104-0.987,0.21-1.302c0.104-0.315,0.252-1.428,0.42-1.555
		c0.188-0.125,0.42-0.189,0.714-0.189c0.252,0,0.567,0.084,0.903,0.232c0.336,0.146,0.734,0.314,1.154,0.461
		c0.42,0.168,0.925,0.315,1.491,0.463c0.567,0.146,1.239,0.23,2.017,0.23c0.776,0,1.448-0.084,2.037-0.273
		c0.588-0.168,1.07-0.482,1.448-0.902c0.378-0.441,0.673-1.008,0.883-1.743c0.21-0.714,0.294-0.776,0.294-1.911V20.938
		c0-0.23,0.084-0.44,0.272-0.608c0.19-0.168,0.483-0.315,0.903-0.441s0.987-0.21,1.743-0.272c0.734-0.063,1.659-0.084,2.751-0.084
		s1.995,0.021,2.709,0.084c0.714,0.062,1.302,0.146,1.743,0.272c0.44,0.126,0.756,0.274,0.944,0.441
		c0.189,0.168,0.273,0.378,0.273,0.608v31.543H304.717L304.717,52.481z"/>
</g>
<linearGradient id="SVGID_8_" gradientUnits="userSpaceOnUse" x1="-698.3796" y1="259.1248" x2="-698.3796" y2="316.1521" gradientTransform="matrix(2.1001 0 0 -2.1001 1549.619 661.6647)">
	<stop  offset="0" style="stop-color:#878787"/>
	<stop  offset="1" style="stop-color:#B3B2B2"/>
</linearGradient>
<path fill="url(#SVGID_8_)" d="M79.423,123.043c0,5.965,0,15.268,0,15.394c0,1.449-0.294,2.247-0.588,2.772
	c-0.44,0.756-1.008,1.113-1.659,1.365c-0.315,0.104-0.608,0.188-0.798,0.21c-0.062,0.02-0.126,0.02-0.168,0.02H36.52
	c-1.491,0-2.772-0.546-3.634-1.302c-0.86-0.777-1.28-1.68-1.28-2.667V72.242H16.023c-1.134,0-1.974-0.63-2.205-1.155
	c-0.084-0.188-0.126-0.356-0.126-0.504c0-0.315,0.106-0.63,0.504-1.008l25.852-23.898V27.281c0-2.604,2.101-4.704,4.704-4.704H65.06
	L81.105,7.729c0.378-0.357,1.112-0.672,1.827-0.65c0.734,0,1.448,0.293,1.826,0.65l66.908,61.847
	c0.398,0.378,0.504,0.714,0.504,1.008c0,0.168-0.042,0.315-0.126,0.525c-0.232,0.547-1.071,1.177-2.205,1.156h-15.582v66.592
	c0,0.967-0.42,1.891-1.281,2.667c-0.861,0.777-2.143,1.303-3.633,1.303H93.6c-1.953,0-3.528,1.575-3.528,3.527
	c0,1.953,1.575,3.528,3.528,3.528h35.764c3.171,0,6.111-1.134,8.295-3.087c2.185-1.932,3.654-4.768,3.654-7.939V79.298h8.547
	c3.57,0,6.951-1.868,8.568-5.166c0.546-1.134,0.819-2.352,0.819-3.549c0-2.331-1.029-4.578-2.751-6.174L89.547,2.541
	C87.72,0.883,85.367,0.021,82.932,0c-2.437,0-4.788,0.861-6.615,2.541L62.289,15.499H44.751c-6.489,0-11.739,5.25-11.739,11.739
	v15.33L9.429,64.367c-1.743,1.596-2.772,3.863-2.772,6.195c0,1.218,0.273,2.436,0.819,3.569c1.617,3.298,4.998,5.146,8.568,5.167
	h8.547v59.557c0,3.171,1.47,6.007,3.654,7.939c2.184,1.953,5.124,3.087,8.295,3.087h39.838h0.042
	c0.336-0.021,2.521-0.042,5.062-1.554c1.26-0.756,2.562-1.953,3.507-3.633c0.945-1.681,1.491-3.802,1.491-6.217
	c0-0.105,0-9.723,0-15.394L79.423,123.043z"/>
<g>
	
		<linearGradient id="SVGID_9_" gradientUnits="userSpaceOnUse" x1="-698.0242" y1="283.6071" x2="-698.0242" y2="253.0684" gradientTransform="matrix(2.1001 0 0 -2.1001 1549.619 661.6647)">
		<stop  offset="0" style="stop-color:#4BC1F0"/>
		<stop  offset="0.5" style="stop-color:#229EDA"/>
		<stop  offset="1" style="stop-color:#148BCC"/>
	</linearGradient>
	<path fill="url(#SVGID_9_)" d="M88.097,51.18c-3.486-0.546-6.993-0.399-10.396,0.357c0.756,0.672,1.407,1.449,1.953,2.352
		c0.168,0.273,0.356,0.63,0.567,1.028c2.393-0.356,4.851-0.356,7.287,0c1.028,0.169,1.994-0.545,2.163-1.574
		C89.84,52.292,89.125,51.327,88.097,51.18z"/>
	
		<linearGradient id="SVGID_10_" gradientUnits="userSpaceOnUse" x1="-688.3483" y1="283.6075" x2="-688.3483" y2="253.0767" gradientTransform="matrix(2.1001 0 0 -2.1001 1549.619 661.6647)">
		<stop  offset="0" style="stop-color:#4BC1F0"/>
		<stop  offset="0.5" style="stop-color:#229EDA"/>
		<stop  offset="1" style="stop-color:#148BCC"/>
	</linearGradient>
	<path fill="url(#SVGID_10_)" d="M106.031,89.484c-0.379,0-0.799-0.02-1.281-0.042c-1.239,2.689-2.961,5.166-5.124,7.267
		c-0.756,0.734-0.777,1.932-0.042,2.667c0.378,0.378,0.86,0.566,1.364,0.566c0.483,0,0.945-0.168,1.323-0.524
		c3.024-2.919,5.292-6.469,6.721-10.332c-0.819,0.23-1.681,0.378-2.562,0.398C106.304,89.484,106.178,89.484,106.031,89.484z"/>
	
		<linearGradient id="SVGID_11_" gradientUnits="userSpaceOnUse" x1="-709.4907" y1="283.6089" x2="-709.4907" y2="253.0745" gradientTransform="matrix(2.1001 0 0 -2.1001 1549.619 661.6647)">
		<stop  offset="0" style="stop-color:#4BC1F0"/>
		<stop  offset="0.5" style="stop-color:#229EDA"/>
		<stop  offset="1" style="stop-color:#148BCC"/>
	</linearGradient>
	<path fill="url(#SVGID_11_)" d="M59.704,86.523c-0.315-0.987-1.365-1.554-2.373-1.239c-0.987,0.315-1.555,1.365-1.239,2.373
		c0.692,2.227,1.68,4.39,2.919,6.385c0.735,1.196,1.575,2.31,2.457,3.381c0.21-0.903,0.525-1.764,0.987-2.604
		c0.188-0.356,0.462-0.798,0.776-1.28c-0.356-0.483-0.692-0.967-1.008-1.491C61.152,90.324,60.292,88.455,59.704,86.523z"/>
	
		<linearGradient id="SVGID_12_" gradientUnits="userSpaceOnUse" x1="-697.2827" y1="283.6066" x2="-697.2827" y2="253.0587" gradientTransform="matrix(2.1001 0 0 -2.1001 1549.619 661.6647)">
		<stop  offset="0" style="stop-color:#4BC1F0"/>
		<stop  offset="0.5" style="stop-color:#229EDA"/>
		<stop  offset="1" style="stop-color:#148BCC"/>
	</linearGradient>
	<path fill="url(#SVGID_12_)" d="M87.215,56.87c-2.017-0.314-4.074-0.336-6.069-0.084c0.63,1.387,1.322,3.066,2.016,4.893
		c1.092-0.042,2.205,0,3.297,0.168c1.387,0.21,2.667-0.735,2.877-2.1C89.546,58.362,88.601,57.081,87.215,56.87z"/>
	
		<linearGradient id="SVGID_13_" gradientUnits="userSpaceOnUse" x1="-691.0733" y1="283.6107" x2="-691.0733" y2="253.0726" gradientTransform="matrix(2.1001 0 0 -2.1001 1549.619 661.6647)">
		<stop  offset="0" style="stop-color:#4BC1F0"/>
		<stop  offset="0.5" style="stop-color:#229EDA"/>
		<stop  offset="1" style="stop-color:#148BCC"/>
	</linearGradient>
	<path fill="url(#SVGID_13_)" d="M97.295,88.518c-0.714,1.134-1.575,2.205-2.562,3.15c-1.008,0.966-1.029,2.561-0.062,3.569
		c0.504,0.505,1.154,0.777,1.806,0.777c0.63,0,1.26-0.232,1.764-0.714c1.807-1.764,3.276-3.801,4.39-6.027
		C101.054,89.106,99.227,88.854,97.295,88.518z"/>
	
		<linearGradient id="SVGID_14_" gradientUnits="userSpaceOnUse" x1="-707.1176" y1="283.608" x2="-707.1176" y2="253.0759" gradientTransform="matrix(2.1001 0 0 -2.1001 1549.619 661.6647)">
		<stop  offset="0" style="stop-color:#4BC1F0"/>
		<stop  offset="0.5" style="stop-color:#229EDA"/>
		<stop  offset="1" style="stop-color:#148BCC"/>
	</linearGradient>
	<path fill="url(#SVGID_14_)" d="M63.903,91.017c0.169,0.273,0.337,0.525,0.525,0.777c0.924-1.261,2.059-2.73,3.297-4.242
		c-0.546-0.987-0.986-2.037-1.322-3.108c-0.421-1.323-1.827-2.079-3.15-1.659s-2.079,1.827-1.659,3.15
		C62.14,87.721,62.917,89.422,63.903,91.017z"/>
	
		<linearGradient id="SVGID_15_" gradientUnits="userSpaceOnUse" x1="-703.261" y1="283.608" x2="-703.261" y2="253.0766" gradientTransform="matrix(2.1001 0 0 -2.1001 1549.619 661.6647)">
		<stop  offset="0" style="stop-color:#4BC1F0"/>
		<stop  offset="0.5" style="stop-color:#229EDA"/>
		<stop  offset="1" style="stop-color:#148BCC"/>
	</linearGradient>
	<path fill="url(#SVGID_15_)" d="M74.047,75.351c0.756-1.681,2.017-3.15,3.675-4.18c1.513-0.944,3.256-1.428,5.041-1.428
		c0.105,0,0.231,0,0.336,0.021c-0.693-2.603-1.617-5.334-2.541-7.77c-0.693-1.807-1.387-3.444-1.995-4.726
		c-0.357-0.735-0.651-1.344-0.925-1.806c-0.042-0.084-0.084-0.168-0.146-0.23c-0.735-1.197-1.743-2.143-2.898-2.794
		c-1.238-0.714-2.667-1.112-4.095-1.112c-1.47,0-2.961,0.398-4.306,1.218c-3.863,2.373-5.04,7.434-2.667,11.298
		C64.87,65.942,69.511,71.341,74.047,75.351z"/>
	
		<linearGradient id="SVGID_16_" gradientUnits="userSpaceOnUse" x1="-689.0701" y1="283.6077" x2="-689.0701" y2="253.0772" gradientTransform="matrix(2.1001 0 0 -2.1001 1549.619 661.6647)">
		<stop  offset="0" style="stop-color:#4BC1F0"/>
		<stop  offset="0.5" style="stop-color:#229EDA"/>
		<stop  offset="1" style="stop-color:#148BCC"/>
	</linearGradient>
	<path fill="url(#SVGID_16_)" d="M106.115,70.563c-0.084,0-0.168,0-0.252,0c-2.479,0.084-9.43,1.386-15.163,3.317
		c0.084,0.126,0.19,0.273,0.273,0.42c1.344,2.185,1.764,4.768,1.176,7.267c-0.252,1.071-0.693,2.079-1.26,2.983
		c2.478,0.672,5.166,1.238,7.643,1.638c1.911,0.315,3.696,0.546,5.146,0.672c0.798,0.064,1.491,0.105,2.037,0.126
		c0.104,0,0.21,0,0.315,0c0.104,0,0.21,0,0.314,0c1.302-0.042,2.521-0.378,3.591-0.966c2.667-1.428,4.452-4.263,4.368-7.497
		C114.158,74.07,110.525,70.563,106.115,70.563z"/>
	
		<linearGradient id="SVGID_17_" gradientUnits="userSpaceOnUse" x1="-702.7551" y1="283.6088" x2="-702.7551" y2="253.0761" gradientTransform="matrix(2.1001 0 0 -2.1001 1549.619 661.6647)">
		<stop  offset="0" style="stop-color:#4BC1F0"/>
		<stop  offset="0.5" style="stop-color:#229EDA"/>
		<stop  offset="1" style="stop-color:#148BCC"/>
	</linearGradient>
	<path fill="url(#SVGID_17_)" d="M74.614,84.402c-0.084-0.146-0.148-0.272-0.232-0.42c-1.827,1.806-3.633,3.864-5.208,5.796
		c-1.239,1.513-2.31,2.94-3.15,4.116c-0.462,0.651-0.84,1.239-1.134,1.723c-0.084,0.146-0.168,0.294-0.23,0.398
		c-0.651,1.197-0.967,2.478-0.967,3.759c-0.042,2.962,1.513,5.859,4.306,7.351c1.239,0.672,2.562,0.987,3.885,0.987
		c2.919,0,5.754-1.575,7.225-4.326c1.197-2.205,3.528-8.946,4.725-14.89c-0.356,0.042-0.692,0.064-1.05,0.064
		C79.444,88.96,76.378,87.259,74.614,84.402z"/>
	
		<linearGradient id="SVGID_18_" gradientUnits="userSpaceOnUse" x1="-698.4757" y1="283.6078" x2="-698.4757" y2="253.0766" gradientTransform="matrix(2.1001 0 0 -2.1001 1549.619 661.6647)">
		<stop  offset="0" style="stop-color:#4BC1F0"/>
		<stop  offset="0.5" style="stop-color:#229EDA"/>
		<stop  offset="1" style="stop-color:#148BCC"/>
	</linearGradient>
	<path fill="url(#SVGID_18_)" d="M86.983,75.309c-0.084-0.105-0.189-0.189-0.273-0.273c-0.252-0.23-0.504-0.42-0.798-0.588
		c-0.188-0.126-0.398-0.231-0.608-0.336c-0.294-0.148-0.609-0.252-0.925-0.358c-0.147-0.042-0.273-0.062-0.42-0.104
		c-0.398-0.084-0.798-0.126-1.196-0.126c-1.051,0-2.101,0.272-3.066,0.86c-1.323,0.819-2.205,2.079-2.562,3.466
		c-0.042,0.146-0.062,0.272-0.105,0.42c-0.063,0.314-0.084,0.63-0.105,0.966c0,0.231,0,0.462,0.042,0.693
		c0.042,0.314,0.084,0.63,0.168,0.944c0.042,0.126,0.084,0.273,0.126,0.399c0.126,0.378,0.315,0.756,0.525,1.113
		c1.113,1.785,3.003,2.772,4.977,2.772c0.546,0,1.092-0.084,1.638-0.252c0.021,0,0.021,0,0.042-0.021
		c0.44-0.126,0.882-0.315,1.281-0.567c0.042-0.021,0.062-0.042,0.104-0.042c0.042-0.021,0.084-0.062,0.105-0.084
		c0.42-0.273,0.776-0.588,1.092-0.924c0.021-0.022,0.042-0.042,0.042-0.042c1.701-1.869,2.037-4.726,0.63-6.973
		C87.529,75.918,87.257,75.603,86.983,75.309z"/>
</g>
<g>
	
		<linearGradient id="SVGID_19_" gradientUnits="userSpaceOnUse" x1="-644.4605" y1="285.4516" x2="-644.4605" y2="256.8071" gradientTransform="matrix(2.1001 0 0 -2.1001 1549.619 661.6647)">
		<stop  offset="0" style="stop-color:#4BC1F0"/>
		<stop  offset="0.5" style="stop-color:#229EDA"/>
		<stop  offset="1" style="stop-color:#148BCC"/>
	</linearGradient>
	<path fill="url(#SVGID_19_)" d="M204.481,98.956c0,0.126-0.021,0.252-0.084,0.336s-0.168,0.168-0.315,0.23
		c-0.146,0.064-0.356,0.106-0.608,0.126c-0.252,0.022-0.567,0.042-0.925,0.042c-0.398,0-0.714-0.021-0.966-0.042
		c-0.252-0.02-0.44-0.062-0.608-0.126c-0.147-0.062-0.273-0.146-0.337-0.23c-0.062-0.084-0.104-0.21-0.104-0.336v-1.827
		c-0.861,0.924-1.743,1.617-2.667,2.121s-1.975,0.756-3.108,0.756c-1.26,0-2.31-0.252-3.192-0.735s-1.574-1.134-2.12-1.974
		c-0.547-0.819-0.945-1.785-1.197-2.898s-0.378-2.268-0.378-3.486c0-1.47,0.146-2.793,0.462-3.969
		c0.315-1.176,0.776-2.163,1.386-3.003c0.609-0.819,1.365-1.47,2.268-1.911c0.902-0.441,1.932-0.672,3.107-0.672
		c0.924,0,1.765,0.189,2.521,0.567s1.491,0.924,2.247,1.658v-8.925c0-0.126,0.042-0.232,0.104-0.336
		c0.063-0.105,0.19-0.189,0.378-0.252c0.189-0.063,0.42-0.126,0.715-0.168c0.294-0.042,0.672-0.063,1.134-0.063
		s0.84,0.021,1.134,0.063s0.525,0.084,0.693,0.168c0.168,0.062,0.294,0.147,0.378,0.252c0.062,0.104,0.104,0.21,0.104,0.336v24.298
		L204.481,98.956L204.481,98.956z M199.861,87.931c-0.672-0.84-1.303-1.491-1.911-1.933c-0.609-0.44-1.26-0.672-1.911-0.672
		c-0.609,0-1.134,0.148-1.554,0.462c-0.441,0.294-0.799,0.715-1.051,1.219c-0.273,0.504-0.462,1.07-0.588,1.7
		c-0.126,0.631-0.189,1.261-0.189,1.911c0,0.693,0.062,1.365,0.168,2.017c0.104,0.65,0.294,1.239,0.546,1.743
		s0.588,0.924,1.008,1.238c0.42,0.315,0.945,0.463,1.596,0.463c0.315,0,0.63-0.042,0.925-0.148c0.314-0.084,0.608-0.252,0.924-0.462
		c0.315-0.21,0.63-0.483,0.966-0.819s0.693-0.756,1.092-1.26v-5.46L199.861,87.931L199.861,87.931z"/>
	
		<linearGradient id="SVGID_20_" gradientUnits="userSpaceOnUse" x1="-636.1266" y1="285.4514" x2="-636.1266" y2="256.8068" gradientTransform="matrix(2.1001 0 0 -2.1001 1549.619 661.6647)">
		<stop  offset="0" style="stop-color:#4BC1F0"/>
		<stop  offset="0.5" style="stop-color:#229EDA"/>
		<stop  offset="1" style="stop-color:#148BCC"/>
	</linearGradient>
	<path fill="url(#SVGID_20_)" d="M216.367,76.884c0,0.945-0.19,1.575-0.567,1.933c-0.378,0.356-1.092,0.546-2.121,0.546
		c-1.05,0-1.742-0.168-2.12-0.525c-0.357-0.357-0.547-0.966-0.547-1.869c0-0.944,0.19-1.596,0.567-1.952
		c0.378-0.357,1.092-0.547,2.142-0.547c1.029,0,1.743,0.169,2.101,0.525C216.178,75.351,216.367,75.981,216.367,76.884z
		 M216.01,98.956c0,0.126-0.042,0.23-0.104,0.315c-0.084,0.084-0.21,0.168-0.378,0.231c-0.168,0.062-0.42,0.104-0.714,0.146
		c-0.294,0.022-0.672,0.042-1.135,0.042c-0.462,0-0.84-0.021-1.134-0.042c-0.294-0.02-0.524-0.084-0.714-0.146
		c-0.188-0.064-0.315-0.148-0.378-0.231c-0.062-0.084-0.105-0.21-0.105-0.315V82.491c0-0.126,0.043-0.23,0.105-0.314
		c0.084-0.084,0.21-0.168,0.378-0.231c0.168-0.062,0.42-0.126,0.714-0.168s0.672-0.063,1.134-0.063c0.463,0,0.841,0.021,1.135,0.063
		s0.524,0.084,0.714,0.168c0.188,0.063,0.314,0.147,0.378,0.231c0.062,0.084,0.104,0.21,0.104,0.314V98.956z"/>
	
		<linearGradient id="SVGID_21_" gradientUnits="userSpaceOnUse" x1="-628.6567" y1="285.4506" x2="-628.6567" y2="256.8078" gradientTransform="matrix(2.1001 0 0 -2.1001 1549.619 661.6647)">
		<stop  offset="0" style="stop-color:#4BC1F0"/>
		<stop  offset="0.5" style="stop-color:#229EDA"/>
		<stop  offset="1" style="stop-color:#148BCC"/>
	</linearGradient>
	<path fill="url(#SVGID_21_)" d="M236.927,99.018c0,0.168-0.063,0.315-0.19,0.399c-0.126,0.104-0.314,0.168-0.588,0.21
		c-0.272,0.042-0.65,0.062-1.176,0.062c-0.546,0-0.966-0.021-1.218-0.062c-0.252-0.042-0.441-0.106-0.546-0.21
		c-0.106-0.105-0.148-0.231-0.148-0.399v-1.323c-0.672,0.735-1.449,1.303-2.331,1.701c-0.861,0.4-1.827,0.609-2.897,0.609
		c-0.883,0-1.681-0.126-2.416-0.336c-0.734-0.232-1.364-0.567-1.91-1.029c-0.547-0.462-0.945-1.008-1.239-1.68
		s-0.441-1.449-0.441-2.331c0-0.967,0.189-1.807,0.567-2.499c0.378-0.714,0.945-1.303,1.68-1.765s1.681-0.798,2.793-1.028
		c1.113-0.231,2.394-0.337,3.864-0.337h1.617v-1.008c0-0.524-0.063-0.966-0.168-1.365c-0.106-0.399-0.273-0.714-0.525-0.966
		c-0.231-0.252-0.566-0.462-0.966-0.566c-0.398-0.126-0.903-0.19-1.491-0.19c-0.776,0-1.47,0.084-2.079,0.252
		c-0.608,0.168-1.154,0.357-1.617,0.567c-0.462,0.21-0.86,0.398-1.176,0.566c-0.315,0.168-0.566,0.252-0.776,0.252
		c-0.126,0-0.252-0.042-0.357-0.126c-0.106-0.084-0.19-0.21-0.252-0.378c-0.063-0.168-0.126-0.357-0.168-0.588
		c-0.042-0.23-0.063-0.504-0.063-0.776c0-0.378,0.021-0.693,0.084-0.903c0.063-0.231,0.189-0.42,0.357-0.609
		c0.168-0.188,0.483-0.378,0.903-0.588c0.44-0.21,0.944-0.42,1.512-0.608c0.588-0.19,1.218-0.337,1.89-0.463
		c0.693-0.126,1.387-0.168,2.121-0.168c1.303,0,2.394,0.126,3.318,0.378c0.924,0.253,1.68,0.651,2.269,1.177
		c0.588,0.524,1.028,1.196,1.302,2.016c0.272,0.819,0.398,1.807,0.398,2.94v11.172H236.927L236.927,99.018z M232.349,91.963h-1.785
		c-0.756,0-1.386,0.062-1.932,0.168c-0.525,0.104-0.967,0.272-1.303,0.504c-0.336,0.21-0.566,0.482-0.734,0.798
		c-0.147,0.315-0.231,0.672-0.231,1.071c0,0.692,0.21,1.239,0.651,1.638c0.44,0.399,1.05,0.588,1.827,0.588
		c0.65,0,1.26-0.168,1.806-0.504s1.113-0.819,1.68-1.47v-2.793L232.349,91.963L232.349,91.963z"/>
	
		<linearGradient id="SVGID_22_" gradientUnits="userSpaceOnUse" x1="-618.7015" y1="285.45" x2="-618.7015" y2="256.8074" gradientTransform="matrix(2.1001 0 0 -2.1001 1549.619 661.6647)">
		<stop  offset="0" style="stop-color:#4BC1F0"/>
		<stop  offset="0.5" style="stop-color:#229EDA"/>
		<stop  offset="1" style="stop-color:#148BCC"/>
	</linearGradient>
	<path fill="url(#SVGID_22_)" d="M258.642,83.604c0,0.588-0.063,1.029-0.21,1.302c-0.126,0.294-0.295,0.42-0.505,0.42h-1.952
		c0.273,0.294,0.462,0.63,0.588,1.008c0.126,0.379,0.168,0.777,0.168,1.177c0,0.966-0.168,1.806-0.483,2.562
		c-0.315,0.735-0.777,1.365-1.386,1.891c-0.588,0.504-1.323,0.902-2.163,1.176c-0.84,0.273-1.785,0.399-2.814,0.399
		c-0.524,0-1.028-0.063-1.512-0.189c-0.483-0.126-0.861-0.273-1.113-0.462c-0.147,0.168-0.273,0.356-0.398,0.567
		c-0.126,0.23-0.168,0.462-0.168,0.734c0,0.358,0.168,0.651,0.482,0.882c0.315,0.231,0.756,0.357,1.323,0.378l4.011,0.148
		c0.945,0.042,1.765,0.168,2.499,0.399c0.735,0.23,1.345,0.546,1.849,0.966s0.882,0.902,1.155,1.491
		c0.273,0.588,0.398,1.238,0.398,1.974c0,0.819-0.168,1.575-0.546,2.311c-0.357,0.714-0.903,1.344-1.617,1.868
		c-0.714,0.525-1.617,0.945-2.688,1.261c-1.071,0.314-2.331,0.462-3.78,0.462c-1.407,0-2.604-0.105-3.592-0.336
		c-0.986-0.231-1.806-0.525-2.435-0.924c-0.63-0.399-1.092-0.861-1.386-1.407s-0.441-1.155-0.441-1.807
		c0-0.398,0.064-0.798,0.168-1.176c0.105-0.378,0.252-0.714,0.462-1.071c0.21-0.336,0.462-0.65,0.756-0.966
		c0.294-0.315,0.63-0.608,1.029-0.882c-0.525-0.294-0.945-0.672-1.239-1.155c-0.294-0.482-0.44-1.028-0.44-1.596
		c0-0.735,0.168-1.386,0.504-1.995c0.336-0.588,0.756-1.134,1.302-1.617c-0.441-0.441-0.777-0.945-1.029-1.554
		c-0.252-0.609-0.378-1.365-0.378-2.269c0-0.966,0.168-1.827,0.504-2.583s0.819-1.407,1.407-1.932
		c0.609-0.525,1.323-0.924,2.163-1.197c0.84-0.273,1.765-0.42,2.773-0.42c0.524,0,1.008,0.021,1.491,0.084
		c0.482,0.062,0.924,0.147,1.322,0.252h5.229c0.21,0,0.378,0.126,0.504,0.399C258.578,82.449,258.642,82.975,258.642,83.604z
		 M253.748,100.678c0-0.546-0.23-0.987-0.672-1.281c-0.441-0.294-1.05-0.462-1.827-0.482l-3.318-0.084
		c-0.315,0.23-0.588,0.462-0.776,0.672c-0.189,0.21-0.357,0.42-0.462,0.63c-0.126,0.189-0.19,0.399-0.232,0.567
		c-0.042,0.188-0.062,0.378-0.062,0.566c0,0.609,0.315,1.093,0.924,1.407c0.63,0.315,1.491,0.483,2.646,0.483
		c0.693,0,1.303-0.064,1.785-0.21c0.483-0.147,0.861-0.336,1.176-0.567c0.294-0.232,0.505-0.504,0.631-0.777
		C253.686,101.308,253.748,101.014,253.748,100.678z M252.656,87.511c0-0.882-0.252-1.575-0.735-2.079
		c-0.504-0.504-1.197-0.735-2.1-0.735c-0.462,0-0.861,0.084-1.197,0.232c-0.336,0.146-0.63,0.356-0.861,0.63
		c-0.23,0.272-0.398,0.566-0.504,0.924c-0.105,0.357-0.168,0.714-0.168,1.092c0,0.84,0.252,1.513,0.735,1.995
		c0.504,0.483,1.176,0.735,2.058,0.735c0.462,0,0.882-0.063,1.218-0.231c0.337-0.147,0.631-0.356,0.861-0.608
		c0.231-0.252,0.399-0.567,0.525-0.903C252.593,88.245,252.656,87.889,252.656,87.511z"/>
	
		<linearGradient id="SVGID_23_" gradientUnits="userSpaceOnUse" x1="-609.6719" y1="285.4506" x2="-609.6719" y2="256.8078" gradientTransform="matrix(2.1001 0 0 -2.1001 1549.619 661.6647)">
		<stop  offset="0" style="stop-color:#4BC1F0"/>
		<stop  offset="0.5" style="stop-color:#229EDA"/>
		<stop  offset="1" style="stop-color:#148BCC"/>
	</linearGradient>
	<path fill="url(#SVGID_23_)" d="M275.547,94.294c0,0.944-0.168,1.764-0.525,2.478s-0.84,1.302-1.491,1.785
		c-0.65,0.483-1.406,0.84-2.268,1.092c-0.882,0.231-1.827,0.357-2.856,0.357c-0.608,0-1.197-0.042-1.764-0.147
		c-0.567-0.084-1.071-0.21-1.512-0.357c-0.441-0.148-0.819-0.294-1.113-0.441c-0.294-0.146-0.504-0.294-0.651-0.42
		c-0.126-0.126-0.23-0.336-0.314-0.608c-0.084-0.273-0.106-0.693-0.106-1.239c0-0.357,0.022-0.651,0.042-0.861
		c0.021-0.21,0.063-0.378,0.105-0.525c0.042-0.126,0.104-0.21,0.188-0.252c0.063-0.042,0.168-0.062,0.273-0.062
		c0.126,0,0.336,0.084,0.608,0.23c0.273,0.147,0.588,0.315,0.987,0.505c0.399,0.189,0.861,0.356,1.386,0.524
		s1.113,0.232,1.785,0.232c0.42,0,0.798-0.042,1.113-0.126c0.336-0.084,0.609-0.21,0.861-0.378s0.42-0.358,0.546-0.609
		c0.126-0.252,0.188-0.525,0.188-0.861c0-0.378-0.126-0.692-0.336-0.944c-0.23-0.273-0.524-0.505-0.902-0.693
		c-0.379-0.19-0.799-0.378-1.281-0.546c-0.483-0.168-0.966-0.358-1.471-0.567c-0.504-0.21-0.986-0.462-1.47-0.714
		c-0.482-0.252-0.903-0.609-1.281-1.008s-0.672-0.861-0.902-1.428c-0.231-0.547-0.336-1.219-0.336-1.995
		c0-0.777,0.146-1.513,0.462-2.163c0.314-0.651,0.756-1.219,1.323-1.701c0.588-0.462,1.28-0.84,2.12-1.092
		c0.841-0.252,1.765-0.378,2.794-0.378c0.524,0,1.028,0.042,1.512,0.104c0.483,0.063,0.924,0.168,1.323,0.273
		c0.398,0.104,0.734,0.23,1.008,0.356c0.272,0.126,0.462,0.232,0.588,0.336c0.126,0.084,0.21,0.189,0.252,0.273
		s0.084,0.21,0.106,0.336c0.021,0.126,0.042,0.294,0.062,0.483c0.021,0.188,0.021,0.42,0.021,0.714c0,0.336,0,0.608-0.021,0.818
		s-0.042,0.378-0.084,0.504s-0.104,0.211-0.168,0.253c-0.062,0.042-0.168,0.062-0.252,0.062c-0.105,0-0.294-0.062-0.525-0.189
		c-0.231-0.126-0.524-0.273-0.882-0.42c-0.356-0.146-0.756-0.294-1.218-0.42c-0.462-0.126-0.987-0.189-1.575-0.189
		c-0.42,0-0.777,0.042-1.092,0.126s-0.567,0.21-0.756,0.378c-0.189,0.168-0.357,0.357-0.441,0.567
		c-0.104,0.21-0.146,0.441-0.146,0.692c0,0.378,0.126,0.714,0.357,0.966s0.546,0.483,0.924,0.693
		c0.378,0.189,0.819,0.378,1.303,0.546c0.482,0.168,0.986,0.357,1.47,0.567c0.504,0.21,0.987,0.44,1.47,0.714
		c0.483,0.272,0.924,0.609,1.303,1.008c0.378,0.4,0.692,0.861,0.924,1.407C275.421,92.907,275.547,93.558,275.547,94.294z"/>
</g>
</svg>
