<?xml version="1.0" encoding="utf-8"?>
<!-- Generator: Adobe Illustrator 25.0.1, SVG Export Plug-In . SVG Version: 6.00 Build 0)  -->
<svg version="1.1" id="Calque_2" xmlns="http://www.w3.org/2000/svg" xmlns:xlink="http://www.w3.org/1999/xlink" x="0px" y="0px"
	 viewBox="0 0 463.393 186.12" enable-background="new 0 0 463.393 186.12" xml:space="preserve">
<g>
	
		<linearGradient id="SVGID_1_" gradientUnits="userSpaceOnUse" x1="148.034" y1="389.912" x2="148.034" y2="389.912" gradientTransform="matrix(2.1001 0 0 -2.1001 94.3405 899.3843)">
		<stop  offset="0" style="stop-color:#2DAAB9"/>
		<stop  offset="1" style="stop-color:#48BCC7"/>
	</linearGradient>
	<path fill="url(#SVGID_1_)" d="M405.227,80.53"/>
	<g>
		
			<linearGradient id="SVGID_2_" gradientUnits="userSpaceOnUse" x1="54.0069" y1="407.6592" x2="52.9333" y2="363.8222" gradientTransform="matrix(2.1001 0 0 -2.1001 94.3405 899.3843)">
			<stop  offset="0" style="stop-color:#E7344D"/>
			<stop  offset="1" style="stop-color:#C30734"/>
		</linearGradient>
		<path fill="url(#SVGID_2_)" d="M224.459,55.499c0,0.485-0.072,0.896-0.242,1.284c-0.17,0.363-0.388,0.678-0.678,0.945
			c-0.291,0.242-0.606,0.436-0.994,0.558c-0.388,0.121-0.775,0.17-1.163,0.17h-3.49c-0.727,0-1.357-0.073-1.89-0.218
			c-0.533-0.145-1.017-0.412-1.478-0.8c-0.436-0.388-0.872-0.896-1.285-1.55c-0.411-0.655-0.896-1.503-1.405-2.544l-10.056-18.901
			c-0.581-1.115-1.188-2.326-1.769-3.635c-0.606-1.308-1.139-2.568-1.624-3.804h-0.072c0.072,1.502,0.145,3.005,0.194,4.483
			c0.048,1.478,0.072,3.029,0.072,4.604v21.13c0,0.218-0.048,0.388-0.169,0.557c-0.122,0.17-0.315,0.315-0.581,0.412
			c-0.291,0.121-0.655,0.194-1.139,0.267c-0.485,0.073-1.091,0.097-1.841,0.097c-0.728,0-1.333-0.024-1.818-0.097
			c-0.484-0.073-0.848-0.145-1.116-0.267c-0.266-0.122-0.46-0.267-0.557-0.412c-0.097-0.17-0.145-0.363-0.145-0.557V20.897
			c0-0.97,0.291-1.721,0.847-2.205c0.583-0.485,1.285-0.727,2.108-0.727h4.41c0.8,0,1.454,0.073,1.988,0.194
			c0.533,0.145,1.017,0.363,1.454,0.678c0.436,0.315,0.824,0.751,1.211,1.284c0.364,0.558,0.752,1.236,1.163,2.036l7.875,14.757
			c0.461,0.896,0.921,1.769,1.358,2.641c0.46,0.872,0.872,1.72,1.308,2.593c0.411,0.872,0.824,1.72,1.211,2.544
			c0.388,0.824,0.775,1.672,1.163,2.496h0.025c-0.073-1.454-0.122-2.98-0.145-4.555c-0.025-1.575-0.048-3.102-0.048-4.532V19.176
			c0-0.218,0.072-0.388,0.194-0.557c0.121-0.17,0.339-0.315,0.63-0.436c0.291-0.122,0.678-0.219,1.163-0.267
			c0.485-0.048,1.091-0.073,1.841-0.073c0.703,0,1.309,0.024,1.769,0.073c0.484,0.048,0.849,0.145,1.114,0.267
			c0.267,0.121,0.436,0.267,0.558,0.436c0.097,0.17,0.145,0.363,0.145,0.557v36.323H224.459z"/>
		
			<linearGradient id="SVGID_3_" gradientUnits="userSpaceOnUse" x1="73.5331" y1="407.1827" x2="72.4594" y2="363.343" gradientTransform="matrix(2.1001 0 0 -2.1001 94.3405 899.3843)">
			<stop  offset="0" style="stop-color:#E7344D"/>
			<stop  offset="1" style="stop-color:#C30734"/>
		</linearGradient>
		<path fill="url(#SVGID_3_)" d="M260.904,55.159c0,0.606-0.025,1.115-0.073,1.527c-0.048,0.412-0.121,0.727-0.242,0.993
			c-0.097,0.242-0.242,0.436-0.388,0.558c-0.145,0.121-0.339,0.17-0.509,0.17h-20.305c-0.678,0-1.26-0.194-1.745-0.606
			c-0.46-0.412-0.702-1.066-0.702-1.987V20.605c0-0.921,0.242-1.575,0.702-1.986c0.461-0.412,1.042-0.606,1.745-0.606h20.16
			c0.194,0,0.364,0.049,0.509,0.146s0.266,0.291,0.363,0.557c0.097,0.267,0.194,0.581,0.243,0.993
			c0.048,0.412,0.072,0.921,0.072,1.551c0,0.581-0.024,1.066-0.072,1.478c-0.05,0.412-0.122,0.727-0.243,0.994
			c-0.097,0.242-0.217,0.436-0.363,0.557s-0.315,0.17-0.509,0.17h-14.418v9.862h12.212c0.194,0,0.364,0.048,0.509,0.169
			s0.291,0.291,0.388,0.533c0.097,0.242,0.17,0.557,0.242,0.969c0.048,0.412,0.073,0.897,0.073,1.478
			c0,0.606-0.025,1.115-0.073,1.502c-0.048,0.388-0.121,0.703-0.242,0.945c-0.097,0.242-0.242,0.412-0.388,0.509
			c-0.145,0.097-0.339,0.145-0.509,0.145h-12.212v11.389h14.539c0.194,0,0.363,0.048,0.508,0.17s0.292,0.291,0.389,0.557
			c0.097,0.243,0.169,0.582,0.242,0.994C260.879,54.045,260.904,54.554,260.904,55.159z"/>
		
			<linearGradient id="SVGID_4_" gradientUnits="userSpaceOnUse" x1="95.9051" y1="406.6357" x2="94.8316" y2="362.7987" gradientTransform="matrix(2.1001 0 0 -2.1001 94.3405 899.3843)">
			<stop  offset="0" style="stop-color:#E7344D"/>
			<stop  offset="1" style="stop-color:#C30734"/>
		</linearGradient>
		<path fill="url(#SVGID_4_)" d="M314.382,56.274c-0.121,0.509-0.291,0.896-0.509,1.211c-0.217,0.291-0.557,0.533-0.993,0.678
			c-0.436,0.145-0.994,0.267-1.697,0.316c-0.678,0.048-1.551,0.073-2.616,0.073c-1.188,0-2.132-0.024-2.86-0.073
			c-0.727-0.048-1.283-0.145-1.696-0.316c-0.411-0.145-0.727-0.388-0.896-0.678c-0.195-0.291-0.34-0.703-0.437-1.211l-6.469-25.613
			h-0.073l-6.13,25.613c-0.097,0.485-0.243,0.872-0.437,1.163c-0.194,0.291-0.484,0.533-0.896,0.703
			c-0.412,0.17-0.969,0.267-1.647,0.339c-0.703,0.048-1.624,0.073-2.763,0.073c-1.211,0-2.18-0.024-2.883-0.073
			c-0.727-0.048-1.285-0.145-1.696-0.316c-0.413-0.145-0.727-0.388-0.897-0.678c-0.194-0.291-0.339-0.703-0.461-1.211l-9.184-35.257
			c-0.194-0.752-0.291-1.333-0.314-1.769c-0.025-0.436,0.097-0.751,0.363-0.993c0.267-0.218,0.678-0.363,1.285-0.412
			c0.581-0.048,1.43-0.073,2.471-0.073c0.97,0,1.745,0.024,2.327,0.048s0.994,0.097,1.285,0.219
			c0.291,0.121,0.485,0.291,0.581,0.509c0.097,0.218,0.194,0.533,0.242,0.921l7.075,30.944h0.025l7.366-30.726
			c0.072-0.388,0.194-0.727,0.339-0.969c0.145-0.242,0.364-0.436,0.678-0.581c0.315-0.145,0.775-0.219,1.333-0.291
			c0.557-0.048,1.308-0.073,2.254-0.073c0.994,0,1.793,0.024,2.399,0.073c0.581,0.048,1.041,0.121,1.382,0.266
			c0.314,0.145,0.557,0.34,0.702,0.582c0.145,0.242,0.267,0.582,0.339,0.993l7.609,30.726h0.072l7.1-30.847
			c0.072-0.339,0.145-0.63,0.242-0.848c0.097-0.242,0.291-0.436,0.581-0.558c0.291-0.145,0.703-0.217,1.26-0.291
			c0.533-0.048,1.309-0.073,2.278-0.073c0.921,0,1.624,0.024,2.132,0.073c0.509,0.048,0.872,0.194,1.114,0.412
			c0.219,0.218,0.339,0.557,0.292,1.017c-0.025,0.436-0.146,1.066-0.34,1.818L314.382,56.274z"/>
	</g>
	<g enable-background="new    ">
		<path fill="#878787" d="M198.095,125.355c0-0.514-0.207-0.926-0.62-1.237c-0.412-0.312-1.034-0.555-1.865-0.732
			c-0.831-0.176-1.476-0.377-1.935-0.605c-0.46-0.229-0.8-0.507-1.021-0.836c-0.223-0.329-0.333-0.727-0.333-1.194
			c0-0.739,0.309-1.349,0.926-1.831c0.618-0.481,1.407-0.722,2.371-0.722c1.046,0,1.884,0.258,2.515,0.774
			c0.633,0.517,0.949,1.191,0.949,2.021h-1.039c0-0.548-0.23-1.004-0.688-1.368c-0.459-0.363-1.038-0.545-1.736-0.545
			c-0.681,0-1.227,0.152-1.64,0.455c-0.414,0.303-0.619,0.696-0.619,1.181c0,0.468,0.171,0.83,0.514,1.086
			c0.344,0.257,0.97,0.492,1.88,0.707c0.908,0.213,1.589,0.441,2.043,0.684c0.453,0.242,0.789,0.533,1.008,0.874
			c0.219,0.34,0.329,0.753,0.329,1.237c0,0.791-0.319,1.423-0.957,1.896c-0.638,0.473-1.47,0.71-2.498,0.71
			c-1.091,0-1.974-0.265-2.652-0.792c-0.678-0.528-1.018-1.197-1.018-2.005h1.039c0.039,0.606,0.296,1.078,0.766,1.415
			c0.47,0.338,1.092,0.507,1.865,0.507c0.721,0,1.305-0.159,1.749-0.477C197.872,126.241,198.095,125.839,198.095,125.355z"/>
		<path fill="#878787" d="M208.994,123.147c0,1.46-0.322,2.619-0.969,3.476c-0.647,0.856-1.512,1.286-2.597,1.286
			c-1.281,0-2.262-0.451-2.943-1.351v4.779h-1.03v-12.968h0.961l0.052,1.325c0.675-0.998,1.653-1.497,2.934-1.497
			c1.12,0,1.999,0.424,2.637,1.272c0.638,0.849,0.956,2.026,0.956,3.533V123.147z M207.955,122.966c0-1.194-0.245-2.139-0.735-2.831
			c-0.491-0.693-1.175-1.039-2.053-1.039c-0.634,0-1.18,0.152-1.636,0.459c-0.455,0.305-0.804,0.75-1.047,1.333v4.493
			c0.248,0.537,0.603,0.947,1.065,1.229c0.462,0.283,1.007,0.425,1.636,0.425c0.872,0,1.551-0.348,2.04-1.043
			C207.712,125.296,207.955,124.288,207.955,122.966z"/>
		<path fill="#878787" d="M214.916,127.909c-0.797,0-1.517-0.196-2.161-0.589c-0.642-0.392-1.143-0.939-1.501-1.641
			c-0.358-0.701-0.536-1.487-0.536-2.358v-0.373c0-0.9,0.174-1.71,0.523-2.432c0.349-0.722,0.836-1.289,1.459-1.701
			c0.623-0.412,1.298-0.619,2.025-0.619c1.138,0,2.04,0.388,2.707,1.164c0.666,0.776,0.998,1.837,0.998,3.181v0.58h-6.682v0.2
			c0,1.061,0.304,1.946,0.913,2.654c0.609,0.707,1.375,1.06,2.299,1.06c0.554,0,1.043-0.101,1.467-0.303s0.809-0.525,1.156-0.97
			l0.649,0.494C217.47,127.358,216.364,127.909,214.916,127.909z M214.725,119.078c-0.779,0-1.436,0.286-1.97,0.858
			c-0.533,0.571-0.858,1.339-0.974,2.302h5.618v-0.112c-0.028-0.9-0.285-1.634-0.771-2.199
			C216.145,119.361,215.51,119.078,214.725,119.078z M215.876,114.438h1.255l-1.999,2.425l-0.909-0.005L215.876,114.438z"/>
		<path fill="#878787" d="M223.911,127.035c0.721,0,1.325-0.204,1.813-0.611c0.488-0.407,0.752-0.933,0.792-1.58h0.996
			c-0.029,0.571-0.208,1.092-0.536,1.563c-0.329,0.47-0.766,0.838-1.312,1.103c-0.545,0.266-1.131,0.399-1.753,0.399
			c-1.23,0-2.204-0.427-2.923-1.281c-0.718-0.854-1.077-2.004-1.077-3.446v-0.312c0-0.923,0.162-1.74,0.485-2.45
			c0.323-0.71,0.786-1.257,1.39-1.645c0.602-0.386,1.308-0.579,2.116-0.579c1.028,0,1.874,0.305,2.541,0.917
			c0.666,0.612,1.022,1.416,1.069,2.415h-0.996c-0.046-0.732-0.311-1.324-0.792-1.774c-0.481-0.451-1.09-0.676-1.822-0.676
			c-0.935,0-1.661,0.338-2.177,1.013c-0.516,0.675-0.775,1.622-0.775,2.84v0.303c0,1.194,0.259,2.126,0.775,2.797
			C222.241,126.7,222.969,127.035,223.911,127.035z"/>
		<path fill="#878787" d="M229.52,115.663c0-0.195,0.063-0.359,0.19-0.495c0.127-0.134,0.301-0.202,0.519-0.202
			c0.22,0,0.394,0.068,0.524,0.202c0.13,0.135,0.195,0.3,0.195,0.495c0,0.196-0.065,0.36-0.195,0.491
			c-0.13,0.132-0.304,0.197-0.524,0.197c-0.219,0-0.392-0.065-0.519-0.197C229.583,116.022,229.52,115.859,229.52,115.663z
			 M230.741,127.736h-1.039v-9.367h1.039V127.736z"/>
		<path fill="#878787" d="M239.467,127.736c-0.104-0.294-0.171-0.73-0.199-1.307c-0.364,0.473-0.826,0.838-1.389,1.095
			c-0.563,0.257-1.158,0.385-1.787,0.385c-0.901,0-1.629-0.251-2.186-0.754c-0.557-0.501-0.836-1.137-0.836-1.904
			c0-0.912,0.38-1.633,1.138-2.165c0.759-0.531,1.816-0.795,3.173-0.795h1.88v-1.065c0-0.669-0.207-1.197-0.62-1.581
			c-0.413-0.383-1.014-0.575-1.805-0.575c-0.721,0-1.318,0.185-1.792,0.553c-0.473,0.37-0.71,0.813-0.71,1.333l-1.039-0.008
			c0-0.745,0.347-1.389,1.039-1.935c0.692-0.545,1.544-0.818,2.553-0.818c1.046,0,1.868,0.26,2.472,0.783
			c0.603,0.523,0.913,1.251,0.931,2.186v4.432c0,0.907,0.095,1.584,0.285,2.035v0.104H239.467z M236.212,126.991
			c0.693,0,1.312-0.167,1.857-0.501c0.545-0.335,0.942-0.782,1.191-1.342v-2.061h-1.853c-1.034,0.012-1.841,0.201-2.425,0.568
			c-0.583,0.366-0.874,0.87-0.874,1.51c0,0.525,0.195,0.961,0.585,1.307C235.082,126.818,235.589,126.991,236.212,126.991z"/>
		<path fill="#878787" d="M244.211,127.736h-1.039v-13.297h1.039V127.736z"/>
		<path fill="#878787" d="M246.964,115.663c0-0.195,0.063-0.359,0.191-0.495c0.126-0.134,0.3-0.202,0.519-0.202
			c0.219,0,0.393,0.068,0.524,0.202c0.13,0.135,0.194,0.3,0.194,0.495c0,0.196-0.064,0.36-0.194,0.491
			c-0.131,0.132-0.305,0.197-0.524,0.197c-0.22,0-0.393-0.065-0.519-0.197C247.027,116.022,246.964,115.859,246.964,115.663z
			 M248.184,127.736h-1.039v-9.367h1.039V127.736z"/>
		<path fill="#878787" d="M256.607,125.355c0-0.514-0.206-0.926-0.619-1.237c-0.414-0.312-1.034-0.555-1.866-0.732
			c-0.832-0.176-1.476-0.377-1.935-0.605c-0.459-0.229-0.8-0.507-1.022-0.836c-0.222-0.329-0.332-0.727-0.332-1.194
			c0-0.739,0.308-1.349,0.926-1.831c0.617-0.481,1.407-0.722,2.372-0.722c1.045,0,1.883,0.258,2.514,0.774
			c0.632,0.517,0.949,1.191,0.949,2.021h-1.039c0-0.548-0.23-1.004-0.688-1.368c-0.459-0.363-1.038-0.545-1.735-0.545
			c-0.682,0-1.228,0.152-1.641,0.455c-0.412,0.303-0.62,0.696-0.62,1.181c0,0.468,0.172,0.83,0.516,1.086
			c0.343,0.257,0.969,0.492,1.878,0.707c0.908,0.213,1.59,0.441,2.043,0.684c0.453,0.242,0.789,0.533,1.008,0.874
			c0.219,0.34,0.329,0.753,0.329,1.237c0,0.791-0.319,1.423-0.957,1.896c-0.638,0.473-1.47,0.71-2.498,0.71
			c-1.091,0-1.975-0.265-2.652-0.792c-0.678-0.528-1.018-1.197-1.018-2.005h1.039c0.041,0.606,0.295,1.078,0.766,1.415
			c0.47,0.338,1.092,0.507,1.865,0.507c0.722,0,1.305-0.159,1.749-0.477C256.385,126.241,256.607,125.839,256.607,125.355z"/>
		<path fill="#878787" d="M261.584,115.971v2.398h1.939v0.848h-1.939v6.249c0,0.519,0.095,0.907,0.282,1.161
			c0.188,0.255,0.5,0.382,0.94,0.382c0.172,0,0.453-0.029,0.839-0.087l0.043,0.841c-0.27,0.097-0.64,0.146-1.108,0.146
			c-0.71,0-1.226-0.206-1.549-0.62c-0.323-0.412-0.484-1.02-0.484-1.822v-6.25h-1.723v-0.848h1.723v-2.398H261.584z"/>
		<path fill="#878787" d="M269.3,127.909c-0.797,0-1.517-0.196-2.16-0.589c-0.643-0.392-1.145-0.939-1.502-1.641
			c-0.358-0.701-0.537-1.487-0.537-2.358v-0.373c0-0.9,0.175-1.71,0.524-2.432c0.349-0.722,0.836-1.289,1.459-1.701
			c0.623-0.412,1.298-0.619,2.026-0.619c1.137,0,2.038,0.388,2.704,1.164c0.667,0.776,1.001,1.837,1.001,3.181v0.58h-6.683v0.2
			c0,1.061,0.304,1.946,0.913,2.654c0.61,0.707,1.375,1.06,2.299,1.06c0.554,0,1.043-0.101,1.467-0.303
			c0.425-0.202,0.81-0.525,1.156-0.97l0.649,0.494C271.853,127.358,270.747,127.909,269.3,127.909z M269.109,119.078
			c-0.78,0-1.437,0.286-1.97,0.858c-0.534,0.571-0.859,1.339-0.975,2.302h5.62v-0.112c-0.029-0.9-0.286-1.634-0.771-2.199
			C270.529,119.361,269.893,119.078,269.109,119.078z"/>
		<path fill="#878787" d="M280.44,125.355c0-0.514-0.206-0.926-0.619-1.237c-0.414-0.312-1.034-0.555-1.866-0.732
			c-0.832-0.176-1.476-0.377-1.935-0.605c-0.459-0.229-0.8-0.507-1.022-0.836c-0.222-0.329-0.332-0.727-0.332-1.194
			c0-0.739,0.308-1.349,0.926-1.831c0.618-0.481,1.407-0.722,2.372-0.722c1.045,0,1.883,0.258,2.514,0.774
			c0.632,0.517,0.949,1.191,0.949,2.021h-1.039c0-0.548-0.23-1.004-0.689-1.368c-0.459-0.363-1.038-0.545-1.735-0.545
			c-0.682,0-1.228,0.152-1.641,0.455c-0.412,0.303-0.62,0.696-0.62,1.181c0,0.468,0.172,0.83,0.516,1.086
			c0.343,0.257,0.969,0.492,1.878,0.707c0.908,0.213,1.59,0.441,2.043,0.684c0.453,0.242,0.789,0.533,1.008,0.874
			c0.219,0.34,0.329,0.753,0.329,1.237c0,0.791-0.319,1.423-0.957,1.896c-0.638,0.473-1.47,0.71-2.498,0.71
			c-1.091,0-1.975-0.265-2.653-0.792c-0.678-0.528-1.017-1.197-1.017-2.005h1.039c0.04,0.606,0.295,1.078,0.766,1.415
			c0.47,0.338,1.092,0.507,1.865,0.507c0.722,0,1.305-0.159,1.749-0.477C280.218,126.241,280.44,125.839,280.44,125.355z"/>
		<path fill="#878787" d="M287.704,122.966c0-1.455,0.325-2.613,0.974-3.476c0.649-0.862,1.531-1.294,2.645-1.294
			c1.264,0,2.228,0.499,2.891,1.497v-5.255h1.03v13.297h-0.969l-0.043-1.246c-0.665,0.947-1.64,1.42-2.926,1.42
			c-1.079,0-1.949-0.435-2.611-1.304c-0.66-0.868-0.99-2.041-0.99-3.519V122.966z M288.751,123.147c0,1.194,0.24,2.138,0.719,2.827
			c0.479,0.69,1.154,1.034,2.026,1.034c1.275,0,2.181-0.563,2.718-1.688v-4.398c-0.536-1.218-1.437-1.827-2.701-1.827
			c-0.871,0-1.549,0.341-2.034,1.025C288.993,120.806,288.751,121.814,288.751,123.147z"/>
		<path fill="#878787" d="M301.598,127.909c-0.797,0-1.517-0.196-2.16-0.589c-0.643-0.392-1.145-0.939-1.502-1.641
			c-0.358-0.701-0.537-1.487-0.537-2.358v-0.373c0-0.9,0.175-1.71,0.524-2.432c0.349-0.722,0.836-1.289,1.459-1.701
			c0.623-0.412,1.298-0.619,2.026-0.619c1.137,0,2.038,0.388,2.704,1.164c0.667,0.776,1.001,1.837,1.001,3.181v0.58h-6.683v0.2
			c0,1.061,0.304,1.946,0.913,2.654c0.61,0.707,1.375,1.06,2.299,1.06c0.554,0,1.043-0.101,1.467-0.303
			c0.425-0.202,0.81-0.525,1.156-0.97l0.649,0.494C304.152,127.358,303.046,127.909,301.598,127.909z M301.408,119.078
			c-0.78,0-1.437,0.286-1.97,0.858c-0.534,0.571-0.859,1.339-0.975,2.302h5.619v-0.112c-0.029-0.9-0.286-1.634-0.771-2.199
			C302.828,119.361,302.192,119.078,301.408,119.078z"/>
		<path fill="#878787" d="M312.601,127.736h-1.039v-13.297h1.039V127.736z"/>
		<path fill="#878787" d="M315.215,118.222l-0.615-0.451c0.519-0.698,0.788-1.431,0.806-2.198v-1.135h1.021v0.874
			C316.426,116.519,316.023,117.488,315.215,118.222z"/>
		<path fill="#878787" d="M318.505,115.663c0-0.195,0.063-0.359,0.19-0.495c0.126-0.134,0.3-0.202,0.52-0.202
			c0.219,0,0.393,0.068,0.524,0.202c0.13,0.135,0.194,0.3,0.194,0.495c0,0.196-0.064,0.36-0.194,0.491
			c-0.131,0.132-0.305,0.197-0.524,0.197c-0.22,0-0.393-0.065-0.52-0.197C318.568,116.022,318.505,115.859,318.505,115.663z
			 M319.725,127.736h-1.039v-9.367h1.039V127.736z"/>
		<path fill="#878787" d="M323.525,118.369l0.035,1.602c0.352-0.578,0.791-1.017,1.316-1.321c0.525-0.303,1.105-0.454,1.74-0.454
			c1.004,0,1.751,0.283,2.242,0.848c0.49,0.566,0.738,1.413,0.745,2.544v6.147h-1.031v-6.155c-0.006-0.837-0.183-1.46-0.532-1.871
			c-0.349-0.409-0.908-0.614-1.676-0.614c-0.64,0-1.207,0.201-1.7,0.602c-0.494,0.401-0.859,0.942-1.095,1.623v6.415h-1.03v-9.367
			H323.525z"/>
		<path fill="#878787" d="M331.862,122.966c0-1.466,0.325-2.628,0.974-3.484c0.649-0.857,1.531-1.286,2.645-1.286
			c1.276,0,2.245,0.507,2.909,1.523l0.052-1.351h0.969v9.177c0,1.206-0.338,2.161-1.013,2.865c-0.675,0.704-1.59,1.056-2.744,1.056
			c-0.653,0-1.274-0.145-1.866-0.437c-0.592-0.291-1.057-0.679-1.398-1.164l0.58-0.623c0.734,0.9,1.605,1.35,2.614,1.35
			c0.867,0,1.542-0.255,2.026-0.766c0.484-0.51,0.736-1.219,0.753-2.125v-1.178c-0.664,0.924-1.63,1.386-2.899,1.386
			c-1.085,0-1.957-0.433-2.614-1.299c-0.658-0.865-0.987-2.034-0.987-3.506V122.966z M332.909,123.147
			c0,1.194,0.24,2.138,0.719,2.827c0.479,0.69,1.154,1.034,2.026,1.034c1.275,0,2.178-0.571,2.709-1.715v-4.354
			c-0.242-0.601-0.592-1.057-1.047-1.373c-0.456-0.314-1.004-0.471-1.645-0.471c-0.871,0-1.549,0.341-2.034,1.025
			C333.151,120.806,332.909,121.814,332.909,123.147z"/>
		<path fill="#878787" d="M345.74,127.909c-0.797,0-1.517-0.196-2.16-0.589c-0.643-0.392-1.145-0.939-1.502-1.641
			c-0.358-0.701-0.538-1.487-0.538-2.358v-0.373c0-0.9,0.175-1.71,0.524-2.432c0.349-0.722,0.836-1.289,1.459-1.701
			c0.623-0.412,1.298-0.619,2.026-0.619c1.137,0,2.038,0.388,2.704,1.164c0.667,0.776,1.001,1.837,1.001,3.181v0.58h-6.683v0.2
			c0,1.061,0.304,1.946,0.913,2.654c0.61,0.707,1.375,1.06,2.299,1.06c0.554,0,1.043-0.101,1.467-0.303
			c0.425-0.202,0.81-0.525,1.156-0.97l0.649,0.494C348.294,127.358,347.188,127.909,345.74,127.909z M345.55,119.078
			c-0.78,0-1.437,0.286-1.97,0.858c-0.534,0.571-0.859,1.339-0.975,2.302h5.619v-0.112c-0.029-0.9-0.286-1.634-0.771-2.199
			C346.969,119.361,346.334,119.078,345.55,119.078z M346.7,114.438h1.255l-1.999,2.425l-0.909-0.005L346.7,114.438z"/>
		<path fill="#878787" d="M352.258,118.369l0.035,1.602c0.352-0.578,0.791-1.017,1.316-1.321s1.105-0.454,1.74-0.454
			c1.004,0,1.751,0.283,2.242,0.848c0.49,0.566,0.738,1.413,0.745,2.544v6.147h-1.031v-6.155c-0.006-0.837-0.183-1.46-0.532-1.871
			c-0.349-0.409-0.908-0.614-1.676-0.614c-0.64,0-1.207,0.201-1.7,0.602c-0.493,0.401-0.859,0.942-1.095,1.623v6.415h-1.03v-9.367
			H352.258z"/>
		<path fill="#878787" d="M360.95,115.663c0-0.195,0.063-0.359,0.19-0.495c0.126-0.134,0.3-0.202,0.519-0.202
			c0.219,0,0.393,0.068,0.524,0.202c0.13,0.135,0.194,0.3,0.194,0.495c0,0.196-0.064,0.36-0.194,0.491
			c-0.131,0.132-0.305,0.197-0.524,0.197c-0.22,0-0.393-0.065-0.519-0.197C361.013,116.022,360.95,115.859,360.95,115.663z
			 M362.17,127.736h-1.039v-9.367h1.039V127.736z"/>
		<path fill="#878787" d="M368.612,127.909c-0.797,0-1.517-0.196-2.16-0.589c-0.643-0.392-1.145-0.939-1.502-1.641
			c-0.358-0.701-0.537-1.487-0.537-2.358v-0.373c0-0.9,0.175-1.71,0.524-2.432c0.349-0.722,0.836-1.289,1.459-1.701
			c0.623-0.412,1.298-0.619,2.026-0.619c1.137,0,2.038,0.388,2.704,1.164c0.667,0.776,1.001,1.837,1.001,3.181v0.58h-6.683v0.2
			c0,1.061,0.304,1.946,0.913,2.654c0.61,0.707,1.375,1.06,2.299,1.06c0.554,0,1.043-0.101,1.467-0.303
			c0.425-0.202,0.81-0.525,1.156-0.97l0.649,0.494C371.165,127.358,370.06,127.909,368.612,127.909z M368.422,119.078
			c-0.78,0-1.437,0.286-1.97,0.858c-0.534,0.571-0.859,1.339-0.975,2.302h5.619v-0.112c-0.029-0.9-0.286-1.634-0.771-2.199
			C369.842,119.361,369.206,119.078,368.422,119.078z"/>
		<path fill="#878787" d="M378.472,119.252c-0.22-0.041-0.453-0.061-0.701-0.061c-0.647,0-1.193,0.18-1.641,0.541
			c-0.447,0.361-0.766,0.885-0.957,1.572v6.432h-1.03v-9.367h1.012l0.018,1.49c0.548-1.109,1.428-1.662,2.64-1.662
			c0.288,0,0.516,0.037,0.684,0.113L378.472,119.252z"/>
		<path fill="#878787" d="M380.047,115.663c0-0.195,0.063-0.359,0.19-0.495c0.126-0.134,0.3-0.202,0.519-0.202
			c0.219,0,0.393,0.068,0.524,0.202c0.13,0.135,0.194,0.3,0.194,0.495c0,0.196-0.064,0.36-0.194,0.491
			c-0.131,0.132-0.305,0.197-0.524,0.197c-0.22,0-0.393-0.065-0.519-0.197C380.11,116.022,380.047,115.859,380.047,115.663z
			 M381.267,127.736h-1.039v-9.367h1.039V127.736z"/>
		<path fill="#878787" d="M387.709,127.909c-0.797,0-1.517-0.196-2.16-0.589c-0.643-0.392-1.145-0.939-1.502-1.641
			c-0.358-0.701-0.537-1.487-0.537-2.358v-0.373c0-0.9,0.175-1.71,0.524-2.432c0.349-0.722,0.836-1.289,1.459-1.701
			c0.623-0.412,1.298-0.619,2.026-0.619c1.137,0,2.038,0.388,2.704,1.164c0.667,0.776,1.001,1.837,1.001,3.181v0.58h-6.683v0.2
			c0,1.061,0.304,1.946,0.913,2.654c0.61,0.707,1.375,1.06,2.299,1.06c0.554,0,1.043-0.101,1.467-0.303
			c0.425-0.202,0.81-0.525,1.156-0.97l0.649,0.494C390.263,127.358,389.157,127.909,387.709,127.909z M387.519,119.078
			c-0.78,0-1.437,0.286-1.97,0.858c-0.534,0.571-0.859,1.339-0.975,2.302h5.62v-0.112c-0.029-0.9-0.286-1.634-0.771-2.199
			C388.939,119.361,388.303,119.078,387.519,119.078z"/>
		<path fill="#878787" d="M393.023,130.091l-0.614-0.451c0.525-0.704,0.797-1.434,0.814-2.19v-1.341h1.013v1.082
			C394.236,128.39,393.831,129.357,393.023,130.091z"/>
	</g>
	<g enable-background="new    ">
		<path fill="#878787" d="M192.069,144.24c0-1.455,0.326-2.613,0.975-3.476c0.649-0.862,1.531-1.294,2.645-1.294
			c1.264,0,2.228,0.499,2.891,1.497v-5.255h1.03v13.297h-0.969l-0.043-1.246c-0.665,0.947-1.64,1.42-2.927,1.42
			c-1.078,0-1.948-0.435-2.61-1.304c-0.66-0.868-0.992-2.041-0.992-3.519V144.24z M193.117,144.421c0,1.194,0.24,2.137,0.719,2.827
			c0.479,0.69,1.154,1.034,2.026,1.034c1.276,0,2.182-0.563,2.718-1.688v-4.398c-0.536-1.218-1.437-1.827-2.701-1.827
			c-0.871,0-1.549,0.341-2.034,1.025C193.361,142.08,193.117,143.088,193.117,144.421z"/>
		<path fill="#878787" d="M208.363,147.823c-0.624,0.907-1.619,1.36-2.987,1.36c-0.998,0-1.757-0.291-2.277-0.87
			c-0.518-0.58-0.784-1.439-0.795-2.576v-6.095h1.03v5.965c0,1.783,0.721,2.675,2.163,2.675c1.501,0,2.451-0.621,2.849-1.862v-6.779
			h1.039v9.367h-1.004L208.363,147.823z"/>
		<path fill="#878787" d="M215.971,144.24c0-1.455,0.326-2.613,0.975-3.476c0.649-0.862,1.531-1.294,2.645-1.294
			c1.264,0,2.228,0.499,2.891,1.497v-5.255h1.03v13.297h-0.969l-0.043-1.246c-0.665,0.947-1.64,1.42-2.927,1.42
			c-1.078,0-1.948-0.435-2.61-1.304c-0.66-0.868-0.992-2.041-0.992-3.519V144.24z M217.019,144.421c0,1.194,0.24,2.137,0.719,2.827
			c0.479,0.69,1.154,1.034,2.026,1.034c1.275,0,2.181-0.563,2.718-1.688v-4.398c-0.536-1.218-1.437-1.827-2.701-1.827
			c-0.871,0-1.549,0.341-2.034,1.025C217.262,142.08,217.019,143.088,217.019,144.421z"/>
		<path fill="#878787" d="M226.178,136.937c0-0.195,0.064-0.359,0.192-0.495c0.126-0.134,0.3-0.202,0.518-0.202
			c0.221,0,0.394,0.068,0.525,0.202c0.13,0.135,0.194,0.3,0.194,0.495c0,0.196-0.064,0.36-0.194,0.491
			c-0.131,0.132-0.304,0.197-0.525,0.197c-0.219,0-0.392-0.065-0.518-0.197C226.242,137.297,226.178,137.133,226.178,136.937z
			 M227.399,149.01h-1.039v-9.367h1.039V149.01z"/>
		<path fill="#878787" d="M236.125,149.01c-0.104-0.294-0.171-0.73-0.199-1.307c-0.364,0.473-0.826,0.838-1.389,1.095
			c-0.563,0.257-1.158,0.385-1.787,0.385c-0.902,0-1.629-0.251-2.186-0.754c-0.557-0.501-0.836-1.137-0.836-1.904
			c0-0.912,0.38-1.633,1.138-2.165c0.759-0.531,1.816-0.795,3.173-0.795h1.879V142.5c0-0.669-0.207-1.197-0.62-1.581
			c-0.413-0.383-1.014-0.575-1.805-0.575c-0.721,0-1.318,0.185-1.792,0.553c-0.473,0.37-0.71,0.813-0.71,1.333l-1.039-0.008
			c0-0.745,0.347-1.389,1.039-1.935c0.692-0.545,1.544-0.818,2.553-0.818c1.046,0,1.868,0.26,2.472,0.783
			c0.603,0.523,0.913,1.251,0.931,2.186v4.432c0,0.907,0.095,1.584,0.285,2.035v0.104H236.125z M232.87,148.265
			c0.693,0,1.312-0.167,1.857-0.501c0.545-0.335,0.942-0.782,1.191-1.342v-2.061h-1.853c-1.034,0.012-1.841,0.201-2.425,0.568
			c-0.582,0.366-0.874,0.87-0.874,1.51c0,0.525,0.195,0.961,0.585,1.307C231.74,148.093,232.247,148.265,232.87,148.265z"/>
		<path fill="#878787" d="M239.294,144.24c0-1.466,0.324-2.628,0.973-3.484c0.649-0.857,1.531-1.286,2.645-1.286
			c1.276,0,2.245,0.507,2.909,1.523l0.052-1.351h0.969v9.177c0,1.206-0.338,2.161-1.013,2.865c-0.675,0.704-1.59,1.056-2.744,1.056
			c-0.652,0-1.274-0.145-1.866-0.437c-0.592-0.291-1.058-0.679-1.398-1.164l0.58-0.623c0.732,0.9,1.605,1.35,2.614,1.35
			c0.867,0,1.542-0.255,2.026-0.766c0.485-0.51,0.736-1.219,0.753-2.125v-1.178c-0.664,0.924-1.63,1.386-2.899,1.386
			c-1.085,0-1.957-0.433-2.614-1.299c-0.658-0.865-0.987-2.034-0.987-3.506V144.24z M240.342,144.421
			c0,1.194,0.239,2.137,0.718,2.827c0.479,0.69,1.154,1.034,2.026,1.034c1.276,0,2.178-0.571,2.709-1.715v-4.354
			c-0.242-0.601-0.591-1.057-1.047-1.373c-0.456-0.314-1.004-0.471-1.645-0.471c-0.871,0-1.549,0.341-2.034,1.025
			C240.583,142.08,240.342,143.088,240.342,144.421z"/>
		<path fill="#878787" d="M250.53,139.643l0.035,1.602c0.352-0.578,0.791-1.017,1.316-1.321c0.525-0.303,1.105-0.454,1.74-0.454
			c1.004,0,1.751,0.283,2.242,0.848c0.49,0.566,0.738,1.413,0.745,2.544v6.147h-1.031v-6.155c-0.006-0.837-0.183-1.46-0.532-1.871
			c-0.349-0.409-0.908-0.614-1.676-0.614c-0.64,0-1.207,0.201-1.7,0.602c-0.494,0.401-0.859,0.942-1.095,1.623v6.415h-1.03v-9.367
			H250.53z"/>
		<path fill="#878787" d="M258.711,144.188c0-0.9,0.175-1.712,0.524-2.433c0.349-0.721,0.843-1.282,1.481-1.683
			c0.638-0.401,1.36-0.602,2.169-0.602c1.246,0,2.256,0.437,3.029,1.312c0.774,0.874,1.161,2.033,1.161,3.475v0.216
			c0,0.906-0.175,1.722-0.524,2.446c-0.349,0.723-0.841,1.282-1.476,1.674c-0.634,0.393-1.359,0.589-2.172,0.589
			c-1.241,0-2.249-0.437-3.026-1.312c-0.776-0.874-1.165-2.033-1.165-3.476V144.188z M259.75,144.473c0,1.12,0.291,2.04,0.87,2.757
			c0.58,0.719,1.341,1.078,2.282,1.078c0.935,0,1.692-0.359,2.273-1.078c0.579-0.718,0.87-1.667,0.87-2.844v-0.198
			c0-0.715-0.133-1.371-0.399-1.965c-0.265-0.595-0.638-1.055-1.117-1.382c-0.479-0.326-1.027-0.489-1.644-0.489
			c-0.924,0-1.677,0.363-2.26,1.086c-0.583,0.725-0.874,1.673-0.874,2.844V144.473z"/>
		<path fill="#878787" d="M274.822,146.629c0-0.514-0.206-0.926-0.619-1.237c-0.414-0.312-1.034-0.555-1.866-0.732
			c-0.832-0.176-1.476-0.377-1.935-0.605c-0.459-0.229-0.8-0.507-1.022-0.836c-0.222-0.329-0.332-0.727-0.332-1.194
			c0-0.739,0.308-1.349,0.926-1.831c0.618-0.481,1.407-0.722,2.372-0.722c1.044,0,1.883,0.258,2.514,0.774
			c0.632,0.517,0.949,1.191,0.949,2.021h-1.039c0-0.548-0.23-1.004-0.689-1.368c-0.459-0.363-1.038-0.545-1.735-0.545
			c-0.682,0-1.228,0.152-1.641,0.455s-0.62,0.696-0.62,1.181c0,0.468,0.172,0.83,0.516,1.086c0.343,0.257,0.969,0.492,1.878,0.707
			c0.908,0.213,1.59,0.441,2.043,0.684c0.453,0.242,0.789,0.533,1.008,0.874c0.219,0.34,0.329,0.753,0.329,1.237
			c0,0.791-0.319,1.423-0.957,1.896c-0.638,0.473-1.471,0.71-2.498,0.71c-1.091,0-1.975-0.265-2.652-0.792
			c-0.678-0.528-1.017-1.197-1.017-2.005h1.039c0.041,0.606,0.295,1.078,0.766,1.415c0.47,0.338,1.092,0.507,1.865,0.507
			c0.722,0,1.305-0.159,1.749-0.477C274.6,147.516,274.822,147.113,274.822,146.629z"/>
		<path fill="#878787" d="M279.799,137.245v2.398h1.939v0.848h-1.939v6.249c0,0.519,0.095,0.907,0.282,1.161
			c0.188,0.255,0.5,0.382,0.94,0.382c0.173,0,0.453-0.029,0.84-0.087l0.043,0.841c-0.27,0.097-0.64,0.146-1.108,0.146
			c-0.71,0-1.226-0.206-1.549-0.62c-0.323-0.412-0.485-1.02-0.485-1.822v-6.25h-1.723v-0.848h1.723v-2.398H279.799z"/>
		<path fill="#878787" d="M283.825,136.937c0-0.195,0.063-0.359,0.19-0.495c0.126-0.134,0.3-0.202,0.519-0.202
			c0.219,0,0.393,0.068,0.524,0.202c0.13,0.135,0.194,0.3,0.194,0.495c0,0.196-0.064,0.36-0.194,0.491
			c-0.131,0.132-0.305,0.197-0.524,0.197c-0.22,0-0.393-0.065-0.519-0.197C283.888,137.297,283.825,137.133,283.825,136.937z
			 M285.046,149.01h-1.039v-9.367h1.039V149.01z"/>
		<path fill="#878787" d="M291.322,148.309c0.721,0,1.325-0.204,1.813-0.611c0.488-0.407,0.751-0.933,0.792-1.58h0.996
			c-0.029,0.571-0.208,1.092-0.537,1.563c-0.329,0.47-0.766,0.838-1.312,1.103c-0.545,0.266-1.129,0.399-1.752,0.399
			c-1.229,0-2.204-0.427-2.922-1.281c-0.719-0.854-1.078-2.004-1.078-3.446v-0.312c0-0.923,0.162-1.74,0.484-2.45
			c0.323-0.71,0.786-1.257,1.389-1.645c0.604-0.386,1.309-0.579,2.117-0.579c1.028,0,1.874,0.305,2.541,0.917
			c0.666,0.612,1.023,1.416,1.069,2.415h-0.996c-0.046-0.732-0.31-1.324-0.792-1.774c-0.482-0.451-1.09-0.676-1.822-0.676
			c-0.935,0-1.661,0.338-2.177,1.013c-0.517,0.675-0.775,1.622-0.775,2.84v0.303c0,1.194,0.258,2.126,0.775,2.797
			C289.652,147.974,290.381,148.309,291.322,148.309z"/>
		<path fill="#878787" d="M307.217,149.01c-0.104-0.294-0.17-0.73-0.199-1.307c-0.364,0.473-0.827,0.838-1.389,1.095
			c-0.562,0.257-1.158,0.385-1.787,0.385c-0.9,0-1.629-0.251-2.186-0.754c-0.558-0.501-0.836-1.137-0.836-1.904
			c0-0.912,0.38-1.633,1.139-2.165c0.758-0.531,1.816-0.795,3.172-0.795h1.878V142.5c0-0.669-0.206-1.197-0.619-1.581
			c-0.412-0.383-1.014-0.575-1.805-0.575c-0.721,0-1.318,0.185-1.792,0.553c-0.473,0.37-0.71,0.813-0.71,1.333l-1.039-0.008
			c0-0.745,0.346-1.389,1.039-1.935c0.693-0.545,1.544-0.818,2.553-0.818c1.045,0,1.868,0.26,2.472,0.783
			c0.603,0.523,0.913,1.251,0.931,2.186v4.432c0,0.907,0.095,1.584,0.285,2.035v0.104H307.217z M303.961,148.265
			c0.693,0,1.312-0.167,1.857-0.501c0.545-0.335,0.942-0.782,1.19-1.342v-2.061h-1.853c-1.033,0.012-1.841,0.201-2.424,0.568
			c-0.582,0.366-0.874,0.87-0.874,1.51c0,0.525,0.195,0.961,0.585,1.307C302.832,148.093,303.338,148.265,303.961,148.265z
			 M305.607,138.133l-0.944,0.005l-1.956-2.425h1.246L305.607,138.133z"/>
		<path fill="#878787" d="M316.272,149.01h-1.039v-13.297h1.039V149.01z"/>
		<path fill="#878787" d="M324.998,149.01c-0.104-0.294-0.17-0.73-0.199-1.307c-0.364,0.473-0.827,0.838-1.389,1.095
			c-0.562,0.257-1.158,0.385-1.787,0.385c-0.9,0-1.629-0.251-2.186-0.754c-0.558-0.501-0.836-1.137-0.836-1.904
			c0-0.912,0.38-1.633,1.139-2.165c0.758-0.531,1.816-0.795,3.172-0.795h1.878V142.5c0-0.669-0.206-1.197-0.619-1.581
			c-0.412-0.383-1.014-0.575-1.805-0.575c-0.721,0-1.318,0.185-1.792,0.553c-0.473,0.37-0.71,0.813-0.71,1.333l-1.039-0.008
			c0-0.745,0.346-1.389,1.039-1.935c0.693-0.545,1.544-0.818,2.553-0.818c1.045,0,1.868,0.26,2.472,0.783
			c0.603,0.523,0.913,1.251,0.931,2.186v4.432c0,0.907,0.095,1.584,0.285,2.035v0.104H324.998z M321.742,148.265
			c0.693,0,1.312-0.167,1.857-0.501c0.545-0.335,0.942-0.782,1.19-1.342v-2.061h-1.853c-1.033,0.012-1.841,0.201-2.424,0.568
			c-0.583,0.366-0.874,0.87-0.874,1.51c0,0.525,0.195,0.961,0.585,1.307C320.613,148.093,321.119,148.265,321.742,148.265z"/>
		<path fill="#878787" d="M337.221,140.526c-0.22-0.041-0.453-0.061-0.701-0.061c-0.647,0-1.193,0.18-1.641,0.541
			c-0.447,0.361-0.766,0.885-0.957,1.572v6.432h-1.03v-9.367h1.012l0.018,1.49c0.548-1.109,1.428-1.662,2.64-1.662
			c0.288,0,0.516,0.037,0.684,0.113L337.221,140.526z"/>
		<path fill="#878787" d="M342.32,149.183c-0.797,0-1.517-0.196-2.16-0.589c-0.643-0.392-1.145-0.939-1.502-1.641
			c-0.358-0.701-0.537-1.487-0.537-2.358v-0.373c0-0.9,0.175-1.71,0.524-2.432c0.349-0.722,0.836-1.289,1.459-1.701
			c0.623-0.412,1.298-0.619,2.026-0.619c1.137,0,2.038,0.388,2.704,1.164c0.667,0.776,1.001,1.837,1.001,3.181v0.58h-6.683v0.2
			c0,1.061,0.304,1.946,0.913,2.654c0.61,0.706,1.375,1.06,2.299,1.06c0.554,0,1.043-0.101,1.467-0.303
			c0.425-0.202,0.81-0.525,1.156-0.97l0.649,0.493C344.874,148.632,343.768,149.183,342.32,149.183z M342.13,140.353
			c-0.78,0-1.437,0.286-1.97,0.858c-0.534,0.571-0.859,1.339-0.975,2.302h5.619v-0.112c-0.029-0.9-0.286-1.634-0.771-2.199
			C343.55,140.635,342.914,140.353,342.13,140.353z M343.28,135.712h1.255l-1.999,2.425l-0.909-0.005L343.28,135.712z"/>
		<path fill="#878787" d="M353.765,149.01c-0.104-0.294-0.17-0.73-0.199-1.307c-0.364,0.473-0.827,0.838-1.389,1.095
			c-0.562,0.257-1.158,0.385-1.787,0.385c-0.9,0-1.629-0.251-2.186-0.754c-0.558-0.501-0.836-1.137-0.836-1.904
			c0-0.912,0.38-1.633,1.139-2.165c0.758-0.531,1.817-0.795,3.172-0.795h1.878V142.5c0-0.669-0.206-1.197-0.619-1.581
			c-0.413-0.383-1.014-0.575-1.805-0.575c-0.721,0-1.318,0.185-1.792,0.553c-0.473,0.37-0.71,0.813-0.71,1.333l-1.039-0.008
			c0-0.745,0.346-1.389,1.039-1.935c0.693-0.545,1.544-0.818,2.553-0.818c1.045,0,1.868,0.26,2.472,0.783
			c0.603,0.523,0.913,1.251,0.931,2.186v4.432c0,0.907,0.095,1.584,0.285,2.035v0.104H353.765z M350.51,148.265
			c0.693,0,1.312-0.167,1.857-0.501c0.545-0.335,0.942-0.782,1.19-1.342v-2.061h-1.853c-1.033,0.012-1.841,0.201-2.424,0.568
			c-0.582,0.366-0.874,0.87-0.874,1.51c0,0.525,0.195,0.961,0.585,1.307C349.381,148.093,349.887,148.265,350.51,148.265z"/>
		<path fill="#878787" d="M358.509,149.01h-1.039v-13.297h1.039V149.01z"/>
		<path fill="#878787" d="M361.262,136.937c0-0.195,0.063-0.359,0.19-0.495c0.126-0.134,0.3-0.202,0.519-0.202
			c0.219,0,0.393,0.068,0.524,0.202c0.13,0.135,0.194,0.3,0.194,0.495c0,0.196-0.064,0.36-0.194,0.491
			c-0.131,0.132-0.305,0.197-0.524,0.197c-0.22,0-0.393-0.065-0.519-0.197C361.325,137.297,361.262,137.133,361.262,136.937z
			 M362.482,149.01h-1.039v-9.367h1.039V149.01z"/>
		<path fill="#878787" d="M370.905,146.629c0-0.514-0.206-0.926-0.619-1.237c-0.414-0.312-1.034-0.555-1.866-0.732
			c-0.832-0.176-1.476-0.377-1.935-0.605c-0.459-0.229-0.8-0.507-1.022-0.836c-0.222-0.329-0.332-0.727-0.332-1.194
			c0-0.739,0.308-1.349,0.926-1.831c0.617-0.481,1.407-0.722,2.372-0.722c1.045,0,1.883,0.258,2.514,0.774
			c0.632,0.517,0.949,1.191,0.949,2.021h-1.039c0-0.548-0.23-1.004-0.688-1.368c-0.459-0.363-1.038-0.545-1.735-0.545
			c-0.682,0-1.228,0.152-1.641,0.455s-0.62,0.696-0.62,1.181c0,0.468,0.172,0.83,0.516,1.086c0.343,0.257,0.969,0.492,1.878,0.707
			c0.908,0.213,1.59,0.441,2.043,0.684c0.453,0.242,0.789,0.533,1.008,0.874c0.219,0.34,0.329,0.753,0.329,1.237
			c0,0.791-0.319,1.423-0.957,1.896c-0.638,0.473-1.47,0.71-2.498,0.71c-1.091,0-1.975-0.265-2.652-0.792
			c-0.678-0.528-1.018-1.197-1.018-2.005h1.039c0.041,0.606,0.295,1.078,0.766,1.415c0.47,0.338,1.092,0.507,1.865,0.507
			c0.722,0,1.305-0.159,1.749-0.477C370.683,147.516,370.905,147.113,370.905,146.629z"/>
		<path fill="#878787" d="M380.186,149.01c-0.104-0.294-0.17-0.73-0.199-1.307c-0.364,0.473-0.827,0.838-1.389,1.095
			c-0.562,0.257-1.158,0.385-1.787,0.385c-0.9,0-1.629-0.251-2.186-0.754c-0.558-0.501-0.836-1.137-0.836-1.904
			c0-0.912,0.38-1.633,1.139-2.165c0.758-0.531,1.816-0.795,3.172-0.795h1.878V142.5c0-0.669-0.206-1.197-0.619-1.581
			c-0.412-0.383-1.014-0.575-1.805-0.575c-0.721,0-1.318,0.185-1.792,0.553c-0.473,0.37-0.71,0.813-0.71,1.333l-1.039-0.008
			c0-0.745,0.346-1.389,1.039-1.935c0.693-0.545,1.544-0.818,2.553-0.818c1.045,0,1.868,0.26,2.472,0.783
			c0.603,0.523,0.913,1.251,0.931,2.186v4.432c0,0.907,0.095,1.584,0.285,2.035v0.104H380.186z M376.93,148.265
			c0.693,0,1.312-0.167,1.857-0.501c0.545-0.335,0.942-0.782,1.19-1.342v-2.061h-1.853c-1.033,0.012-1.841,0.201-2.424,0.568
			c-0.583,0.366-0.874,0.87-0.874,1.51c0,0.525,0.195,0.961,0.585,1.307C375.801,148.093,376.307,148.265,376.93,148.265z"/>
		<path fill="#878787" d="M385.379,137.245v2.398h1.939v0.848h-1.939v6.249c0,0.519,0.095,0.907,0.282,1.161
			c0.188,0.255,0.5,0.382,0.94,0.382c0.172,0,0.453-0.029,0.839-0.087l0.043,0.841c-0.27,0.097-0.64,0.146-1.108,0.146
			c-0.71,0-1.226-0.206-1.549-0.62c-0.323-0.412-0.484-1.02-0.484-1.822v-6.25h-1.723v-0.848h1.723v-2.398H385.379z"/>
		<path fill="#878787" d="M389.405,136.937c0-0.195,0.063-0.359,0.19-0.495c0.126-0.134,0.3-0.202,0.519-0.202
			c0.219,0,0.393,0.068,0.524,0.202c0.13,0.135,0.194,0.3,0.194,0.495c0,0.196-0.064,0.36-0.194,0.491
			c-0.131,0.132-0.305,0.197-0.524,0.197c-0.22,0-0.393-0.065-0.519-0.197C389.468,137.297,389.405,137.133,389.405,136.937z
			 M390.626,149.01h-1.039v-9.367h1.039V149.01z"/>
		<path fill="#878787" d="M392.868,144.188c0-0.9,0.175-1.712,0.524-2.433c0.349-0.721,0.843-1.282,1.481-1.683
			c0.638-0.401,1.36-0.602,2.169-0.602c1.246,0,2.256,0.437,3.029,1.312c0.774,0.874,1.161,2.033,1.161,3.475v0.216
			c0,0.906-0.175,1.722-0.524,2.446c-0.349,0.723-0.841,1.282-1.476,1.674c-0.634,0.393-1.359,0.589-2.172,0.589
			c-1.241,0-2.249-0.437-3.026-1.312c-0.776-0.874-1.165-2.033-1.165-3.476V144.188z M393.907,144.473c0,1.12,0.291,2.04,0.87,2.757
			c0.58,0.719,1.341,1.078,2.282,1.078c0.935,0,1.692-0.359,2.273-1.078c0.579-0.718,0.87-1.667,0.87-2.844v-0.198
			c0-0.715-0.133-1.371-0.399-1.965c-0.265-0.595-0.638-1.055-1.117-1.382c-0.479-0.326-1.026-0.489-1.644-0.489
			c-0.924,0-1.677,0.363-2.26,1.086c-0.582,0.725-0.874,1.673-0.874,2.844V144.473z"/>
		<path fill="#878787" d="M404.356,139.643l0.035,1.602c0.352-0.578,0.791-1.017,1.316-1.321c0.525-0.303,1.105-0.454,1.74-0.454
			c1.004,0,1.751,0.283,2.242,0.848c0.49,0.566,0.738,1.413,0.745,2.544v6.147h-1.031v-6.155c-0.006-0.837-0.183-1.46-0.532-1.871
			c-0.349-0.409-0.908-0.614-1.676-0.614c-0.64,0-1.207,0.201-1.7,0.602c-0.493,0.401-0.859,0.942-1.095,1.623v6.415h-1.03v-9.367
			H404.356z"/>
	</g>
	
		<linearGradient id="SVGID_5_" gradientUnits="userSpaceOnUse" x1="13.9822" y1="394.6773" x2="13.9822" y2="394.6773" gradientTransform="matrix(2.1001 0 0 -2.1001 94.3405 899.3843)">
		<stop  offset="0" style="stop-color:#2DAAB9"/>
		<stop  offset="1" style="stop-color:#48BCC7"/>
	</linearGradient>
	<path fill="url(#SVGID_5_)" d="M123.704,70.522"/>
	
		<linearGradient id="SVGID_6_" gradientUnits="userSpaceOnUse" x1="-5.3444" y1="372.3618" x2="-5.3444" y2="429.3649" gradientTransform="matrix(2.1001 0 0 -2.1001 94.3405 899.3843)">
		<stop  offset="0" style="stop-color:#878787"/>
		<stop  offset="1" style="stop-color:#B3B2B2"/>
	</linearGradient>
	<path fill="url(#SVGID_6_)" d="M79.603,122.959c0,5.961,0,15.266,0,15.388c0,1.429-0.291,2.254-0.581,2.787
		c-0.436,0.75-1.017,1.114-1.647,1.357c-0.316,0.122-0.606,0.194-0.8,0.219c-0.073,0-0.122,0.024-0.17,0.024H36.714
		c-1.478,0-2.762-0.533-3.635-1.308c-0.872-0.775-1.283-1.697-1.283-2.666V72.194H16.214c-1.138,0-1.987-0.63-2.205-1.163
		c-0.097-0.194-0.121-0.339-0.121-0.509c0-0.315,0.097-0.63,0.508-1.018l25.856-23.892V27.221c0-2.593,2.108-4.701,4.701-4.701
		h20.282L81.276,7.69c0.388-0.363,1.091-0.679,1.841-0.655c0.727,0,1.455,0.291,1.842,0.655l66.878,61.814
		c0.388,0.363,0.485,0.703,0.509,1.018c0,0.169-0.025,0.315-0.122,0.509c-0.218,0.533-1.091,1.163-2.205,1.163h-15.58v66.564
		c0,0.969-0.412,1.891-1.285,2.666c-0.872,0.775-2.132,1.308-3.635,1.308H93.755c-1.939,0-3.513,1.575-3.513,3.513
		c0,1.939,1.574,3.513,3.513,3.513h35.741c3.174,0,6.106-1.138,8.311-3.077c2.18-1.938,3.659-4.773,3.659-7.924V79.246h8.53
		c3.562,0,6.954-1.866,8.554-5.161c0.533-1.116,0.824-2.351,0.824-3.562c0-2.326-1.018-4.58-2.763-6.179L89.732,2.529
		c-1.818-1.672-4.168-2.52-6.616-2.52c-2.447,0-4.798,0.872-6.616,2.52l-14.03,12.963H44.953c-6.495,0-11.753,5.258-11.753,11.753
		v15.314L9.623,64.344c-1.744,1.599-2.763,3.853-2.763,6.179c0,1.212,0.267,2.423,0.825,3.562c1.599,3.295,4.992,5.137,8.554,5.161
		h8.529v59.513c0,3.15,1.478,6.009,3.66,7.924c2.18,1.939,5.136,3.077,8.311,3.077h39.836h0.024c0.34-0.024,2.521-0.048,5.065-1.551
		c1.26-0.752,2.568-1.938,3.513-3.635c0.945-1.672,1.478-3.804,1.478-6.227c0-0.122,0-9.718,0-15.388H79.603z"/>
	<g>
		<g>
			
				<linearGradient id="SVGID_7_" gradientUnits="userSpaceOnUse" x1="91.6097" y1="353.1212" x2="91.6097" y2="338.9928" gradientTransform="matrix(-1.4971 -1.4728 1.4728 -1.4971 -308.3684 733.6212)">
				<stop  offset="0" style="stop-color:#E7344D"/>
				<stop  offset="1" style="stop-color:#C30734"/>
			</linearGradient>
			<path fill="url(#SVGID_7_)" d="M86.17,55.814c0.775-0.776,1.696-1.139,2.035-0.8l1.211,1.163c0.339,0.339,0,1.236-0.799,2.011
				l-0.969,0.969l-2.447-2.375L86.17,55.814z"/>
			
				<linearGradient id="SVGID_8_" gradientUnits="userSpaceOnUse" x1="92.3843" y1="353.1197" x2="92.3843" y2="338.9876" gradientTransform="matrix(-1.4971 -1.4728 1.4728 -1.4971 -308.3684 733.6212)">
				<stop  offset="0" style="stop-color:#E7344D"/>
				<stop  offset="1" style="stop-color:#C30734"/>
			</linearGradient>
			<path fill="url(#SVGID_8_)" d="M78.586,55.135l1.769,1.696c0.508-0.218,1.066-0.145,1.454,0.218l5.598,5.404
				c0.508,0.485,0.46,1.357-0.122,1.939c-0.581,0.581-1.478,0.63-1.987,0.145L79.7,59.158c-0.388-0.363-0.461-0.921-0.217-1.43
				l-1.309-1.26L66.397,68.172L65.5,67.324l12.214-12.14c0.121-0.121,0.266-0.194,0.436-0.194
				C78.319,54.941,78.464,55.014,78.586,55.135z"/>
			
				<linearGradient id="SVGID_9_" gradientUnits="userSpaceOnUse" x1="91.7786" y1="353.117" x2="91.7786" y2="338.99" gradientTransform="matrix(-1.4971 -1.4728 1.4728 -1.4971 -308.3684 733.6212)">
				<stop  offset="0" style="stop-color:#E7344D"/>
				<stop  offset="1" style="stop-color:#C30734"/>
			</linearGradient>
			<path fill="url(#SVGID_9_)" d="M61.357,76.92l6.106,5.864l-7.511,2.229l-0.145-0.121l-0.581,0.581
				c-0.145,0.145-0.364,0.145-0.485,0c-0.145-0.122-0.145-0.339,0-0.485l0.581-0.581L59.2,84.286L61.357,76.92z"/>
			
				<linearGradient id="SVGID_10_" gradientUnits="userSpaceOnUse" x1="91.7166" y1="353.1191" x2="91.7166" y2="338.9871" gradientTransform="matrix(-1.4971 -1.4728 1.4728 -1.4971 -308.3684 733.6212)">
				<stop  offset="0" style="stop-color:#E7344D"/>
				<stop  offset="1" style="stop-color:#C30734"/>
			</linearGradient>
			<path fill="url(#SVGID_10_)" d="M79.046,59.764l5.598,5.379c0.097,0.097,0.194,0.17,0.315,0.242L68.093,82.129l-6.106-5.864
				l16.841-16.744C78.925,59.618,78.973,59.691,79.046,59.764z"/>
			
				<linearGradient id="SVGID_11_" gradientUnits="userSpaceOnUse" x1="91.6221" y1="353.1271" x2="91.6221" y2="339.0102" gradientTransform="matrix(-1.4971 -1.4728 1.4728 -1.4971 -308.3684 733.6212)">
				<stop  offset="0" style="stop-color:#E7344D"/>
				<stop  offset="1" style="stop-color:#C30734"/>
			</linearGradient>
			<path fill="url(#SVGID_11_)" d="M88.06,61.775l-5.597-5.404c-0.073-0.073-0.17-0.121-0.242-0.194l0.363-0.363
				c0.461-0.437,1.502-0.145,2.375,0.678l3.004,2.883c0.849,0.824,1.188,1.866,0.727,2.302l-0.363,0.363
				C88.23,61.969,88.157,61.872,88.06,61.775z"/>
		</g>
		<g>
			
				<linearGradient id="SVGID_12_" gradientUnits="userSpaceOnUse" x1="-6.9366" y1="397.0493" x2="-6.9366" y2="382.9182" gradientTransform="matrix(2.1001 0 0 -2.1001 94.3405 899.3843)">
				<stop  offset="0" style="stop-color:#E7344D"/>
				<stop  offset="1" style="stop-color:#C30734"/>
			</linearGradient>
			<path fill="url(#SVGID_12_)" d="M93.633,62.938l2.883,2.883l-0.654,0.655l-2.883-2.884l-3.321,3.32l2.884,2.883l-0.654,0.654
				l-2.884-2.883l-3.32,3.32l2.883,2.883l-0.655,0.655l-2.883-2.883l-3.32,3.32l2.884,2.884l-0.655,0.655l-2.883-2.885
				L69.814,86.758l2.883,2.883l-0.654,0.654l-2.883-2.883L56.704,99.867h46.137V53.754L93.633,62.938z M68.093,94.245l-2.883-2.883
				l0.655-0.654l2.883,2.883L68.093,94.245z M76.042,86.297l-2.883-2.884l0.654-0.655l2.885,2.884L76.042,86.297z M77.762,78.81
				l2.883,2.883l-0.655,0.655l-2.883-2.883L77.762,78.81z M93.633,90.634H78.997l14.636-14.635V90.634z"/>
		</g>
	</g>
	<g>
		
			<linearGradient id="SVGID_13_" gradientUnits="userSpaceOnUse" x1="50.2757" y1="405.525" x2="49.155" y2="365.4617" gradientTransform="matrix(2.1001 0 0 -2.1001 94.3405 899.3843)">
			<stop  offset="0" style="stop-color:#E7344D"/>
			<stop  offset="1" style="stop-color:#C30734"/>
		</linearGradient>
		<path fill="url(#SVGID_13_)" d="M206.674,87.315c0,0.558-0.122,0.945-0.364,1.211c-0.242,0.267-0.581,0.388-1.017,0.388h-9.741
			c0,0.68,0.073,1.309,0.242,1.866c0.17,0.558,0.412,1.019,0.775,1.406c0.364,0.388,0.8,0.678,1.358,0.896
			c0.557,0.194,1.211,0.316,1.987,0.316c0.8,0,1.478-0.048,2.083-0.17c0.606-0.121,1.116-0.242,1.552-0.388
			c0.436-0.145,0.799-0.266,1.09-0.388c0.291-0.121,0.509-0.169,0.703-0.169c0.122,0,0.194,0.024,0.267,0.072
			c0.072,0.048,0.121,0.122,0.169,0.219s0.073,0.266,0.097,0.46c0.025,0.194,0.025,0.436,0.025,0.752c0,0.266,0,0.484-0.025,0.678
			c0,0.194-0.024,0.339-0.048,0.485c-0.024,0.122-0.048,0.242-0.097,0.339s-0.121,0.17-0.194,0.267
			c-0.072,0.072-0.291,0.194-0.63,0.339c-0.339,0.145-0.8,0.291-1.333,0.411c-0.533,0.145-1.163,0.267-1.841,0.364
			c-0.703,0.097-1.43,0.145-2.23,0.145c-1.429,0-2.665-0.17-3.731-0.533c-1.066-0.364-1.963-0.897-2.69-1.624
			c-0.727-0.727-1.26-1.647-1.6-2.763c-0.363-1.114-0.533-2.423-0.533-3.901c0-1.43,0.194-2.713,0.558-3.853
			c0.364-1.139,0.897-2.108,1.624-2.908c0.702-0.799,1.55-1.405,2.568-1.816c1.017-0.412,2.157-0.63,3.416-0.63
			c1.333,0,2.472,0.194,3.441,0.581c0.945,0.388,1.721,0.944,2.351,1.647c0.606,0.703,1.066,1.527,1.333,2.471
			c0.291,0.945,0.436,1.988,0.436,3.126V87.315L206.674,87.315z M202.312,86.03c0.048-1.26-0.219-2.252-0.752-2.98
			c-0.533-0.727-1.38-1.09-2.52-1.09c-0.581,0-1.066,0.097-1.502,0.314c-0.437,0.219-0.776,0.509-1.067,0.872
			c-0.291,0.364-0.508,0.8-0.654,1.285c-0.145,0.485-0.242,1.017-0.267,1.575h6.761V86.03z M199.791,71.952
			c0.073-0.121,0.195-0.242,0.315-0.339c0.122-0.097,0.267-0.169,0.436-0.218c0.17-0.048,0.412-0.097,0.678-0.122
			c0.267-0.024,0.606-0.024,0.994-0.024c0.558,0,0.994,0.024,1.308,0.072c0.315,0.048,0.533,0.122,0.678,0.219
			c0.145,0.097,0.194,0.194,0.194,0.314c0,0.122-0.072,0.242-0.169,0.388l-3.465,4.168c-0.097,0.122-0.194,0.219-0.291,0.291
			c-0.097,0.073-0.219,0.145-0.364,0.194c-0.145,0.048-0.339,0.073-0.558,0.097c-0.217,0.025-0.508,0.025-0.847,0.025
			c-0.413,0-0.752-0.025-0.994-0.048c-0.242-0.048-0.411-0.097-0.509-0.17c-0.097-0.072-0.121-0.169-0.121-0.291
			c0.024-0.121,0.072-0.266,0.194-0.411L199.791,71.952z"/>
		
			<linearGradient id="SVGID_14_" gradientUnits="userSpaceOnUse" x1="60.4878" y1="405.241" x2="59.3671" y2="365.1762" gradientTransform="matrix(2.1001 0 0 -2.1001 94.3405 899.3843)">
			<stop  offset="0" style="stop-color:#E7344D"/>
			<stop  offset="1" style="stop-color:#C30734"/>
		</linearGradient>
		<path fill="url(#SVGID_14_)" d="M227.779,95.771c0,0.122-0.048,0.219-0.097,0.315c-0.072,0.097-0.194,0.169-0.363,0.218
			c-0.17,0.048-0.388,0.097-0.678,0.122c-0.292,0.024-0.655,0.048-1.091,0.048c-0.436,0-0.8-0.025-1.091-0.048
			c-0.291-0.025-0.533-0.073-0.678-0.122c-0.17-0.048-0.291-0.145-0.364-0.218c-0.072-0.097-0.097-0.194-0.097-0.315v-9.11
			c0-0.776-0.048-1.382-0.169-1.818c-0.122-0.436-0.267-0.824-0.485-1.139c-0.219-0.316-0.484-0.558-0.824-0.727
			c-0.339-0.17-0.727-0.267-1.188-0.267c-0.581,0-1.163,0.219-1.744,0.63c-0.583,0.412-1.188,1.019-1.818,1.817v10.638
			c0,0.121-0.048,0.218-0.097,0.314c-0.073,0.097-0.194,0.17-0.364,0.219c-0.169,0.048-0.411,0.097-0.678,0.121
			c-0.291,0.025-0.655,0.048-1.091,0.048c-0.436,0-0.799-0.024-1.09-0.048c-0.291-0.024-0.509-0.072-0.678-0.121
			c-0.17-0.048-0.291-0.145-0.364-0.219c-0.073-0.097-0.097-0.194-0.097-0.314V79.803c0-0.122,0.024-0.219,0.097-0.315
			c0.048-0.097,0.17-0.169,0.316-0.217s0.363-0.097,0.605-0.145c0.242-0.025,0.558-0.048,0.921-0.048
			c0.388,0,0.703,0.024,0.945,0.048c0.242,0.024,0.436,0.072,0.581,0.145c0.145,0.048,0.242,0.145,0.291,0.217
			c0.048,0.097,0.097,0.194,0.097,0.315v1.841c0.872-0.945,1.794-1.672,2.69-2.157c0.921-0.484,1.866-0.727,2.86-0.727
			c1.09,0,2.011,0.17,2.738,0.533c0.75,0.364,1.357,0.849,1.818,1.454c0.46,0.606,0.799,1.333,0.993,2.157
			c0.194,0.824,0.315,1.818,0.315,2.98v9.887H227.779z"/>
		
			<linearGradient id="SVGID_15_" gradientUnits="userSpaceOnUse" x1="70.4635" y1="404.9631" x2="69.3426" y2="364.8937" gradientTransform="matrix(2.1001 0 0 -2.1001 94.3405 899.3843)">
			<stop  offset="0" style="stop-color:#E7344D"/>
			<stop  offset="1" style="stop-color:#C30734"/>
		</linearGradient>
		<path fill="url(#SVGID_15_)" d="M249.103,87.315c0,0.558-0.122,0.945-0.364,1.211c-0.242,0.267-0.581,0.388-1.017,0.388h-9.74
			c0,0.68,0.072,1.309,0.242,1.866c0.169,0.558,0.411,1.019,0.775,1.406c0.363,0.388,0.799,0.678,1.357,0.896
			c0.558,0.194,1.211,0.316,1.987,0.316c0.8,0,1.478-0.048,2.085-0.17c0.605-0.121,1.114-0.242,1.55-0.388
			c0.436-0.145,0.8-0.266,1.091-0.388c0.291-0.121,0.508-0.169,0.702-0.169c0.122,0,0.194,0.024,0.267,0.072
			c0.072,0.048,0.121,0.122,0.169,0.219s0.073,0.266,0.097,0.46c0.025,0.194,0.025,0.436,0.025,0.752c0,0.266,0,0.484-0.025,0.678
			c0,0.194-0.024,0.339-0.048,0.485c-0.024,0.122-0.048,0.242-0.097,0.339s-0.121,0.17-0.194,0.267
			c-0.072,0.072-0.291,0.194-0.63,0.339c-0.339,0.145-0.8,0.291-1.333,0.411c-0.533,0.145-1.163,0.267-1.841,0.364
			c-0.703,0.097-1.43,0.145-2.229,0.145c-1.43,0-2.666-0.17-3.732-0.533c-1.066-0.364-1.963-0.897-2.69-1.624
			c-0.727-0.727-1.26-1.647-1.599-2.763c-0.364-1.114-0.533-2.423-0.533-3.901c0-1.43,0.194-2.713,0.557-3.853
			c0.364-1.139,0.897-2.108,1.624-2.908c0.703-0.799,1.55-1.405,2.569-1.816c1.018-0.412,2.157-0.63,3.417-0.63
			c1.332,0,2.471,0.194,3.44,0.581c0.945,0.388,1.721,0.944,2.351,1.647c0.606,0.703,1.066,1.527,1.333,2.471
			c0.291,0.945,0.436,1.988,0.436,3.126V87.315L249.103,87.315z M244.741,86.03c0.048-1.26-0.217-2.252-0.752-2.98
			c-0.533-0.727-1.38-1.09-2.52-1.09c-0.581,0-1.066,0.097-1.502,0.314c-0.436,0.219-0.775,0.509-1.066,0.872
			c-0.291,0.364-0.509,0.8-0.655,1.285c-0.145,0.485-0.242,1.017-0.266,1.575h6.76V86.03z"/>
		
			<linearGradient id="SVGID_16_" gradientUnits="userSpaceOnUse" x1="79.355" y1="404.7117" x2="78.2344" y2="364.6501" gradientTransform="matrix(2.1001 0 0 -2.1001 94.3405 899.3843)">
			<stop  offset="0" style="stop-color:#E7344D"/>
			<stop  offset="1" style="stop-color:#C30734"/>
		</linearGradient>
		<path fill="url(#SVGID_16_)" d="M265.216,81.282c0,0.436-0.024,0.775-0.048,1.066c-0.024,0.266-0.048,0.485-0.097,0.654
			c-0.048,0.145-0.121,0.267-0.194,0.315c-0.072,0.048-0.169,0.097-0.291,0.097c-0.097,0-0.194-0.025-0.314-0.073
			c-0.122-0.048-0.267-0.097-0.412-0.145s-0.314-0.097-0.484-0.145c-0.169-0.048-0.388-0.072-0.581-0.072
			c-0.242,0-0.509,0.048-0.752,0.145c-0.242,0.097-0.508,0.266-0.775,0.485c-0.266,0.219-0.557,0.509-0.848,0.848
			c-0.291,0.363-0.605,0.799-0.944,1.332v9.96c0,0.121-0.048,0.218-0.097,0.314c-0.073,0.097-0.194,0.17-0.364,0.219
			c-0.169,0.048-0.411,0.097-0.678,0.121c-0.291,0.025-0.654,0.048-1.091,0.048c-0.436,0-0.799-0.024-1.09-0.048
			c-0.291-0.024-0.509-0.072-0.678-0.121c-0.17-0.048-0.291-0.145-0.364-0.219c-0.072-0.097-0.097-0.194-0.097-0.314V79.755
			c0-0.122,0.025-0.219,0.097-0.315c0.048-0.097,0.17-0.169,0.316-0.217s0.363-0.097,0.605-0.145
			c0.242-0.025,0.558-0.048,0.921-0.048c0.389,0,0.703,0.024,0.945,0.048c0.242,0.024,0.436,0.072,0.581,0.145
			c0.145,0.048,0.242,0.145,0.291,0.217c0.048,0.097,0.097,0.194,0.097,0.315v1.987c0.412-0.605,0.824-1.091,1.188-1.478
			c0.364-0.388,0.727-0.702,1.066-0.921c0.339-0.217,0.678-0.388,0.994-0.484c0.339-0.097,0.678-0.145,0.994-0.145
			c0.145,0,0.314,0,0.508,0.025c0.17,0.024,0.364,0.048,0.558,0.097c0.194,0.048,0.363,0.097,0.508,0.145
			c0.145,0.048,0.242,0.12,0.315,0.169c0.073,0.048,0.122,0.122,0.145,0.194c0.025,0.073,0.048,0.17,0.073,0.291
			c0.024,0.122,0.048,0.315,0.048,0.558C265.192,80.505,265.216,80.845,265.216,81.282z"/>
		
			<linearGradient id="SVGID_17_" gradientUnits="userSpaceOnUse" x1="87.0813" y1="404.4964" x2="85.9607" y2="364.432" gradientTransform="matrix(2.1001 0 0 -2.1001 94.3405 899.3843)">
			<stop  offset="0" style="stop-color:#E7344D"/>
			<stop  offset="1" style="stop-color:#C30734"/>
		</linearGradient>
		<path fill="url(#SVGID_17_)" d="M284.092,80.894c0,0.581-0.072,0.993-0.194,1.283c-0.121,0.267-0.291,0.412-0.484,0.412h-1.89
			c0.267,0.291,0.461,0.605,0.558,0.969c0.121,0.364,0.169,0.752,0.169,1.139c0,0.921-0.145,1.769-0.46,2.471
			c-0.315,0.727-0.752,1.333-1.333,1.818c-0.581,0.509-1.284,0.872-2.108,1.139c-0.824,0.266-1.721,0.388-2.738,0.388
			c-0.509,0-0.994-0.073-1.478-0.194c-0.461-0.122-0.824-0.267-1.066-0.436c-0.145,0.145-0.267,0.339-0.388,0.557
			c-0.122,0.219-0.17,0.461-0.17,0.727c0,0.339,0.145,0.631,0.461,0.848c0.314,0.219,0.727,0.339,1.285,0.364l3.876,0.145
			c0.922,0.024,1.721,0.169,2.424,0.388c0.702,0.217,1.308,0.533,1.793,0.921c0.485,0.411,0.849,0.872,1.115,1.454
			c0.267,0.558,0.388,1.211,0.388,1.914c0,0.775-0.169,1.527-0.508,2.229c-0.339,0.703-0.872,1.309-1.551,1.818
			c-0.703,0.509-1.552,0.921-2.618,1.212c-1.042,0.291-2.277,0.436-3.659,0.436c-1.357,0-2.521-0.097-3.49-0.315
			c-0.969-0.219-1.744-0.509-2.374-0.897c-0.606-0.388-1.066-0.847-1.333-1.38c-0.267-0.533-0.413-1.116-0.413-1.745
			c0-0.388,0.048-0.775,0.145-1.138c0.097-0.364,0.243-0.703,0.437-1.019c0.194-0.339,0.436-0.654,0.727-0.944
			c0.291-0.291,0.605-0.581,0.993-0.848c-0.508-0.267-0.921-0.655-1.187-1.114c-0.291-0.461-0.412-0.994-0.412-1.551
			c0-0.703,0.17-1.358,0.485-1.939c0.316-0.581,0.752-1.091,1.26-1.575c-0.411-0.411-0.75-0.921-0.993-1.502
			c-0.242-0.582-0.388-1.308-0.388-2.18c0-0.921,0.169-1.769,0.485-2.496c0.339-0.727,0.775-1.357,1.38-1.866
			c0.583-0.509,1.285-0.897,2.108-1.163c0.825-0.267,1.721-0.412,2.69-0.412c0.509,0,0.994,0.025,1.455,0.097
			c0.46,0.048,0.896,0.145,1.283,0.242h5.065c0.194,0,0.363,0.122,0.485,0.388C284.02,79.852,284.092,80.288,284.092,80.894z
			 M279.368,97.444c0-0.533-0.217-0.945-0.655-1.236c-0.436-0.291-1.017-0.436-1.768-0.46l-3.199-0.097
			c-0.316,0.217-0.558,0.436-0.752,0.654c-0.194,0.219-0.339,0.412-0.436,0.606c-0.121,0.194-0.194,0.388-0.217,0.558
			c-0.048,0.169-0.048,0.363-0.048,0.557c0,0.606,0.291,1.042,0.896,1.357c0.606,0.315,1.455,0.461,2.544,0.461
			c0.68,0,1.261-0.072,1.721-0.194c0.461-0.145,0.849-0.315,1.139-0.558c0.291-0.217,0.484-0.485,0.606-0.75
			C279.295,98.05,279.368,97.759,279.368,97.444z M278.302,84.673c0-0.847-0.242-1.527-0.727-2.011
			c-0.484-0.485-1.163-0.727-2.036-0.727c-0.436,0-0.824,0.073-1.163,0.219c-0.339,0.145-0.605,0.363-0.824,0.605
			c-0.219,0.267-0.388,0.558-0.485,0.897c-0.097,0.339-0.17,0.703-0.17,1.066c0,0.824,0.242,1.454,0.727,1.914
			c0.486,0.485,1.139,0.703,1.988,0.703c0.46,0,0.849-0.073,1.188-0.219c0.339-0.145,0.605-0.339,0.824-0.581
			c0.217-0.242,0.388-0.533,0.508-0.872C278.253,85.377,278.302,85.037,278.302,84.673z"/>
		
			<linearGradient id="SVGID_18_" gradientUnits="userSpaceOnUse" x1="94.2495" y1="404.2985" x2="93.1286" y2="364.2297" gradientTransform="matrix(2.1001 0 0 -2.1001 94.3405 899.3843)">
			<stop  offset="0" style="stop-color:#E7344D"/>
			<stop  offset="1" style="stop-color:#C30734"/>
		</linearGradient>
		<path fill="url(#SVGID_18_)" d="M294.076,74.376c0,0.896-0.194,1.527-0.557,1.89c-0.364,0.339-1.066,0.509-2.06,0.509
			c-1.017,0-1.697-0.17-2.06-0.509c-0.364-0.339-0.533-0.945-0.533-1.818c0-0.896,0.194-1.527,0.557-1.89
			c0.364-0.364,1.067-0.533,2.06-0.533c0.994,0,1.697,0.169,2.036,0.508C293.882,72.897,294.076,73.503,294.076,74.376z
			 M293.737,95.771c0,0.122-0.048,0.219-0.097,0.315c-0.072,0.097-0.194,0.169-0.363,0.218c-0.17,0.048-0.412,0.097-0.678,0.122
			c-0.292,0.024-0.655,0.048-1.091,0.048s-0.8-0.025-1.091-0.048c-0.291-0.025-0.508-0.073-0.678-0.122s-0.291-0.145-0.364-0.218
			c-0.072-0.097-0.097-0.194-0.097-0.315V79.827c0-0.121,0.025-0.217,0.097-0.314c0.073-0.097,0.194-0.17,0.364-0.242
			c0.17-0.073,0.412-0.122,0.678-0.145c0.291-0.025,0.655-0.048,1.091-0.048s0.799,0.024,1.091,0.048
			c0.291,0.024,0.508,0.097,0.678,0.145c0.169,0.072,0.291,0.145,0.363,0.242c0.073,0.097,0.097,0.194,0.097,0.314V95.771z"/>
		
			<linearGradient id="SVGID_19_" gradientUnits="userSpaceOnUse" x1="101.869" y1="404.0855" x2="100.7482" y2="364.0161" gradientTransform="matrix(2.1001 0 0 -2.1001 94.3405 899.3843)">
			<stop  offset="0" style="stop-color:#E7344D"/>
			<stop  offset="1" style="stop-color:#C30734"/>
		</linearGradient>
		<path fill="url(#SVGID_19_)" d="M315.109,87.315c0,0.558-0.121,0.945-0.363,1.211c-0.242,0.267-0.581,0.388-1.019,0.388h-9.74
			c0,0.68,0.072,1.309,0.242,1.866c0.169,0.558,0.411,1.019,0.775,1.406c0.363,0.388,0.8,0.678,1.357,0.896
			c0.558,0.194,1.211,0.316,1.986,0.316c0.8,0,1.478-0.048,2.085-0.17c0.606-0.121,1.114-0.242,1.55-0.388
			c0.436-0.145,0.8-0.266,1.091-0.388c0.291-0.121,0.509-0.169,0.703-0.169c0.121,0,0.194,0.024,0.266,0.072
			c0.073,0.048,0.122,0.122,0.17,0.219c0.048,0.097,0.072,0.266,0.097,0.46c0.024,0.194,0.024,0.436,0.024,0.752
			c0,0.266,0,0.484-0.024,0.678c0,0.194-0.025,0.339-0.048,0.485c-0.025,0.122-0.048,0.242-0.097,0.339
			c-0.048,0.097-0.122,0.17-0.194,0.267c-0.073,0.072-0.291,0.194-0.631,0.339c-0.339,0.145-0.799,0.291-1.332,0.411
			c-0.533,0.145-1.164,0.267-1.842,0.364c-0.702,0.097-1.429,0.145-2.229,0.145c-1.43,0-2.666-0.17-3.732-0.533
			c-1.066-0.364-1.963-0.897-2.69-1.624c-0.727-0.727-1.26-1.647-1.599-2.763c-0.364-1.114-0.533-2.423-0.533-3.901
			c0-1.43,0.194-2.713,0.557-3.853c0.364-1.139,0.897-2.108,1.624-2.908c0.703-0.799,1.552-1.405,2.569-1.816
			c1.018-0.412,2.157-0.63,3.417-0.63c1.333,0,2.471,0.194,3.44,0.581c0.945,0.388,1.721,0.944,2.351,1.647
			c0.606,0.703,1.067,1.527,1.333,2.471c0.291,0.945,0.436,1.988,0.436,3.126V87.315L315.109,87.315z M310.747,86.03
			c0.048-1.26-0.217-2.252-0.75-2.98c-0.533-0.727-1.381-1.09-2.521-1.09c-0.581,0-1.066,0.097-1.502,0.314
			c-0.436,0.219-0.775,0.509-1.066,0.872c-0.291,0.364-0.509,0.8-0.655,1.285c-0.145,0.485-0.242,1.017-0.266,1.575h6.76V86.03z"/>
		
			<linearGradient id="SVGID_20_" gradientUnits="userSpaceOnUse" x1="116.0513" y1="403.6883" x2="114.9305" y2="363.6225" gradientTransform="matrix(2.1001 0 0 -2.1001 94.3405 899.3843)">
			<stop  offset="0" style="stop-color:#E7344D"/>
			<stop  offset="1" style="stop-color:#C30734"/>
		</linearGradient>
		<path fill="url(#SVGID_20_)" d="M343.484,93.227c0,0.315,0,0.581-0.024,0.775c-0.025,0.219-0.048,0.389-0.073,0.534
			c-0.024,0.145-0.072,0.266-0.097,0.339c-0.048,0.097-0.122,0.194-0.267,0.339c-0.145,0.145-0.388,0.314-0.727,0.508
			c-0.339,0.194-0.75,0.364-1.186,0.533c-0.436,0.145-0.922,0.291-1.455,0.388c-0.508,0.097-1.066,0.145-1.599,0.145
			c-1.236,0-2.326-0.194-3.271-0.581c-0.945-0.388-1.744-0.944-2.399-1.696c-0.655-0.752-1.139-1.647-1.453-2.738
			c-0.339-1.066-0.484-2.302-0.484-3.683c0-1.599,0.194-2.98,0.605-4.143c0.412-1.163,0.969-2.132,1.672-2.883
			c0.727-0.775,1.575-1.333,2.544-1.696c0.969-0.364,2.06-0.558,3.223-0.558c0.485,0,0.945,0.048,1.405,0.122
			c0.461,0.072,0.897,0.194,1.285,0.339s0.752,0.314,1.066,0.485c0.316,0.169,0.533,0.339,0.678,0.46
			c0.145,0.122,0.219,0.242,0.267,0.339c0.048,0.097,0.097,0.194,0.12,0.34c0.025,0.144,0.048,0.314,0.073,0.533
			c0.024,0.217,0.024,0.46,0.024,0.75c0,0.703-0.048,1.188-0.169,1.455c-0.122,0.291-0.267,0.411-0.461,0.411
			c-0.194,0-0.411-0.072-0.654-0.242c-0.219-0.17-0.484-0.364-0.8-0.558c-0.316-0.194-0.678-0.388-1.115-0.557
			c-0.436-0.17-0.945-0.242-1.55-0.242c-1.164,0-2.06,0.46-2.69,1.357c-0.631,0.897-0.922,2.229-0.922,3.974
			c0,0.847,0.073,1.624,0.242,2.277c0.145,0.655,0.389,1.211,0.679,1.647c0.314,0.437,0.678,0.776,1.138,0.994
			c0.461,0.219,0.994,0.339,1.6,0.339c0.63,0,1.163-0.097,1.599-0.266c0.436-0.194,0.849-0.388,1.163-0.63
			c0.339-0.219,0.606-0.436,0.849-0.606c0.217-0.194,0.411-0.267,0.581-0.267c0.097,0,0.194,0.025,0.266,0.097
			c0.073,0.048,0.122,0.17,0.17,0.339c0.048,0.17,0.072,0.364,0.097,0.606C343.459,92.525,343.484,92.84,343.484,93.227z"/>
		
			<linearGradient id="SVGID_21_" gradientUnits="userSpaceOnUse" x1="125.2072" y1="403.4278" x2="124.0866" y2="363.3666" gradientTransform="matrix(2.1001 0 0 -2.1001 94.3405 899.3843)">
			<stop  offset="0" style="stop-color:#E7344D"/>
			<stop  offset="1" style="stop-color:#C30734"/>
		</linearGradient>
		<path fill="url(#SVGID_21_)" d="M364.857,87.63c0,1.357-0.17,2.593-0.533,3.731c-0.364,1.116-0.897,2.085-1.624,2.908
			c-0.727,0.824-1.647,1.43-2.738,1.89c-1.091,0.436-2.374,0.655-3.853,0.655c-1.43,0-2.666-0.194-3.707-0.581
			c-1.042-0.388-1.914-0.969-2.618-1.721c-0.702-0.752-1.211-1.672-1.551-2.787c-0.339-1.091-0.509-2.351-0.509-3.756
			c0-1.357,0.194-2.618,0.558-3.732c0.363-1.114,0.921-2.108,1.647-2.907c0.727-0.8,1.647-1.43,2.738-1.866
			c1.091-0.436,2.375-0.655,3.853-0.655c1.43,0,2.666,0.194,3.732,0.581c1.042,0.388,1.914,0.969,2.618,1.721
			c0.678,0.752,1.186,1.672,1.526,2.787C364.686,84.941,364.857,86.2,364.857,87.63z M360.204,87.799
			c0-0.799-0.072-1.502-0.194-2.18c-0.121-0.655-0.339-1.236-0.63-1.721c-0.291-0.485-0.703-0.872-1.188-1.139
			c-0.485-0.266-1.114-0.411-1.866-0.411c-0.678,0-1.26,0.121-1.744,0.363c-0.509,0.242-0.921,0.606-1.236,1.067
			c-0.314,0.46-0.557,1.041-0.727,1.696c-0.169,0.654-0.242,1.43-0.242,2.277c0,0.8,0.073,1.503,0.194,2.181
			c0.122,0.654,0.339,1.235,0.63,1.721c0.291,0.484,0.678,0.872,1.188,1.138c0.509,0.267,1.114,0.412,1.866,0.412
			c0.678,0,1.285-0.122,1.769-0.364c0.508-0.242,0.921-0.605,1.235-1.066c0.315-0.461,0.558-1.042,0.728-1.696
			C360.132,89.399,360.204,88.648,360.204,87.799z"/>
		
			<linearGradient id="SVGID_22_" gradientUnits="userSpaceOnUse" x1="135.6813" y1="403.137" x2="134.5605" y2="363.0721" gradientTransform="matrix(2.1001 0 0 -2.1001 94.3405 899.3843)">
			<stop  offset="0" style="stop-color:#E7344D"/>
			<stop  offset="1" style="stop-color:#C30734"/>
		</linearGradient>
		<path fill="url(#SVGID_22_)" d="M385.816,95.771c0,0.122-0.048,0.219-0.097,0.315c-0.072,0.097-0.194,0.169-0.363,0.218
			c-0.17,0.048-0.388,0.097-0.678,0.122c-0.291,0.024-0.655,0.048-1.091,0.048c-0.436,0-0.8-0.025-1.091-0.048
			c-0.291-0.025-0.533-0.073-0.678-0.122c-0.169-0.048-0.291-0.145-0.363-0.218c-0.073-0.097-0.097-0.194-0.097-0.315v-9.11
			c0-0.776-0.048-1.382-0.17-1.818c-0.121-0.436-0.266-0.824-0.485-1.139c-0.219-0.316-0.484-0.558-0.824-0.727
			c-0.339-0.17-0.727-0.267-1.188-0.267c-0.581,0-1.163,0.219-1.744,0.63c-0.581,0.412-1.188,1.019-1.818,1.817v10.638
			c0,0.121-0.048,0.218-0.097,0.314c-0.073,0.097-0.194,0.17-0.364,0.219c-0.169,0.048-0.411,0.097-0.678,0.121
			c-0.291,0.025-0.654,0.048-1.09,0.048c-0.436,0-0.8-0.024-1.091-0.048c-0.291-0.024-0.509-0.072-0.678-0.121
			c-0.17-0.048-0.291-0.145-0.364-0.219c-0.072-0.097-0.097-0.194-0.097-0.314V79.803c0-0.122,0.025-0.219,0.097-0.315
			c0.048-0.097,0.17-0.169,0.315-0.217c0.145-0.048,0.363-0.097,0.605-0.145c0.242-0.025,0.558-0.048,0.922-0.048
			c0.388,0,0.702,0.024,0.944,0.048c0.242,0.024,0.436,0.072,0.581,0.145c0.145,0.048,0.242,0.145,0.291,0.217
			c0.048,0.097,0.097,0.194,0.097,0.315v1.841c0.873-0.945,1.794-1.672,2.69-2.157c0.922-0.484,1.866-0.727,2.86-0.727
			c1.091,0,2.011,0.17,2.738,0.533c0.752,0.364,1.357,0.849,1.818,1.454c0.46,0.606,0.799,1.333,0.993,2.157
			c0.194,0.824,0.316,1.818,0.316,2.98v9.887H385.816z"/>
		
			<linearGradient id="SVGID_23_" gradientUnits="userSpaceOnUse" x1="145.0701" y1="402.8751" x2="143.9493" y2="362.8094" gradientTransform="matrix(2.1001 0 0 -2.1001 94.3405 899.3843)">
			<stop  offset="0" style="stop-color:#E7344D"/>
			<stop  offset="1" style="stop-color:#C30734"/>
		</linearGradient>
		<path fill="url(#SVGID_23_)" d="M404.475,93.227c0,0.315,0,0.581-0.025,0.775c-0.024,0.219-0.048,0.389-0.072,0.534
			c-0.025,0.145-0.073,0.266-0.097,0.339c-0.048,0.097-0.122,0.194-0.267,0.339c-0.145,0.145-0.388,0.314-0.727,0.508
			c-0.339,0.194-0.75,0.364-1.188,0.533c-0.436,0.145-0.921,0.291-1.454,0.388c-0.508,0.097-1.066,0.145-1.599,0.145
			c-1.236,0-2.327-0.194-3.271-0.581c-0.945-0.388-1.745-0.944-2.399-1.696c-0.655-0.752-1.139-1.647-1.454-2.738
			c-0.34-1.066-0.486-2.302-0.486-3.683c0-1.599,0.194-2.98,0.606-4.143c0.412-1.163,0.969-2.132,1.672-2.883
			c0.727-0.775,1.575-1.333,2.544-1.696c0.969-0.364,2.06-0.558,3.223-0.558c0.485,0,0.945,0.048,1.405,0.122
			c0.461,0.072,0.897,0.194,1.285,0.339s0.752,0.314,1.066,0.485c0.316,0.169,0.533,0.339,0.678,0.46
			c0.145,0.122,0.219,0.242,0.267,0.339c0.048,0.097,0.097,0.194,0.12,0.34c0.025,0.144,0.048,0.314,0.073,0.533
			c0.024,0.217,0.024,0.46,0.024,0.75c0,0.703-0.048,1.188-0.169,1.455c-0.122,0.291-0.267,0.411-0.461,0.411
			c-0.194,0-0.411-0.072-0.654-0.242c-0.219-0.17-0.486-0.364-0.8-0.558c-0.316-0.194-0.678-0.388-1.115-0.557
			c-0.436-0.17-0.945-0.242-1.552-0.242c-1.163,0-2.059,0.46-2.69,1.357c-0.63,0.897-0.921,2.229-0.921,3.974
			c0,0.847,0.073,1.624,0.242,2.277c0.145,0.655,0.388,1.211,0.678,1.647c0.315,0.437,0.679,0.776,1.139,0.994
			c0.461,0.219,0.994,0.339,1.599,0.339c0.631,0,1.164-0.097,1.6-0.266c0.436-0.194,0.847-0.388,1.163-0.63
			c0.339-0.219,0.606-0.436,0.849-0.606c0.217-0.194,0.411-0.267,0.581-0.267c0.097,0,0.194,0.025,0.266,0.097
			c0.073,0.048,0.122,0.17,0.17,0.339c0.048,0.17,0.072,0.364,0.097,0.606C404.45,92.525,404.475,92.84,404.475,93.227z"/>
		
			<linearGradient id="SVGID_24_" gradientUnits="userSpaceOnUse" x1="153.9697" y1="402.6252" x2="152.849" y2="362.5612" gradientTransform="matrix(2.1001 0 0 -2.1001 94.3405 899.3843)">
			<stop  offset="0" style="stop-color:#E7344D"/>
			<stop  offset="1" style="stop-color:#C30734"/>
		</linearGradient>
		<path fill="url(#SVGID_24_)" d="M424.611,87.315c0,0.558-0.121,0.945-0.363,1.211c-0.242,0.267-0.583,0.388-1.019,0.388h-9.74
			c0,0.68,0.072,1.309,0.242,1.866c0.169,0.558,0.411,1.019,0.775,1.406c0.363,0.388,0.799,0.678,1.357,0.896
			c0.558,0.194,1.211,0.316,1.987,0.316c0.8,0,1.478-0.048,2.085-0.17c0.605-0.121,1.115-0.242,1.551-0.388
			c0.436-0.145,0.8-0.266,1.091-0.388c0.291-0.121,0.508-0.169,0.702-0.169c0.122,0,0.194,0.024,0.267,0.072
			c0.072,0.048,0.12,0.122,0.17,0.219c0.048,0.097,0.072,0.266,0.097,0.46c0.024,0.194,0.024,0.436,0.024,0.752
			c0,0.266,0,0.484-0.024,0.678c0,0.194-0.025,0.339-0.05,0.485c-0.024,0.122-0.048,0.242-0.097,0.339
			c-0.048,0.097-0.12,0.17-0.194,0.267c-0.072,0.072-0.291,0.194-0.63,0.339c-0.339,0.145-0.799,0.291-1.332,0.411
			c-0.533,0.145-1.164,0.267-1.842,0.364c-0.702,0.097-1.429,0.145-2.229,0.145c-1.43,0-2.666-0.17-3.732-0.533
			c-1.066-0.364-1.963-0.897-2.69-1.624c-0.727-0.727-1.26-1.647-1.599-2.763c-0.364-1.114-0.533-2.423-0.533-3.901
			c0-1.43,0.194-2.713,0.557-3.853c0.364-1.139,0.897-2.108,1.624-2.908c0.703-0.799,1.551-1.405,2.569-1.816
			c1.017-0.412,2.157-0.63,3.416-0.63c1.333,0,2.471,0.194,3.44,0.581c0.945,0.388,1.721,0.944,2.351,1.647
			c0.606,0.703,1.067,1.527,1.333,2.471c0.291,0.945,0.436,1.988,0.436,3.126V87.315L424.611,87.315z M420.249,86.03
			c0.048-1.26-0.217-2.252-0.75-2.98c-0.533-0.727-1.382-1.09-2.521-1.09c-0.581,0-1.066,0.097-1.502,0.314
			c-0.436,0.219-0.775,0.509-1.066,0.872c-0.291,0.364-0.509,0.8-0.655,1.285c-0.145,0.485-0.242,1.017-0.266,1.575h6.76V86.03z"/>
		
			<linearGradient id="SVGID_25_" gradientUnits="userSpaceOnUse" x1="164.2792" y1="402.347" x2="163.1585" y2="362.2813" gradientTransform="matrix(2.1001 0 0 -2.1001 94.3405 899.3843)">
			<stop  offset="0" style="stop-color:#E7344D"/>
			<stop  offset="1" style="stop-color:#C30734"/>
		</linearGradient>
		<path fill="url(#SVGID_25_)" d="M446.541,87.557c0,1.43-0.145,2.715-0.461,3.853c-0.314,1.139-0.75,2.108-1.333,2.908
			c-0.582,0.8-1.308,1.405-2.18,1.841c-0.872,0.436-1.866,0.655-2.98,0.655c-0.461,0-0.897-0.048-1.285-0.145
			c-0.388-0.097-0.775-0.219-1.139-0.412c-0.363-0.194-0.727-0.411-1.09-0.678c-0.364-0.266-0.727-0.605-1.114-0.969v7.536
			c0,0.121-0.048,0.218-0.097,0.316c-0.073,0.097-0.194,0.169-0.364,0.242c-0.17,0.072-0.412,0.121-0.678,0.145
			c-0.291,0.048-0.655,0.048-1.091,0.048c-0.436,0-0.799-0.025-1.09-0.048c-0.292-0.048-0.509-0.097-0.68-0.145
			c-0.169-0.073-0.291-0.145-0.363-0.242c-0.073-0.097-0.097-0.195-0.097-0.316V79.827c0-0.121,0.024-0.217,0.097-0.314
			c0.048-0.097,0.169-0.17,0.314-0.219c0.145-0.048,0.339-0.097,0.581-0.145c0.243-0.024,0.558-0.048,0.922-0.048
			c0.363,0,0.654,0.025,0.896,0.048c0.242,0.025,0.436,0.073,0.581,0.145c0.145,0.048,0.243,0.145,0.316,0.219
			c0.048,0.097,0.097,0.194,0.097,0.314v1.891c0.461-0.485,0.921-0.897,1.381-1.261c0.46-0.363,0.896-0.678,1.382-0.921
			c0.46-0.242,0.944-0.436,1.454-0.557c0.485-0.122,1.017-0.17,1.575-0.17c1.163,0,2.18,0.219,2.98,0.678
			c0.824,0.461,1.502,1.091,2.011,1.891c0.508,0.799,0.896,1.719,1.138,2.787C446.468,85.231,446.541,86.346,446.541,87.557z
			 M441.864,87.873c0-0.678-0.048-1.333-0.145-1.963c-0.097-0.63-0.266-1.188-0.508-1.672c-0.242-0.485-0.558-0.872-0.969-1.163
			c-0.412-0.291-0.897-0.436-1.503-0.436c-0.291,0-0.605,0.048-0.896,0.145c-0.291,0.097-0.583,0.242-0.897,0.436
			c-0.315,0.194-0.606,0.461-0.945,0.8c-0.339,0.339-0.654,0.727-1.017,1.211v5.258c0.63,0.8,1.236,1.43,1.818,1.866
			c0.581,0.436,1.163,0.655,1.793,0.655c0.581,0,1.091-0.145,1.503-0.436c0.411-0.291,0.75-0.678,1.017-1.164
			c0.266-0.485,0.46-1.017,0.581-1.647C441.792,89.084,441.864,88.478,441.864,87.873z"/>
		
			<linearGradient id="SVGID_26_" gradientUnits="userSpaceOnUse" x1="172.6193" y1="402.1032" x2="171.4985" y2="362.038" gradientTransform="matrix(2.1001 0 0 -2.1001 94.3405 899.3843)">
			<stop  offset="0" style="stop-color:#E7344D"/>
			<stop  offset="1" style="stop-color:#C30734"/>
		</linearGradient>
		<path fill="url(#SVGID_26_)" d="M461.589,94.196c0,0.534-0.024,0.922-0.097,1.212c-0.073,0.291-0.145,0.485-0.267,0.581
			c-0.097,0.121-0.266,0.218-0.484,0.314c-0.217,0.097-0.46,0.17-0.727,0.242c-0.291,0.073-0.581,0.122-0.921,0.145
			c-0.339,0.05-0.655,0.05-0.994,0.05c-0.896,0-1.671-0.122-2.326-0.34c-0.655-0.218-1.211-0.581-1.624-1.041
			c-0.436-0.461-0.752-1.066-0.945-1.794c-0.194-0.727-0.314-1.574-0.314-2.544v-8.19h-1.914c-0.219,0-0.412-0.145-0.509-0.412
			c-0.121-0.291-0.169-0.75-0.169-1.405c0-0.339,0.024-0.63,0.048-0.872c0.024-0.242,0.072-0.436,0.145-0.558
			c0.048-0.145,0.121-0.242,0.217-0.291s0.194-0.097,0.315-0.097h1.89v-3.562c0-0.121,0.025-0.217,0.097-0.314
			c0.073-0.097,0.194-0.17,0.364-0.243c0.169-0.072,0.411-0.121,0.703-0.145c0.291-0.024,0.654-0.048,1.09-0.048
			c0.436,0,0.8,0.025,1.091,0.048c0.291,0.025,0.509,0.073,0.678,0.145c0.17,0.073,0.291,0.145,0.364,0.243
			c0.072,0.097,0.097,0.194,0.097,0.314v3.562h3.465c0.121,0,0.217,0.025,0.314,0.097c0.097,0.048,0.17,0.17,0.219,0.291
			c0.048,0.145,0.097,0.315,0.145,0.558c0.024,0.242,0.048,0.533,0.048,0.872c0,0.655-0.048,1.114-0.17,1.405
			c-0.121,0.291-0.291,0.412-0.508,0.412h-3.49v7.511c0,0.872,0.145,1.527,0.413,1.963c0.266,0.436,0.775,0.655,1.477,0.655
			c0.242,0,0.461-0.025,0.655-0.073c0.194-0.048,0.364-0.097,0.509-0.145c0.145-0.048,0.266-0.097,0.363-0.145
			s0.194-0.072,0.291-0.072c0.073,0,0.145,0.024,0.194,0.072s0.122,0.122,0.145,0.242c0.025,0.122,0.073,0.291,0.097,0.509
			C461.589,93.591,461.589,93.857,461.589,94.196z"/>
	</g>
</g>
<radialGradient id="SVGID_27_" cx="-1434.403" cy="1947.3816" r="26.2373" gradientTransform="matrix(3.0957 0 0 0.3446 4521.6167 -494.2207)" gradientUnits="userSpaceOnUse">
	<stop  offset="0" style="stop-color:#DADADA"/>
	<stop  offset="0.9902" style="stop-color:#FFFFFF"/>
	<stop  offset="1" style="stop-color:#FFFFFF"/>
</radialGradient>
<path fill="url(#SVGID_27_)" d="M162.271,176.847c0,4.977-36.331,9.03-81.125,9.03c-44.815,0-81.146-4.053-81.146-9.03
	c0-4.998,36.331-9.03,81.146-9.03C125.96,167.816,162.271,171.869,162.271,176.847z"/>
</svg>
