<?xml version="1.0" encoding="utf-8"?>
<!-- Generator: Adobe Illustrator 25.0.1, SVG Export Plug-In . SVG Version: 6.00 Build 0)  -->
<svg version="1.1" id="Calque_1" xmlns="http://www.w3.org/2000/svg" xmlns:xlink="http://www.w3.org/1999/xlink" x="0px" y="0px"
	 viewBox="0 0 407.948 155.526" enable-background="new 0 0 407.948 155.526" xml:space="preserve">
<g>
	<path fill="#4C5C65" d="M188.542,118.99l-0.042,0.147c0,0.042,0.021,0.084,0.062,0.084s0.084-0.021,0.084-0.063l0.042-0.148
		c-0.02-0.02-0.041-0.04-0.062-0.062C188.584,118.927,188.562,118.948,188.542,118.99z"/>
	<path fill="#4C5C65" d="M190.997,129.069c1.05,0,1.89-0.252,2.52-0.735c0.63-0.504,0.945-1.134,0.945-1.91
		c0-0.715-0.274-1.323-0.84-1.743c-0.567-0.42-1.407-0.756-2.499-1.009c-0.966-0.21-1.617-0.461-1.953-0.734
		c-0.315-0.294-0.483-0.651-0.483-1.071c0-0.44,0.189-0.819,0.567-1.155c0.378-0.336,0.945-0.504,1.701-0.504
		c0.735,0,1.324,0.189,1.764,0.567c0.441,0.378,0.672,0.82,0.672,1.344h0.967l0.021-0.062c0.022-0.777-0.272-1.429-0.903-1.953
		c-0.608-0.526-1.448-0.798-2.499-0.798c-0.986,0-1.785,0.23-2.393,0.734c-0.609,0.504-0.903,1.113-0.903,1.827
		s0.273,1.282,0.819,1.68c0.546,0.399,1.366,0.715,2.478,0.945c0.945,0.21,1.596,0.462,1.953,0.798
		c0.358,0.336,0.546,0.715,0.546,1.155c0,0.462-0.21,0.882-0.717,1.239c-0.44,0.336-1.029,0.504-1.785,0.504
		c-0.693,0-1.302-0.168-1.806-0.462c-0.504-0.294-0.777-0.798-0.819-1.47h-0.944l-0.021,0.042c-0.042,0.756,0.274,1.406,0.924,1.952
		C188.96,128.797,189.863,129.069,190.997,129.069z"/>
	<path fill="#4C5C65" d="M201.583,119.306c-0.672,0-1.239,0.126-1.743,0.42c-0.504,0.294-0.903,0.693-1.218,1.218l-0.19-1.47h-0.84
		v12.999h1.05v-4.852c0.316,0.442,0.715,0.799,1.219,1.051c0.504,0.252,1.071,0.378,1.722,0.378c1.113,0,1.995-0.42,2.625-1.261
		c0.652-0.839,0.966-1.953,0.966-3.359h0.021v-0.189c0-1.491-0.336-2.688-0.966-3.591
		C203.6,119.746,202.717,119.306,201.583,119.306z M204.146,124.407c0,1.113-0.252,2.017-0.715,2.709
		c-0.462,0.693-1.155,1.029-2.058,1.029c-0.651,0-1.218-0.147-1.659-0.441c-0.44-0.294-0.776-0.692-1.029-1.196v-4.536
		c0.211-0.525,0.547-0.945,0.987-1.281c0.42-0.336,0.988-0.504,1.681-0.504c0.902,0,1.596,0.378,2.079,1.134
		c0.483,0.756,0.714,1.722,0.714,2.919V124.407z"/>
	<path fill="#4C5C65" d="M207.694,123.947v0.483c0,1.364,0.378,2.457,1.134,3.317c0.756,0.841,1.743,1.281,2.961,1.281
		c0.735,0,1.386-0.104,1.931-0.334c0.546-0.23,0.966-0.524,1.302-0.861l-0.441-0.714c-0.314,0.316-0.714,0.567-1.197,0.756
		c-0.482,0.189-1.008,0.273-1.574,0.273c-0.967,0-1.701-0.336-2.247-1.05c-0.547-0.714-0.819-1.597-0.819-2.667v-0.294h6.531v-0.799
		c0-1.238-0.294-2.226-0.924-2.961c-0.63-0.734-1.512-1.092-2.646-1.092s-2.1,0.441-2.857,1.323
		C208.072,121.469,207.694,122.603,207.694,123.947z M211.685,120.166c0.818,0,1.427,0.273,1.868,0.819
		c0.441,0.546,0.651,1.218,0.651,2.058v0.21h-5.376l-0.021-0.042c0.084-0.882,0.379-1.617,0.903-2.184
		C210.236,120.46,210.886,120.166,211.685,120.166z"/>
	<polygon fill="#4C5C65" points="211.936,117.772 214.099,115.525 214.078,115.483 212.797,115.483 211.011,117.772 	"/>
	<path fill="#4C5C65" d="M223.971,128.167c0.714-0.588,1.049-1.323,1.028-2.184l-0.021-0.042h-0.924c0,0.694-0.273,1.24-0.777,1.638
		c-0.504,0.4-1.092,0.588-1.764,0.588c-0.988,0-1.723-0.378-2.184-1.093c-0.483-0.713-0.714-1.617-0.714-2.729v-0.358
		c0-1.071,0.252-1.974,0.714-2.709c0.462-0.736,1.198-1.092,2.185-1.092c0.714,0,1.323,0.231,1.806,0.672
		c0.483,0.462,0.735,1.05,0.735,1.806h0.924l0.021-0.062c0.021-0.987-0.294-1.785-0.966-2.394c-0.672-0.608-1.512-0.902-2.52-0.902
		c-1.261,0-2.227,0.44-2.919,1.322c-0.694,0.882-1.051,1.995-1.051,3.36v0.358c0,1.386,0.358,2.499,1.051,3.381
		c0.692,0.882,1.68,1.323,2.919,1.323C222.438,129.05,223.257,128.756,223.971,128.167z"/>
	<rect x="228.065" y="115.336" fill="#4C5C65" width="1.029" height="1.449"/>
	<rect x="228.065" y="119.473" fill="#4C5C65" width="1.029" height="9.387"/>
	<path fill="#4C5C65" d="M239.676,128.904c-0.084-0.294-0.147-0.609-0.189-0.924c-0.041-0.316-0.062-0.63-0.062-0.966v-4.62
		c0-0.987-0.315-1.743-0.945-2.268c-0.63-0.525-1.45-0.798-2.478-0.798c-1.029,0-1.869,0.274-2.499,0.798
		c-0.63,0.546-0.945,1.155-0.903,1.869l0.02,0.042h0.967c0-0.525,0.21-0.946,0.65-1.302c0.442-0.357,1.009-0.525,1.723-0.525
		c0.777,0,1.386,0.189,1.806,0.567s0.63,0.903,0.63,1.575v1.154h-2.31c-1.175,0-2.121,0.253-2.856,0.777
		c-0.736,0.525-1.092,1.197-1.092,2.037c0,0.84,0.252,1.512,0.756,1.995c0.504,0.483,1.218,0.735,2.143,0.735
		c0.756,0,1.428-0.168,2.016-0.504s1.05-0.757,1.365-1.261c0,0.252,0.021,0.503,0.042,0.735c0.042,0.232,0.084,0.504,0.146,0.84
		l-0.001,0.044H239.676z M238.438,126.067c-0.21,0.61-0.608,1.092-1.196,1.47c-0.589,0.378-1.281,0.567-2.079,0.567
		c-0.609,0-1.071-0.168-1.43-0.484c-0.356-0.314-0.524-0.756-0.524-1.28c0-0.567,0.252-1.051,0.818-1.449
		c0.568-0.399,1.261-0.609,2.101-0.609h2.31V126.067z"/>
	<rect x="243.059" y="115.336" fill="#4C5C65" width="1.029" height="13.524"/>
	<rect x="247.805" y="119.473" fill="#4C5C65" width="1.029" height="9.387"/>
	<rect x="247.805" y="115.336" fill="#4C5C65" width="1.029" height="1.449"/>
	<path fill="#4C5C65" d="M258.095,128.334c0.63-0.504,0.944-1.134,0.944-1.91c0-0.715-0.273-1.323-0.84-1.743
		c-0.567-0.42-1.407-0.756-2.499-1.009c-0.966-0.21-1.617-0.461-1.953-0.734c-0.314-0.294-0.483-0.651-0.483-1.071
		c0-0.44,0.189-0.819,0.567-1.155c0.378-0.336,0.945-0.504,1.701-0.504c0.736,0,1.324,0.189,1.764,0.567
		c0.442,0.378,0.672,0.82,0.672,1.344h0.967l0.021-0.062c0.022-0.777-0.272-1.429-0.902-1.953c-0.609-0.526-1.449-0.798-2.499-0.798
		c-0.988,0-1.786,0.23-2.395,0.734c-0.609,0.504-0.903,1.113-0.903,1.827s0.273,1.282,0.819,1.68
		c0.546,0.399,1.366,0.715,2.479,0.945c0.944,0.21,1.596,0.462,1.952,0.798c0.358,0.336,0.546,0.715,0.546,1.155
		c0,0.462-0.231,0.882-0.716,1.239c-0.44,0.336-1.028,0.504-1.785,0.504c-0.693,0-1.302-0.168-1.806-0.462
		c-0.504-0.294-0.777-0.798-0.819-1.47h-0.944l-0.021,0.042c-0.042,0.756,0.274,1.406,0.924,1.952
		c0.651,0.547,1.554,0.819,2.688,0.819C256.624,129.069,257.464,128.817,258.095,128.334z"/>
	<path fill="#4C5C65" d="M265.446,128.923c0.21-0.042,0.378-0.106,0.525-0.168l-0.147-0.777c-0.168,0.042-0.294,0.062-0.42,0.084
		c-0.126,0.021-0.252,0.021-0.378,0.021c-0.358,0-0.652-0.126-0.882-0.378c-0.232-0.252-0.336-0.693-0.336-1.302v-6.111h2.058v-0.84
		h-2.058v-2.394l0.001-0.023h-1.05v2.395h-1.617v0.84h1.617v6.111c0,0.903,0.189,1.554,0.546,1.974
		c0.356,0.42,0.882,0.63,1.532,0.63C265.048,128.985,265.236,128.965,265.446,128.923z"/>
	<path fill="#4C5C65" d="M274.978,127.119c-0.314,0.316-0.714,0.567-1.197,0.756c-0.482,0.189-1.008,0.273-1.574,0.273
		c-0.967,0-1.701-0.336-2.247-1.05c-0.546-0.714-0.819-1.597-0.819-2.667v-0.294h6.531v-0.799c0-1.238-0.294-2.226-0.924-2.961
		c-0.63-0.734-1.512-1.092-2.646-1.092c-1.133,0-2.099,0.441-2.856,1.323c-0.776,0.861-1.154,1.995-1.154,3.339v0.483
		c0,1.364,0.378,2.457,1.134,3.317c0.756,0.841,1.743,1.281,2.961,1.281c0.735,0,1.385-0.104,1.93-0.334
		c0.546-0.23,0.966-0.524,1.302-0.861L274.978,127.119z M270.107,121.027c0.526-0.567,1.176-0.861,1.975-0.861
		c0.818,0,1.428,0.273,1.869,0.819c0.441,0.546,0.651,1.218,0.651,2.058v0.21h-5.376l-0.022-0.042
		C269.288,122.329,269.582,121.594,270.107,121.027z"/>
	<path fill="#4C5C65" d="M285.081,126.424c0-0.715-0.274-1.323-0.84-1.743c-0.567-0.42-1.407-0.756-2.499-1.009
		c-0.967-0.21-1.617-0.461-1.953-0.734c-0.315-0.294-0.483-0.651-0.483-1.071c0-0.44,0.189-0.819,0.567-1.155
		s0.944-0.504,1.701-0.504c0.735,0,1.323,0.189,1.764,0.567c0.441,0.378,0.672,0.82,0.672,1.344h0.966l0.021-0.062
		c0.021-0.777-0.273-1.429-0.903-1.953c-0.609-0.526-1.449-0.798-2.499-0.798c-0.987,0-1.785,0.23-2.393,0.734
		c-0.609,0.504-0.903,1.113-0.903,1.827s0.272,1.282,0.819,1.68c0.545,0.399,1.364,0.715,2.477,0.945
		c0.945,0.21,1.595,0.462,1.953,0.798c0.358,0.336,0.546,0.715,0.546,1.155c0,0.462-0.231,0.882-0.715,1.239
		c-0.441,0.336-1.029,0.504-1.785,0.504c-0.694,0-1.302-0.168-1.806-0.462c-0.504-0.294-0.777-0.798-0.819-1.47h-0.945l-0.02,0.042
		c-0.042,0.756,0.273,1.406,0.924,1.952c0.651,0.547,1.553,0.819,2.688,0.819c1.05,0,1.89-0.252,2.52-0.735
		C284.766,127.83,285.081,127.2,285.081,126.424z"/>
	<path fill="#4C5C65" d="M299.382,127.494l0.147,1.365h0.84v-13.524h-1.05v5.523c-0.315-0.504-0.714-0.882-1.197-1.155
		c-0.483-0.272-1.03-0.398-1.68-0.398c-1.133,0-2.016,0.441-2.646,1.344s-0.944,2.1-0.944,3.591v0.167
		c0,1.407,0.314,2.52,0.944,3.36c0.63,0.84,1.491,1.26,2.625,1.26c0.672,0,1.261-0.126,1.743-0.398
		C298.668,128.377,299.068,127.998,299.382,127.494z M294.552,127.139c-0.441-0.672-0.672-1.575-0.672-2.709l0.001-0.189
		c0-1.197,0.231-2.163,0.693-2.919c0.462-0.735,1.134-1.113,2.058-1.113c0.693,0,1.261,0.168,1.701,0.504
		c0.442,0.336,0.778,0.778,1.008,1.303v4.452c-0.252,0.524-0.609,0.944-1.05,1.238c-0.462,0.294-1.008,0.441-1.68,0.441
		C295.687,128.147,295.014,127.811,294.552,127.139z"/>
	<path fill="#4C5C65" d="M309.987,127.327l0.083,1.533h0.924v-9.387h-1.05v6.699c-0.188,0.609-0.524,1.071-0.987,1.428
		c-0.462,0.357-1.092,0.525-1.868,0.525c-0.715,0-1.261-0.252-1.659-0.757c-0.399-0.482-0.588-1.322-0.588-2.457v-5.46h-1.051v5.44
		c0,1.428,0.274,2.457,0.841,3.129c0.566,0.672,1.344,1.008,2.33,1.008c0.694,0,1.282-0.146,1.807-0.44
		C309.295,128.294,309.693,127.873,309.987,127.327z"/>
	<path fill="#4C5C65" d="M320.74,121.278c0.463-0.736,1.198-1.092,2.185-1.092c0.714,0,1.324,0.231,1.806,0.672
		c0.483,0.462,0.735,1.05,0.735,1.806h0.924l0.021-0.062c0.02-0.987-0.294-1.785-0.967-2.394c-0.672-0.608-1.512-0.902-2.52-0.902
		c-1.26,0-2.227,0.44-2.919,1.322c-0.694,0.882-1.05,1.995-1.05,3.36v0.358c0,1.386,0.357,2.499,1.05,3.381
		c0.692,0.882,1.68,1.323,2.919,1.323c0.924,0,1.743-0.294,2.457-0.883c0.713-0.588,1.05-1.323,1.029-2.184l-0.021-0.042h-0.924
		c0,0.694-0.273,1.24-0.777,1.638c-0.504,0.4-1.092,0.588-1.764,0.588c-0.987,0-1.722-0.378-2.184-1.093
		c-0.483-0.713-0.714-1.617-0.714-2.729v-0.358C320.026,122.916,320.278,122.013,320.74,121.278z"/>
	<path fill="#4C5C65" d="M332.9,119.285c-1.239,0-2.247,0.441-3.004,1.323c-0.756,0.881-1.134,2.015-1.134,3.402l0.001,0.294
		c0,1.385,0.378,2.519,1.134,3.401c0.756,0.883,1.764,1.323,3.024,1.323c1.239,0,2.247-0.44,3.003-1.323
		c0.756-0.881,1.134-2.015,1.134-3.401v-0.294c0-1.386-0.378-2.52-1.134-3.402C335.168,119.726,334.16,119.285,332.9,119.285z
		 M335.986,124.304c0,1.071-0.273,1.996-0.819,2.73c-0.546,0.735-1.302,1.113-2.268,1.113c-0.967,0-1.743-0.378-2.289-1.113
		c-0.545-0.735-0.819-1.638-0.819-2.73h-0.042v-0.294c0-1.071,0.273-1.995,0.819-2.73c0.546-0.735,1.322-1.113,2.289-1.113
		c0.966,0,1.742,0.357,2.289,1.113c0.567,0.755,0.84,1.659,0.84,2.73V124.304z"/>
	<path fill="#4C5C65" d="M345.437,120.861c0.398,0.462,0.608,1.218,0.608,2.289v5.712h1.051v-5.712c0-1.323-0.274-2.289-0.799-2.919
		c-0.546-0.61-1.322-0.924-2.33-0.924c-0.694,0-1.303,0.168-1.807,0.482c-0.504,0.315-0.904,0.756-1.218,1.323l-0.084-1.638
		l0.001-0.02h-0.966v9.388h1.05v-6.637c0.21-0.609,0.524-1.114,0.987-1.47c0.44-0.358,1.028-0.546,1.784-0.546
		C344.471,120.189,345.038,120.42,345.437,120.861z"/>
	<path fill="#4C5C65" d="M351.107,126.381c0,0.903,0.19,1.554,0.546,1.974c0.357,0.42,0.882,0.63,1.533,0.63
		c0.21,0,0.399-0.02,0.609-0.062c0.21-0.042,0.378-0.106,0.524-0.168l-0.146-0.777c-0.168,0.042-0.294,0.062-0.42,0.084
		c-0.126,0.021-0.252,0.021-0.378,0.021c-0.357,0-0.652-0.126-0.883-0.378c-0.231-0.252-0.336-0.693-0.336-1.302v-6.111h2.058v-0.84
		h-2.058v-2.394h0.001v-0.023h-1.05v2.395h-1.617v0.84h1.617V126.381z"/>
	<path fill="#4C5C65" d="M360.705,119.306c-0.631,0-1.177,0.168-1.639,0.482c-0.462,0.316-0.818,0.756-1.092,1.344v-0.105
		l-0.126-1.554h-0.903v9.387h1.05v-6.489c0.189-0.63,0.483-1.134,0.903-1.512c0.42-0.357,0.966-0.546,1.617-0.546l0.735,0.042
		l0.105-0.965c-0.084-0.022-0.189-0.042-0.294-0.064C360.957,119.306,360.831,119.306,360.705,119.306z"/>
	<path fill="#4C5C65" d="M367.15,129.028c1.239,0,2.247-0.44,3.004-1.323c0.756-0.881,1.134-2.015,1.134-3.401v-0.294
		c0-1.386-0.378-2.52-1.134-3.402c-0.756-0.882-1.764-1.323-3.024-1.323c-1.239,0-2.247,0.441-3.003,1.323
		c-0.756,0.881-1.134,2.015-1.134,3.402l0,0.294c0,1.385,0.378,2.519,1.134,3.401C364.882,128.588,365.89,129.028,367.15,129.028z
		 M363.979,124.304v-0.294c0-1.071,0.273-1.995,0.819-2.73c0.546-0.735,1.323-1.113,2.289-1.113s1.743,0.357,2.289,1.113
		c0.568,0.755,0.84,1.659,0.84,2.73v0.294c0,1.071-0.272,1.996-0.819,2.73c-0.546,0.735-1.302,1.113-2.268,1.113
		s-1.743-0.378-2.289-1.113c-0.546-0.735-0.819-1.638-0.819-2.73H363.979z"/>
	<polygon fill="#4C5C65" points="367.256,116.302 368.705,117.751 369.671,117.751 369.671,117.604 367.656,115.652 
		366.815,115.652 364.841,117.563 364.841,117.751 365.807,117.751 	"/>
	<rect x="374.313" y="115.336" fill="#4C5C65" width="1.028" height="13.524"/>
	<path fill="#4C5C65" d="M382.397,119.285c-1.134,0-2.101,0.441-2.857,1.323c-0.777,0.861-1.155,1.995-1.155,3.339v0.483
		c0,1.364,0.378,2.457,1.135,3.317c0.756,0.841,1.743,1.281,2.961,1.281c0.735,0,1.386-0.104,1.931-0.334
		c0.546-0.23,0.966-0.524,1.302-0.861l-0.44-0.714c-0.315,0.316-0.714,0.567-1.197,0.756c-0.482,0.189-1.008,0.273-1.575,0.273
		c-0.966,0-1.701-0.336-2.247-1.05c-0.546-0.714-0.818-1.597-0.818-2.667v-0.294h6.531v-0.799c0-1.238-0.295-2.226-0.925-2.961
		C384.413,119.643,383.531,119.285,382.397,119.285z M384.896,123.253h-5.376l-0.021-0.042c0.084-0.882,0.378-1.617,0.903-2.184
		c0.525-0.567,1.176-0.861,1.974-0.861c0.819,0,1.429,0.273,1.869,0.819c0.441,0.546,0.651,1.218,0.651,2.058V123.253z"/>
	<path fill="#4C5C65" d="M191.356,140.622c-1.134,0-2.1,0.44-2.856,1.322c-0.777,0.861-1.155,1.995-1.155,3.34v0.482
		c0,1.365,0.378,2.457,1.134,3.318c0.756,0.84,1.743,1.281,2.961,1.281c0.735,0,1.386-0.126,1.931-0.334
		c0.546-0.231,0.966-0.525,1.302-0.861l-0.44-0.714c-0.315,0.315-0.715,0.567-1.197,0.756c-0.483,0.189-1.008,0.273-1.575,0.273
		c-0.966,0-1.701-0.336-2.247-1.051c-0.546-0.714-0.819-1.596-0.819-2.667v-0.294h6.531v-0.798c0-1.239-0.294-2.226-0.924-2.961
		C193.373,140.979,192.491,140.622,191.356,140.622z M193.855,144.59h-5.376l-0.021-0.042c0.084-0.882,0.378-1.618,0.902-2.184
		c0.526-0.567,1.177-0.861,1.975-0.861c0.819,0,1.428,0.272,1.87,0.819c0.44,0.546,0.65,1.218,0.65,2.058V144.59z"/>
	<path fill="#4C5C65" d="M200.932,149.378c-0.126,0.022-0.252,0.022-0.378,0.022c-0.357,0-0.651-0.127-0.882-0.379
		s-0.336-0.693-0.336-1.302v-6.111h2.059v-0.84h-2.059v-2.394l0.001-0.023h-1.05v2.395h-1.617v0.84h1.617v6.111
		c0,0.903,0.189,1.554,0.546,1.974s0.882,0.63,1.533,0.63c0.21,0,0.398-0.02,0.608-0.062c0.211-0.042,0.379-0.106,0.525-0.168
		l-0.146-0.777C201.184,149.336,201.058,149.357,200.932,149.378z"/>
	<path fill="#4C5C65" d="M215.233,142.174c-0.315-0.504-0.714-0.882-1.197-1.155c-0.484-0.272-1.03-0.398-1.68-0.398
		c-1.134,0-2.016,0.441-2.646,1.344c-0.63,0.903-0.945,2.1-0.945,3.591v0.167c0,1.407,0.315,2.52,0.945,3.36
		c0.63,0.84,1.491,1.26,2.625,1.26c0.672,0,1.26-0.126,1.743-0.398c0.504-0.252,0.903-0.63,1.218-1.135l0.147,1.365h0.84v-13.524
		h-1.05V142.174z M215.276,147.783c-0.252,0.524-0.61,0.944-1.05,1.238c-0.462,0.293-1.009,0.441-1.681,0.441
		c-0.924,0-1.596-0.336-2.058-1.008c-0.441-0.672-0.672-1.575-0.672-2.709l0.001-0.189c0-1.197,0.23-2.163,0.692-2.919
		c0.462-0.735,1.135-1.113,2.059-1.113c0.692,0,1.26,0.168,1.701,0.504c0.441,0.337,0.777,0.778,1.008,1.303V147.783z"/>
	<path fill="#4C5C65" d="M223.256,140.622c-1.135,0-2.101,0.44-2.857,1.322c-0.777,0.861-1.155,1.995-1.155,3.34v0.482
		c0,1.365,0.378,2.457,1.134,3.318c0.757,0.84,1.743,1.281,2.962,1.281c0.756,0,1.386-0.126,1.931-0.334
		c0.546-0.231,0.966-0.525,1.302-0.861l-0.44-0.714c-0.315,0.315-0.715,0.567-1.197,0.756c-0.483,0.189-1.008,0.273-1.575,0.273
		c-0.966,0-1.701-0.336-2.247-1.051c-0.546-0.714-0.819-1.596-0.819-2.667v-0.294h6.531v-0.798c0-1.239-0.294-2.226-0.924-2.961
		S224.39,140.622,223.256,140.622z M225.775,144.59h-5.376l-0.021-0.042c0.084-0.882,0.378-1.618,0.903-2.184
		c0.526-0.567,1.176-0.861,1.975-0.861c0.798,0,1.428,0.272,1.868,0.819c0.441,0.546,0.651,1.218,0.651,2.058V144.59z"/>
	<rect x="234.806" y="136.651" fill="#4C5C65" width="1.029" height="13.525"/>
	<path fill="#4C5C65" d="M246.166,148.331v-4.62c0-0.988-0.315-1.744-0.945-2.269c-0.63-0.525-1.45-0.798-2.478-0.798
		c-1.029,0-1.869,0.274-2.499,0.798c-0.63,0.546-0.945,1.155-0.903,1.869l0.021,0.042h0.967c0-0.525,0.21-0.945,0.65-1.302
		c0.442-0.357,1.009-0.525,1.723-0.525c0.777,0,1.386,0.189,1.806,0.567s0.63,0.903,0.63,1.575v1.155h-2.31
		c-1.176,0-2.121,0.252-2.856,0.776c-0.736,0.525-1.092,1.197-1.092,2.037c0,0.84,0.252,1.513,0.756,1.995
		c0.504,0.483,1.218,0.735,2.142,0.735c0.757,0,1.429-0.168,2.017-0.504s1.05-0.757,1.365-1.261c0,0.252,0.021,0.503,0.042,0.735
		c0.042,0.232,0.084,0.504,0.146,0.84h-0.002v0.045h1.071c-0.083-0.294-0.147-0.609-0.189-0.924
		C246.187,148.981,246.166,148.667,246.166,148.331z M245.179,147.404c-0.21,0.609-0.608,1.092-1.197,1.47
		c-0.588,0.377-1.28,0.567-2.078,0.567c-0.609,0-1.071-0.169-1.43-0.484c-0.356-0.315-0.524-0.756-0.524-1.281
		c0-0.566,0.252-1.05,0.818-1.449c0.568-0.398,1.261-0.608,2.101-0.608h2.31V147.404z"/>
	<path fill="#4C5C65" d="M262.232,145.556c0-1.491-0.336-2.688-0.966-3.591c-0.629-0.904-1.512-1.344-2.646-1.344
		c-0.672,0-1.239,0.126-1.743,0.42c-0.504,0.294-0.903,0.693-1.218,1.218l-0.19-1.47h-0.798v12.999h1.05v-4.852
		c0.316,0.442,0.715,0.799,1.219,1.051c0.504,0.252,1.072,0.378,1.722,0.378c1.113,0,1.995-0.42,2.625-1.261
		c0.652-0.84,0.966-1.952,0.966-3.359l-0.021,0.001V145.556z M261.225,145.724c0,1.113-0.252,2.017-0.715,2.709
		c-0.462,0.693-1.155,1.029-2.058,1.029c-0.651,0-1.218-0.147-1.659-0.441c-0.44-0.295-0.776-0.693-1.029-1.197v-4.536
		c0.211-0.525,0.547-0.945,0.987-1.281c0.42-0.336,0.988-0.504,1.681-0.504c0.902,0,1.596,0.378,2.079,1.134
		c0.483,0.756,0.714,1.722,0.714,2.919V145.724z"/>
	<path fill="#4C5C65" d="M268.784,140.622c-1.134,0-2.1,0.44-2.856,1.322c-0.777,0.861-1.155,1.995-1.155,3.34v0.482
		c0,1.365,0.378,2.457,1.134,3.318c0.756,0.84,1.743,1.281,2.961,1.281c0.736,0,1.387-0.126,1.931-0.334
		c0.546-0.231,0.966-0.525,1.302-0.861l-0.441-0.714c-0.314,0.315-0.714,0.567-1.196,0.756c-0.483,0.189-1.009,0.273-1.575,0.273
		c-0.966,0-1.701-0.336-2.247-1.051c-0.546-0.714-0.819-1.596-0.819-2.667v-0.294h6.531v-0.798c0-1.239-0.294-2.226-0.924-2.961
		C270.801,140.979,269.919,140.622,268.784,140.622z M271.284,144.59h-5.376l-0.021-0.042c0.084-0.882,0.378-1.618,0.902-2.184
		c0.526-0.567,1.177-0.861,1.975-0.861c0.818,0,1.427,0.272,1.87,0.819c0.44,0.546,0.65,1.218,0.65,2.058V144.59z"/>
	<path fill="#4C5C65" d="M278.887,140.62c-0.63,0-1.176,0.168-1.638,0.483c-0.462,0.316-0.82,0.756-1.093,1.345v-0.105l-0.126-1.554
		h-0.902v9.387h1.05v-6.489c0.188-0.63,0.483-1.134,0.903-1.512c0.42-0.358,0.966-0.546,1.616-0.546l0.735,0.042l0.106-0.967
		c-0.084-0.021-0.19-0.042-0.294-0.063C279.139,140.62,279.013,140.62,278.887,140.62z"/>
	<path fill="#4C5C65" d="M291.8,140.642c-0.735,0-1.366,0.168-1.89,0.546c-0.526,0.378-0.946,0.882-1.218,1.533
		c-0.21-0.714-0.547-1.239-1.029-1.575c-0.462-0.357-1.071-0.525-1.785-0.525c-0.693,0-1.281,0.146-1.785,0.44
		c-0.504,0.294-0.903,0.714-1.197,1.26l-0.084-1.532l-0.001,0.042h-0.986v9.387h1.05v-6.615c0.168-0.63,0.462-1.134,0.903-1.491
		c0.44-0.357,1.008-0.546,1.742-0.546c0.715,0,1.281,0.252,1.701,0.735c0.42,0.484,0.63,1.302,0.63,2.436v5.481h1.051v-5.628
		c0-0.105,0-0.19,0-0.252c0-0.063,0-0.125,0-0.189c0.104-0.756,0.378-1.386,0.818-1.868c0.442-0.484,1.051-0.715,1.849-0.715
		c0.734,0,1.281,0.232,1.701,0.715c0.398,0.482,0.608,1.302,0.608,2.457v5.48h1.05v-5.48c0-1.387-0.272-2.416-0.818-3.088
		C293.565,140.978,292.808,140.642,291.8,140.642z"/>
	<polygon fill="#4C5C65" points="302.091,139.088 304.254,136.841 304.233,136.799 302.952,136.799 301.167,139.088 	"/>
	<path fill="#4C5C65" d="M301.859,140.622c-1.133,0-2.1,0.44-2.856,1.322c-0.776,0.861-1.154,1.995-1.154,3.34v0.482
		c0,1.365,0.378,2.457,1.134,3.318c0.756,0.84,1.743,1.281,2.961,1.281c0.756,0,1.386-0.126,1.93-0.334
		c0.546-0.231,0.967-0.525,1.303-0.861l-0.441-0.714c-0.315,0.315-0.714,0.567-1.197,0.756c-0.482,0.189-1.008,0.273-1.575,0.273
		c-0.966,0-1.7-0.336-2.247-1.051c-0.545-0.714-0.818-1.596-0.818-2.667v-0.294h6.531v-0.798c0-1.239-0.294-2.226-0.925-2.961
		C303.875,140.979,302.993,140.622,301.859,140.622z M304.38,144.59h-5.376l-0.021-0.042c0.084-0.882,0.378-1.618,0.903-2.184
		c0.525-0.567,1.176-0.861,1.974-0.861c0.82,0,1.428,0.272,1.87,0.819c0.44,0.546,0.65,1.218,0.65,2.058V144.59z"/>
	<path fill="#4C5C65" d="M315.005,148.331v-4.62c0-0.988-0.315-1.744-0.945-2.269c-0.629-0.525-1.449-0.798-2.478-0.798
		c-1.028,0-1.868,0.274-2.499,0.798c-0.629,0.546-0.944,1.155-0.902,1.869l0.021,0.042h0.966c0-0.525,0.21-0.945,0.651-1.302
		c0.442-0.357,1.008-0.525,1.722-0.525c0.778,0,1.387,0.189,1.807,0.567c0.42,0.378,0.63,0.903,0.63,1.575v1.155h-2.31
		c-1.177,0-2.122,0.252-2.857,0.776c-0.735,0.525-1.092,1.197-1.092,2.037c0,0.84,0.252,1.513,0.756,1.995
		c0.504,0.483,1.218,0.735,2.142,0.735c0.756,0,1.429-0.168,2.017-0.504s1.05-0.757,1.364-1.261c0,0.252,0.022,0.503,0.043,0.735
		c0.043,0.232,0.085,0.504,0.147,0.84h-0.002v0.045h1.071c-0.084-0.294-0.148-0.609-0.19-0.924
		C315.026,148.981,315.005,148.667,315.005,148.331z M313.999,147.404c-0.21,0.609-0.609,1.092-1.197,1.47
		c-0.588,0.377-1.281,0.567-2.079,0.567c-0.61,0-1.072-0.169-1.428-0.484c-0.357-0.315-0.525-0.756-0.525-1.281
		c0-0.566,0.252-1.05,0.819-1.449c0.567-0.398,1.26-0.608,2.1-0.608h2.31V147.404z"/>
	<path fill="#4C5C65" d="M322.504,140.621c-0.672,0-1.239,0.147-1.722,0.42c-0.483,0.294-0.883,0.672-1.197,1.197v-5.587h-1.05
		v13.524h0.818l0.168-1.407c0.316,0.505,0.736,0.904,1.219,1.177c0.483,0.273,1.071,0.42,1.764,0.42c1.113,0,1.995-0.42,2.625-1.261
		c0.63-0.84,0.945-1.952,0.945-3.359l0.02,0.001v-0.19c0-1.491-0.314-2.688-0.945-3.591
		C324.52,141.061,323.638,140.621,322.504,140.621z M325.023,145.744c0,1.134-0.23,2.037-0.692,2.709
		c-0.441,0.672-1.134,1.008-2.037,1.008c-0.694,0-1.26-0.168-1.723-0.483c-0.462-0.314-0.798-0.734-1.028-1.28v-4.284
		c0.21-0.567,0.546-1.008,0.986-1.365c0.441-0.357,1.029-0.525,1.743-0.525c0.904,0,1.597,0.357,2.059,1.113
		c0.462,0.756,0.692,1.722,0.692,2.919V145.744z"/>
	<rect x="329.245" y="140.789" fill="#4C5C65" width="1.029" height="9.387"/>
	<rect x="329.245" y="136.651" fill="#4C5C65" width="1.029" height="1.449"/>
	<rect x="333.992" y="136.651" fill="#4C5C65" width="1.029" height="13.525"/>
	<rect x="338.716" y="140.789" fill="#4C5C65" width="1.029" height="9.387"/>
	<rect x="338.716" y="136.651" fill="#4C5C65" width="1.029" height="1.449"/>
	<path fill="#4C5C65" d="M346.55,149.378c-0.126,0.022-0.253,0.022-0.379,0.022c-0.357,0-0.651-0.127-0.882-0.379
		c-0.231-0.252-0.336-0.693-0.336-1.302v-6.111h2.059v-0.84h-2.059v-2.394h0.001v-0.023h-1.05v2.395h-1.617v0.84h1.617v6.111
		c0,0.903,0.19,1.554,0.546,1.974c0.357,0.42,0.882,0.63,1.533,0.63c0.21,0,0.398-0.02,0.609-0.062
		c0.21-0.042,0.378-0.106,0.524-0.168l-0.146-0.777C346.802,149.336,346.676,149.357,346.55,149.378z"/>
	<path fill="#4C5C65" d="M353.247,140.622c-1.133,0-2.099,0.44-2.855,1.322c-0.777,0.861-1.155,1.995-1.155,3.34v0.482
		c0,1.365,0.378,2.457,1.134,3.318c0.756,0.84,1.743,1.281,2.961,1.281c0.757,0,1.387-0.126,1.93-0.334
		c0.546-0.231,0.966-0.525,1.302-0.861l-0.44-0.714c-0.315,0.315-0.715,0.567-1.197,0.756c-0.483,0.189-1.008,0.273-1.575,0.273
		c-0.966,0-1.701-0.336-2.247-1.051c-0.546-0.714-0.819-1.596-0.819-2.667v-0.294h6.531v-0.798c0-1.239-0.294-2.226-0.924-2.961
		C355.264,140.979,354.382,140.622,353.247,140.622z M355.749,144.59h-5.377l-0.021-0.042c0.084-0.882,0.378-1.618,0.903-2.184
		c0.525-0.567,1.176-0.861,1.974-0.861c0.819,0,1.427,0.272,1.87,0.819c0.44,0.546,0.651,1.218,0.651,2.058V144.59z"/>
	<polygon fill="#4C5C65" points="353.48,139.088 355.643,136.841 355.621,136.799 354.341,136.799 352.556,139.088 	"/>
	<polygon fill="#4C5C65" points="365.513,136.735 365.492,136.777 367.592,139.046 368.6,139.046 366.857,136.735 	"/>
	<path fill="#4C5C65" d="M371.413,148.331v-4.62c0-0.988-0.315-1.744-0.945-2.269c-0.63-0.525-1.45-0.798-2.478-0.798
		c-1.029,0-1.869,0.274-2.499,0.798c-0.631,0.546-0.945,1.155-0.903,1.869l0.021,0.042h0.967c0-0.525,0.209-0.945,0.65-1.302
		c0.442-0.357,1.008-0.525,1.723-0.525c0.777,0,1.386,0.189,1.806,0.567c0.42,0.378,0.63,0.903,0.63,1.575v1.155h-2.31
		c-1.176,0-2.121,0.252-2.856,0.776c-0.736,0.525-1.092,1.197-1.092,2.037c0,0.84,0.252,1.513,0.756,1.995
		c0.504,0.483,1.218,0.735,2.142,0.735c0.757,0,1.429-0.168,2.017-0.504c0.588-0.336,1.049-0.757,1.365-1.261
		c0,0.252,0.021,0.503,0.042,0.735c0.042,0.232,0.084,0.504,0.146,0.84h-0.002v0.045h1.071c-0.084-0.294-0.147-0.609-0.189-0.924
		C371.434,148.981,371.413,148.667,371.413,148.331z M370.406,147.404c-0.21,0.609-0.609,1.092-1.197,1.47
		c-0.588,0.377-1.281,0.567-2.079,0.567c-0.609,0-1.071-0.169-1.429-0.484c-0.357-0.315-0.525-0.756-0.525-1.281
		c0-0.566,0.252-1.05,0.819-1.449c0.567-0.398,1.26-0.608,2.1-0.608h2.311V147.404z"/>
	<rect x="380.087" y="136.651" fill="#4C5C65" width="1.029" height="13.525"/>
	<polygon fill="#4C5C65" points="384.749,139.318 384.539,141.629 385.169,141.629 385.799,139.234 385.799,137.554 
		384.749,137.554 	"/>
	<path fill="#4C5C65" d="M395.395,148.331v-4.62c0-0.988-0.315-1.744-0.945-2.269c-0.63-0.525-1.45-0.798-2.478-0.798
		c-1.029,0-1.869,0.274-2.499,0.798c-0.63,0.546-0.945,1.155-0.903,1.869l0.022,0.042h0.966c0-0.525,0.21-0.945,0.65-1.302
		c0.442-0.357,1.009-0.525,1.723-0.525c0.777,0,1.386,0.189,1.806,0.567c0.42,0.378,0.63,0.903,0.63,1.575v1.155h-2.31
		c-1.175,0-2.121,0.252-2.856,0.776c-0.735,0.525-1.092,1.197-1.092,2.037c0,0.84,0.252,1.513,0.756,1.995
		c0.504,0.483,1.218,0.735,2.143,0.735c0.756,0,1.428-0.168,2.016-0.504c0.588-0.336,1.049-0.757,1.365-1.261
		c0,0.252,0.021,0.503,0.042,0.735c0.042,0.232,0.084,0.504,0.146,0.84h-0.002v0.045h1.071c-0.083-0.294-0.146-0.609-0.189-0.924
		C395.416,148.981,395.395,148.667,395.395,148.331z M394.409,147.404c-0.21,0.609-0.608,1.092-1.196,1.47
		c-0.589,0.377-1.281,0.567-2.079,0.567c-0.63,0-1.072-0.169-1.43-0.484c-0.356-0.315-0.524-0.756-0.524-1.281
		c0-0.566,0.252-1.05,0.818-1.449c0.568-0.398,1.261-0.608,2.101-0.608h2.31V147.404z"/>
	<rect x="399.03" y="136.651" fill="#4C5C65" width="1.029" height="1.449"/>
	<rect x="399.03" y="140.789" fill="#4C5C65" width="1.029" height="9.387"/>
	<path fill="#4C5C65" d="M407.746,140.641c-0.105-0.021-0.231-0.021-0.357-0.021c-0.63,0-1.176,0.168-1.638,0.483
		c-0.462,0.316-0.819,0.756-1.092,1.345v-0.105l-0.127-1.554h-0.902v9.387h1.05v-6.489c0.189-0.63,0.483-1.134,0.903-1.512
		c0.42-0.358,0.966-0.546,1.617-0.546l0.734,0.042l0.106-0.967C407.956,140.683,407.85,140.662,407.746,140.641z"/>
	<path fill="#4C5C65" d="M211.453,28.961c0.041,0,0.062-0.021,0.062-0.064v-0.125c0-0.043-0.021-0.063-0.042-0.063
		c-0.041,0-0.062,0.02-0.062,0.042l-0.021,0.126C211.39,28.919,211.412,28.961,211.453,28.961z"/>
	<path fill="#4C5C65" d="M220.61,65.124h3.927c0.462,0,0.903-0.062,1.323-0.189c0.42-0.125,0.798-0.335,1.113-0.608
		c0.315-0.274,0.567-0.63,0.756-1.05c0.189-0.42,0.273-0.883,0.273-1.429h0.002V21.085c0-0.232-0.042-0.44-0.168-0.63
		c-0.105-0.189-0.315-0.336-0.609-0.483c-0.294-0.126-0.693-0.231-1.239-0.294c-0.546-0.063-1.197-0.084-1.995-0.084
		c-0.84,0-1.512,0.021-2.058,0.084c-0.546,0.063-0.966,0.147-1.302,0.294c-0.315,0.126-0.546,0.294-0.693,0.483
		c-0.148,0.19-0.21,0.398-0.21,0.63v21.253c0,1.617,0.02,3.317,0.062,5.082c0.042,1.763,0.106,3.464,0.168,5.102h-0.042
		c-0.42-0.924-0.861-1.868-1.302-2.793c-0.441-0.944-0.903-1.889-1.365-2.856c-0.462-0.965-0.944-1.931-1.449-2.897
		c-0.504-0.966-1.028-1.953-1.532-2.962l-8.82-16.548c-0.442-0.903-0.882-1.68-1.302-2.289c-0.42-0.608-0.862-1.091-1.345-1.448
		c-0.483-0.358-1.029-0.61-1.638-0.757c-0.609-0.147-1.365-0.231-2.247-0.231h-4.935c-0.945,0-1.723,0.273-2.374,0.82
		c-0.651,0.567-0.966,1.385-0.966,2.478v40.72c0,0.231,0.042,0.442,0.168,0.63c0.126,0.189,0.336,0.357,0.63,0.483
		c0.295,0.126,0.715,0.231,1.261,0.294c0.546,0.064,1.218,0.105,2.037,0.105c0.84,0,1.512-0.042,2.058-0.105
		c0.546-0.064,0.966-0.168,1.281-0.294c0.315-0.146,0.546-0.293,0.672-0.483c0.126-0.189,0.189-0.4,0.189-0.63V40.05
		c0-1.785-0.021-3.508-0.063-5.166c-0.042-1.661-0.126-3.34-0.21-5.02h0.063c0.546,1.386,1.154,2.815,1.826,4.263
		c0.673,1.449,1.345,2.814,1.995,4.074l11.277,21.19c0.588,1.176,1.113,2.121,1.575,2.856c0.462,0.734,0.945,1.322,1.449,1.742
		c0.504,0.421,1.05,0.715,1.638,0.883C219.077,65.04,219.791,65.124,220.61,65.124z"/>
	<path fill="#4C5C65" d="M240.37,64.326c0.336,0.105,0.818,0.211,1.406,0.273c0.589,0.063,1.345,0.105,2.227,0.105
		c0.924,0,1.659-0.041,2.247-0.105c0.588-0.063,1.05-0.147,1.407-0.273s0.608-0.273,0.756-0.462c0.146-0.19,0.23-0.4,0.23-0.631
		V45.971h2.878c0.966,0,1.826,0.168,2.583,0.462c0.735,0.294,1.407,0.756,1.974,1.344c0.568,0.589,1.092,1.345,1.554,2.226
		c0.463,0.883,0.946,1.912,1.429,3.046l4.053,10.122c0.105,0.274,0.209,0.525,0.357,0.714c0.126,0.188,0.378,0.357,0.714,0.483
		c0.336,0.146,0.798,0.23,1.386,0.273c0.588,0.04,1.366,0.062,2.353,0.062c1.175,0,2.099-0.021,2.771-0.062
		c0.672-0.063,1.176-0.127,1.533-0.253c0.358-0.126,0.588-0.272,0.672-0.44c0.106-0.189,0.148-0.399,0.148-0.651
		c0-0.232-0.064-0.546-0.21-0.947c-0.105-0.4-0.336-1.051-0.693-1.933l-3.822-8.925c-0.44-1.092-0.902-2.037-1.365-2.898
		c-0.462-0.839-0.966-1.595-1.49-2.267c-0.526-0.673-1.093-1.24-1.681-1.701c-0.588-0.483-1.239-0.861-1.911-1.197
		c1.386-0.441,2.646-1.029,3.738-1.743c1.091-0.736,2.016-1.576,2.772-2.562c0.756-0.967,1.323-2.101,1.701-3.34
		c0.399-1.26,0.588-2.646,0.588-4.158c0-1.806-0.252-3.402-0.798-4.788c-0.547-1.385-1.323-2.604-2.331-3.612
		c-1.03-1.03-2.269-1.848-3.718-2.478c-1.449-0.63-3.087-1.071-4.914-1.323c-0.63-0.063-1.324-0.126-2.1-0.168
		c-0.777-0.041-1.743-0.062-2.94-0.062h-11.718c-0.757,0-1.408,0.209-1.933,0.672c-0.525,0.462-0.798,1.198-0.798,2.226v41.14
		c0,0.232,0.063,0.442,0.21,0.631C239.782,64.053,240.013,64.2,240.37,64.326z M248.645,26.232h4.137c1.05,0,1.89,0.041,2.478,0.105
		c0.589,0.063,1.135,0.147,1.597,0.272c1.533,0.42,2.645,1.135,3.317,2.164c0.673,1.029,1.009,2.289,1.009,3.779
		c0,0.987-0.168,1.869-0.504,2.689c-0.336,0.776-0.82,1.47-1.471,2.037c-0.65,0.567-1.47,1.008-2.457,1.323
		c-0.966,0.315-2.121,0.483-3.423,0.483h-4.683V26.232z"/>
	<path fill="#4C5C65" d="M281.972,63.087c0.084,0.273,0.19,0.482,0.294,0.65c0.106,0.148,0.252,0.316,0.42,0.463
		c0.168,0.146,0.525,0.314,1.029,0.504c0.525,0.189,1.134,0.357,1.827,0.525c0.694,0.168,1.47,0.293,2.31,0.399
		c0.841,0.105,1.681,0.146,2.541,0.146c2.688,0,4.957-0.293,6.783-0.902c1.828-0.61,3.298-1.492,4.432-2.647
		c1.114-1.154,1.912-2.561,2.394-4.199c0.484-1.639,0.715-3.486,0.715-5.545h0.018V20.938c0-0.23-0.084-0.44-0.273-0.608
		c-0.188-0.167-0.504-0.315-0.944-0.441c-0.441-0.126-1.029-0.21-1.743-0.272c-0.714-0.063-1.617-0.084-2.709-0.084
		c-1.092,0-2.017,0.021-2.751,0.084c-0.756,0.062-1.323,0.146-1.743,0.272c-0.42,0.126-0.713,0.273-0.903,0.441
		c-0.188,0.168-0.272,0.378-0.272,0.608v31.123c0,1.135-0.084,1.197-0.294,1.911c-0.21,0.735-0.505,1.302-0.883,1.743
		c-0.378,0.42-0.86,0.734-1.448,0.902c-0.589,0.189-1.261,0.273-2.037,0.273c-0.778,0-1.45-0.084-2.017-0.23
		c-0.566-0.148-1.071-0.295-1.491-0.463c-0.42-0.147-0.818-0.315-1.154-0.461c-0.336-0.148-0.651-0.232-0.903-0.232
		c-0.294,0-0.526,0.064-0.714,0.189c-0.168,0.127-0.316,1.24-0.42,1.555c-0.106,0.315-0.168,0.756-0.21,1.302
		s-0.064,1.218-0.064,2.017c0,0.609,0.021,1.112,0.042,1.512C281.826,62.478,281.888,62.814,281.972,63.087z"/>
	<path fill="#4C5C65" d="M89.547,2.541C87.72,0.883,85.367,0.021,82.932,0c-2.437,0-4.788,0.861-6.615,2.541L62.289,15.499H44.751
		c-6.489,0-11.739,5.25-11.739,11.739v15.33L9.429,64.367c-1.743,1.596-2.772,3.863-2.772,6.195c0,1.218,0.273,2.436,0.819,3.569
		c1.617,3.298,4.998,5.146,8.568,5.167h8.547v59.557c0,3.171,1.47,6.007,3.654,7.939c2.184,1.953,5.124,3.087,8.295,3.087h39.838
		h0.042c0.336-0.021,2.521-0.042,5.062-1.554c1.26-0.756,2.562-1.953,3.507-3.633c0.945-1.681,1.491-3.802,1.491-6.217
		c0-0.105,0-9.723,0-15.394l-7.057-0.04c0,5.965,0,15.268,0,15.394c0,1.449-0.294,2.247-0.588,2.772
		c-0.44,0.756-1.008,1.113-1.659,1.365c-0.315,0.104-0.608,0.188-0.798,0.21c-0.062,0.02-0.126,0.02-0.168,0.02H36.52
		c-1.491,0-2.772-0.546-3.634-1.302c-0.86-0.777-1.28-1.68-1.28-2.667V72.242H16.023c-1.134,0-1.974-0.63-2.205-1.155
		c-0.084-0.188-0.126-0.356-0.126-0.504c0-0.315,0.106-0.63,0.504-1.008l25.852-23.898V27.281c0-2.604,2.101-4.704,4.704-4.704
		H65.06L81.105,7.729c0.378-0.357,1.112-0.672,1.827-0.65c0.734,0,1.448,0.293,1.826,0.65l66.908,61.847
		c0.398,0.378,0.504,0.714,0.504,1.008c0,0.168-0.042,0.315-0.126,0.525c-0.232,0.547-1.071,1.177-2.205,1.156h-15.582v66.592
		c0,0.967-0.42,1.891-1.281,2.667c-0.861,0.777-2.143,1.303-3.633,1.303H93.6c-1.953,0-3.528,1.575-3.528,3.527
		c0,1.953,1.575,3.528,3.528,3.528h35.764c3.171,0,6.111-1.134,8.295-3.087c2.185-1.932,3.654-4.768,3.654-7.939V79.298h8.547
		c3.57,0,6.951-1.868,8.568-5.166c0.546-1.134,0.819-2.352,0.819-3.549c0-2.331-1.029-4.578-2.751-6.174L89.547,2.541z"/>
	<path fill="#4C5C65" d="M88.097,51.18c-3.486-0.546-6.993-0.399-10.396,0.357c0.756,0.672,1.407,1.449,1.953,2.352
		c0.168,0.273,0.356,0.63,0.567,1.028c2.393-0.356,4.851-0.356,7.287,0c1.028,0.169,1.994-0.545,2.163-1.574
		C89.84,52.292,89.125,51.327,88.097,51.18z"/>
	<path fill="#4C5C65" d="M100.948,99.942c0.483,0,0.945-0.168,1.323-0.524c3.024-2.919,5.292-6.469,6.721-10.332
		c-0.819,0.23-1.681,0.378-2.562,0.398c-0.126,0-0.252,0-0.399,0c-0.379,0-0.799-0.02-1.281-0.042
		c-1.239,2.689-2.961,5.166-5.124,7.267c-0.756,0.734-0.777,1.932-0.042,2.667C99.962,99.754,100.444,99.942,100.948,99.942z"/>
	<path fill="#4C5C65" d="M57.331,85.284c-0.987,0.315-1.555,1.365-1.239,2.373c0.692,2.227,1.68,4.39,2.919,6.385
		c0.735,1.196,1.575,2.31,2.457,3.381c0.21-0.903,0.525-1.764,0.987-2.604c0.188-0.356,0.462-0.798,0.776-1.28
		c-0.356-0.483-0.692-0.967-1.008-1.491c-1.071-1.724-1.931-3.593-2.519-5.525C59.389,85.536,58.339,84.969,57.331,85.284z"/>
	<path fill="#4C5C65" d="M87.215,56.87c-2.017-0.314-4.074-0.336-6.069-0.084c0.63,1.387,1.322,3.066,2.016,4.893
		c1.092-0.042,2.205,0,3.297,0.168c1.387,0.21,2.667-0.735,2.877-2.1C89.546,58.362,88.601,57.081,87.215,56.87z"/>
	<path fill="#4C5C65" d="M97.295,88.518c-0.714,1.134-1.575,2.205-2.562,3.15c-1.008,0.966-1.029,2.561-0.062,3.569
		c0.504,0.505,1.154,0.777,1.806,0.777c0.63,0,1.26-0.232,1.764-0.714c1.807-1.764,3.276-3.801,4.39-6.027
		C101.054,89.106,99.227,88.854,97.295,88.518z"/>
	<path fill="#4C5C65" d="M64.428,91.794c0.924-1.261,2.059-2.73,3.297-4.242c-0.546-0.987-0.986-2.037-1.322-3.108
		c-0.421-1.323-1.827-2.079-3.15-1.659c-1.323,0.42-2.079,1.827-1.659,3.15c0.546,1.786,1.323,3.487,2.309,5.082
		C64.072,91.29,64.24,91.542,64.428,91.794z"/>
	<path fill="#4C5C65" d="M74.047,75.351c0.756-1.681,2.017-3.15,3.675-4.18c1.513-0.944,3.256-1.428,5.041-1.428
		c0.105,0,0.231,0,0.336,0.021c-0.693-2.603-1.617-5.334-2.541-7.77c-0.693-1.807-1.387-3.444-1.995-4.726
		c-0.357-0.735-0.651-1.344-0.925-1.806c-0.042-0.084-0.084-0.168-0.146-0.23c-0.735-1.197-1.743-2.143-2.898-2.794
		c-1.238-0.714-2.667-1.112-4.095-1.112c-1.47,0-2.961,0.398-4.306,1.218c-3.863,2.373-5.04,7.434-2.667,11.298
		C64.87,65.942,69.511,71.341,74.047,75.351z"/>
	<path fill="#4C5C65" d="M114.303,78.523c-0.145-4.453-3.778-7.96-8.188-7.96c-0.084,0-0.168,0-0.252,0
		c-2.479,0.084-9.43,1.386-15.163,3.317c0.084,0.126,0.19,0.273,0.273,0.42c1.344,2.185,1.764,4.768,1.176,7.267
		c-0.252,1.071-0.693,2.079-1.26,2.983c2.478,0.672,5.166,1.238,7.643,1.638c1.911,0.315,3.696,0.546,5.146,0.672
		c0.798,0.064,1.491,0.105,2.037,0.126c0.104,0,0.21,0,0.315,0c0.104,0,0.21,0,0.314,0c1.302-0.042,2.521-0.378,3.591-0.966
		C112.602,84.592,114.387,81.757,114.303,78.523z"/>
	<path fill="#4C5C65" d="M67.999,107.125c1.239,0.672,2.562,0.987,3.885,0.987c2.919,0,5.754-1.575,7.225-4.326
		c1.197-2.205,3.528-8.946,4.725-14.89c-0.356,0.042-0.692,0.064-1.05,0.064c-3.34,0-6.406-1.701-8.17-4.558
		c-0.084-0.146-0.148-0.272-0.232-0.42c-1.827,1.806-3.633,3.864-5.208,5.796c-1.239,1.513-2.31,2.94-3.15,4.116
		c-0.462,0.651-0.84,1.239-1.134,1.723c-0.084,0.146-0.168,0.294-0.23,0.398c-0.651,1.197-0.967,2.478-0.967,3.759
		C63.651,102.736,65.206,105.633,67.999,107.125z"/>
	<path fill="#4C5C65" d="M86.983,75.309c-0.084-0.105-0.189-0.189-0.273-0.273c-0.252-0.23-0.504-0.42-0.798-0.588
		c-0.188-0.126-0.398-0.231-0.608-0.336c-0.294-0.148-0.609-0.252-0.925-0.358c-0.147-0.042-0.273-0.062-0.42-0.104
		c-0.398-0.084-0.798-0.126-1.196-0.126c-1.051,0-2.101,0.272-3.066,0.86c-1.323,0.819-2.205,2.079-2.562,3.466
		c-0.042,0.146-0.062,0.272-0.105,0.42c-0.063,0.314-0.084,0.63-0.105,0.966c0,0.231,0,0.462,0.042,0.693
		c0.042,0.314,0.084,0.63,0.168,0.944c0.042,0.126,0.084,0.273,0.126,0.399c0.126,0.378,0.315,0.756,0.525,1.113
		c1.113,1.785,3.003,2.772,4.977,2.772c0.546,0,1.092-0.084,1.638-0.252c0.021,0,0.021,0,0.042-0.021
		c0.44-0.126,0.882-0.315,1.281-0.567c0.042-0.021,0.062-0.042,0.104-0.042c0.042-0.021,0.084-0.062,0.105-0.084
		c0.42-0.273,0.776-0.588,1.092-0.924c0.021-0.022,0.042-0.042,0.042-0.042c1.701-1.869,2.037-4.726,0.63-6.973
		C87.529,75.918,87.257,75.603,86.983,75.309z"/>
	<path fill="#4C5C65" d="M189.447,97.297c0.546,0.84,1.238,1.491,2.12,1.974c0.882,0.483,1.932,0.735,3.192,0.735
		c1.133,0,2.184-0.252,3.108-0.756s1.806-1.197,2.667-2.121v1.827c0,0.126,0.042,0.252,0.104,0.336
		c0.064,0.084,0.19,0.168,0.337,0.23c0.168,0.064,0.356,0.106,0.608,0.126c0.252,0.021,0.568,0.042,0.966,0.042
		c0.358,0,0.673-0.02,0.925-0.042c0.252-0.02,0.462-0.062,0.608-0.126c0.147-0.062,0.252-0.146,0.315-0.23
		c0.063-0.084,0.084-0.21,0.084-0.336h0.022V74.658c0-0.126-0.042-0.232-0.104-0.336c-0.084-0.105-0.21-0.19-0.378-0.252
		c-0.168-0.084-0.399-0.126-0.693-0.168s-0.672-0.063-1.134-0.063c-0.462,0-0.84,0.021-1.134,0.063
		c-0.295,0.042-0.526,0.105-0.715,0.168c-0.188,0.063-0.315,0.147-0.378,0.252c-0.062,0.104-0.104,0.21-0.104,0.336v8.925
		c-0.756-0.734-1.491-1.28-2.247-1.658s-1.597-0.567-2.521-0.567c-1.175,0-2.205,0.231-3.107,0.672
		c-0.903,0.441-1.659,1.092-2.268,1.911c-0.61,0.84-1.071,1.827-1.386,3.003c-0.316,1.176-0.462,2.499-0.462,3.969
		c0,1.218,0.126,2.373,0.378,3.486C188.502,95.512,188.9,96.478,189.447,97.297z M192.846,88.707c0.126-0.63,0.315-1.196,0.588-1.7
		c0.252-0.504,0.61-0.925,1.051-1.219c0.42-0.314,0.945-0.462,1.554-0.462c0.651,0,1.302,0.232,1.911,0.672
		c0.608,0.442,1.239,1.093,1.911,1.933l0.021-0.001v5.46c-0.399,0.504-0.756,0.924-1.092,1.26s-0.651,0.609-0.966,0.819
		c-0.316,0.21-0.61,0.378-0.924,0.462c-0.295,0.106-0.61,0.148-0.925,0.148c-0.651,0-1.176-0.148-1.596-0.463
		c-0.42-0.314-0.756-0.734-1.008-1.238c-0.252-0.504-0.442-1.093-0.546-1.743c-0.106-0.652-0.168-1.324-0.168-2.017
		C192.657,89.968,192.72,89.338,192.846,88.707z"/>
	<path fill="#4C5C65" d="M213.721,74.47c-1.05,0-1.764,0.19-2.142,0.547c-0.377,0.356-0.567,1.008-0.567,1.952
		c0,0.903,0.19,1.512,0.547,1.869c0.378,0.357,1.07,0.525,2.12,0.525c1.029,0,1.743-0.19,2.121-0.546
		c0.377-0.358,0.567-0.988,0.567-1.933c0-0.903-0.189-1.533-0.545-1.889C215.464,74.639,214.75,74.47,213.721,74.47z"/>
	<path fill="#4C5C65" d="M212.545,99.648c0.294,0.021,0.672,0.042,1.134,0.042c0.463,0,0.841-0.02,1.135-0.042
		c0.294-0.042,0.546-0.084,0.714-0.146c0.168-0.063,0.294-0.147,0.378-0.231c0.062-0.085,0.104-0.189,0.104-0.315V82.491
		c0-0.104-0.042-0.23-0.104-0.314c-0.064-0.084-0.19-0.168-0.378-0.231c-0.19-0.084-0.42-0.126-0.714-0.168
		c-0.294-0.042-0.672-0.063-1.135-0.063c-0.462,0-0.84,0.021-1.134,0.063c-0.294,0.042-0.546,0.106-0.714,0.168
		c-0.168,0.063-0.294,0.147-0.378,0.231c-0.062,0.084-0.105,0.188-0.105,0.314v16.465c0,0.105,0.043,0.231,0.105,0.315
		c0.063,0.083,0.19,0.167,0.378,0.231C212.021,99.564,212.251,99.628,212.545,99.648z"/>
	<path fill="#4C5C65" d="M233.061,99.018c0,0.168,0.042,0.294,0.148,0.399c0.105,0.104,0.294,0.168,0.546,0.21
		c0.252,0.041,0.672,0.062,1.218,0.062c0.526,0,0.904-0.02,1.176-0.062c0.274-0.042,0.462-0.106,0.588-0.21
		c0.127-0.084,0.19-0.231,0.19-0.399h-0.063V87.846c0-1.133-0.126-2.121-0.398-2.94c-0.274-0.82-0.714-1.492-1.302-2.016
		c-0.589-0.526-1.345-0.924-2.269-1.177c-0.924-0.252-2.015-0.378-3.318-0.378c-0.734,0-1.428,0.042-2.121,0.168
		c-0.672,0.126-1.302,0.273-1.89,0.463c-0.568,0.188-1.072,0.398-1.512,0.608c-0.42,0.21-0.735,0.4-0.903,0.588
		c-0.168,0.189-0.294,0.378-0.357,0.609c-0.063,0.21-0.084,0.525-0.084,0.903c0,0.272,0.021,0.546,0.063,0.776
		c0.042,0.231,0.105,0.42,0.168,0.588c0.062,0.168,0.146,0.294,0.252,0.378c0.105,0.084,0.231,0.126,0.357,0.126
		c0.21,0,0.461-0.084,0.776-0.252c0.316-0.168,0.714-0.356,1.176-0.566c0.463-0.21,1.009-0.399,1.617-0.567
		c0.609-0.168,1.303-0.252,2.079-0.252c0.588,0,1.093,0.064,1.491,0.19c0.4,0.104,0.735,0.314,0.966,0.566
		c0.252,0.252,0.419,0.567,0.525,0.966c0.105,0.399,0.168,0.841,0.168,1.365V89h-1.617c-1.47,0-2.751,0.106-3.864,0.337
		c-1.112,0.23-2.058,0.566-2.793,1.028s-1.302,1.051-1.68,1.765c-0.378,0.692-0.567,1.532-0.567,2.499
		c0,0.882,0.147,1.659,0.441,2.331s0.692,1.218,1.239,1.68c0.546,0.462,1.176,0.797,1.91,1.029c0.735,0.21,1.533,0.336,2.416,0.336
		c1.07,0,2.036-0.209,2.897-0.609c0.882-0.398,1.659-0.966,2.331-1.701V99.018z M232.328,94.756c-0.567,0.651-1.134,1.134-1.68,1.47
		s-1.156,0.504-1.806,0.504c-0.777,0-1.387-0.189-1.827-0.588c-0.441-0.399-0.651-0.946-0.651-1.638
		c0-0.399,0.084-0.756,0.231-1.071c0.168-0.316,0.398-0.588,0.734-0.798c0.336-0.232,0.778-0.4,1.303-0.504
		c0.546-0.106,1.176-0.168,1.932-0.168h1.764V94.756z"/>
	<path fill="#4C5C65" d="M256.248,104.606c0.714-0.524,1.26-1.154,1.617-1.868c0.378-0.736,0.546-1.492,0.546-2.311
		c0-0.736-0.125-1.386-0.398-1.974c-0.273-0.589-0.651-1.071-1.155-1.491c-0.504-0.42-1.114-0.736-1.849-0.966
		c-0.734-0.231-1.554-0.357-2.499-0.399l-4.011-0.148c-0.567-0.021-1.008-0.147-1.323-0.378c-0.314-0.231-0.482-0.524-0.482-0.882
		c0-0.272,0.042-0.504,0.168-0.734c0.125-0.211,0.251-0.399,0.398-0.567c0.252,0.189,0.63,0.336,1.113,0.462
		c0.484,0.126,0.988,0.189,1.512,0.189c1.029,0,1.974-0.126,2.814-0.399c0.84-0.274,1.575-0.672,2.163-1.176
		c0.609-0.526,1.071-1.156,1.386-1.891c0.315-0.756,0.483-1.596,0.483-2.562c0-0.4-0.042-0.798-0.168-1.177
		c-0.126-0.378-0.315-0.714-0.588-1.008h1.952c0.21,0,0.379-0.126,0.505-0.42c0.147-0.273,0.21-0.714,0.21-1.302
		c0-0.629-0.064-1.155-0.188-1.427c-0.126-0.273-0.294-0.399-0.504-0.399h-5.229c-0.398-0.105-0.84-0.19-1.322-0.252
		c-0.483-0.063-0.967-0.084-1.491-0.084c-1.008,0-1.933,0.147-2.773,0.42c-0.84,0.273-1.554,0.672-2.163,1.197
		c-0.588,0.525-1.071,1.176-1.407,1.932c-0.336,0.756-0.504,1.617-0.504,2.583c0,0.904,0.126,1.66,0.378,2.269
		c0.252,0.609,0.588,1.113,1.029,1.554c-0.546,0.483-0.966,1.029-1.302,1.617c-0.336,0.609-0.504,1.26-0.504,1.995
		c0,0.568,0.146,1.114,0.44,1.596c0.294,0.483,0.714,0.861,1.239,1.155c-0.399,0.274-0.735,0.567-1.029,0.882
		c-0.294,0.316-0.546,0.63-0.756,0.966c-0.21,0.357-0.357,0.693-0.462,1.071c-0.104,0.378-0.168,0.778-0.168,1.176
		c0,0.652,0.147,1.261,0.441,1.807c0.294,0.546,0.756,1.008,1.386,1.407c0.629,0.399,1.449,0.693,2.435,0.924
		c0.988,0.231,2.185,0.336,3.592,0.336c1.449,0,2.709-0.148,3.78-0.462C254.631,105.551,255.534,105.131,256.248,104.606z
		 M247.259,86.483c0.106-0.358,0.274-0.652,0.504-0.924c0.231-0.274,0.525-0.484,0.861-0.63c0.336-0.148,0.735-0.232,1.197-0.232
		c0.903,0,1.596,0.231,2.1,0.735c0.483,0.504,0.735,1.197,0.735,2.079c0,0.378-0.063,0.734-0.168,1.052
		c-0.126,0.336-0.294,0.651-0.525,0.903c-0.23,0.252-0.524,0.461-0.861,0.608c-0.336,0.168-0.756,0.231-1.218,0.231
		c-0.882,0-1.554-0.252-2.058-0.735c-0.483-0.482-0.735-1.155-0.735-1.995C247.091,87.197,247.154,86.84,247.259,86.483z
		 M252.93,102.379c-0.315,0.231-0.693,0.42-1.176,0.567c-0.482,0.146-1.092,0.21-1.785,0.21c-1.155,0-2.016-0.168-2.646-0.483
		c-0.609-0.314-0.924-0.798-0.924-1.407c0-0.188,0.02-0.378,0.062-0.566c0.042-0.168,0.106-0.378,0.232-0.567
		c0.105-0.21,0.273-0.42,0.462-0.63c0.188-0.21,0.461-0.442,0.776-0.672l3.318,0.084c0.777,0.02,1.386,0.188,1.827,0.482
		c0.442,0.294,0.672,0.735,0.672,1.281c0,0.336-0.062,0.63-0.187,0.924C253.435,101.875,253.224,102.147,252.93,102.379z"/>
	<path fill="#4C5C65" d="M271.261,81.486c-0.484-0.062-0.988-0.104-1.512-0.104c-1.029,0-1.953,0.126-2.794,0.378
		c-0.84,0.252-1.532,0.63-2.12,1.092c-0.567,0.482-1.009,1.05-1.323,1.701c-0.316,0.65-0.462,1.386-0.462,2.163
		c0,0.776,0.105,1.448,0.336,1.995c0.23,0.567,0.524,1.029,0.902,1.428c0.378,0.399,0.799,0.756,1.281,1.008
		c0.484,0.252,0.966,0.504,1.47,0.714c0.505,0.209,0.988,0.399,1.471,0.567c0.482,0.168,0.902,0.356,1.281,0.546
		c0.378,0.188,0.672,0.42,0.902,0.693c0.21,0.252,0.336,0.566,0.336,0.944c0,0.336-0.062,0.609-0.188,0.861
		c-0.126,0.251-0.294,0.441-0.546,0.609c-0.252,0.168-0.525,0.294-0.861,0.378c-0.315,0.084-0.693,0.126-1.113,0.126
		c-0.672,0-1.26-0.064-1.785-0.232c-0.525-0.168-0.987-0.335-1.386-0.524c-0.399-0.19-0.714-0.358-0.987-0.505
		c-0.272-0.146-0.482-0.23-0.608-0.23c-0.105,0-0.21,0.02-0.273,0.062c-0.084,0.042-0.146,0.126-0.188,0.252
		c-0.042,0.147-0.084,0.315-0.105,0.525c-0.02,0.21-0.042,0.504-0.042,0.861c0,0.546,0.022,0.966,0.106,1.239
		c0.084,0.272,0.188,0.482,0.314,0.608c0.147,0.126,0.357,0.274,0.651,0.42c0.294,0.147,0.672,0.293,1.113,0.441
		c0.441,0.147,0.945,0.273,1.512,0.357c0.567,0.105,1.156,0.147,1.764,0.147c1.029,0,1.974-0.126,2.856-0.357
		c0.862-0.252,1.618-0.609,2.268-1.092c0.651-0.483,1.134-1.071,1.491-1.785s0.525-1.534,0.525-2.478
		c0-0.736-0.126-1.387-0.335-1.954c-0.232-0.546-0.546-1.007-0.924-1.407c-0.379-0.399-0.82-0.736-1.303-1.008
		c-0.483-0.274-0.966-0.504-1.47-0.714c-0.484-0.21-0.988-0.399-1.47-0.567c-0.484-0.168-0.925-0.357-1.303-0.546
		c-0.378-0.21-0.693-0.441-0.924-0.693c-0.231-0.252-0.357-0.588-0.357-0.966c0-0.251,0.042-0.482,0.146-0.692
		c0.084-0.21,0.252-0.399,0.441-0.567c0.189-0.168,0.441-0.294,0.756-0.378s0.672-0.126,1.092-0.126
		c0.588,0,1.113,0.063,1.575,0.189c0.462,0.126,0.862,0.274,1.218,0.42c0.358,0.147,0.651,0.294,0.882,0.42
		c0.231,0.127,0.42,0.189,0.525,0.189c0.084,0,0.19-0.02,0.252-0.062c0.064-0.042,0.126-0.127,0.168-0.253
		c0.042-0.126,0.063-0.294,0.084-0.504c0.021-0.21,0.021-0.482,0.021-0.818c0-0.294,0-0.526-0.021-0.714
		c-0.02-0.189-0.041-0.357-0.062-0.483c-0.022-0.126-0.064-0.252-0.106-0.336c-0.042-0.084-0.126-0.189-0.252-0.273
		c-0.126-0.104-0.316-0.21-0.588-0.336c-0.274-0.126-0.61-0.252-1.008-0.356C272.185,81.654,271.744,81.549,271.261,81.486z"/>
</g>
</svg>
