<?xml version="1.0" encoding="utf-8"?>
<!-- Generator: Adobe Illustrator 25.0.1, SVG Export Plug-In . SVG Version: 6.00 Build 0)  -->
<svg version="1.1" id="Calque_2_1_" xmlns="http://www.w3.org/2000/svg" xmlns:xlink="http://www.w3.org/1999/xlink" x="0px"
	 y="0px" viewBox="0 0 442.865 186.12" enable-background="new 0 0 442.865 186.12" xml:space="preserve">
<g>
	
		<linearGradient id="SVGID_1_" gradientUnits="userSpaceOnUse" x1="-377.5755" y1="465.4536" x2="-377.5755" y2="465.4536" gradientTransform="matrix(2.1001 0 0 2.1001 906.2144 -878.0792)">
		<stop  offset="0" style="stop-color:#2DAAB9"/>
		<stop  offset="1" style="stop-color:#48BCC7"/>
	</linearGradient>
	<path fill="url(#SVGID_1_)" d="M113.268,99.42"/>
	
		<linearGradient id="SVGID_2_" gradientUnits="userSpaceOnUse" x1="-414.589" y1="462.1019" x2="-414.589" y2="462.1019" gradientTransform="matrix(2.1001 0 0 2.1001 906.2144 -878.0792)">
		<stop  offset="0" style="stop-color:#2DAAB9"/>
		<stop  offset="1" style="stop-color:#48BCC7"/>
	</linearGradient>
	<path fill="url(#SVGID_2_)" d="M35.536,92.381"/>
	
		<linearGradient id="SVGID_3_" gradientUnits="userSpaceOnUse" x1="-392.0148" y1="484.0514" x2="-392.0148" y2="414.8693" gradientTransform="matrix(2.1001 0 0 2.1001 906.2144 -878.0792)">
		<stop  offset="0" style="stop-color:#878787"/>
		<stop  offset="1" style="stop-color:#B3B2B2"/>
	</linearGradient>
	<path fill="url(#SVGID_3_)" d="M79.412,123.079c0,5.964,0,15.284,0,15.393c0,1.447-0.285,2.259-0.591,2.785
		c-0.438,0.768-1.008,1.119-1.645,1.359c-0.307,0.11-0.614,0.175-0.789,0.22c-0.066,0.021-0.131,0.021-0.154,0.021H36.479
		c-1.492,0-2.763-0.549-3.619-1.315c-0.877-0.789-1.293-1.689-1.293-2.676V72.229h-15.59c-1.119,0-1.973-0.614-2.215-1.162
		c-0.088-0.197-0.132-0.351-0.132-0.504c0-0.307,0.109-0.636,0.505-1.009l25.874-23.9v-18.42c0-2.61,2.105-4.715,4.714-4.715h20.306
		L81.08,7.675c0.372-0.373,1.096-0.659,1.842-0.659c0.724,0,1.447,0.308,1.842,0.659l66.944,61.878
		c0.395,0.373,0.504,0.702,0.504,1.009c0,0.153-0.021,0.328-0.132,0.526c-0.219,0.548-1.074,1.161-2.215,1.161h-15.59v66.638
		c0,0.986-0.417,1.885-1.294,2.675c-0.855,0.768-2.148,1.316-3.64,1.316H93.578c-1.951,0-3.53,1.578-3.53,3.53s1.579,3.53,3.53,3.53
		h35.786c3.179,0,6.118-1.14,8.31-3.092c2.192-1.93,3.662-4.78,3.662-7.938V79.333h8.552c3.574,0,6.951-1.863,8.573-5.175
		c0.549-1.118,0.812-2.346,0.812-3.552c0-2.325-1.008-4.583-2.763-6.184L89.565,2.544C87.745,0.878,85.399,0.021,82.944,0
		c-2.434,0-4.803,0.855-6.623,2.544l-14.034,12.98H44.746c-6.49,0-11.754,5.264-11.754,11.753v15.328L9.377,64.423
		c-1.754,1.601-2.762,3.859-2.762,6.184c0,1.205,0.263,2.434,0.811,3.574c1.601,3.289,4.999,5.152,8.573,5.152h8.552v59.577
		c0,3.158,1.469,6.008,3.662,7.938c2.193,1.952,5.132,3.092,8.311,3.092h39.864h0.044c0.328-0.021,2.522-0.044,5.065-1.557
		c1.25-0.767,2.566-1.952,3.509-3.64s1.491-3.793,1.491-6.227c0-0.109,0-9.736,0-15.393L79.412,123.079z"/>
	<g>
		
			<linearGradient id="SVGID_4_" gradientUnits="userSpaceOnUse" x1="-333.5927" y1="428.5356" x2="-333.5927" y2="447.7295" gradientTransform="matrix(2.1001 0 0 2.1001 906.2144 -878.0792)">
			<stop  offset="0" style="stop-color:#C60E7F"/>
			<stop  offset="1" style="stop-color:#A11D80"/>
		</linearGradient>
		<path fill="url(#SVGID_4_)" d="M223.981,56.221c0.263,0.769,0.416,1.383,0.482,1.842c0.065,0.461-0.022,0.789-0.263,1.009
			c-0.242,0.219-0.636,0.373-1.228,0.417s-1.404,0.088-2.434,0.088c-1.075,0-1.908-0.022-2.522-0.044
			c-0.592-0.022-1.053-0.088-1.382-0.198c-0.307-0.088-0.549-0.219-0.658-0.395c-0.132-0.175-0.242-0.395-0.307-0.68l-2.763-8.376
			h-15.393l-2.588,8.157c-0.088,0.306-0.197,0.548-0.328,0.745c-0.132,0.197-0.351,0.372-0.658,0.482
			c-0.307,0.109-0.746,0.197-1.294,0.241c-0.57,0.044-1.294,0.066-2.193,0.066c-0.965,0-1.731-0.022-2.28-0.088
			s-0.921-0.219-1.14-0.461c-0.219-0.241-0.285-0.591-0.219-1.052c0.065-0.46,0.219-1.052,0.482-1.798l12.63-36.97
			c0.131-0.372,0.285-0.658,0.438-0.877c0.175-0.219,0.439-0.395,0.812-0.526c0.373-0.11,0.877-0.198,1.535-0.219
			c0.659-0.022,1.513-0.045,2.588-0.045c1.25,0,2.236,0.022,2.982,0.045c0.745,0.022,1.315,0.109,1.731,0.219
			c0.417,0.109,0.703,0.285,0.878,0.526c0.175,0.242,0.328,0.548,0.46,0.965L223.981,56.221z M205.167,25.677h-0.022l-5.789,17.717
			h11.622L205.167,25.677z"/>
		
			<linearGradient id="SVGID_5_" gradientUnits="userSpaceOnUse" x1="-314.4004" y1="428.5357" x2="-314.4004" y2="447.7292" gradientTransform="matrix(2.1001 0 0 2.1001 906.2144 -878.0792)">
			<stop  offset="0" style="stop-color:#C60E7F"/>
			<stop  offset="1" style="stop-color:#A11D80"/>
		</linearGradient>
		<path fill="url(#SVGID_5_)" d="M261.081,53.064c0,0.526-0.02,0.987-0.043,1.36c-0.022,0.372-0.088,0.702-0.133,0.965
			c-0.065,0.263-0.153,0.504-0.263,0.702c-0.108,0.197-0.283,0.416-0.504,0.658c-0.241,0.242-0.679,0.57-1.338,0.943
			c-0.657,0.394-1.468,0.745-2.433,1.118c-0.965,0.351-2.062,0.658-3.289,0.877c-1.228,0.242-2.565,0.351-4.013,0.351
			c-2.806,0-5.349-0.438-7.609-1.315c-2.258-0.877-4.189-2.192-5.767-3.946c-1.578-1.755-2.806-3.926-3.64-6.556
			c-0.855-2.61-1.271-5.679-1.271-9.144c0-3.552,0.461-6.688,1.404-9.429c0.922-2.741,2.237-5.065,3.903-6.929
			s3.661-3.289,6.008-4.254c2.325-0.965,4.911-1.448,7.719-1.448c1.14,0,2.235,0.088,3.289,0.285
			c1.052,0.198,2.037,0.438,2.937,0.768c0.899,0.307,1.711,0.68,2.435,1.074c0.724,0.417,1.228,0.746,1.513,1.052
			c0.286,0.285,0.481,0.527,0.592,0.724c0.11,0.198,0.198,0.438,0.263,0.746c0.065,0.306,0.11,0.657,0.153,1.052
			c0.022,0.416,0.045,0.921,0.045,1.513c0,0.635-0.022,1.184-0.065,1.644c-0.045,0.461-0.11,0.812-0.22,1.097
			c-0.11,0.285-0.241,0.481-0.373,0.614c-0.153,0.132-0.306,0.197-0.504,0.197c-0.308,0-0.724-0.197-1.205-0.57
			c-0.483-0.373-1.12-0.789-1.886-1.25c-0.767-0.46-1.688-0.877-2.763-1.25c-1.075-0.372-2.345-0.569-3.816-0.569
			c-1.621,0-3.069,0.328-4.362,1.007c-1.272,0.681-2.37,1.646-3.269,2.896c-0.897,1.249-1.579,2.784-2.039,4.56
			c-0.459,1.776-0.701,3.793-0.701,6.03c0,2.455,0.243,4.561,0.746,6.359c0.504,1.799,1.205,3.267,2.127,4.429
			c0.922,1.162,2.017,2.017,3.332,2.588c1.295,0.57,2.763,0.855,4.387,0.855c1.468,0,2.763-0.175,3.836-0.526
			c1.075-0.351,1.997-0.745,2.763-1.184c0.769-0.438,1.403-0.811,1.909-1.161c0.504-0.352,0.877-0.506,1.16-0.506
			c0.22,0,0.373,0.045,0.506,0.133c0.13,0.088,0.241,0.263,0.306,0.526c0.088,0.263,0.155,0.614,0.198,1.075
			C261.06,51.683,261.081,52.298,261.081,53.064z"/>
		
			<linearGradient id="SVGID_6_" gradientUnits="userSpaceOnUse" x1="-294.4635" y1="428.5353" x2="-294.4635" y2="447.7292" gradientTransform="matrix(2.1001 0 0 2.1001 906.2144 -878.0792)">
			<stop  offset="0" style="stop-color:#C60E7F"/>
			<stop  offset="1" style="stop-color:#A11D80"/>
		</linearGradient>
		<path fill="url(#SVGID_6_)" d="M307.217,38.066c0,3.464-0.416,6.556-1.272,9.276c-0.855,2.718-2.105,5.043-3.771,6.95
			c-1.666,1.908-3.728,3.355-6.183,4.342c-2.455,1.009-5.306,1.491-8.531,1.491c-3.179,0-5.963-0.416-8.353-1.272
			c-2.37-0.855-4.364-2.148-5.943-3.881c-1.578-1.732-2.763-3.947-3.575-6.644c-0.789-2.675-1.183-5.854-1.183-9.539
			c0-3.376,0.416-6.402,1.27-9.1c0.857-2.697,2.105-4.978,3.773-6.885c1.666-1.886,3.726-3.333,6.183-4.342
			c2.455-1.009,5.306-1.513,8.573-1.513c3.114,0,5.855,0.416,8.223,1.25c2.368,0.833,4.364,2.127,5.965,3.858
			c1.601,1.733,2.806,3.926,3.618,6.579C306.823,31.334,307.217,34.47,307.217,38.066z M298.49,38.526
			c0-2.192-0.175-4.188-0.506-5.963c-0.328-1.799-0.92-3.334-1.731-4.605c-0.812-1.272-1.886-2.26-3.245-2.961
			c-1.36-0.702-3.049-1.052-5.066-1.052c-2.039,0-3.75,0.395-5.131,1.184c-1.383,0.79-2.478,1.842-3.332,3.135
			c-0.857,1.294-1.448,2.829-1.799,4.583c-0.351,1.754-0.526,3.596-0.526,5.548c0,2.28,0.175,4.319,0.504,6.139
			c0.328,1.82,0.899,3.376,1.711,4.649c0.812,1.293,1.884,2.28,3.222,2.939c1.36,0.679,3.049,1.007,5.111,1.007
			c2.039,0,3.748-0.394,5.131-1.161c1.381-0.768,2.478-1.82,3.332-3.158c0.834-1.338,1.448-2.872,1.799-4.649
			C298.315,42.408,298.49,40.522,298.49,38.526z"/>
		
			<linearGradient id="SVGID_7_" gradientUnits="userSpaceOnUse" x1="-272.1355" y1="428.5356" x2="-272.1355" y2="447.7292" gradientTransform="matrix(2.1001 0 0 2.1001 906.2144 -878.0792)">
			<stop  offset="0" style="stop-color:#C60E7F"/>
			<stop  offset="1" style="stop-color:#A11D80"/>
		</linearGradient>
		<path fill="url(#SVGID_7_)" d="M351.444,43.855c0,2.566-0.371,4.846-1.118,6.863c-0.746,2.018-1.819,3.728-3.267,5.131
			c-1.425,1.404-3.202,2.456-5.329,3.179c-2.105,0.724-4.539,1.096-7.28,1.096c-2.586,0-4.888-0.328-6.928-0.986
			c-2.039-0.658-3.773-1.645-5.198-2.982c-1.426-1.338-2.498-2.982-3.245-4.978c-0.746-1.994-1.118-4.319-1.118-6.972V18.858
			c0-0.219,0.065-0.417,0.196-0.57c0.133-0.175,0.353-0.307,0.681-0.417c0.328-0.109,0.744-0.197,1.271-0.263
			c0.526-0.066,1.207-0.088,2.019-0.088c0.81,0,1.468,0.021,1.994,0.088c0.526,0.066,0.942,0.154,1.273,0.263
			c0.306,0.11,0.549,0.242,0.679,0.417c0.133,0.175,0.198,0.373,0.198,0.57V43.46c0,1.645,0.198,3.092,0.591,4.298
			c0.396,1.205,0.987,2.215,1.733,3.004c0.744,0.789,1.644,1.382,2.696,1.799c1.052,0.394,2.215,0.591,3.508,0.591
			c1.317,0,2.478-0.198,3.51-0.614c1.03-0.416,1.907-1.009,2.631-1.799c0.724-0.789,1.272-1.754,1.666-2.894
			c0.396-1.14,0.593-2.455,0.593-3.903V18.858c0-0.219,0.065-0.417,0.196-0.57c0.133-0.175,0.351-0.307,0.659-0.417
			c0.306-0.109,0.744-0.197,1.293-0.263c0.548-0.066,1.207-0.088,2.017-0.088c0.812,0,1.47,0.021,1.974,0.088
			c0.526,0.066,0.944,0.154,1.25,0.263c0.308,0.11,0.549,0.242,0.659,0.417c0.131,0.175,0.196,0.373,0.196,0.57V43.855z"/>
		
			<linearGradient id="SVGID_8_" gradientUnits="userSpaceOnUse" x1="-252.9495" y1="428.5357" x2="-252.9495" y2="447.729" gradientTransform="matrix(2.1001 0 0 2.1001 906.2144 -878.0792)">
			<stop  offset="0" style="stop-color:#C60E7F"/>
			<stop  offset="1" style="stop-color:#A11D80"/>
		</linearGradient>
		<path fill="url(#SVGID_8_)" d="M388.392,46.881c0,2.192-0.396,4.122-1.205,5.767c-0.812,1.644-1.886,3.025-3.269,4.144
			c-1.381,1.096-2.982,1.929-4.823,2.499c-1.842,0.549-3.793,0.833-5.898,0.833c-1.425,0-2.72-0.109-3.948-0.351
			c-1.205-0.241-2.28-0.526-3.222-0.854c-0.922-0.329-1.711-0.68-2.325-1.052c-0.614-0.373-1.075-0.68-1.338-0.965
			s-0.461-0.681-0.591-1.207c-0.11-0.526-0.175-1.271-0.175-2.28c0-0.658,0.02-1.228,0.065-1.666
			c0.043-0.461,0.11-0.812,0.198-1.097c0.088-0.284,0.218-0.481,0.371-0.591c0.155-0.11,0.353-0.175,0.549-0.175
			c0.285,0,0.701,0.175,1.25,0.526s1.228,0.745,2.084,1.184c0.855,0.439,1.842,0.812,3.024,1.184
			c1.162,0.351,2.523,0.526,4.079,0.526c1.009,0,1.931-0.131,2.72-0.372c0.81-0.242,1.491-0.592,2.039-1.052
			c0.569-0.461,0.985-1.008,1.293-1.667c0.286-0.657,0.439-1.403,0.439-2.215c0-0.942-0.263-1.754-0.767-2.433
			c-0.506-0.68-1.162-1.272-1.974-1.799c-0.812-0.526-1.731-1.03-2.763-1.491c-1.03-0.461-2.105-0.943-3.202-1.469
			c-1.095-0.526-2.17-1.096-3.2-1.755c-1.032-0.657-1.952-1.446-2.763-2.345c-0.812-0.922-1.47-1.996-1.974-3.246
			s-0.767-2.741-0.767-4.473c0-1.996,0.373-3.749,1.095-5.263c0.724-1.513,1.711-2.762,2.939-3.772
			c1.228-1.008,2.698-1.754,4.364-2.237c1.689-0.504,3.465-0.744,5.329-0.744c0.965,0,1.952,0.065,2.916,0.218
			c0.965,0.154,1.884,0.351,2.718,0.615c0.834,0.263,1.601,0.548,2.258,0.877c0.659,0.329,1.097,0.592,1.295,0.811
			c0.218,0.22,0.351,0.396,0.416,0.549c0.065,0.154,0.133,0.351,0.198,0.592c0.043,0.242,0.088,0.548,0.11,0.943
			c0.02,0.372,0.02,0.832,0.02,1.403c0,0.614-0.02,1.14-0.043,1.578c-0.022,0.438-0.088,0.789-0.153,1.052
			c-0.067,0.263-0.175,0.483-0.308,0.614c-0.131,0.133-0.328,0.198-0.549,0.198c-0.241,0-0.591-0.153-1.118-0.461
			c-0.504-0.306-1.14-0.635-1.864-0.987c-0.746-0.351-1.601-0.679-2.566-0.965c-0.965-0.285-2.039-0.438-3.202-0.438
			c-0.899,0-1.711,0.11-2.368,0.329c-0.679,0.219-1.25,0.548-1.689,0.943c-0.461,0.395-0.789,0.877-1.009,1.426
			c-0.218,0.548-0.328,1.14-0.328,1.776c0,0.92,0.241,1.731,0.746,2.39c0.504,0.657,1.162,1.271,1.995,1.797
			c0.834,0.527,1.776,1.032,2.829,1.492s2.127,0.943,3.224,1.469c1.095,0.504,2.17,1.096,3.222,1.754
			c1.052,0.659,1.996,1.448,2.829,2.346c0.834,0.921,1.491,1.995,1.996,3.223C388.152,43.767,388.392,45.215,388.392,46.881z"/>
		
			<linearGradient id="SVGID_9_" gradientUnits="userSpaceOnUse" x1="-236.537" y1="428.5353" x2="-236.537" y2="447.7289" gradientTransform="matrix(2.1001 0 0 2.1001 906.2144 -878.0792)">
			<stop  offset="0" style="stop-color:#C60E7F"/>
			<stop  offset="1" style="stop-color:#A11D80"/>
		</linearGradient>
		<path fill="url(#SVGID_9_)" d="M425.164,21.181c0,0.614-0.02,1.162-0.088,1.601c-0.043,0.438-0.131,0.789-0.241,1.052
			s-0.241,0.461-0.394,0.592c-0.155,0.132-0.33,0.197-0.526,0.197h-10.262v33.594c0,0.219-0.067,0.416-0.198,0.57
			c-0.133,0.175-0.373,0.307-0.681,0.416c-0.306,0.11-0.744,0.198-1.293,0.263c-0.548,0.066-1.205,0.088-2.017,0.088
			s-1.468-0.021-2.017-0.088c-0.549-0.065-0.965-0.153-1.295-0.263c-0.306-0.109-0.547-0.241-0.679-0.416
			c-0.133-0.175-0.198-0.373-0.198-0.57V24.624h-10.262c-0.218,0-0.394-0.065-0.549-0.197c-0.153-0.132-0.283-0.329-0.371-0.592
			c-0.11-0.263-0.175-0.614-0.243-1.052c-0.043-0.438-0.088-0.965-0.088-1.601c0-0.635,0.022-1.184,0.088-1.644
			c0.045-0.461,0.132-0.812,0.243-1.075c0.108-0.263,0.241-0.461,0.371-0.57c0.155-0.11,0.33-0.176,0.549-0.176h28.901
			c0.196,0,0.371,0.066,0.526,0.176c0.153,0.109,0.285,0.307,0.394,0.57c0.11,0.263,0.175,0.636,0.243,1.075
			C425.143,19.998,425.164,20.546,425.164,21.181z"/>
		
			<linearGradient id="SVGID_10_" gradientUnits="userSpaceOnUse" x1="-222.9681" y1="428.5355" x2="-222.9681" y2="447.7289" gradientTransform="matrix(2.1001 0 0 2.1001 906.2144 -878.0792)">
			<stop  offset="0" style="stop-color:#C60E7F"/>
			<stop  offset="1" style="stop-color:#A11D80"/>
		</linearGradient>
		<path fill="url(#SVGID_10_)" d="M442.137,58.218c0,0.219-0.067,0.416-0.198,0.57c-0.133,0.175-0.373,0.307-0.679,0.416
			c-0.308,0.11-0.746,0.198-1.273,0.263c-0.526,0.066-1.205,0.088-2.017,0.088s-1.47-0.021-2.017-0.088
			c-0.548-0.065-0.967-0.153-1.295-0.263c-0.306-0.109-0.549-0.241-0.679-0.416c-0.133-0.175-0.198-0.373-0.198-0.57v-39.36
			c0-0.219,0.065-0.417,0.198-0.57c0.131-0.175,0.373-0.307,0.702-0.417c0.328-0.109,0.746-0.197,1.293-0.263
			c0.526-0.066,1.185-0.088,1.996-0.088c0.832,0,1.491,0.021,2.017,0.088c0.526,0.066,0.942,0.154,1.273,0.263
			c0.306,0.11,0.547,0.242,0.679,0.417c0.131,0.175,0.198,0.373,0.198,0.57V58.218L442.137,58.218z"/>
	</g>
	<g>
		
			<linearGradient id="SVGID_11_" gradientUnits="userSpaceOnUse" x1="-400.9475" y1="462.206" x2="-400.9475" y2="482.3534" gradientTransform="matrix(2.1001 0 0 2.1001 906.2144 -878.0792)">
			<stop  offset="0" style="stop-color:#C60E7F"/>
			<stop  offset="1" style="stop-color:#A11D80"/>
		</linearGradient>
		<rect x="55.644" y="93.214" fill="url(#SVGID_11_)" width="17.081" height="4.407"/>
		
			<linearGradient id="SVGID_12_" gradientUnits="userSpaceOnUse" x1="-400.9475" y1="462.205" x2="-400.9475" y2="482.3622" gradientTransform="matrix(2.1001 0 0 2.1001 906.2144 -878.0792)">
			<stop  offset="0" style="stop-color:#C60E7F"/>
			<stop  offset="1" style="stop-color:#A11D80"/>
		</linearGradient>
		<rect x="55.644" y="117.378" fill="url(#SVGID_12_)" width="17.081" height="4.407"/>
		
			<linearGradient id="SVGID_13_" gradientUnits="userSpaceOnUse" x1="-400.9475" y1="462.205" x2="-400.9475" y2="482.3622" gradientTransform="matrix(2.1001 0 0 2.1001 906.2144 -878.0792)">
			<stop  offset="0" style="stop-color:#C60E7F"/>
			<stop  offset="1" style="stop-color:#A11D80"/>
		</linearGradient>
		<rect x="55.644" y="111.326" fill="url(#SVGID_13_)" width="17.081" height="4.407"/>
		
			<linearGradient id="SVGID_14_" gradientUnits="userSpaceOnUse" x1="-400.9475" y1="462.2064" x2="-400.9475" y2="482.3586" gradientTransform="matrix(2.1001 0 0 2.1001 906.2144 -878.0792)">
			<stop  offset="0" style="stop-color:#C60E7F"/>
			<stop  offset="1" style="stop-color:#A11D80"/>
		</linearGradient>
		<rect x="55.644" y="105.296" fill="url(#SVGID_14_)" width="17.081" height="4.429"/>
		
			<linearGradient id="SVGID_15_" gradientUnits="userSpaceOnUse" x1="-400.9475" y1="462.2049" x2="-400.9475" y2="482.3621" gradientTransform="matrix(2.1001 0 0 2.1001 906.2144 -878.0792)">
			<stop  offset="0" style="stop-color:#C60E7F"/>
			<stop  offset="1" style="stop-color:#A11D80"/>
		</linearGradient>
		<rect x="55.644" y="99.266" fill="url(#SVGID_15_)" width="17.081" height="4.407"/>
		
			<linearGradient id="SVGID_16_" gradientUnits="userSpaceOnUse" x1="-400.9475" y1="462.2053" x2="-400.9475" y2="482.3625" gradientTransform="matrix(2.1001 0 0 2.1001 906.2144 -878.0792)">
			<stop  offset="0" style="stop-color:#C60E7F"/>
			<stop  offset="1" style="stop-color:#A11D80"/>
		</linearGradient>
		<rect x="55.644" y="82.645" fill="url(#SVGID_16_)" width="17.081" height="4.407"/>
		
			<linearGradient id="SVGID_17_" gradientUnits="userSpaceOnUse" x1="-400.9475" y1="462.2057" x2="-400.9475" y2="482.363" gradientTransform="matrix(2.1001 0 0 2.1001 906.2144 -878.0792)">
			<stop  offset="0" style="stop-color:#C60E7F"/>
			<stop  offset="1" style="stop-color:#A11D80"/>
		</linearGradient>
		<rect x="55.644" y="64.226" fill="url(#SVGID_17_)" width="17.081" height="4.407"/>
		
			<linearGradient id="SVGID_18_" gradientUnits="userSpaceOnUse" x1="-383.1036" y1="462.205" x2="-383.1036" y2="482.3622" gradientTransform="matrix(2.1001 0 0 2.1001 906.2144 -878.0792)">
			<stop  offset="0" style="stop-color:#C60E7F"/>
			<stop  offset="1" style="stop-color:#A11D80"/>
		</linearGradient>
		<rect x="93.118" y="117.378" fill="url(#SVGID_18_)" width="17.081" height="4.407"/>
		
			<linearGradient id="SVGID_19_" gradientUnits="userSpaceOnUse" x1="-383.1036" y1="462.205" x2="-383.1036" y2="482.3622" gradientTransform="matrix(2.1001 0 0 2.1001 906.2144 -878.0792)">
			<stop  offset="0" style="stop-color:#C60E7F"/>
			<stop  offset="1" style="stop-color:#A11D80"/>
		</linearGradient>
		<rect x="93.118" y="111.326" fill="url(#SVGID_19_)" width="17.081" height="4.407"/>
		
			<linearGradient id="SVGID_20_" gradientUnits="userSpaceOnUse" x1="-383.1036" y1="462.2064" x2="-383.1036" y2="482.3586" gradientTransform="matrix(2.1001 0 0 2.1001 906.2144 -878.0792)">
			<stop  offset="0" style="stop-color:#C60E7F"/>
			<stop  offset="1" style="stop-color:#A11D80"/>
		</linearGradient>
		<rect x="93.118" y="105.296" fill="url(#SVGID_20_)" width="17.081" height="4.429"/>
		
			<linearGradient id="SVGID_21_" gradientUnits="userSpaceOnUse" x1="-383.1036" y1="462.2049" x2="-383.1036" y2="482.3621" gradientTransform="matrix(2.1001 0 0 2.1001 906.2144 -878.0792)">
			<stop  offset="0" style="stop-color:#C60E7F"/>
			<stop  offset="1" style="stop-color:#A11D80"/>
		</linearGradient>
		<rect x="93.118" y="99.266" fill="url(#SVGID_21_)" width="17.081" height="4.407"/>
		
			<linearGradient id="SVGID_22_" gradientUnits="userSpaceOnUse" x1="-383.1036" y1="462.205" x2="-383.1036" y2="482.3622" gradientTransform="matrix(2.1001 0 0 2.1001 906.2144 -878.0792)">
			<stop  offset="0" style="stop-color:#C60E7F"/>
			<stop  offset="1" style="stop-color:#A11D80"/>
		</linearGradient>
		<rect x="93.118" y="88.39" fill="url(#SVGID_22_)" width="17.081" height="4.407"/>
		
			<linearGradient id="SVGID_23_" gradientUnits="userSpaceOnUse" x1="-383.1036" y1="462.2055" x2="-383.1036" y2="482.3628" gradientTransform="matrix(2.1001 0 0 2.1001 906.2144 -878.0792)">
			<stop  offset="0" style="stop-color:#C60E7F"/>
			<stop  offset="1" style="stop-color:#A11D80"/>
		</linearGradient>
		<rect x="93.118" y="69.971" fill="url(#SVGID_23_)" width="17.081" height="4.407"/>
		
			<linearGradient id="SVGID_24_" gradientUnits="userSpaceOnUse" x1="-392.0203" y1="462.206" x2="-392.0203" y2="482.3534" gradientTransform="matrix(2.1001 0 0 2.1001 906.2144 -878.0792)">
			<stop  offset="0" style="stop-color:#C60E7F"/>
			<stop  offset="1" style="stop-color:#A11D80"/>
		</linearGradient>
		<rect x="74.392" y="93.214" fill="url(#SVGID_24_)" width="17.081" height="4.407"/>
		
			<linearGradient id="SVGID_25_" gradientUnits="userSpaceOnUse" x1="-392.0203" y1="462.2057" x2="-392.0203" y2="482.3629" gradientTransform="matrix(2.1001 0 0 2.1001 906.2144 -878.0792)">
			<stop  offset="0" style="stop-color:#C60E7F"/>
			<stop  offset="1" style="stop-color:#A11D80"/>
		</linearGradient>
		<rect x="74.392" y="87.183" fill="url(#SVGID_25_)" width="17.081" height="4.407"/>
		
			<linearGradient id="SVGID_26_" gradientUnits="userSpaceOnUse" x1="-392.0203" y1="462.2049" x2="-392.0203" y2="482.3621" gradientTransform="matrix(2.1001 0 0 2.1001 906.2144 -878.0792)">
			<stop  offset="0" style="stop-color:#C60E7F"/>
			<stop  offset="1" style="stop-color:#A11D80"/>
		</linearGradient>
		<rect x="74.392" y="76.308" fill="url(#SVGID_26_)" width="17.081" height="4.407"/>
		
			<linearGradient id="SVGID_27_" gradientUnits="userSpaceOnUse" x1="-392.0203" y1="462.2054" x2="-392.0203" y2="482.3626" gradientTransform="matrix(2.1001 0 0 2.1001 906.2144 -878.0792)">
			<stop  offset="0" style="stop-color:#C60E7F"/>
			<stop  offset="1" style="stop-color:#A11D80"/>
		</linearGradient>
		<rect x="74.392" y="57.888" fill="url(#SVGID_27_)" width="17.081" height="4.407"/>
		
			<linearGradient id="SVGID_28_" gradientUnits="userSpaceOnUse" x1="-392.0203" y1="462.205" x2="-392.0203" y2="482.3622" gradientTransform="matrix(2.1001 0 0 2.1001 906.2144 -878.0792)">
			<stop  offset="0" style="stop-color:#C60E7F"/>
			<stop  offset="1" style="stop-color:#A11D80"/>
		</linearGradient>
		<rect x="74.392" y="111.326" fill="url(#SVGID_28_)" width="17.081" height="4.407"/>
		
			<linearGradient id="SVGID_29_" gradientUnits="userSpaceOnUse" x1="-392.0203" y1="462.2064" x2="-392.0203" y2="482.3586" gradientTransform="matrix(2.1001 0 0 2.1001 906.2144 -878.0792)">
			<stop  offset="0" style="stop-color:#C60E7F"/>
			<stop  offset="1" style="stop-color:#A11D80"/>
		</linearGradient>
		<rect x="74.392" y="105.296" fill="url(#SVGID_29_)" width="17.081" height="4.429"/>
		
			<linearGradient id="SVGID_30_" gradientUnits="userSpaceOnUse" x1="-392.0203" y1="462.2049" x2="-392.0203" y2="482.3621" gradientTransform="matrix(2.1001 0 0 2.1001 906.2144 -878.0792)">
			<stop  offset="0" style="stop-color:#C60E7F"/>
			<stop  offset="1" style="stop-color:#A11D80"/>
		</linearGradient>
		<rect x="74.392" y="99.266" fill="url(#SVGID_30_)" width="17.081" height="4.407"/>
	</g>
	<g>
		<path fill="#878787" d="M193.94,125.93c0-0.461-0.175-0.855-0.549-1.185c-0.373-0.328-1.052-0.614-2.017-0.833
			c-1.141-0.241-1.995-0.57-2.544-0.987c-0.549-0.416-0.833-0.986-0.833-1.731c0-0.746,0.307-1.36,0.943-1.864
			c0.614-0.505,1.447-0.768,2.478-0.768c1.074,0,1.929,0.263,2.587,0.812c0.636,0.548,0.943,1.205,0.921,2.017l-0.021,0.044h-0.987
			c0-0.526-0.219-0.987-0.68-1.382c-0.46-0.395-1.052-0.591-1.798-0.591c-0.768,0-1.359,0.175-1.754,0.504
			c-0.395,0.329-0.592,0.724-0.592,1.184c0,0.439,0.175,0.812,0.505,1.097c0.328,0.285,1.008,0.548,2.017,0.767
			c1.14,0.242,1.995,0.592,2.565,1.053c0.57,0.438,0.877,1.052,0.877,1.798c0,0.812-0.328,1.447-0.986,1.952
			c-0.659,0.504-1.513,0.745-2.588,0.745c-1.162,0-2.083-0.285-2.763-0.833c-0.658-0.549-0.986-1.228-0.942-1.995l0.021-0.044h0.987
			c0.044,0.701,0.329,1.206,0.855,1.513s1.14,0.482,1.864,0.482c0.767,0,1.381-0.175,1.819-0.526
			C193.765,126.807,193.94,126.412,193.94,125.93z"/>
		<path fill="#878787" d="M205.956,123.824c0,1.447-0.329,2.588-0.987,3.465c-0.658,0.854-1.556,1.294-2.697,1.294
			c-0.679,0-1.272-0.131-1.776-0.373c-0.504-0.263-0.921-0.614-1.249-1.096v4.999h-1.075v-13.376h0.833l0.198,1.513
			c0.328-0.526,0.745-0.943,1.249-1.25c0.505-0.285,1.118-0.438,1.799-0.438c1.162,0,2.061,0.461,2.718,1.382
			c0.659,0.921,0.987,2.148,0.987,3.705L205.956,123.824L205.956,123.824z M204.904,123.649c0-1.228-0.242-2.215-0.724-3.004
			s-1.206-1.162-2.148-1.162c-0.702,0-1.294,0.175-1.732,0.505c-0.461,0.328-0.789,0.789-1.031,1.315v4.671
			c0.242,0.526,0.614,0.942,1.052,1.228c0.461,0.307,1.031,0.46,1.711,0.46c0.942,0,1.645-0.351,2.127-1.052
			c0.482-0.702,0.723-1.622,0.723-2.785v-0.175L204.904,123.649L204.904,123.649z"/>
		<path fill="#878787" d="M212.776,128.583c-1.25,0-2.259-0.438-3.048-1.316c-0.789-0.877-1.162-2.017-1.162-3.399v-0.482
			c0-1.382,0.395-2.544,1.184-3.442c0.789-0.899,1.776-1.359,2.939-1.359c1.162,0,2.083,0.372,2.718,1.118
			c0.636,0.745,0.966,1.776,0.966,3.048v0.834h-6.71v0.285c0,1.096,0.285,2.017,0.833,2.741c0.549,0.724,1.316,1.096,2.302,1.096
			c0.592,0,1.141-0.088,1.623-0.284c0.504-0.198,0.899-0.461,1.228-0.789l0.461,0.723c-0.329,0.351-0.789,0.658-1.338,0.877
			C214.223,128.45,213.521,128.583,212.776,128.583z M212.666,119.461c-0.811,0-1.491,0.285-2.017,0.877
			c-0.526,0.591-0.833,1.338-0.921,2.236l0.022,0.044h5.525v-0.219c0-0.855-0.219-1.557-0.679-2.127
			C214.157,119.746,213.5,119.461,212.666,119.461z M213.807,114.637h1.315l0.021,0.044l-2.215,2.324h-0.965L213.807,114.637z"/>
		<path fill="#878787" d="M222.775,127.684c0.68,0,1.294-0.198,1.82-0.614c0.526-0.395,0.789-0.965,0.789-1.689h0.965l0.022,0.044
			c0.021,0.899-0.329,1.645-1.052,2.236c-0.724,0.592-1.557,0.899-2.522,0.899c-1.294,0-2.281-0.461-3.005-1.359
			c-0.723-0.899-1.074-2.062-1.074-3.465v-0.372c0-1.404,0.351-2.565,1.074-3.465c0.724-0.899,1.711-1.359,3.005-1.359
			c1.03,0,1.907,0.307,2.587,0.942c0.68,0.614,1.031,1.448,1.008,2.456l-0.021,0.044h-0.965c0-0.768-0.263-1.382-0.768-1.842
			c-0.505-0.46-1.119-0.702-1.864-0.702c-1.009,0-1.754,0.373-2.259,1.119c-0.505,0.745-0.745,1.666-0.745,2.785v0.373
			c0,1.14,0.241,2.082,0.745,2.806C221.021,127.245,221.744,127.684,222.775,127.684z"/>
		<path fill="#878787" d="M230.559,115.974h-1.052v-1.491h1.052V115.974z M230.559,128.385h-1.052v-9.648h1.052V128.385z"/>
		<path fill="#878787" d="M240.359,128.385c-0.065-0.329-0.108-0.636-0.153-0.877c-0.043-0.242-0.043-0.505-0.043-0.745
			c-0.33,0.526-0.812,0.965-1.403,1.293c-0.593,0.352-1.295,0.505-2.062,0.505c-0.944,0-1.689-0.263-2.192-0.745
			c-0.526-0.505-0.789-1.184-0.789-2.039c0-0.856,0.371-1.557,1.14-2.105c0.744-0.527,1.731-0.812,2.937-0.812h2.37v-1.184
			c0-0.702-0.22-1.229-0.659-1.623c-0.438-0.395-1.052-0.591-1.842-0.591c-0.724,0-1.315,0.175-1.776,0.526
			s-0.679,0.811-0.679,1.359h-0.987l-0.022-0.044c-0.043-0.724,0.285-1.359,0.922-1.908c0.634-0.548,1.513-0.833,2.565-0.833
			s1.907,0.263,2.543,0.812c0.636,0.548,0.965,1.315,0.965,2.324v4.759c0,0.328,0.022,0.658,0.065,0.986
			c0.045,0.329,0.11,0.636,0.198,0.966h-1.097L240.359,128.385L240.359,128.385z M236.809,127.64c0.832,0,1.534-0.198,2.127-0.592
			c0.591-0.395,1.007-0.898,1.228-1.513v-1.842h-2.39c-0.877,0-1.578,0.198-2.149,0.614c-0.569,0.417-0.854,0.921-0.854,1.491
			c0,0.549,0.175,0.987,0.548,1.316C235.689,127.464,236.172,127.64,236.809,127.64z"/>
		<path fill="#878787" d="M245.996,128.385h-1.052v-13.924h1.052V128.385z"/>
		<path fill="#878787" d="M250.886,115.974h-1.054v-1.491h1.054V115.974z M250.886,128.385h-1.054v-9.648h1.054V128.385z"/>
		<path fill="#878787" d="M260.359,125.93c0-0.461-0.177-0.855-0.549-1.185c-0.373-0.328-1.052-0.614-2.017-0.833
			c-1.142-0.241-1.997-0.57-2.545-0.987c-0.549-0.416-0.832-0.986-0.832-1.731c0-0.746,0.306-1.36,0.942-1.864
			c0.614-0.505,1.448-0.768,2.478-0.768c1.075,0,1.929,0.263,2.588,0.812c0.636,0.548,0.942,1.205,0.92,2.017l-0.02,0.044h-0.987
			c0-0.526-0.22-0.987-0.681-1.382c-0.459-0.395-1.052-0.591-1.797-0.591c-0.769,0-1.36,0.175-1.754,0.504
			c-0.396,0.329-0.593,0.724-0.593,1.184c0,0.439,0.175,0.812,0.506,1.097c0.328,0.285,1.007,0.548,2.017,0.767
			c1.14,0.242,1.995,0.592,2.565,1.053c0.569,0.438,0.877,1.052,0.877,1.798c0,0.812-0.328,1.447-0.987,1.952
			c-0.659,0.504-1.513,0.745-2.588,0.745c-1.162,0-2.082-0.285-2.763-0.833c-0.657-0.549-0.985-1.228-0.942-1.995l0.022-0.044h0.987
			c0.043,0.701,0.328,1.206,0.855,1.513c0.526,0.307,1.14,0.482,1.864,0.482c0.767,0,1.381-0.175,1.819-0.526
			S260.359,126.412,260.359,125.93z"/>
		<path fill="#878787" d="M266.279,116.259v2.478h2.127v0.877h-2.127v6.293c0,0.636,0.108,1.075,0.351,1.338
			c0.218,0.263,0.526,0.395,0.92,0.395c0.133,0,0.263,0,0.373-0.022c0.11-0.021,0.263-0.044,0.438-0.088l0.153,0.79
			c-0.131,0.065-0.328,0.132-0.526,0.175c-0.218,0.044-0.416,0.065-0.636,0.065c-0.679,0-1.205-0.219-1.578-0.636
			c-0.371-0.416-0.569-1.096-0.569-2.038v-6.293h-1.666v-0.877h1.666v-2.478h1.075v0.021H266.279z"/>
		<path fill="#878787" d="M274.875,128.583c-1.25,0-2.26-0.438-3.049-1.316c-0.789-0.877-1.162-2.017-1.162-3.399v-0.482
			c0-1.382,0.396-2.544,1.185-3.442c0.789-0.899,1.776-1.359,2.937-1.359c1.162,0,2.084,0.372,2.72,1.118
			c0.636,0.745,0.965,1.776,0.965,3.048v0.834h-6.709v0.285c0,1.096,0.283,2.017,0.832,2.741s1.315,1.096,2.302,1.096
			c0.593,0,1.14-0.088,1.623-0.284c0.504-0.198,0.899-0.461,1.228-0.789l0.461,0.723c-0.328,0.351-0.789,0.658-1.338,0.877
			C276.321,128.45,275.642,128.583,274.875,128.583z M274.787,119.461c-0.812,0-1.493,0.285-2.019,0.877
			c-0.526,0.591-0.832,1.338-0.92,2.236l0.02,0.044h5.527v-0.219c0-0.855-0.22-1.557-0.679-2.127
			C276.278,119.746,275.619,119.461,274.787,119.461z"/>
		<path fill="#878787" d="M287.131,125.93c0-0.461-0.175-0.855-0.549-1.185c-0.373-0.328-1.052-0.614-2.017-0.833
			c-1.14-0.241-1.995-0.57-2.543-0.987c-0.549-0.416-0.834-0.986-0.834-1.731c0-0.746,0.308-1.36,0.942-1.864
			c0.616-0.505,1.448-0.768,2.478-0.768c1.075,0,1.931,0.263,2.588,0.812c0.636,0.548,0.944,1.205,0.922,2.017l-0.022,0.044h-0.987
			c0-0.526-0.218-0.987-0.679-1.382s-1.052-0.591-1.799-0.591c-0.767,0-1.358,0.175-1.754,0.504
			c-0.394,0.329-0.591,0.724-0.591,1.184c0,0.439,0.175,0.812,0.504,1.097c0.328,0.285,1.009,0.548,2.017,0.767
			c1.14,0.242,1.996,0.592,2.566,1.053c0.571,0.438,0.877,1.052,0.877,1.798c0,0.812-0.328,1.447-0.987,1.952
			c-0.657,0.504-1.511,0.745-2.586,0.745c-1.162,0-2.084-0.285-2.763-0.833c-0.659-0.549-0.987-1.228-0.942-1.995l0.02-0.044h0.987
			c0.045,0.701,0.328,1.206,0.857,1.513c0.526,0.307,1.14,0.482,1.862,0.482c0.769,0,1.383-0.175,1.821-0.526
			S287.131,126.412,287.131,125.93z"/>
		<path fill="#878787" d="M296.143,123.649c0-1.535,0.328-2.762,0.987-3.705s1.556-1.382,2.718-1.382
			c0.659,0,1.228,0.132,1.733,0.417c0.504,0.285,0.92,0.679,1.228,1.184v-5.701h1.075v13.924h-0.877l-0.155-1.403
			c-0.328,0.504-0.744,0.898-1.25,1.184c-0.504,0.285-1.095,0.417-1.774,0.417c-1.162,0-2.062-0.439-2.698-1.294
			c-0.659-0.856-0.987-2.018-0.987-3.465V123.649z M297.218,123.824c0,1.162,0.241,2.106,0.701,2.785
			c0.461,0.68,1.162,1.031,2.105,1.031c0.681,0,1.272-0.154,1.733-0.461s0.812-0.723,1.075-1.272v-4.582
			c-0.243-0.549-0.594-0.987-1.032-1.338c-0.438-0.351-1.03-0.526-1.731-0.526c-0.942,0-1.646,0.395-2.127,1.161
			c-0.483,0.768-0.702,1.776-0.702,3.005v0.197H297.218z"/>
		<path fill="#878787" d="M313.773,126.828c-0.308,0.57-0.724,1.008-1.25,1.294c-0.526,0.307-1.14,0.461-1.842,0.461
			c-1.009,0-1.819-0.351-2.39-1.031s-0.854-1.755-0.854-3.202v-5.591h1.073v5.613c0,1.184,0.198,2.017,0.594,2.543
			c0.394,0.505,0.965,0.768,1.709,0.768c0.812,0,1.448-0.175,1.931-0.549c0.481-0.372,0.812-0.854,1.007-1.469v-6.906h1.075v9.648
			h-0.942L313.773,126.828z"/>
		<path fill="#878787" d="M327.084,127.684c0.679,0,1.293-0.198,1.819-0.614c0.526-0.395,0.789-0.965,0.789-1.689h0.965l0.022,0.044
			c0.022,0.899-0.328,1.645-1.052,2.236c-0.724,0.592-1.558,0.899-2.523,0.899c-1.293,0-2.28-0.461-3.004-1.359
			c-0.722-0.899-1.075-2.062-1.075-3.465v-0.372c0-1.404,0.353-2.565,1.075-3.465c0.724-0.899,1.711-1.359,3.004-1.359
			c1.032,0,1.909,0.307,2.588,0.942c0.679,0.614,1.032,1.448,1.009,2.456l-0.022,0.044h-0.965c0-0.768-0.263-1.382-0.767-1.842
			c-0.506-0.46-1.12-0.702-1.864-0.702c-1.009,0-1.756,0.373-2.26,1.119c-0.504,0.745-0.744,1.666-0.744,2.785v0.373
			c0,1.14,0.241,2.082,0.744,2.806C325.328,127.245,326.052,127.684,327.084,127.684z"/>
		<path fill="#878787" d="M333.069,123.43c0-1.425,0.396-2.588,1.162-3.486c0.767-0.899,1.819-1.359,3.092-1.359
			c1.293,0,2.325,0.46,3.114,1.359c0.789,0.898,1.162,2.083,1.162,3.486v0.285c0,1.425-0.396,2.587-1.162,3.508
			c-0.769,0.899-1.799,1.36-3.092,1.36c-1.295,0-2.325-0.461-3.114-1.36c-0.789-0.898-1.162-2.083-1.162-3.508V123.43z
			 M334.144,123.715c0,1.118,0.285,2.061,0.854,2.829c0.571,0.767,1.36,1.14,2.368,1.14c0.987,0,1.776-0.373,2.347-1.14
			c0.569-0.768,0.854-1.711,0.854-2.829v-0.285c0-1.096-0.285-2.039-0.854-2.807c-0.571-0.767-1.36-1.161-2.347-1.161
			c-0.985,0-1.774,0.372-2.345,1.161c-0.571,0.768-0.854,1.711-0.854,2.807v0.285H334.144z"/>
		<path fill="#878787" d="M345.523,118.737l0.088,1.666c0.308-0.591,0.724-1.052,1.25-1.381c0.526-0.329,1.14-0.483,1.864-0.483
			c1.052,0,1.842,0.329,2.39,0.966c0.549,0.635,0.812,1.645,0.812,3.004v5.876h-1.075v-5.876c0-1.096-0.198-1.886-0.614-2.346
			c-0.416-0.461-1.009-0.68-1.754-0.68c-0.769,0-1.383,0.175-1.842,0.57c-0.461,0.395-0.812,0.877-1.009,1.513v6.841h-1.075v-9.647
			h0.965V118.737z"/>
		<path fill="#878787" d="M361.267,125.93c0-0.461-0.175-0.855-0.547-1.185c-0.373-0.328-1.052-0.614-2.019-0.833
			c-1.14-0.241-1.994-0.57-2.543-0.987c-0.549-0.416-0.832-0.986-0.832-1.731c0-0.746,0.306-1.36,0.942-1.864
			c0.614-0.505,1.448-0.768,2.478-0.768c1.075,0,1.929,0.263,2.588,0.812c0.634,0.548,0.942,1.205,0.92,2.017l-0.022,0.044h-0.985
			c0-0.526-0.22-0.987-0.681-1.382c-0.459-0.395-1.052-0.591-1.797-0.591c-0.769,0-1.36,0.175-1.756,0.504
			c-0.394,0.329-0.591,0.724-0.591,1.184c0,0.439,0.175,0.812,0.504,1.097c0.33,0.285,1.009,0.548,2.019,0.767
			c1.14,0.242,1.995,0.592,2.566,1.053c0.569,0.438,0.877,1.052,0.877,1.798c0,0.812-0.33,1.447-0.987,1.952
			c-0.659,0.504-1.513,0.745-2.588,0.745c-1.162,0-2.082-0.285-2.763-0.833c-0.657-0.549-0.985-1.228-0.942-1.995l0.022-0.044h0.987
			c0.043,0.701,0.328,1.206,0.854,1.513s1.14,0.482,1.864,0.482c0.767,0,1.381-0.175,1.819-0.526
			C361.092,126.807,361.267,126.412,361.267,125.93z"/>
		<path fill="#878787" d="M369.184,128.583c-1.25,0-2.26-0.438-3.049-1.316c-0.789-0.877-1.16-2.017-1.16-3.399v-0.482
			c0-1.382,0.394-2.544,1.183-3.442c0.789-0.899,1.776-1.359,2.939-1.359s2.082,0.372,2.718,1.118
			c0.636,0.745,0.965,1.776,0.965,3.048v0.834h-6.709v0.285c0,1.096,0.285,2.017,0.834,2.741s1.315,1.096,2.302,1.096
			c0.591,0,1.14-0.088,1.621-0.284c0.506-0.198,0.899-0.461,1.23-0.789l0.459,0.723c-0.328,0.351-0.789,0.658-1.338,0.877
			C370.632,128.45,369.951,128.583,369.184,128.583z M369.096,119.461c-0.812,0-1.491,0.285-2.017,0.877
			c-0.526,0.591-0.834,1.338-0.922,2.236l0.022,0.044h5.525v-0.219c0-0.855-0.218-1.557-0.679-2.127
			C370.564,119.746,369.93,119.461,369.096,119.461z"/>
		<path fill="#878787" d="M376.858,115.974h-1.052v-1.491h1.052V115.974z M376.858,128.385h-1.052v-9.648h1.052V128.385z"/>
		<path fill="#878787" d="M381.726,128.385h-1.052v-13.924h1.052V128.385z"/>
		<path fill="#878787" d="M191.835,150.51c-1.25,0-2.259-0.438-3.048-1.315s-1.162-2.018-1.162-3.399v-0.482
			c0-1.382,0.395-2.544,1.185-3.443c0.789-0.898,1.775-1.359,2.938-1.359c1.162,0,2.083,0.373,2.719,1.119
			c0.635,0.745,0.965,1.776,0.965,3.048v0.833h-6.71v0.286c0,1.096,0.285,2.017,0.834,2.741c0.548,0.723,1.315,1.096,2.302,1.096
			c0.591,0,1.14-0.088,1.622-0.285c0.505-0.197,0.899-0.46,1.228-0.789l0.461,0.724c-0.329,0.351-0.789,0.658-1.338,0.877
			C193.282,150.378,192.58,150.51,191.835,150.51z M191.726,141.388c-0.812,0-1.492,0.285-2.018,0.877s-0.833,1.338-0.921,2.237
			l0.022,0.044h5.526v-0.219c0-0.856-0.219-1.557-0.68-2.127C193.216,141.673,192.559,141.388,191.726,141.388z"/>
		<path fill="#878787" d="M199.97,138.187v2.478h2.127v0.877h-2.127v6.292c0,0.636,0.11,1.075,0.351,1.338
			c0.219,0.263,0.526,0.395,0.922,0.395c0.132,0,0.263,0,0.372-0.021c0.11-0.022,0.263-0.044,0.439-0.088l0.154,0.789
			c-0.132,0.066-0.329,0.132-0.526,0.175c-0.219,0.044-0.417,0.066-0.636,0.066c-0.68,0-1.206-0.219-1.578-0.636
			c-0.373-0.417-0.57-1.096-0.57-2.039v-6.293h-1.667v-0.877h1.667v-2.478h1.074v0.022H199.97z"/>
		<path fill="#878787" d="M209.662,145.577c0-1.536,0.329-2.763,0.987-3.706c0.658-0.942,1.557-1.381,2.719-1.381
			c0.658,0,1.228,0.131,1.731,0.416c0.505,0.285,0.922,0.68,1.229,1.184v-5.701h1.074v13.925h-0.877l-0.153-1.404
			c-0.329,0.505-0.745,0.899-1.25,1.184c-0.505,0.286-1.096,0.417-1.776,0.417c-1.162,0-2.061-0.438-2.697-1.294
			c-0.658-0.855-0.987-2.017-0.987-3.464V145.577z M210.736,145.752c0,1.161,0.242,2.105,0.701,2.785
			c0.461,0.679,1.162,1.03,2.106,1.03c0.679,0,1.272-0.153,1.731-0.46c0.461-0.307,0.812-0.724,1.075-1.273v-4.582
			c-0.241-0.549-0.591-0.987-1.031-1.338c-0.438-0.351-1.03-0.526-1.731-0.526c-0.943,0-1.645,0.395-2.127,1.162
			c-0.482,0.768-0.701,1.776-0.701,3.004v0.198H210.736z"/>
		<path fill="#878787" d="M224.638,150.51c-1.25,0-2.259-0.438-3.048-1.315s-1.162-2.018-1.162-3.399v-0.482
			c0-1.382,0.395-2.544,1.184-3.443c0.789-0.898,1.776-1.359,2.939-1.359c1.162,0,2.083,0.373,2.719,1.119
			c0.636,0.745,0.966,1.776,0.966,3.048v0.833h-6.71v0.286c0,1.096,0.285,2.017,0.833,2.741c0.549,0.723,1.316,1.096,2.302,1.096
			c0.592,0,1.141-0.088,1.623-0.285c0.504-0.197,0.898-0.46,1.228-0.789l0.461,0.724c-0.329,0.351-0.79,0.658-1.338,0.877
			C226.085,150.378,225.406,150.51,224.638,150.51z M224.551,141.388c-0.812,0-1.491,0.285-2.018,0.877
			c-0.526,0.592-0.833,1.338-0.921,2.237l0.022,0.044h5.526v-0.219c0-0.856-0.219-1.557-0.68-2.127
			C226.042,141.673,225.384,141.388,224.551,141.388z"/>
		<path fill="#878787" d="M237.488,150.313h-1.052v-13.925h1.052V150.313z"/>
		<path fill="#878787" d="M247.289,150.313c-0.065-0.329-0.11-0.636-0.153-0.878c-0.045-0.241-0.045-0.504-0.045-0.745
			c-0.328,0.526-0.81,0.965-1.403,1.294c-0.591,0.351-1.293,0.505-2.06,0.505c-0.944,0-1.689-0.263-2.194-0.746
			c-0.526-0.504-0.789-1.184-0.789-2.038c0-0.855,0.373-1.557,1.14-2.106c0.746-0.526,1.733-0.812,2.939-0.812h2.368v-1.184
			c0-0.702-0.218-1.228-0.657-1.622c-0.438-0.395-1.052-0.592-1.841-0.592c-0.724,0-1.317,0.175-1.776,0.526
			c-0.461,0.351-0.681,0.812-0.681,1.36h-0.985l-0.022-0.044c-0.045-0.724,0.285-1.36,0.92-1.908
			c0.636-0.549,1.513-0.833,2.565-0.833s1.909,0.263,2.545,0.811c0.634,0.549,0.965,1.315,0.965,2.325v4.758
			c0,0.329,0.02,0.658,0.065,0.987c0.045,0.328,0.11,0.635,0.198,0.965h-1.097v-0.023H247.289z M243.736,149.567
			c0.834,0,1.536-0.197,2.127-0.591c0.593-0.395,1.009-0.899,1.228-1.513v-1.842h-2.39c-0.877,0-1.578,0.197-2.147,0.614
			c-0.571,0.416-0.857,0.921-0.857,1.491c0,0.549,0.175,0.987,0.549,1.315C242.619,149.391,243.1,149.567,243.736,149.567z"/>
		<path fill="#878787" d="M257.814,140.665l0.088,1.578c0.308-0.548,0.724-0.987,1.228-1.294c0.526-0.307,1.12-0.46,1.844-0.46
			c0.744,0,1.358,0.175,1.841,0.526c0.504,0.351,0.855,0.898,1.052,1.622c0.286-0.68,0.702-1.206,1.25-1.578
			c0.549-0.373,1.183-0.57,1.952-0.57c1.03,0,1.819,0.351,2.39,1.03c0.569,0.68,0.832,1.732,0.832,3.179v5.636h-1.075v-5.657
			c0-1.184-0.218-2.039-0.634-2.522c-0.418-0.482-1.009-0.724-1.756-0.724c-0.81,0-1.446,0.242-1.884,0.745
			c-0.438,0.505-0.724,1.141-0.857,1.93c0,0.065,0,0.132,0,0.197c0,0.066,0,0.154,0,0.242v5.789h-1.073v-5.657
			c0-1.162-0.22-1.995-0.636-2.5c-0.418-0.504-1.009-0.745-1.754-0.745c-0.746,0-1.338,0.198-1.799,0.57
			c-0.439,0.373-0.746,0.899-0.922,1.536v6.797h-1.075v-9.648h0.987v-0.022H257.814z"/>
		<path fill="#878787" d="M277.506,150.51c-1.25,0-2.26-0.438-3.049-1.315s-1.162-2.018-1.162-3.399v-0.482
			c0-1.382,0.396-2.544,1.185-3.443c0.789-0.898,1.776-1.359,2.939-1.359c1.162,0,2.082,0.373,2.718,1.119
			c0.636,0.745,0.965,1.776,0.965,3.048v0.833h-6.709v0.286c0,1.096,0.286,2.017,0.834,2.741c0.546,0.723,1.315,1.096,2.302,1.096
			c0.591,0,1.14-0.088,1.621-0.285c0.506-0.197,0.899-0.46,1.228-0.789l0.461,0.724c-0.328,0.351-0.789,0.658-1.338,0.877
			S278.25,150.51,277.506,150.51z M277.396,141.388c-0.812,0-1.491,0.285-2.017,0.877s-0.834,1.338-0.922,2.237l0.022,0.044h5.527
			v-0.219c0-0.856-0.22-1.557-0.681-2.127C278.886,141.673,278.23,141.388,277.396,141.388z"/>
		<path fill="#878787" d="M289.742,147.857c0-0.461-0.175-0.855-0.549-1.184c-0.373-0.329-1.052-0.614-2.017-0.833
			c-1.142-0.242-1.996-0.57-2.545-0.987c-0.549-0.417-0.832-0.987-0.832-1.732s0.306-1.359,0.942-1.864
			c0.614-0.504,1.448-0.767,2.478-0.767c1.075,0,1.929,0.263,2.588,0.811c0.636,0.549,0.942,1.206,0.92,2.018l-0.02,0.044h-0.987
			c0-0.527-0.22-0.987-0.681-1.382c-0.459-0.395-1.052-0.592-1.797-0.592c-0.769,0-1.36,0.175-1.754,0.505
			c-0.396,0.328-0.593,0.723-0.593,1.184c0,0.438,0.175,0.812,0.506,1.096c0.328,0.285,1.007,0.549,2.017,0.768
			c1.14,0.241,1.995,0.592,2.566,1.052c0.569,0.438,0.877,1.052,0.877,1.799c0,0.811-0.328,1.447-0.987,1.951
			c-0.659,0.505-1.513,0.746-2.588,0.746c-1.162,0-2.082-0.285-2.763-0.834c-0.657-0.548-0.985-1.228-0.942-1.995l0.022-0.044h0.987
			c0.043,0.702,0.328,1.206,0.855,1.513c0.526,0.307,1.14,0.482,1.864,0.482c0.767,0,1.381-0.175,1.819-0.526
			C289.564,148.734,289.742,148.339,289.742,147.857z"/>
		<path fill="#878787" d="M300.309,148.756c-0.306,0.57-0.724,1.009-1.25,1.293c-0.526,0.308-1.14,0.461-1.841,0.461
			c-1.009,0-1.819-0.351-2.39-1.031c-0.569-0.679-0.855-1.754-0.855-3.201v-5.592h1.075v5.613c0,1.184,0.196,2.018,0.591,2.544
			c0.394,0.504,0.965,0.767,1.711,0.767c0.81,0,1.446-0.175,1.929-0.548c0.481-0.373,0.812-0.855,1.007-1.469v-6.907h1.075v9.648
			h-0.942L300.309,148.756z"/>
		<path fill="#878787" d="M309.301,141.586l-0.769-0.044c-0.679,0-1.228,0.197-1.644,0.57c-0.439,0.372-0.746,0.899-0.922,1.557
			v6.666h-1.075v-9.648h0.944l0.131,1.601v0.109c0.285-0.591,0.659-1.052,1.12-1.381c0.459-0.329,1.03-0.505,1.687-0.505
			c0.133,0,0.263,0,0.373,0.022s0.22,0.044,0.285,0.065L309.301,141.586z"/>
		<path fill="#878787" d="M315.374,150.51c-1.25,0-2.26-0.438-3.049-1.315s-1.162-2.018-1.162-3.399v-0.482
			c0-1.382,0.396-2.544,1.185-3.443c0.789-0.898,1.776-1.359,2.939-1.359c1.162,0,2.082,0.373,2.719,1.119
			c0.636,0.745,0.965,1.776,0.965,3.048v0.833h-6.709v0.286c0,1.096,0.285,2.017,0.834,2.741c0.549,0.723,1.315,1.096,2.302,1.096
			c0.591,0,1.14-0.088,1.621-0.285c0.506-0.197,0.899-0.46,1.228-0.789l0.461,0.724c-0.328,0.351-0.789,0.658-1.338,0.877
			C316.822,150.378,316.141,150.51,315.374,150.51z M315.264,141.388c-0.812,0-1.491,0.285-2.017,0.877s-0.834,1.338-0.922,2.237
			l0.022,0.044h5.527v-0.219c0-0.856-0.22-1.557-0.681-2.127C316.755,141.673,316.118,141.388,315.264,141.388z"/>
		<path fill="#878787" d="M333.135,150.313c-0.065-0.329-0.11-0.636-0.153-0.878c-0.045-0.241-0.045-0.504-0.045-0.745
			c-0.328,0.526-0.81,0.965-1.403,1.294c-0.591,0.351-1.293,0.505-2.06,0.505c-0.944,0-1.689-0.263-2.194-0.746
			c-0.526-0.504-0.789-1.184-0.789-2.038c0-0.855,0.373-1.557,1.14-2.106c0.746-0.526,1.733-0.812,2.939-0.812h2.368v-1.184
			c0-0.702-0.218-1.228-0.657-1.622c-0.438-0.395-1.052-0.592-1.841-0.592c-0.724,0-1.315,0.175-1.776,0.526
			s-0.681,0.812-0.681,1.36h-0.985l-0.022-0.044c-0.045-0.724,0.285-1.36,0.92-1.908c0.636-0.549,1.513-0.833,2.565-0.833
			c1.054,0,1.909,0.263,2.545,0.811c0.636,0.549,0.965,1.315,0.965,2.325v4.758c0,0.329,0.022,0.658,0.065,0.987
			c0.045,0.328,0.11,0.635,0.198,0.965h-1.097v-0.023H333.135z M329.582,149.567c0.834,0,1.536-0.197,2.127-0.591
			c0.593-0.395,1.009-0.899,1.228-1.513v-1.842h-2.39c-0.877,0-1.578,0.197-2.147,0.614c-0.571,0.416-0.857,0.921-0.857,1.491
			c0,0.549,0.175,0.987,0.549,1.315C328.442,149.391,328.948,149.567,329.582,149.567z"/>
		<path fill="#878787" d="M341.094,149.611c0.681,0,1.295-0.197,1.821-0.614c0.526-0.395,0.789-0.965,0.789-1.689h0.965l0.022,0.044
			c0.02,0.899-0.33,1.645-1.052,2.237c-0.724,0.592-1.558,0.899-2.523,0.899c-1.293,0-2.28-0.461-3.004-1.36
			c-0.724-0.898-1.075-2.061-1.075-3.464v-0.373c0-1.403,0.351-2.565,1.075-3.465c0.724-0.898,1.711-1.359,3.004-1.359
			c1.03,0,1.909,0.307,2.588,0.943c0.679,0.614,1.03,1.447,1.007,2.455l-0.02,0.044h-0.965c0-0.767-0.263-1.382-0.769-1.841
			c-0.504-0.461-1.118-0.702-1.864-0.702c-1.007,0-1.754,0.372-2.258,1.118s-0.746,1.667-0.746,2.786v0.372
			c0,1.14,0.243,2.083,0.746,2.807C339.34,149.172,340.087,149.611,341.094,149.611z"/>
		<path fill="#878787" d="M347.102,145.358c0-1.426,0.396-2.588,1.162-3.487c0.769-0.898,1.821-1.359,3.092-1.359
			c1.295,0,2.325,0.461,3.114,1.359c0.789,0.899,1.162,2.083,1.162,3.487v0.284c0,1.426-0.394,2.588-1.162,3.509
			c-0.767,0.899-1.797,1.359-3.092,1.359c-1.293,0-2.325-0.461-3.114-1.359c-0.789-0.899-1.162-2.083-1.162-3.509V145.358z
			 M348.177,145.642c0,1.119,0.286,2.062,0.857,2.829c0.569,0.768,1.358,1.14,2.368,1.14c0.987,0,1.776-0.372,2.345-1.14
			c0.571-0.767,0.857-1.71,0.857-2.829v-0.284c0-1.097-0.285-2.039-0.857-2.807c-0.569-0.768-1.358-1.162-2.345-1.162
			s-1.776,0.373-2.347,1.162c-0.569,0.768-0.855,1.71-0.855,2.807v0.284H348.177z"/>
		<path fill="#878787" d="M364.93,148.756c-0.306,0.57-0.724,1.009-1.25,1.293c-0.526,0.308-1.14,0.461-1.842,0.461
			c-1.009,0-1.819-0.351-2.39-1.031c-0.571-0.679-0.855-1.754-0.855-3.201v-5.592h1.075v5.613c0,1.184,0.196,2.018,0.591,2.544
			c0.394,0.504,0.965,0.767,1.709,0.767c0.812,0,1.448-0.175,1.931-0.548c0.481-0.373,0.812-0.855,1.007-1.469v-6.907h1.075v9.648
			h-0.942L364.93,148.756z"/>
		<path fill="#878787" d="M375.279,147.857c0-0.461-0.175-0.855-0.549-1.184c-0.371-0.329-1.052-0.614-2.017-0.833
			c-1.14-0.242-1.994-0.57-2.543-0.987c-0.549-0.417-0.834-0.987-0.834-1.732s0.308-1.359,0.944-1.864
			c0.614-0.504,1.446-0.767,2.478-0.767c1.073,0,1.929,0.263,2.586,0.811c0.636,0.549,0.944,1.206,0.922,2.018l-0.022,0.044h-0.987
			c0-0.527-0.218-0.987-0.679-1.382s-1.052-0.592-1.799-0.592c-0.767,0-1.358,0.175-1.754,0.505
			c-0.394,0.328-0.591,0.723-0.591,1.184c0,0.438,0.175,0.812,0.504,1.096c0.328,0.285,1.009,0.549,2.017,0.768
			c1.14,0.241,1.997,0.592,2.565,1.052c0.571,0.438,0.877,1.052,0.877,1.799c0,0.811-0.328,1.447-0.985,1.951
			c-0.659,0.505-1.513,0.746-2.588,0.746c-1.162,0-2.084-0.285-2.763-0.834c-0.659-0.548-0.987-1.228-0.942-1.995l0.02-0.044h0.987
			c0.045,0.702,0.33,1.206,0.857,1.513c0.526,0.307,1.14,0.482,1.864,0.482c0.767,0,1.381-0.175,1.819-0.526
			C375.104,148.734,375.279,148.339,375.279,147.857z"/>
		<path fill="#878787" d="M381.222,138.187v2.478h2.127v0.877h-2.127v6.292c0,0.636,0.11,1.075,0.351,1.338
			c0.22,0.263,0.526,0.395,0.922,0.395c0.131,0,0.263,0,0.371-0.021c0.11-0.022,0.263-0.044,0.438-0.088l0.155,0.789
			c-0.133,0.066-0.33,0.132-0.526,0.175c-0.22,0.044-0.418,0.066-0.636,0.066c-0.679,0-1.207-0.219-1.578-0.636
			c-0.373-0.417-0.571-1.096-0.571-2.039v-6.293h-1.666v-0.877h1.666v-2.478h1.075v0.022H381.222z"/>
		<path fill="#878787" d="M387.362,137.902h-1.054v-1.491h1.054V137.902z M387.362,150.313h-1.054v-9.648h1.054V150.313z"/>
		<path fill="#878787" d="M390.629,145.577c0-1.536,0.328-2.763,0.987-3.706c0.657-0.942,1.556-1.381,2.718-1.381
			c0.657,0,1.25,0.131,1.731,0.416c0.506,0.285,0.899,0.68,1.228,1.184l0.175-1.425h0.857v13.375h-1.075v-4.977
			c-0.328,0.46-0.746,0.811-1.228,1.075c-0.506,0.241-1.075,0.372-1.711,0.372c-1.162,0-2.062-0.438-2.696-1.294
			c-0.659-0.855-0.987-2.017-0.987-3.464v-0.175H390.629z M391.682,145.752c0,1.161,0.241,2.105,0.701,2.806
			c0.461,0.702,1.162,1.052,2.105,1.052c0.659,0,1.228-0.153,1.666-0.438c0.461-0.285,0.812-0.702,1.075-1.228v-4.78
			c-0.241-0.526-0.592-0.965-1.03-1.294c-0.438-0.328-1.009-0.482-1.689-0.482c-0.944,0-1.646,0.395-2.127,1.162
			c-0.483,0.768-0.701,1.776-0.701,3.004V145.752z"/>
		<path fill="#878787" d="M408.257,148.756c-0.306,0.57-0.722,1.009-1.248,1.293c-0.526,0.308-1.142,0.461-1.844,0.461
			c-1.007,0-1.819-0.351-2.39-1.031c-0.569-0.679-0.855-1.754-0.855-3.201v-5.592h1.075v5.613c0,1.184,0.198,2.018,0.591,2.544
			c0.396,0.504,0.965,0.767,1.711,0.767c0.812,0,1.448-0.175,1.929-0.548c0.483-0.373,0.812-0.855,1.009-1.469v-6.907h1.075v9.648
			h-0.944L408.257,148.756z"/>
		<path fill="#878787" d="M416.502,150.51c-1.25,0-2.258-0.438-3.047-1.315s-1.162-2.018-1.162-3.399v-0.482
			c0-1.382,0.394-2.544,1.185-3.443c0.789-0.898,1.774-1.359,2.937-1.359c1.162,0,2.084,0.373,2.72,1.119
			c0.634,0.745,0.965,1.776,0.965,3.048v0.833h-6.732v0.286c0,1.096,0.285,2.017,0.832,2.741c0.549,0.723,1.317,1.096,2.302,1.096
			c0.594,0,1.14-0.088,1.623-0.285c0.504-0.197,0.899-0.46,1.228-0.789l0.461,0.724c-0.328,0.351-0.789,0.658-1.338,0.877
			C417.928,150.378,417.271,150.51,416.502,150.51z M416.415,141.388c-0.81,0-1.491,0.285-2.017,0.877s-0.832,1.338-0.92,2.237
			l0.02,0.044h5.527v-0.219c0-0.856-0.22-1.557-0.679-2.127C417.885,141.673,417.249,141.388,416.415,141.388z"/>
	</g>
	<g>
		
			<linearGradient id="SVGID_31_" gradientUnits="userSpaceOnUse" x1="-338.5302" y1="442.9052" x2="-338.5302" y2="482.6389" gradientTransform="matrix(2.1001 0 0 2.1001 906.2144 -878.0792)">
			<stop  offset="0" style="stop-color:#C60E7F"/>
			<stop  offset="1" style="stop-color:#A11D80"/>
		</linearGradient>
		<path fill="url(#SVGID_31_)" d="M202.404,95.122c0,0.328,0,0.614-0.021,0.854c-0.022,0.219-0.044,0.417-0.088,0.57
			c-0.022,0.154-0.066,0.286-0.11,0.373c-0.044,0.088-0.153,0.219-0.307,0.373c-0.153,0.153-0.416,0.328-0.811,0.548
			c-0.373,0.219-0.812,0.395-1.294,0.57c-0.482,0.175-1.009,0.307-1.579,0.417c-0.57,0.109-1.14,0.153-1.754,0.153
			c-1.338,0-2.522-0.219-3.574-0.635c-1.031-0.417-1.908-1.031-2.609-1.843c-0.702-0.811-1.228-1.798-1.601-2.981
			c-0.351-1.162-0.526-2.522-0.526-4.035c0-1.754,0.219-3.246,0.658-4.517c0.438-1.271,1.052-2.324,1.82-3.158
			c0.789-0.833,1.71-1.447,2.762-1.863c1.075-0.396,2.237-0.615,3.531-0.615c0.526,0,1.03,0.044,1.535,0.131
			c0.505,0.088,0.965,0.219,1.403,0.373s0.833,0.329,1.162,0.526c0.351,0.198,0.592,0.373,0.724,0.505
			c0.132,0.131,0.241,0.263,0.307,0.372c0.065,0.088,0.109,0.219,0.131,0.373c0.021,0.153,0.065,0.351,0.088,0.57
			c0.021,0.219,0.021,0.505,0.021,0.833c0,0.768-0.065,1.294-0.197,1.601c-0.131,0.307-0.307,0.461-0.505,0.461
			c-0.219,0-0.46-0.088-0.701-0.285c-0.242-0.175-0.549-0.395-0.877-0.614c-0.329-0.219-0.745-0.417-1.206-0.614
			c-0.461-0.175-1.031-0.263-1.689-0.263c-1.272,0-2.259,0.482-2.938,1.469c-0.68,0.986-1.009,2.434-1.009,4.319
			c0,0.943,0.088,1.754,0.263,2.478c0.176,0.724,0.417,1.315,0.746,1.798c0.328,0.482,0.745,0.833,1.249,1.075
			c0.505,0.242,1.075,0.373,1.755,0.373c0.679,0,1.272-0.11,1.754-0.307c0.482-0.198,0.921-0.417,1.272-0.68
			c0.373-0.242,0.68-0.482,0.922-0.68c0.241-0.197,0.46-0.307,0.614-0.307c0.109,0,0.219,0.022,0.285,0.088
			c0.088,0.066,0.131,0.175,0.175,0.351s0.088,0.395,0.11,0.68C202.316,94.245,202.404,94.683,202.404,95.122z"/>
		
			<linearGradient id="SVGID_32_" gradientUnits="userSpaceOnUse" x1="-328.4859" y1="442.9044" x2="-328.4859" y2="482.6404" gradientTransform="matrix(2.1001 0 0 2.1001 906.2144 -878.0792)">
			<stop  offset="0" style="stop-color:#C60E7F"/>
			<stop  offset="1" style="stop-color:#A11D80"/>
		</linearGradient>
		<path fill="url(#SVGID_32_)" d="M225.713,89.004c0,1.491-0.198,2.851-0.592,4.056c-0.395,1.229-0.987,2.281-1.776,3.158
			s-1.798,1.578-2.983,2.061c-1.205,0.482-2.609,0.724-4.209,0.724c-1.557,0-2.895-0.219-4.057-0.658
			c-1.14-0.438-2.105-1.052-2.85-1.886c-0.745-0.811-1.316-1.819-1.689-3.025s-0.548-2.566-0.548-4.101
			c0-1.491,0.198-2.85,0.592-4.078c0.395-1.229,0.987-2.281,1.798-3.158c0.789-0.877,1.799-1.557,2.983-2.039
			s2.587-0.724,4.188-0.724c1.557,0,2.916,0.22,4.057,0.636c1.14,0.417,2.105,1.052,2.85,1.864c0.745,0.812,1.315,1.82,1.666,3.026
			C225.538,86.065,225.713,87.447,225.713,89.004z M220.648,89.2c0-0.855-0.065-1.644-0.197-2.368s-0.373-1.359-0.703-1.885
			c-0.328-0.527-0.767-0.943-1.293-1.25c-0.548-0.307-1.229-0.461-2.039-0.461c-0.724,0-1.36,0.132-1.908,0.395
			c-0.549,0.263-0.987,0.658-1.338,1.162c-0.351,0.526-0.614,1.14-0.789,1.864s-0.263,1.557-0.263,2.478
			c0,0.855,0.065,1.645,0.219,2.368c0.153,0.724,0.372,1.36,0.701,1.886c0.329,0.526,0.745,0.942,1.294,1.25
			c0.548,0.285,1.228,0.439,2.039,0.439c0.745,0,1.382-0.132,1.929-0.395c0.549-0.263,0.987-0.659,1.338-1.162
			c0.351-0.505,0.614-1.119,0.789-1.843C220.56,90.933,220.648,90.122,220.648,89.2z"/>
		
			<linearGradient id="SVGID_33_" gradientUnits="userSpaceOnUse" x1="-317.0677" y1="442.9042" x2="-317.0677" y2="482.6408" gradientTransform="matrix(2.1001 0 0 2.1001 906.2144 -878.0792)">
			<stop  offset="0" style="stop-color:#C60E7F"/>
			<stop  offset="1" style="stop-color:#A11D80"/>
		</linearGradient>
		<path fill="url(#SVGID_33_)" d="M248.584,97.884c0,0.131-0.045,0.242-0.11,0.351c-0.088,0.088-0.22,0.175-0.396,0.242
			c-0.175,0.065-0.439,0.109-0.744,0.153c-0.33,0.022-0.724,0.044-1.185,0.044c-0.481,0-0.877-0.021-1.205-0.044
			c-0.33-0.021-0.571-0.088-0.746-0.153c-0.175-0.066-0.306-0.154-0.394-0.242s-0.11-0.219-0.11-0.351v-9.955
			c0-0.855-0.065-1.513-0.175-1.995c-0.133-0.482-0.308-0.898-0.549-1.249c-0.241-0.352-0.526-0.615-0.899-0.79
			c-0.373-0.197-0.812-0.284-1.293-0.284c-0.636,0-1.25,0.219-1.886,0.679c-0.636,0.461-1.293,1.118-1.994,1.995v11.6
			c0,0.131-0.045,0.242-0.11,0.351c-0.088,0.088-0.22,0.175-0.396,0.242c-0.196,0.065-0.438,0.109-0.744,0.153
			c-0.308,0.044-0.702,0.044-1.185,0.044c-0.481,0-0.877-0.021-1.183-0.044c-0.308-0.021-0.571-0.088-0.746-0.153
			c-0.198-0.066-0.328-0.154-0.394-0.242c-0.088-0.088-0.11-0.219-0.11-0.351V80.452c0-0.132,0.022-0.241,0.088-0.351
			c0.065-0.088,0.175-0.175,0.351-0.242c0.175-0.065,0.394-0.109,0.657-0.153c0.263-0.022,0.614-0.044,1.009-0.044
			c0.416,0,0.767,0.021,1.03,0.044c0.285,0.021,0.483,0.088,0.636,0.153c0.153,0.066,0.263,0.154,0.328,0.242
			c0.067,0.088,0.088,0.219,0.088,0.351v2.018c0.965-1.053,1.952-1.82,2.939-2.346c0.987-0.527,2.039-0.79,3.114-0.79
			c1.185,0,2.192,0.198,3.004,0.592c0.812,0.395,1.468,0.921,1.974,1.601c0.504,0.679,0.854,1.447,1.075,2.346
			c0.218,0.899,0.328,1.973,0.328,3.245v10.767L248.584,97.884L248.584,97.884z"/>
		
			<linearGradient id="SVGID_34_" gradientUnits="userSpaceOnUse" x1="-307.9369" y1="442.9029" x2="-307.9369" y2="482.6418" gradientTransform="matrix(2.1001 0 0 2.1001 906.2144 -878.0792)">
			<stop  offset="0" style="stop-color:#C60E7F"/>
			<stop  offset="1" style="stop-color:#A11D80"/>
		</linearGradient>
		<path fill="url(#SVGID_34_)" d="M265.686,96.174c0,0.57-0.043,1.008-0.108,1.315c-0.067,0.307-0.155,0.526-0.285,0.636
			c-0.11,0.132-0.286,0.241-0.526,0.328c-0.22,0.088-0.506,0.175-0.812,0.263c-0.308,0.066-0.636,0.132-1.009,0.154
			c-0.351,0.044-0.724,0.065-1.075,0.065c-0.985,0-1.819-0.132-2.543-0.372c-0.724-0.242-1.315-0.636-1.776-1.14
			c-0.461-0.526-0.812-1.162-1.03-1.952c-0.22-0.789-0.328-1.711-0.328-2.785v-8.925h-2.084c-0.241,0-0.438-0.153-0.569-0.46
			c-0.132-0.307-0.198-0.812-0.198-1.536c0-0.372,0.022-0.702,0.043-0.965c0.022-0.263,0.088-0.46,0.155-0.614
			c0.065-0.154,0.153-0.263,0.241-0.329c0.088-0.065,0.218-0.088,0.351-0.088h2.062v-3.881c0-0.132,0.043-0.241,0.108-0.351
			c0.067-0.109,0.198-0.197,0.396-0.263c0.198-0.065,0.438-0.132,0.767-0.153c0.33-0.022,0.702-0.045,1.185-0.045
			c0.481,0,0.877,0.022,1.205,0.045c0.328,0.021,0.571,0.088,0.746,0.153c0.175,0.066,0.306,0.154,0.394,0.263
			c0.088,0.11,0.11,0.219,0.11,0.351v3.881h3.793c0.133,0,0.241,0.022,0.351,0.088c0.088,0.066,0.175,0.175,0.243,0.329
			c0.065,0.154,0.108,0.351,0.153,0.614c0.022,0.263,0.043,0.592,0.043,0.965c0,0.724-0.065,1.229-0.196,1.536
			c-0.133,0.307-0.33,0.46-0.571,0.46h-3.816v8.201c0,0.943,0.153,1.666,0.461,2.149c0.306,0.483,0.832,0.702,1.601,0.702
			c0.263,0,0.504-0.022,0.701-0.066c0.218-0.044,0.394-0.088,0.549-0.153c0.153-0.066,0.306-0.11,0.416-0.154
			s0.22-0.066,0.308-0.066s0.153,0.022,0.218,0.066s0.133,0.132,0.175,0.285c0.045,0.132,0.065,0.328,0.11,0.548
			C265.665,95.494,265.686,95.801,265.686,96.174z"/>
		
			<linearGradient id="SVGID_35_" gradientUnits="userSpaceOnUse" x1="-299.5063" y1="442.9042" x2="-299.5063" y2="482.641" gradientTransform="matrix(2.1001 0 0 2.1001 906.2144 -878.0792)">
			<stop  offset="0" style="stop-color:#C60E7F"/>
			<stop  offset="1" style="stop-color:#A11D80"/>
		</linearGradient>
		<path fill="url(#SVGID_35_)" d="M282.747,82.074c0,0.461-0.022,0.855-0.045,1.141c-0.022,0.307-0.065,0.526-0.11,0.702
			c-0.043,0.175-0.108,0.285-0.196,0.351c-0.088,0.065-0.198,0.088-0.33,0.088c-0.11,0-0.218-0.022-0.351-0.066
			c-0.131-0.044-0.285-0.088-0.438-0.153c-0.153-0.044-0.328-0.11-0.526-0.154s-0.416-0.065-0.636-0.065
			c-0.283,0-0.549,0.065-0.812,0.175c-0.283,0.109-0.547,0.284-0.854,0.526c-0.285,0.242-0.591,0.549-0.92,0.943
			c-0.33,0.395-0.659,0.877-1.032,1.447v10.876c0,0.131-0.043,0.242-0.11,0.351c-0.088,0.088-0.218,0.175-0.394,0.242
			c-0.198,0.065-0.438,0.109-0.746,0.153c-0.306,0.022-0.702,0.044-1.183,0.044c-0.483,0-0.877-0.021-1.185-0.044
			c-0.306-0.021-0.569-0.088-0.744-0.153c-0.198-0.066-0.33-0.154-0.396-0.242c-0.088-0.088-0.11-0.219-0.11-0.351V80.452
			c0-0.132,0.022-0.241,0.088-0.351c0.065-0.088,0.175-0.175,0.351-0.241c0.175-0.066,0.396-0.11,0.659-0.154
			c0.263-0.022,0.614-0.044,1.007-0.044c0.418,0,0.769,0.021,1.032,0.044c0.286,0.022,0.481,0.088,0.636,0.154
			c0.153,0.065,0.263,0.153,0.328,0.241s0.088,0.219,0.088,0.351v2.171c0.461-0.658,0.899-1.184,1.293-1.622
			c0.396-0.417,0.789-0.768,1.162-1.008c0.373-0.242,0.724-0.417,1.097-0.527c0.373-0.088,0.724-0.153,1.095-0.153
			c0.175,0,0.351,0,0.549,0.021c0.198,0.022,0.396,0.044,0.614,0.088c0.22,0.044,0.396,0.088,0.549,0.154
			c0.153,0.065,0.263,0.109,0.328,0.175c0.067,0.066,0.132,0.132,0.155,0.219c0.02,0.088,0.065,0.175,0.088,0.329
			c0.02,0.153,0.043,0.351,0.065,0.614C282.747,81.241,282.747,81.614,282.747,82.074z"/>
		
			<linearGradient id="SVGID_36_" gradientUnits="userSpaceOnUse" x1="-290.6156" y1="442.9044" x2="-290.6156" y2="482.6404" gradientTransform="matrix(2.1001 0 0 2.1001 906.2144 -878.0792)">
			<stop  offset="0" style="stop-color:#C60E7F"/>
			<stop  offset="1" style="stop-color:#A11D80"/>
		</linearGradient>
		<path fill="url(#SVGID_36_)" d="M305.243,89.004c0,1.491-0.196,2.851-0.591,4.056c-0.394,1.229-0.987,2.281-1.776,3.158
			s-1.799,1.578-2.981,2.061c-1.207,0.482-2.61,0.724-4.211,0.724c-1.556,0-2.894-0.219-4.056-0.658
			c-1.14-0.438-2.105-1.052-2.851-1.886c-0.744-0.811-1.315-1.819-1.686-3.025c-0.373-1.206-0.549-2.566-0.549-4.101
			c0-1.491,0.196-2.85,0.591-4.078c0.396-1.229,0.987-2.281,1.799-3.158c0.789-0.877,1.797-1.557,2.981-2.039
			c1.185-0.482,2.588-0.724,4.189-0.724c1.556,0,2.916,0.22,4.056,0.636c1.14,0.417,2.105,1.052,2.851,1.864
			c0.744,0.812,1.315,1.82,1.666,3.026C305.067,86.065,305.243,87.447,305.243,89.004z M300.179,89.2
			c0-0.855-0.067-1.644-0.198-2.368c-0.133-0.724-0.373-1.359-0.701-1.885c-0.33-0.527-0.769-0.943-1.295-1.25
			c-0.546-0.307-1.228-0.461-2.039-0.461c-0.722,0-1.358,0.132-1.907,0.395c-0.549,0.263-0.987,0.658-1.338,1.162
			c-0.351,0.526-0.614,1.14-0.789,1.864s-0.263,1.557-0.263,2.478c0,0.855,0.065,1.645,0.22,2.368
			c0.153,0.724,0.371,1.36,0.702,1.886c0.328,0.526,0.744,0.942,1.293,1.25c0.549,0.285,1.228,0.439,2.039,0.439
			c0.746,0,1.381-0.132,1.929-0.395c0.549-0.263,0.987-0.659,1.338-1.162c0.351-0.505,0.614-1.119,0.789-1.843
			C300.112,90.933,300.179,90.122,300.179,89.2z"/>
		
			<linearGradient id="SVGID_37_" gradientUnits="userSpaceOnUse" x1="-282.0177" y1="442.903" x2="-282.0177" y2="482.6418" gradientTransform="matrix(2.1001 0 0 2.1001 906.2144 -878.0792)">
			<stop  offset="0" style="stop-color:#C60E7F"/>
			<stop  offset="1" style="stop-color:#A11D80"/>
		</linearGradient>
		<path fill="url(#SVGID_37_)" d="M316.383,97.884c0,0.131-0.045,0.242-0.11,0.351c-0.088,0.088-0.22,0.175-0.396,0.242
			c-0.198,0.065-0.438,0.109-0.744,0.153c-0.308,0.022-0.702,0.044-1.185,0.044c-0.481,0-0.877-0.021-1.185-0.044
			c-0.306-0.021-0.569-0.088-0.744-0.153c-0.198-0.066-0.328-0.154-0.396-0.242c-0.088-0.088-0.108-0.219-0.108-0.351V72.185
			c0-0.132,0.043-0.242,0.108-0.351c0.088-0.11,0.22-0.198,0.396-0.263c0.198-0.066,0.439-0.132,0.744-0.175
			c0.308-0.044,0.704-0.066,1.185-0.066c0.483,0,0.877,0.022,1.185,0.066c0.306,0.044,0.569,0.088,0.744,0.175
			c0.198,0.065,0.33,0.153,0.396,0.263c0.088,0.109,0.11,0.219,0.11,0.351V97.884z"/>
	</g>
</g>
<radialGradient id="SVGID_38_" cx="-1422.8944" cy="1947.3816" r="26.2373" gradientTransform="matrix(3.0957 0 0 0.3446 4485.9897 -494.2207)" gradientUnits="userSpaceOnUse">
	<stop  offset="0" style="stop-color:#DADADA"/>
	<stop  offset="0.9902" style="stop-color:#FFFFFF"/>
	<stop  offset="1" style="stop-color:#FFFFFF"/>
</radialGradient>
<path fill="url(#SVGID_38_)" d="M162.271,176.847c0,4.977-36.331,9.03-81.125,9.03c-44.815,0-81.146-4.053-81.146-9.03
	c0-4.998,36.331-9.03,81.146-9.03C125.96,167.816,162.271,171.869,162.271,176.847z"/>
</svg>
