<?xml version="1.0" encoding="utf-8"?>
<!-- Generator: Adobe Illustrator 25.0.1, SVG Export Plug-In . SVG Version: 6.00 Build 0)  -->
<svg version="1.1" id="Calque_2_1_" xmlns="http://www.w3.org/2000/svg" xmlns:xlink="http://www.w3.org/1999/xlink" x="0px"
	 y="0px" viewBox="0 0 463.393 153.531" enable-background="new 0 0 463.393 153.531" xml:space="preserve">
<g>
	<path fill="#4C5C65" d="M191.915,58.19c0.268,0.122,0.632,0.194,1.116,0.267c0.485,0.073,1.09,0.097,1.818,0.097
		c0.75,0,1.356-0.024,1.841-0.097c0.484-0.073,0.848-0.146,1.139-0.267c0.266-0.097,0.459-0.242,0.581-0.412
		c0.121-0.169,0.169-0.339,0.169-0.557v-21.13c0-1.575-0.024-3.126-0.072-4.604c-0.049-1.478-0.122-2.981-0.194-4.483h0.072
		c0.485,1.236,1.018,2.496,1.624,3.804c0.581,1.309,1.188,2.52,1.769,3.635l10.056,18.901c0.509,1.041,0.994,1.889,1.405,2.544
		c0.413,0.654,0.849,1.162,1.285,1.55c0.461,0.388,0.945,0.655,1.478,0.8c0.533,0.145,1.163,0.218,1.89,0.218h3.49
		c0.388,0,0.775-0.049,1.163-0.17c0.388-0.122,0.703-0.316,0.994-0.558c0.29-0.267,0.508-0.582,0.678-0.945
		c0.17-0.388,0.242-0.799,0.242-1.284h0.096V19.176c0-0.194-0.048-0.387-0.145-0.557c-0.122-0.169-0.291-0.315-0.558-0.436
		c-0.265-0.122-0.63-0.219-1.114-0.267c-0.46-0.049-1.066-0.073-1.769-0.073c-0.75,0-1.356,0.025-1.841,0.073
		c-0.485,0.048-0.872,0.145-1.163,0.267c-0.291,0.121-0.509,0.266-0.63,0.436c-0.122,0.169-0.194,0.339-0.194,0.557v18.925
		c0,1.43,0.023,2.957,0.048,4.532c0.023,1.575,0.072,3.101,0.145,4.555h-0.025c-0.388-0.824-0.775-1.672-1.163-2.496
		c-0.387-0.824-0.8-1.672-1.211-2.544c-0.436-0.873-0.848-1.721-1.308-2.593c-0.437-0.872-0.897-1.745-1.358-2.641l-7.875-14.757
		c-0.411-0.8-0.799-1.478-1.163-2.036c-0.387-0.533-0.775-0.969-1.211-1.284c-0.437-0.315-0.921-0.533-1.454-0.678
		c-0.534-0.121-1.188-0.194-1.988-0.194h-4.41c-0.823,0-1.525,0.242-2.108,0.727c-0.556,0.484-0.847,1.235-0.847,2.205v36.324
		c0,0.194,0.048,0.387,0.145,0.557C191.455,57.923,191.649,58.068,191.915,58.19z"/>
	<path fill="#4C5C65" d="M239.387,58.407h20.305c0.17,0,0.364-0.049,0.509-0.17c0.146-0.122,0.291-0.316,0.388-0.558
		c0.121-0.266,0.194-0.581,0.242-0.993c0.048-0.412,0.073-0.921,0.073-1.527c0-0.605-0.025-1.114-0.097-1.478
		c-0.073-0.412-0.145-0.751-0.242-0.994c-0.097-0.266-0.244-0.435-0.389-0.557c-0.145-0.122-0.314-0.17-0.508-0.17h-14.539V40.571
		h12.212c0.17,0,0.364-0.048,0.509-0.145c0.146-0.097,0.291-0.267,0.388-0.509c0.121-0.242,0.194-0.557,0.242-0.945
		c0.048-0.387,0.073-0.896,0.073-1.502c0-0.581-0.025-1.066-0.073-1.478c-0.072-0.412-0.145-0.727-0.242-0.969
		c-0.097-0.242-0.243-0.412-0.388-0.533c-0.145-0.121-0.315-0.169-0.509-0.169h-12.212v-9.862h14.418
		c0.194,0,0.363-0.049,0.509-0.17c0.146-0.121,0.266-0.315,0.363-0.557c0.121-0.267,0.193-0.582,0.243-0.994
		c0.048-0.412,0.072-0.897,0.072-1.478c0-0.63-0.024-1.139-0.072-1.551c-0.049-0.412-0.146-0.726-0.243-0.993
		c-0.097-0.266-0.218-0.46-0.363-0.557c-0.145-0.097-0.315-0.146-0.509-0.146h-20.16c-0.703,0-1.284,0.194-1.745,0.606
		c-0.46,0.411-0.702,1.065-0.702,1.986v35.209c0,0.921,0.242,1.575,0.702,1.987C238.127,58.213,238.709,58.407,239.387,58.407z"/>
	<path fill="#4C5C65" d="M303.115,57.485c0.169,0.29,0.485,0.533,0.896,0.678c0.413,0.171,0.969,0.268,1.696,0.316
		c0.728,0.049,1.672,0.073,2.86,0.073c1.065,0,1.938-0.025,2.616-0.073c0.703-0.049,1.261-0.171,1.697-0.316
		c0.436-0.145,0.776-0.387,0.993-0.678c0.218-0.315,0.388-0.702,0.509-1.211l9.232-35.16c0.194-0.752,0.315-1.382,0.34-1.818
		c0.047-0.46-0.073-0.799-0.292-1.017c-0.242-0.218-0.605-0.364-1.114-0.412c-0.508-0.049-1.211-0.073-2.132-0.073
		c-0.969,0-1.745,0.025-2.278,0.073c-0.557,0.074-0.969,0.146-1.26,0.291c-0.29,0.122-0.484,0.316-0.581,0.558
		c-0.097,0.218-0.17,0.509-0.242,0.848l-7.1,30.847h-0.072l-7.609-30.726c-0.072-0.411-0.194-0.751-0.339-0.993
		c-0.145-0.242-0.388-0.437-0.702-0.582c-0.341-0.145-0.801-0.218-1.382-0.266c-0.606-0.049-1.405-0.073-2.399-0.073
		c-0.946,0-1.697,0.025-2.254,0.073c-0.558,0.072-1.018,0.146-1.333,0.291c-0.314,0.145-0.533,0.339-0.678,0.581
		c-0.145,0.242-0.267,0.581-0.339,0.969l-7.366,30.726h-0.025l-7.075-30.944c-0.048-0.388-0.145-0.703-0.242-0.921
		c-0.096-0.218-0.29-0.388-0.581-0.509c-0.291-0.122-0.703-0.195-1.285-0.219c-0.582-0.024-1.357-0.048-2.327-0.048
		c-1.041,0-1.89,0.025-2.471,0.073c-0.607,0.049-1.018,0.194-1.285,0.412c-0.266,0.242-0.388,0.557-0.363,0.993
		c0.023,0.436,0.12,1.017,0.314,1.769l9.184,35.257c0.122,0.508,0.267,0.92,0.461,1.211c0.17,0.29,0.484,0.533,0.897,0.678
		c0.411,0.171,0.969,0.268,1.696,0.316c0.703,0.049,1.672,0.073,2.883,0.073c1.139,0,2.06-0.025,2.763-0.073
		c0.678-0.072,1.235-0.169,1.647-0.339c0.412-0.17,0.702-0.412,0.896-0.703c0.194-0.291,0.34-0.678,0.437-1.163l6.13-25.613h0.073
		l6.469,25.613C302.775,56.782,302.92,57.194,303.115,57.485z"/>
	<path fill="#4C5C65" d="M197.428,126.558c-0.444,0.318-1.028,0.477-1.749,0.477c-0.773,0-1.395-0.169-1.865-0.507
		c-0.47-0.337-0.727-0.809-0.766-1.415h-1.039c0,0.808,0.34,1.477,1.018,2.005c0.678,0.527,1.561,0.792,2.652,0.792
		c1.028,0,1.86-0.237,2.498-0.71c0.638-0.473,0.957-1.105,0.957-1.896c0-0.484-0.11-0.897-0.329-1.237
		c-0.219-0.341-0.555-0.632-1.008-0.874c-0.454-0.243-1.135-0.471-2.043-0.684c-0.91-0.215-1.536-0.45-1.88-0.707
		c-0.343-0.256-0.514-0.618-0.514-1.086c0-0.485,0.205-0.878,0.619-1.181c0.413-0.303,0.959-0.455,1.64-0.455
		c0.698,0,1.277,0.182,1.736,0.545c0.458,0.364,0.688,0.82,0.688,1.368h1.039c0-0.83-0.316-1.504-0.949-2.021
		c-0.631-0.516-1.469-0.774-2.515-0.774c-0.964,0-1.753,0.241-2.371,0.722c-0.617,0.482-0.926,1.092-0.926,1.831
		c0,0.467,0.11,0.865,0.333,1.194c0.221,0.329,0.561,0.607,1.021,0.836c0.459,0.228,1.104,0.429,1.935,0.605
		c0.831,0.177,1.453,0.42,1.865,0.732c0.413,0.311,0.62,0.723,0.62,1.237C198.095,125.839,197.872,126.241,197.428,126.558z"/>
	<path fill="#4C5C65" d="M202.485,126.558c0.681,0.9,1.662,1.351,2.943,1.351c1.085,0,1.95-0.43,2.597-1.286
		c0.647-0.857,0.969-2.016,0.969-3.476h0.001v-0.145c0-1.507-0.318-2.684-0.956-3.533c-0.638-0.848-1.517-1.272-2.637-1.272
		c-1.281,0-2.259,0.499-2.934,1.497l-0.052-1.325h-0.961v12.968h1.03V126.558z M202.484,120.888
		c0.243-0.583,0.592-1.028,1.047-1.333c0.456-0.307,1.002-0.459,1.636-0.459c0.878,0,1.562,0.346,2.053,1.039
		c0.49,0.692,0.735,1.637,0.735,2.831c0,1.322-0.243,2.33-0.73,3.026c-0.489,0.695-1.168,1.043-2.04,1.043
		c-0.629,0-1.174-0.142-1.636-0.425c-0.462-0.282-0.817-0.692-1.065-1.229V120.888z"/>
	<polygon fill="#4C5C65" points="217.131,114.438 215.876,114.438 214.223,116.858 215.132,116.863 	"/>
	<path fill="#4C5C65" d="M218.232,126.256l-0.649-0.494c-0.347,0.445-0.732,0.768-1.156,0.97c-0.424,0.202-0.913,0.303-1.467,0.303
		c-0.924,0-1.69-0.353-2.299-1.06c-0.609-0.708-0.913-1.593-0.913-2.654v-0.2h6.682v-0.58c0-1.344-0.332-2.405-0.998-3.181
		c-0.667-0.776-1.569-1.164-2.707-1.164c-0.727,0-1.402,0.207-2.025,0.619s-1.11,0.979-1.459,1.701s-0.523,1.532-0.523,2.432v0.373
		c0,0.871,0.178,1.657,0.536,2.358c0.358,0.702,0.859,1.249,1.501,1.641c0.644,0.393,1.364,0.589,2.161,0.589
		C216.364,127.909,217.47,127.358,218.232,126.256z M212.755,119.936c0.534-0.572,1.191-0.858,1.97-0.858
		c0.785,0,1.42,0.283,1.903,0.849c0.486,0.565,0.743,1.299,0.771,2.199v0.112h-5.618
		C211.897,121.275,212.222,120.507,212.755,119.936z"/>
	<path fill="#4C5C65" d="M226.976,126.407c0.328-0.471,0.507-0.992,0.536-1.563h-0.996c-0.04,0.647-0.304,1.173-0.792,1.58
		c-0.488,0.407-1.092,0.611-1.813,0.611c-0.942,0-1.67-0.335-2.186-1.004c-0.516-0.671-0.775-1.603-0.775-2.797v-0.303
		c0-1.218,0.259-2.165,0.775-2.84c0.516-0.675,1.242-1.013,2.177-1.013c0.732,0,1.341,0.225,1.822,0.676
		c0.481,0.45,0.746,1.042,0.792,1.774h0.996c-0.047-0.999-0.403-1.803-1.069-2.415c-0.667-0.612-1.513-0.917-2.541-0.917
		c-0.808,0-1.514,0.193-2.116,0.579c-0.604,0.388-1.067,0.935-1.39,1.645c-0.323,0.71-0.485,1.527-0.485,2.45v0.312
		c0,1.442,0.359,2.592,1.077,3.446c0.719,0.854,1.693,1.281,2.923,1.281c0.622,0,1.208-0.133,1.753-0.399
		C226.21,127.245,226.647,126.877,226.976,126.407z"/>
	<rect x="229.702" y="118.369" fill="#4C5C65" width="1.039" height="9.367"/>
	<path fill="#4C5C65" d="M230.229,116.351c0.22,0,0.394-0.065,0.524-0.197c0.13-0.131,0.195-0.295,0.195-0.491
		c0-0.195-0.065-0.36-0.195-0.495c-0.13-0.134-0.304-0.202-0.524-0.202c-0.218,0-0.392,0.068-0.519,0.202
		c-0.127,0.136-0.19,0.3-0.19,0.495c0,0.196,0.063,0.359,0.19,0.491S230.01,116.351,230.229,116.351z"/>
	<path fill="#4C5C65" d="M240.575,127.735v-0.104c-0.19-0.451-0.285-1.128-0.285-2.035v-4.432c-0.018-0.935-0.328-1.663-0.931-2.186
		c-0.604-0.523-1.426-0.783-2.472-0.783c-1.009,0-1.861,0.273-2.553,0.818c-0.692,0.546-1.039,1.19-1.039,1.935l1.039,0.008
		c0-0.52,0.237-0.963,0.71-1.333c0.474-0.368,1.071-0.553,1.792-0.553c0.791,0,1.392,0.192,1.805,0.575
		c0.413,0.384,0.62,0.912,0.62,1.581v1.065h-1.88c-1.357,0-2.414,0.264-3.173,0.795c-0.758,0.532-1.138,1.253-1.138,2.165
		c0,0.767,0.279,1.403,0.836,1.904c0.557,0.503,1.285,0.754,2.186,0.754c0.629,0,1.224-0.128,1.787-0.385
		c0.563-0.257,1.025-0.622,1.389-1.095c0.028,0.577,0.095,1.013,0.199,1.307L240.575,127.735z M239.26,125.148
		c-0.249,0.56-0.646,1.007-1.191,1.342c-0.545,0.334-1.164,0.501-1.857,0.501c-0.623,0-1.13-0.173-1.519-0.519
		c-0.39-0.346-0.585-0.782-0.585-1.307c0-0.64,0.291-1.144,0.874-1.51c0.584-0.367,1.391-0.556,2.425-0.568h1.853V125.148z"/>
	<rect x="243.172" y="114.439" fill="#4C5C65" width="1.039" height="13.297"/>
	<path fill="#4C5C65" d="M247.674,114.966c-0.219,0-0.393,0.068-0.519,0.202c-0.128,0.136-0.191,0.3-0.191,0.495
		c0,0.196,0.063,0.359,0.191,0.491c0.126,0.132,0.299,0.197,0.519,0.197c0.219,0,0.393-0.065,0.524-0.197
		c0.13-0.131,0.194-0.295,0.194-0.491c0-0.195-0.064-0.36-0.194-0.495C248.067,115.034,247.893,114.966,247.674,114.966z"/>
	<rect x="247.145" y="118.369" fill="#4C5C65" width="1.039" height="9.367"/>
	<path fill="#4C5C65" d="M256.308,123.193c-0.453-0.243-1.135-0.471-2.043-0.684c-0.909-0.215-1.535-0.45-1.878-0.707
		c-0.344-0.256-0.516-0.618-0.516-1.086c0-0.485,0.208-0.878,0.62-1.181c0.413-0.303,0.959-0.455,1.641-0.455
		c0.697,0,1.276,0.182,1.735,0.545c0.458,0.364,0.688,0.82,0.688,1.368h1.039c0-0.83-0.317-1.504-0.949-2.021
		c-0.631-0.516-1.469-0.774-2.514-0.774c-0.965,0-1.755,0.241-2.372,0.722c-0.618,0.482-0.926,1.092-0.926,1.831
		c0,0.467,0.11,0.865,0.332,1.194c0.222,0.329,0.563,0.607,1.022,0.836c0.459,0.228,1.103,0.429,1.935,0.605
		c0.832,0.177,1.452,0.42,1.866,0.732c0.413,0.311,0.619,0.723,0.619,1.237c0,0.484-0.222,0.886-0.668,1.203
		c-0.444,0.318-1.027,0.477-1.749,0.477c-0.773,0-1.395-0.169-1.865-0.507c-0.471-0.337-0.725-0.809-0.766-1.415h-1.039
		c0,0.808,0.34,1.477,1.018,2.005c0.677,0.527,1.561,0.792,2.652,0.792c1.028,0,1.86-0.237,2.498-0.71
		c0.638-0.473,0.957-1.105,0.957-1.896c0-0.484-0.11-0.897-0.329-1.237C257.097,123.726,256.761,123.435,256.308,123.193z"/>
	<path fill="#4C5C65" d="M261.031,127.289c0.323,0.414,0.839,0.62,1.549,0.62c0.468,0,0.838-0.049,1.108-0.146l-0.043-0.841
		c-0.386,0.058-0.667,0.087-0.839,0.087c-0.44,0-0.752-0.127-0.94-0.382c-0.187-0.254-0.282-0.642-0.282-1.161v-6.249h1.939v-0.848
		h-1.939v-2.398h-1.037v2.398h-1.723v0.848h1.723v6.25C260.547,126.269,260.708,126.877,261.031,127.289z"/>
	<path fill="#4C5C65" d="M272.616,126.256l-0.649-0.494c-0.346,0.445-0.731,0.768-1.156,0.97c-0.424,0.202-0.913,0.303-1.467,0.303
		c-0.924,0-1.689-0.353-2.299-1.06c-0.609-0.708-0.913-1.593-0.913-2.654v-0.2h6.683v-0.58c0-1.344-0.334-2.405-1.001-3.181
		c-0.666-0.776-1.567-1.164-2.704-1.164c-0.728,0-1.403,0.207-2.026,0.619s-1.11,0.979-1.459,1.701s-0.524,1.532-0.524,2.432v0.373
		c0,0.871,0.179,1.657,0.537,2.358c0.357,0.702,0.859,1.249,1.502,1.641c0.643,0.393,1.363,0.589,2.16,0.589
		C270.747,127.909,271.853,127.358,272.616,126.256z M267.139,119.936c0.533-0.572,1.19-0.858,1.97-0.858
		c0.784,0,1.42,0.283,1.904,0.849c0.485,0.565,0.742,1.299,0.771,2.199v0.112h-5.62C266.28,121.275,266.605,120.507,267.139,119.936
		z"/>
	<path fill="#4C5C65" d="M279.771,126.558c-0.444,0.318-1.027,0.477-1.749,0.477c-0.773,0-1.395-0.169-1.865-0.507
		c-0.471-0.337-0.726-0.809-0.766-1.415h-1.039c0,0.808,0.339,1.477,1.017,2.005c0.678,0.527,1.562,0.792,2.653,0.792
		c1.028,0,1.86-0.237,2.498-0.71c0.638-0.473,0.957-1.105,0.957-1.896c0-0.484-0.11-0.897-0.329-1.237
		c-0.219-0.341-0.555-0.632-1.008-0.874c-0.453-0.243-1.135-0.471-2.043-0.684c-0.909-0.215-1.535-0.45-1.878-0.707
		c-0.344-0.256-0.516-0.618-0.516-1.086c0-0.485,0.208-0.878,0.62-1.181c0.413-0.303,0.959-0.455,1.641-0.455
		c0.697,0,1.276,0.182,1.735,0.545c0.459,0.364,0.689,0.82,0.689,1.368h1.039c0-0.83-0.317-1.504-0.949-2.021
		c-0.631-0.516-1.469-0.774-2.514-0.774c-0.965,0-1.754,0.241-2.372,0.722c-0.618,0.482-0.926,1.092-0.926,1.831
		c0,0.467,0.11,0.865,0.332,1.194c0.222,0.329,0.563,0.607,1.022,0.836c0.459,0.228,1.103,0.429,1.935,0.605
		c0.832,0.177,1.452,0.42,1.866,0.732c0.413,0.311,0.619,0.723,0.619,1.237C280.44,125.839,280.218,126.241,279.771,126.558z"/>
	<path fill="#4C5C65" d="M294.214,119.693c-0.663-0.998-1.627-1.497-2.891-1.497c-1.114,0-1.996,0.432-2.645,1.294
		c-0.649,0.863-0.974,2.021-0.974,3.476h0.001v0.12c0,1.478,0.33,2.651,0.99,3.519c0.662,0.869,1.532,1.304,2.611,1.304
		c1.286,0,2.261-0.473,2.926-1.42l0.043,1.246h0.969v-13.297h-1.03V119.693z M294.214,125.32c-0.537,1.125-1.443,1.688-2.718,1.688
		c-0.872,0-1.547-0.344-2.026-1.034c-0.479-0.689-0.719-1.633-0.719-2.827c0-1.333,0.242-2.341,0.728-3.027
		c0.485-0.684,1.163-1.025,2.034-1.025c1.264,0,2.165,0.609,2.701,1.827V125.32z"/>
	<path fill="#4C5C65" d="M304.914,126.256l-0.649-0.494c-0.346,0.445-0.731,0.768-1.156,0.97c-0.424,0.202-0.913,0.303-1.467,0.303
		c-0.924,0-1.689-0.353-2.299-1.06c-0.609-0.708-0.913-1.593-0.913-2.654v-0.2h6.683v-0.58c0-1.344-0.334-2.405-1.001-3.181
		c-0.666-0.776-1.567-1.164-2.704-1.164c-0.728,0-1.403,0.207-2.026,0.619c-0.623,0.412-1.11,0.979-1.459,1.701
		s-0.524,1.532-0.524,2.432v0.373c0,0.871,0.179,1.657,0.537,2.358c0.357,0.702,0.859,1.249,1.502,1.641
		c0.643,0.393,1.363,0.589,2.16,0.589C303.046,127.909,304.152,127.358,304.914,126.256z M299.438,119.936
		c0.533-0.572,1.19-0.858,1.97-0.858c0.784,0,1.42,0.283,1.903,0.849c0.485,0.565,0.742,1.299,0.771,2.199v0.112h-5.619
		C298.579,121.275,298.904,120.507,299.438,119.936z"/>
	<rect x="311.562" y="114.439" fill="#4C5C65" width="1.039" height="13.297"/>
	<path fill="#4C5C65" d="M315.406,115.573c-0.018,0.767-0.287,1.5-0.806,2.198l0.615,0.451c0.808-0.734,1.211-1.703,1.212-2.91
		v-0.874h-1.021V115.573z"/>
	<rect x="318.686" y="118.369" fill="#4C5C65" width="1.039" height="9.367"/>
	<path fill="#4C5C65" d="M319.215,116.351c0.219,0,0.393-0.065,0.524-0.197c0.13-0.131,0.194-0.295,0.194-0.491
		c0-0.195-0.064-0.36-0.194-0.495c-0.131-0.134-0.305-0.202-0.524-0.202c-0.22,0-0.394,0.068-0.52,0.202
		c-0.127,0.136-0.19,0.3-0.19,0.495c0,0.196,0.063,0.359,0.19,0.491S318.995,116.351,319.215,116.351z"/>
	<path fill="#4C5C65" d="M326.616,118.196c-0.635,0-1.215,0.151-1.74,0.454c-0.525,0.304-0.964,0.743-1.316,1.321l-0.035-1.602
		l-0.986-0.001v9.367h1.03v-6.415c0.236-0.681,0.601-1.222,1.095-1.623c0.493-0.401,1.06-0.602,1.7-0.602
		c0.768,0,1.327,0.205,1.676,0.614c0.349,0.411,0.526,1.034,0.532,1.871v6.155h1.031v-6.147c-0.007-1.131-0.255-1.978-0.745-2.544
		C328.367,118.479,327.62,118.196,326.616,118.196z"/>
	<path fill="#4C5C65" d="M337.61,129.826c-0.484,0.511-1.159,0.766-2.026,0.766c-1.009,0-1.88-0.45-2.614-1.35l-0.58,0.623
		c0.341,0.485,0.806,0.873,1.398,1.164c0.592,0.292,1.213,0.437,1.866,0.437c1.154,0,2.069-0.352,2.744-1.056
		c0.675-0.704,1.013-1.659,1.013-2.865v-9.177h-0.969l-0.052,1.351c-0.664-1.016-1.633-1.523-2.909-1.523
		c-1.114,0-1.996,0.429-2.645,1.286c-0.649,0.856-0.974,2.018-0.974,3.484l0.001,0.138c0,1.472,0.329,2.641,0.987,3.506
		c0.657,0.866,1.529,1.299,2.614,1.299c1.269,0,2.235-0.462,2.899-1.386v1.178C338.346,128.607,338.094,129.316,337.61,129.826z
		 M335.654,127.008c-0.872,0-1.547-0.344-2.026-1.034c-0.479-0.689-0.719-1.633-0.719-2.827c0-1.333,0.242-2.341,0.728-3.027
		c0.485-0.684,1.163-1.025,2.034-1.025c0.641,0,1.189,0.157,1.645,0.471c0.455,0.316,0.805,0.772,1.047,1.373v4.354
		C337.832,126.437,336.929,127.008,335.654,127.008z"/>
	<path fill="#4C5C65" d="M342.064,120.516c-0.349,0.722-0.524,1.532-0.524,2.432v0.373c0,0.871,0.18,1.657,0.538,2.358
		c0.357,0.702,0.859,1.249,1.502,1.641c0.643,0.393,1.363,0.589,2.16,0.589c1.448,0,2.554-0.551,3.315-1.653l-0.649-0.494
		c-0.346,0.445-0.731,0.768-1.156,0.97c-0.424,0.202-0.913,0.303-1.467,0.303c-0.924,0-1.689-0.353-2.299-1.06
		c-0.609-0.708-0.913-1.593-0.913-2.654v-0.2h6.683v-0.58c0-1.344-0.334-2.405-1.001-3.181c-0.666-0.776-1.567-1.164-2.704-1.164
		c-0.728,0-1.403,0.207-2.026,0.619C342.9,119.227,342.413,119.794,342.064,120.516z M343.58,119.936
		c0.533-0.572,1.19-0.858,1.97-0.858c0.784,0,1.419,0.283,1.903,0.849c0.485,0.565,0.742,1.299,0.771,2.199v0.112h-5.619
		C342.721,121.275,343.046,120.507,343.58,119.936z"/>
	<polygon fill="#4C5C65" points="347.955,114.438 346.7,114.438 345.047,116.858 345.956,116.863 	"/>
	<path fill="#4C5C65" d="M358.336,127.735v-6.147c-0.007-1.131-0.255-1.978-0.745-2.544c-0.491-0.565-1.238-0.848-2.242-0.848
		c-0.635,0-1.215,0.15-1.74,0.454c-0.525,0.304-0.964,0.743-1.316,1.321l-0.035-1.602l-0.986-0.001v9.367h1.03v-6.415
		c0.236-0.681,0.602-1.222,1.095-1.623c0.493-0.401,1.06-0.602,1.7-0.602c0.768,0,1.327,0.205,1.676,0.614
		c0.349,0.411,0.526,1.034,0.532,1.871v6.155H358.336z"/>
	<rect x="361.131" y="118.369" fill="#4C5C65" width="1.039" height="9.367"/>
	<path fill="#4C5C65" d="M361.659,116.351c0.219,0,0.393-0.065,0.524-0.197c0.13-0.131,0.194-0.295,0.194-0.491
		c0-0.195-0.064-0.36-0.194-0.495c-0.131-0.134-0.305-0.202-0.524-0.202c-0.219,0-0.393,0.068-0.519,0.202
		c-0.127,0.136-0.19,0.3-0.19,0.495c0,0.196,0.063,0.359,0.19,0.491C361.266,116.286,361.439,116.351,361.659,116.351z"/>
	<path fill="#4C5C65" d="M368.422,118.196c-0.728,0-1.403,0.207-2.026,0.619s-1.11,0.979-1.459,1.701s-0.524,1.532-0.524,2.432
		v0.373c0,0.871,0.179,1.657,0.537,2.358c0.357,0.702,0.859,1.249,1.502,1.641c0.643,0.393,1.363,0.589,2.16,0.589
		c1.448,0,2.553-0.551,3.316-1.653l-0.649-0.494c-0.346,0.445-0.731,0.768-1.156,0.97c-0.424,0.202-0.913,0.303-1.467,0.303
		c-0.924,0-1.689-0.353-2.299-1.06c-0.609-0.708-0.913-1.593-0.913-2.654v-0.2h6.683v-0.58c0-1.344-0.334-2.405-1.001-3.181
		C370.46,118.584,369.559,118.196,368.422,118.196z M371.096,122.238h-5.619c0.116-0.963,0.441-1.731,0.975-2.302
		c0.533-0.572,1.19-0.858,1.97-0.858c0.784,0,1.42,0.283,1.903,0.849c0.485,0.565,0.742,1.299,0.771,2.199V122.238z"/>
	<path fill="#4C5C65" d="M375.173,121.304c0.191-0.687,0.51-1.211,0.957-1.572c0.448-0.361,0.994-0.541,1.641-0.541
		c0.248,0,0.481,0.02,0.701,0.061l0.025-0.942c-0.168-0.076-0.396-0.113-0.684-0.113c-1.212,0-2.092,0.553-2.64,1.662l-0.018-1.49
		h-1.012v9.367h1.03V121.304z"/>
	<rect x="380.228" y="118.369" fill="#4C5C65" width="1.039" height="9.367"/>
	<path fill="#4C5C65" d="M380.756,114.966c-0.219,0-0.393,0.068-0.519,0.202c-0.127,0.136-0.19,0.3-0.19,0.495
		c0,0.196,0.063,0.359,0.19,0.491c0.126,0.132,0.299,0.197,0.519,0.197c0.219,0,0.393-0.065,0.524-0.197
		c0.13-0.131,0.194-0.295,0.194-0.491c0-0.195-0.064-0.36-0.194-0.495C381.149,115.034,380.975,114.966,380.756,114.966z"/>
	<path fill="#4C5C65" d="M387.519,118.196c-0.728,0-1.403,0.207-2.026,0.619c-0.623,0.412-1.11,0.979-1.459,1.701
		s-0.524,1.532-0.524,2.432v0.373c0,0.871,0.179,1.657,0.537,2.358c0.357,0.702,0.859,1.249,1.502,1.641
		c0.643,0.393,1.363,0.589,2.16,0.589c1.448,0,2.554-0.551,3.316-1.653l-0.649-0.494c-0.346,0.445-0.731,0.768-1.156,0.97
		c-0.424,0.202-0.913,0.303-1.467,0.303c-0.924,0-1.689-0.353-2.299-1.06c-0.609-0.708-0.913-1.593-0.913-2.654v-0.2h6.683v-0.58
		c0-1.344-0.334-2.405-1.001-3.181C389.557,118.584,388.656,118.196,387.519,118.196z M390.194,122.238h-5.62
		c0.116-0.963,0.441-1.731,0.975-2.302c0.533-0.572,1.19-0.858,1.97-0.858c0.784,0,1.42,0.283,1.904,0.849
		c0.485,0.565,0.742,1.299,0.771,2.199V122.238z"/>
	<path fill="#4C5C65" d="M394.236,127.191v-1.082h-1.013v1.341c-0.017,0.756-0.289,1.486-0.814,2.19l0.614,0.451
		C393.831,129.357,394.236,128.39,394.236,127.191z"/>
	<path fill="#4C5C65" d="M198.58,140.967c-0.663-0.998-1.627-1.497-2.891-1.497c-1.114,0-1.996,0.432-2.645,1.294
		c-0.649,0.863-0.975,2.021-0.975,3.476v0.12c0,1.478,0.332,2.651,0.992,3.519c0.662,0.869,1.532,1.304,2.61,1.304
		c1.287,0,2.262-0.473,2.927-1.42l0.043,1.246h0.969v-13.297h-1.03V140.967z M198.58,146.594c-0.536,1.125-1.442,1.688-2.718,1.688
		c-0.872,0-1.547-0.344-2.026-1.034s-0.719-1.633-0.719-2.827c0-1.333,0.244-2.341,0.728-3.027c0.485-0.684,1.163-1.025,2.034-1.025
		c1.264,0,2.165,0.609,2.701,1.827V146.594z"/>
	<path fill="#4C5C65" d="M208.346,146.42c-0.398,1.241-1.348,1.862-2.849,1.862c-1.442,0-2.163-0.892-2.163-2.675v-5.965h-1.03
		v6.095c0.011,1.137,0.277,1.996,0.795,2.576c0.52,0.579,1.279,0.87,2.277,0.87c1.368,0,2.363-0.453,2.987-1.36l0.018,1.185h1.004
		v-9.367h-1.039V146.42z"/>
	<path fill="#4C5C65" d="M222.482,140.967c-0.663-0.998-1.627-1.497-2.891-1.497c-1.114,0-1.996,0.432-2.645,1.294
		c-0.649,0.863-0.975,2.021-0.975,3.476v0.12c0,1.478,0.332,2.651,0.992,3.519c0.662,0.869,1.532,1.304,2.61,1.304
		c1.287,0,2.262-0.473,2.927-1.42l0.043,1.246h0.969v-13.297h-1.03V140.967z M222.482,146.594c-0.537,1.125-1.443,1.688-2.718,1.688
		c-0.872,0-1.547-0.344-2.026-1.034c-0.479-0.69-0.719-1.633-0.719-2.827c0-1.333,0.243-2.341,0.728-3.027
		c0.485-0.684,1.163-1.025,2.034-1.025c1.264,0,2.165,0.609,2.701,1.827V146.594z"/>
	<rect x="226.36" y="139.643" fill="#4C5C65" width="1.039" height="9.367"/>
	<path fill="#4C5C65" d="M226.888,136.24c-0.218,0-0.392,0.068-0.518,0.202c-0.128,0.136-0.192,0.3-0.192,0.495
		c0,0.196,0.064,0.36,0.192,0.491c0.126,0.132,0.299,0.197,0.518,0.197c0.221,0,0.394-0.065,0.525-0.197
		c0.13-0.131,0.194-0.295,0.194-0.491c0-0.195-0.064-0.36-0.194-0.495C227.282,136.308,227.109,136.24,226.888,136.24z"/>
	<path fill="#4C5C65" d="M236.947,142.438c-0.018-0.935-0.328-1.663-0.931-2.186c-0.604-0.523-1.426-0.783-2.472-0.783
		c-1.009,0-1.861,0.273-2.553,0.818c-0.692,0.546-1.039,1.19-1.039,1.935l1.039,0.008c0-0.52,0.237-0.963,0.71-1.333
		c0.474-0.368,1.071-0.553,1.792-0.553c0.791,0,1.392,0.192,1.805,0.575c0.413,0.384,0.62,0.912,0.62,1.581v1.065h-1.879
		c-1.357,0-2.414,0.264-3.173,0.795c-0.758,0.532-1.138,1.253-1.138,2.165c0,0.767,0.279,1.403,0.836,1.904
		c0.557,0.503,1.284,0.754,2.186,0.754c0.629,0,1.224-0.128,1.787-0.385s1.025-0.622,1.389-1.095
		c0.028,0.577,0.095,1.013,0.199,1.307l1.107-0.001v-0.104c-0.19-0.451-0.285-1.128-0.285-2.035V142.438z M235.918,146.422
		c-0.249,0.56-0.646,1.007-1.191,1.342c-0.545,0.334-1.164,0.501-1.857,0.501c-0.623,0-1.13-0.172-1.519-0.519
		c-0.39-0.346-0.585-0.782-0.585-1.307c0-0.64,0.292-1.144,0.874-1.51c0.584-0.367,1.391-0.556,2.425-0.568h1.853V146.422z"/>
	<path fill="#4C5C65" d="M245.821,140.993c-0.664-1.016-1.633-1.523-2.909-1.523c-1.114,0-1.996,0.429-2.645,1.286
		c-0.649,0.856-0.973,2.018-0.973,3.484v0.138c0,1.472,0.329,2.641,0.987,3.506c0.657,0.866,1.529,1.299,2.614,1.299
		c1.269,0,2.235-0.462,2.899-1.386v1.178c-0.017,0.906-0.268,1.615-0.753,2.125c-0.484,0.511-1.159,0.766-2.026,0.766
		c-1.009,0-1.882-0.45-2.614-1.35l-0.58,0.623c0.34,0.485,0.806,0.873,1.398,1.164c0.592,0.292,1.214,0.437,1.866,0.437
		c1.154,0,2.069-0.352,2.744-1.056c0.675-0.704,1.013-1.659,1.013-2.865v-9.177h-0.969L245.821,140.993z M245.795,146.567
		c-0.531,1.144-1.433,1.715-2.709,1.715c-0.872,0-1.547-0.344-2.026-1.034s-0.718-1.633-0.718-2.827
		c0-1.333,0.241-2.341,0.727-3.027c0.485-0.684,1.163-1.025,2.034-1.025c0.641,0,1.189,0.157,1.645,0.471
		c0.456,0.316,0.805,0.772,1.047,1.373V146.567z"/>
	<path fill="#4C5C65" d="M253.621,139.47c-0.635,0-1.215,0.151-1.74,0.454c-0.525,0.304-0.964,0.743-1.316,1.321l-0.035-1.602
		l-0.986-0.001v9.367h1.03v-6.415c0.236-0.681,0.601-1.222,1.095-1.623c0.493-0.401,1.06-0.602,1.7-0.602
		c0.768,0,1.327,0.205,1.676,0.614c0.349,0.411,0.526,1.034,0.532,1.871v6.155h1.031v-6.147c-0.007-1.131-0.255-1.978-0.745-2.544
		C255.372,139.753,254.625,139.47,253.621,139.47z"/>
	<path fill="#4C5C65" d="M262.885,139.47c-0.809,0-1.531,0.201-2.169,0.602s-1.132,0.962-1.481,1.683s-0.524,1.533-0.524,2.433
		l0.001,0.206c0,1.443,0.389,2.602,1.165,3.476c0.777,0.875,1.785,1.312,3.026,1.312c0.813,0,1.538-0.196,2.172-0.589
		c0.635-0.392,1.127-0.951,1.476-1.674c0.349-0.724,0.524-1.54,0.524-2.446v-0.216c0-1.442-0.387-2.601-1.161-3.475
		C265.141,139.907,264.131,139.47,262.885,139.47z M266.045,144.386c0,1.177-0.291,2.126-0.87,2.844
		c-0.581,0.719-1.338,1.078-2.273,1.078c-0.941,0-1.702-0.359-2.282-1.078c-0.579-0.717-0.87-1.637-0.87-2.757h0.001v-0.191
		c0-1.171,0.291-2.119,0.874-2.844c0.583-0.723,1.336-1.086,2.26-1.086c0.617,0,1.165,0.163,1.644,0.489
		c0.479,0.327,0.852,0.787,1.117,1.382c0.266,0.594,0.399,1.25,0.399,1.965V144.386z"/>
	<path fill="#4C5C65" d="M274.522,144.467c-0.453-0.243-1.135-0.471-2.043-0.684c-0.909-0.215-1.535-0.45-1.878-0.707
		c-0.344-0.256-0.516-0.618-0.516-1.086c0-0.485,0.207-0.878,0.62-1.181c0.413-0.303,0.959-0.455,1.641-0.455
		c0.697,0,1.276,0.182,1.735,0.545c0.459,0.364,0.689,0.82,0.689,1.368h1.039c0-0.83-0.317-1.504-0.949-2.021
		c-0.631-0.516-1.47-0.774-2.514-0.774c-0.965,0-1.754,0.241-2.372,0.722c-0.618,0.482-0.926,1.092-0.926,1.831
		c0,0.467,0.11,0.865,0.332,1.194c0.222,0.329,0.563,0.607,1.022,0.836c0.459,0.228,1.103,0.429,1.935,0.605
		c0.832,0.177,1.452,0.42,1.866,0.732c0.413,0.311,0.619,0.723,0.619,1.237c0,0.484-0.222,0.887-0.668,1.203
		c-0.444,0.318-1.027,0.477-1.749,0.477c-0.773,0-1.395-0.169-1.865-0.507c-0.471-0.337-0.725-0.809-0.766-1.415h-1.039
		c0,0.808,0.339,1.477,1.017,2.005c0.677,0.527,1.561,0.792,2.652,0.792c1.027,0,1.86-0.237,2.498-0.71
		c0.638-0.473,0.957-1.105,0.957-1.896c0-0.484-0.11-0.897-0.329-1.237C275.311,145,274.975,144.709,274.522,144.467z"/>
	<path fill="#4C5C65" d="M281.021,148.283c-0.44,0-0.752-0.127-0.94-0.382c-0.187-0.254-0.282-0.642-0.282-1.161v-6.249h1.939
		v-0.848h-1.939v-2.398h-1.037v2.398h-1.723v0.848h1.723v6.25c0,0.802,0.162,1.41,0.485,1.822c0.323,0.414,0.839,0.62,1.549,0.62
		c0.468,0,0.838-0.049,1.108-0.146l-0.043-0.841C281.474,148.254,281.194,148.283,281.021,148.283z"/>
	<rect x="284.007" y="139.643" fill="#4C5C65" width="1.039" height="9.367"/>
	<path fill="#4C5C65" d="M284.534,136.24c-0.219,0-0.393,0.068-0.519,0.202c-0.127,0.136-0.19,0.3-0.19,0.495
		c0,0.196,0.063,0.36,0.19,0.491c0.126,0.132,0.299,0.197,0.519,0.197c0.219,0,0.393-0.065,0.524-0.197
		c0.13-0.131,0.194-0.295,0.194-0.491c0-0.195-0.064-0.36-0.194-0.495C284.927,136.308,284.753,136.24,284.534,136.24z"/>
	<path fill="#4C5C65" d="M293.135,147.698c-0.488,0.407-1.092,0.611-1.813,0.611c-0.941,0-1.67-0.335-2.187-1.004
		c-0.517-0.671-0.775-1.603-0.775-2.797v-0.303c0-1.218,0.258-2.165,0.775-2.84c0.516-0.675,1.242-1.013,2.177-1.013
		c0.732,0,1.34,0.225,1.822,0.676c0.482,0.45,0.746,1.042,0.792,1.774h0.996c-0.046-0.999-0.403-1.803-1.069-2.415
		c-0.667-0.612-1.513-0.917-2.541-0.917c-0.808,0-1.513,0.193-2.117,0.579c-0.603,0.388-1.066,0.935-1.389,1.645
		c-0.322,0.71-0.484,1.527-0.484,2.45v0.312c0,1.442,0.359,2.592,1.078,3.446c0.718,0.854,1.693,1.281,2.922,1.281
		c0.623,0,1.207-0.133,1.752-0.399c0.546-0.265,0.983-0.633,1.312-1.103c0.329-0.471,0.508-0.992,0.537-1.563h-0.996
		C293.886,146.765,293.623,147.291,293.135,147.698z"/>
	<polygon fill="#4C5C65" points="302.707,135.713 304.663,138.138 305.607,138.133 303.953,135.713 	"/>
	<path fill="#4C5C65" d="M308.039,142.438c-0.018-0.935-0.328-1.663-0.931-2.186c-0.604-0.523-1.427-0.783-2.472-0.783
		c-1.009,0-1.86,0.273-2.553,0.818c-0.693,0.546-1.039,1.19-1.039,1.935l1.039,0.008c0-0.52,0.237-0.963,0.71-1.333
		c0.474-0.368,1.071-0.553,1.792-0.553c0.791,0,1.393,0.192,1.805,0.575c0.413,0.384,0.619,0.912,0.619,1.581v1.065h-1.878
		c-1.356,0-2.414,0.264-3.172,0.795c-0.759,0.532-1.139,1.253-1.139,2.165c0,0.767,0.278,1.403,0.836,1.904
		c0.557,0.503,1.286,0.754,2.186,0.754c0.629,0,1.225-0.128,1.787-0.385s1.025-0.622,1.389-1.095
		c0.029,0.577,0.095,1.013,0.199,1.307l1.107-0.001v-0.104c-0.19-0.451-0.285-1.128-0.285-2.035V142.438z M307.008,146.422
		c-0.248,0.56-0.645,1.007-1.19,1.342c-0.545,0.334-1.164,0.501-1.857,0.501c-0.623,0-1.129-0.172-1.519-0.519
		c-0.39-0.346-0.585-0.782-0.585-1.307c0-0.64,0.292-1.144,0.874-1.51c0.583-0.367,1.391-0.556,2.424-0.568h1.853V146.422z"/>
	<rect x="315.233" y="135.713" fill="#4C5C65" width="1.039" height="13.297"/>
	<path fill="#4C5C65" d="M325.82,142.438c-0.018-0.935-0.328-1.663-0.931-2.186c-0.604-0.523-1.427-0.783-2.472-0.783
		c-1.009,0-1.86,0.273-2.553,0.818c-0.693,0.546-1.039,1.19-1.039,1.935l1.039,0.008c0-0.52,0.237-0.963,0.71-1.333
		c0.474-0.368,1.071-0.553,1.792-0.553c0.791,0,1.393,0.192,1.805,0.575c0.413,0.384,0.619,0.912,0.619,1.581v1.065h-1.878
		c-1.356,0-2.414,0.264-3.172,0.795c-0.759,0.532-1.139,1.253-1.139,2.165c0,0.767,0.278,1.403,0.836,1.904
		c0.557,0.503,1.286,0.754,2.186,0.754c0.629,0,1.225-0.128,1.787-0.385s1.025-0.622,1.389-1.095
		c0.029,0.577,0.095,1.013,0.199,1.307l1.107-0.001v-0.104c-0.19-0.451-0.285-1.128-0.285-2.035V142.438z M324.789,146.422
		c-0.248,0.56-0.645,1.007-1.19,1.342c-0.545,0.334-1.164,0.501-1.857,0.501c-0.623,0-1.129-0.172-1.519-0.519
		c-0.39-0.346-0.585-0.782-0.585-1.307c0-0.64,0.291-1.144,0.874-1.51c0.583-0.367,1.391-0.556,2.424-0.568h1.853V146.422z"/>
	<path fill="#4C5C65" d="M333.922,141.133l-0.018-1.49h-1.012v9.367h1.03v-6.432c0.191-0.687,0.51-1.211,0.957-1.572
		c0.448-0.361,0.994-0.541,1.641-0.541c0.248,0,0.481,0.02,0.701,0.061l0.025-0.942c-0.168-0.076-0.396-0.113-0.684-0.113
		C335.35,139.471,334.47,140.024,333.922,141.133z"/>
	<polygon fill="#4C5C65" points="341.627,138.132 342.536,138.137 344.535,135.712 343.28,135.712 	"/>
	<path fill="#4C5C65" d="M342.13,139.47c-0.728,0-1.403,0.207-2.026,0.619c-0.623,0.412-1.11,0.979-1.459,1.701
		s-0.524,1.532-0.524,2.432v0.373c0,0.871,0.179,1.657,0.537,2.358c0.357,0.702,0.859,1.249,1.502,1.641
		c0.643,0.393,1.363,0.589,2.16,0.589c1.448,0,2.554-0.551,3.316-1.654l-0.649-0.493c-0.346,0.445-0.731,0.768-1.156,0.97
		c-0.424,0.202-0.913,0.303-1.467,0.303c-0.924,0-1.689-0.354-2.299-1.06c-0.609-0.708-0.913-1.593-0.913-2.654v-0.2h6.683v-0.58
		c0-1.344-0.334-2.405-1.001-3.181C344.168,139.858,343.267,139.47,342.13,139.47z M344.804,143.513h-5.619
		c0.116-0.963,0.441-1.731,0.975-2.302c0.533-0.572,1.19-0.858,1.97-0.858c0.784,0,1.42,0.282,1.903,0.849
		c0.485,0.565,0.742,1.299,0.771,2.199V143.513z"/>
	<path fill="#4C5C65" d="M354.587,142.438c-0.018-0.935-0.328-1.663-0.931-2.186c-0.604-0.523-1.427-0.783-2.472-0.783
		c-1.009,0-1.86,0.273-2.553,0.818c-0.693,0.546-1.039,1.19-1.039,1.935l1.039,0.008c0-0.52,0.237-0.963,0.71-1.333
		c0.474-0.368,1.071-0.553,1.792-0.553c0.791,0,1.392,0.192,1.805,0.575c0.413,0.384,0.619,0.912,0.619,1.581v1.065h-1.878
		c-1.355,0-2.414,0.264-3.172,0.795c-0.759,0.532-1.139,1.253-1.139,2.165c0,0.767,0.278,1.403,0.836,1.904
		c0.557,0.503,1.286,0.754,2.186,0.754c0.629,0,1.225-0.128,1.787-0.385s1.025-0.622,1.389-1.095
		c0.029,0.577,0.095,1.013,0.199,1.307l1.107-0.001v-0.104c-0.19-0.451-0.285-1.128-0.285-2.035V142.438z M353.557,146.422
		c-0.248,0.56-0.645,1.007-1.19,1.342c-0.545,0.334-1.164,0.501-1.857,0.501c-0.623,0-1.129-0.172-1.519-0.519
		c-0.39-0.346-0.585-0.782-0.585-1.307c0-0.64,0.292-1.144,0.874-1.51c0.583-0.367,1.391-0.556,2.424-0.568h1.853V146.422z"/>
	<rect x="357.47" y="135.713" fill="#4C5C65" width="1.039" height="13.297"/>
	<rect x="361.443" y="139.643" fill="#4C5C65" width="1.039" height="9.367"/>
	<path fill="#4C5C65" d="M361.971,136.24c-0.219,0-0.393,0.068-0.519,0.202c-0.127,0.136-0.19,0.3-0.19,0.495
		c0,0.196,0.063,0.36,0.19,0.491c0.126,0.132,0.299,0.197,0.519,0.197c0.219,0,0.393-0.065,0.524-0.197
		c0.13-0.131,0.194-0.295,0.194-0.491c0-0.195-0.064-0.36-0.194-0.495C362.364,136.308,362.19,136.24,361.971,136.24z"/>
	<path fill="#4C5C65" d="M370.606,144.467c-0.453-0.243-1.135-0.471-2.043-0.684c-0.909-0.215-1.535-0.45-1.878-0.707
		c-0.344-0.256-0.516-0.618-0.516-1.086c0-0.485,0.207-0.878,0.62-1.181c0.413-0.303,0.959-0.455,1.641-0.455
		c0.697,0,1.276,0.182,1.735,0.545c0.458,0.364,0.688,0.82,0.688,1.368h1.039c0-0.83-0.317-1.504-0.949-2.021
		c-0.631-0.516-1.469-0.774-2.514-0.774c-0.965,0-1.755,0.241-2.372,0.722c-0.618,0.482-0.926,1.092-0.926,1.831
		c0,0.467,0.11,0.865,0.332,1.194c0.222,0.329,0.563,0.607,1.022,0.836c0.459,0.228,1.103,0.429,1.935,0.605
		c0.832,0.177,1.452,0.42,1.866,0.732c0.413,0.311,0.619,0.723,0.619,1.237c0,0.484-0.222,0.887-0.668,1.203
		c-0.444,0.318-1.027,0.477-1.749,0.477c-0.773,0-1.395-0.169-1.865-0.507c-0.471-0.337-0.725-0.809-0.766-1.415h-1.039
		c0,0.808,0.34,1.477,1.018,2.005c0.677,0.527,1.561,0.792,2.652,0.792c1.028,0,1.86-0.237,2.498-0.71
		c0.638-0.473,0.957-1.105,0.957-1.896c0-0.484-0.11-0.897-0.329-1.237C371.395,145,371.059,144.709,370.606,144.467z"/>
	<path fill="#4C5C65" d="M381.008,142.438c-0.018-0.935-0.328-1.663-0.931-2.186c-0.604-0.523-1.427-0.783-2.472-0.783
		c-1.009,0-1.86,0.273-2.553,0.818c-0.693,0.546-1.039,1.19-1.039,1.935l1.039,0.008c0-0.52,0.237-0.963,0.71-1.333
		c0.474-0.368,1.071-0.553,1.792-0.553c0.791,0,1.393,0.192,1.805,0.575c0.413,0.384,0.619,0.912,0.619,1.581v1.065H378.1
		c-1.356,0-2.414,0.264-3.172,0.795c-0.759,0.532-1.139,1.253-1.139,2.165c0,0.767,0.278,1.403,0.836,1.904
		c0.557,0.503,1.286,0.754,2.186,0.754c0.629,0,1.225-0.128,1.787-0.385s1.025-0.622,1.389-1.095
		c0.029,0.577,0.095,1.013,0.199,1.307l1.107-0.001v-0.104c-0.19-0.451-0.285-1.128-0.285-2.035V142.438z M379.977,146.422
		c-0.248,0.56-0.645,1.007-1.19,1.342c-0.545,0.334-1.164,0.501-1.857,0.501c-0.623,0-1.129-0.172-1.519-0.519
		c-0.39-0.346-0.585-0.782-0.585-1.307c0-0.64,0.291-1.144,0.874-1.51c0.583-0.367,1.391-0.556,2.424-0.568h1.853V146.422z"/>
	<path fill="#4C5C65" d="M386.601,148.283c-0.44,0-0.752-0.127-0.94-0.382c-0.187-0.254-0.282-0.642-0.282-1.161v-6.249h1.939
		v-0.848h-1.939v-2.398h-1.037v2.398h-1.723v0.848h1.723v6.25c0,0.802,0.161,1.41,0.484,1.822c0.323,0.414,0.839,0.62,1.549,0.62
		c0.468,0,0.838-0.049,1.108-0.146l-0.043-0.841C387.054,148.254,386.773,148.283,386.601,148.283z"/>
	<path fill="#4C5C65" d="M390.114,136.24c-0.219,0-0.393,0.068-0.519,0.202c-0.127,0.136-0.19,0.3-0.19,0.495
		c0,0.196,0.063,0.36,0.19,0.491c0.126,0.132,0.299,0.197,0.519,0.197c0.219,0,0.393-0.065,0.524-0.197
		c0.13-0.131,0.194-0.295,0.194-0.491c0-0.195-0.064-0.36-0.194-0.495C390.507,136.308,390.333,136.24,390.114,136.24z"/>
	<rect x="389.587" y="139.643" fill="#4C5C65" width="1.039" height="9.367"/>
	<path fill="#4C5C65" d="M397.042,139.47c-0.809,0-1.531,0.201-2.169,0.602s-1.132,0.962-1.481,1.683s-0.524,1.533-0.524,2.433
		l0.001,0.206c0,1.443,0.389,2.602,1.165,3.476c0.777,0.875,1.785,1.312,3.026,1.312c0.813,0,1.538-0.196,2.172-0.589
		c0.635-0.392,1.127-0.951,1.476-1.674c0.349-0.724,0.524-1.54,0.524-2.446v-0.216c0-1.442-0.387-2.601-1.161-3.475
		C399.298,139.907,398.288,139.47,397.042,139.47z M400.202,144.386c0,1.177-0.291,2.126-0.87,2.844
		c-0.581,0.719-1.338,1.078-2.273,1.078c-0.941,0-1.702-0.359-2.282-1.078c-0.579-0.717-0.87-1.637-0.87-2.757h0.001v-0.191
		c0-1.171,0.292-2.119,0.874-2.844c0.583-0.723,1.336-1.086,2.26-1.086c0.618,0,1.165,0.163,1.644,0.489
		c0.479,0.327,0.852,0.787,1.117,1.382c0.266,0.594,0.399,1.25,0.399,1.965V144.386z"/>
	<path fill="#4C5C65" d="M407.447,139.47c-0.635,0-1.215,0.151-1.74,0.454c-0.525,0.304-0.964,0.743-1.316,1.321l-0.035-1.602
		l-0.986-0.001v9.367h1.03v-6.415c0.236-0.681,0.602-1.222,1.095-1.623c0.493-0.401,1.06-0.602,1.7-0.602
		c0.768,0,1.327,0.205,1.676,0.614c0.349,0.411,0.526,1.034,0.532,1.871v6.155h1.031v-6.147c-0.007-1.131-0.255-1.978-0.745-2.544
		C409.198,139.753,408.451,139.47,407.447,139.47z"/>
	<path fill="#4C5C65" d="M89.732,2.529c-1.818-1.672-4.168-2.52-6.616-2.52c-2.447,0-4.798,0.872-6.616,2.52L62.47,15.492H44.953
		c-6.495,0-11.753,5.258-11.753,11.753v15.314L9.623,64.344c-1.744,1.599-2.763,3.853-2.763,6.179c0,1.212,0.267,2.423,0.825,3.562
		c1.599,3.295,4.992,5.137,8.554,5.161h8.529v59.513c0,3.15,1.478,6.009,3.66,7.924c2.18,1.939,5.136,3.077,8.311,3.077h39.836
		h0.024c0.34-0.024,2.521-0.048,5.065-1.551c1.26-0.752,2.568-1.938,3.513-3.635c0.945-1.672,1.478-3.804,1.478-6.227
		c0-0.122,0-9.718,0-15.388h-7.052c0,5.961,0,15.266,0,15.388c0,1.429-0.291,2.254-0.581,2.787c-0.436,0.75-1.017,1.114-1.647,1.357
		c-0.316,0.122-0.606,0.194-0.8,0.219c-0.073,0-0.122,0.024-0.17,0.024H36.714c-1.478,0-2.762-0.533-3.635-1.308
		c-0.872-0.775-1.283-1.697-1.283-2.666V72.194H16.214c-1.138,0-1.987-0.63-2.205-1.163c-0.097-0.194-0.121-0.339-0.121-0.509
		c0-0.315,0.097-0.63,0.508-1.018l25.856-23.892V27.221c0-2.593,2.108-4.701,4.701-4.701h20.282L81.276,7.69
		c0.388-0.363,1.091-0.679,1.841-0.655c0.727,0,1.455,0.291,1.842,0.655l66.878,61.814c0.388,0.363,0.485,0.703,0.509,1.018
		c0,0.169-0.025,0.315-0.122,0.509c-0.218,0.533-1.091,1.163-2.205,1.163h-15.58v66.564c0,0.969-0.412,1.891-1.285,2.666
		c-0.872,0.775-2.132,1.308-3.635,1.308H93.755c-1.939,0-3.513,1.575-3.513,3.513c0,1.939,1.574,3.513,3.513,3.513h35.741
		c3.174,0,6.106-1.138,8.311-3.077c2.18-1.938,3.659-4.773,3.659-7.924V79.246h8.53c3.562,0,6.954-1.866,8.554-5.161
		c0.533-1.116,0.824-2.351,0.824-3.562c0-2.326-1.018-4.58-2.763-6.179L89.732,2.529z"/>
	<path fill="#4C5C65" d="M89.416,56.177l-1.211-1.163c-0.339-0.339-1.26,0.024-2.035,0.8l-0.94,0.939l-0.271-0.261
		c-0.873-0.823-1.914-1.115-2.375-0.678l-0.363,0.363c0.072,0.073,0.169,0.121,0.242,0.194l5.597,5.404
		c0.097,0.097,0.17,0.194,0.267,0.265l0.363-0.363c0.461-0.436,0.122-1.478-0.727-2.302l-0.272-0.261l0.926-0.926
		C89.416,57.413,89.755,56.516,89.416,56.177z"/>
	<path fill="#4C5C65" d="M80.355,56.831l-1.769-1.696c-0.122-0.121-0.267-0.194-0.436-0.145c-0.17,0-0.315,0.073-0.436,0.194
		L65.5,67.324l0.897,0.848l11.777-11.704l1.309,1.26c-0.244,0.509-0.171,1.067,0.217,1.43l5.598,5.379
		c0.509,0.485,1.406,0.436,1.987-0.145c0.582-0.582,0.63-1.454,0.122-1.939l-5.598-5.404C81.421,56.686,80.863,56.613,80.355,56.831
		z"/>
	<path fill="#4C5C65" d="M58.741,85.473c0.121,0.145,0.34,0.145,0.485,0l0.581-0.581l0.145,0.121l7.511-2.229l-6.106-5.864
		L59.2,84.286l0.122,0.121l-0.581,0.581C58.596,85.134,58.596,85.351,58.741,85.473z"/>
	<path fill="#4C5C65" d="M68.093,82.129l16.866-16.744c-0.121-0.072-0.218-0.145-0.315-0.242l-5.598-5.379
		c-0.073-0.073-0.121-0.146-0.218-0.243L61.987,76.265L68.093,82.129z"/>
	<polygon fill="#4C5C65" points="73.813,82.758 73.569,83.003 73.813,82.758 	"/>
	<path fill="#4C5C65" d="M102.841,99.867V53.754l-9.208,9.184l2.883,2.883l-0.654,0.655l-2.883-2.884l-3.321,3.32l2.884,2.883
		l-0.654,0.654l-2.884-2.883l-3.32,3.32l2.883,2.883l-0.655,0.655l-2.883-2.883l-3.32,3.32l2.884,2.884L83.938,78.4l-2.883-2.885
		l-7.242,7.243l2.885,2.884l-0.656,0.655l-2.883-2.884l0.41-0.41l-3.755,3.755l2.883,2.883l-0.654,0.654l-2.883-2.883L56.704,99.867
		H102.841z M93.633,75.999v14.635H78.997L93.633,75.999z M77.762,78.81l2.883,2.883l-0.655,0.655l-2.883-2.883L77.762,78.81z
		 M68.748,93.591l-0.655,0.654l-2.883-2.883l0.655-0.654L68.748,93.591z"/>
	<path fill="#4C5C65" d="M203.522,71.321c-0.314-0.048-0.75-0.072-1.308-0.072c-0.388,0-0.727,0-0.994,0.024
		c-0.266,0.025-0.508,0.074-0.678,0.122c-0.169,0.049-0.314,0.121-0.436,0.218c-0.12,0.097-0.242,0.218-0.315,0.339l-2.521,4.145
		c-0.122,0.145-0.17,0.29-0.194,0.411c0,0.122,0.024,0.219,0.121,0.291c0.098,0.073,0.267,0.122,0.509,0.17
		c0.242,0.023,0.581,0.048,0.994,0.048c0.339,0,0.63,0,0.847-0.025c0.219-0.024,0.413-0.049,0.558-0.097
		c0.145-0.049,0.267-0.121,0.364-0.194c0.097-0.072,0.194-0.169,0.291-0.291l3.465-4.168c0.097-0.146,0.169-0.266,0.169-0.388
		c0-0.12-0.049-0.217-0.194-0.314C204.055,71.443,203.837,71.369,203.522,71.321z"/>
	<path fill="#4C5C65" d="M195.771,96.281c1.066,0.363,2.302,0.533,3.731,0.533c0.8,0,1.527-0.048,2.23-0.145
		c0.678-0.097,1.308-0.219,1.841-0.364c0.533-0.12,0.994-0.266,1.333-0.411c0.339-0.145,0.558-0.267,0.63-0.339
		c0.073-0.097,0.145-0.17,0.194-0.267c0.049-0.097,0.073-0.217,0.097-0.339c0.024-0.146,0.048-0.291,0.048-0.485
		c0.025-0.194,0.025-0.412,0.025-0.678c0-0.316,0-0.558-0.025-0.752c-0.024-0.194-0.049-0.363-0.097-0.46
		c-0.048-0.097-0.097-0.171-0.169-0.219c-0.073-0.048-0.145-0.072-0.267-0.072c-0.194,0-0.412,0.048-0.703,0.169
		c-0.291,0.122-0.654,0.243-1.09,0.388c-0.436,0.146-0.946,0.267-1.552,0.388c-0.605,0.122-1.283,0.17-2.083,0.17
		c-0.776,0-1.43-0.122-1.987-0.316c-0.558-0.218-0.994-0.508-1.358-0.896c-0.363-0.387-0.605-0.848-0.775-1.406
		c-0.169-0.557-0.242-1.186-0.242-1.866h9.741c0.436,0,0.775-0.121,1.017-0.388c0.242-0.266,0.364-0.653,0.364-1.211l0.001-0.704
		c0-1.138-0.145-2.181-0.436-3.126c-0.267-0.944-0.727-1.768-1.333-2.471c-0.63-0.703-1.406-1.259-2.351-1.647
		c-0.969-0.387-2.108-0.581-3.441-0.581c-1.259,0-2.399,0.218-3.416,0.63c-1.018,0.411-1.866,1.017-2.568,1.816
		c-0.727,0.8-1.26,1.769-1.624,2.908c-0.364,1.14-0.558,2.423-0.558,3.853c0,1.478,0.17,2.787,0.533,3.901
		c0.34,1.116,0.873,2.036,1.6,2.763S194.705,95.917,195.771,96.281z M195.817,84.431c0.146-0.485,0.363-0.921,0.654-1.285
		c0.291-0.363,0.63-0.653,1.067-0.872c0.436-0.217,0.921-0.314,1.502-0.314c1.14,0,1.987,0.363,2.52,1.09
		c0.533,0.728,0.8,1.72,0.752,2.98c0,0-0.001,0-0.001,0v-0.024h-6.761C195.575,85.448,195.672,84.916,195.817,84.431z"/>
	<path fill="#4C5C65" d="M226.592,80.747c-0.461-0.605-1.068-1.09-1.818-1.454c-0.727-0.363-1.648-0.533-2.738-0.533
		c-0.994,0-1.939,0.243-2.86,0.727c-0.896,0.485-1.818,1.212-2.69,2.157v-1.841c0-0.121-0.049-0.218-0.097-0.315
		c-0.049-0.072-0.146-0.169-0.291-0.217c-0.145-0.073-0.339-0.121-0.581-0.145c-0.242-0.024-0.557-0.048-0.945-0.048
		c-0.363,0-0.679,0.023-0.921,0.048c-0.242,0.048-0.459,0.097-0.605,0.145c-0.146,0.048-0.268,0.12-0.316,0.217
		c-0.073,0.096-0.097,0.193-0.097,0.315v15.992c0,0.12,0.024,0.217,0.097,0.314c0.073,0.074,0.194,0.171,0.364,0.219
		c0.169,0.049,0.387,0.097,0.678,0.121c0.291,0.024,0.654,0.048,1.09,0.048c0.436,0,0.8-0.023,1.091-0.048
		c0.267-0.024,0.509-0.073,0.678-0.121c0.17-0.049,0.291-0.122,0.364-0.219c0.049-0.096,0.097-0.193,0.097-0.314V85.157
		c0.63-0.798,1.235-1.405,1.818-1.817c0.581-0.411,1.163-0.63,1.744-0.63c0.461,0,0.849,0.097,1.188,0.267
		c0.34,0.169,0.605,0.411,0.824,0.727c0.218,0.315,0.363,0.703,0.485,1.139c0.121,0.436,0.169,1.042,0.169,1.818v9.11
		c0,0.121,0.025,0.218,0.097,0.315c0.073,0.073,0.194,0.17,0.364,0.218c0.145,0.049,0.387,0.097,0.678,0.122
		c0.291,0.023,0.655,0.048,1.091,0.048c0.436,0,0.799-0.024,1.091-0.048c0.29-0.025,0.508-0.074,0.678-0.122
		c0.169-0.049,0.291-0.121,0.363-0.218c0.049-0.096,0.097-0.193,0.097-0.315h0.121v-9.887c0-1.162-0.121-2.156-0.315-2.98
		C227.391,82.08,227.052,81.353,226.592,80.747z"/>
	<path fill="#4C5C65" d="M247.336,81.014c-0.63-0.703-1.406-1.259-2.351-1.647c-0.969-0.387-2.108-0.581-3.44-0.581
		c-1.26,0-2.399,0.218-3.417,0.63c-1.019,0.411-1.866,1.017-2.569,1.816c-0.727,0.8-1.26,1.769-1.624,2.908
		c-0.363,1.14-0.557,2.423-0.557,3.853c0,1.478,0.169,2.787,0.533,3.901c0.339,1.116,0.872,2.036,1.599,2.763s1.624,1.26,2.69,1.624
		c1.066,0.363,2.302,0.533,3.732,0.533c0.799,0,1.526-0.048,2.229-0.145c0.678-0.097,1.308-0.219,1.841-0.364
		c0.533-0.12,0.994-0.266,1.333-0.411c0.339-0.145,0.558-0.267,0.63-0.339c0.073-0.097,0.145-0.17,0.194-0.267
		c0.049-0.097,0.073-0.217,0.097-0.339c0.024-0.146,0.048-0.291,0.048-0.485c0.025-0.194,0.025-0.412,0.025-0.678
		c0-0.316,0-0.558-0.025-0.752c-0.024-0.194-0.049-0.363-0.097-0.46c-0.048-0.097-0.097-0.171-0.169-0.219
		c-0.073-0.048-0.145-0.072-0.267-0.072c-0.194,0-0.411,0.048-0.702,0.169c-0.291,0.122-0.655,0.243-1.091,0.388
		c-0.436,0.146-0.945,0.267-1.55,0.388c-0.607,0.122-1.285,0.17-2.085,0.17c-0.776,0-1.429-0.122-1.987-0.316
		c-0.558-0.218-0.994-0.508-1.357-0.896c-0.364-0.387-0.606-0.848-0.775-1.406c-0.17-0.557-0.242-1.186-0.242-1.866h9.74
		c0.436,0,0.775-0.121,1.017-0.388c0.242-0.266,0.364-0.653,0.364-1.211h0.002v-0.704c0-1.138-0.145-2.181-0.436-3.126
		C248.402,82.541,247.942,81.717,247.336,81.014z M244.74,86.03v-0.024h-6.76c0.024-0.558,0.121-1.09,0.266-1.575
		c0.146-0.485,0.364-0.921,0.655-1.285c0.291-0.363,0.63-0.653,1.066-0.872c0.436-0.217,0.921-0.314,1.502-0.314
		c1.14,0,1.987,0.363,2.52,1.09c0.535,0.728,0.8,1.72,0.752,2.98C244.741,86.03,244.74,86.03,244.74,86.03z"/>
	<path fill="#4C5C65" d="M259.379,96.063c0.049-0.096,0.097-0.193,0.097-0.314v-9.96c0.339-0.533,0.653-0.969,0.944-1.332
		c0.291-0.339,0.582-0.629,0.848-0.848c0.267-0.219,0.533-0.388,0.775-0.485c0.243-0.097,0.51-0.145,0.752-0.145
		c0.193,0,0.412,0.024,0.581,0.072c0.17,0.048,0.339,0.097,0.484,0.145c0.145,0.048,0.29,0.097,0.412,0.145
		c0.12,0.048,0.217,0.073,0.314,0.073c0.122,0,0.219-0.049,0.291-0.097c0.073-0.048,0.146-0.17,0.194-0.315
		c0.049-0.169,0.073-0.388,0.097-0.654c0.024-0.291,0.048-0.63,0.048-1.066c0-0.437-0.024-0.777,0.051-1.089
		c0-0.243-0.024-0.436-0.048-0.558c-0.025-0.121-0.048-0.218-0.073-0.291c-0.023-0.072-0.072-0.146-0.145-0.194
		c-0.073-0.049-0.17-0.121-0.315-0.169c-0.145-0.048-0.314-0.097-0.508-0.145c-0.194-0.049-0.388-0.073-0.558-0.097
		c-0.194-0.025-0.363-0.025-0.508-0.025c-0.316,0-0.655,0.048-0.994,0.145c-0.316,0.096-0.655,0.267-0.994,0.484
		c-0.339,0.219-0.702,0.533-1.066,0.921c-0.364,0.387-0.776,0.873-1.188,1.478v-1.987c0-0.121-0.049-0.218-0.097-0.315
		c-0.049-0.072-0.146-0.169-0.291-0.217c-0.145-0.073-0.339-0.121-0.581-0.145s-0.556-0.048-0.945-0.048
		c-0.363,0-0.679,0.023-0.921,0.048c-0.242,0.048-0.459,0.097-0.605,0.145c-0.146,0.048-0.268,0.12-0.316,0.217
		c-0.072,0.096-0.097,0.193-0.097,0.315v15.994c0,0.12,0.025,0.217,0.097,0.314c0.073,0.074,0.194,0.171,0.364,0.219
		c0.169,0.049,0.387,0.097,0.678,0.121c0.291,0.024,0.654,0.048,1.09,0.048c0.437,0,0.8-0.023,1.091-0.048
		c0.267-0.024,0.509-0.073,0.678-0.121C259.185,96.233,259.306,96.16,259.379,96.063z"/>
	<path fill="#4C5C65" d="M283.464,95.287c-0.266-0.582-0.63-1.043-1.115-1.454c-0.485-0.388-1.091-0.704-1.793-0.921
		c-0.703-0.219-1.502-0.364-2.424-0.388l-3.876-0.145c-0.558-0.025-0.971-0.145-1.285-0.364c-0.316-0.217-0.461-0.509-0.461-0.848
		c0-0.266,0.048-0.508,0.17-0.727c0.121-0.218,0.243-0.412,0.388-0.557c0.242,0.169,0.605,0.314,1.066,0.436
		c0.484,0.121,0.969,0.194,1.478,0.194c1.017,0,1.914-0.122,2.738-0.388c0.824-0.267,1.527-0.63,2.108-1.139
		c0.581-0.485,1.018-1.091,1.333-1.818c0.315-0.702,0.46-1.55,0.46-2.471c0-0.387-0.048-0.775-0.169-1.139
		c-0.097-0.364-0.291-0.678-0.558-0.969h1.89c0.193,0,0.363-0.145,0.484-0.412c0.122-0.29,0.194-0.702,0.194-1.283
		c0-0.606-0.072-1.042-0.168-1.355c-0.122-0.266-0.291-0.388-0.485-0.388h-5.065c-0.387-0.097-0.823-0.194-1.283-0.242
		c-0.461-0.072-0.946-0.097-1.455-0.097c-0.969,0-1.865,0.145-2.69,0.412c-0.823,0.266-1.525,0.654-2.108,1.163
		c-0.605,0.509-1.041,1.139-1.38,1.866c-0.316,0.727-0.485,1.575-0.485,2.496c0,0.872,0.146,1.598,0.388,2.18
		c0.243,0.581,0.582,1.091,0.993,1.502c-0.508,0.484-0.944,0.994-1.26,1.575c-0.315,0.581-0.485,1.236-0.485,1.939
		c0,0.557,0.121,1.09,0.412,1.551c0.266,0.459,0.679,0.847,1.187,1.114c-0.388,0.267-0.702,0.557-0.993,0.848
		c-0.291,0.29-0.533,0.605-0.727,0.944c-0.194,0.316-0.34,0.655-0.437,1.019c-0.097,0.363-0.145,0.75-0.145,1.138
		c0,0.629,0.146,1.212,0.413,1.745c0.267,0.533,0.727,0.992,1.333,1.38c0.63,0.388,1.405,0.678,2.374,0.897
		c0.969,0.218,2.133,0.315,3.49,0.315c1.382,0,2.617-0.145,3.659-0.436c1.066-0.291,1.915-0.703,2.618-1.212
		c0.679-0.509,1.212-1.115,1.551-1.818c0.339-0.702,0.508-1.454,0.508-2.229C283.852,96.498,283.731,95.845,283.464,95.287z
		 M273.067,83.656c0.097-0.339,0.266-0.63,0.485-0.897c0.219-0.242,0.485-0.46,0.824-0.605c0.339-0.146,0.727-0.219,1.163-0.219
		c0.873,0,1.552,0.242,2.036,0.727c0.485,0.484,0.727,1.164,0.727,2.011c0,0.364-0.049,0.704-0.17,0.994
		c-0.12,0.339-0.291,0.63-0.508,0.872c-0.219,0.242-0.485,0.436-0.824,0.581c-0.339,0.146-0.728,0.219-1.188,0.219
		c-0.849,0-1.502-0.218-1.988-0.703c-0.485-0.46-0.727-1.09-0.727-1.914C272.897,84.359,272.97,83.995,273.067,83.656z
		 M279.199,98.342c-0.122,0.265-0.315,0.533-0.606,0.75c-0.29,0.243-0.678,0.413-1.139,0.558c-0.46,0.122-1.041,0.194-1.721,0.194
		c-1.089,0-1.938-0.146-2.544-0.461c-0.605-0.315-0.896-0.751-0.896-1.357c0-0.194,0-0.388,0.048-0.557
		c0.023-0.17,0.096-0.364,0.217-0.558c0.097-0.194,0.242-0.387,0.436-0.606c0.194-0.218,0.436-0.437,0.752-0.654l3.199,0.097
		c0.751,0.024,1.332,0.169,1.768,0.46c0.438,0.291,0.655,0.703,0.655,1.236C279.368,97.759,279.295,98.05,279.199,98.342z"/>
	<path fill="#4C5C65" d="M292.599,79.126c-0.292-0.024-0.655-0.048-1.091-0.048c-0.436,0-0.8,0.023-1.091,0.048
		c-0.266,0.023-0.508,0.072-0.678,0.145c-0.17,0.072-0.291,0.145-0.364,0.242c-0.072,0.097-0.097,0.193-0.097,0.314v15.944
		c0,0.121,0.025,0.218,0.097,0.315c0.073,0.073,0.194,0.169,0.364,0.218c0.17,0.049,0.387,0.097,0.678,0.122
		c0.291,0.023,0.655,0.048,1.091,0.048c0.436,0,0.799-0.024,1.091-0.048c0.266-0.025,0.508-0.074,0.678-0.122
		c0.169-0.049,0.291-0.121,0.363-0.218c0.049-0.096,0.097-0.193,0.097-0.315V79.827c0-0.12-0.024-0.217-0.097-0.314
		c-0.072-0.097-0.194-0.17-0.363-0.242C293.107,79.223,292.89,79.15,292.599,79.126z"/>
	<path fill="#4C5C65" d="M293.519,72.533c-0.339-0.339-1.042-0.508-2.036-0.508c-0.993,0-1.696,0.169-2.06,0.533
		c-0.363,0.363-0.557,0.994-0.557,1.89c0,0.873,0.169,1.479,0.533,1.818c0.363,0.339,1.043,0.509,2.06,0.509
		c0.994,0,1.696-0.17,2.06-0.509c0.363-0.363,0.557-0.994,0.557-1.89C294.076,73.503,293.882,72.897,293.519,72.533z"/>
	<path fill="#4C5C65" d="M314.212,92.574c-0.048-0.097-0.097-0.171-0.17-0.219c-0.072-0.048-0.145-0.072-0.266-0.072
		c-0.194,0-0.412,0.048-0.703,0.169c-0.291,0.122-0.655,0.243-1.091,0.388c-0.436,0.146-0.944,0.267-1.55,0.388
		c-0.607,0.122-1.285,0.17-2.085,0.17c-0.775,0-1.428-0.122-1.986-0.316c-0.557-0.218-0.994-0.508-1.357-0.896
		c-0.364-0.387-0.606-0.848-0.775-1.406c-0.17-0.557-0.242-1.186-0.242-1.866h9.74c0.438,0,0.777-0.121,1.019-0.388
		c0.242-0.266,0.363-0.653,0.363-1.211v-0.704c0-1.138-0.145-2.181-0.436-3.126c-0.266-0.944-0.727-1.768-1.333-2.471
		c-0.63-0.703-1.406-1.259-2.351-1.647c-0.969-0.387-2.107-0.581-3.44-0.581c-1.26,0-2.399,0.218-3.417,0.63
		c-1.017,0.411-1.866,1.017-2.569,1.816c-0.727,0.8-1.26,1.769-1.624,2.908c-0.363,1.14-0.557,2.423-0.557,3.853
		c0,1.478,0.169,2.787,0.533,3.901c0.339,1.116,0.872,2.036,1.599,2.763s1.624,1.26,2.69,1.624c1.066,0.363,2.302,0.533,3.732,0.533
		c0.8,0,1.527-0.048,2.229-0.145c0.678-0.097,1.309-0.219,1.842-0.364c0.533-0.12,0.993-0.266,1.332-0.411
		c0.34-0.145,0.558-0.267,0.631-0.339c0.072-0.097,0.146-0.17,0.194-0.267c0.049-0.097,0.072-0.217,0.097-0.339
		c0.023-0.146,0.048-0.291,0.048-0.485c0.024-0.194,0.024-0.412,0.024-0.678c0-0.316,0-0.558-0.024-0.752
		C314.284,92.84,314.26,92.671,314.212,92.574z M304.253,84.431c0.146-0.485,0.364-0.921,0.655-1.285
		c0.291-0.363,0.63-0.653,1.066-0.872c0.436-0.217,0.921-0.314,1.502-0.314c1.14,0,1.988,0.363,2.521,1.09
		c0.529,0.723,0.793,1.708,0.749,2.956h-6.759C304.011,85.448,304.108,84.916,304.253,84.431z"/>
	<path fill="#4C5C65" d="M334.785,96.207c0.945,0.387,2.035,0.581,3.271,0.581c0.533,0,1.091-0.048,1.599-0.145
		c0.533-0.097,1.019-0.243,1.455-0.388c0.436-0.169,0.847-0.339,1.186-0.533c0.339-0.194,0.582-0.363,0.727-0.508
		c0.145-0.145,0.219-0.242,0.267-0.339c0.025-0.073,0.073-0.194,0.097-0.339c0.025-0.145,0.048-0.315,0.073-0.534
		c0.024-0.194,0.024-0.46,0.024-0.775c0-0.387-0.025-0.702-0.05-0.921c-0.025-0.242-0.049-0.436-0.097-0.606
		c-0.048-0.169-0.097-0.291-0.17-0.339c-0.072-0.072-0.169-0.097-0.266-0.097c-0.17,0-0.364,0.073-0.581,0.267
		c-0.243,0.17-0.51,0.387-0.849,0.606c-0.314,0.242-0.727,0.436-1.163,0.63c-0.436,0.169-0.969,0.266-1.599,0.266
		c-0.606,0-1.139-0.12-1.6-0.339c-0.46-0.218-0.824-0.557-1.138-0.994c-0.29-0.436-0.534-0.992-0.679-1.647
		c-0.169-0.653-0.242-1.43-0.242-2.277c0-1.745,0.291-3.077,0.922-3.974c0.63-0.897,1.526-1.357,2.69-1.357
		c0.605,0,1.114,0.072,1.55,0.242c0.437,0.169,0.799,0.363,1.115,0.557c0.316,0.194,0.581,0.388,0.8,0.558
		c0.243,0.17,0.46,0.242,0.654,0.242c0.194,0,0.339-0.12,0.461-0.411c0.121-0.267,0.169-0.752,0.169-1.455
		c0-0.29,0-0.533-0.024-0.75c-0.025-0.219-0.048-0.389-0.073-0.533c-0.023-0.146-0.072-0.243-0.12-0.34
		c-0.048-0.097-0.122-0.217-0.267-0.339c-0.145-0.121-0.362-0.291-0.678-0.46c-0.314-0.171-0.678-0.34-1.066-0.485
		c-0.388-0.145-0.824-0.267-1.285-0.339c-0.46-0.074-0.92-0.122-1.405-0.122c-1.163,0-2.254,0.194-3.223,0.558
		c-0.969,0.363-1.817,0.921-2.544,1.696c-0.703,0.751-1.26,1.72-1.672,2.883c-0.411,1.163-0.605,2.544-0.605,4.143
		c0,1.381,0.145,2.617,0.484,3.683c0.314,1.091,0.798,1.986,1.453,2.738C333.041,95.263,333.84,95.819,334.785,96.207z"/>
	<path fill="#4C5C65" d="M364.396,83.898c-0.34-1.115-0.848-2.035-1.526-2.787c-0.704-0.752-1.576-1.333-2.618-1.721
		c-1.066-0.387-2.302-0.581-3.732-0.581c-1.478,0-2.762,0.219-3.853,0.655s-2.011,1.066-2.738,1.866
		c-0.726,0.799-1.284,1.793-1.647,2.907c-0.364,1.114-0.558,2.375-0.558,3.732c0,1.405,0.17,2.665,0.509,3.756
		c0.34,1.115,0.849,2.035,1.551,2.787c0.704,0.752,1.576,1.333,2.618,1.721c1.041,0.387,2.277,0.581,3.707,0.581
		c1.479,0,2.762-0.219,3.853-0.655c1.091-0.46,2.011-1.066,2.738-1.89c0.727-0.823,1.26-1.792,1.624-2.908
		c0.363-1.138,0.533-2.374,0.533-3.731C364.857,86.2,364.686,84.941,364.396,83.898z M359.987,90.077
		c-0.17,0.654-0.413,1.235-0.728,1.696c-0.314,0.461-0.727,0.824-1.235,1.066c-0.484,0.242-1.091,0.364-1.769,0.364
		c-0.752,0-1.357-0.145-1.866-0.412c-0.51-0.266-0.897-0.654-1.188-1.138c-0.291-0.486-0.508-1.067-0.63-1.721
		c-0.121-0.678-0.194-1.381-0.194-2.181c0-0.847,0.073-1.623,0.242-2.277c0.17-0.655,0.413-1.236,0.727-1.696
		c0.315-0.461,0.727-0.825,1.236-1.067c0.484-0.242,1.066-0.363,1.744-0.363c0.752,0,1.381,0.145,1.866,0.411
		c0.485,0.267,0.897,0.654,1.188,1.139c0.291,0.485,0.509,1.066,0.63,1.721c0.122,0.678,0.194,1.381,0.194,2.18
		C360.204,88.648,360.132,89.399,359.987,90.077z"/>
	<path fill="#4C5C65" d="M384.678,96.426c0.29-0.025,0.508-0.074,0.678-0.122c0.169-0.049,0.291-0.121,0.363-0.218
		c0.049-0.096,0.097-0.193,0.097-0.315h0.121v-9.887c0-1.162-0.122-2.156-0.316-2.98c-0.194-0.824-0.533-1.551-0.993-2.157
		c-0.461-0.605-1.066-1.09-1.818-1.454c-0.727-0.363-1.647-0.533-2.738-0.533c-0.994,0-1.938,0.243-2.86,0.727
		c-0.896,0.485-1.817,1.212-2.69,2.157v-1.841c0-0.121-0.049-0.218-0.097-0.315c-0.049-0.072-0.146-0.169-0.291-0.217
		c-0.145-0.073-0.339-0.121-0.581-0.145c-0.242-0.024-0.556-0.048-0.944-0.048c-0.364,0-0.68,0.023-0.922,0.048
		c-0.242,0.048-0.46,0.097-0.605,0.145c-0.145,0.048-0.267,0.12-0.315,0.217c-0.072,0.096-0.097,0.193-0.097,0.315v15.992
		c0,0.12,0.025,0.217,0.097,0.314c0.073,0.074,0.194,0.171,0.364,0.219c0.169,0.049,0.387,0.097,0.678,0.121
		c0.291,0.024,0.655,0.048,1.091,0.048c0.436,0,0.799-0.023,1.09-0.048c0.267-0.024,0.509-0.073,0.678-0.121
		c0.17-0.049,0.291-0.122,0.364-0.219c0.049-0.096,0.097-0.193,0.097-0.314V85.157c0.63-0.798,1.237-1.405,1.818-1.817
		c0.581-0.411,1.163-0.63,1.744-0.63c0.461,0,0.849,0.097,1.188,0.267c0.34,0.169,0.605,0.411,0.824,0.727
		c0.219,0.315,0.364,0.703,0.485,1.139c0.122,0.436,0.17,1.042,0.17,1.818v9.11c0,0.121,0.024,0.218,0.097,0.315
		c0.072,0.073,0.194,0.17,0.363,0.218c0.145,0.049,0.387,0.097,0.678,0.122c0.291,0.023,0.655,0.048,1.091,0.048
		C384.023,96.474,384.387,96.45,384.678,96.426z"/>
	<path fill="#4C5C65" d="M404.281,94.875c0.024-0.073,0.072-0.194,0.097-0.339c0.024-0.145,0.048-0.315,0.072-0.534
		c0.025-0.194,0.025-0.46,0.025-0.775c0-0.387-0.025-0.702-0.054-0.921c-0.025-0.242-0.049-0.436-0.097-0.606
		c-0.048-0.169-0.097-0.291-0.17-0.339c-0.072-0.072-0.169-0.097-0.266-0.097c-0.17,0-0.364,0.073-0.581,0.267
		c-0.243,0.17-0.51,0.387-0.849,0.606c-0.316,0.242-0.727,0.436-1.163,0.63c-0.436,0.169-0.969,0.266-1.6,0.266
		c-0.605,0-1.138-0.12-1.599-0.339c-0.46-0.218-0.824-0.557-1.139-0.994c-0.29-0.436-0.533-0.992-0.678-1.647
		c-0.169-0.653-0.242-1.43-0.242-2.277c0-1.745,0.291-3.077,0.921-3.974c0.631-0.897,1.527-1.357,2.69-1.357
		c0.607,0,1.116,0.072,1.552,0.242c0.437,0.169,0.799,0.363,1.115,0.557c0.314,0.194,0.581,0.388,0.8,0.558
		c0.243,0.17,0.46,0.242,0.654,0.242c0.194,0,0.339-0.12,0.461-0.411c0.121-0.267,0.169-0.752,0.169-1.455
		c0-0.29,0-0.533-0.024-0.75c-0.025-0.219-0.048-0.389-0.073-0.533c-0.023-0.146-0.072-0.243-0.12-0.34
		c-0.048-0.097-0.122-0.217-0.267-0.339c-0.145-0.121-0.362-0.291-0.678-0.46c-0.314-0.171-0.678-0.34-1.066-0.485
		c-0.388-0.145-0.824-0.267-1.285-0.339c-0.46-0.074-0.92-0.122-1.405-0.122c-1.163,0-2.254,0.194-3.223,0.558
		c-0.969,0.363-1.817,0.921-2.544,1.696c-0.703,0.751-1.26,1.72-1.672,2.883c-0.412,1.163-0.606,2.544-0.606,4.143
		c0,1.381,0.146,2.617,0.486,3.683c0.315,1.091,0.799,1.986,1.454,2.738c0.654,0.752,1.454,1.308,2.399,1.696
		c0.944,0.387,2.035,0.581,3.271,0.581c0.533,0,1.091-0.048,1.599-0.145c0.533-0.097,1.018-0.243,1.454-0.388
		c0.438-0.169,0.849-0.339,1.188-0.533c0.339-0.194,0.582-0.363,0.727-0.508C404.159,95.069,404.233,94.972,404.281,94.875z"/>
	<path fill="#4C5C65" d="M422.842,81.014c-0.63-0.703-1.406-1.259-2.351-1.647c-0.969-0.387-2.107-0.581-3.44-0.581
		c-1.259,0-2.399,0.218-3.416,0.63c-1.018,0.411-1.866,1.017-2.569,1.816c-0.727,0.8-1.26,1.769-1.624,2.908
		c-0.363,1.14-0.557,2.423-0.557,3.853c0,1.478,0.169,2.787,0.533,3.901c0.339,1.116,0.872,2.036,1.599,2.763s1.624,1.26,2.69,1.624
		c1.066,0.363,2.302,0.533,3.732,0.533c0.8,0,1.527-0.048,2.229-0.145c0.678-0.097,1.309-0.219,1.842-0.364
		c0.533-0.12,0.993-0.266,1.332-0.411c0.339-0.145,0.558-0.267,0.63-0.339c0.074-0.097,0.146-0.17,0.194-0.267
		c0.049-0.097,0.073-0.217,0.097-0.339c0.025-0.146,0.05-0.291,0.05-0.485c0.024-0.194,0.024-0.412,0.024-0.678
		c0-0.316,0-0.558-0.024-0.752c-0.025-0.194-0.049-0.363-0.097-0.46c-0.05-0.097-0.098-0.171-0.17-0.219
		c-0.073-0.048-0.145-0.072-0.267-0.072c-0.194,0-0.411,0.048-0.702,0.169c-0.291,0.122-0.655,0.243-1.091,0.388
		c-0.436,0.146-0.946,0.267-1.551,0.388c-0.607,0.122-1.285,0.17-2.085,0.17c-0.776,0-1.429-0.122-1.987-0.316
		c-0.558-0.218-0.994-0.508-1.357-0.896c-0.364-0.387-0.606-0.848-0.775-1.406c-0.17-0.557-0.242-1.186-0.242-1.866h9.74
		c0.436,0,0.777-0.121,1.019-0.388c0.242-0.266,0.363-0.653,0.363-1.211v-0.704c0-1.138-0.145-2.181-0.436-3.126
		C423.909,82.541,423.448,81.717,422.842,81.014z M413.755,84.431c0.146-0.485,0.364-0.921,0.655-1.285
		c0.291-0.363,0.63-0.653,1.066-0.872c0.436-0.217,0.921-0.314,1.502-0.314c1.139,0,1.988,0.363,2.521,1.09
		c0.529,0.723,0.793,1.708,0.749,2.956h-6.759C413.513,85.448,413.61,84.916,413.755,84.431z"/>
	<path fill="#4C5C65" d="M445.086,81.378c-0.509-0.8-1.187-1.43-2.011-1.891c-0.8-0.459-1.817-0.678-2.98-0.678
		c-0.558,0-1.09,0.048-1.575,0.17c-0.51,0.121-0.994,0.315-1.454,0.557c-0.486,0.243-0.922,0.558-1.382,0.921
		c-0.46,0.364-0.92,0.776-1.381,1.261v-1.891c0-0.12-0.049-0.217-0.097-0.314c-0.073-0.074-0.171-0.171-0.316-0.219
		c-0.145-0.072-0.339-0.12-0.581-0.145c-0.242-0.023-0.533-0.048-0.896-0.048c-0.364,0-0.679,0.024-0.922,0.048
		c-0.242,0.048-0.436,0.097-0.581,0.145c-0.145,0.049-0.266,0.122-0.314,0.219c-0.073,0.097-0.097,0.193-0.097,0.314v22.319
		c0,0.121,0.024,0.219,0.097,0.316c0.072,0.097,0.194,0.169,0.363,0.242c0.171,0.048,0.388,0.097,0.68,0.145
		c0.291,0.023,0.654,0.048,1.09,0.048c0.436,0,0.8,0,1.091-0.048c0.266-0.024,0.508-0.073,0.678-0.145
		c0.17-0.073,0.291-0.145,0.364-0.242c0.049-0.098,0.097-0.195,0.097-0.316V94.61c0.387,0.364,0.75,0.703,1.114,0.969
		c0.363,0.267,0.727,0.484,1.09,0.678c0.364,0.193,0.751,0.315,1.139,0.412s0.824,0.145,1.285,0.145c1.114,0,2.108-0.219,2.98-0.655
		c0.872-0.436,1.598-1.041,2.18-1.841c0.583-0.8,1.019-1.769,1.333-2.908c0.316-1.138,0.461-2.423,0.461-3.853
		c0-1.211-0.073-2.326-0.317-3.392C445.982,83.097,445.594,82.177,445.086,81.378z M441.696,89.763
		c-0.121,0.63-0.315,1.162-0.581,1.647c-0.267,0.486-0.606,0.873-1.017,1.164c-0.412,0.291-0.922,0.436-1.503,0.436
		c-0.63,0-1.212-0.219-1.793-0.655c-0.582-0.436-1.188-1.066-1.818-1.866v-5.258c0.363-0.484,0.678-0.872,1.017-1.211
		c0.339-0.339,0.63-0.606,0.945-0.8c0.314-0.194,0.606-0.339,0.897-0.436c0.291-0.097,0.605-0.145,0.896-0.145
		c0.606,0,1.091,0.145,1.503,0.436c0.411,0.291,0.727,0.678,0.969,1.163c0.242,0.484,0.411,1.042,0.508,1.672
		c0.097,0.63,0.145,1.285,0.145,1.963C441.864,88.478,441.792,89.084,441.696,89.763z"/>
	<path fill="#4C5C65" d="M461.564,93.348c-0.024-0.218-0.072-0.387-0.097-0.509c-0.023-0.12-0.096-0.194-0.145-0.242
		c-0.049-0.048-0.121-0.072-0.194-0.072c-0.097,0-0.194,0.024-0.291,0.072c-0.097,0.048-0.218,0.097-0.363,0.145
		c-0.145,0.048-0.315,0.097-0.509,0.145c-0.194,0.048-0.413,0.073-0.655,0.073c-0.702,0-1.211-0.219-1.477-0.655
		c-0.268-0.436-0.413-1.091-0.413-1.963v-7.511h3.49c0.217,0,0.387-0.121,0.508-0.412c0.122-0.291,0.17-0.75,0.17-1.405
		c0-0.339-0.024-0.63-0.048-0.872c-0.048-0.243-0.097-0.413-0.145-0.558c-0.049-0.121-0.122-0.243-0.219-0.291
		c-0.097-0.072-0.193-0.097-0.314-0.097h-3.465v-3.562c0-0.12-0.025-0.217-0.097-0.314c-0.073-0.098-0.194-0.17-0.364-0.243
		c-0.169-0.072-0.387-0.12-0.678-0.145c-0.291-0.023-0.655-0.048-1.091-0.048c-0.436,0-0.799,0.024-1.09,0.048
		c-0.292,0.024-0.534,0.073-0.703,0.145c-0.17,0.073-0.291,0.146-0.364,0.243c-0.072,0.097-0.097,0.193-0.097,0.314v3.562h-1.89
		c-0.121,0-0.219,0.048-0.315,0.097c-0.096,0.049-0.169,0.146-0.217,0.291c-0.073,0.122-0.121,0.316-0.145,0.558
		c-0.024,0.242-0.048,0.533-0.048,0.872c0,0.655,0.048,1.114,0.169,1.405c0.097,0.267,0.29,0.412,0.509,0.412h1.914v8.19
		c0,0.97,0.12,1.817,0.314,2.544c0.193,0.728,0.509,1.333,0.945,1.794c0.413,0.46,0.969,0.823,1.624,1.041
		c0.655,0.218,1.43,0.34,2.326,0.34c0.339,0,0.655,0,0.994-0.05c0.34-0.023,0.63-0.072,0.921-0.145
		c0.267-0.072,0.51-0.145,0.727-0.242c0.218-0.096,0.387-0.193,0.484-0.314c0.122-0.096,0.194-0.29,0.267-0.581
		c0.073-0.29,0.097-0.678,0.097-1.212C461.589,93.857,461.589,93.591,461.564,93.348z"/>
</g>
</svg>
