<?xml version="1.0" encoding="utf-8"?>
<!-- Generator: Adobe Illustrator 25.0.1, SVG Export Plug-In . SVG Version: 6.00 Build 0)  -->
<svg version="1.1" id="Calque_2" xmlns="http://www.w3.org/2000/svg" xmlns:xlink="http://www.w3.org/1999/xlink" x="0px" y="0px"
	 viewBox="0 0 472.494 186.12" enable-background="new 0 0 472.494 186.12" xml:space="preserve">
<linearGradient id="SVGID_1_" gradientUnits="userSpaceOnUse" x1="-5.539" y1="354.2066" x2="-5.539" y2="435.7152" gradientTransform="matrix(2.1001 0 0 -2.1001 94.3405 899.3843)">
	<stop  offset="0" style="stop-color:#878787"/>
	<stop  offset="1" style="stop-color:#B3B2B2"/>
</linearGradient>
<path fill="url(#SVGID_1_)" d="M79.196,121.13c0,1.431-0.291,19.7-0.584,20.209c-0.435,0.75-1.016,1.113-1.647,1.357
	c-0.313,0.119-0.604,0.169-0.798,0.216c-0.074,0-0.122,0.025-0.171,0.025H36.43c-1.478,0-2.763-0.532-3.61-1.307
	c-0.872-0.775-1.284-1.697-1.284-2.666v-66.39H16.004c-1.115,0-1.963-0.631-2.206-1.163c-0.097-0.194-0.122-0.34-0.122-0.509
	c0-0.315,0.097-0.631,0.509-1.019l25.782-23.817V27.723c0-2.592,2.107-4.676,4.701-4.701H64.9L80.891,8.243
	c0.388-0.364,1.091-0.655,1.819-0.655c0.726,0,1.453,0.291,1.816,0.655l66.705,61.665c0.388,0.363,0.484,0.703,0.509,1.016
	c0,0.171-0.025,0.315-0.122,0.509c-0.219,0.534-1.066,1.163-2.204,1.163h-15.533v66.392c0,0.969-0.41,1.866-1.282,2.664
	c-0.85,0.775-2.134,1.309-3.612,1.309H93.321c-1.938,0-3.513,1.575-3.513,3.513c0,1.938,1.575,3.513,3.513,3.513h35.643
	c3.173,0,6.105-1.138,8.286-3.076c2.181-1.915,3.66-4.75,3.635-7.901V79.648h8.529c3.561,0,6.929-1.866,8.527-5.136
	c0.534-1.115,0.825-2.35,0.825-3.538c0-2.326-1.019-4.555-2.763-6.154L89.298,3.106c-1.816-1.672-4.167-2.519-6.589-2.519
	c-2.425,0-4.775,0.872-6.591,2.519L62.137,16.045H44.643c-6.47,0-11.705,5.233-11.705,11.702v15.265L9.413,64.748
	c-1.744,1.598-2.763,3.851-2.763,6.179c0,1.21,0.268,2.422,0.825,3.561c1.6,3.295,4.967,5.138,8.529,5.138h8.505v59.363
	c0,3.148,1.454,5.983,3.635,7.898c2.179,1.938,5.111,3.076,8.286,3.076h39.738h0.023c0.34-0.023,2.519-0.047,5.041-1.55
	c1.26-0.75,2.567-1.938,3.488-3.635c0.944-1.672,1.478-21.225,1.478-23.648"/>
<linearGradient id="SVGID_2_" gradientUnits="userSpaceOnUse" x1="-7.2349" y1="383.546" x2="-7.2349" y2="369.0033" gradientTransform="matrix(2.1001 0 0 -2.1001 94.3405 899.3843)">
	<stop  offset="0" style="stop-color:#96C222"/>
	<stop  offset="1" style="stop-color:#3EAB37"/>
</linearGradient>
<path fill="url(#SVGID_2_)" d="M81.86,115.097c0.753-1.453,1.381-2.86,1.915-4.241c0,0.947,0.022,1.891,0.144,2.907
	c0,0,13.958-2.567,20.135-12.09c4.532-6.979,14.83-14.102,14.83-14.102s-25.32-0.629-32.953,14.03
	c2.107-29.949-46.523-42.136-46.523-42.136s13.981,17.494,19.36,32.781c4.507,12.843,16.815,22.172,16.84,22.172
	C78.274,116.697,81.86,115.097,81.86,115.097z M106.091,92.587l-15.824,14.44C90.245,107.005,93.758,98.863,106.091,92.587z
	 M57.605,73.565c17.203,16.502,20.813,33.777,20.813,33.777L57.605,73.565z"/>
<g enable-background="new    ">
	<path fill="#878787" d="M197.231,125.158c0-0.501-0.201-0.904-0.604-1.208c-0.403-0.304-1.01-0.542-1.82-0.714
		c-0.811-0.171-1.44-0.368-1.888-0.59c-0.448-0.223-0.78-0.495-0.997-0.816c-0.217-0.321-0.326-0.71-0.326-1.166
		c0-0.721,0.301-1.316,0.904-1.787c0.603-0.47,1.374-0.705,2.315-0.705c1.019,0,1.837,0.252,2.454,0.756
		c0.617,0.505,0.925,1.162,0.925,1.973h-1.013c0-0.535-0.224-0.98-0.672-1.334c-0.447-0.355-1.012-0.533-1.694-0.533
		c-0.665,0-1.198,0.148-1.601,0.444c-0.403,0.295-0.604,0.679-0.604,1.153c0,0.456,0.167,0.81,0.502,1.06
		c0.335,0.251,0.947,0.48,1.833,0.688c0.887,0.208,1.551,0.432,1.994,0.668c0.442,0.237,0.77,0.52,0.984,0.853
		c0.214,0.332,0.321,0.735,0.321,1.208c0,0.772-0.312,1.388-0.934,1.85c-0.622,0.462-1.435,0.693-2.437,0.693
		c-1.065,0-1.928-0.258-2.589-0.773c-0.662-0.515-0.993-1.167-0.993-1.956h1.013c0.039,0.592,0.288,1.052,0.748,1.381
		c0.459,0.329,1.066,0.495,1.821,0.495c0.704,0,1.273-0.155,1.706-0.465C197.015,126.022,197.231,125.631,197.231,125.158z"/>
	<path fill="#878787" d="M207.868,123.004c0,1.425-0.315,2.555-0.946,3.393c-0.631,0.836-1.475,1.254-2.535,1.254
		c-1.25,0-2.208-0.439-2.872-1.318v4.664h-1.006V118.34h0.938l0.051,1.294c0.659-0.975,1.614-1.463,2.864-1.463
		c1.093,0,1.95,0.415,2.572,1.243c0.622,0.827,0.934,1.976,0.934,3.447V123.004z M206.854,122.827c0-1.166-0.239-2.087-0.718-2.763
		c-0.478-0.676-1.146-1.014-2.002-1.014c-0.619,0-1.151,0.15-1.597,0.448c-0.445,0.299-0.785,0.731-1.022,1.3v4.385
		c0.242,0.523,0.588,0.923,1.039,1.199c0.451,0.276,0.983,0.415,1.597,0.415c0.851,0,1.514-0.339,1.99-1.019
		C206.616,125.101,206.854,124.116,206.854,122.827z"/>
	<path fill="#878787" d="M213.646,127.651c-0.777,0-1.479-0.192-2.107-0.575c-0.628-0.383-1.117-0.916-1.466-1.601
		c-0.349-0.684-0.523-1.451-0.523-2.302v-0.363c0-0.879,0.17-1.67,0.511-2.374c0.341-0.704,0.815-1.258,1.424-1.66
		c0.608-0.403,1.267-0.605,1.977-0.605c1.109,0,1.989,0.38,2.64,1.137c0.65,0.757,0.976,1.793,0.976,3.104v0.567h-6.522v0.194
		c0,1.037,0.297,1.9,0.891,2.589c0.594,0.691,1.342,1.035,2.243,1.035c0.541,0,1.018-0.099,1.432-0.296s0.79-0.513,1.128-0.946
		l0.634,0.482C216.138,127.113,215.06,127.651,213.646,127.651z M213.46,119.033c-0.761,0-1.401,0.279-1.922,0.836
		c-0.521,0.558-0.838,1.307-0.95,2.248h5.483v-0.11c-0.028-0.878-0.279-1.593-0.752-2.145
		C214.846,119.309,214.226,119.033,213.46,119.033z M214.584,114.505h1.225l-1.952,2.366l-0.887-0.005L214.584,114.505z"/>
	<path fill="#878787" d="M222.424,126.798c0.704,0,1.294-0.199,1.77-0.596c0.476-0.397,0.734-0.91,0.773-1.541h0.972
		c-0.028,0.558-0.203,1.066-0.524,1.524c-0.321,0.46-0.748,0.818-1.28,1.077c-0.532,0.259-1.103,0.389-1.71,0.389
		c-1.2,0-2.15-0.417-2.851-1.251c-0.701-0.833-1.052-1.954-1.052-3.362v-0.304c0-0.9,0.157-1.698,0.473-2.391
		c0.315-0.692,0.767-1.227,1.356-1.604c0.589-0.378,1.277-0.567,2.066-0.567c1.002,0,1.829,0.299,2.479,0.896
		c0.65,0.597,0.998,1.383,1.043,2.357h-0.972c-0.045-0.715-0.303-1.292-0.773-1.732c-0.47-0.439-1.063-0.659-1.778-0.659
		c-0.913,0-1.621,0.33-2.125,0.988c-0.504,0.659-0.756,1.583-0.756,2.772v0.295c0,1.166,0.252,2.075,0.756,2.729
		S221.506,126.798,222.424,126.798z"/>
	<path fill="#878787" d="M227.898,115.7c0-0.19,0.062-0.35,0.186-0.482c0.124-0.132,0.293-0.197,0.507-0.197
		c0.214,0,0.384,0.065,0.511,0.197c0.127,0.132,0.19,0.292,0.19,0.482c0,0.19-0.064,0.35-0.19,0.479
		c-0.127,0.128-0.297,0.193-0.511,0.193c-0.214,0-0.383-0.064-0.507-0.193C227.96,116.051,227.898,115.891,227.898,115.7z
		 M229.089,127.482h-1.014v-9.141h1.014V127.482z"/>
	<path fill="#878787" d="M237.605,127.482c-0.101-0.287-0.166-0.712-0.194-1.275c-0.354,0.462-0.807,0.818-1.355,1.068
		c-0.549,0.251-1.131,0.376-1.745,0.376c-0.879,0-1.59-0.244-2.133-0.735c-0.544-0.49-0.815-1.11-0.815-1.859
		c0-0.89,0.37-1.593,1.11-2.112c0.741-0.518,1.773-0.778,3.096-0.778h1.833v-1.039c0-0.653-0.201-1.167-0.604-1.543
		c-0.403-0.374-0.99-0.561-1.761-0.561c-0.704,0-1.287,0.18-1.749,0.541c-0.462,0.359-0.693,0.793-0.693,1.3l-1.014-0.008
		c0-0.727,0.338-1.357,1.014-1.888c0.676-0.532,1.506-0.799,2.492-0.799c1.019,0,1.823,0.256,2.412,0.765
		c0.588,0.509,0.891,1.22,0.908,2.133v4.326c0,0.884,0.093,1.546,0.279,1.985v0.101H237.605z M234.428,126.755
		c0.676,0,1.28-0.163,1.812-0.49c0.532-0.327,0.919-0.763,1.161-1.309v-2.01h-1.808c-1.008,0.011-1.797,0.195-2.365,0.553
		c-0.569,0.357-0.854,0.848-0.854,1.474c0,0.513,0.19,0.937,0.57,1.276S233.82,126.755,234.428,126.755z"/>
	<path fill="#878787" d="M242.234,127.482h-1.014v-12.977h1.014V127.482z"/>
	<path fill="#878787" d="M244.921,115.7c0-0.19,0.062-0.35,0.186-0.482c0.124-0.132,0.293-0.197,0.507-0.197
		c0.214,0,0.384,0.065,0.511,0.197c0.126,0.132,0.189,0.292,0.189,0.482c0,0.19-0.063,0.35-0.189,0.479
		c-0.127,0.128-0.297,0.193-0.511,0.193c-0.214,0-0.383-0.064-0.507-0.193C244.982,116.051,244.921,115.891,244.921,115.7z
		 M246.111,127.482h-1.013v-9.141h1.013V127.482z"/>
	<path fill="#878787" d="M254.332,125.158c0-0.501-0.202-0.904-0.604-1.208c-0.402-0.304-1.01-0.542-1.821-0.714
		c-0.81-0.171-1.44-0.368-1.887-0.59c-0.448-0.223-0.781-0.495-0.997-0.816c-0.217-0.321-0.326-0.71-0.326-1.166
		c0-0.721,0.302-1.316,0.904-1.787c0.603-0.47,1.375-0.705,2.316-0.705c1.02,0,1.838,0.252,2.454,0.756
		c0.616,0.505,0.925,1.162,0.925,1.973h-1.014c0-0.535-0.223-0.98-0.672-1.334c-0.447-0.355-1.012-0.533-1.693-0.533
		c-0.665,0-1.199,0.148-1.601,0.444c-0.402,0.295-0.604,0.679-0.604,1.153c0,0.456,0.168,0.81,0.503,1.06
		c0.335,0.251,0.946,0.48,1.833,0.688c0.887,0.208,1.552,0.432,1.994,0.668c0.442,0.237,0.77,0.52,0.984,0.853
		c0.214,0.332,0.321,0.735,0.321,1.208c0,0.772-0.311,1.388-0.934,1.85c-0.622,0.462-1.434,0.693-2.437,0.693
		c-1.064,0-1.927-0.258-2.589-0.773c-0.661-0.515-0.993-1.167-0.993-1.956h1.014c0.039,0.592,0.288,1.052,0.748,1.381
		c0.459,0.329,1.065,0.495,1.82,0.495c0.704,0,1.273-0.155,1.707-0.465C254.116,126.022,254.332,125.631,254.332,125.158z"/>
	<path fill="#878787" d="M259.19,116v2.34h1.893v0.828h-1.893v6.098c0,0.508,0.091,0.886,0.275,1.133
		c0.183,0.248,0.489,0.372,0.916,0.372c0.169,0,0.443-0.028,0.82-0.085l0.042,0.821c-0.265,0.095-0.625,0.142-1.082,0.142
		c-0.692,0-1.197-0.202-1.512-0.604c-0.315-0.402-0.472-0.996-0.472-1.778v-6.1h-1.682v-0.828h1.682V116H259.19z"/>
	<path fill="#878787" d="M266.716,127.651c-0.777,0-1.479-0.192-2.107-0.575c-0.629-0.383-1.116-0.916-1.466-1.601
		c-0.349-0.684-0.524-1.451-0.524-2.302v-0.363c0-0.879,0.17-1.67,0.51-2.374c0.341-0.704,0.816-1.258,1.424-1.66
		c0.608-0.403,1.266-0.605,1.976-0.605c1.11,0,1.99,0.38,2.64,1.137c0.651,0.757,0.976,1.793,0.976,3.104v0.567h-6.522v0.194
		c0,1.037,0.297,1.9,0.891,2.589c0.594,0.691,1.342,1.035,2.243,1.035c0.541,0,1.018-0.099,1.432-0.296
		c0.414-0.197,0.79-0.513,1.128-0.946l0.633,0.482C269.208,127.113,268.13,127.651,266.716,127.651z M266.53,119.033
		c-0.761,0-1.401,0.279-1.921,0.836c-0.522,0.558-0.838,1.307-0.951,2.248h5.483v-0.11c-0.028-0.878-0.278-1.593-0.752-2.145
		C267.916,119.309,267.296,119.033,266.53,119.033z"/>
	<path fill="#878787" d="M277.589,125.158c0-0.501-0.202-0.904-0.604-1.208c-0.402-0.304-1.01-0.542-1.821-0.714
		c-0.81-0.171-1.44-0.368-1.887-0.59c-0.448-0.223-0.781-0.495-0.997-0.816c-0.217-0.321-0.326-0.71-0.326-1.166
		c0-0.721,0.302-1.316,0.904-1.787c0.603-0.47,1.375-0.705,2.315-0.705c1.02,0,1.838,0.252,2.454,0.756
		c0.616,0.505,0.925,1.162,0.925,1.973h-1.014c0-0.535-0.223-0.98-0.672-1.334c-0.447-0.355-1.012-0.533-1.694-0.533
		c-0.665,0-1.199,0.148-1.601,0.444c-0.402,0.295-0.604,0.679-0.604,1.153c0,0.456,0.168,0.81,0.502,1.06
		c0.335,0.251,0.946,0.48,1.833,0.688c0.887,0.208,1.551,0.432,1.994,0.668c0.442,0.237,0.77,0.52,0.984,0.853
		c0.214,0.332,0.321,0.735,0.321,1.208c0,0.772-0.311,1.388-0.934,1.85c-0.622,0.462-1.434,0.693-2.437,0.693
		c-1.064,0-1.927-0.258-2.589-0.773c-0.661-0.515-0.993-1.167-0.993-1.956h1.014c0.039,0.592,0.288,1.052,0.748,1.381
		c0.459,0.329,1.065,0.495,1.82,0.495c0.704,0,1.273-0.155,1.707-0.465C277.373,126.022,277.589,125.631,277.589,125.158z"/>
	<path fill="#878787" d="M284.677,122.827c0-1.42,0.317-2.55,0.95-3.393c0.634-0.842,1.494-1.263,2.581-1.263
		c1.234,0,2.174,0.488,2.821,1.463v-5.129h1.005v12.977h-0.945l-0.043-1.217c-0.648,0.924-1.6,1.386-2.855,1.386
		c-1.053,0-1.902-0.424-2.548-1.271c-0.645-0.848-0.967-1.993-0.967-3.434V122.827z M285.699,123.004
		c0,1.166,0.233,2.086,0.701,2.758c0.467,0.674,1.127,1.01,1.977,1.01c1.244,0,2.129-0.549,2.652-1.647v-4.292
		c-0.524-1.188-1.403-1.782-2.635-1.782c-0.851,0-1.512,0.334-1.985,1.002C285.936,120.719,285.699,121.702,285.699,123.004z"/>
	<path fill="#878787" d="M300.577,126.324c-0.609,0.885-1.58,1.326-2.915,1.326c-0.973,0-1.715-0.283-2.222-0.85
		c-0.506-0.566-0.765-1.403-0.776-2.513v-5.948h1.005v5.821c0,1.741,0.704,2.611,2.111,2.611c1.465,0,2.391-0.605,2.78-1.816v-6.615
		h1.014v9.141h-0.98L300.577,126.324z"/>
	<path fill="#878787" d="M311.787,126.798c0.705,0,1.293-0.199,1.771-0.596c0.475-0.397,0.732-0.91,0.773-1.541h0.971
		c-0.029,0.558-0.203,1.066-0.525,1.524c-0.32,0.46-0.748,0.818-1.28,1.077c-0.532,0.259-1.102,0.389-1.71,0.389
		c-1.199,0-2.15-0.417-2.851-1.251c-0.701-0.833-1.052-1.954-1.052-3.362v-0.304c0-0.9,0.158-1.698,0.473-2.391
		c0.316-0.692,0.768-1.227,1.357-1.604c0.588-0.378,1.276-0.567,2.064-0.567c1.003,0,1.83,0.299,2.481,0.896
		c0.649,0.597,0.998,1.383,1.043,2.357h-0.971c-0.045-0.715-0.304-1.292-0.773-1.732c-0.471-0.439-1.064-0.659-1.78-0.659
		c-0.91,0-1.62,0.33-2.123,0.988c-0.505,0.659-0.757,1.583-0.757,2.772v0.295c0,1.166,0.252,2.075,0.757,2.729
		C310.158,126.471,310.87,126.798,311.787,126.798z"/>
	<path fill="#878787" d="M316.763,122.776c0-0.879,0.171-1.67,0.511-2.374c0.34-0.704,0.823-1.252,1.445-1.643
		c0.622-0.392,1.327-0.588,2.116-0.588c1.217,0,2.202,0.427,2.957,1.28c0.755,0.854,1.133,1.984,1.133,3.393v0.211
		c0,0.885-0.171,1.68-0.512,2.386c-0.34,0.708-0.822,1.252-1.44,1.635c-0.62,0.383-1.327,0.575-2.121,0.575
		c-1.212,0-2.197-0.427-2.954-1.28c-0.757-0.853-1.136-1.984-1.136-3.391V122.776z M317.777,123.055c0,1.093,0.284,1.99,0.85,2.691
		c0.566,0.702,1.307,1.052,2.226,1.052c0.913,0,1.652-0.35,2.217-1.052c0.566-0.701,0.847-1.626,0.847-2.775v-0.194
		c0-0.699-0.129-1.337-0.388-1.918c-0.259-0.58-0.622-1.03-1.091-1.348c-0.466-0.319-1.001-0.478-1.604-0.478
		c-0.901,0-1.636,0.354-2.204,1.06c-0.57,0.708-0.854,1.633-0.854,2.775V123.055z"/>
	<path fill="#878787" d="M327.974,118.34l0.034,1.563c0.343-0.562,0.771-0.993,1.285-1.288c0.511-0.295,1.077-0.444,1.697-0.444
		c0.98,0,1.71,0.276,2.188,0.828c0.48,0.552,0.721,1.38,0.728,2.484v5.998H332.9v-6.007c-0.007-0.817-0.18-1.424-0.521-1.824
		c-0.34-0.4-0.886-0.601-1.634-0.601c-0.626,0-1.179,0.196-1.661,0.587c-0.482,0.392-0.838,0.919-1.068,1.584v6.26h-1.005v-9.141
		H327.974z"/>
	<path fill="#878787" d="M341.988,125.158c0-0.501-0.201-0.904-0.604-1.208c-0.401-0.304-1.01-0.542-1.821-0.714
		c-0.809-0.171-1.44-0.368-1.886-0.59c-0.448-0.223-0.782-0.495-0.998-0.816c-0.216-0.321-0.324-0.71-0.324-1.166
		c0-0.721,0.302-1.316,0.904-1.787c0.602-0.47,1.375-0.705,2.314-0.705c1.021,0,1.839,0.252,2.454,0.756
		c0.617,0.505,0.926,1.162,0.926,1.973h-1.014c0-0.535-0.223-0.98-0.672-1.334c-0.448-0.355-1.012-0.533-1.695-0.533
		c-0.665,0-1.199,0.148-1.6,0.444c-0.403,0.295-0.604,0.679-0.604,1.153c0,0.456,0.167,0.81,0.502,1.06
		c0.334,0.251,0.946,0.48,1.832,0.688c0.888,0.208,1.553,0.432,1.994,0.668c0.442,0.237,0.771,0.52,0.985,0.853
		c0.214,0.332,0.32,0.735,0.32,1.208c0,0.772-0.311,1.388-0.933,1.85c-0.622,0.462-1.436,0.693-2.438,0.693
		c-1.064,0-1.927-0.258-2.589-0.773c-0.66-0.515-0.992-1.167-0.992-1.956h1.014c0.038,0.592,0.288,1.052,0.748,1.381
		c0.457,0.329,1.064,0.495,1.819,0.495c0.705,0,1.273-0.155,1.708-0.465C341.772,126.022,341.988,125.631,341.988,125.158z"/>
	<path fill="#878787" d="M348.814,127.651c-0.777,0-1.478-0.192-2.107-0.575c-0.629-0.383-1.115-0.916-1.465-1.601
		c-0.349-0.684-0.525-1.451-0.525-2.302v-0.363c0-0.879,0.171-1.67,0.512-2.374c0.34-0.704,0.816-1.258,1.424-1.66
		c0.608-0.403,1.266-0.605,1.976-0.605c1.109,0,1.99,0.38,2.639,1.137c0.651,0.757,0.976,1.793,0.976,3.104v0.567h-6.522v0.194
		c0,1.037,0.297,1.9,0.892,2.589c0.593,0.691,1.341,1.035,2.242,1.035c0.541,0,1.019-0.099,1.433-0.296
		c0.412-0.197,0.789-0.513,1.127-0.946l0.633,0.482C351.306,127.113,350.229,127.651,348.814,127.651z M348.629,119.033
		c-0.762,0-1.402,0.279-1.922,0.836c-0.521,0.558-0.838,1.307-0.951,2.248h5.483v-0.11c-0.027-0.878-0.277-1.593-0.75-2.145
		C350.015,119.309,349.396,119.033,348.629,119.033z"/>
	<path fill="#878787" d="M354.155,115.7c0-0.19,0.061-0.35,0.185-0.482c0.124-0.132,0.293-0.197,0.507-0.197
		c0.214,0,0.385,0.065,0.512,0.197c0.126,0.132,0.189,0.292,0.189,0.482c0,0.19-0.063,0.35-0.189,0.479
		c-0.126,0.128-0.298,0.193-0.512,0.193c-0.214,0-0.383-0.064-0.507-0.193C354.216,116.051,354.155,115.891,354.155,115.7z
		 M355.345,127.482h-1.012v-9.141h1.012V127.482z"/>
	<path fill="#878787" d="M359.223,127.482h-1.014v-12.977h1.014V127.482z"/>
	<path fill="#878787" d="M369.715,127.651c-0.777,0-1.478-0.192-2.107-0.575c-0.629-0.383-1.115-0.916-1.465-1.601
		c-0.349-0.684-0.525-1.451-0.525-2.302v-0.363c0-0.879,0.171-1.67,0.512-2.374c0.34-0.704,0.816-1.258,1.424-1.66
		c0.608-0.403,1.266-0.605,1.976-0.605c1.109,0,1.99,0.38,2.639,1.137c0.651,0.757,0.976,1.793,0.976,3.104v0.567h-6.522v0.194
		c0,1.037,0.297,1.9,0.892,2.589c0.593,0.691,1.341,1.035,2.242,1.035c0.541,0,1.019-0.099,1.433-0.296
		c0.412-0.197,0.789-0.513,1.127-0.946l0.633,0.482C372.208,127.113,371.13,127.651,369.715,127.651z M369.53,119.033
		c-0.762,0-1.402,0.279-1.922,0.836c-0.52,0.558-0.838,1.307-0.951,2.248h5.483v-0.11c-0.027-0.878-0.277-1.593-0.75-2.145
		C370.916,119.309,370.297,119.033,369.53,119.033z M370.653,114.505h1.226l-1.952,2.366l-0.888-0.005L370.653,114.505z"/>
	<path fill="#878787" d="M376.077,118.34l0.034,1.563c0.343-0.562,0.771-0.993,1.284-1.288c0.511-0.295,1.077-0.444,1.697-0.444
		c0.98,0,1.71,0.276,2.188,0.828c0.48,0.552,0.721,1.38,0.728,2.484v5.998h-1.005v-6.007c-0.007-0.817-0.18-1.424-0.521-1.824
		c-0.34-0.4-0.886-0.601-1.634-0.601c-0.626,0-1.179,0.196-1.661,0.587c-0.482,0.392-0.838,0.919-1.068,1.584v6.26h-1.005v-9.141
		H376.077z"/>
	<path fill="#878787" d="M388.158,127.651c-0.777,0-1.481-0.192-2.107-0.575c-0.629-0.383-1.118-0.916-1.467-1.601
		c-0.349-0.684-0.523-1.451-0.523-2.302v-0.363c0-0.879,0.169-1.67,0.509-2.374c0.343-0.704,0.816-1.258,1.424-1.66
		c0.608-0.403,1.266-0.605,1.976-0.605c1.111,0,1.99,0.38,2.641,1.137c0.651,0.757,0.976,1.793,0.976,3.104v0.567h-6.521v0.194
		c0,1.037,0.297,1.9,0.89,2.589c0.595,0.691,1.343,1.035,2.244,1.035c0.541,0,1.016-0.099,1.431-0.296
		c0.415-0.197,0.791-0.513,1.129-0.946l0.633,0.482C390.65,127.113,389.57,127.651,388.158,127.651z M387.971,119.033
		c-0.759,0-1.399,0.279-1.92,0.836c-0.523,0.558-0.838,1.307-0.951,2.248h5.483v-0.11c-0.029-0.878-0.279-1.593-0.753-2.145
		C389.356,119.309,388.737,119.033,387.971,119.033z"/>
	<path fill="#878787" d="M397.78,119.202c-0.214-0.039-0.442-0.058-0.685-0.058c-0.631,0-1.163,0.176-1.6,0.527
		c-0.437,0.353-0.748,0.863-0.933,1.533v6.277h-1.005v-9.141h0.987l0.018,1.453c0.534-1.082,1.393-1.622,2.576-1.622
		c0.282,0,0.505,0.037,0.667,0.11L397.78,119.202z"/>
	<path fill="#878787" d="M398.812,122.827c0-1.431,0.315-2.564,0.949-3.4c0.635-0.836,1.494-1.255,2.583-1.255
		c1.244,0,2.19,0.496,2.837,1.487l0.052-1.318h0.946v8.955c0,1.177-0.331,2.109-0.989,2.797c-0.658,0.687-1.553,1.031-2.677,1.031
		c-0.638,0-1.244-0.143-1.821-0.427c-0.577-0.285-1.032-0.664-1.366-1.137l0.566-0.607c0.717,0.878,1.566,1.317,2.553,1.317
		c0.845,0,1.503-0.249,1.976-0.747c0.473-0.499,0.719-1.19,0.735-2.074v-1.149c-0.647,0.901-1.591,1.352-2.83,1.352
		c-1.059,0-1.909-0.423-2.551-1.268c-0.642-0.844-0.962-1.985-0.962-3.421V122.827z M399.833,123.004
		c0,1.166,0.234,2.086,0.701,2.758c0.469,0.674,1.127,1.01,1.978,1.01c1.244,0,2.125-0.558,2.643-1.672v-4.25
		c-0.237-0.586-0.577-1.032-1.023-1.339c-0.444-0.308-0.978-0.461-1.604-0.461c-0.85,0-1.512,0.334-1.985,1.002
		C400.069,120.719,399.833,121.702,399.833,123.004z"/>
	<path fill="#878787" d="M412.353,127.651c-0.777,0-1.481-0.192-2.107-0.575c-0.629-0.383-1.118-0.916-1.467-1.601
		c-0.349-0.684-0.523-1.451-0.523-2.302v-0.363c0-0.879,0.169-1.67,0.509-2.374c0.343-0.704,0.816-1.258,1.424-1.66
		c0.608-0.403,1.266-0.605,1.976-0.605c1.111,0,1.99,0.38,2.641,1.137c0.651,0.757,0.976,1.793,0.976,3.104v0.567h-6.522v0.194
		c0,1.037,0.297,1.9,0.89,2.589c0.595,0.691,1.343,1.035,2.244,1.035c0.541,0,1.016-0.099,1.431-0.296
		c0.415-0.197,0.791-0.513,1.129-0.946l0.633,0.482C414.845,127.113,413.766,127.651,412.353,127.651z M412.166,119.033
		c-0.759,0-1.399,0.279-1.92,0.836c-0.523,0.558-0.838,1.307-0.951,2.248h5.483v-0.11c-0.029-0.878-0.279-1.593-0.753-2.145
		C413.552,119.309,412.932,119.033,412.166,119.033z M413.291,114.505h1.226l-1.951,2.366l-0.888-0.005L413.291,114.505z"/>
	<path fill="#878787" d="M419.323,116v2.34h1.893v0.828h-1.893v6.098c0,0.508,0.09,0.886,0.275,1.133
		c0.183,0.248,0.489,0.372,0.915,0.372c0.169,0,0.444-0.028,0.82-0.085l0.043,0.821c-0.266,0.095-0.626,0.142-1.082,0.142
		c-0.692,0-1.197-0.202-1.512-0.604c-0.316-0.402-0.473-0.996-0.473-1.778v-6.1h-1.681v-0.828h1.681V116H419.323z"/>
	<path fill="#878787" d="M423.251,115.7c0-0.19,0.061-0.35,0.185-0.482c0.124-0.132,0.293-0.197,0.507-0.197
		c0.214,0,0.385,0.065,0.512,0.197c0.126,0.132,0.189,0.292,0.189,0.482c0,0.19-0.063,0.35-0.189,0.479
		c-0.126,0.128-0.297,0.193-0.512,0.193c-0.214,0-0.383-0.064-0.507-0.193C423.312,116.051,423.251,115.891,423.251,115.7z
		 M424.441,127.482h-1.012v-9.141h1.012V127.482z"/>
	<path fill="#878787" d="M426.782,122.827c0-1.431,0.318-2.564,0.951-3.4c0.633-0.836,1.499-1.255,2.598-1.255
		c1.233,0,2.17,0.471,2.812,1.412l0.052-1.243h0.944v12.655h-1.012v-4.647c-0.665,0.868-1.605,1.301-2.815,1.301
		c-1.07,0-1.927-0.423-2.567-1.268c-0.642-0.844-0.964-1.985-0.964-3.421V122.827z M427.805,123.004c0,1.183,0.237,2.11,0.714,2.784
		c0.475,0.673,1.136,1.01,1.981,1.01c1.21,0,2.087-0.527,2.628-1.58v-4.478c-0.255-0.546-0.604-0.968-1.052-1.263
		c-0.448-0.296-0.967-0.444-1.559-0.444c-0.85,0-1.514,0.337-1.994,1.01C428.044,120.717,427.805,121.702,427.805,123.004z"/>
	<path fill="#878787" d="M442.714,126.324c-0.608,0.885-1.58,1.326-2.914,1.326c-0.974,0-1.715-0.283-2.222-0.85
		c-0.507-0.566-0.766-1.403-0.778-2.513v-5.948h1.005v5.821c0,1.741,0.705,2.611,2.112,2.611c1.465,0,2.391-0.605,2.781-1.816
		v-6.615h1.014v9.141h-0.98L442.714,126.324z"/>
	<path fill="#878787" d="M449.878,127.651c-0.777,0-1.478-0.192-2.107-0.575c-0.629-0.383-1.115-0.916-1.465-1.601
		c-0.349-0.684-0.525-1.451-0.525-2.302v-0.363c0-0.879,0.171-1.67,0.512-2.374c0.34-0.704,0.816-1.258,1.424-1.66
		c0.608-0.403,1.266-0.605,1.976-0.605c1.109,0,1.99,0.38,2.639,1.137c0.651,0.757,0.976,1.793,0.976,3.104v0.567h-6.522v0.194
		c0,1.037,0.298,1.9,0.892,2.589c0.593,0.691,1.341,1.035,2.242,1.035c0.541,0,1.019-0.099,1.433-0.296
		c0.412-0.197,0.789-0.513,1.127-0.946l0.633,0.482C452.37,127.113,451.293,127.651,449.878,127.651z M449.693,119.033
		c-0.762,0-1.402,0.279-1.922,0.836c-0.521,0.558-0.838,1.307-0.951,2.248h5.483v-0.11c-0.027-0.878-0.277-1.593-0.75-2.145
		C451.079,119.309,450.459,119.033,449.693,119.033z"/>
</g>
<g enable-background="new    ">
	<path fill="#878787" d="M195.297,148.416c-0.777,0-1.479-0.192-2.107-0.575c-0.628-0.383-1.117-0.916-1.466-1.601
		c-0.349-0.684-0.523-1.451-0.523-2.302v-0.363c0-0.879,0.17-1.67,0.511-2.374c0.341-0.704,0.815-1.257,1.424-1.66
		c0.608-0.403,1.267-0.605,1.977-0.605c1.109,0,1.989,0.38,2.64,1.137c0.65,0.757,0.976,1.793,0.976,3.104v0.567h-6.522v0.194
		c0,1.037,0.297,1.9,0.891,2.589c0.594,0.691,1.342,1.036,2.243,1.036c0.541,0,1.018-0.099,1.432-0.296
		c0.414-0.197,0.79-0.513,1.128-0.947l0.634,0.482C197.789,147.879,196.711,148.416,195.297,148.416z M195.111,139.799
		c-0.761,0-1.401,0.279-1.922,0.836c-0.521,0.558-0.838,1.307-0.95,2.248h5.483v-0.111c-0.028-0.878-0.279-1.593-0.752-2.145
		C196.497,140.075,195.877,139.799,195.111,139.799z"/>
	<path fill="#878787" d="M202.267,136.766v2.34h1.892v0.828h-1.892v6.098c0,0.508,0.091,0.886,0.274,1.134
		c0.183,0.248,0.489,0.372,0.917,0.372c0.169,0,0.442-0.028,0.819-0.084l0.042,0.821c-0.265,0.095-0.625,0.142-1.081,0.142
		c-0.693,0-1.197-0.202-1.512-0.604c-0.315-0.402-0.473-0.996-0.473-1.778v-6.1h-1.681v-0.828h1.681v-2.34H202.267z"/>
	<path fill="#878787" d="M214.001,148.416c-0.777,0-1.479-0.192-2.108-0.575c-0.628-0.383-1.117-0.916-1.466-1.601
		c-0.349-0.684-0.523-1.451-0.523-2.302v-0.363c0-0.879,0.17-1.67,0.511-2.374c0.341-0.704,0.815-1.257,1.424-1.66
		c0.608-0.403,1.267-0.605,1.977-0.605c1.109,0,1.989,0.38,2.64,1.137c0.65,0.757,0.976,1.793,0.976,3.104v0.567h-6.522v0.194
		c0,1.037,0.297,1.9,0.891,2.589c0.594,0.691,1.342,1.036,2.243,1.036c0.541,0,1.018-0.099,1.432-0.296
		c0.414-0.197,0.79-0.513,1.128-0.947l0.634,0.482C216.493,147.879,215.415,148.416,214.001,148.416z M213.815,139.799
		c-0.761,0-1.401,0.279-1.922,0.836c-0.521,0.558-0.838,1.307-0.95,2.248h5.483v-0.111c-0.028-0.878-0.279-1.593-0.751-2.145
		C215.201,140.075,214.581,139.799,213.815,139.799z"/>
	<path fill="#878787" d="M220.363,139.106l0.034,1.563c0.343-0.562,0.771-0.993,1.284-1.288c0.513-0.295,1.078-0.444,1.698-0.444
		c0.98,0,1.709,0.276,2.188,0.828c0.479,0.552,0.721,1.38,0.727,2.484v5.998h-1.006v-6.007c-0.006-0.817-0.179-1.424-0.519-1.824
		c-0.341-0.4-0.886-0.601-1.635-0.601c-0.625,0-1.179,0.196-1.66,0.587c-0.482,0.392-0.838,0.919-1.069,1.584v6.26h-1.006v-9.141
		H220.363z"/>
	<path fill="#878787" d="M231.751,146.854l2.779-7.747h1.039l-3.413,9.141h-0.82l-3.43-9.141h1.039L231.751,146.854z"/>
	<path fill="#878787" d="M237.165,136.466c0-0.19,0.062-0.35,0.186-0.482c0.124-0.132,0.293-0.197,0.507-0.197
		c0.214,0,0.384,0.065,0.511,0.197c0.127,0.132,0.19,0.292,0.19,0.482c0,0.191-0.064,0.35-0.19,0.479
		c-0.127,0.128-0.297,0.193-0.511,0.193c-0.214,0-0.383-0.064-0.507-0.193C237.227,136.817,237.165,136.657,237.165,136.466z
		 M238.357,148.247h-1.014v-9.141h1.014V148.247z"/>
	<path fill="#878787" d="M245.327,139.968c-0.214-0.039-0.444-0.059-0.685-0.059c-0.631,0-1.165,0.176-1.601,0.527
		c-0.437,0.353-0.748,0.863-0.934,1.533v6.277h-1.006v-9.141h0.989l0.017,1.454c0.535-1.082,1.394-1.623,2.577-1.623
		c0.282,0,0.502,0.037,0.667,0.11L245.327,139.968z"/>
	<path fill="#878787" d="M246.197,143.542c0-0.879,0.17-1.67,0.51-2.374c0.341-0.704,0.823-1.252,1.446-1.643
		c0.622-0.392,1.327-0.588,2.116-0.588c1.216,0,2.202,0.427,2.957,1.28c0.755,0.854,1.132,1.984,1.132,3.393v0.211
		c0,0.884-0.171,1.68-0.512,2.386c-0.34,0.708-0.821,1.252-1.44,1.635c-0.62,0.383-1.326,0.575-2.121,0.575
		c-1.211,0-2.196-0.427-2.953-1.28c-0.757-0.853-1.136-1.984-1.136-3.392V143.542z M247.211,143.82c0,1.093,0.283,1.99,0.848,2.691
		c0.566,0.702,1.308,1.052,2.226,1.052c0.913,0,1.652-0.35,2.217-1.052c0.566-0.701,0.848-1.626,0.848-2.775v-0.194
		c0-0.699-0.13-1.337-0.388-1.918c-0.259-0.58-0.623-1.03-1.091-1.348c-0.468-0.319-1.002-0.478-1.605-0.478
		c-0.901,0-1.636,0.354-2.205,1.06c-0.569,0.708-0.853,1.633-0.853,2.775V143.82z"/>
	<path fill="#878787" d="M257.407,139.106l0.034,1.563c0.344-0.562,0.772-0.993,1.284-1.288c0.513-0.295,1.078-0.444,1.698-0.444
		c0.98,0,1.709,0.276,2.188,0.828s0.721,1.38,0.727,2.484v5.998h-1.005v-6.007c-0.006-0.817-0.179-1.424-0.519-1.824
		c-0.341-0.4-0.887-0.601-1.635-0.601c-0.625,0-1.179,0.196-1.661,0.587c-0.481,0.392-0.837,0.919-1.068,1.584v6.26h-1.005v-9.141
		H257.407z"/>
	<path fill="#878787" d="M266.911,139.106l0.034,1.563c0.344-0.562,0.772-0.993,1.284-1.288c0.513-0.295,1.078-0.444,1.698-0.444
		c0.98,0,1.709,0.276,2.188,0.828c0.479,0.552,0.721,1.38,0.727,2.484v5.998h-1.005v-6.007c-0.006-0.817-0.179-1.424-0.519-1.824
		c-0.341-0.4-0.887-0.601-1.635-0.601c-0.625,0-1.179,0.196-1.661,0.587c-0.481,0.392-0.837,0.919-1.068,1.584v6.26h-1.005v-9.141
		H266.911z"/>
	<path fill="#878787" d="M278.992,148.416c-0.778,0-1.48-0.192-2.107-0.575c-0.629-0.383-1.117-0.916-1.466-1.601
		c-0.349-0.684-0.524-1.451-0.524-2.302v-0.363c0-0.879,0.17-1.67,0.51-2.374c0.341-0.704,0.816-1.257,1.424-1.66
		c0.609-0.403,1.267-0.605,1.976-0.605c1.11,0,1.99,0.38,2.64,1.137c0.651,0.757,0.976,1.793,0.976,3.104v0.567H275.9v0.194
		c0,1.037,0.297,1.9,0.891,2.589c0.594,0.691,1.342,1.036,2.243,1.036c0.541,0,1.017-0.099,1.432-0.296
		c0.414-0.197,0.79-0.513,1.128-0.947l0.633,0.482C281.484,147.879,280.406,148.416,278.992,148.416z M278.806,139.799
		c-0.76,0-1.4,0.279-1.921,0.836c-0.522,0.558-0.838,1.307-0.951,2.248h5.483v-0.111c-0.028-0.878-0.278-1.593-0.751-2.145
		C280.192,140.075,279.572,139.799,278.806,139.799z"/>
	<path fill="#878787" d="M285.311,139.106l0.034,1.487c0.338-0.552,0.761-0.966,1.268-1.242c0.506-0.276,1.069-0.415,1.689-0.415
		c1.442,0,2.357,0.592,2.746,1.775c0.327-0.569,0.763-1.006,1.309-1.314c0.546-0.306,1.149-0.461,1.808-0.461
		c1.959,0,2.959,1.07,2.998,3.211v6.099h-1.013v-6.024c-0.006-0.817-0.183-1.422-0.528-1.816c-0.346-0.394-0.912-0.592-1.694-0.592
		c-0.727,0.011-1.341,0.247-1.842,0.705c-0.501,0.46-0.78,1.019-0.836,1.678v6.048h-1.014v-6.099
		c-0.006-0.783-0.19-1.368-0.553-1.753c-0.363-0.387-0.923-0.579-1.677-0.579c-0.637,0-1.183,0.181-1.639,0.545
		c-0.456,0.363-0.794,0.903-1.014,1.618v6.268h-1.013v-9.141H285.311z"/>
	<path fill="#878787" d="M303.262,148.416c-0.777,0-1.478-0.192-2.106-0.575c-0.629-0.383-1.117-0.916-1.466-1.601
		c-0.349-0.684-0.524-1.451-0.524-2.302v-0.363c0-0.879,0.17-1.67,0.51-2.374c0.341-0.704,0.816-1.257,1.424-1.66
		c0.609-0.403,1.267-0.605,1.977-0.605c1.109,0,1.99,0.38,2.639,1.137c0.651,0.757,0.976,1.793,0.976,3.104v0.567h-6.521v0.194
		c0,1.037,0.297,1.9,0.891,2.589c0.594,0.691,1.341,1.036,2.243,1.036c0.541,0,1.019-0.099,1.433-0.296
		c0.412-0.197,0.789-0.513,1.127-0.947l0.633,0.482C305.755,147.879,304.678,148.416,303.262,148.416z M303.078,139.799
		c-0.762,0-1.401,0.279-1.922,0.836c-0.522,0.558-0.838,1.307-0.951,2.248h5.482v-0.111c-0.027-0.878-0.277-1.593-0.75-2.145
		C304.463,140.075,303.844,139.799,303.078,139.799z"/>
	<path fill="#878787" d="M309.624,139.106l0.034,1.563c0.345-0.562,0.773-0.993,1.285-1.288c0.514-0.295,1.079-0.444,1.699-0.444
		c0.98,0,1.708,0.276,2.188,0.828c0.478,0.552,0.721,1.38,0.726,2.484v5.998h-1.005v-6.007c-0.005-0.817-0.178-1.424-0.518-1.824
		c-0.343-0.4-0.888-0.601-1.636-0.601c-0.624,0-1.179,0.196-1.661,0.587c-0.48,0.392-0.836,0.919-1.068,1.584v6.26h-1.005v-9.141
		H309.624z"/>
	<path fill="#878787" d="M319.738,136.766v2.34h1.893v0.828h-1.893v6.098c0,0.508,0.09,0.886,0.275,1.134
		c0.183,0.248,0.489,0.372,0.915,0.372c0.169,0,0.444-0.028,0.82-0.084l0.043,0.821c-0.266,0.095-0.626,0.142-1.082,0.142
		c-0.692,0-1.197-0.202-1.512-0.604c-0.316-0.402-0.473-0.996-0.473-1.778v-6.1h-1.681v-0.828h1.681v-2.34H319.738z"/>
	<path fill="#878787" d="M329.495,148.247c-0.101-0.287-0.167-0.712-0.196-1.275c-0.354,0.462-0.807,0.818-1.354,1.068
		c-0.55,0.251-1.131,0.376-1.744,0.376c-0.879,0-1.591-0.244-2.134-0.735s-0.816-1.11-0.816-1.859c0-0.89,0.37-1.593,1.111-2.112
		c0.741-0.518,1.773-0.777,3.096-0.777h1.834v-1.039c0-0.654-0.203-1.167-0.604-1.542c-0.403-0.374-0.992-0.561-1.762-0.561
		c-0.705,0-1.287,0.18-1.749,0.541c-0.462,0.359-0.694,0.793-0.694,1.3l-1.012-0.008c0-0.727,0.338-1.357,1.012-1.888
		c0.676-0.532,1.508-0.799,2.492-0.799c1.021,0,1.825,0.256,2.413,0.765c0.588,0.509,0.89,1.22,0.908,2.133v4.326
		c0,0.884,0.092,1.546,0.277,1.985v0.101H329.495z M326.318,147.521c0.676,0,1.28-0.163,1.812-0.49
		c0.532-0.327,0.919-0.763,1.163-1.309v-2.01h-1.81c-1.007,0.011-1.796,0.195-2.364,0.553c-0.57,0.357-0.854,0.848-0.854,1.474
		c0,0.513,0.189,0.937,0.57,1.275C325.216,147.352,325.709,147.521,326.318,147.521z"/>
	<path fill="#878787" d="M334.124,148.247h-1.014v-12.977h1.014V148.247z"/>
</g>
<g>
	
		<linearGradient id="SVGID_3_" gradientUnits="userSpaceOnUse" x1="55.4089" y1="418.7672" x2="56.387" y2="359.4879" gradientTransform="matrix(2.1001 0 0 -2.1001 94.3405 899.3843)">
		<stop  offset="0" style="stop-color:#96C222"/>
		<stop  offset="1" style="stop-color:#3EAB37"/>
	</linearGradient>
	<path fill="url(#SVGID_3_)" d="M229.469,53.649c0.243,0.752,0.412,1.357,0.46,1.794c0.074,0.435-0.023,0.775-0.241,0.994
		c-0.243,0.217-0.631,0.363-1.212,0.411s-1.381,0.073-2.422,0.073c-1.066,0-1.891-0.025-2.497-0.05
		c-0.604-0.024-1.041-0.097-1.357-0.194c-0.313-0.097-0.532-0.217-0.653-0.388c-0.122-0.169-0.241-0.388-0.315-0.653l-2.713-8.142
		h-15.215l-2.569,7.923c-0.072,0.291-0.194,0.533-0.34,0.727c-0.144,0.195-0.363,0.364-0.653,0.461
		c-0.315,0.122-0.728,0.194-1.285,0.242c-0.557,0.048-1.284,0.073-2.181,0.073c-0.969,0-1.719-0.025-2.253-0.097
		c-0.532-0.073-0.919-0.219-1.138-0.462c-0.219-0.241-0.291-0.581-0.219-1.016c0.074-0.437,0.219-1.019,0.462-1.744l12.502-35.959
		c0.122-0.363,0.266-0.654,0.435-0.872c0.171-0.217,0.437-0.388,0.8-0.508c0.363-0.121,0.872-0.195,1.528-0.217
		c0.654-0.025,1.501-0.049,2.567-0.049c1.237,0,2.206,0.025,2.957,0.049c0.728,0.023,1.309,0.097,1.697,0.217
		c0.412,0.121,0.703,0.291,0.872,0.508c0.169,0.243,0.338,0.534,0.46,0.945L229.469,53.649z M210.86,23.919h-0.023l-5.744,17.228
		h11.511L210.86,23.919z"/>
	
		<linearGradient id="SVGID_4_" gradientUnits="userSpaceOnUse" x1="75.5584" y1="419.0998" x2="76.5366" y2="359.8185" gradientTransform="matrix(2.1001 0 0 -2.1001 94.3405 899.3843)">
		<stop  offset="0" style="stop-color:#96C222"/>
		<stop  offset="1" style="stop-color:#3EAB37"/>
	</linearGradient>
	<path fill="url(#SVGID_4_)" d="M268.213,44.563c0,1.43-0.194,2.738-0.606,3.926c-0.388,1.163-0.944,2.204-1.647,3.101
		c-0.703,0.897-1.528,1.672-2.497,2.327c-0.969,0.655-2.035,1.186-3.223,1.599c-1.163,0.412-2.422,0.728-3.754,0.922
		c-1.334,0.194-2.812,0.291-4.435,0.291h-10.783c-0.678,0-1.26-0.194-1.744-0.606c-0.46-0.412-0.703-1.066-0.703-1.988v-35.35
		c0-0.922,0.243-1.575,0.703-1.988c0.462-0.412,1.043-0.606,1.744-0.606h10.177c2.497,0,4.579,0.219,6.325,0.631
		c1.719,0.411,3.173,1.041,4.36,1.888c1.188,0.85,2.084,1.916,2.713,3.224c0.631,1.283,0.946,2.811,0.946,4.579
		c0,0.994-0.122,1.914-0.365,2.762c-0.241,0.873-0.606,1.648-1.091,2.375c-0.485,0.703-1.066,1.333-1.767,1.891
		c-0.703,0.532-1.503,0.993-2.4,1.308c1.138,0.217,2.206,0.581,3.175,1.09c0.969,0.534,1.816,1.188,2.544,2.012
		c0.726,0.823,1.282,1.791,1.695,2.907C268.019,41.947,268.213,43.182,268.213,44.563z M257.577,27.482
		c0-0.825-0.122-1.551-0.365-2.206c-0.241-0.654-0.629-1.188-1.138-1.622c-0.509-0.437-1.138-0.752-1.891-0.994
		c-0.75-0.219-1.769-0.339-3.053-0.339h-4.167v10.516h4.604c1.188,0,2.132-0.145,2.86-0.412c0.703-0.291,1.307-0.678,1.769-1.163
		c0.46-0.484,0.823-1.066,1.041-1.719C257.455,28.911,257.577,28.207,257.577,27.482z M259.659,44.829
		c0-0.944-0.144-1.768-0.46-2.519c-0.316-0.75-0.775-1.357-1.381-1.866c-0.606-0.509-1.381-0.897-2.326-1.163
		c-0.944-0.266-2.157-0.412-3.66-0.412h-4.895v11.533h5.96c1.14,0,2.109-0.121,2.909-0.363c0.775-0.242,1.454-0.606,2.035-1.066
		c0.581-0.46,1.016-1.066,1.357-1.744C259.515,46.551,259.659,45.751,259.659,44.829z"/>
	
		<linearGradient id="SVGID_5_" gradientUnits="userSpaceOnUse" x1="98.7719" y1="419.483" x2="99.75" y2="360.2022" gradientTransform="matrix(2.1001 0 0 -2.1001 94.3405 899.3843)">
		<stop  offset="0" style="stop-color:#96C222"/>
		<stop  offset="1" style="stop-color:#3EAB37"/>
	</linearGradient>
	<path fill="url(#SVGID_5_)" d="M325.807,55.587c0,0.219-0.049,0.388-0.169,0.559c-0.122,0.169-0.316,0.314-0.631,0.411
		c-0.315,0.097-0.703,0.194-1.212,0.242c-0.507,0.072-1.138,0.097-1.913,0.097c-0.75,0-1.381-0.025-1.891-0.097
		c-0.507-0.072-0.895-0.145-1.185-0.242c-0.293-0.097-0.509-0.242-0.631-0.411c-0.122-0.171-0.194-0.365-0.194-0.559v-33h-0.072
		L306.157,55.54c-0.072,0.266-0.219,0.484-0.412,0.678c-0.194,0.169-0.435,0.315-0.775,0.412c-0.315,0.097-0.728,0.169-1.235,0.194
		c-0.509,0.024-1.115,0.047-1.819,0.047c-0.703,0-1.307-0.024-1.816-0.072c-0.509-0.048-0.922-0.145-1.237-0.242
		c-0.313-0.121-0.581-0.267-0.775-0.412c-0.194-0.17-0.313-0.364-0.388-0.605L286.36,22.587h-0.072v33
		c0,0.219-0.05,0.388-0.169,0.559c-0.122,0.169-0.34,0.314-0.656,0.411c-0.313,0.097-0.726,0.194-1.21,0.242
		c-0.484,0.072-1.115,0.097-1.891,0.097c-0.75,0-1.381-0.025-1.891-0.097c-0.507-0.072-0.895-0.145-1.21-0.242
		c-0.291-0.097-0.509-0.242-0.631-0.411c-0.122-0.171-0.169-0.365-0.169-0.559V19.462c0-1.067,0.291-1.891,0.847-2.447
		c0.559-0.558,1.309-0.848,2.253-0.848h5.379c0.969,0,1.794,0.073,2.472,0.242c0.678,0.145,1.285,0.412,1.794,0.775
		c0.507,0.363,0.919,0.847,1.26,1.454c0.338,0.606,0.629,1.333,0.872,2.205l8.771,24.157h0.122l9.086-24.084
		c0.266-0.872,0.557-1.624,0.897-2.229c0.315-0.606,0.703-1.091,1.138-1.478c0.437-0.388,0.946-0.655,1.528-0.8
		c0.581-0.145,1.26-0.242,2.035-0.242h5.548c0.557,0,1.041,0.073,1.454,0.217c0.412,0.146,0.753,0.364,0.994,0.655
		c0.266,0.291,0.46,0.63,0.606,1.042c0.144,0.411,0.194,0.872,0.194,1.405v36.102H325.807z"/>
</g>
<g>
	
		<linearGradient id="SVGID_6_" gradientUnits="userSpaceOnUse" x1="50.0376" y1="397.3259" x2="50.0376" y2="375.2656" gradientTransform="matrix(2.1001 0 0 -2.1001 94.3405 899.3843)">
		<stop  offset="0" style="stop-color:#96C222"/>
		<stop  offset="1" style="stop-color:#3EAB37"/>
	</linearGradient>
	<path fill="url(#SVGID_6_)" d="M208.196,85.051c0,0.606-0.147,1.066-0.412,1.357c-0.268,0.291-0.656,0.437-1.14,0.437h-10.83
		c0,0.75,0.097,1.454,0.266,2.06c0.171,0.629,0.462,1.138,0.85,1.575c0.388,0.435,0.897,0.75,1.526,0.992
		c0.631,0.219,1.357,0.34,2.229,0.34c0.872,0,1.647-0.072,2.303-0.194c0.678-0.122,1.235-0.266,1.719-0.412
		c0.484-0.144,0.897-0.291,1.212-0.412c0.315-0.119,0.581-0.194,0.775-0.194c0.122,0,0.219,0.025,0.291,0.074
		c0.072,0.047,0.144,0.119,0.194,0.241c0.047,0.122,0.097,0.291,0.122,0.509c0.023,0.219,0.023,0.484,0.023,0.822
		c0,0.293,0,0.534-0.023,0.753c-0.025,0.219-0.025,0.388-0.074,0.532c-0.022,0.147-0.072,0.268-0.119,0.365
		c-0.05,0.097-0.122,0.194-0.219,0.291c-0.097,0.097-0.315,0.216-0.703,0.388c-0.388,0.169-0.872,0.313-1.478,0.46
		c-0.606,0.146-1.285,0.291-2.06,0.388c-0.775,0.122-1.598,0.169-2.47,0.169c-1.575,0-2.981-0.194-4.169-0.604
		c-1.187-0.39-2.181-0.994-2.979-1.818c-0.8-0.823-1.406-1.841-1.794-3.076c-0.388-1.237-0.581-2.691-0.581-4.363
		c0-1.575,0.219-3.004,0.629-4.288c0.412-1.285,1.019-2.35,1.794-3.223c0.775-0.897,1.744-1.55,2.86-2.035
		c1.115-0.462,2.398-0.703,3.804-0.703c1.478,0,2.763,0.219,3.829,0.654c1.066,0.437,1.938,1.043,2.616,1.819
		c0.678,0.775,1.188,1.695,1.503,2.76c0.315,1.068,0.484,2.231,0.484,3.466v0.872H208.196z M203.324,83.598
		c0.05-1.406-0.241-2.519-0.847-3.319c-0.606-0.8-1.55-1.212-2.81-1.212c-0.631,0-1.188,0.122-1.672,0.365
		c-0.46,0.241-0.872,0.557-1.188,0.969c-0.315,0.41-0.557,0.872-0.728,1.429c-0.169,0.557-0.266,1.138-0.291,1.769H203.324
		L203.324,83.598z M200.489,67.921c0.097-0.144,0.219-0.266,0.34-0.388c0.144-0.097,0.291-0.194,0.509-0.241
		c0.194-0.073,0.46-0.097,0.75-0.122c0.316-0.025,0.678-0.05,1.115-0.05c0.604,0,1.088,0.025,1.454,0.074
		c0.363,0.047,0.606,0.12,0.75,0.217c0.146,0.097,0.219,0.217,0.219,0.339c-0.025,0.145-0.072,0.266-0.194,0.412l-3.878,4.626
		c-0.097,0.122-0.216,0.243-0.313,0.34c-0.122,0.097-0.243,0.144-0.412,0.219c-0.169,0.047-0.363,0.097-0.631,0.12
		c-0.241,0.025-0.581,0.05-0.969,0.05c-0.46,0-0.823-0.025-1.113-0.05c-0.268-0.047-0.462-0.097-0.559-0.194
		c-0.097-0.097-0.144-0.194-0.119-0.338c0.023-0.146,0.097-0.291,0.216-0.46L200.489,67.921z"/>
	
		<linearGradient id="SVGID_7_" gradientUnits="userSpaceOnUse" x1="61.3495" y1="397.3245" x2="61.3495" y2="375.267" gradientTransform="matrix(2.1001 0 0 -2.1001 94.3405 899.3843)">
		<stop  offset="0" style="stop-color:#96C222"/>
		<stop  offset="1" style="stop-color:#3EAB37"/>
	</linearGradient>
	<path fill="url(#SVGID_7_)" d="M231.698,94.453c0,0.144-0.047,0.241-0.122,0.338c-0.072,0.097-0.216,0.194-0.388,0.243
		c-0.194,0.072-0.435,0.122-0.775,0.146c-0.338,0.022-0.726,0.047-1.21,0.047c-0.484,0-0.897-0.025-1.237-0.047
		c-0.313-0.025-0.581-0.074-0.775-0.146c-0.194-0.072-0.313-0.147-0.388-0.243c-0.072-0.097-0.12-0.216-0.12-0.338V84.301
		c0-0.872-0.074-1.55-0.196-2.035c-0.119-0.485-0.313-0.922-0.557-1.262c-0.241-0.338-0.557-0.629-0.919-0.823
		c-0.388-0.194-0.825-0.291-1.334-0.291c-0.629,0-1.285,0.241-1.938,0.703c-0.654,0.46-1.332,1.138-2.035,2.035v11.824
		c0,0.144-0.05,0.241-0.122,0.338s-0.219,0.194-0.412,0.243c-0.194,0.072-0.435,0.122-0.775,0.146
		c-0.315,0.022-0.726,0.047-1.21,0.047c-0.484,0-0.897-0.025-1.212-0.047c-0.315-0.025-0.581-0.074-0.775-0.146
		c-0.194-0.072-0.34-0.147-0.412-0.243c-0.072-0.097-0.122-0.216-0.122-0.338V76.644c0-0.122,0.025-0.243,0.097-0.34
		c0.074-0.097,0.194-0.194,0.365-0.241c0.169-0.072,0.388-0.122,0.678-0.147c0.266-0.022,0.629-0.047,1.016-0.047
		c0.437,0,0.775,0.025,1.066,0.047c0.291,0.025,0.485,0.074,0.656,0.147c0.144,0.072,0.266,0.144,0.338,0.241
		s0.097,0.219,0.097,0.34v2.06c0.994-1.066,1.988-1.866,3.006-2.4c1.016-0.532,2.082-0.798,3.173-0.798
		c1.212,0,2.229,0.194,3.053,0.604c0.823,0.412,1.501,0.946,2.01,1.625c0.509,0.678,0.872,1.478,1.115,2.398
		c0.219,0.922,0.338,2.012,0.338,3.319v11.002H231.698z"/>
	
		<linearGradient id="SVGID_8_" gradientUnits="userSpaceOnUse" x1="72.5354" y1="397.3255" x2="72.5354" y2="375.2659" gradientTransform="matrix(2.1001 0 0 -2.1001 94.3405 899.3843)">
		<stop  offset="0" style="stop-color:#96C222"/>
		<stop  offset="1" style="stop-color:#3EAB37"/>
	</linearGradient>
	<path fill="url(#SVGID_8_)" d="M255.443,85.051c0,0.606-0.144,1.066-0.41,1.357c-0.268,0.291-0.656,0.437-1.14,0.437h-10.83
		c0,0.75,0.097,1.454,0.266,2.06c0.169,0.629,0.462,1.138,0.85,1.575c0.388,0.435,0.895,0.75,1.526,0.992
		c0.631,0.219,1.357,0.34,2.229,0.34c0.872,0,1.647-0.072,2.303-0.194c0.678-0.122,1.235-0.266,1.719-0.412
		c0.484-0.144,0.897-0.291,1.212-0.412c0.313-0.119,0.581-0.194,0.775-0.194c0.12,0,0.219,0.025,0.291,0.074
		c0.072,0.047,0.144,0.119,0.194,0.241c0.047,0.122,0.097,0.291,0.122,0.509c0.023,0.219,0.023,0.484,0.023,0.822
		c0,0.293,0,0.534-0.023,0.753c-0.025,0.219-0.025,0.388-0.074,0.532c-0.023,0.147-0.072,0.268-0.119,0.365
		c-0.05,0.097-0.122,0.194-0.219,0.291c-0.097,0.097-0.315,0.216-0.703,0.388c-0.388,0.169-0.872,0.313-1.478,0.46
		c-0.606,0.146-1.285,0.291-2.06,0.388c-0.775,0.122-1.6,0.169-2.472,0.169c-1.575,0-2.979-0.194-4.167-0.604
		c-1.188-0.39-2.181-0.994-2.979-1.818c-0.8-0.823-1.406-1.841-1.794-3.076c-0.388-1.237-0.581-2.691-0.581-4.363
		c0-1.575,0.219-3.004,0.629-4.288c0.412-1.285,1.019-2.35,1.794-3.223c0.775-0.897,1.744-1.55,2.86-2.035
		c1.113-0.485,2.398-0.703,3.804-0.703c1.478,0,2.763,0.219,3.829,0.654c1.066,0.437,1.938,1.043,2.616,1.819
		c0.678,0.775,1.188,1.695,1.503,2.76c0.313,1.068,0.484,2.231,0.484,3.466v0.872H255.443z M250.573,83.598
		c0.05-1.406-0.241-2.519-0.847-3.319c-0.606-0.8-1.55-1.212-2.81-1.212c-0.631,0-1.188,0.122-1.672,0.365
		c-0.462,0.241-0.872,0.557-1.188,0.969c-0.316,0.41-0.559,0.872-0.728,1.429c-0.169,0.557-0.266,1.138-0.291,1.769H250.573
		L250.573,83.598z"/>
	
		<linearGradient id="SVGID_9_" gradientUnits="userSpaceOnUse" x1="82.5097" y1="397.3256" x2="82.5097" y2="375.2656" gradientTransform="matrix(2.1001 0 0 -2.1001 94.3405 899.3843)">
		<stop  offset="0" style="stop-color:#96C222"/>
		<stop  offset="1" style="stop-color:#3EAB37"/>
	</linearGradient>
	<path fill="url(#SVGID_9_)" d="M273.373,78.316c0,0.484-0.025,0.872-0.047,1.163c-0.025,0.316-0.074,0.557-0.122,0.728
		c-0.05,0.169-0.122,0.291-0.219,0.363c-0.097,0.072-0.194,0.097-0.34,0.097c-0.097,0-0.216-0.025-0.363-0.072
		c-0.144-0.049-0.291-0.097-0.46-0.146c-0.169-0.047-0.34-0.097-0.557-0.144c-0.194-0.05-0.412-0.074-0.656-0.074
		c-0.291,0-0.557,0.05-0.847,0.171c-0.291,0.119-0.557,0.291-0.872,0.532c-0.291,0.243-0.606,0.557-0.944,0.969
		c-0.315,0.388-0.681,0.897-1.043,1.478v11.098c0,0.144-0.047,0.241-0.122,0.338c-0.072,0.097-0.216,0.194-0.41,0.243
		c-0.194,0.072-0.437,0.122-0.775,0.144c-0.315,0.025-0.728,0.05-1.212,0.05c-0.484,0-0.897-0.025-1.212-0.05
		c-0.313-0.022-0.581-0.072-0.775-0.144c-0.194-0.072-0.338-0.146-0.412-0.243c-0.072-0.097-0.119-0.219-0.119-0.338V76.669
		c0-0.122,0.023-0.243,0.097-0.34c0.072-0.097,0.194-0.194,0.363-0.241c0.169-0.074,0.388-0.122,0.678-0.147
		c0.266-0.025,0.631-0.047,1.019-0.047c0.435,0,0.775,0.022,1.066,0.047c0.291,0.025,0.484,0.072,0.654,0.147
		c0.147,0.072,0.266,0.144,0.34,0.241c0.072,0.097,0.097,0.219,0.097,0.34v2.204c0.46-0.653,0.895-1.21,1.307-1.647
		c0.412-0.435,0.8-0.775,1.188-1.016c0.388-0.243,0.75-0.437,1.115-0.534c0.363-0.097,0.75-0.147,1.113-0.147
		c0.171,0,0.365,0,0.559,0.025c0.194,0.025,0.41,0.05,0.629,0.097c0.219,0.049,0.388,0.097,0.557,0.169
		c0.171,0.049,0.268,0.122,0.34,0.194c0.072,0.074,0.122,0.147,0.169,0.219c0.025,0.074,0.072,0.194,0.097,0.34
		c0.025,0.144,0.049,0.338,0.072,0.629C273.373,77.468,273.373,77.831,273.373,78.316z"/>
	
		<linearGradient id="SVGID_10_" gradientUnits="userSpaceOnUse" x1="90.9781" y1="397.3267" x2="90.9781" y2="375.2648" gradientTransform="matrix(2.1001 0 0 -2.1001 94.3405 899.3843)">
		<stop  offset="0" style="stop-color:#96C222"/>
		<stop  offset="1" style="stop-color:#3EAB37"/>
	</linearGradient>
	<path fill="url(#SVGID_10_)" d="M294.405,77.903c0,0.631-0.072,1.115-0.219,1.406c-0.144,0.315-0.315,0.46-0.532,0.46h-2.109
		c0.291,0.315,0.509,0.678,0.631,1.091s0.194,0.823,0.194,1.26c0,1.041-0.169,1.963-0.509,2.763c-0.34,0.8-0.847,1.478-1.478,2.035
		c-0.654,0.557-1.429,0.969-2.326,1.26c-0.922,0.291-1.915,0.437-3.053,0.437c-0.581,0-1.115-0.074-1.647-0.219
		c-0.509-0.147-0.922-0.291-1.188-0.485c-0.169,0.169-0.316,0.388-0.435,0.629c-0.122,0.243-0.194,0.509-0.194,0.8
		c0,0.388,0.169,0.703,0.507,0.946c0.34,0.241,0.825,0.388,1.431,0.41l4.336,0.171c1.019,0.047,1.915,0.194,2.715,0.435
		c0.798,0.243,1.453,0.581,1.985,1.041c0.534,0.437,0.946,0.994,1.237,1.6c0.291,0.631,0.435,1.334,0.435,2.132
		c0,0.872-0.194,1.697-0.581,2.497c-0.388,0.775-0.969,1.453-1.744,2.035c-0.775,0.581-1.744,1.019-2.907,1.357
		c-1.163,0.34-2.522,0.509-4.072,0.509c-1.526,0-2.81-0.122-3.876-0.363c-1.066-0.243-1.938-0.581-2.641-0.994
		c-0.678-0.437-1.188-0.946-1.503-1.528c-0.313-0.581-0.46-1.235-0.46-1.938c0-0.435,0.05-0.847,0.169-1.26
		c0.122-0.388,0.291-0.775,0.509-1.138c0.219-0.365,0.484-0.703,0.8-1.043c0.315-0.338,0.678-0.653,1.091-0.944
		c-0.581-0.316-1.019-0.726-1.334-1.26c-0.313-0.534-0.46-1.091-0.46-1.719c0-0.777,0.169-1.503,0.534-2.157
		c0.363-0.656,0.823-1.237,1.404-1.746c-0.46-0.46-0.847-1.016-1.113-1.67c-0.268-0.656-0.412-1.456-0.412-2.447
		c0-1.043,0.194-1.963,0.557-2.788c0.363-0.825,0.872-1.503,1.528-2.084c0.653-0.557,1.429-0.994,2.326-1.307
		c0.897-0.291,1.913-0.437,3.004-0.437c0.557,0,1.091,0.025,1.6,0.097c0.509,0.072,0.994,0.169,1.429,0.291h5.645
		c0.219,0,0.412,0.147,0.559,0.437C294.333,76.716,294.405,77.2,294.405,77.903z M289.123,96.319c0-0.606-0.243-1.066-0.728-1.381
		c-0.485-0.316-1.138-0.484-1.985-0.509l-3.563-0.097c-0.338,0.243-0.629,0.484-0.823,0.728c-0.219,0.241-0.365,0.46-0.509,0.678
		c-0.122,0.219-0.219,0.412-0.243,0.629c-0.047,0.194-0.072,0.412-0.072,0.631c0,0.653,0.34,1.163,1.019,1.526
		c0.678,0.34,1.622,0.509,2.835,0.509c0.75,0,1.404-0.072,1.913-0.219c0.509-0.144,0.944-0.363,1.26-0.604
		c0.315-0.243,0.534-0.534,0.678-0.85C289.073,96.997,289.123,96.657,289.123,96.319z M287.96,82.095c0-0.969-0.266-1.695-0.8-2.229
		c-0.532-0.532-1.285-0.8-2.254-0.8c-0.484,0-0.919,0.074-1.309,0.243c-0.363,0.169-0.678,0.388-0.919,0.678
		c-0.243,0.291-0.437,0.629-0.557,0.994c-0.122,0.388-0.171,0.775-0.171,1.188c0,0.895,0.268,1.622,0.8,2.157
		c0.534,0.532,1.285,0.798,2.206,0.798c0.507,0,0.944-0.072,1.307-0.241c0.365-0.169,0.678-0.388,0.922-0.654
		c0.241-0.293,0.435-0.606,0.557-0.971C287.888,82.895,287.96,82.507,287.96,82.095z"/>
	
		<linearGradient id="SVGID_11_" gradientUnits="userSpaceOnUse" x1="99.1809" y1="397.3252" x2="99.1809" y2="375.2666" gradientTransform="matrix(2.1001 0 0 -2.1001 94.3405 899.3843)">
		<stop  offset="0" style="stop-color:#96C222"/>
		<stop  offset="1" style="stop-color:#3EAB37"/>
	</linearGradient>
	<path fill="url(#SVGID_11_)" d="M305.526,70.634c0,1.019-0.216,1.697-0.629,2.085c-0.412,0.388-1.163,0.581-2.303,0.581
		c-1.138,0-1.888-0.194-2.276-0.557c-0.39-0.363-0.584-1.041-0.584-2.012c0-1.016,0.194-1.719,0.606-2.107
		c0.412-0.388,1.163-0.581,2.303-0.581c1.113,0,1.866,0.194,2.276,0.557C305.31,68.986,305.526,69.665,305.526,70.634z
		 M305.138,94.453c0,0.144-0.047,0.241-0.122,0.338c-0.072,0.097-0.216,0.194-0.41,0.243c-0.194,0.072-0.437,0.122-0.775,0.146
		c-0.316,0.022-0.728,0.047-1.212,0.047s-0.897-0.025-1.212-0.047c-0.313-0.025-0.581-0.074-0.775-0.146
		c-0.194-0.072-0.338-0.147-0.41-0.243c-0.074-0.097-0.122-0.216-0.122-0.338v-17.76c0-0.147,0.047-0.243,0.122-0.34
		c0.072-0.097,0.216-0.194,0.41-0.266c0.194-0.074,0.437-0.122,0.775-0.171c0.315-0.047,0.728-0.072,1.212-0.072
		s0.897,0.025,1.212,0.072c0.313,0.05,0.581,0.097,0.775,0.171c0.194,0.072,0.338,0.169,0.41,0.266
		c0.074,0.097,0.122,0.219,0.122,0.34V94.453z"/>
	
		<linearGradient id="SVGID_12_" gradientUnits="userSpaceOnUse" x1="107.5403" y1="397.3255" x2="107.5403" y2="375.2659" gradientTransform="matrix(2.1001 0 0 -2.1001 94.3405 899.3843)">
		<stop  offset="0" style="stop-color:#96C222"/>
		<stop  offset="1" style="stop-color:#3EAB37"/>
	</linearGradient>
	<path fill="url(#SVGID_12_)" d="M328.958,85.051c0,0.606-0.146,1.066-0.412,1.357c-0.266,0.291-0.654,0.437-1.138,0.437h-10.832
		c0,0.75,0.097,1.454,0.268,2.06c0.169,0.629,0.46,1.138,0.847,1.575c0.388,0.435,0.897,0.75,1.526,0.992
		c0.631,0.219,1.356,0.34,2.231,0.34c0.872,0,1.647-0.072,2.301-0.194c0.678-0.122,1.235-0.266,1.719-0.412
		c0.484-0.144,0.897-0.291,1.212-0.412c0.315-0.119,0.581-0.194,0.775-0.194c0.122,0,0.219,0.025,0.291,0.074
		c0.072,0.047,0.147,0.119,0.194,0.241c0.05,0.122,0.097,0.291,0.122,0.509c0.025,0.219,0.025,0.484,0.025,0.822
		c0,0.293,0,0.534-0.025,0.753c-0.025,0.219-0.025,0.388-0.072,0.532c-0.025,0.147-0.074,0.268-0.122,0.365
		c-0.05,0.097-0.122,0.194-0.219,0.291c-0.097,0.097-0.316,0.216-0.703,0.388c-0.388,0.169-0.872,0.313-1.478,0.46
		c-0.604,0.146-1.282,0.291-2.06,0.388c-0.775,0.122-1.598,0.169-2.47,0.169c-1.575,0-2.981-0.194-4.169-0.604
		c-1.188-0.412-2.179-0.994-2.979-1.818c-0.8-0.823-1.406-1.841-1.794-3.076c-0.388-1.237-0.581-2.691-0.581-4.363
		c0-1.575,0.219-3.004,0.631-4.288c0.41-1.285,1.016-2.35,1.791-3.223c0.775-0.897,1.744-1.55,2.86-2.035
		c1.115-0.485,2.4-0.703,3.804-0.703c1.478,0,2.763,0.219,3.829,0.654c1.066,0.437,1.938,1.043,2.616,1.819
		c0.678,0.775,1.188,1.695,1.503,2.76c0.315,1.068,0.484,2.231,0.484,3.466v0.872H328.958z M324.088,83.598
		c0.047-1.406-0.243-2.519-0.85-3.319c-0.606-0.8-1.55-1.212-2.81-1.212c-0.631,0-1.188,0.122-1.672,0.365
		c-0.46,0.241-0.872,0.557-1.188,0.969c-0.315,0.41-0.557,0.872-0.726,1.429c-0.171,0.557-0.268,1.138-0.291,1.769H324.088
		L324.088,83.598z"/>
</g>
<g>
	
		<linearGradient id="SVGID_13_" gradientUnits="userSpaceOnUse" x1="121.8172" y1="397.325" x2="121.8172" y2="375.2654" gradientTransform="matrix(2.1001 0 0 -2.1001 94.3405 899.3843)">
		<stop  offset="0" style="stop-color:#96C222"/>
		<stop  offset="1" style="stop-color:#3EAB37"/>
	</linearGradient>
	<path fill="url(#SVGID_13_)" d="M357.428,91.618c0,0.338,0,0.629-0.025,0.872c-0.025,0.243-0.05,0.437-0.072,0.581
		c-0.025,0.169-0.074,0.291-0.122,0.388c-0.049,0.097-0.146,0.219-0.315,0.388c-0.169,0.146-0.435,0.34-0.825,0.557
		c-0.388,0.219-0.823,0.412-1.307,0.584c-0.485,0.169-1.019,0.313-1.6,0.41c-0.581,0.097-1.163,0.171-1.791,0.171
		c-1.381,0-2.594-0.219-3.635-0.631c-1.066-0.412-1.938-1.041-2.666-1.891c-0.728-0.823-1.26-1.841-1.623-3.051
		c-0.365-1.188-0.559-2.569-0.559-4.119c0-1.794,0.219-3.319,0.678-4.629c0.437-1.309,1.066-2.375,1.866-3.222
		c0.8-0.847,1.744-1.478,2.835-1.891c1.091-0.412,2.278-0.629,3.588-0.629c0.532,0,1.041,0.047,1.573,0.144
		c0.509,0.097,0.994,0.219,1.431,0.388c0.435,0.171,0.847,0.34,1.188,0.534c0.363,0.194,0.606,0.363,0.75,0.509
		c0.147,0.144,0.243,0.266,0.316,0.363c0.072,0.097,0.097,0.219,0.144,0.388c0.025,0.169,0.049,0.363,0.074,0.581
		c0.022,0.243,0.022,0.509,0.022,0.847c0,0.775-0.072,1.309-0.194,1.625c-0.119,0.315-0.313,0.46-0.507,0.46
		c-0.219,0-0.462-0.097-0.728-0.291c-0.243-0.194-0.557-0.388-0.897-0.631c-0.338-0.216-0.75-0.435-1.235-0.629
		c-0.484-0.194-1.043-0.266-1.722-0.266c-1.307,0-2.301,0.507-3.004,1.501c-0.703,0.994-1.041,2.472-1.041,4.41
		c0,0.946,0.097,1.794,0.266,2.544c0.169,0.728,0.437,1.357,0.775,1.841c0.34,0.485,0.775,0.872,1.285,1.115
		c0.509,0.241,1.115,0.363,1.794,0.363c0.701,0,1.282-0.097,1.791-0.316c0.509-0.216,0.946-0.435,1.309-0.678
		c0.363-0.241,0.678-0.485,0.944-0.678c0.243-0.216,0.462-0.313,0.631-0.313c0.122,0,0.219,0.022,0.291,0.097
		c0.072,0.072,0.144,0.194,0.194,0.363c0.047,0.169,0.072,0.412,0.122,0.678C357.475,90.721,357.428,91.181,357.428,91.618z"/>
	
		<linearGradient id="SVGID_14_" gradientUnits="userSpaceOnUse" x1="132.0575" y1="397.3255" x2="132.0575" y2="375.2658" gradientTransform="matrix(2.1001 0 0 -2.1001 94.3405 899.3843)">
		<stop  offset="0" style="stop-color:#96C222"/>
		<stop  offset="1" style="stop-color:#3EAB37"/>
	</linearGradient>
	<path fill="url(#SVGID_14_)" d="M381.22,85.392c0,1.526-0.194,2.907-0.604,4.142c-0.412,1.26-0.994,2.326-1.819,3.222
		c-0.823,0.897-1.841,1.6-3.053,2.085c-1.235,0.484-2.664,0.75-4.288,0.75c-1.575,0-2.957-0.216-4.142-0.654
		c-1.165-0.437-2.134-1.066-2.909-1.913c-0.775-0.85-1.332-1.866-1.719-3.103c-0.363-1.235-0.557-2.616-0.557-4.191
		c0-1.526,0.194-2.907,0.604-4.167c0.412-1.26,1.019-2.326,1.818-3.223c0.8-0.897,1.816-1.6,3.053-2.084
		c1.21-0.485,2.641-0.728,4.288-0.728c1.598,0,2.979,0.219,4.142,0.656c1.163,0.435,2.134,1.066,2.909,1.913
		c0.775,0.85,1.332,1.866,1.695,3.101C381.051,82.386,381.22,83.792,381.22,85.392z M376.06,85.585c0-0.872-0.072-1.697-0.219-2.425
		c-0.144-0.726-0.363-1.379-0.701-1.913c-0.34-0.534-0.778-0.969-1.334-1.284c-0.557-0.316-1.26-0.46-2.084-0.46
		c-0.75,0-1.404,0.144-1.961,0.412c-0.559,0.266-1.019,0.678-1.381,1.185c-0.365,0.509-0.631,1.165-0.8,1.891
		c-0.169,0.728-0.266,1.575-0.266,2.519c0,0.872,0.072,1.697,0.216,2.425c0.146,0.726,0.388,1.379,0.703,1.913
		c0.316,0.557,0.775,0.969,1.332,1.26c0.559,0.291,1.262,0.437,2.085,0.437c0.75,0,1.406-0.146,1.987-0.412
		c0.557-0.266,1.016-0.678,1.381-1.188c0.363-0.509,0.629-1.138,0.8-1.891C375.963,87.377,376.06,86.53,376.06,85.585z"/>
	
		<linearGradient id="SVGID_15_" gradientUnits="userSpaceOnUse" x1="143.6704" y1="397.3245" x2="143.6704" y2="375.267" gradientTransform="matrix(2.1001 0 0 -2.1001 94.3405 899.3843)">
		<stop  offset="0" style="stop-color:#96C222"/>
		<stop  offset="1" style="stop-color:#3EAB37"/>
	</linearGradient>
	<path fill="url(#SVGID_15_)" d="M404.58,94.453c0,0.144-0.05,0.241-0.122,0.338c-0.074,0.097-0.219,0.194-0.388,0.243
		c-0.194,0.072-0.437,0.122-0.775,0.146c-0.34,0.022-0.728,0.047-1.212,0.047c-0.484,0-0.897-0.025-1.235-0.047
		c-0.315-0.025-0.581-0.074-0.775-0.146c-0.194-0.072-0.315-0.147-0.388-0.243c-0.074-0.097-0.122-0.216-0.122-0.338V84.301
		c0-0.872-0.072-1.55-0.194-2.035c-0.122-0.485-0.316-0.922-0.559-1.262c-0.241-0.338-0.557-0.629-0.919-0.823
		c-0.388-0.194-0.825-0.291-1.334-0.291c-0.629,0-1.282,0.241-1.938,0.703c-0.654,0.46-1.332,1.138-2.035,2.035v11.824
		c0,0.144-0.047,0.241-0.122,0.338c-0.072,0.097-0.216,0.194-0.41,0.243c-0.194,0.072-0.437,0.122-0.778,0.146
		c-0.313,0.022-0.726,0.047-1.21,0.047c-0.484,0-0.897-0.025-1.212-0.047c-0.315-0.025-0.581-0.074-0.775-0.146
		c-0.194-0.072-0.338-0.147-0.412-0.243c-0.072-0.097-0.119-0.216-0.119-0.338V76.644c0-0.122,0.022-0.243,0.097-0.34
		c0.072-0.097,0.194-0.194,0.363-0.241c0.169-0.072,0.388-0.122,0.678-0.147c0.266-0.022,0.631-0.047,1.019-0.047
		c0.435,0,0.775,0.025,1.066,0.047c0.291,0.025,0.484,0.074,0.654,0.147c0.144,0.072,0.266,0.144,0.34,0.241
		c0.072,0.097,0.097,0.219,0.097,0.34v2.06c0.992-1.066,1.985-1.866,3.004-2.4c1.016-0.532,2.082-0.798,3.173-0.798
		c1.212,0,2.231,0.194,3.053,0.604c0.825,0.412,1.503,0.946,2.012,1.625c0.507,0.678,0.872,1.478,1.113,2.398
		c0.219,0.922,0.34,2.012,0.34,3.319v11.002H404.58z"/>
	
		<linearGradient id="SVGID_16_" gradientUnits="userSpaceOnUse" x1="153.9329" y1="397.3255" x2="153.9329" y2="375.2658" gradientTransform="matrix(2.1001 0 0 -2.1001 94.3405 899.3843)">
		<stop  offset="0" style="stop-color:#96C222"/>
		<stop  offset="1" style="stop-color:#3EAB37"/>
	</linearGradient>
	<path fill="url(#SVGID_16_)" d="M424.399,89.437c0,1.019-0.194,1.915-0.557,2.666c-0.388,0.775-0.922,1.406-1.6,1.938
		c-0.703,0.509-1.503,0.922-2.447,1.163c-0.944,0.268-1.963,0.388-3.078,0.388c-0.654,0-1.307-0.047-1.913-0.144
		c-0.606-0.097-1.138-0.219-1.622-0.388c-0.485-0.171-0.874-0.315-1.188-0.462c-0.316-0.169-0.559-0.313-0.703-0.46
		c-0.147-0.144-0.266-0.363-0.34-0.653c-0.072-0.291-0.119-0.75-0.119-1.334c0-0.388,0.022-0.701,0.047-0.919
		c0.025-0.243,0.072-0.412,0.122-0.557c0.047-0.147,0.122-0.243,0.194-0.291c0.072-0.05,0.169-0.074,0.291-0.074
		c0.144,0,0.363,0.074,0.654,0.243c0.291,0.169,0.656,0.338,1.066,0.557c0.437,0.194,0.922,0.388,1.478,0.557
		c0.559,0.171,1.212,0.268,1.938,0.268c0.462,0,0.85-0.05,1.212-0.147c0.363-0.097,0.654-0.219,0.922-0.388
		c0.266-0.169,0.46-0.388,0.581-0.653c0.144-0.266,0.194-0.581,0.194-0.922c0-0.388-0.122-0.75-0.365-1.016
		c-0.241-0.291-0.581-0.534-0.969-0.753c-0.41-0.216-0.872-0.41-1.381-0.604c-0.507-0.194-1.041-0.39-1.573-0.631
		c-0.534-0.243-1.068-0.484-1.575-0.775c-0.509-0.291-0.969-0.654-1.381-1.066c-0.412-0.437-0.728-0.946-0.969-1.528
		c-0.243-0.604-0.365-1.307-0.365-2.157c0-0.847,0.171-1.623,0.509-2.35c0.34-0.701,0.825-1.332,1.431-1.816
		c0.629-0.509,1.379-0.897,2.276-1.188c0.897-0.266,1.915-0.412,3.029-0.412c0.559,0,1.091,0.05,1.625,0.122
		c0.532,0.072,0.994,0.169,1.429,0.291c0.437,0.122,0.775,0.243,1.066,0.388c0.291,0.146,0.509,0.268,0.631,0.365
		c0.122,0.097,0.219,0.194,0.266,0.291c0.05,0.097,0.097,0.216,0.122,0.363c0.025,0.144,0.047,0.315,0.072,0.509
		c0.025,0.216,0.025,0.46,0.025,0.775c0,0.363,0,0.653-0.025,0.872c-0.025,0.219-0.047,0.412-0.097,0.532
		c-0.047,0.146-0.122,0.219-0.194,0.268c-0.072,0.047-0.169,0.072-0.266,0.072c-0.122,0-0.316-0.072-0.559-0.219
		c-0.241-0.144-0.557-0.291-0.944-0.46c-0.388-0.169-0.823-0.315-1.307-0.437c-0.509-0.144-1.068-0.216-1.697-0.216
		c-0.46,0-0.847,0.047-1.163,0.144c-0.34,0.097-0.606,0.219-0.825,0.388c-0.219,0.169-0.363,0.363-0.485,0.606
		c-0.097,0.241-0.169,0.484-0.169,0.75c0,0.412,0.122,0.75,0.388,1.043c0.241,0.291,0.581,0.532,0.994,0.75
		c0.412,0.219,0.872,0.412,1.404,0.606c0.534,0.194,1.066,0.388,1.6,0.604c0.534,0.219,1.066,0.484,1.6,0.777
		c0.532,0.291,0.994,0.654,1.404,1.066c0.412,0.435,0.753,0.944,0.994,1.526C424.277,87.911,424.399,88.614,424.399,89.437z"/>
	
		<linearGradient id="SVGID_17_" gradientUnits="userSpaceOnUse" x1="163.7512" y1="397.3255" x2="163.7512" y2="375.2659" gradientTransform="matrix(2.1001 0 0 -2.1001 94.3405 899.3843)">
		<stop  offset="0" style="stop-color:#96C222"/>
		<stop  offset="1" style="stop-color:#3EAB37"/>
	</linearGradient>
	<path fill="url(#SVGID_17_)" d="M447.006,85.051c0,0.606-0.147,1.066-0.412,1.357c-0.266,0.291-0.654,0.437-1.138,0.437h-10.832
		c0,0.75,0.097,1.454,0.268,2.06c0.169,0.629,0.46,1.138,0.847,1.575c0.388,0.435,0.897,0.75,1.526,0.992
		c0.631,0.219,1.357,0.34,2.231,0.34c0.872,0,1.647-0.072,2.301-0.194c0.678-0.122,1.235-0.266,1.719-0.412
		c0.484-0.144,0.897-0.291,1.212-0.412c0.315-0.119,0.581-0.194,0.775-0.194c0.122,0,0.219,0.025,0.291,0.074
		c0.072,0.047,0.146,0.119,0.194,0.241c0.049,0.122,0.097,0.291,0.122,0.509c0.025,0.219,0.025,0.484,0.025,0.822
		c0,0.293,0,0.534-0.025,0.753c-0.025,0.219-0.025,0.388-0.072,0.532c-0.025,0.147-0.074,0.268-0.122,0.365
		c-0.05,0.097-0.122,0.194-0.219,0.291s-0.315,0.216-0.703,0.388c-0.388,0.169-0.872,0.313-1.478,0.46
		c-0.604,0.146-1.282,0.291-2.06,0.388c-0.775,0.122-1.598,0.169-2.47,0.169c-1.575,0-2.981-0.194-4.169-0.604
		c-1.188-0.39-2.179-0.994-2.979-1.818c-0.8-0.823-1.406-1.841-1.794-3.076c-0.388-1.237-0.581-2.691-0.581-4.363
		c0-1.575,0.219-3.004,0.631-4.288c0.41-1.285,1.016-2.35,1.791-3.223c0.775-0.897,1.744-1.55,2.86-2.035
		c1.115-0.462,2.4-0.703,3.804-0.703c1.478,0,2.763,0.219,3.829,0.654c1.066,0.437,1.938,1.043,2.616,1.819
		c0.678,0.775,1.188,1.695,1.503,2.76c0.315,1.068,0.484,2.231,0.484,3.466v0.872H447.006z M442.136,83.598
		c0.047-1.406-0.243-2.519-0.85-3.319c-0.606-0.8-1.55-1.212-2.81-1.212c-0.631,0-1.188,0.122-1.672,0.365
		c-0.46,0.241-0.872,0.557-1.188,0.969c-0.316,0.41-0.557,0.872-0.726,1.429c-0.171,0.557-0.268,1.138-0.291,1.769H442.136
		L442.136,83.598z"/>
	
		<linearGradient id="SVGID_18_" gradientUnits="userSpaceOnUse" x1="172.2136" y1="397.3252" x2="172.2136" y2="375.2666" gradientTransform="matrix(2.1001 0 0 -2.1001 94.3405 899.3843)">
		<stop  offset="0" style="stop-color:#96C222"/>
		<stop  offset="1" style="stop-color:#3EAB37"/>
	</linearGradient>
	<path fill="url(#SVGID_18_)" d="M458.902,70.634c0,1.019-0.219,1.697-0.629,2.085c-0.412,0.388-1.165,0.581-2.303,0.581
		s-1.891-0.194-2.278-0.557c-0.388-0.363-0.581-1.041-0.581-2.012c0-1.016,0.194-1.719,0.606-2.107
		c0.412-0.388,1.163-0.581,2.303-0.581c1.113,0,1.864,0.194,2.276,0.557C458.708,68.986,458.902,69.665,458.902,70.634z
		 M458.514,94.453c0,0.144-0.047,0.241-0.122,0.338c-0.072,0.097-0.219,0.194-0.412,0.243c-0.194,0.072-0.435,0.122-0.775,0.146
		c-0.313,0.022-0.726,0.047-1.21,0.047s-0.897-0.025-1.212-0.047c-0.315-0.025-0.581-0.074-0.775-0.146
		c-0.194-0.072-0.338-0.147-0.412-0.243c-0.072-0.097-0.119-0.216-0.119-0.338v-17.76c0-0.147,0.047-0.243,0.119-0.34
		c0.074-0.097,0.219-0.194,0.412-0.266c0.194-0.074,0.437-0.122,0.775-0.171c0.315-0.047,0.728-0.072,1.212-0.072
		s0.897,0.025,1.21,0.072c0.316,0.05,0.581,0.097,0.775,0.171c0.194,0.072,0.34,0.169,0.412,0.266
		c0.074,0.097,0.122,0.219,0.122,0.34V94.453z"/>
	
		<linearGradient id="SVGID_19_" gradientUnits="userSpaceOnUse" x1="178.1266" y1="397.3254" x2="178.1266" y2="375.2665" gradientTransform="matrix(2.1001 0 0 -2.1001 94.3405 899.3843)">
		<stop  offset="0" style="stop-color:#96C222"/>
		<stop  offset="1" style="stop-color:#3EAB37"/>
	</linearGradient>
	<path fill="url(#SVGID_19_)" d="M470.945,94.453c0,0.144-0.05,0.241-0.122,0.338s-0.219,0.194-0.412,0.243
		c-0.194,0.072-0.435,0.122-0.775,0.146c-0.313,0.022-0.726,0.047-1.21,0.047c-0.484,0-0.897-0.025-1.212-0.047
		c-0.315-0.025-0.581-0.074-0.775-0.146c-0.194-0.072-0.34-0.147-0.412-0.243s-0.122-0.216-0.122-0.338V68.211
		c0-0.121,0.049-0.241,0.122-0.363c0.072-0.097,0.219-0.194,0.412-0.266c0.194-0.073,0.437-0.122,0.775-0.17
		c0.316-0.048,0.728-0.073,1.212-0.073c0.484,0,0.897,0.025,1.21,0.073c0.315,0.048,0.581,0.097,0.775,0.17
		c0.194,0.072,0.34,0.169,0.412,0.266c0.072,0.097,0.122,0.219,0.122,0.363V94.453z"/>
</g>
<radialGradient id="SVGID_20_" cx="-923.2896" cy="-19.1274" r="26.2373" gradientTransform="matrix(3.0957 0 0 -0.3446 2939.3633 170.2557)" gradientUnits="userSpaceOnUse">
	<stop  offset="0" style="stop-color:#DADADA"/>
	<stop  offset="0.9902" style="stop-color:#FFFFFF"/>
	<stop  offset="1" style="stop-color:#FFFFFF"/>
</radialGradient>
<path fill="url(#SVGID_20_)" d="M162.271,176.847c0,4.977-36.331,9.03-81.125,9.03c-44.815,0-81.146-4.053-81.146-9.03
	c0-4.998,36.331-9.03,81.146-9.03C125.96,167.816,162.271,171.869,162.271,176.847z"/>
</svg>
