<?xml version="1.0" encoding="utf-8"?>
<!-- Generator: Adobe Illustrator 25.0.1, SVG Export Plug-In . SVG Version: 6.00 Build 0)  -->
<svg version="1.1" id="Calque_1" xmlns="http://www.w3.org/2000/svg" xmlns:xlink="http://www.w3.org/1999/xlink" x="0px" y="0px"
	 viewBox="0 0 87.477 85.813" enable-background="new 0 0 87.477 85.813" xml:space="preserve">
<path fill="#FFFFFF" d="M85.717,36.835L47.427,1.45C46.388,0.496,45.041,0.002,43.646,0c-1.396,0.002-2.742,0.496-3.781,1.45
	l-8.028,7.42h-10.04c-3.709,0-6.719,3.006-6.719,6.72v8.769L1.582,36.836C0.58,37.75-0.006,39.042,0,40.375
	c0,0.69,0.147,1.39,0.466,2.039c0.923,1.886,2.851,2.945,4.893,2.951h4.885l0.002,34.069c-0.002,1.811,0.84,3.438,2.094,4.539
	c1.253,1.109,2.938,1.769,4.751,1.769h22.803h0.02c0.012,0,0.044-0.007,0.062-0.007h9.721c0.017,0,0.026,0.007,0.043,0.007h20.462
	c1.821,0,3.5-0.659,4.752-1.769c1.253-1.101,2.099-2.729,2.092-4.539V45.365h4.889c2.046-0.006,3.976-1.065,4.898-2.955
	c0.31-0.646,0.468-1.345,0.468-2.039C87.304,39.039,86.717,37.749,85.717,36.835z M20.941,27.316h14.307l5.525,3.874l-5.525,3.878
	H20.941V27.316z M20.941,38.23h20.788l5.524,3.875l-5.524,3.877H20.941V38.23z M20.941,49.145h27.268l5.524,3.874l-5.524,3.878
	H20.941V49.145z M20.941,60.059h33.747l5.525,3.872l-5.525,3.878H20.941V60.059z M61.169,78.724H20.941v-7.75h40.228l5.525,3.872
	L61.169,78.724z"/>
</svg>
