<?xml version="1.0" encoding="utf-8"?>
<!-- Generator: Adobe Illustrator 25.0.1, SVG Export Plug-In . SVG Version: 6.00 Build 0)  -->
<svg version="1.1" id="Calque_2_1_" xmlns="http://www.w3.org/2000/svg" xmlns:xlink="http://www.w3.org/1999/xlink" x="0px"
	 y="0px" viewBox="0 0 71.905 93.946" enable-background="new 0 0 71.905 93.946" xml:space="preserve">
<g>
	<rect x="52.531" y="40.029" fill="#FFFFFF" width="4.911" height="4.909"/>
	<path fill="#FFFFFF" d="M34.464,66.629c0.378-0.376,0.899-0.611,1.477-0.611c0.604,0,1.147,0.257,1.524,0.666
		c0.899-0.829,4.561-4.439,4.278-8.06c-0.24-3.072-3.788-3.997-5.757-3.997c-1.971,0-5.515,0.925-5.752,3.997
		C29.955,62.175,33.475,65.71,34.464,66.629z"/>
	<path fill="#FFFFFF" d="M30.804,77.455c2.964-1.417,4.302-5.618,4.731-7.294c-0.96-0.191-1.684-1.037-1.684-2.052
		c0-0.352,0.086-0.682,0.239-0.972c-1.294-0.393-6.108-1.661-9.035,0.35c-2.546,1.744-1.57,5.28-0.586,6.985
		C25.455,76.177,28.029,78.784,30.804,77.455z"/>
	<path fill="#FFFFFF" d="M38.031,68.107c0,1.024-0.736,1.872-1.705,2.055c0.41,1.635,1.756,5.915,4.752,7.348
		c2.775,1.329,5.351-1.281,6.333-2.988c0.988-1.705,1.96-5.232-0.584-6.979c-2.91-1.996-7.667-0.759-9.01-0.35
		C37.954,67.465,38.031,67.779,38.031,68.107z"/>
	<path fill="#FFFFFF" d="M67.014,90.273V0H4.865v90.273H0v3.6h71.879v-3.6H67.014z M46.079,41.135h3.753v-3.806h10.309v10.31H49.832
		v-3.804h-3.753V41.135z M35.943,50.036c9.64,0,17.452,7.815,17.452,17.454c0,9.638-7.812,17.453-17.452,17.453
		c-9.64,0-17.455-7.815-17.455-17.453C18.488,57.851,26.304,50.036,35.943,50.036z"/>
</g>
</svg>
