<?xml version="1.0" encoding="utf-8"?>
<!-- Generator: Adobe Illustrator 25.0.1, SVG Export Plug-In . SVG Version: 6.00 Build 0)  -->
<svg version="1.1" id="Calque_2_1_" xmlns="http://www.w3.org/2000/svg" xmlns:xlink="http://www.w3.org/1999/xlink" x="0px"
	 y="0px" viewBox="0 0 153.554 150.206" enable-background="new 0 0 153.554 150.206" xml:space="preserve">
<linearGradient id="SVGID_1_" gradientUnits="userSpaceOnUse" x1="-383.5612" y1="465.4536" x2="-383.5612" y2="465.4536" gradientTransform="matrix(2.1001 0 0 2.1001 912.7993 -878.0792)">
	<stop  offset="0" style="stop-color:#2DAAB9"/>
	<stop  offset="1" style="stop-color:#48BCC7"/>
</linearGradient>
<path fill="url(#SVGID_1_)" d="M107.282,99.42"/>
<linearGradient id="SVGID_2_" gradientUnits="userSpaceOnUse" x1="-420.5747" y1="462.1019" x2="-420.5747" y2="462.1019" gradientTransform="matrix(2.1001 0 0 2.1001 912.7993 -878.0792)">
	<stop  offset="0" style="stop-color:#2DAAB9"/>
	<stop  offset="1" style="stop-color:#48BCC7"/>
</linearGradient>
<path fill="url(#SVGID_2_)" d="M29.55,92.381"/>
<linearGradient id="SVGID_3_" gradientUnits="userSpaceOnUse" x1="-398.0005" y1="484.0514" x2="-398.0005" y2="414.8693" gradientTransform="matrix(2.1001 0 0 2.1001 912.7993 -878.0792)">
	<stop  offset="0" style="stop-color:#878787"/>
	<stop  offset="1" style="stop-color:#B3B2B2"/>
</linearGradient>
<path fill="url(#SVGID_3_)" d="M73.426,123.079c0,5.964,0,15.284,0,15.393c0,1.447-0.285,2.259-0.591,2.785
	c-0.438,0.768-1.008,1.119-1.645,1.359c-0.307,0.11-0.614,0.175-0.789,0.22c-0.066,0.021-0.131,0.021-0.154,0.021H30.493
	c-1.492,0-2.763-0.549-3.619-1.315c-0.877-0.789-1.293-1.689-1.293-2.676V72.229H9.991c-1.119,0-1.973-0.614-2.215-1.162
	c-0.088-0.197-0.132-0.351-0.132-0.504c0-0.307,0.109-0.636,0.505-1.009l25.874-23.9v-18.42c0-2.61,2.105-4.715,4.714-4.715h20.306
	L75.094,7.675c0.372-0.373,1.096-0.659,1.842-0.659c0.724,0,1.447,0.308,1.842,0.659l66.944,61.878
	c0.395,0.373,0.504,0.702,0.504,1.009c0,0.153-0.021,0.328-0.132,0.526c-0.219,0.548-1.074,1.161-2.215,1.161h-15.59v66.638
	c0,0.986-0.417,1.885-1.294,2.675c-0.855,0.768-2.148,1.316-3.64,1.316H87.592c-1.951,0-3.53,1.578-3.53,3.53s1.579,3.53,3.53,3.53
	h35.786c3.179,0,6.118-1.14,8.31-3.092c2.192-1.93,3.662-4.78,3.662-7.938V79.333h8.552c3.574,0,6.951-1.863,8.573-5.175
	c0.549-1.118,0.812-2.346,0.812-3.552c0-2.325-1.008-4.583-2.763-6.184L83.579,2.544C81.759,0.878,79.413,0.021,76.958,0
	c-2.434,0-4.803,0.855-6.623,2.544l-14.034,12.98H38.76c-6.49,0-11.754,5.264-11.754,11.753v15.328L3.391,64.423
	c-1.754,1.601-2.762,3.859-2.762,6.184c0,1.205,0.263,2.434,0.811,3.574c1.601,3.289,4.999,5.152,8.573,5.152h8.552v59.577
	c0,3.158,1.469,6.008,3.662,7.938c2.193,1.952,5.132,3.092,8.311,3.092h39.864h0.044c0.328-0.021,2.522-0.044,5.065-1.557
	c1.25-0.767,2.566-1.952,3.509-3.64s1.491-3.793,1.491-6.227c0-0.109,0-9.736,0-15.393L73.426,123.079z"/>
<g>
	
		<linearGradient id="SVGID_4_" gradientUnits="userSpaceOnUse" x1="-406.9332" y1="462.206" x2="-406.9332" y2="482.3534" gradientTransform="matrix(2.1001 0 0 2.1001 912.7993 -878.0792)">
		<stop  offset="0" style="stop-color:#C60E7F"/>
		<stop  offset="1" style="stop-color:#A11D80"/>
	</linearGradient>
	<rect x="49.658" y="93.214" fill="url(#SVGID_4_)" width="17.081" height="4.407"/>
	
		<linearGradient id="SVGID_5_" gradientUnits="userSpaceOnUse" x1="-406.9332" y1="462.205" x2="-406.9332" y2="482.3622" gradientTransform="matrix(2.1001 0 0 2.1001 912.7993 -878.0792)">
		<stop  offset="0" style="stop-color:#C60E7F"/>
		<stop  offset="1" style="stop-color:#A11D80"/>
	</linearGradient>
	<rect x="49.658" y="117.378" fill="url(#SVGID_5_)" width="17.081" height="4.407"/>
	
		<linearGradient id="SVGID_6_" gradientUnits="userSpaceOnUse" x1="-406.9332" y1="462.205" x2="-406.9332" y2="482.3622" gradientTransform="matrix(2.1001 0 0 2.1001 912.7993 -878.0792)">
		<stop  offset="0" style="stop-color:#C60E7F"/>
		<stop  offset="1" style="stop-color:#A11D80"/>
	</linearGradient>
	<rect x="49.658" y="111.326" fill="url(#SVGID_6_)" width="17.081" height="4.407"/>
	
		<linearGradient id="SVGID_7_" gradientUnits="userSpaceOnUse" x1="-406.9332" y1="462.2064" x2="-406.9332" y2="482.3586" gradientTransform="matrix(2.1001 0 0 2.1001 912.7993 -878.0792)">
		<stop  offset="0" style="stop-color:#C60E7F"/>
		<stop  offset="1" style="stop-color:#A11D80"/>
	</linearGradient>
	<rect x="49.658" y="105.296" fill="url(#SVGID_7_)" width="17.081" height="4.429"/>
	
		<linearGradient id="SVGID_8_" gradientUnits="userSpaceOnUse" x1="-406.9332" y1="462.2049" x2="-406.9332" y2="482.3621" gradientTransform="matrix(2.1001 0 0 2.1001 912.7993 -878.0792)">
		<stop  offset="0" style="stop-color:#C60E7F"/>
		<stop  offset="1" style="stop-color:#A11D80"/>
	</linearGradient>
	<rect x="49.658" y="99.266" fill="url(#SVGID_8_)" width="17.081" height="4.407"/>
	
		<linearGradient id="SVGID_9_" gradientUnits="userSpaceOnUse" x1="-406.9332" y1="462.2053" x2="-406.9332" y2="482.3625" gradientTransform="matrix(2.1001 0 0 2.1001 912.7993 -878.0792)">
		<stop  offset="0" style="stop-color:#C60E7F"/>
		<stop  offset="1" style="stop-color:#A11D80"/>
	</linearGradient>
	<rect x="49.658" y="82.645" fill="url(#SVGID_9_)" width="17.081" height="4.407"/>
	
		<linearGradient id="SVGID_10_" gradientUnits="userSpaceOnUse" x1="-406.9332" y1="462.2057" x2="-406.9332" y2="482.363" gradientTransform="matrix(2.1001 0 0 2.1001 912.7993 -878.0792)">
		<stop  offset="0" style="stop-color:#C60E7F"/>
		<stop  offset="1" style="stop-color:#A11D80"/>
	</linearGradient>
	<rect x="49.658" y="64.226" fill="url(#SVGID_10_)" width="17.081" height="4.407"/>
	
		<linearGradient id="SVGID_11_" gradientUnits="userSpaceOnUse" x1="-389.0893" y1="462.205" x2="-389.0893" y2="482.3622" gradientTransform="matrix(2.1001 0 0 2.1001 912.7993 -878.0792)">
		<stop  offset="0" style="stop-color:#C60E7F"/>
		<stop  offset="1" style="stop-color:#A11D80"/>
	</linearGradient>
	<rect x="87.132" y="117.378" fill="url(#SVGID_11_)" width="17.081" height="4.407"/>
	
		<linearGradient id="SVGID_12_" gradientUnits="userSpaceOnUse" x1="-389.0893" y1="462.205" x2="-389.0893" y2="482.3622" gradientTransform="matrix(2.1001 0 0 2.1001 912.7993 -878.0792)">
		<stop  offset="0" style="stop-color:#C60E7F"/>
		<stop  offset="1" style="stop-color:#A11D80"/>
	</linearGradient>
	<rect x="87.132" y="111.326" fill="url(#SVGID_12_)" width="17.081" height="4.407"/>
	
		<linearGradient id="SVGID_13_" gradientUnits="userSpaceOnUse" x1="-389.0893" y1="462.2064" x2="-389.0893" y2="482.3586" gradientTransform="matrix(2.1001 0 0 2.1001 912.7993 -878.0792)">
		<stop  offset="0" style="stop-color:#C60E7F"/>
		<stop  offset="1" style="stop-color:#A11D80"/>
	</linearGradient>
	<rect x="87.132" y="105.296" fill="url(#SVGID_13_)" width="17.081" height="4.429"/>
	
		<linearGradient id="SVGID_14_" gradientUnits="userSpaceOnUse" x1="-389.0893" y1="462.2049" x2="-389.0893" y2="482.3621" gradientTransform="matrix(2.1001 0 0 2.1001 912.7993 -878.0792)">
		<stop  offset="0" style="stop-color:#C60E7F"/>
		<stop  offset="1" style="stop-color:#A11D80"/>
	</linearGradient>
	<rect x="87.132" y="99.266" fill="url(#SVGID_14_)" width="17.081" height="4.407"/>
	
		<linearGradient id="SVGID_15_" gradientUnits="userSpaceOnUse" x1="-389.0893" y1="462.205" x2="-389.0893" y2="482.3622" gradientTransform="matrix(2.1001 0 0 2.1001 912.7993 -878.0792)">
		<stop  offset="0" style="stop-color:#C60E7F"/>
		<stop  offset="1" style="stop-color:#A11D80"/>
	</linearGradient>
	<rect x="87.132" y="88.39" fill="url(#SVGID_15_)" width="17.081" height="4.407"/>
	
		<linearGradient id="SVGID_16_" gradientUnits="userSpaceOnUse" x1="-389.0893" y1="462.2055" x2="-389.0893" y2="482.3628" gradientTransform="matrix(2.1001 0 0 2.1001 912.7993 -878.0792)">
		<stop  offset="0" style="stop-color:#C60E7F"/>
		<stop  offset="1" style="stop-color:#A11D80"/>
	</linearGradient>
	<rect x="87.132" y="69.971" fill="url(#SVGID_16_)" width="17.081" height="4.407"/>
	
		<linearGradient id="SVGID_17_" gradientUnits="userSpaceOnUse" x1="-398.006" y1="462.206" x2="-398.006" y2="482.3534" gradientTransform="matrix(2.1001 0 0 2.1001 912.7993 -878.0792)">
		<stop  offset="0" style="stop-color:#C60E7F"/>
		<stop  offset="1" style="stop-color:#A11D80"/>
	</linearGradient>
	<rect x="68.406" y="93.214" fill="url(#SVGID_17_)" width="17.081" height="4.407"/>
	
		<linearGradient id="SVGID_18_" gradientUnits="userSpaceOnUse" x1="-398.006" y1="462.2057" x2="-398.006" y2="482.3629" gradientTransform="matrix(2.1001 0 0 2.1001 912.7993 -878.0792)">
		<stop  offset="0" style="stop-color:#C60E7F"/>
		<stop  offset="1" style="stop-color:#A11D80"/>
	</linearGradient>
	<rect x="68.406" y="87.183" fill="url(#SVGID_18_)" width="17.081" height="4.407"/>
	
		<linearGradient id="SVGID_19_" gradientUnits="userSpaceOnUse" x1="-398.006" y1="462.2049" x2="-398.006" y2="482.3621" gradientTransform="matrix(2.1001 0 0 2.1001 912.7993 -878.0792)">
		<stop  offset="0" style="stop-color:#C60E7F"/>
		<stop  offset="1" style="stop-color:#A11D80"/>
	</linearGradient>
	<rect x="68.406" y="76.308" fill="url(#SVGID_19_)" width="17.081" height="4.407"/>
	
		<linearGradient id="SVGID_20_" gradientUnits="userSpaceOnUse" x1="-398.006" y1="462.2054" x2="-398.006" y2="482.3626" gradientTransform="matrix(2.1001 0 0 2.1001 912.7993 -878.0792)">
		<stop  offset="0" style="stop-color:#C60E7F"/>
		<stop  offset="1" style="stop-color:#A11D80"/>
	</linearGradient>
	<rect x="68.406" y="57.888" fill="url(#SVGID_20_)" width="17.081" height="4.407"/>
	
		<linearGradient id="SVGID_21_" gradientUnits="userSpaceOnUse" x1="-398.006" y1="462.205" x2="-398.006" y2="482.3622" gradientTransform="matrix(2.1001 0 0 2.1001 912.7993 -878.0792)">
		<stop  offset="0" style="stop-color:#C60E7F"/>
		<stop  offset="1" style="stop-color:#A11D80"/>
	</linearGradient>
	<rect x="68.406" y="111.326" fill="url(#SVGID_21_)" width="17.081" height="4.407"/>
	
		<linearGradient id="SVGID_22_" gradientUnits="userSpaceOnUse" x1="-398.006" y1="462.2064" x2="-398.006" y2="482.3586" gradientTransform="matrix(2.1001 0 0 2.1001 912.7993 -878.0792)">
		<stop  offset="0" style="stop-color:#C60E7F"/>
		<stop  offset="1" style="stop-color:#A11D80"/>
	</linearGradient>
	<rect x="68.406" y="105.296" fill="url(#SVGID_22_)" width="17.081" height="4.429"/>
	
		<linearGradient id="SVGID_23_" gradientUnits="userSpaceOnUse" x1="-398.006" y1="462.2049" x2="-398.006" y2="482.3621" gradientTransform="matrix(2.1001 0 0 2.1001 912.7993 -878.0792)">
		<stop  offset="0" style="stop-color:#C60E7F"/>
		<stop  offset="1" style="stop-color:#A11D80"/>
	</linearGradient>
	<rect x="68.406" y="99.266" fill="url(#SVGID_23_)" width="17.081" height="4.407"/>
</g>
</svg>
