<?xml version="1.0" encoding="utf-8"?>
<!-- Generator: Adobe Illustrator 25.0.1, SVG Export Plug-In . SVG Version: 6.00 Build 0)  -->
<svg version="1.1" id="Calque_1" xmlns="http://www.w3.org/2000/svg" xmlns:xlink="http://www.w3.org/1999/xlink" x="0px" y="0px"
	 viewBox="0 0 44.302 60.195" enable-background="new 0 0 44.302 60.195" xml:space="preserve">
<path fill="#FFFFFF" d="M22.155,0.1C9.995,0.1,0.1,9.993,0.1,22.155c0,3.172,0.65,6.2,1.93,9.003
	c5.514,12.064,16.086,24.805,19.195,28.42c0.232,0.272,0.572,0.427,0.93,0.427c0.357,0,0.697-0.155,0.931-0.427
	c3.107-3.615,13.678-16.353,19.195-28.42c1.279-2.803,1.928-5.831,1.928-9.003C44.208,9.993,34.314,0.1,22.155,0.1z M22.154,31.362
	c-5.215,0-9.442-4.228-9.442-9.442c0-5.215,4.227-9.441,9.442-9.441c5.215,0,9.442,4.227,9.442,9.441
	C31.597,27.134,27.369,31.362,22.154,31.362z"/>
</svg>
