<?xml version="1.0" encoding="utf-8"?>
<!-- Generator: Adobe Illustrator 25.0.1, SVG Export Plug-In . SVG Version: 6.00 Build 0)  -->
<svg version="1.1" id="icons" xmlns="http://www.w3.org/2000/svg" xmlns:xlink="http://www.w3.org/1999/xlink" x="0px" y="0px"
	 viewBox="0 0 28.731 31.313" enable-background="new 0 0 28.731 31.313" xml:space="preserve">
<g>
	<path d="M28.648,22.829c-2.277-2.024-6.178-3.506-9.201-3.472c-0.905,0.676-2.693,2.588-3.335,3.51
		c-1.709-0.585-3.57-2.45-5.219-4.455c-1.649-2.004-3.118-4.191-3.363-5.98c1.029-0.452,3.25-1.837,4.088-2.594
		c0.617-2.959-0.083-7.073-1.629-9.698c-1.792-0.3-6.116-0.212-9.24,1.208c-1.282,3.81-1.71,12.4,5.436,21.437
		c7.486,8.757,16.108,8.741,20.094,8.22C28.276,28.214,28.596,24.646,28.648,22.829z"/>
	<path d="M19.657,10.965"/>
</g>
</svg>
