<?xml version="1.0" encoding="utf-8"?>
<!-- Generator: Adobe Illustrator 25.0.1, SVG Export Plug-In . SVG Version: 6.00 Build 0)  -->
<svg version="1.1" id="Calque_2_1_" xmlns="http://www.w3.org/2000/svg" xmlns:xlink="http://www.w3.org/1999/xlink" x="0px"
	 y="0px" viewBox="0 0 76.183 62.303" enable-background="new 0 0 76.183 62.303" xml:space="preserve">
<path fill="#FFFFFF" d="M34.281,5.18h-2.523V0.647C31.758,0.29,31.471,0,31.111,0H3.816C3.458,0,3.17,0.29,3.17,0.647V5.18H0.647
	C0.29,5.18,0,5.469,0,5.827v55.716C0,61.9,0.29,62.19,0.647,62.19h12.434V49.894c0-0.357,0.29-0.647,0.647-0.647h7.471
	c0.359,0,0.648,0.29,0.648,0.647V62.19h12.434c0.357,0,0.647-0.29,0.647-0.647V5.827C34.928,5.469,34.638,5.18,34.281,5.18z
	 M12.156,43.38c0,0.339-0.274,0.613-0.613,0.613h-4.85c-0.337,0-0.612-0.274-0.612-0.613v-4.85c0-0.338,0.275-0.611,0.612-0.611
	h4.85c0.339,0,0.614,0.273,0.613,0.611V43.38z M12.156,34.624c0,0.34-0.274,0.612-0.613,0.612h-4.85
	c-0.337,0-0.612-0.272-0.612-0.612v-4.85c0-0.339,0.275-0.612,0.612-0.612h4.85c0.339,0,0.614,0.273,0.613,0.612V34.624z
	 M12.156,25.867c0,0.34-0.274,0.611-0.613,0.611h-4.85c-0.337,0-0.612-0.271-0.612-0.611v-4.85c0-0.337,0.275-0.611,0.612-0.611
	h4.85c0.339,0,0.614,0.275,0.613,0.611V25.867z M12.156,17.111c0,0.34-0.274,0.612-0.613,0.612h-4.85
	c-0.337,0-0.612-0.272-0.612-0.612v-4.85c0-0.339,0.275-0.613,0.612-0.613h4.85c0.339,0,0.614,0.275,0.613,0.613V17.111z
	 M20.5,43.38c0,0.339-0.273,0.613-0.612,0.613h-4.85c-0.338,0-0.612-0.274-0.612-0.613v-4.85c0-0.338,0.274-0.611,0.612-0.611h4.85
	c0.339,0,0.612,0.273,0.612,0.611V43.38z M20.5,34.624c0,0.34-0.273,0.612-0.612,0.612h-4.85c-0.338,0-0.612-0.272-0.612-0.612
	v-4.85c0-0.339,0.274-0.612,0.612-0.612h4.85c0.339,0,0.612,0.273,0.612,0.612V34.624z M20.5,25.867c0,0.34-0.273,0.611-0.612,0.611
	h-4.85c-0.338,0-0.612-0.271-0.612-0.611v-4.85c0-0.337,0.274-0.611,0.612-0.611h4.85c0.339,0,0.612,0.275,0.612,0.611V25.867z
	 M20.5,17.111c0,0.34-0.273,0.612-0.612,0.612h-4.85c-0.338,0-0.612-0.272-0.612-0.612v-4.85c0-0.339,0.274-0.613,0.612-0.613h4.85
	c0.339,0,0.612,0.275,0.612,0.613V17.111z M28.845,43.38c0,0.339-0.273,0.613-0.611,0.613h-4.851c-0.338,0-0.611-0.274-0.611-0.613
	v-4.85c0-0.338,0.273-0.611,0.611-0.611h4.851c0.338,0,0.611,0.273,0.611,0.611V43.38z M28.845,34.624
	c0,0.34-0.273,0.612-0.611,0.612h-4.851c-0.338,0-0.611-0.272-0.611-0.612v-4.85c0-0.339,0.273-0.612,0.611-0.612h4.851
	c0.338,0,0.611,0.273,0.611,0.612V34.624z M28.845,25.867c0,0.34-0.273,0.611-0.611,0.611h-4.851c-0.338,0-0.611-0.271-0.611-0.611
	v-4.85c0-0.337,0.273-0.611,0.611-0.611h4.851c0.338,0,0.611,0.275,0.611,0.611V25.867z M28.845,17.111
	c0,0.34-0.273,0.612-0.611,0.612h-4.851c-0.338,0-0.611-0.272-0.611-0.612v-4.85c0-0.339,0.273-0.613,0.611-0.613h4.851
	c0.338,0,0.611,0.275,0.611,0.613V17.111z"/>
<path fill="#FFFFFF" d="M75.499,39.613l-4.414-3.768v-8.823c0-0.358-0.291-0.647-0.648-0.647h-6.365
	c-0.357,0-0.646,0.289-0.646,0.647v2.285l-5.475-4.674c-0.485-0.412-1.196-0.412-1.682,0L38.577,39.737
	c-0.412,0.353-0.562,0.924-0.375,1.432c0.188,0.509,0.673,0.848,1.215,0.848h2.692v19.526c0,0.357,0.289,0.647,0.647,0.647h8.042
	v-9.547c0-0.359,0.29-0.648,0.647-0.648h7.472c0.357,0,0.647,0.29,0.647,0.648v9.547h11.925c0.358,0,0.647-0.29,0.647-0.647V42.017
	h2.666c0.011,0.001,0.02,0,0.025,0c0.716,0,1.295-0.579,1.295-1.295C76.122,40.252,75.873,39.84,75.499,39.613z M54.762,46.397
	c0,0.339-0.274,0.612-0.612,0.612H49.3c-0.34,0-0.613-0.272-0.613-0.612v-6.143c0-0.339,0.273-0.613,0.613-0.613h4.85
	c0.338,0,0.612,0.275,0.612,0.613V46.397z"/>
</svg>
