<?xml version="1.0" encoding="utf-8"?>
<!-- Generator: Adobe Illustrator 25.0.1, SVG Export Plug-In . SVG Version: 6.00 Build 0)  -->
<svg version="1.1" id="Calque_2_1_" xmlns="http://www.w3.org/2000/svg" xmlns:xlink="http://www.w3.org/1999/xlink" x="0px"
	 y="0px" viewBox="0 0 93.808 112.738" enable-background="new 0 0 93.808 112.738" xml:space="preserve">
<g>
	<path fill="#FFFFFF" d="M86.1,35.232c-1.711-1.373-3.482-2.792-3.891-4.052c-0.441-1.36,0.169-3.622,0.758-5.81
		c0.856-3.207,1.752-6.515,0-8.93c-1.769-2.434-5.222-2.608-8.561-2.769c-2.244-0.111-4.595-0.245-5.696-1.048
		s-1.922-2.957-2.711-5.039c-1.193-3.151-2.428-6.407-5.326-7.348c-2.78-0.903-5.631,0.953-8.386,2.75
		c-1.925,1.254-3.915,2.553-5.395,2.553c-1.479,0-3.465-1.298-5.396-2.553c-2.753-1.798-5.609-3.653-8.387-2.75
		c-2.899,0.942-4.133,4.197-5.326,7.348c-0.787,2.078-1.574,4.216-2.703,5.039c-1.128,0.823-3.45,0.937-5.696,1.048
		c-3.339,0.166-6.791,0.336-8.561,2.769c-1.76,2.408-0.865,5.723,0,8.93c0.597,2.188,1.199,4.45,0.758,5.81
		c-0.409,1.261-2.18,2.679-3.891,4.05c-2.656,2.122-5.393,4.321-5.393,7.423s2.737,5.3,5.387,7.428
		c1.711,1.373,3.482,2.792,3.891,4.052c0.441,1.36-0.169,3.622-0.758,5.81c-0.856,3.207-1.752,6.515,0,8.93
		c1.769,2.434,5.222,2.608,8.561,2.769c2.238,0.105,4.595,0.238,5.696,1.042c1.101,0.803,1.922,2.957,2.711,5.039
		c1.193,3.151,2.428,6.407,5.326,7.348c0.488,0.158,0.998,0.238,1.512,0.237c2.297,0,4.616-1.513,6.866-2.993
		c1.925-1.256,3.918-2.555,5.396-2.555s3.463,1.298,5.395,2.553c2.753,1.798,5.607,3.65,8.387,2.75
		c2.899-0.942,4.133-4.197,5.326-7.348c0.789-2.082,1.581-4.216,2.709-5.039c1.129-0.823,3.45-0.937,5.696-1.048
		c3.339-0.166,6.79-0.336,8.561-2.769c1.76-2.407,0.864-5.723,0-8.93c-0.599-2.186-1.201-4.45-0.76-5.808
		c0.409-1.26,2.18-2.679,3.891-4.05c2.658-2.117,5.395-4.315,5.395-7.417S88.748,37.353,86.1,35.232z M46.891,70.425
		c-15.337,0-27.771-12.433-27.771-27.771c0-15.337,12.433-27.771,27.771-27.771c15.337,0,27.771,12.433,27.771,27.771
		C74.644,57.984,62.221,70.407,46.891,70.425z"/>
	<path fill="#FFFFFF" d="M37.153,57.945c-1.019-0.001-1.845-0.828-1.845-1.847c0-0.104,0.009-0.208,0.027-0.311l1.696-9.897
		l-7.199-7.014c-0.73-0.711-0.745-1.88-0.034-2.61c0.284-0.291,0.656-0.481,1.058-0.539l9.951-1.443l4.43-8.998
		c0.312-0.632,0.956-1.032,1.661-1.03l0,0c0.705-0.002,1.35,0.398,1.661,1.03l4.43,8.998l9.936,1.443
		c1.009,0.146,1.709,1.082,1.563,2.09c-0.058,0.403-0.247,0.775-0.539,1.058l-7.199,7.014l1.696,9.897
		c0.164,1.006-0.519,1.954-1.526,2.118c-0.389,0.063-0.789,0-1.14-0.18l-8.884-4.666l-8.886,4.666
		C37.748,57.868,37.453,57.943,37.153,57.945z"/>
	<path fill="#FFFFFF" d="M78.974,74.212c-1.5,0.266-3.027,0.344-4.424,0.413c-1.322,0.065-3.527,0.174-4.121,0.502
		c-0.394,0.386-1.139,2.352-1.584,3.526l-0.047,0.126c-1.307,3.452-2.934,7.749-7.203,9.138c-1.506,0.486-2.958,0.47-4.342,0.165
		l13.47,23.797c0.286,0.504,0.821,0.816,1.401,0.816c0.052,0.001,0.103-0.002,0.155-0.006c0.634-0.061,1.172-0.489,1.373-1.093
		l4.498-13.515l13.515,4.516c0.43,0.143,0.9,0.099,1.296-0.122c0.776-0.434,1.053-1.415,0.618-2.191L78.974,74.212z"/>
	<path fill="#FFFFFF" d="M34.622,88.308c-0.01,0-0.02,0-0.029,0c-0.811,0-1.624-0.129-2.407-0.383
		c-4.271-1.386-5.898-5.685-7.206-9.14c-0.418-1.102-1.186-3.128-1.678-3.67c-0.704-0.317-3.049-0.428-4.065-0.476
		c-1.402-0.067-2.934-0.142-4.438-0.409L0.205,100.282c-0.434,0.776-0.157,1.757,0.619,2.191c0.395,0.221,0.866,0.266,1.296,0.122
		l13.515-4.516l4.498,13.515c0.201,0.604,0.74,1.032,1.373,1.093c0.051,0.005,0.103,0.007,0.154,0.006
		c0.58,0,1.115-0.312,1.401-0.816l13.472-23.8C35.909,88.215,35.276,88.308,34.622,88.308z"/>
</g>
</svg>
