<?xml version="1.0" encoding="utf-8"?>
<!-- Generator: Adobe Illustrator 25.0.1, SVG Export Plug-In . SVG Version: 6.00 Build 0)  -->
<svg version="1.1" id="Calque_2_1_" xmlns="http://www.w3.org/2000/svg" xmlns:xlink="http://www.w3.org/1999/xlink" x="0px"
	 y="0px" viewBox="0 0 61.94 61.084" enable-background="new 0 0 61.94 61.084" xml:space="preserve">
<g>
	<rect x="52.42" y="13.833" fill="#FFFFFF" width="9.449" height="32.412"/>
	<path fill="#FFFFFF" d="M57.127,55.771c1.262,0,2.448-0.57,3.34-1.606c0.892-1.035,1.383-2.412,1.384-3.877v-1.459l-9.448,0v1.459
		c0,1.465,0.491,2.841,1.384,3.877C54.679,55.201,55.865,55.771,57.127,55.771z"/>
</g>
<path fill="#FFFFFF" d="M0,0v61.009h46.001V34.919V23.918V0H0z M36.437,50.973L9.616,50.97c-0.729,0-1.321-0.591-1.319-1.32
	c0-0.729,0.591-1.32,1.319-1.32l26.821,0.003c0.729,0,1.321,0.591,1.319,1.32C37.756,50.381,37.166,50.973,36.437,50.973z
	 M36.437,41.648H9.564c-0.729,0-1.319-0.591-1.319-1.32c0-0.729,0.591-1.32,1.319-1.32h26.873c0.729,0,1.319,0.591,1.319,1.32
	C37.756,41.057,37.166,41.648,36.437,41.648z M36.437,32.324H9.564c-0.729,0-1.319-0.591-1.319-1.32s0.591-1.32,1.319-1.32h26.873
	c0.729,0,1.319,0.591,1.319,1.32S37.166,32.324,36.437,32.324z M36.437,22.999H9.564c-0.729,0-1.319-0.591-1.319-1.32
	c0-0.729,0.591-1.32,1.319-1.32h26.873c0.729,0,1.319,0.591,1.319,1.32C37.756,22.408,37.166,22.999,36.437,22.999z M36.437,13.675
	H9.564c-0.729,0-1.319-0.591-1.319-1.32c0-0.729,0.591-1.32,1.319-1.32h26.873c0.729,0,1.319,0.591,1.319,1.32
	C37.756,13.084,37.166,13.675,36.437,13.675z"/>
<path fill="#FFFFFF" d="M55.047,13.833l2.097-5.531l2.125,5.531h2.577l-3.634-9.46c-0.189-0.493-0.61-0.811-1.075-0.811
	c-0.001,0-0.002,0-0.003,0c-0.466,0.002-0.887,0.321-1.075,0.816l-3.584,9.455H55.047z"/>
</svg>
