<?xml version="1.0" encoding="utf-8"?>
<!-- Generator: Adobe Illustrator 25.0.1, SVG Export Plug-In . SVG Version: 6.00 Build 0)  -->
<svg version="1.1" id="Calque_1" xmlns="http://www.w3.org/2000/svg" xmlns:xlink="http://www.w3.org/1999/xlink" x="0px" y="0px"
	 viewBox="0 0 132.592 97.009" enable-background="new 0 0 132.592 97.009" xml:space="preserve">
<path fill="#FFFFFF" d="M130.091,41.962H1.87c-1.033,0-1.87,0.837-1.87,1.87v51.022c0,1.033,0.837,1.87,1.87,1.87h128.222
	c1.033,0,1.87-0.837,1.87-1.87V43.832C131.961,42.799,131.124,41.962,130.091,41.962z M20.196,69.393h-5.46V48.817h5.46V69.393z
	 M32.262,60.75l-5.459-0.057l0.124-11.905l5.459,0.057L32.262,60.75z M44.453,69.393h-5.46V48.817h5.46V69.393z M56.52,60.75
	l-5.459-0.057l0.124-11.905l5.459,0.057L56.52,60.75z M68.71,69.393h-5.46V48.817h5.46V69.393z M80.776,60.75l-5.459-0.057
	l0.124-11.905l5.459,0.057L80.776,60.75z M92.967,69.393h-5.46V48.817h5.46V69.393z M105.034,60.75l-5.459-0.057l0.124-11.905
	l5.459,0.057L105.034,60.75z M117.225,69.393h-5.46V48.817h5.46V69.393z"/>
<g>
	<rect x="9.7" y="11.133" fill="#FFFFFF" width="112.561" height="4.55"/>
	<g>
		<path fill="#FFFFFF" d="M18.771,25.755c-0.582,0-1.165-0.222-1.608-0.667L7.089,15.016c-0.427-0.426-0.667-1.005-0.667-1.608
			s0.24-1.182,0.667-1.608L17.162,1.727c0.888-0.889,2.329-0.889,3.217,0c0.889,0.888,0.889,2.329,0,3.217l-8.464,8.464l8.464,8.464
			c0.889,0.888,0.889,2.329,0,3.217C19.935,25.533,19.353,25.755,18.771,25.755z"/>
		<path fill="#FFFFFF" d="M113.19,25.755c-0.582,0-1.164-0.222-1.608-0.667c-0.889-0.888-0.889-2.329,0-3.217l8.464-8.464
			l-8.464-8.464c-0.889-0.888-0.889-2.329,0-3.217c0.888-0.889,2.329-0.889,3.217,0l10.072,10.072c0.889,0.888,0.889,2.329,0,3.217
			l-10.072,10.073C114.355,25.533,113.772,25.755,113.19,25.755z"/>
	</g>
</g>
<g>
	<rect x="0.063" fill="#FFFFFF" width="4.55" height="37.521"/>
	<rect x="127.348" fill="#FFFFFF" width="4.55" height="37.521"/>
</g>
</svg>
