<?xml version="1.0" encoding="utf-8"?>
<!-- Generator: Adobe Illustrator 25.0.1, SVG Export Plug-In . SVG Version: 6.00 Build 0)  -->
<svg version="1.1" id="Calque_2_1_" xmlns="http://www.w3.org/2000/svg" xmlns:xlink="http://www.w3.org/1999/xlink" x="0px"
	 y="0px" viewBox="0 0 98.02 91.567" enable-background="new 0 0 98.02 91.567" xml:space="preserve">
<g>
	<path fill="#FFFFFF" d="M80.915,21.41L69.006,33.319V0H0v91.521h69.006V54.913l22.705-22.705L80.915,21.41z M64.029,53.409
		l-7.544,2.933l2.903-7.575L64.029,53.409z M7.047,83.733V7.785h14.182h26.543h14.185v32.583l-5.045,5.045l-0.082-0.032
		l-0.071,0.185l-0.287,0.287l0.128,0.128l-4.931,12.867c-0.255,0.665-0.094,1.417,0.411,1.92c0.344,0.342,0.803,0.524,1.27,0.524
		c0.22,0,0.44-0.04,0.652-0.123l7.954-3.092v25.655H7.047z"/>
	<path fill="#FFFFFF" d="M95.702,17.436c-1.441-1.442-3.359-2.235-5.398-2.235c-2.037,0-3.955,0.793-5.398,2.235l-1.436,1.437
		l10.796,10.796l1.436-1.436c1.441-1.441,2.236-3.359,2.236-5.398C97.938,20.795,97.143,18.877,95.702,17.436z"/>
	<polygon fill="#FFFFFF" points="40.853,30.282 37.827,27.496 35.389,30.144 40.986,35.298 50.798,25.257 48.223,22.741 	"/>
	<path fill="#FFFFFF" d="M16.815,35.882h14.978V20.906H16.815V35.882z M20.415,24.506h7.778v7.776h-7.778V24.506z"/>
	<polygon fill="#FFFFFF" points="40.853,51.31 37.828,48.524 35.388,51.172 40.986,56.326 50.798,46.285 48.223,43.769 	"/>
	<path fill="#FFFFFF" d="M16.815,56.91h14.978V41.935H16.815V56.91z M20.415,45.535h7.778v7.775h-7.778V45.535z"/>
	<polygon fill="#FFFFFF" points="40.853,72.34 37.827,69.555 35.389,72.203 40.986,77.356 50.798,67.315 48.223,64.799 	"/>
	<path fill="#FFFFFF" d="M16.815,77.938h14.978V62.963H16.815V77.938z M20.415,66.563h7.778v7.775h-7.778V66.563z"/>
</g>
</svg>
