<?xml version="1.0" encoding="utf-8"?>
<!-- Generator: Adobe Illustrator 25.0.1, SVG Export Plug-In . SVG Version: 6.00 Build 0)  -->
<svg version="1.1" id="Calque_2_-_copie" xmlns="http://www.w3.org/2000/svg" xmlns:xlink="http://www.w3.org/1999/xlink" x="0px"
	 y="0px" viewBox="0 0 47.419 51.357" enable-background="new 0 0 47.419 51.357" xml:space="preserve">
<path fill="#FFFFFF" d="M34.722,29.027l-8.066-1.569v-1.849c2.178-1.507,3.487-3.655,3.794-6.222
	c1.209-0.149,2.142-1.193,2.142-2.422v-1.577c0.888-0.421,1.4-1.317,1.312-2.305c-0.09-0.982-0.747-1.768-1.686-2.026v-0.542
	c0-4.251-2.535-7.912-6.169-9.576v2.906c0,0.497-0.403,0.9-0.9,0.9s-0.9-0.403-0.9-0.9V0.332c0-0.008,0.004-0.014,0.004-0.022
	c-0.7-0.176-1.426-0.282-2.173-0.31c0.041,0.103,0.067,0.214,0.067,0.332v6.179c0,0.497-0.403,0.9-0.9,0.9s-0.9-0.403-0.9-0.9V0.332
	c0-0.118,0.026-0.229,0.067-0.332c-0.771,0.029-1.519,0.141-2.239,0.327v3.517c0,0.497-0.403,0.9-0.9,0.9s-0.9-0.403-0.9-0.9V0.974
	c-3.595,1.679-6.097,5.319-6.097,9.541v0.543c-0.938,0.259-1.596,1.044-1.686,2.026c-0.089,0.988,0.423,1.884,1.312,2.305v1.577
	c0,1.229,0.933,2.273,2.142,2.422c0.261,2.181,1.285,4.139,2.891,5.521c0.292,0.251,0.595,0.486,0.902,0.7v1.85l-8.065,1.569
	C2.76,30.002,0,32.798,0,36.901V45.1c0,1.88,1.53,3.41,3.41,3.41h26.546C30.538,48.51,36.317,30.622,34.722,29.027z M24.792,28.225
	c0,1.293-2.202,2.759-3.547,3.445c-1.341-0.685-3.54-2.149-3.547-3.445V26.62c2.264,0.922,4.828,0.923,7.094,0V28.225z
	 M16.149,23.498c-1.425-1.226-2.267-3.064-2.309-5.043c-0.01-0.509-0.415-0.908-0.895-0.908c-0.002,0-0.004,0-0.006,0
	c-0.041-0.01-0.094-0.007-0.185-0.003c-0.221,0.009-0.637,0.029-0.849-0.174c-0.098-0.093-0.146-0.225-0.146-0.403v-1.351h18.968
	v1.351c0,0.176-0.049,0.308-0.147,0.402c-0.227,0.214-0.662,0.189-0.877,0.177c-0.077-0.004-0.118-0.007-0.123-0.002
	c-0.503,0-0.92,0.409-0.932,0.912c-0.042,1.979-0.883,3.817-2.308,5.043C23.296,26.123,19.196,26.123,16.149,23.498z"/>
<path fill="#FFFFFF" d="M46.488,16.18c-0.524-0.167-1.087,0.13-1.252,0.657c-0.14,0.451-0.914,0.747-1.858,0.631l-9.715,31.229
	c-0.068,0.219-0.27,0.359-0.487,0.359c-0.05,0-0.101-0.007-0.151-0.023c-0.269-0.084-0.419-0.37-0.336-0.639l10.499-33.804
	c-0.078-0.128-0.145-0.26-0.242-0.382c-0.582-0.739-1.462-1.319-2.478-1.635c-1.015-0.314-2.066-0.337-2.967-0.058
	c-1.013,0.314-1.75,0.995-2.025,1.869c-0.001,0.002-0.002,0.003-0.003,0.005l-0.001,0.003c0,0,0,0,0,0c0,0,0,0,0,0l-9.89,31.792
	c-0.535,1.723,0.819,3.624,3.083,4.328c0.542,0.169,1.095,0.254,1.63,0.254c0.328,0,0.644-0.044,0.951-0.108
	c0.089,0.066,0.183,0.127,0.295,0.162c0.876,0.272,1.693,0.405,2.422,0.405c1.674,0,2.885-0.698,3.29-1.998l9.889-31.79
	c0.001-0.001,0.001-0.003,0.002-0.004v0C47.311,16.904,47.016,16.344,46.488,16.18z"/>
<path fill="#FFFFFF" d="M39.759,31.152L34.373,48.51h4.708c1.88,0,3.41-1.53,3.41-3.41v-8.199
	C42.491,34.502,41.542,32.555,39.759,31.152z"/>
</svg>
