<?xml version="1.0" encoding="utf-8"?>
<!-- Generator: Adobe Illustrator 25.0.1, SVG Export Plug-In . SVG Version: 6.00 Build 0)  -->
<svg version="1.1" id="Calque_1" xmlns="http://www.w3.org/2000/svg" xmlns:xlink="http://www.w3.org/1999/xlink" x="0px" y="0px"
	 viewBox="0 0 69.326 63.921" enable-background="new 0 0 69.326 63.921" xml:space="preserve">
<g>
	<path fill="#FFFFFF" d="M60.997,18.277c-1.141-3.283-3.488-5.926-6.612-7.446c-0.929-0.451-2.047-0.065-2.499,0.862
		c-0.451,0.929-0.065,2.047,0.864,2.498c2.232,1.087,3.909,2.978,4.721,5.326c0.001,0.002,0.002,0.004,0.002,0.006
		c0.811,2.351,0.66,4.875-0.429,7.11c-0.452,0.927-0.066,2.046,0.861,2.499c0.117,0.057,0.238,0.1,0.359,0.131
		c0.841,0.214,1.744-0.182,2.14-0.993c1.525-3.132,1.739-6.672,0.602-9.967C61.004,18.296,61.001,18.286,60.997,18.277
		L60.997,18.277z"/>
	<path fill="#FFFFFF" d="M68.072,15.865c-0.008-0.023-0.017-0.047-0.025-0.069C66.25,10.649,62.563,6.5,57.657,4.112
		c-0.929-0.452-2.046-0.066-2.499,0.861c-0.452,0.927-0.066,2.046,0.861,2.499c4.017,1.955,7.034,5.351,8.502,9.566
		c0.006,0.016,0.011,0.032,0.017,0.048c1.462,4.237,1.187,8.789-0.774,12.821c-0.451,0.929-0.065,2.047,0.863,2.498
		c0.117,0.057,0.236,0.101,0.358,0.132c0.841,0.214,1.745-0.183,2.139-0.995C69.523,26.613,69.86,21.045,68.072,15.865
		L68.072,15.865z"/>
</g>
<circle fill="#FFFFFF" cx="46.26" cy="23.471" r="5.815"/>
<path fill="#FFFFFF" d="M20.613,59.974L8.721,27.704l-2.937,1.029c-4.502,1.577-6.873,6.505-5.296,11.008
	c1.34,3.824,5.098,6.101,8.958,5.736l5.48,16.489c0,0,0.273,1.784,2.035,1.284c0.797-0.226,1.215-0.368,1.446-0.46
	c0.238-0.073,0.653-0.223,1.417-0.543C21.513,61.537,20.613,59.974,20.613,59.974z"/>
<path fill="#FFFFFF" d="M37.387,0.657c-1.3-1.365-1.819,0.549-1.819,0.549c-2.068,4.659-8.897,17.475-20.127,23.641
	c-3.203,1.758-5.247,2.293-5.247,2.293l2.503,7.144l0.59,1.683l2.503,7.144c0,0,1.931-0.858,5.531-1.482
	c12.622-2.19,25.957,3.562,30.48,5.912c0,0,1.6,1.172,1.764-0.706c0.174-1.982-1.187-11.436-5.52-23.044
	C44.4,12.887,38.76,2.098,37.387,0.657z"/>
</svg>
