<?xml version="1.0" encoding="utf-8"?>
<!-- Generator: Adobe Illustrator 25.0.1, SVG Export Plug-In . SVG Version: 6.00 Build 0)  -->
<svg version="1.1" id="Calque_2_1_" xmlns="http://www.w3.org/2000/svg" xmlns:xlink="http://www.w3.org/1999/xlink" x="0px"
	 y="0px" viewBox="0 0 152.59 151.092" enable-background="new 0 0 152.59 151.092" xml:space="preserve">
<linearGradient id="SVGID_1_" gradientUnits="userSpaceOnUse" x1="-390.8249" y1="492.1642" x2="-390.8249" y2="410.6556" gradientTransform="matrix(2.1001 0 0 2.1001 897.0294 -878.0792)">
	<stop  offset="0" style="stop-color:#878787"/>
	<stop  offset="1" style="stop-color:#B3B2B2"/>
</linearGradient>
<path fill="url(#SVGID_1_)" d="M72.746,121.13c0,1.431-0.291,19.7-0.584,20.209c-0.435,0.75-1.016,1.113-1.647,1.357
	c-0.313,0.119-0.604,0.169-0.798,0.216c-0.074,0-0.122,0.025-0.171,0.025H29.98c-1.478,0-2.763-0.532-3.61-1.307
	c-0.872-0.775-1.284-1.697-1.284-2.666v-66.39H9.554c-1.115,0-1.963-0.631-2.206-1.163c-0.097-0.194-0.122-0.34-0.122-0.509
	c0-0.315,0.097-0.631,0.509-1.019l25.782-23.817V27.723c0-2.592,2.107-4.676,4.701-4.701H58.45L74.441,8.243
	c0.388-0.364,1.091-0.655,1.819-0.655c0.726,0,1.453,0.291,1.816,0.655l66.705,61.665c0.388,0.363,0.484,0.703,0.509,1.016
	c0,0.171-0.025,0.315-0.122,0.509c-0.219,0.534-1.066,1.163-2.204,1.163h-15.533v66.392c0,0.969-0.41,1.866-1.282,2.664
	c-0.85,0.775-2.134,1.309-3.612,1.309H86.871c-1.938,0-3.513,1.575-3.513,3.513s1.575,3.513,3.513,3.513h35.643
	c3.173,0,6.105-1.138,8.286-3.076c2.181-1.915,3.66-4.75,3.635-7.901V79.648h8.529c3.561,0,6.929-1.866,8.527-5.136
	c0.534-1.115,0.825-2.35,0.825-3.538c0-2.326-1.019-4.555-2.763-6.154L82.848,3.106c-1.816-1.672-4.167-2.519-6.589-2.519
	c-2.425,0-4.775,0.872-6.591,2.519L55.687,16.045H38.193c-6.47,0-11.705,5.233-11.705,11.702v15.265L2.963,64.748
	C1.219,66.346,0.2,68.599,0.2,70.927c0,1.21,0.268,2.422,0.825,3.561c1.6,3.295,4.967,5.138,8.529,5.138h8.505v59.363
	c0,3.148,1.454,5.983,3.635,7.898c2.179,1.938,5.111,3.076,8.286,3.076h39.738h0.023c0.34-0.023,2.519-0.047,5.041-1.55
	c1.26-0.75,2.567-1.938,3.488-3.635c0.944-1.672,1.478-21.225,1.478-23.648"/>
<linearGradient id="SVGID_2_" gradientUnits="userSpaceOnUse" x1="-392.521" y1="462.8249" x2="-392.521" y2="477.3676" gradientTransform="matrix(2.1001 0 0 2.1001 897.0294 -878.0792)">
	<stop  offset="0" style="stop-color:#96C222"/>
	<stop  offset="1" style="stop-color:#3EAB37"/>
</linearGradient>
<path fill="url(#SVGID_2_)" d="M75.41,115.097c0.753-1.453,1.381-2.86,1.915-4.241c0,0.947,0.022,1.891,0.144,2.907
	c0,0,13.958-2.567,20.135-12.09c4.532-6.979,14.83-14.102,14.83-14.102s-25.32-0.629-32.953,14.03
	c2.107-29.949-46.523-42.136-46.523-42.136s13.981,17.494,19.36,32.781c4.507,12.843,16.815,22.172,16.84,22.172
	C71.824,116.697,75.41,115.097,75.41,115.097z M99.641,92.587l-15.824,14.44C83.795,107.005,87.308,98.863,99.641,92.587z
	 M51.155,73.565c17.203,16.502,20.813,33.777,20.813,33.777L51.155,73.565z"/>
</svg>
