<?xml version="1.0" encoding="utf-8"?>
<!-- Generator: Adobe Illustrator 25.0.1, SVG Export Plug-In . SVG Version: 6.00 Build 0)  -->
<svg version="1.1" id="Calque_1" xmlns="http://www.w3.org/2000/svg" xmlns:xlink="http://www.w3.org/1999/xlink" x="0px" y="0px"
	 viewBox="0 0 26.008 42.514" enable-background="new 0 0 26.008 42.514" xml:space="preserve">
<path d="M25.365,9.926C24.03,4.24,18.945,0,12.856,0C5.756,0,0,5.765,0,12.866c0,1.351,0.212,2.652,0.599,3.873
	c0.591,2.133,1.829,5.013,4.414,9.981l7.49,15.752c0,0,7.772-13.993,10.104-19.075C24.676,18.881,26.622,14.423,25.365,9.926z
	 M12.881,15.851c-2.348,0-4.251-1.903-4.251-4.252c0-2.348,1.903-4.251,4.251-4.251s4.251,1.904,4.251,4.251
	C17.133,13.948,15.23,15.851,12.881,15.851z"/>
</svg>
