<?xml version="1.0" encoding="utf-8"?>
<!-- Generator: Adobe Illustrator 25.0.1, SVG Export Plug-In . SVG Version: 6.00 Build 0)  -->
<svg version="1.1" id="Calque_1" xmlns="http://www.w3.org/2000/svg" xmlns:xlink="http://www.w3.org/1999/xlink" x="0px" y="0px"
	 viewBox="0 0 82.046 83.541" enable-background="new 0 0 82.046 83.541" xml:space="preserve">
<g>
	<g>
		<path fill="#FFFFFF" d="M23.226,81.89c-7.721,0-14.003-6.282-14.003-14.003c0-0.972,0.791-1.763,1.763-1.763
			s1.763,0.791,1.763,1.763c0,5.777,4.7,10.477,10.477,10.477c5.779,0,10.48-4.7,10.48-10.477c0-12.383,5.91-18.156,10.659-22.795
			c4.482-4.375,8.021-7.829,8.021-16.55c0-13.242-10.773-24.016-24.016-24.016S4.355,15.299,4.355,28.542
			c0,0.972-0.791,1.763-1.763,1.763s-1.763-0.791-1.763-1.763C0.829,13.355,13.184,1,28.371,1c7.345,0,14.258,2.868,19.466,8.076
			s8.076,12.121,8.076,19.465c0,10.206-4.401,14.502-9.062,19.051c-4.732,4.624-9.619,9.398-9.619,20.294
			C37.231,75.608,30.948,81.89,23.226,81.89z"/>
	</g>
</g>
<path fill="#FFFFFF" d="M17.661,56.556c-2.028,0-4.034-0.555-5.803-1.604c-0.835-0.496-1.112-1.581-0.617-2.418
	c0.314-0.532,0.896-0.862,1.518-0.862c0.314,0,0.625,0.085,0.897,0.247c1.22,0.724,2.608,1.106,4.013,1.106
	c0.657,0,1.316-0.083,1.96-0.247c2.044-0.523,3.76-1.809,4.833-3.62c1.077-1.812,1.382-3.936,0.856-5.978
	c-0.522-2.041-1.806-3.754-3.615-4.823c-1.215-0.724-2.605-1.107-4.018-1.107c-0.272,0-0.546,0.014-0.821,0.042
	c-0.052,0.005-0.112,0.007-0.172,0.007c-0.929,0-1.672-0.662-1.767-1.575c0.001,0.004,0.002,0.006,0.002,0.006
	c0.003,0,0.003-0.042,0-0.084l-0.003-0.054l-0.023-0.143l-0.254-7.395c-0.008-0.239,0.032-0.474,0.119-0.698l0.045-0.115
	l0.016-0.123c0.947-7.543,7.39-13.231,14.987-13.231c8.335,0,15.117,6.784,15.117,15.122c0,0.972-0.791,1.763-1.763,1.763
	s-1.763-0.791-1.763-1.763c0-6.394-5.2-11.596-11.591-11.596c-6.393,0-11.593,5.202-11.593,11.596l-0.009,0.129l0.153,4.575
	l0.839,0.112c1.521,0.203,2.968,0.708,4.3,1.5c2.62,1.552,4.477,4.032,5.231,6.984c0.755,2.958,0.313,6.031-1.245,8.652
	c-1.557,2.621-4.039,4.479-6.992,5.233C19.568,56.434,18.614,56.556,17.661,56.556z"/>
<path fill="#FFFFFF" d="M63.001,45.589c-0.267,0-0.538-0.062-0.792-0.19c-0.862-0.438-1.205-1.492-0.767-2.353
	c2.581-5.077,3.89-10.561,3.89-16.299c0-5.688-1.287-11.13-3.826-16.173c-0.435-0.863-0.087-1.916,0.776-2.35
	C63.146,7.79,64.198,8.136,64.632,9c2.787,5.536,4.2,11.507,4.2,17.747c0,6.294-1.437,12.312-4.27,17.885
	C64.254,45.239,63.639,45.589,63.001,45.589z"/>
<path fill="#FFFFFF" d="M73.198,52.073c-0.267,0-0.538-0.062-0.792-0.19c-0.862-0.438-1.205-1.492-0.767-2.353
	c3.612-7.104,5.444-14.778,5.444-22.808c0-7.96-1.802-15.575-5.355-22.632c-0.435-0.863-0.087-1.916,0.776-2.35
	c0.863-0.434,1.915-0.087,2.35,0.776c3.801,7.55,5.729,15.694,5.729,24.206c0,8.586-1.959,16.793-5.824,24.394
	C74.451,51.723,73.836,52.073,73.198,52.073z"/>
</svg>
