<?xml version="1.0" encoding="utf-8"?>
<!-- Generator: Adobe Illustrator 25.0.1, SVG Export Plug-In . SVG Version: 6.00 Build 0)  -->
<svg version="1.1" id="Calque_1" xmlns="http://www.w3.org/2000/svg" xmlns:xlink="http://www.w3.org/1999/xlink" x="0px" y="0px"
	 viewBox="0 0 73.067 85.702" enable-background="new 0 0 73.067 85.702" xml:space="preserve">
<g id="Calque_1_1_" display="none">
	<path display="inline" fill="#FFFFFF" d="M121.55,0H2.5C1.119,0,0,1.119,0,2.5v80.272c0,1.381,1.119,2.5,2.5,2.5h119.05
		c1.381,0,2.5-1.119,2.5-2.5V2.5C124.05,1.119,122.931,0,121.55,0z"/>
	<g display="inline">
		<path fill="#FF4586" d="M19.252,36.95c-1.184,0-2.143,0.96-2.143,2.143v7.087c0,1.184,0.96,2.143,2.143,2.143
			c1.184,0,2.143-0.96,2.143-2.143v-7.087C21.396,37.909,20.437,36.95,19.252,36.95z"/>
		<path fill="#FF4586" d="M28.757,33.951c-1.184,0-2.143,0.96-2.143,2.143v13.084c0,1.184,0.96,2.143,2.143,2.143
			c1.184,0,2.143-0.96,2.143-2.143V36.095C30.901,34.911,29.941,33.951,28.757,33.951z"/>
		<path fill="#FF4586" d="M38.262,30.408c-1.184,0-2.143,0.96-2.143,2.143v20.171c0,1.184,0.96,2.143,2.143,2.143
			s2.143-0.96,2.143-2.143V32.551C40.406,31.367,39.446,30.408,38.262,30.408z"/>
		<path fill="#FF4586" d="M47.767,24.139c-1.184,0-2.143,0.96-2.143,2.143v32.709c0,1.184,0.96,2.143,2.143,2.143
			s2.143-0.96,2.143-2.143V26.282C49.911,25.098,48.951,24.139,47.767,24.139z"/>
		<path fill="#FF4586" d="M57.272,9.283c-1.184,0-2.143,0.96-2.143,2.143v62.42c0,1.184,0.96,2.143,2.143,2.143
			s2.143-0.96,2.143-2.143v-62.42C59.416,10.243,58.456,9.283,57.272,9.283z"/>
		<path fill="#FF4586" d="M66.777,14.598c-1.184,0-2.143,0.96-2.143,2.143v51.79c0,1.184,0.96,2.143,2.143,2.143
			s2.143-0.96,2.143-2.143v-51.79C68.921,15.557,67.961,14.598,66.777,14.598z"/>
		<path fill="#FF4586" d="M76.282,25.229c-1.184,0-2.143,0.96-2.143,2.143V57.9c0,1.184,0.96,2.143,2.143,2.143
			s2.143-0.96,2.143-2.143V27.372C78.426,26.188,77.466,25.229,76.282,25.229z"/>
		<path fill="#FF4586" d="M85.787,31.634c-1.184,0-2.143,0.96-2.143,2.143v17.718c0,1.184,0.96,2.143,2.143,2.143
			s2.143-0.96,2.143-2.143V33.777C87.931,32.594,86.971,31.634,85.787,31.634z"/>
		<path fill="#FF4586" d="M95.292,34.36c-1.184,0-2.143,0.96-2.143,2.143v12.266c0,1.184,0.96,2.143,2.143,2.143
			s2.143-0.96,2.143-2.143V36.504C97.436,35.32,96.476,34.36,95.292,34.36z"/>
		<path fill="#FF4586" d="M104.797,36.95c-1.184,0-2.143,0.96-2.143,2.143v7.087c0,1.184,0.96,2.143,2.143,2.143
			s2.143-0.96,2.143-2.143v-7.087C106.941,37.909,105.981,36.95,104.797,36.95z"/>
	</g>
</g>
<g id="Calque_2_1_">
	<g>
		<rect x="0.201" y="47.343" fill="#FFFFFF" width="22.68" height="5.852"/>
		<rect x="0.201" y="79.428" fill="#FFFFFF" width="22.68" height="5.852"/>
		<rect x="0.201" y="71.392" fill="#FFFFFF" width="22.68" height="5.852"/>
		<rect x="0.201" y="63.385" fill="#FFFFFF" width="22.68" height="5.881"/>
		<rect x="0.201" y="55.378" fill="#FFFFFF" width="22.68" height="5.852"/>
		<rect x="0.201" y="33.309" fill="#FFFFFF" width="22.68" height="5.852"/>
		<rect x="0.201" y="8.852" fill="#FFFFFF" width="22.68" height="5.852"/>
		<rect x="49.959" y="79.428" fill="#FFFFFF" width="22.68" height="5.852"/>
		<rect x="49.959" y="71.392" fill="#FFFFFF" width="22.68" height="5.852"/>
		<rect x="49.959" y="63.385" fill="#FFFFFF" width="22.68" height="5.881"/>
		<rect x="49.959" y="55.378" fill="#FFFFFF" width="22.68" height="5.852"/>
		<rect x="49.959" y="40.937" fill="#FFFFFF" width="22.68" height="5.852"/>
		<rect x="49.959" y="16.481" fill="#FFFFFF" width="22.68" height="5.852"/>
		<rect x="25.095" y="47.343" fill="#FFFFFF" width="22.68" height="5.852"/>
		<rect x="25.095" y="39.335" fill="#FFFFFF" width="22.68" height="5.852"/>
		<rect x="25.095" y="24.895" fill="#FFFFFF" width="22.68" height="5.852"/>
		<rect x="25.095" y="0.437" fill="#FFFFFF" width="22.68" height="5.852"/>
		<rect x="25.095" y="71.392" fill="#FFFFFF" width="22.68" height="5.852"/>
		<rect x="25.095" y="63.385" fill="#FFFFFF" width="22.68" height="5.881"/>
		<rect x="25.095" y="55.378" fill="#FFFFFF" width="22.68" height="5.852"/>
	</g>
</g>
</svg>
