<?xml version="1.0" encoding="utf-8"?>
<!-- Generator: Adobe Illustrator 25.0.1, SVG Export Plug-In . SVG Version: 6.00 Build 0)  -->
<svg version="1.1" id="Calque_2_1_" xmlns="http://www.w3.org/2000/svg" xmlns:xlink="http://www.w3.org/1999/xlink" x="0px"
	 y="0px" viewBox="0 0 27.034 26.586" enable-background="new 0 0 27.034 26.586" xml:space="preserve">
<path fill="#FFFFFF" d="M26.497,11.386L14.661,0.448C14.34,0.153,13.924,0.001,13.492,0c-0.432,0.001-0.848,0.153-1.169,0.448
	L9.842,2.742H6.738c-1.146,0-2.077,0.929-2.077,2.077v2.71l-4.172,3.857C0.179,11.669-0.001,12.068,0,12.48
	c0,0.213,0.046,0.43,0.145,0.63c0.285,0.583,0.881,0.911,1.513,0.913h1.51l0.001,10.531c-0.001,0.56,0.26,1.063,0.646,1.403
	c0.388,0.343,0.908,0.547,1.469,0.547h7.049h0.006c0.004,0,0.014-0.002,0.02-0.002h3.005c0.005,0,0.008,0.002,0.013,0.002h6.326
	c0.562,0,1.081-0.204,1.469-0.547c0.387-0.34,0.648-0.843,0.646-1.403V14.023h1.511c0.633-0.002,1.229-0.33,1.515-0.914
	c0.096-0.2,0.145-0.416,0.145-0.63C26.987,12.067,26.807,11.669,26.497,11.386"/>
</svg>
