<?xml version="1.0" encoding="utf-8"?>
<!-- Generator: Adobe Illustrator 25.0.1, SVG Export Plug-In . SVG Version: 6.00 Build 0)  -->
<svg version="1.1" id="Calque_1" xmlns="http://www.w3.org/2000/svg" xmlns:xlink="http://www.w3.org/1999/xlink" x="0px" y="0px"
	 viewBox="0 0 153.432 150.206" enable-background="new 0 0 153.432 150.206" xml:space="preserve">
<linearGradient id="SVGID_1_" gradientUnits="userSpaceOnUse" x1="-704.8087" y1="259.1248" x2="-704.8087" y2="316.1521" gradientTransform="matrix(2.1001 0 0 -2.1001 1556.6918 661.6647)">
	<stop  offset="0" style="stop-color:#878787"/>
	<stop  offset="1" style="stop-color:#B3B2B2"/>
</linearGradient>
<path fill="url(#SVGID_1_)" d="M72.994,123.043c0,5.965,0,15.268,0,15.394c0,1.449-0.294,2.247-0.588,2.772
	c-0.44,0.756-1.008,1.113-1.659,1.365c-0.315,0.104-0.608,0.188-0.798,0.21c-0.062,0.02-0.126,0.02-0.168,0.02h-39.69
	c-1.491,0-2.772-0.546-3.634-1.302c-0.86-0.777-1.28-1.68-1.28-2.667V72.242H9.594c-1.134,0-1.974-0.63-2.205-1.155
	c-0.084-0.188-0.126-0.356-0.126-0.504c0-0.315,0.106-0.63,0.504-1.008l25.852-23.898V27.281c0-2.604,2.101-4.704,4.704-4.704
	h20.308L74.676,7.729c0.378-0.357,1.112-0.672,1.827-0.65c0.734,0,1.448,0.293,1.826,0.65l66.908,61.847
	c0.398,0.378,0.504,0.714,0.504,1.008c0,0.168-0.042,0.315-0.126,0.525c-0.232,0.547-1.071,1.177-2.205,1.156h-15.582v66.592
	c0,0.967-0.42,1.891-1.281,2.667c-0.861,0.777-2.143,1.303-3.633,1.303H87.171c-1.953,0-3.528,1.575-3.528,3.527
	c0,1.953,1.575,3.528,3.528,3.528h35.764c3.171,0,6.111-1.134,8.295-3.087c2.185-1.932,3.654-4.768,3.654-7.939V79.298h8.547
	c3.57,0,6.951-1.868,8.568-5.166c0.546-1.134,0.819-2.352,0.819-3.549c0-2.331-1.029-4.578-2.751-6.174L83.118,2.541
	c-1.827-1.658-4.18-2.52-6.615-2.541c-2.437,0-4.788,0.861-6.615,2.541L55.86,15.499H38.322c-6.489,0-11.739,5.25-11.739,11.739
	v15.33L3,64.367c-1.743,1.596-2.772,3.863-2.772,6.195c0,1.218,0.273,2.436,0.819,3.569c1.617,3.298,4.998,5.146,8.568,5.167h8.547
	v59.557c0,3.171,1.47,6.007,3.654,7.939c2.184,1.953,5.124,3.087,8.295,3.087h39.838h0.042c0.336-0.021,2.521-0.042,5.062-1.554
	c1.26-0.756,2.562-1.953,3.507-3.633c0.945-1.681,1.491-3.802,1.491-6.217c0-0.105,0-9.723,0-15.394L72.994,123.043z"/>
<g>
	
		<linearGradient id="SVGID_2_" gradientUnits="userSpaceOnUse" x1="-704.4533" y1="283.6071" x2="-704.4533" y2="253.0684" gradientTransform="matrix(2.1001 0 0 -2.1001 1556.6918 661.6647)">
		<stop  offset="0" style="stop-color:#4BC1F0"/>
		<stop  offset="0.5" style="stop-color:#229EDA"/>
		<stop  offset="1" style="stop-color:#148BCC"/>
	</linearGradient>
	<path fill="url(#SVGID_2_)" d="M81.668,51.18c-3.486-0.546-6.993-0.399-10.396,0.357c0.756,0.672,1.407,1.449,1.953,2.352
		c0.168,0.273,0.356,0.63,0.567,1.028c2.393-0.356,4.851-0.356,7.287,0c1.028,0.169,1.994-0.545,2.163-1.574
		C83.411,52.292,82.696,51.327,81.668,51.18z"/>
	
		<linearGradient id="SVGID_3_" gradientUnits="userSpaceOnUse" x1="-694.7774" y1="283.6075" x2="-694.7774" y2="253.0767" gradientTransform="matrix(2.1001 0 0 -2.1001 1556.6918 661.6647)">
		<stop  offset="0" style="stop-color:#4BC1F0"/>
		<stop  offset="0.5" style="stop-color:#229EDA"/>
		<stop  offset="1" style="stop-color:#148BCC"/>
	</linearGradient>
	<path fill="url(#SVGID_3_)" d="M99.602,89.484c-0.379,0-0.799-0.02-1.281-0.042c-1.239,2.689-2.961,5.166-5.124,7.267
		c-0.756,0.734-0.777,1.932-0.042,2.667c0.378,0.378,0.86,0.566,1.364,0.566c0.483,0,0.945-0.168,1.323-0.524
		c3.024-2.919,5.292-6.469,6.721-10.332c-0.819,0.23-1.681,0.378-2.562,0.398C99.875,89.484,99.749,89.484,99.602,89.484z"/>
	
		<linearGradient id="SVGID_4_" gradientUnits="userSpaceOnUse" x1="-715.9198" y1="283.6089" x2="-715.9198" y2="253.0745" gradientTransform="matrix(2.1001 0 0 -2.1001 1556.6918 661.6647)">
		<stop  offset="0" style="stop-color:#4BC1F0"/>
		<stop  offset="0.5" style="stop-color:#229EDA"/>
		<stop  offset="1" style="stop-color:#148BCC"/>
	</linearGradient>
	<path fill="url(#SVGID_4_)" d="M53.275,86.523c-0.315-0.987-1.365-1.554-2.373-1.239c-0.987,0.315-1.555,1.365-1.239,2.373
		c0.692,2.227,1.68,4.39,2.919,6.385c0.735,1.196,1.575,2.31,2.457,3.381c0.21-0.903,0.525-1.764,0.987-2.604
		c0.188-0.356,0.462-0.798,0.776-1.28c-0.356-0.483-0.692-0.967-1.008-1.491C54.723,90.324,53.863,88.455,53.275,86.523z"/>
	
		<linearGradient id="SVGID_5_" gradientUnits="userSpaceOnUse" x1="-703.7119" y1="283.6066" x2="-703.7119" y2="253.0587" gradientTransform="matrix(2.1001 0 0 -2.1001 1556.6918 661.6647)">
		<stop  offset="0" style="stop-color:#4BC1F0"/>
		<stop  offset="0.5" style="stop-color:#229EDA"/>
		<stop  offset="1" style="stop-color:#148BCC"/>
	</linearGradient>
	<path fill="url(#SVGID_5_)" d="M80.786,56.87c-2.017-0.314-4.074-0.336-6.069-0.084c0.63,1.387,1.322,3.066,2.016,4.893
		c1.092-0.042,2.205,0,3.297,0.168c1.387,0.21,2.667-0.735,2.877-2.1C83.117,58.362,82.172,57.081,80.786,56.87z"/>
	
		<linearGradient id="SVGID_6_" gradientUnits="userSpaceOnUse" x1="-697.5024" y1="283.6107" x2="-697.5024" y2="253.0726" gradientTransform="matrix(2.1001 0 0 -2.1001 1556.6918 661.6647)">
		<stop  offset="0" style="stop-color:#4BC1F0"/>
		<stop  offset="0.5" style="stop-color:#229EDA"/>
		<stop  offset="1" style="stop-color:#148BCC"/>
	</linearGradient>
	<path fill="url(#SVGID_6_)" d="M90.866,88.518c-0.714,1.134-1.575,2.205-2.562,3.15c-1.008,0.966-1.029,2.561-0.062,3.569
		c0.504,0.505,1.154,0.777,1.806,0.777c0.63,0,1.26-0.232,1.764-0.714c1.807-1.764,3.276-3.801,4.39-6.027
		C94.625,89.106,92.798,88.854,90.866,88.518z"/>
	
		<linearGradient id="SVGID_7_" gradientUnits="userSpaceOnUse" x1="-713.5467" y1="283.608" x2="-713.5467" y2="253.0759" gradientTransform="matrix(2.1001 0 0 -2.1001 1556.6918 661.6647)">
		<stop  offset="0" style="stop-color:#4BC1F0"/>
		<stop  offset="0.5" style="stop-color:#229EDA"/>
		<stop  offset="1" style="stop-color:#148BCC"/>
	</linearGradient>
	<path fill="url(#SVGID_7_)" d="M57.474,91.017c0.169,0.273,0.337,0.525,0.525,0.777c0.924-1.261,2.059-2.73,3.297-4.242
		c-0.546-0.987-0.986-2.037-1.322-3.108c-0.421-1.323-1.827-2.079-3.15-1.659s-2.079,1.827-1.659,3.15
		C55.711,87.721,56.488,89.422,57.474,91.017z"/>
	
		<linearGradient id="SVGID_8_" gradientUnits="userSpaceOnUse" x1="-709.6902" y1="283.608" x2="-709.6902" y2="253.0766" gradientTransform="matrix(2.1001 0 0 -2.1001 1556.6918 661.6647)">
		<stop  offset="0" style="stop-color:#4BC1F0"/>
		<stop  offset="0.5" style="stop-color:#229EDA"/>
		<stop  offset="1" style="stop-color:#148BCC"/>
	</linearGradient>
	<path fill="url(#SVGID_8_)" d="M67.618,75.351c0.756-1.681,2.017-3.15,3.675-4.18c1.513-0.944,3.256-1.428,5.041-1.428
		c0.105,0,0.231,0,0.336,0.021c-0.693-2.603-1.617-5.334-2.541-7.77c-0.693-1.807-1.387-3.444-1.995-4.726
		c-0.357-0.735-0.651-1.344-0.925-1.806c-0.042-0.084-0.084-0.168-0.146-0.23c-0.735-1.197-1.743-2.143-2.898-2.794
		c-1.238-0.714-2.667-1.112-4.095-1.112c-1.47,0-2.961,0.398-4.306,1.218c-3.863,2.373-5.04,7.434-2.667,11.298
		C58.441,65.942,63.082,71.341,67.618,75.351z"/>
	
		<linearGradient id="SVGID_9_" gradientUnits="userSpaceOnUse" x1="-695.4992" y1="283.6077" x2="-695.4992" y2="253.0772" gradientTransform="matrix(2.1001 0 0 -2.1001 1556.6918 661.6647)">
		<stop  offset="0" style="stop-color:#4BC1F0"/>
		<stop  offset="0.5" style="stop-color:#229EDA"/>
		<stop  offset="1" style="stop-color:#148BCC"/>
	</linearGradient>
	<path fill="url(#SVGID_9_)" d="M99.686,70.563c-0.084,0-0.168,0-0.252,0c-2.479,0.084-9.43,1.386-15.163,3.317
		c0.084,0.126,0.19,0.273,0.273,0.42c1.344,2.185,1.764,4.768,1.176,7.267c-0.252,1.071-0.693,2.079-1.26,2.983
		c2.478,0.672,5.166,1.238,7.643,1.638c1.911,0.315,3.696,0.546,5.146,0.672c0.798,0.064,1.491,0.105,2.037,0.126
		c0.104,0,0.21,0,0.315,0c0.104,0,0.21,0,0.314,0c1.302-0.042,2.521-0.378,3.591-0.966c2.667-1.428,4.452-4.263,4.368-7.497
		C107.729,74.07,104.096,70.563,99.686,70.563z"/>
	
		<linearGradient id="SVGID_10_" gradientUnits="userSpaceOnUse" x1="-709.1842" y1="283.6088" x2="-709.1842" y2="253.0761" gradientTransform="matrix(2.1001 0 0 -2.1001 1556.6918 661.6647)">
		<stop  offset="0" style="stop-color:#4BC1F0"/>
		<stop  offset="0.5" style="stop-color:#229EDA"/>
		<stop  offset="1" style="stop-color:#148BCC"/>
	</linearGradient>
	<path fill="url(#SVGID_10_)" d="M68.185,84.402c-0.084-0.146-0.148-0.272-0.232-0.42c-1.827,1.806-3.633,3.864-5.208,5.796
		c-1.239,1.513-2.31,2.94-3.15,4.116c-0.462,0.651-0.84,1.239-1.134,1.723c-0.084,0.146-0.168,0.294-0.23,0.398
		c-0.651,1.197-0.967,2.478-0.967,3.759c-0.042,2.962,1.513,5.859,4.306,7.351c1.239,0.672,2.562,0.987,3.885,0.987
		c2.919,0,5.754-1.575,7.225-4.326c1.197-2.205,3.528-8.946,4.725-14.89c-0.356,0.042-0.692,0.064-1.05,0.064
		C73.015,88.96,69.949,87.259,68.185,84.402z"/>
	
		<linearGradient id="SVGID_11_" gradientUnits="userSpaceOnUse" x1="-704.9048" y1="283.6078" x2="-704.9048" y2="253.0766" gradientTransform="matrix(2.1001 0 0 -2.1001 1556.6918 661.6647)">
		<stop  offset="0" style="stop-color:#4BC1F0"/>
		<stop  offset="0.5" style="stop-color:#229EDA"/>
		<stop  offset="1" style="stop-color:#148BCC"/>
	</linearGradient>
	<path fill="url(#SVGID_11_)" d="M80.554,75.309c-0.084-0.105-0.189-0.189-0.273-0.273c-0.252-0.23-0.504-0.42-0.798-0.588
		c-0.188-0.126-0.398-0.231-0.608-0.336c-0.294-0.148-0.609-0.252-0.925-0.358c-0.147-0.042-0.273-0.062-0.42-0.104
		c-0.398-0.084-0.798-0.126-1.196-0.126c-1.051,0-2.101,0.272-3.066,0.86c-1.323,0.819-2.205,2.079-2.562,3.466
		c-0.042,0.146-0.062,0.272-0.105,0.42c-0.063,0.314-0.084,0.63-0.105,0.966c0,0.231,0,0.462,0.042,0.693
		c0.042,0.314,0.084,0.63,0.168,0.944c0.042,0.126,0.084,0.273,0.126,0.399c0.126,0.378,0.315,0.756,0.525,1.113
		c1.113,1.785,3.003,2.772,4.977,2.772c0.546,0,1.092-0.084,1.638-0.252c0.021,0,0.021,0,0.042-0.021
		c0.44-0.126,0.882-0.315,1.281-0.567c0.042-0.021,0.062-0.042,0.104-0.042c0.042-0.021,0.084-0.062,0.105-0.084
		c0.42-0.273,0.776-0.588,1.092-0.924c0.021-0.022,0.042-0.042,0.042-0.042c1.701-1.869,2.037-4.726,0.63-6.973
		C81.1,75.918,80.828,75.603,80.554,75.309z"/>
</g>
</svg>
