<?xml version="1.0" encoding="utf-8"?>
<!-- Generator: Adobe Illustrator 25.0.1, SVG Export Plug-In . SVG Version: 6.00 Build 0)  -->
<svg version="1.1" id="Calque_2_1_" xmlns="http://www.w3.org/2000/svg" xmlns:xlink="http://www.w3.org/1999/xlink" x="0px"
	 y="0px" viewBox="0 0 153.443 150.427" enable-background="new 0 0 153.443 150.427" xml:space="preserve">
<path fill="#FFFFFF" d="M118.8,121.413"/>
<path fill="#FFFFFF" d="M32.33,62.964"/>
<linearGradient id="SVGID_1_" gradientUnits="userSpaceOnUse" x1="76.7824" y1="37.9777" x2="76.7824" y2="188.079" gradientTransform="matrix(1 0 0 -1 0 188)">
	<stop  offset="0" style="stop-color:#878787"/>
	<stop  offset="1" style="stop-color:#B3B2B2"/>
</linearGradient>
<path fill="url(#SVGID_1_)" d="M73.181,123.074v15.403c0.03,0.928-0.174,1.849-0.588,2.679c-0.369,0.644-0.96,1.129-1.661,1.365
	c-0.26,0.098-0.53,0.17-0.805,0.216H30.241c-1.335,0.032-2.634-0.437-3.643-1.313c-0.798-0.664-1.267-1.642-1.285-2.679V72.232
	H9.828c-0.897,0.061-1.754-0.382-2.221-1.152c-0.039-0.166-0.039-0.341,0-0.508c0.014-0.397,0.199-0.769,0.509-1.018l25.875-23.921
	v-18.43c0-2.604,2.112-4.714,4.715-4.714l0,0h20.333l16.07-14.868c1.064-0.886,2.607-0.886,3.67,0l66.968,61.905
	c0.307,0.251,0.493,0.621,0.509,1.018c0.039,0.168,0.039,0.341,0,0.509c-0.463,0.76-1.307,1.202-2.196,1.152h-15.616v66.672
	c-0.019,1.037-0.488,2.015-1.287,2.678c-1.008,0.876-2.307,1.345-3.643,1.312H87.377c-1.945,0.17-3.384,1.885-3.214,3.83
	c0.149,1.71,1.503,3.066,3.214,3.216h35.815c3.051,0.019,6.005-1.075,8.304-3.081c2.322-2.027,3.658-4.954,3.669-8.036V79.277h8.598
	c3.613,0.06,6.941-1.947,8.573-5.17c0.531-1.113,0.805-2.33,0.802-3.563c0.007-2.345-0.963-4.588-2.678-6.188L83.494,2.453
	c-3.765-3.376-9.467-3.376-13.231,0L56.225,15.444H38.492c-6.495,0-11.76,5.265-11.76,11.76v15.349L3.106,64.383
	c-1.715,1.601-2.684,3.843-2.679,6.188c0.006,1.235,0.29,2.452,0.83,3.563c1.632,3.222,4.96,5.231,8.571,5.17h8.546v59.601
	c0.011,3.082,1.348,6.009,3.67,8.037c2.301,2.004,5.253,3.1,8.305,3.08h39.912c1.791-0.086,3.53-0.62,5.06-1.553
	c1.467-0.891,2.675-2.146,3.511-3.643c1.022-1.918,1.531-4.069,1.473-6.242v-15.509h-7.124V123.074z"/>
<path fill="#FFFFFF" d="M118.826,130.334"/>
<path d="M108.111,141.932"/>
<linearGradient id="SVGID_2_" gradientUnits="userSpaceOnUse" x1="75.9399" y1="144.993" x2="75.9399" y2="72.587" gradientTransform="matrix(1 0 0 -1 0 188)">
	<stop  offset="0" style="stop-color:#F3C51B"/>
	<stop  offset="1" style="stop-color:#ED7E00"/>
</linearGradient>
<path fill="url(#SVGID_2_)" d="M79.476,115.413V91.305l6.99-4.393c4.474-2.678,10.983-6.697,12.296-13.099h1.715
	c0.622,0.015,1.137-0.476,1.151-1.097c0-0.001,0-0.001,0-0.002v-7.232c-0.014-0.621-0.529-1.113-1.151-1.098l0,0H93.03
	c-0.622-0.015-1.137,0.476-1.152,1.098l0,0v7.153c0.015,0.621,0.529,1.112,1.152,1.098l0,0h1.474
	c-1.233,3.937-5.519,6.884-10.234,9.751l-4.794,2.973V58.732h6.509l-9.482-15.725l-9.484,15.725h6.511v42.242l-4.662-2.866
	c-5.357-3.187-9.964-6.455-10.554-11.063c1.971-0.835,3.257-2.762,3.268-4.902c0-3.129-2.537-5.665-5.666-5.665
	c-3.128,0-5.664,2.536-5.664,5.665c0.007,2.396,1.603,4.497,3.911,5.143c0.722,7.018,7.742,11.278,12.456,14.17l7.019,4.206v9.724"
	/>
</svg>
