<?xml version="1.0" encoding="utf-8"?>
<!-- Generator: Adobe Illustrator 25.0.1, SVG Export Plug-In . SVG Version: 6.00 Build 0)  -->
<svg version="1.1" id="Calque_2_1_" xmlns="http://www.w3.org/2000/svg" xmlns:xlink="http://www.w3.org/1999/xlink" x="0px"
	 y="0px" viewBox="0 0 52.13 69.065" enable-background="new 0 0 52.13 69.065" xml:space="preserve">
<g>
	<path fill="#FFFFFF" d="M0,0v69.101h52.102V0H0z M49.551,66.55h-47v-64h47V66.55z"/>
	<path fill="#FFFFFF" d="M48.551,3.55h-45v62h45V3.55z M21.985,57.472h-9.25v-9.249h9.25V57.472z M21.985,39.329h-9.25v-9.249h9.25
		V39.329z M21.985,21.187h-9.25v-9.249h9.25V21.187z M31.975,58.06l-4.786-4.407l2.085-2.265l2.589,2.384l6.3-6.446l2.202,2.151
		L31.975,58.06z M31.975,39.917l-4.786-4.407l2.085-2.265l2.589,2.384l6.3-6.446l2.202,2.151L31.975,39.917z M31.975,21.775
		l-4.786-4.407l2.085-2.265l2.589,2.384l6.3-6.446l2.202,2.151L31.975,21.775z"/>
</g>
</svg>
