<?xml version="1.0" encoding="utf-8"?>
<!-- Generator: Adobe Illustrator 25.0.1, SVG Export Plug-In . SVG Version: 6.00 Build 0)  -->
<svg version="1.1" id="Calque_2_1_" xmlns="http://www.w3.org/2000/svg" xmlns:xlink="http://www.w3.org/1999/xlink" x="0px"
	 y="0px" viewBox="0 0 153.465 150.206" enable-background="new 0 0 153.465 150.206" xml:space="preserve">
<linearGradient id="SVGID_1_" gradientUnits="userSpaceOnUse" x1="-373.0515" y1="451.6933" x2="-373.0515" y2="451.6933" gradientTransform="matrix(2.1001 0 0 2.1001 900.942 -878.0792)">
	<stop  offset="0" style="stop-color:#2DAAB9"/>
	<stop  offset="1" style="stop-color:#48BCC7"/>
</linearGradient>
<path fill="url(#SVGID_1_)" d="M117.497,70.522"/>
<linearGradient id="SVGID_2_" gradientUnits="userSpaceOnUse" x1="-392.3777" y1="474.0091" x2="-392.3777" y2="417.006" gradientTransform="matrix(2.1001 0 0 2.1001 900.942 -878.0792)">
	<stop  offset="0" style="stop-color:#878787"/>
	<stop  offset="1" style="stop-color:#B3B2B2"/>
</linearGradient>
<path fill="url(#SVGID_2_)" d="M73.396,122.959c0,5.961,0,15.266,0,15.388c0,1.429-0.291,2.254-0.581,2.787
	c-0.436,0.75-1.017,1.114-1.647,1.357c-0.316,0.122-0.606,0.194-0.8,0.219c-0.073,0-0.122,0.024-0.17,0.024H30.507
	c-1.478,0-2.762-0.533-3.635-1.308c-0.872-0.775-1.283-1.697-1.283-2.666V72.194H10.007c-1.138,0-1.987-0.63-2.205-1.163
	c-0.097-0.194-0.121-0.339-0.121-0.509c0-0.315,0.097-0.63,0.508-1.018l25.856-23.892V27.221c0-2.593,2.108-4.701,4.701-4.701
	h20.282L75.069,7.69c0.388-0.363,1.091-0.679,1.841-0.655c0.727,0,1.455,0.291,1.842,0.655l66.878,61.814
	c0.388,0.363,0.485,0.703,0.509,1.018c0,0.169-0.025,0.315-0.122,0.509c-0.218,0.533-1.091,1.163-2.205,1.163h-15.58v66.564
	c0,0.969-0.412,1.891-1.285,2.666c-0.872,0.775-2.132,1.308-3.635,1.308H87.548c-1.939,0-3.513,1.575-3.513,3.513
	c0,1.939,1.574,3.513,3.513,3.513h35.741c3.174,0,6.106-1.138,8.311-3.077c2.18-1.938,3.659-4.773,3.659-7.924V79.246h8.53
	c3.562,0,6.954-1.866,8.554-5.161c0.533-1.116,0.824-2.351,0.824-3.562c0-2.326-1.018-4.58-2.763-6.179L83.525,2.529
	c-1.818-1.672-4.168-2.52-6.616-2.52c-2.447,0-4.798,0.872-6.616,2.52l-14.03,12.963H38.746c-6.495,0-11.753,5.258-11.753,11.753
	v15.314L3.416,64.344c-1.744,1.599-2.763,3.853-2.763,6.179c0,1.212,0.267,2.423,0.825,3.562c1.599,3.295,4.992,5.137,8.554,5.161
	h8.529v59.513c0,3.15,1.478,6.009,3.66,7.924c2.18,1.939,5.136,3.077,8.311,3.077h39.836h0.024c0.34-0.024,2.521-0.048,5.065-1.551
	c1.26-0.752,2.568-1.938,3.513-3.635c0.945-1.672,1.478-3.804,1.478-6.227c0-0.122,0-9.718,0-15.388H73.396z"/>
<g>
	<g>
		
			<linearGradient id="SVGID_3_" gradientUnits="userSpaceOnUse" x1="-1037.3076" y1="189.5006" x2="-1037.3076" y2="203.629" gradientTransform="matrix(-1.4971 -1.4728 -1.4728 1.4971 -1205.5055 -1741.4081)">
			<stop  offset="0" style="stop-color:#E7344D"/>
			<stop  offset="1" style="stop-color:#C30734"/>
		</linearGradient>
		<path fill="url(#SVGID_3_)" d="M79.963,55.814c0.775-0.776,1.696-1.139,2.035-0.8l1.211,1.163c0.339,0.339,0,1.236-0.799,2.011
			l-0.969,0.969l-2.447-2.375L79.963,55.814z"/>
		
			<linearGradient id="SVGID_4_" gradientUnits="userSpaceOnUse" x1="-1036.5336" y1="189.5021" x2="-1036.5336" y2="203.6341" gradientTransform="matrix(-1.4971 -1.4728 -1.4728 1.4971 -1205.5055 -1741.4081)">
			<stop  offset="0" style="stop-color:#E7344D"/>
			<stop  offset="1" style="stop-color:#C30734"/>
		</linearGradient>
		<path fill="url(#SVGID_4_)" d="M72.379,55.135l1.769,1.696c0.508-0.218,1.066-0.145,1.454,0.218l5.598,5.404
			c0.508,0.485,0.46,1.357-0.122,1.939c-0.581,0.581-1.478,0.63-1.987,0.145l-5.598-5.379c-0.388-0.363-0.461-0.921-0.217-1.43
			l-1.309-1.26L60.19,68.172l-0.897-0.848l12.214-12.14c0.121-0.121,0.266-0.194,0.436-0.194
			C72.112,54.941,72.257,55.014,72.379,55.135z"/>
		
			<linearGradient id="SVGID_5_" gradientUnits="userSpaceOnUse" x1="-1037.1393" y1="189.5047" x2="-1037.1393" y2="203.6318" gradientTransform="matrix(-1.4971 -1.4728 -1.4728 1.4971 -1205.5055 -1741.4081)">
			<stop  offset="0" style="stop-color:#E7344D"/>
			<stop  offset="1" style="stop-color:#C30734"/>
		</linearGradient>
		<path fill="url(#SVGID_5_)" d="M55.15,76.92l6.106,5.864l-7.511,2.229L53.6,84.892l-0.581,0.581c-0.145,0.145-0.364,0.145-0.485,0
			c-0.145-0.122-0.145-0.339,0-0.485l0.581-0.581l-0.122-0.121L55.15,76.92z"/>
		
			<linearGradient id="SVGID_6_" gradientUnits="userSpaceOnUse" x1="-1037.2013" y1="189.5026" x2="-1037.2013" y2="203.6347" gradientTransform="matrix(-1.4971 -1.4728 -1.4728 1.4971 -1205.5055 -1741.4081)">
			<stop  offset="0" style="stop-color:#E7344D"/>
			<stop  offset="1" style="stop-color:#C30734"/>
		</linearGradient>
		<path fill="url(#SVGID_6_)" d="M72.839,59.764l5.598,5.379c0.097,0.097,0.194,0.17,0.315,0.242L61.886,82.129l-6.106-5.864
			l16.841-16.744C72.718,59.618,72.766,59.691,72.839,59.764z"/>
		
			<linearGradient id="SVGID_7_" gradientUnits="userSpaceOnUse" x1="-1037.2955" y1="189.4946" x2="-1037.2955" y2="203.6116" gradientTransform="matrix(-1.4971 -1.4728 -1.4728 1.4971 -1205.5055 -1741.4081)">
			<stop  offset="0" style="stop-color:#E7344D"/>
			<stop  offset="1" style="stop-color:#C30734"/>
		</linearGradient>
		<path fill="url(#SVGID_7_)" d="M81.853,61.775l-5.597-5.404c-0.073-0.073-0.17-0.121-0.242-0.194l0.363-0.363
			c0.461-0.437,1.502-0.145,2.375,0.678l3.004,2.883c0.849,0.824,1.188,1.866,0.727,2.302L82.12,62.04
			C82.023,61.969,81.95,61.872,81.853,61.775z"/>
	</g>
	<g>
		
			<linearGradient id="SVGID_8_" gradientUnits="userSpaceOnUse" x1="-393.9702" y1="449.3216" x2="-393.9702" y2="463.4526" gradientTransform="matrix(2.1001 0 0 2.1001 900.942 -878.0792)">
			<stop  offset="0" style="stop-color:#E7344D"/>
			<stop  offset="1" style="stop-color:#C30734"/>
		</linearGradient>
		<path fill="url(#SVGID_8_)" d="M87.426,62.938l2.883,2.883l-0.654,0.655l-2.883-2.884l-3.321,3.32l2.884,2.883l-0.654,0.654
			l-2.884-2.883l-3.32,3.32l2.883,2.883l-0.655,0.655l-2.883-2.883l-3.32,3.32l2.884,2.884L77.731,78.4l-2.883-2.885L63.607,86.758
			l2.883,2.883l-0.654,0.654l-2.883-2.883L50.497,99.867h46.137V53.754L87.426,62.938z M61.886,94.245l-2.883-2.883l0.655-0.654
			l2.883,2.883L61.886,94.245z M69.835,86.297l-2.883-2.884l0.654-0.655l2.885,2.884L69.835,86.297z M71.555,78.81l2.883,2.883
			l-0.655,0.655L70.9,79.465L71.555,78.81z M87.426,90.634H72.79l14.636-14.635V90.634z"/>
	</g>
</g>
</svg>
