<?xml version="1.0" encoding="utf-8"?>
<!-- Generator: Adobe Illustrator 25.0.1, SVG Export Plug-In . SVG Version: 6.00 Build 0)  -->
<svg version="1.1" id="Calque_1" xmlns="http://www.w3.org/2000/svg" xmlns:xlink="http://www.w3.org/1999/xlink" x="0px" y="0px"
	 viewBox="0 0 557.108 531.278" enable-background="new 0 0 557.108 531.278" xml:space="preserve">
<g id="Calque_2_1_">
	<ellipse fill="#D1183E" cx="289.506" cy="266.009" rx="263.517" ry="263.517"/>
	<rect x="86.499" y="38.321" fill="#FFFFFF" width="71.347" height="76.666"/>
	<path fill="#FFFFFF" d="M440.534,266.008c0,83.406-67.613,151.02-151.021,151.02c-83.404,0-151.018-67.614-151.018-151.02
		s67.614-151.02,151.018-151.02C372.92,114.988,440.534,182.602,440.534,266.008z"/>
	<polygon fill="#D1183E" points="112.613,2.489 146.136,58.738 112.613,114.988 289.514,114.988 289.514,2.489 	"/>
	<rect x="2.031" y="114.988" fill="#FFFFFF" width="287.483" height="11.818"/>
	<polygon fill="#89122F" points="104.86,2.489 3.652,2.489 37.513,58.738 3.652,114.988 104.86,114.988 138.381,58.738 	"/>
</g>
<line fill="none" stroke="#FFFFFF" stroke-miterlimit="10" x1="289.514" y1="2.489" x2="289.514" y2="266.008"/>
<line fill="none" stroke="#FFFFFF" stroke-miterlimit="10" x1="289.346" y1="265.621" x2="502.172" y2="96.691"/>
<line fill="none" stroke="#FFFFFF" stroke-miterlimit="10" x1="289.346" y1="265.621" x2="548.728" y2="325.035"/>
<line fill="none" stroke="#FFFFFF" stroke-miterlimit="10" x1="289.346" y1="266.065" x2="404.627" y2="504.608"/>
<line fill="none" stroke="#FFFFFF" stroke-miterlimit="10" x1="289.346" y1="265.621" x2="174.509" y2="505.051"/>
<line fill="none" stroke="#FFFFFF" stroke-miterlimit="10" x1="289.346" y1="266.508" x2="30.851" y2="325.035"/>
<line fill="none" stroke="#FFFFFF" stroke-miterlimit="10" x1="288.903" y1="266.065" x2="105.794" y2="118.74"/>
</svg>
