<svg xmlns="http://www.w3.org/2000/svg" viewBox="0 0 62.94 61.81">
  <defs>
    <style>
      .cls-1{fill:#fff}
    </style>
  </defs>
  <g id="Calque_2" data-name="Calque 2">
    <g id="Calque_1-2" data-name="Calque 1">
      <path class="cls-1" d="M30 50.75v6.35a2.43 2.43 0 01-.24 1.15 1.3 1.3 0 01-.68.56 2.44 2.44 0 01-.33.09H12.33a2.29 2.29 0 01-1.5-.54 1.46 1.46 0 01-.53-1.1V29.8H3.87a1 1 0 01-.87-.48.46.46 0 010-.21.55.55 0 01.2-.42l10.67-9.86v-7.59a1.94 1.94 0 011.85-1.94h8.37l6.62-6.12a1.2 1.2 0 011.52 0l27.6 25.51a.55.55 0 01.2.42.46.46 0 01-.05.21 1 1 0 01-.91.48h-6.43v27.47a1.46 1.46 0 01-.53 1.1 2.27 2.27 0 01-1.5.54H35.86a1.45 1.45 0 000 2.9h14.75A5.14 5.14 0 0054 60.54a4.4 4.4 0 001.51-3.27V32.7h3.52a3.85 3.85 0 003.53-2.13 3.29 3.29 0 00.34-1.46 3.5 3.5 0 00-1.14-2.56L34.2 1a4.1 4.1 0 00-5.46 0L23 6.39h-7.28a4.85 4.85 0 00-4.85 4.85v6.32l-9.73 9A3.52 3.52 0 000 29.11a3.36 3.36 0 00.34 1.47 3.87 3.87 0 003.53 2.12h3.52v24.57a4.4 4.4 0 001.51 3.27 5.16 5.16 0 003.43 1.27h16.45a4.4 4.4 0 002.08-.64 4.11 4.11 0 001.45-1.5 5.25 5.25 0 00.61-2.57v-6.35z"/>
      <path class="cls-1" d="M32.74 23.05c.32-.32.7-.47.84-.33l.5.48c.14.13 0 .5-.33.82l-.4.4-1-1zM29.6 22.76l.73.7a.55.55 0 01.6.09l2.31 2.22a.56.56 0 01-.05.81.61.61 0 01-.82.06l-2.31-2.23a.51.51 0 01-.1-.59l-.54-.52-4.85 4.82-.37-.35 5-5a.29.29 0 01.18-.07.24.24 0 01.22.06zM22.49 31.75L25 34.18l-3.09.92-.06-.05-.24.24a.17.17 0 01-.21 0 .15.15 0 010-.2l.25-.24-.06-.05z"/>
      <path class="cls-1" d="M29.79 24.68l2.32 2.22.13.1-7 6.91-2.52-2.42 7-6.91zM33.51 25.51l-2.32-2.23-.1-.07.16-.15c.18-.19.62-.06 1 .28l1.24 1.19c.36.34.49.77.31.95l-.16.15zM35.81 26L37 27.17l-.27.27-1.19-1.19-1.36 1.37 1.18 1.19-.27.27-1.18-1.19-1.37 1.37 1.19 1.19-.27.27-1.19-1.19-1.37 1.37 1.19 1.18-.27.27-1.19-1.18L26 35.81 27.18 37l-.27.27-1.19-1.18-5.14 5.14h19v-19zM25.27 38.9l-1.19-1.19.27-.27 1.19 1.19zm3.28-3.27l-1.19-1.19.27-.27 1.19 1.19zm.72-3.1l1.18 1.19-.27.27L29 32.8zm6.54 4.88h-6l6-6z"/>
    </g>
  </g>
</svg>
