<svg xmlns="http://www.w3.org/2000/svg" viewBox="0 0 69.63 68.38">
  <defs>
    <style>
      .cls-1{fill:#fff}
    </style>
  </defs>
  <g id="Calque_2" data-name="Calque 2">
    <g id="Calque_1-2" data-name="Calque 1">
      <path class="cls-1" d="M33.21 56.14v7a2.65 2.65 0 01-.27 1.27 1.41 1.41 0 01-.75.63 1.77 1.77 0 01-.37.09H13.63a2.49 2.49 0 01-1.63-.56 1.6 1.6 0 01-.59-1.22V33H4.28a1.09 1.09 0 01-1-.53.78.78 0 01-.06-.23.65.65 0 01.23-.46l11.8-10.91v-8.4a2.15 2.15 0 012.15-2.14h9.26L34 3.52a1.28 1.28 0 011.67 0l30.51 28.22a.6.6 0 01.23.46.42.42 0 01-.06.23 1.07 1.07 0 01-1 .53h-7.12v30.39a1.63 1.63 0 01-.58 1.22 2.51 2.51 0 01-1.66.59H39.67a1.61 1.61 0 000 3.22H56A5.68 5.68 0 0059.78 67a4.85 4.85 0 001.67-3.62v-27.2h3.9a4.29 4.29 0 003.9-2.36 3.7 3.7 0 00.38-1.62 3.86 3.86 0 00-1.26-2.82L37.83 1.16a4.5 4.5 0 00-6 0l-6.44 5.91h-8A5.36 5.36 0 0012 12.43v7l-10.77 10A3.86 3.86 0 000 32.2a3.69 3.69 0 00.37 1.62 4.31 4.31 0 003.91 2.36h3.9v27.17A4.85 4.85 0 009.85 67a5.68 5.68 0 003.78 1.41h18.2a5 5 0 002.31-.72 4.49 4.49 0 001.6-1.69 5.66 5.66 0 00.68-2.84v-7z"/>
      <path class="cls-1" d="M22.37 42.52h7.79v2.01h-7.79zM22.37 53.54h7.79v2.01h-7.79zM22.37 50.78h7.79v2.01h-7.79zM22.37 48.03h7.79v2.02h-7.79zM22.37 45.28h7.79v2.01h-7.79zM22.37 37.7h7.79v2.01h-7.79zM22.37 29.3h7.79v2.01h-7.79zM39.46 53.54h7.79v2.01h-7.79zM39.46 50.78h7.79v2.01h-7.79zM39.46 48.03h7.79v2.02h-7.79zM39.46 45.28h7.79v2.01h-7.79zM39.46 40.32h7.79v2.01h-7.79zM39.46 31.92h7.79v2.01h-7.79zM30.92 42.52h7.79v2.01h-7.79zM30.92 39.77h7.79v2.01h-7.79zM30.92 34.81h7.79v2.01h-7.79zM30.92 26.41h7.79v2.01h-7.79zM30.92 50.78h7.79v2.01h-7.79zM30.92 48.03h7.79v2.02h-7.79zM30.92 45.28h7.79v2.01h-7.79z"/>
    </g>
  </g>
</svg>
