<svg xmlns="http://www.w3.org/2000/svg" viewBox="0 0 72.65 71.35">
  <defs>
    <style>
      .cls-1{fill:#fff}
    </style>
  </defs>
  <g id="Calque_2" data-name="Calque 2">
    <g id="Calque_1-2" data-name="Calque 1">
      <path class="cls-1" d="M34.65 58.59v7.32a2.55 2.55 0 01-.28 1.32 1.41 1.41 0 01-.78.66 3.69 3.69 0 01-.38.1h-19a2.63 2.63 0 01-1.73-.62 1.71 1.71 0 01-.61-1.27V34.4h-7.4a1.17 1.17 0 01-1.06-.56.77.77 0 01-.06-.24.69.69 0 01.24-.48l12.32-11.38V13a2.25 2.25 0 012.24-2.24h9.66l7.65-7.06a1.34 1.34 0 011.74 0l31.86 29.42a.62.62 0 01.24.48.6.6 0 01-.06.24 1.15 1.15 0 01-1 .56h-7.47v31.71a1.69 1.69 0 01-.62 1.27 2.62 2.62 0 01-1.72.62h-17a1.68 1.68 0 100 3.35h17a5.91 5.91 0 004-1.47 5.06 5.06 0 001.74-3.77V37.75h4.07a4.47 4.47 0 004.08-2.46 4 4 0 00-.93-4.64L39.48 1.21a4.71 4.71 0 00-6.3 0L26.5 7.38h-8.35a5.6 5.6 0 00-5.6 5.62v7.3L1.32 30.65A4.05 4.05 0 000 33.6a4 4 0 00.39 1.7 4.49 4.49 0 004.08 2.45h4.06v28.36a5.06 5.06 0 001.74 3.77 6 6 0 004 1.47h19a5.06 5.06 0 002.41-.74 4.8 4.8 0 001.67-1.73 5.93 5.93 0 00.7-3v-7.3z"/>
      <path class="cls-1" d="M38.79 24.36a13.28 13.28 0 00-4.95.18 5.27 5.27 0 01.93 1.11c.08.13.17.3.27.49a11.53 11.53 0 013.47 0 .9.9 0 10.28-1.78zM47.32 42.61h-.61A11.4 11.4 0 0144.27 46a.9.9 0 00.63 1.55.88.88 0 00.62-.25 13.33 13.33 0 003.21-4.92 5.45 5.45 0 01-1.22.19zM25.26 41.2a.9.9 0 00-1.72.53 13.06 13.06 0 001.39 3 12.49 12.49 0 001.17 1.61 5.19 5.19 0 01.47-1.24c.09-.17.22-.37.37-.61-.17-.23-.33-.46-.48-.7a11.77 11.77 0 01-1.2-2.59zM38.37 27.07a10.44 10.44 0 00-2.9 0c.31.66.64 1.46 1 2.33a8.27 8.27 0 011.57.08 1.19 1.19 0 001.37-1 1.21 1.21 0 00-1.04-1.41zM43.16 42.14a8 8 0 01-1.16 1.5 1.2 1.2 0 000 1.7 1.17 1.17 0 00.86.37 1.2 1.2 0 00.84-.34 10.68 10.68 0 002.09-2.87c-.79-.07-1.71-.2-2.63-.36zM27.26 43.33l.25.38c.44-.61 1-1.3 1.57-2a8.12 8.12 0 01-.63-1.49 1.2 1.2 0 00-2.29.72 10.28 10.28 0 001.1 2.39zM32.1 35.87a4.58 4.58 0 011.75-2 4.52 4.52 0 012.4-.68h.16a36.39 36.39 0 00-1.21-3.7c-.33-.86-.66-1.64-1-2.25a9.48 9.48 0 00-.44-.86l-.06-.11A4.07 4.07 0 0032.37 25a3.91 3.91 0 00-5.27 5.44 33.16 33.16 0 005 5.43zM47.36 33.59h-.12A33.26 33.26 0 0040 35.17l.13.2a4.57 4.57 0 01.56 3.46 4.71 4.71 0 01-.6 1.42c1.18.32 2.46.58 3.64.78.91.15 1.76.25 2.45.32l1 .06h.29a3.91 3.91 0 00-.11-7.82zM32.36 40.18c0-.06-.07-.13-.11-.2a35.5 35.5 0 00-2.48 2.76c-.59.72-1.1 1.4-1.5 2-.22.31-.4.59-.53.82l-.11.19A3.89 3.89 0 0029.22 51a3.84 3.84 0 001.84.47 3.91 3.91 0 003.45-2 34 34 0 002.25-7.09h-.5a4.56 4.56 0 01-3.9-2.2zM38.25 35.85l-.13-.13a2.47 2.47 0 00-.38-.28l-.28-.16a2.35 2.35 0 00-.44-.17h-.2a2.76 2.76 0 00-.57-.06 2.73 2.73 0 00-1.45.41 2.8 2.8 0 00-1.23 1.65v.21a2.31 2.31 0 00-.05.46 1.83 1.83 0 000 .33 2.36 2.36 0 00.08.45l.06.2a2.84 2.84 0 00.25.53 2.79 2.79 0 002.37 1.32 2.64 2.64 0 00.78-.12 2.53 2.53 0 00.61-.27h.05a2.21 2.21 0 00.52-.44 2.78 2.78 0 00.31-3.32 2.48 2.48 0 00-.3-.61z"/>
    </g>
  </g>
</svg>
