<svg xmlns="http://www.w3.org/2000/svg" viewBox="0 0 57.02 56">
  <defs>
    <style>
      .cls-1{fill:#fff}
    </style>
  </defs>
  <g id="Calque_2" data-name="Calque 2">
    <g id="Calque_1-2" data-name="Calque 1">
      <path class="cls-1" d="M27.2 46v5.75a2.17 2.17 0 01-.22 1 1.12 1.12 0 01-.62.51 1.7 1.7 0 01-.3.08H11.17a2 2 0 01-1.36-.49 1.33 1.33 0 01-.48-1V27H3.5a.9.9 0 01-.82-.44.36.36 0 01-.05-.19.51.51 0 01.19-.37l9.66-8.93v-6.89a1.78 1.78 0 011.76-1.76h7.59l6-5.54a1 1 0 01.68-.25 1 1 0 01.69.25L54.2 26a.51.51 0 01.19.38.36.36 0 010 .19.9.9 0 01-.82.44h-5.88v24.87a1.29 1.29 0 01-.48 1 2 2 0 01-1.35.49H32.49a1.32 1.32 0 000 2.63h13.37A4.7 4.7 0 0049 54.85a4 4 0 001.37-3V29.63h3.19a3.52 3.52 0 003.2-1.93 3.1 3.1 0 00-.76-3.64L31 1a3.69 3.69 0 00-5 0l-5.2 4.79h-6.56a4.4 4.4 0 00-4.39 4.39v5.73L1 24.06a3.16 3.16 0 00-1 2.31 3 3 0 00.31 1.33 3.51 3.51 0 003.19 1.93h3.2v22.25a4 4 0 001.36 3A4.71 4.71 0 0011.17 56h14.9a4 4 0 001.93-.58 3.73 3.73 0 001.31-1.36 4.67 4.67 0 00.56-2.33V46z"/>
      <path class="cls-1" d="M29.59 43.12v-9l2.57-1.59c1.67-1 4.1-2.5 4.59-4.89h.64a.41.41 0 00.43-.4v-2.72a.42.42 0 00-.43-.41H34.6a.42.42 0 00-.42.41v2.67a.41.41 0 00.42.4h.56c-.46 1.47-2.07 2.57-3.83 3.65l-1.74 1.07V22H32l-3.54-5.87L24.93 22h2.43v15.73l-1.74-1.07c-1.95-1.19-3.72-2.41-3.94-4.14a2 2 0 001.23-1.83 2.12 2.12 0 00-4.23 0 2 2 0 001.46 1.92c.28 2.62 2.89 4.22 4.65 5.29l2.57 1.59v3.63"/>
    </g>
  </g>
</svg>
