<svg xmlns="http://www.w3.org/2000/svg" viewBox="0 0 62.78 61.66">
  <defs>
    <style>
      .cls-1{fill:#fff}
    </style>
  </defs>
  <g id="Calque_2" data-name="Calque 2">
    <g id="Calque_1-2" data-name="Calque 1">
      <path class="cls-1" d="M29.94 49.75c0 .6-.12 8.13-.24 8.35a1.22 1.22 0 01-.68.56 1.45 1.45 0 01-.32.09H12.29a2.25 2.25 0 01-1.49-.54 1.48 1.48 0 01-.53-1.1V29.72H3.86a1 1 0 01-.86-.48.41.41 0 01-.1-.24.53.53 0 01.21-.41l10.63-9.84v-7.54a1.94 1.94 0 011.94-1.93H24l6.61-6.11a1.18 1.18 0 011.5 0l27.57 25.45a.54.54 0 01.2.41.41.41 0 01-.05.21 1 1 0 01-.91.48h-6.41v27.4a1.45 1.45 0 01-.53 1.1 2.23 2.23 0 01-1.49.54H35.77a1.45 1.45 0 000 2.9h14.72a5.18 5.18 0 003.41-1.27 4.4 4.4 0 001.51-3.27v-24.5h3.51a3.88 3.88 0 003.53-2.12 3.43 3.43 0 00-.8-4L34.11 1a4.08 4.08 0 00-5.44 0L22.9 6.38h-7.22a4.83 4.83 0 00-4.83 4.83v6.31l-9.71 9A3.46 3.46 0 000 29a3.33 3.33 0 00.34 1.5 3.85 3.85 0 003.52 2.12h3.51v24.5a4.4 4.4 0 001.51 3.27 5.18 5.18 0 003.41 1.27H28.7a4.67 4.67 0 002.09-.66 4.13 4.13 0 001.44-1.49c.39-.7.61-8.76.61-9.77"/>
      <path class="cls-1" d="M31 47.27a17.92 17.92 0 00.8-1.76c0 .39 0 .78.05 1.2 0 0 5.76-1.06 8.32-5 1.87-2.88 6.12-5.82 6.12-5.82s-10.45-.26-13.6 5.79C33.6 29.33 13.52 24.3 13.52 24.3s5.78 7.21 8 13.53c1.87 5.3 7 9.15 7 9.15a2.63 2.63 0 002.48.29zM41 38l-6.53 6S36 40.56 41 38zm-20-7.88c7.1 6.81 8.59 13.94 8.59 13.94z"/>
    </g>
  </g>
</svg>
