<svg xmlns="http://www.w3.org/2000/svg" viewBox="0 0 116.47 62.51">
  <defs>
    <style>
      .cls-1{fill:#fff}
    </style>
  </defs>
  <g id="Calque_2" data-name="Calque 2">
    <g id="Calque_1-2" data-name="Calque 1">
      <path class="cls-1" d="M17 17.9a5.28 5.28 0 01.22.84.51.51 0 01-.11.46.89.89 0 01-.57.19 10.87 10.87 0 01-1.11 0h-1.15a2.85 2.85 0 01-.63-.09.55.55 0 01-.3-.18.81.81 0 01-.14-.31L11.93 15h-7l-1.21 3.73a1.34 1.34 0 01-.15.34.59.59 0 01-.3.22 2.39 2.39 0 01-.59.11h-1a9.51 9.51 0 01-1 0 .77.77 0 01-.52-.22.55.55 0 01-.16-.48 4.73 4.73 0 01.22-.83L6 1a1.86 1.86 0 01.2-.4.79.79 0 01.36-.23 3.42 3.42 0 01.7-.1H9.8a4.28 4.28 0 01.79.1.82.82 0 01.41.25 1.39 1.39 0 01.21.44zM8.4 4l-2.65 8h5.3zM33.9 16.46v.63a3.71 3.71 0 01-.07.44 1.58 1.58 0 01-.11.31 1.74 1.74 0 01-.24.31 3.08 3.08 0 01-.61.43 7.34 7.34 0 01-1.11.51 10.13 10.13 0 01-1.5.4 9.67 9.67 0 01-1.83.16 9.53 9.53 0 01-3.47-.6 6.8 6.8 0 01-2.63-1.8 8.15 8.15 0 01-1.66-3 13.72 13.72 0 01-.58-4.17 13.19 13.19 0 01.64-4.3 8.74 8.74 0 011.78-3.16A7.46 7.46 0 0125.22.69 9.16 9.16 0 0128.74 0a8.13 8.13 0 011.5.13 9.68 9.68 0 011.34.35 5.88 5.88 0 011.1.49 2.83 2.83 0 01.69.48 1.63 1.63 0 01.27.33 1.16 1.16 0 01.11.33 4.79 4.79 0 01.07.49v1.44a2 2 0 01-.1.5.79.79 0 01-.17.28.35.35 0 01-.23.09 1 1 0 01-.55-.26c-.23-.17-.51-.36-.86-.58a6.76 6.76 0 00-1.26-.57 5.33 5.33 0 00-1.74-.25 4.2 4.2 0 00-2 .46 4.35 4.35 0 00-1.49 1.32 6.63 6.63 0 00-.93 2.08 11 11 0 00-.31 2.74 11.32 11.32 0 00.33 2.91 5.62 5.62 0 001 2A4 4 0 0027 16a4.92 4.92 0 002 .39 5.68 5.68 0 001.75-.25A7.59 7.59 0 0032 15.6c.35-.2.64-.37.87-.53a1.06 1.06 0 01.53-.24.41.41 0 01.23.06.45.45 0 01.14.24 2.27 2.27 0 01.09.49q.04.32.04.84zM54.94 9.62a14.43 14.43 0 01-.57 4.23A8.73 8.73 0 0152.65 17a7.54 7.54 0 01-2.83 2 10.39 10.39 0 01-3.89.68 11.26 11.26 0 01-3.81-.58 6.73 6.73 0 01-2.71-1.77 7.6 7.6 0 01-1.62-3 15.57 15.57 0 01-.54-4.33 14 14 0 01.57-4.15 8.59 8.59 0 011.72-3.14 7.54 7.54 0 012.83-2A10.23 10.23 0 0146.28 0 11.26 11.26 0 0150 .57a6.5 6.5 0 012.72 1.77 7.63 7.63 0 011.65 3 14.73 14.73 0 01.57 4.28zm-4 .21a15.2 15.2 0 00-.23-2.73 6 6 0 00-.77-2.1 3.85 3.85 0 00-1.48-1.35 5 5 0 00-2.31-.48 4.6 4.6 0 00-2.34.54 4.26 4.26 0 00-1.52 1.43 6 6 0 00-.82 2.09 13 13 0 00-.24 2.54 14.65 14.65 0 00.24 2.79 6 6 0 00.78 2.13A3.59 3.59 0 0043.72 16a5.16 5.16 0 002.32.46 4.61 4.61 0 002.34-.46 4.17 4.17 0 001.52-1.43 6.11 6.11 0 00.82-2.13A13.12 13.12 0 0051 9.83zM75.11 12.26a9 9 0 01-.51 3.13 6.18 6.18 0 01-1.49 2.34 6.44 6.44 0 01-2.42 1.45 11.33 11.33 0 01-6.49.05 6.17 6.17 0 01-2.37-1.36 5.93 5.93 0 01-1.48-2.26 9.07 9.07 0 01-.51-3.18V.87a.5.5 0 01.08-.27.65.65 0 01.32-.19 2.9 2.9 0 01.58-.12 7.86 7.86 0 01.92 0 8 8 0 01.92 0 2.78 2.78 0 01.57.12.61.61 0 01.31.19.39.39 0 01.1.27v11.22a6.36 6.36 0 00.27 2 3.61 3.61 0 00.79 1.37 3.25 3.25 0 001.23.82 4.46 4.46 0 001.59.27 4.28 4.28 0 001.61-.28 3.25 3.25 0 001.2-.82 3.54 3.54 0 00.75-1.32 5.46 5.46 0 00.27-1.78V.87a.44.44 0 01.09-.27.62.62 0 01.3-.19 3 3 0 01.59-.12 7.78 7.78 0 01.91 0 7.67 7.67 0 01.91 0 3.12 3.12 0 01.57.12.62.62 0 01.28.19.44.44 0 01.09.27zM92 13.64a5.89 5.89 0 01-.55 2.63 5.33 5.33 0 01-1.48 1.89 6.48 6.48 0 01-2.2 1.14 9.9 9.9 0 01-4.49.22 10.52 10.52 0 01-1.46-.39 5.61 5.61 0 01-1.06-.48 2.78 2.78 0 01-.62-.44 1.13 1.13 0 01-.26-.55 4.59 4.59 0 01-.08-1v-.77a2 2 0 01.09-.5.55.55 0 01.17-.27.45.45 0 01.26-.08 1.23 1.23 0 01.57.24c.24.16.56.34.94.54a9.3 9.3 0 001.38.53 6.16 6.16 0 001.86.25 4.32 4.32 0 001.24-.17 2.56 2.56 0 00.93-.48 2 2 0 00.59-.76 2.58 2.58 0 00.2-1 1.81 1.81 0 00-.36-1.19 3.58 3.58 0 00-.9-.82 9.24 9.24 0 00-1.26-.67c-.48-.21-1-.44-1.46-.67a13.79 13.79 0 01-1.46-.8A6.22 6.22 0 0181.32 9a5.1 5.1 0 01-.9-1.48 5.44 5.44 0 01-.35-2 5.5 5.5 0 01.5-2.4 4.79 4.79 0 011.35-1.72 5.44 5.44 0 012-1 8.87 8.87 0 013.75-.3 8.84 8.84 0 011.25.28 7 7 0 011 .4 2.24 2.24 0 01.59.37 1 1 0 01.2.25 1 1 0 01.08.27 2.11 2.11 0 01.06.42V3.45a4.08 4.08 0 01-.07.49.73.73 0 01-.15.28.39.39 0 01-.25.08 1.12 1.12 0 01-.51-.2 9.07 9.07 0 00-.87-.45 8.22 8.22 0 00-1.17-.44A5.15 5.15 0 0086.4 3a3.52 3.52 0 00-1.08.15 2.27 2.27 0 00-.77.43 1.67 1.67 0 00-.47.65 2.24 2.24 0 00-.15.81 1.8 1.8 0 00.34 1.1 3.47 3.47 0 00.91.82 9.69 9.69 0 001.29.67l1.53.68a15 15 0 011.47.8 6.07 6.07 0 011.29 1.08 5 5 0 01.91 1.46 5.28 5.28 0 01.33 1.99zM108.73 1.92v.73a2.4 2.4 0 01-.11.49.71.71 0 01-.18.27.38.38 0 01-.24.09h-4.68v15.31a.39.39 0 01-.1.27.61.61 0 01-.31.19 2.9 2.9 0 01-.58.12 8 8 0 01-.92 0 8.08 8.08 0 01-.92 0 2.9 2.9 0 01-.58-.12.61.61 0 01-.31-.19.45.45 0 01-.1-.27V3.5H95a.36.36 0 01-.24-.09.71.71 0 01-.18-.27 2.46 2.46 0 01-.1-.49 5.07 5.07 0 010-.73 5.22 5.22 0 010-.74 2.43 2.43 0 01.1-.5.6.6 0 01.18-.26.41.41 0 01.24-.08h13.18a.43.43 0 01.24.08.6.6 0 01.18.26 2.36 2.36 0 01.11.5c.01.2.02.45.02.74zM116.47 18.81a.44.44 0 01-.09.27.66.66 0 01-.31.19 3.06 3.06 0 01-.58.12 10.6 10.6 0 01-1.84 0 3 3 0 01-.59-.12.71.71 0 01-.31-.19.44.44 0 01-.09-.27V.87a.44.44 0 01.09-.27.7.7 0 01.32-.19 3 3 0 01.59-.12 7.67 7.67 0 01.91 0 7.86 7.86 0 01.92 0 3.06 3.06 0 01.58.12.66.66 0 01.31.19.44.44 0 01.09.27zM3.28 49.68a.69.69 0 00-.28-.53 2.05 2.05 0 00-.92-.38A3 3 0 011 48.32a.91.91 0 01-.38-.79 1.07 1.07 0 01.38-.85 1.68 1.68 0 011.13-.35 1.73 1.73 0 011.17.37 1.09 1.09 0 01.42.92h-.47a.8.8 0 00-.31-.62 1.21 1.21 0 00-.82-.27 1.21 1.21 0 00-.8.23.71.71 0 00-.27.55.62.62 0 00.23.49 2.12 2.12 0 00.92.35 3.05 3.05 0 011.17.48 1 1 0 01.39.82 1.05 1.05 0 01-.44.89 1.88 1.88 0 01-1.18.35 1.9 1.9 0 01-1.26-.39 1.07 1.07 0 01-.43-.91H.9a.8.8 0 00.39.69 1.65 1.65 0 00.85.22 1.3 1.3 0 00.86-.25.7.7 0 00.28-.57zM8.76 48.73a2.53 2.53 0 01-.44 1.58 1.48 1.48 0 01-1.24.59 1.71 1.71 0 01-.8-.18 1.36 1.36 0 01-.57-.49v2.28h-.49v-6.1h.37l.09.69a1.56 1.56 0 01.57-.57 1.6 1.6 0 01.83-.2 1.45 1.45 0 011.24.67 2.84 2.84 0 01.44 1.69zm-.48-.08a2.46 2.46 0 00-.34-1.37 1.09 1.09 0 00-1-.53 1.33 1.33 0 00-.8.23 1.48 1.48 0 00-.46.61v2.13a1.31 1.31 0 00.48.56 1.38 1.38 0 00.78.21 1.1 1.1 0 001-.48 2.16 2.16 0 00.34-1.28zM11.87 50.9a1.74 1.74 0 01-1.39-.61 2.23 2.23 0 01-.54-1.55v-.22a2.29 2.29 0 01.54-1.52 1.69 1.69 0 011.34-.62 1.55 1.55 0 011.24.51 2.1 2.1 0 01.44 1.39v.38h-3.07v.13a2 2 0 00.38 1.21 1.28 1.28 0 001.06.5 2 2 0 00.74-.14 1.52 1.52 0 00.56-.35l.21.33a2 2 0 01-.61.41 2.45 2.45 0 01-.9.15zm0-4.16a1.19 1.19 0 00-.92.41 1.7 1.7 0 00-.43 1H13v-.1a1.48 1.48 0 00-.31-1 1.07 1.07 0 00-.87-.31zm.52-2.2h.6l-1 1.06h-.49zM16.43 50.49a1.33 1.33 0 00.82-.28.91.91 0 00.36-.77h.44a1.25 1.25 0 01-.48 1 1.78 1.78 0 01-1.15.41 1.64 1.64 0 01-1.37-.62 2.44 2.44 0 01-.49-1.58v-.18a2.47 2.47 0 01.49-1.47 1.64 1.64 0 011.37-.62 1.67 1.67 0 011.18.43 1.36 1.36 0 01.46 1.12h-.44a1.08 1.08 0 00-.34-.84 1.21 1.21 0 00-.85-.32 1.16 1.16 0 00-1 .51 2.29 2.29 0 00-.34 1.27v.18a2.32 2.32 0 00.3 1.27 1.16 1.16 0 001.04.49zM20 45.15h-.5v-.69h.5zm0 5.66h-.5v-4.4h.5zM24.45 50.81c0-.15-.05-.29-.07-.4s0-.22 0-.34a1.66 1.66 0 01-.64.59 1.83 1.83 0 01-.94.24 1.37 1.37 0 01-1-.35 1.23 1.23 0 01-.36-.93 1.13 1.13 0 01.52-1 2.28 2.28 0 011.34-.36h1.08v-.55a1 1 0 00-.3-.74 1.44 1.44 0 00-1.65 0 .73.73 0 00-.31.61h-.45a1.09 1.09 0 01.43-.88 1.76 1.76 0 011.17-.37 1.75 1.75 0 011.17.37 1.31 1.31 0 01.44 1.06v2.16a3.46 3.46 0 000 .46 3.29 3.29 0 00.09.43zm-1.62-.34a1.7 1.7 0 001-.27 1.34 1.34 0 00.56-.69v-.84h-1.11a1.7 1.7 0 00-1 .28.85.85 0 00-.38.69.78.78 0 00.24.6 1 1 0 00.69.23zM27 50.81h-.48v-6.35H27zM29.25 45.15h-.49v-.69h.49zm0 5.66h-.49v-4.4h.49zM33.57 49.68a.7.7 0 00-.26-.53 2 2 0 00-.92-.38 3 3 0 01-1.16-.45.94.94 0 01-.38-.79 1.05 1.05 0 01.43-.85 1.67 1.67 0 011.12-.35 1.77 1.77 0 011.18.37 1.12 1.12 0 01.42.92h-.45a.84.84 0 00-.31-.63 1.46 1.46 0 00-1.63 0 .74.74 0 00-.26.55.59.59 0 00.23.49 2.12 2.12 0 00.91.35 2.92 2.92 0 011.17.48 1 1 0 01.4.82 1.06 1.06 0 01-.45.89 2.18 2.18 0 01-2.43 0 1.08 1.08 0 01-.44-.91h.45a.8.8 0 00.39.69 1.65 1.65 0 00.85.22 1.3 1.3 0 00.83-.24.72.72 0 00.31-.65zM36.27 45.28v1.13h1v.4h-1v2.87a1 1 0 00.15.61.54.54 0 00.42.18h.36l.07.37a1 1 0 01-.24.08 1.33 1.33 0 01-.28 0 .91.91 0 01-.73-.3 1.37 1.37 0 01-.26-.92v-2.89H35v-.4h.76v-1.13zM40.19 50.9a1.72 1.72 0 01-1.38-.61 2.23 2.23 0 01-.54-1.55v-.22a2.29 2.29 0 01.54-1.52 1.69 1.69 0 011.34-.62 1.55 1.55 0 011.24.51 2.1 2.1 0 01.44 1.39v.38h-3.07v.13a2 2 0 00.38 1.21 1.27 1.27 0 001 .5 2 2 0 00.74-.14 1.49 1.49 0 00.62-.36l.2.33a1.81 1.81 0 01-.6.41 2.51 2.51 0 01-.91.16zm0-4.16a1.19 1.19 0 00-.92.41 1.64 1.64 0 00-.43 1h2.53v-.1a1.48 1.48 0 00-.31-1 1.07 1.07 0 00-.91-.31zM45.78 49.68a.69.69 0 00-.25-.53 2.05 2.05 0 00-.92-.38 3 3 0 01-1.16-.45.91.91 0 01-.38-.79 1.07 1.07 0 01.42-.85 1.7 1.7 0 011.13-.35 1.73 1.73 0 011.17.37 1.06 1.06 0 01.42.92h-.45a.8.8 0 00-.31-.63 1.44 1.44 0 00-1.62 0 .71.71 0 00-.27.55.62.62 0 00.23.49 2.12 2.12 0 00.92.35 3.05 3.05 0 011.17.48 1 1 0 01.39.82 1.05 1.05 0 01-.44.89 2.2 2.2 0 01-2.44 0 1.07 1.07 0 01-.39-.97h.44a.8.8 0 00.39.69 1.68 1.68 0 00.85.22 1.35 1.35 0 00.84-.24.71.71 0 00.26-.59zM49.89 48.65a2.85 2.85 0 01.45-1.65 1.43 1.43 0 011.24-.63 1.57 1.57 0 01.79.19 1.61 1.61 0 01.56.54v-2.6h.49v6.35H53v-.68a1.47 1.47 0 01-.57.54 1.62 1.62 0 01-.81.19 1.45 1.45 0 01-1.23-.59 2.53 2.53 0 01-.45-1.58zm.49.08A2.25 2.25 0 0050.7 50a1.06 1.06 0 001 .47 1.35 1.35 0 00.78-.21 1.28 1.28 0 00.49-.58V47.6a1.52 1.52 0 00-.47-.61 1.24 1.24 0 00-.79-.24 1.07 1.07 0 00-1 .53 2.65 2.65 0 00-.32 1.37zM57.93 50.1a1.59 1.59 0 01-.56.59 1.65 1.65 0 01-.85.21 1.33 1.33 0 01-1.09-.48A2.25 2.25 0 0155 49v-2.59h.49V49a1.89 1.89 0 00.27 1.15.91.91 0 00.78.35 1.48 1.48 0 00.88-.24 1.38 1.38 0 00.46-.68v-3.17h.49v4.4H58zM64 50.49a1.33 1.33 0 00.82-.28.91.91 0 00.36-.77h.44a1.25 1.25 0 01-.48 1 1.78 1.78 0 01-1.14.46 1.64 1.64 0 01-1.37-.62 2.44 2.44 0 01-.49-1.58v-.18a2.47 2.47 0 01.48-1.52 1.64 1.64 0 011.38-.67 1.67 1.67 0 011.18.43 1.36 1.36 0 01.46 1.12h-.44a1.08 1.08 0 00-.34-.84 1.21 1.21 0 00-.85-.32 1.16 1.16 0 00-1 .51 2.29 2.29 0 00-.34 1.27v.18A2.32 2.32 0 0063 50a1.16 1.16 0 001 .49zM66.73 48.55a2.37 2.37 0 01.54-1.6 1.76 1.76 0 011.41-.62 1.8 1.8 0 011.42.67 2.41 2.41 0 01.53 1.6v.13a2.41 2.41 0 01-.53 1.6 1.92 1.92 0 01-2.83 0 2.37 2.37 0 01-.54-1.6zm.49.13a2.1 2.1 0 00.39 1.32 1.37 1.37 0 002.15 0 2.16 2.16 0 00.38-1.29v-.13a2.07 2.07 0 00-.39-1.28 1.35 1.35 0 00-2.14 0 2.07 2.07 0 00-.39 1.28zM72.41 46.41v.76a1.73 1.73 0 01.58-.62 1.56 1.56 0 01.85-.22 1.35 1.35 0 011.09.43 2.1 2.1 0 01.37 1.37v2.68h-.48v-2.68a1.59 1.59 0 00-.29-1.07 1 1 0 00-.8-.31 1.3 1.3 0 00-.84.26 1.42 1.42 0 00-.46.68v3.12H72v-4.4zM79.59 49.68a.7.7 0 00-.26-.53 2 2 0 00-.91-.38 3.1 3.1 0 01-1.17-.45.94.94 0 01-.38-.79 1.08 1.08 0 01.43-.85 1.67 1.67 0 011.12-.35 1.74 1.74 0 011.18.37 1.12 1.12 0 01.42.92h-.45a.8.8 0 00-.31-.63 1.22 1.22 0 00-.83-.27 1.2 1.2 0 00-.79.23.71.71 0 00-.27.55.62.62 0 00.23.49 2.12 2.12 0 00.92.35 3.05 3.05 0 011.17.48 1 1 0 01.39.82 1.08 1.08 0 01-.44.89 1.88 1.88 0 01-1.18.35 1.86 1.86 0 01-1.26-.39 1 1 0 01-.43-.91h.45a.8.8 0 00.39.69 1.65 1.65 0 00.85.22 1.3 1.3 0 00.83-.24.7.7 0 00.3-.57zM83.2 50.9a1.76 1.76 0 01-1.39-.61 2.28 2.28 0 01-.53-1.55v-.22a2.29 2.29 0 01.54-1.52 1.68 1.68 0 011.34-.62 1.56 1.56 0 011.24.51 2.1 2.1 0 01.43 1.39v.38h-3.06v.13a2 2 0 00.38 1.21 1.25 1.25 0 001 .5 2 2 0 00.74-.14 1.45 1.45 0 00.61-.36l.21.33a1.86 1.86 0 01-.61.41 2.41 2.41 0 01-.9.16zm0-4.16a1.19 1.19 0 00-.93.41 1.69 1.69 0 00-.42 1h2.52v-.1a1.54 1.54 0 00-.3-1 1.09 1.09 0 00-.91-.31zM86.7 45.15h-.49v-.69h.49zm0 5.66h-.49v-4.4h.49zM88.92 50.81h-.48v-6.35h.48zM2.32 60.9a1.74 1.74 0 01-1.39-.61 2.23 2.23 0 01-.54-1.55v-.22A2.29 2.29 0 01.93 57a1.69 1.69 0 011.34-.62 1.55 1.55 0 011.24.51A2.1 2.1 0 014 58.23v.38H.88v.13A2 2 0 001.26 60a1.28 1.28 0 001.06.5 2 2 0 00.74-.14 1.52 1.52 0 00.56-.36l.21.33a1.82 1.82 0 01-.61.41 2.41 2.41 0 01-.9.16zm0-4.16a1.19 1.19 0 00-.92.41 1.75 1.75 0 00-.43 1h2.49v-.1a1.48 1.48 0 00-.31-1 1.07 1.07 0 00-.88-.31zM6 55.28v1.13h1v.4H6v2.87a1 1 0 00.15.61.54.54 0 00.42.18h.37l.07.36a1 1 0 01-.24.08 1.36 1.36 0 01-.29 0 .93.93 0 01-.72-.29 1.41 1.41 0 01-.26-.93v-2.88h-.73v-.4h.76v-1.13zM10.45 58.65a2.94 2.94 0 01.44-1.65 1.45 1.45 0 011.25-.63 1.57 1.57 0 01.79.19 1.61 1.61 0 01.56.54v-2.6H14v6.35h-.4l-.07-.64a1.47 1.47 0 01-.57.54 1.62 1.62 0 01-.81.19 1.48 1.48 0 01-1.24-.59 2.6 2.6 0 01-.44-1.58zm.49.08a2.17 2.17 0 00.32 1.27 1.06 1.06 0 001 .47 1.35 1.35 0 00.78-.2 1.39 1.39 0 00.49-.58V57.6A1.52 1.52 0 0013 57a1.24 1.24 0 00-.79-.24 1.07 1.07 0 00-1 .53 2.65 2.65 0 00-.32 1.37zM17.28 60.9a1.72 1.72 0 01-1.38-.61 2.23 2.23 0 01-.54-1.55v-.22A2.29 2.29 0 0115.9 57a1.69 1.69 0 011.34-.62 1.55 1.55 0 011.24.51 2.1 2.1 0 01.44 1.39v.38h-3.07v.13a2 2 0 00.38 1.21 1.27 1.27 0 001.05.5 2 2 0 00.74-.14 1.49 1.49 0 00.57-.35l.2.33a1.68 1.68 0 01-.6.41 2.51 2.51 0 01-.91.15zm0-4.16a1.19 1.19 0 00-.92.41 1.69 1.69 0 00-.43 1h2.53v-.1a1.48 1.48 0 00-.31-1 1.07 1.07 0 00-.91-.31zM23.14 60.81h-.49v-6.35h.49zM27.61 60.81c0-.15-.05-.28-.07-.4s0-.22 0-.34a1.74 1.74 0 01-.64.59 1.83 1.83 0 01-.94.24 1.39 1.39 0 01-1-.35 1.21 1.21 0 01-.35-.93 1.14 1.14 0 01.51-1 2.34 2.34 0 011.35-.36h1.08v-.55a1 1 0 00-.3-.74 1.22 1.22 0 00-.85-.27 1.25 1.25 0 00-.8.25.74.74 0 00-.31.61h-.45a1 1 0 01.43-.87 2 2 0 012.33 0 1.29 1.29 0 01.4 1.07v2.17a3.4 3.4 0 000 .45 3.29 3.29 0 00.09.43zM26 60.47a1.72 1.72 0 001-.27 1.34 1.34 0 00.56-.69v-.84h-1.13a1.63 1.63 0 00-1 .29.81.81 0 00-.39.68.79.79 0 00.25.6 1 1 0 00.71.23zM32.41 56.41v.72a1.54 1.54 0 01.57-.59 1.57 1.57 0 01.83-.21 1.39 1.39 0 01.84.24 1.33 1.33 0 01.49.74 1.59 1.59 0 01.57-.72 1.51 1.51 0 01.89-.26 1.31 1.31 0 011.09.47 2.29 2.29 0 01.38 1.45v2.56h-.49v-2.57a1.71 1.71 0 00-.29-1.15 1 1 0 00-.8-.34 1.13 1.13 0 00-.86.34 1.74 1.74 0 00-.39.88v2.84h-.44v-2.57a1.78 1.78 0 00-.29-1.14 1 1 0 00-.8-.35 1.22 1.22 0 00-.82.26 1.38 1.38 0 00-.42.7v3.1H32v-4.4zM41.39 60.9a1.74 1.74 0 01-1.39-.61 2.23 2.23 0 01-.54-1.55v-.22A2.29 2.29 0 0140 57a1.69 1.69 0 011.34-.62 1.55 1.55 0 011.24.51 2.1 2.1 0 01.42 1.34v.38h-3v.13a2 2 0 00.33 1.26 1.28 1.28 0 001.06.5 2 2 0 00.74-.14 1.52 1.52 0 00.56-.35l.21.33a1.82 1.82 0 01-.61.41 2.41 2.41 0 01-.9.15zm0-4.16a1.19 1.19 0 00-.92.41 1.75 1.75 0 00-.43 1h2.52v-.1a1.48 1.48 0 00-.31-1 1.07 1.07 0 00-.91-.31zM47 59.69a.69.69 0 00-.25-.54 2.05 2.05 0 00-.92-.38 3 3 0 01-1.16-.45.9.9 0 01-.38-.79 1.07 1.07 0 01.42-.85 1.75 1.75 0 011.13-.35 1.73 1.73 0 011.16.37 1.07 1.07 0 01.42.92h-.46a.8.8 0 00-.31-.63 1.21 1.21 0 00-.82-.27A1.18 1.18 0 0045 57a.68.68 0 00-.27.54.62.62 0 00.27.46 2.12 2.12 0 00.92.35 3.22 3.22 0 011.17.48 1 1 0 01.4.82 1.05 1.05 0 01-.45.89 1.88 1.88 0 01-1.18.35 2 2 0 01-1.26-.38 1.1 1.1 0 01-.43-.92h.45a.77.77 0 00.38.69 1.58 1.58 0 00.85.22 1.33 1.33 0 00.84-.24.69.69 0 00.31-.57zM51.79 60.1a1.59 1.59 0 01-.56.59 1.65 1.65 0 01-.85.21 1.36 1.36 0 01-1.09-.47A2.31 2.31 0 0148.9 59v-2.59h.48V59a1.94 1.94 0 00.28 1.16.93.93 0 00.78.34 1.48 1.48 0 00.88-.24 1.4 1.4 0 00.46-.67v-3.18h.49v4.4h-.44zM55.9 56.83h-.35a1.13 1.13 0 00-.76.26 1.57 1.57 0 00-.42.71v3h-.49v-4.4h.43l.06.73a1.55 1.55 0 01.52-.63 1.22 1.22 0 01.76-.23H55.96zM58.66 60.9a1.76 1.76 0 01-1.39-.61 2.23 2.23 0 01-.53-1.55v-.22a2.29 2.29 0 01.54-1.52 1.67 1.67 0 011.33-.62 1.54 1.54 0 011.24.51 2.1 2.1 0 01.44 1.39v.38h-3.06v.13a2 2 0 00.38 1.21 1.25 1.25 0 001 .5 2 2 0 00.74-.14A1.52 1.52 0 0060 60l.21.33a1.82 1.82 0 01-.61.41 2.41 2.41 0 01-.94.16zm0-4.16a1.19 1.19 0 00-.92.41 1.75 1.75 0 00-.42 1h2.48v-.1a1.48 1.48 0 00-.31-1 1.06 1.06 0 00-.88-.31zM66.76 60.81a3.77 3.77 0 01-.07-.4 1.88 1.88 0 010-.34 1.82 1.82 0 01-.64.59 1.86 1.86 0 01-1 .24 1.38 1.38 0 01-1-.35 1.21 1.21 0 01-.36-.93 1.15 1.15 0 01.52-1 2.28 2.28 0 011.34-.36h1.09v-.55a1 1 0 00-.3-.74 1.22 1.22 0 00-.85-.27 1.3 1.3 0 00-.81.25.76.76 0 00-.3.61H64a1 1 0 01.42-.87 2 2 0 012.34 0 1.32 1.32 0 01.44 1.06v2.17a3.4 3.4 0 000 .45 2.17 2.17 0 00.08.43zm-1.62-.34a1.75 1.75 0 001-.27 1.39 1.39 0 00.56-.69v-.84h-1.12a1.61 1.61 0 00-1 .29.81.81 0 00-.39.68.76.76 0 00.25.6 1 1 0 00.7.23zM70.39 60.49a1.36 1.36 0 00.83-.28.91.91 0 00.36-.77H72a1.19 1.19 0 01-.48 1 1.76 1.76 0 01-1.15.41 1.67 1.67 0 01-1.37-.57 2.5 2.5 0 01-.49-1.58v-.17A2.5 2.5 0 0169 57a1.63 1.63 0 011.37-.62 1.68 1.68 0 011.18.43 1.37 1.37 0 01.45 1.07h-.44a1.08 1.08 0 00-.34-.84 1.25 1.25 0 00-.85-.32 1.15 1.15 0 00-1 .51 2.24 2.24 0 00-.37 1.3v.17a2.24 2.24 0 00.36 1.3 1.15 1.15 0 001.03.49zM73.13 58.55a2.41 2.41 0 01.53-1.6 1.8 1.8 0 011.42-.62 1.78 1.78 0 011.41.62 2.37 2.37 0 01.54 1.6v.13a2.37 2.37 0 01-.54 1.6 1.76 1.76 0 01-1.41.62 1.8 1.8 0 01-1.42-.62 2.41 2.41 0 01-.53-1.6zm.49.13A2.1 2.1 0 0074 60a1.36 1.36 0 002.14 0 2.1 2.1 0 00.39-1.29v-.13a2.07 2.07 0 00-.39-1.28 1.27 1.27 0 00-1.07-.53 1.24 1.24 0 00-1.07.53 2.07 2.07 0 00-.39 1.28zM81.26 60.1a1.54 1.54 0 01-.57.59 1.64 1.64 0 01-.84.21 1.38 1.38 0 01-1.1-.47 2.31 2.31 0 01-.39-1.43v-2.59h.49V59a1.94 1.94 0 00.27 1.16 1 1 0 00.78.34 1.46 1.46 0 00.88-.24 1.33 1.33 0 00.46-.67v-3.18h.49v4.4h-.43zM86 59.69a.7.7 0 00-.26-.54 2.05 2.05 0 00-.92-.38 3 3 0 01-1.16-.45.92.92 0 01-.38-.79 1.05 1.05 0 01.43-.85 1.71 1.71 0 011.12-.35 1.77 1.77 0 011.17.37 1.13 1.13 0 01.42.92H86a.84.84 0 00-.31-.63 1.24 1.24 0 00-.83-.27A1.18 1.18 0 0084 57a.68.68 0 00-.27.54.6.6 0 00.27.46 2.07 2.07 0 00.91.35 3.07 3.07 0 011.17.48 1 1 0 01.4.82 1.05 1.05 0 01-.45.89 1.85 1.85 0 01-1.17.35 1.91 1.91 0 01-1.26-.38 1.11 1.11 0 01-.44-.92h.45a.8.8 0 00.39.69 1.56 1.56 0 00.85.22 1.3 1.3 0 00.83-.24.71.71 0 00.32-.57zM88.69 55.28v1.13h1v.4h-1v2.87a1 1 0 00.15.61.54.54 0 00.42.18h.37l.07.36a1 1 0 01-.24.08 1.33 1.33 0 01-.28 0 .94.94 0 01-.73-.29 1.41 1.41 0 01-.26-.93v-2.88h-.76v-.4h.76v-1.13zM91.49 55.15H91v-.69h.49zm0 5.66H91v-4.4h.49zM93 58.65a2.87 2.87 0 01.42-1.65 1.44 1.44 0 011.24-.63 1.58 1.58 0 01.8.19 1.61 1.61 0 01.56.54l.08-.65h.39v6.1H96v-2.31a1.64 1.64 0 01-.56.49 1.8 1.8 0 01-.79.17 1.47 1.47 0 01-1.23-.59 2.53 2.53 0 01-.42-1.58zm.48.08a2.31 2.31 0 00.3 1.27 1.09 1.09 0 001 .48 1.42 1.42 0 00.77-.2 1.41 1.41 0 00.49-.56v-2.17a1.49 1.49 0 00-.47-.58 1.27 1.27 0 00-.78-.23 1 1 0 00-1 .53 2.61 2.61 0 00-.33 1.38zM101 60.1a1.54 1.54 0 01-.57.59 1.64 1.64 0 01-.84.21 1.34 1.34 0 01-1.09-.47 2.24 2.24 0 01-.4-1.47v-2.55h.49V59a1.87 1.87 0 00.28 1.16.92.92 0 00.77.34 1.46 1.46 0 00.88-.24 1.33 1.33 0 00.46-.67v-3.18h.49v4.4h-.43zM104.78 60.9a1.72 1.72 0 01-1.38-.61 2.23 2.23 0 01-.54-1.55v-.22a2.29 2.29 0 01.54-1.52 1.69 1.69 0 011.34-.62 1.55 1.55 0 011.24.51 2.1 2.1 0 01.43 1.39v.38h-3.06v.13a2 2 0 00.38 1.25 1.27 1.27 0 001 .5 2 2 0 00.74-.14 1.38 1.38 0 00.56-.35l.21.33a1.64 1.64 0 01-.61.41 2.41 2.41 0 01-.85.11zm0-4.16a1.21 1.21 0 00-.93.41 1.75 1.75 0 00-.42 1h2.53v-.1a1.54 1.54 0 00-.31-1 1.09 1.09 0 00-.91-.31zM7.14 35.64v.38a1.73 1.73 0 010 .27.58.58 0 010 .17.8.8 0 01-.14.17 1.76 1.76 0 01-.37.25 3.48 3.48 0 01-.58.26 4.72 4.72 0 01-.72.19 4.25 4.25 0 01-.8.07 4.19 4.19 0 01-1.63-.29 3 3 0 01-1.19-.84 3.61 3.61 0 01-.72-1.36 6 6 0 01-.25-1.83A6.37 6.37 0 01.94 31a3.91 3.91 0 01.84-1.44A3.18 3.18 0 013 28.73a4.39 4.39 0 011.61-.28 3.93 3.93 0 01.69.06 5.59 5.59 0 01.65.17 3.25 3.25 0 01.53.24 1.27 1.27 0 01.33.24.6.6 0 01.14.16.54.54 0 01.07.17v.27a3.79 3.79 0 010 .38 2 2 0 01-.09.72q-.09.21-.24.21a.58.58 0 01-.23-.07 3.86 3.86 0 00-.4-.28 3.51 3.51 0 00-.55-.28 2.18 2.18 0 00-.77-.12 1.5 1.5 0 00-1.33.67 3.49 3.49 0 00-.47 2 4.84 4.84 0 00.12 1.13 2.28 2.28 0 00.34.82 1.41 1.41 0 00.57.49 1.85 1.85 0 00.8.17 2.16 2.16 0 00.8-.14 2.89 2.89 0 00.58-.31 4.74 4.74 0 00.42-.3.45.45 0 01.28-.14.21.21 0 01.14 0 .38.38 0 01.08.17 1.86 1.86 0 010 .3 3.48 3.48 0 01.07.46zM17.77 32.85a6.36 6.36 0 01-.26 1.85 3.79 3.79 0 01-.82 1.44 3.49 3.49 0 01-1.36.94 5.15 5.15 0 01-1.92.33 5.14 5.14 0 01-1.84-.3 3.27 3.27 0 01-1.3-.85 3.51 3.51 0 01-.77-1.38A6.32 6.32 0 019.25 33a6.06 6.06 0 01.27-1.86 4 4 0 01.82-1.45 3.58 3.58 0 011.36-.93 5.06 5.06 0 011.91-.33 5.4 5.4 0 011.85.29 3.31 3.31 0 011.3.85 3.56 3.56 0 01.76 1.43 6.41 6.41 0 01.25 1.85zm-2.31.09a6.08 6.08 0 00-.09-1.09 2.52 2.52 0 00-.32-.86 1.61 1.61 0 00-.59-.57 2.23 2.23 0 00-1.8 0 1.59 1.59 0 00-.62.53 2.63 2.63 0 00-.36.85 4.84 4.84 0 00-.12 1.13 5.22 5.22 0 00.1 1.08 2.65 2.65 0 00.31.86 1.56 1.56 0 00.6.57 2 2 0 00.92.2 2 2 0 00.89-.18 1.64 1.64 0 00.61-.53 2.63 2.63 0 00.36-.85 5.38 5.38 0 00.11-1.14zM28.2 36.9a.3.3 0 01-.05.16.5.5 0 01-.18.11 2 2 0 01-.34.07h-1.09a1.94 1.94 0 01-.35-.07.38.38 0 01-.17-.11.25.25 0 01-.02-.16v-4.54a4.13 4.13 0 00-.08-.9 1.86 1.86 0 00-.25-.57 1 1 0 00-.41-.37 1.38 1.38 0 00-.59-.13 1.49 1.49 0 00-.87.32 4.57 4.57 0 00-.91.91v5.28a.3.3 0 01-.05.16.48.48 0 01-.19.11 1.65 1.65 0 01-.34.07h-1.09a2 2 0 01-.34-.07.43.43 0 01-.18-.11.24.24 0 01-.05-.16V29a.29.29 0 010-.16.34.34 0 01.16-.11 1.13 1.13 0 01.3-.06 2.86 2.86 0 01.46 0 3 3 0 01.47 0 1 1 0 01.29.06.37.37 0 01.15.11.29.29 0 010 .16v.92a5.08 5.08 0 011.34-1.07 3 3 0 011.43-.36 3.08 3.08 0 011.36.27 2.4 2.4 0 01.9.73 2.86 2.86 0 01.5 1.07A6.31 6.31 0 0128.2 32zM36 36.12a3 3 0 010 .6.6.6 0 01-.13.29.55.55 0 01-.24.15 1.52 1.52 0 01-.36.12l-.46.08h-.49a3.38 3.38 0 01-1.16-.17 1.8 1.8 0 01-.81-.52 2.07 2.07 0 01-.47-.88 4.36 4.36 0 01-.16-1.27v-4.05h-1a.29.29 0 01-.26-.21 2 2 0 01-.09-.7v-.44a1.26 1.26 0 01.07-.28.37.37 0 01.11-.15.29.29 0 01.16 0h.94v-1.82a.3.3 0 010-.16.7.7 0 01.18-.12 1.94 1.94 0 01.35-.07h1.09a1.81 1.81 0 01.34.07.7.7 0 01.18.12.3.3 0 010 .16v1.78h1.73a.29.29 0 01.16 0 .37.37 0 01.11.15 1.26 1.26 0 01.07.28v.44a2 2 0 01-.09.7.29.29 0 01-.26.21h-1.6v3.77a1.85 1.85 0 00.21 1 .8.8 0 00.73.32 1.58 1.58 0 00.32 0 1.49 1.49 0 00.25-.07l.19-.07h.14a.19.19 0 01.1 0 .23.23 0 01.08.12v.26c0 .11.07.24.07.36zM43.78 29.69v.53a1.22 1.22 0 01-.06.32.31.31 0 01-.09.16.24.24 0 01-.15 0h-.16l-.2-.07-.24-.06a1.39 1.39 0 00-.3 0 1 1 0 00-.37.07 1.53 1.53 0 00-.39.24 2.88 2.88 0 00-.42.43 6.47 6.47 0 00-.47.66v4.93a.24.24 0 01-.05.16.5.5 0 01-.18.11 2 2 0 01-.34.07h-1.09a1.94 1.94 0 01-.35-.07.5.5 0 01-.18-.11.3.3 0 010-.16V29a.29.29 0 010-.16.41.41 0 01.16-.11 1.13 1.13 0 01.3-.06 3 3 0 01.46 0 3 3 0 01.47 0 .91.91 0 01.29.06.37.37 0 01.15.11.29.29 0 010 .16v1a7.64 7.64 0 01.59-.74 3.35 3.35 0 01.53-.45 1.35 1.35 0 01.5-.24 1.68 1.68 0 01.5-.07h.25a2.12 2.12 0 01.52.11.57.57 0 01.16.09.28.28 0 01.07.09.54.54 0 010 .15v.28zM54 32.85a6.36 6.36 0 01-.26 1.85 3.79 3.79 0 01-.74 1.44 3.49 3.49 0 01-1.36.94 5.77 5.77 0 01-3.76 0 3.27 3.27 0 01-1.3-.85 3.51 3.51 0 01-.77-1.38 6.32 6.32 0 01-.29-1.85 6.06 6.06 0 01.27-1.86 4 4 0 01.82-1.45 3.58 3.58 0 011.39-.92 5.06 5.06 0 011.91-.33 5.4 5.4 0 011.85.29 3.31 3.31 0 011.3.85 3.56 3.56 0 01.73 1.42 6.41 6.41 0 01.21 1.85zm-2.31.09a6.08 6.08 0 00-.09-1.09 2.52 2.52 0 00-.32-.86 1.61 1.61 0 00-.59-.57 2.23 2.23 0 00-1.8 0 1.59 1.59 0 00-.62.53 2.63 2.63 0 00-.36.85 4.84 4.84 0 00-.12 1.13 5.22 5.22 0 00.1 1.08 2.65 2.65 0 00.31.86 1.56 1.56 0 00.6.57 2 2 0 00.92.2 2 2 0 00.89-.18 1.64 1.64 0 00.61-.53 2.63 2.63 0 00.36-.85 4.78 4.78 0 00.15-1.14zM59.12 36.9a.3.3 0 010 .16.5.5 0 01-.18.11 1.94 1.94 0 01-.35.07h-1.08a1.94 1.94 0 01-.35-.07.5.5 0 01-.18-.11.24.24 0 010-.16V25.18a.24.24 0 010-.16.41.41 0 01.18-.12 1.84 1.84 0 01.35-.08h1.08a1.84 1.84 0 01.35.08.41.41 0 01.18.12.3.3 0 010 .16z"/>
    </g>
  </g>
</svg>
