<svg xmlns="http://www.w3.org/2000/svg" viewBox="0 0 105.1 64.09">
  <defs>
    <style>
      .cls-1{fill:#fff}
    </style>
  </defs>
  <g id="Calque_2" data-name="Calque 2">
    <g id="Calque_1-2" data-name="Calque 1">
      <path class="cls-1" d="M.61 47.51v.07-.07s.02 0 0 0zM2.93 51.08a.74.74 0 00-.26-.55 2.05 2.05 0 00-.93-.38 3.09 3.09 0 01-1.18-.45 1 1 0 01-.39-.81A1.1 1.1 0 01.61 48a1.74 1.74 0 011.14-.35 1.79 1.79 0 011.19.38 1.12 1.12 0 01.43.93H2.9a.85.85 0 00-.32-.64 1.24 1.24 0 00-.83-.27 1.19 1.19 0 00-.81.24.7.7 0 00-.27.55.61.61 0 00.23.5 2.18 2.18 0 00.93.35 3.09 3.09 0 011.17.53 1 1 0 01.4.83A1.1 1.1 0 013 52a1.92 1.92 0 01-1.2.35 1.94 1.94 0 01-1.28-.39A1.12 1.12 0 01.05 51h.47a.82.82 0 00.39.7 1.62 1.62 0 00.86.22 1.36 1.36 0 00.85-.24.7.7 0 00.31-.6zM8.5 50.11a2.54 2.54 0 01-.5 1.6 1.48 1.48 0 01-1.25.6 1.8 1.8 0 01-.75-.18 1.53 1.53 0 01-.57-.5v2.31H4.9v-6.19h.38l.09.7a1.61 1.61 0 01.63-.58 1.7 1.7 0 01.83-.2 1.45 1.45 0 011.17.64A2.86 2.86 0 018.5 50zM8 50a2.5 2.5 0 00-.34-1.38 1.08 1.08 0 00-1-.54 1.33 1.33 0 00-.8.23 1.45 1.45 0 00-.46.69v2.16a1.3 1.3 0 00.49.57 1.39 1.39 0 00.79.21 1.13 1.13 0 001-.49A2.24 2.24 0 008 50.11zM11.64 52.31a1.79 1.79 0 01-1.4-.62 2.27 2.27 0 01-.55-1.57v-.23a2.36 2.36 0 01.55-1.59 1.74 1.74 0 011.36-.63 1.57 1.57 0 011.26.52 2.14 2.14 0 01.44 1.41v.4h-3.11v.14a2 2 0 00.39 1.27 1.26 1.26 0 001.06.5 2.06 2.06 0 00.76-.13 1.7 1.7 0 00.57-.37l.21.34a1.72 1.72 0 01-.62.41 2.32 2.32 0 01-.92.15zm0-4.22a1.23 1.23 0 00-.94.41 1.79 1.79 0 00-.43 1h2.57v-.1a1.48 1.48 0 00-.32-1 1.06 1.06 0 00-.92-.31zm.52-2.24h.61l-1 1.07h-.44zM16.27 51.89a1.36 1.36 0 00.85-.28.94.94 0 00.36-.78h.44a1.24 1.24 0 01-.49 1 1.75 1.75 0 01-1.17.42 1.69 1.69 0 01-1.39-.63 2.51 2.51 0 01-.49-1.61v-.11a2.5 2.5 0 01.49-1.6 1.68 1.68 0 011.39-.63 1.72 1.72 0 011.2.43 1.42 1.42 0 01.46 1.14h-.44a1.11 1.11 0 00-.35-.86 1.24 1.24 0 00-.86-.32 1.14 1.14 0 00-1 .52 2.25 2.25 0 00-.35 1.29v.17a2.32 2.32 0 00.35 1.31 1.15 1.15 0 001 .54zM19.88 46.47h-.49v-.69h.49zm0 5.75h-.49v-4.47h.49zM24.42 52.22c0-.16-.05-.29-.07-.4s0-.23 0-.35a1.89 1.89 0 01-1.61.84 1.42 1.42 0 01-1-.35 1.26 1.26 0 01-.36-1 1.14 1.14 0 01.53-1 2.28 2.28 0 011.36-.37h1.1v-.55a1 1 0 00-.3-.76 1.49 1.49 0 00-1.68 0A.74.74 0 0022 49h-.46a1.07 1.07 0 01.43-.89 1.83 1.83 0 011.19-.38 1.76 1.76 0 011.18.38 1.31 1.31 0 01.45 1.07v2.2a3.44 3.44 0 000 .46 2.15 2.15 0 00.09.44zm-1.64-.35a1.73 1.73 0 001-.27 1.34 1.34 0 00.57-.7v-.85h-1.1a1.58 1.58 0 00-1 .29.84.84 0 00-.39.69.79.79 0 00.25.61 1 1 0 00.67.23zM27 52.22h-.49v-6.44H27zM29.29 46.47h-.49v-.69h.49zm0 5.75h-.49v-4.47h.49zM33.67 51.08a.74.74 0 00-.26-.55 2.05 2.05 0 00-.93-.38 3.09 3.09 0 01-1.18-.45 1 1 0 01-.38-.81 1.09 1.09 0 01.43-.87 2 2 0 012.33 0 1.12 1.12 0 01.43.93h-.46a.84.84 0 00-.31-.64 1.25 1.25 0 00-.84-.27 1.19 1.19 0 00-.81.24.7.7 0 00-.27.55.64.64 0 00.23.5 2.24 2.24 0 00.93.35 3 3 0 011.19.49 1 1 0 01.4.83 1.1 1.1 0 01-.45.91 2.25 2.25 0 01-2.47 0 1.1 1.1 0 01-.45-.91h.46a.82.82 0 00.39.7 1.62 1.62 0 00.86.22 1.34 1.34 0 00.85-.24.7.7 0 00.31-.6zM36.41 46.61v1.14h1v.41h-1v2.91a1 1 0 00.16.62.55.55 0 00.43.18h.37l.08.37a1.23 1.23 0 01-.25.08 1.43 1.43 0 01-.29 0 .91.91 0 01-.73-.3 1.37 1.37 0 01-.26-.94v-2.92h-.78v-.41h.78v-1.14zM40.4 52.31a1.79 1.79 0 01-1.4-.62 2.27 2.27 0 01-.54-1.57v-.23A2.31 2.31 0 0139 48.3a1.72 1.72 0 011.35-.63 1.54 1.54 0 011.26.52 2.09 2.09 0 01.45 1.41v.4H39v.14a2.08 2.08 0 00.38 1.27 1.3 1.3 0 001.07.5 2 2 0 00.75-.13 1.52 1.52 0 00.57-.37l.21.34a1.6 1.6 0 01-.61.41 2.32 2.32 0 01-.97.15zm0-4.22a1.19 1.19 0 00-.93.41 1.72 1.72 0 00-.43 1h2.56v-.1a1.48 1.48 0 00-.31-1 1.09 1.09 0 00-.94-.31zM46.07 51.08a.7.7 0 00-.26-.55 2.05 2.05 0 00-.93-.38 3.09 3.09 0 01-1.18-.45 1 1 0 01-.38-.81 1.09 1.09 0 01.43-.87 2 2 0 012.33 0 1.12 1.12 0 01.43.93H46a.84.84 0 00-.31-.64 1.25 1.25 0 00-.84-.27 1.19 1.19 0 00-.81.24.7.7 0 00-.27.55.64.64 0 00.23.5 2.24 2.24 0 00.93.35 3 3 0 011.19.49 1 1 0 01.4.83 1.1 1.1 0 01-.45.91 2.25 2.25 0 01-2.47 0 1.1 1.1 0 01-.4-.91h.45a.82.82 0 00.39.7 1.63 1.63 0 00.87.22 1.33 1.33 0 00.84-.24.7.7 0 00.32-.6zM50.24 50a2.86 2.86 0 01.46-1.71 1.45 1.45 0 011.3-.62 1.6 1.6 0 01.8.19 1.66 1.66 0 01.57.55v-2.63h.5v6.44h-.41l-.07-.65a1.58 1.58 0 01-.57.55 1.81 1.81 0 01-.83.19 1.48 1.48 0 01-1.25-.6 2.54 2.54 0 01-.46-1.6zm.5.09a2.32 2.32 0 00.32 1.29 1.12 1.12 0 001 .48 1.42 1.42 0 00.8-.21 1.5 1.5 0 00.49-.59V49a1.55 1.55 0 00-.48-.62 1.25 1.25 0 00-.8-.24 1.08 1.08 0 00-1 .53 2.62 2.62 0 00-.33 1.33zM58.41 51.49a1.49 1.49 0 01-.58.61 1.65 1.65 0 01-.85.21 1.36 1.36 0 01-1.11-.48 2.29 2.29 0 01-.4-1.49v-2.59H56v2.6a2 2 0 00.28 1.17 1 1 0 00.79.36 1.41 1.41 0 00.89-.25 1.31 1.31 0 00.47-.68v-3.2h.5v4.47h-.44zM64.56 51.89a1.36 1.36 0 00.85-.28.94.94 0 00.36-.78h.44a1.24 1.24 0 01-.49 1 1.75 1.75 0 01-1.17.42 1.69 1.69 0 01-1.39-.63 2.51 2.51 0 01-.49-1.61v-.11a2.5 2.5 0 01.49-1.6 1.68 1.68 0 011.39-.63 1.72 1.72 0 011.2.43 1.42 1.42 0 01.46 1.14h-.44a1.11 1.11 0 00-.35-.86 1.24 1.24 0 00-.86-.32 1.14 1.14 0 00-1 .52 2.25 2.25 0 00-.35 1.29v.17a2.32 2.32 0 00.35 1.31 1.15 1.15 0 001 .54zM67.34 49.92a2.4 2.4 0 01.54-1.62 2 2 0 012.88 0 2.4 2.4 0 01.54 1.62v.14a2.4 2.4 0 01-.54 1.62 1.79 1.79 0 01-1.43.63 1.84 1.84 0 01-1.45-.63 2.4 2.4 0 01-.54-1.62zm.5.14a2.13 2.13 0 00.39 1.3 1.27 1.27 0 001.1.53 1.25 1.25 0 001.08-.53 2.14 2.14 0 00.4-1.3v-.14a2.16 2.16 0 00-.4-1.3 1.39 1.39 0 00-2.18 0 2.15 2.15 0 00-.39 1.3zM73.11 47.75v.78a1.72 1.72 0 01.58-.64 1.63 1.63 0 01.87-.22 1.38 1.38 0 011.1.44 2.08 2.08 0 01.38 1.39v2.72h-.49V49.5a1.61 1.61 0 00-.29-1.08 1 1 0 00-.81-.32 1.36 1.36 0 00-.86.26 1.53 1.53 0 00-.47.7v3.16h-.49v-4.47zM78.49 46.61v1.14h1v.41h-1v2.91a.92.92 0 00.16.62.52.52 0 00.42.18h.38l.07.37a1.23 1.23 0 01-.25.08 1.36 1.36 0 01-.29 0 .91.91 0 01-.73-.3 1.43 1.43 0 01-.26-.94v-2.92h-.77v-.41H78v-1.14zM82.82 48.18h-.35a1.16 1.16 0 00-.77.26 1.51 1.51 0 00-.43.73v3.08h-.49v-4.5h.43l.06.75a1.7 1.7 0 01.52-.65 1.35 1.35 0 01.78-.23H82.88zM83.64 49.92a2.4 2.4 0 01.54-1.62 1.95 1.95 0 012.87 0 2.36 2.36 0 01.55 1.62v.14a2.4 2.4 0 01-.54 1.62 2 2 0 01-2.88 0 2.4 2.4 0 01-.54-1.62zm.5.14a2.13 2.13 0 00.39 1.3 1.39 1.39 0 002.18 0 2.13 2.13 0 00.39-1.3v-.14a2.15 2.15 0 00-.39-1.3 1.31 1.31 0 00-1.09-.53 1.28 1.28 0 00-1.09.53 2.15 2.15 0 00-.39 1.3zm2.68-3.2v.08h-.46l-.69-.7-.68.7h-.46v-.09l.94-.91h.4zM89.52 52.22H89v-6.44h.49zM92.92 52.31a1.82 1.82 0 01-1.41-.62 2.27 2.27 0 01-.51-1.57v-.23a2.36 2.36 0 01.55-1.59 1.74 1.74 0 011.36-.63 1.57 1.57 0 011.26.52 2.14 2.14 0 01.44 1.41v.4h-3.14v.14a2 2 0 00.39 1.27 1.26 1.26 0 001.06.5 2.06 2.06 0 00.76-.13 1.7 1.7 0 00.57-.37l.21.34a1.72 1.72 0 01-.62.41 2.32 2.32 0 01-.92.15zm0-4.22a1.23 1.23 0 00-.94.41 1.79 1.79 0 00-.43 1h2.56v-.1a1.48 1.48 0 00-.31-1 1.07 1.07 0 00-.92-.31zM2 62.46a1.78 1.78 0 01-1.41-.61A2.31 2.31 0 010 60.27V60a2.31 2.31 0 01.55-1.59 1.72 1.72 0 011.35-.63 1.57 1.57 0 011.26.52 2.09 2.09 0 01.45 1.41v.39H.5v.13a2 2 0 00.38 1.27A1.27 1.27 0 002 62a2 2 0 00.75-.13 1.64 1.64 0 00.57-.36l.21.34a1.86 1.86 0 01-.61.41 2.33 2.33 0 01-.92.2zm-.1-4.22a1.19 1.19 0 00-.93.41 1.72 1.72 0 00-.43 1h2.57v-.1a1.49 1.49 0 00-.31-1 1.09 1.09 0 00-.9-.31zM5.72 56.76v1.14h1v.41h-1v2.91a.92.92 0 00.16.62.5.5 0 00.42.16h.38l.07.37a1.23 1.23 0 01-.25.08 1.36 1.36 0 01-.29 0 .91.91 0 01-.73-.3 1.35 1.35 0 01-.26-.94v-2.9h-.77v-.41h.77v-1.14zM10.21 60.18a3 3 0 01.45-1.72 1.47 1.47 0 011.26-.64 1.62 1.62 0 01.81.2 1.55 1.55 0 01.57.54v-2.63h.49v6.44h-.4l-.07-.64a1.58 1.58 0 01-1.41.73 1.48 1.48 0 01-1.25-.6 2.58 2.58 0 01-.45-1.6zm.49.08a2.24 2.24 0 00.3 1.29 1.09 1.09 0 001 .45 1.42 1.42 0 00.8-.21 1.45 1.45 0 00.5-.59v-2.09a1.75 1.75 0 00-.48-.62 1.3 1.3 0 00-.81-.24 1.08 1.08 0 00-1 .54 2.6 2.6 0 00-.33 1.39zM17.15 62.46a1.78 1.78 0 01-1.41-.61 2.31 2.31 0 01-.54-1.58V60a2.36 2.36 0 01.54-1.59 1.74 1.74 0 011.36-.63 1.6 1.6 0 011.26.52 2.09 2.09 0 01.44 1.41v.39h-3.11v.13a2 2 0 00.39 1.27 1.26 1.26 0 001.07.5 2 2 0 00.75-.13 1.64 1.64 0 00.57-.36l.21.34a1.91 1.91 0 01-.62.41 2.28 2.28 0 01-.91.2zm0-4.22a1.23 1.23 0 00-.94.41 1.85 1.85 0 00-.43 1h2.56v-.1a1.55 1.55 0 00-.31-1 1.09 1.09 0 00-.93-.31zM23.09 62.37h-.49v-6.44h.49zM27.63 62.37c0-.15-.06-.29-.07-.4a2 2 0 010-.35 1.89 1.89 0 01-1.61.84 1.42 1.42 0 01-1-.35 1.26 1.26 0 01-.36-1 1.14 1.14 0 01.52-1 2.31 2.31 0 011.37-.37h1.1v-.55a1 1 0 00-.31-.75 1.19 1.19 0 00-.85-.28 1.29 1.29 0 00-.82.25.77.77 0 00-.32.62h-.45a1 1 0 01.43-.89 1.81 1.81 0 011.19-.38 1.78 1.78 0 011.18.38 1.33 1.33 0 01.37 1.14v2.65a3.12 3.12 0 00.09.44zM26 62a1.79 1.79 0 001-.27 1.36 1.36 0 00.57-.69v-.84h-1.14a1.64 1.64 0 00-1 .29.85.85 0 00-.4.69.81.81 0 00.25.61A1 1 0 0026 62zM35.68 60.26a2.52 2.52 0 01-.46 1.6 1.48 1.48 0 01-1.25.6 1.8 1.8 0 01-.82-.18 1.45 1.45 0 01-.57-.5v2.31h-.5V57.9h.38l.09.7a1.51 1.51 0 01.58-.57 1.6 1.6 0 01.83-.21 1.47 1.47 0 011.26.64 2.87 2.87 0 01.46 1.72zm-.5-.08a2.53 2.53 0 00-.34-1.39 1.08 1.08 0 00-1-.54 1.27 1.27 0 00-.8.24 1.36 1.36 0 00-.47.61v2.16a1.2 1.2 0 00.49.57 1.39 1.39 0 00.79.21 1.12 1.12 0 001-.48 2.22 2.22 0 00.34-1.3zM38.82 62.46a1.78 1.78 0 01-1.4-.61 2.27 2.27 0 01-.55-1.58V60a2.36 2.36 0 01.55-1.59 1.74 1.74 0 011.36-.63 1.6 1.6 0 011.26.52 2.14 2.14 0 01.44 1.41v.39h-3.11v.13a2 2 0 00.39 1.27 1.24 1.24 0 001.06.5 2.06 2.06 0 00.76-.13 1.85 1.85 0 00.57-.36l.21.34a2 2 0 01-.62.41 2.33 2.33 0 01-.92.2zm0-4.22a1.23 1.23 0 00-.94.41 1.79 1.79 0 00-.43 1H40v-.1a1.5 1.5 0 00-.32-1 1.07 1.07 0 00-.9-.31zM43.86 58.33h-.35a1.11 1.11 0 00-.77.26 1.44 1.44 0 00-.43.72v3.08h-.49V57.9h.43l.06.75v.05a1.7 1.7 0 01.52-.65 1.35 1.35 0 01.78-.23h.31zM45.47 57.9v.74a1.5 1.5 0 01.57-.6 1.56 1.56 0 01.85-.22 1.41 1.41 0 01.86.25 1.32 1.32 0 01.49.75 1.63 1.63 0 01.58-.73 1.48 1.48 0 01.9-.27 1.34 1.34 0 011.1.48 2.27 2.27 0 01.39 1.47v2.6h-.49v-2.61a1.79 1.79 0 00-.3-1.17 1 1 0 00-.81-.34 1.12 1.12 0 00-.87.35 1.59 1.59 0 00-.39.89v2.88h-.5v-2.61a1.77 1.77 0 00-.3-1.16 1 1 0 00-.81-.35 1.24 1.24 0 00-.82.26 1.44 1.44 0 00-.44.71v3.15H45V57.9zM54.58 62.46a1.78 1.78 0 01-1.41-.61 2.31 2.31 0 01-.54-1.58V60a2.31 2.31 0 01.55-1.59 1.71 1.71 0 011.35-.63 1.57 1.57 0 011.26.52 2.09 2.09 0 01.45 1.41v.39h-3.12v.13a2 2 0 00.39 1.27 1.26 1.26 0 001.07.5 2 2 0 00.75-.13 1.64 1.64 0 00.57-.36l.21.34a1.81 1.81 0 01-.62.41 2.28 2.28 0 01-.91.2zm0-4.22a1.19 1.19 0 00-.93.41 1.72 1.72 0 00-.43 1h2.56v-.1a1.49 1.49 0 00-.31-1 1.09 1.09 0 00-.94-.31zm.48-2.24h.61l-1 1.07h-.44zM60.4 62.37c0-.15 0-.29-.07-.4s0-.23 0-.35a1.8 1.8 0 01-.65.6 1.84 1.84 0 01-.95.24 1.42 1.42 0 01-1-.35 1.26 1.26 0 01-.36-1 1.14 1.14 0 01.52-1 2.28 2.28 0 011.36-.37h1.1v-.55a1 1 0 00-.3-.75 1.2 1.2 0 00-.86-.28 1.31 1.31 0 00-.82.25.76.76 0 00-.31.62h-.46a1.09 1.09 0 01.4-.83 1.85 1.85 0 011.2-.38 1.78 1.78 0 011.18.38 1.32 1.32 0 01.44 1.08v2.19a3.44 3.44 0 000 .46 3.12 3.12 0 00.09.44zM58.76 62a1.79 1.79 0 001-.27 1.39 1.39 0 00.56-.69v-.84h-1.1a1.69 1.69 0 00-1 .29.84.84 0 00-.39.69.78.78 0 00.25.61 1 1 0 00.68.21zM66.06 60.26a2.58 2.58 0 01-.45 1.6 1.49 1.49 0 01-1.25.6 1.75 1.75 0 01-.85-.2 1.48 1.48 0 01-.58-.56l-.08.67h-.39v-6.44H63v2.66a1.56 1.56 0 01.57-.57 1.63 1.63 0 01.82-.2 1.49 1.49 0 011.26.64 3 3 0 01.45 1.72zm-.5-.08a2.6 2.6 0 00-.33-1.39 1.07 1.07 0 00-1-.54 1.25 1.25 0 00-.82.25 1.48 1.48 0 00-.47.65v2a1.38 1.38 0 00.49.62 1.36 1.36 0 00.81.22 1.12 1.12 0 001-.48 2.32 2.32 0 00.32-1.29zM68.06 56.62h-.49v-.69h.49zm0 5.75h-.49V57.9h.49zM70.32 62.37h-.49v-6.44h.49zM72.58 56.62h-.49v-.69h.49zm0 5.75h-.49V57.9h.49zM75.06 56.76v1.14h1v.41h-1v2.91a.92.92 0 00.16.62.5.5 0 00.42.19h.38l.07.37a1.23 1.23 0 01-.25.08 1.36 1.36 0 01-.29 0 .93.93 0 01-.73-.3 1.41 1.41 0 01-.26-.94v-2.93h-.77v-.41h.77v-1.14zM79 62.46a1.78 1.78 0 01-1.4-.61 2.32 2.32 0 01-.55-1.58V60a2.36 2.36 0 01.55-1.59 1.74 1.74 0 011.4-.59 1.6 1.6 0 011.26.52 2.14 2.14 0 01.44 1.41v.39h-3.11v.13a2 2 0 00.41 1.27 1.24 1.24 0 001 .46 2.06 2.06 0 00.76-.13 1.73 1.73 0 00.57-.36l.21.34a2 2 0 01-.62.41 2.3 2.3 0 01-.92.2zm0-4.22a1.23 1.23 0 00-.94.41 1.79 1.79 0 00-.43 1h2.57v-.1a1.5 1.5 0 00-.32-1 1.06 1.06 0 00-.88-.31zm.52-2.24h.61l-1 1.07h-.45zM87.26 62.37a3.92 3.92 0 01-.06-.4 2 2 0 010-.35 1.85 1.85 0 01-.64.6 1.9 1.9 0 01-1 .24 1.42 1.42 0 01-1-.35 1.26 1.26 0 01-.36-1 1.14 1.14 0 01.52-1 2.31 2.31 0 011.37-.37h1.09v-.55a1 1 0 00-.3-.75 1.2 1.2 0 00-.86-.28 1.31 1.31 0 00-.82.25.79.79 0 00-.31.62h-.46a1.08 1.08 0 01.44-.89 1.81 1.81 0 011.13-.32 1.78 1.78 0 011.18.38 1.33 1.33 0 01.45 1.08v2.19a3.46 3.46 0 000 .46 3.12 3.12 0 00.09.44zM85.62 62a1.79 1.79 0 001-.27 1.34 1.34 0 00.56-.69v-.84h-1.1a1.64 1.64 0 00-1 .29.82.82 0 00-.4.69.81.81 0 00.25.61 1 1 0 00.69.21zm.69-4.94h-.48l-1-1.08h.64zM92.27 62.37h-.49v-6.44h.49zM94.51 57.16l-.3 1.14h-.3l.1-1.1v-.84h.5zM98.69 62.37c0-.15-.06-.29-.07-.4a2 2 0 010-.35 1.85 1.85 0 01-.64.6 1.9 1.9 0 01-1 .24 1.42 1.42 0 01-1-.35 1.26 1.26 0 01-.36-1 1.14 1.14 0 01.52-1 2.31 2.31 0 011.37-.37h1.09v-.55a1 1 0 00-.3-.75 1.2 1.2 0 00-.86-.28 1.31 1.31 0 00-.82.25.79.79 0 00-.31.62h-.46a1.08 1.08 0 01.44-.89 1.81 1.81 0 011.19-.38 1.78 1.78 0 011.18.38 1.33 1.33 0 01.45 1.08v2.19a3.46 3.46 0 000 .46 3.12 3.12 0 00.09.44zM97 62a1.79 1.79 0 001-.27 1.29 1.29 0 00.56-.69v-.84h-1.1a1.64 1.64 0 00-1 .29.82.82 0 00-.4.69.81.81 0 00.25.61A1 1 0 0097 62zM101.29 56.62h-.49v-.69h.49zm0 5.75h-.49V57.9h.49zM105 58.33h-.35a1.11 1.11 0 00-.77.26 1.36 1.36 0 00-.42.72v3.08H103V57.9h.44l.06.75v.05a1.62 1.62 0 01.52-.65 1.32 1.32 0 01.77-.23h.31zM11.45 4.62v-.06.06zM19.37 20.32a1.62 1.62 0 01-.14.68 1.43 1.43 0 01-.36.5 1.38 1.38 0 01-.53.3 2.16 2.16 0 01-.62.09h-1.87a3.73 3.73 0 01-1-.12 2 2 0 01-.78-.42 4.09 4.09 0 01-.7-.84c-.22-.35-.47-.8-.75-1.36L7.25 9.07c-.31-.6-.63-1.25-1-1.94s-.62-1.37-.87-2c0 .8.07 1.6.1 2.39s0 1.62 0 2.46v11.26a.53.53 0 01-.09.3.67.67 0 01-.32.22 2.4 2.4 0 01-.61.14 6.67 6.67 0 01-1 .05 6.69 6.69 0 01-1-.05 2.42 2.42 0 01-.6-.14.65.65 0 01-.3-.22.61.61 0 01-.08-.3V1.85A1.47 1.47 0 012 .67 1.66 1.66 0 013.16.28h2.35a4.57 4.57 0 011.07.11 2 2 0 01.77.36 2.89 2.89 0 01.65.69 9.46 9.46 0 01.61 1.09l4.2 7.89.73 1.41q.36.69.69 1.38c.22.46.44.91.65 1.36s.42.89.62 1.33c0-.78-.06-1.59-.08-2.43s0-1.65 0-2.42V.93a.48.48 0 01.11-.3.73.73 0 01.32-.23 2.11 2.11 0 01.62-.14 8.78 8.78 0 011 0 8.54 8.54 0 01.95 0A1.89 1.89 0 0119 .4a.64.64 0 01.29.23.53.53 0 01.09.3zM40.82 21a.68.68 0 01-.07.31.47.47 0 01-.32.21 2.74 2.74 0 01-.73.12h-2.43a2.39 2.39 0 01-.66-.13.7.7 0 01-.34-.23 1.08 1.08 0 01-.17-.34l-1.93-4.82c-.24-.54-.47-1-.69-1.45a4.61 4.61 0 00-.74-1.06 2.71 2.71 0 00-.94-.61 3.39 3.39 0 00-1.24-.22H29.2V21a.48.48 0 01-.11.3.77.77 0 01-.36.22 3.78 3.78 0 01-.67.13 9.89 9.89 0 01-1.06.05 10 10 0 01-1.06-.05 3.92 3.92 0 01-.68-.13.78.78 0 01-.35-.22.54.54 0 01-.1-.3V1.38a1.34 1.34 0 01.38-1.06 1.39 1.39 0 01.92-.32h6.99c.4 0 .7.05 1 .09a8.9 8.9 0 012.34.63 5.54 5.54 0 011.77 1.18 5 5 0 011.11 1.71 6.41 6.41 0 01.38 2.28 6.42 6.42 0 01-.28 2 5.11 5.11 0 01-.8 1.6 5.47 5.47 0 01-1.32 1.21 7.31 7.31 0 01-1.78.84 4.66 4.66 0 01.9.56 4.73 4.73 0 01.8.81 8.07 8.07 0 01.71 1.09 12.77 12.77 0 01.65 1.38l1.82 4.25a7.93 7.93 0 01.33.93 1.6 1.6 0 01.09.44zM35.17 6.37a3.23 3.23 0 00-.49-1.8 2.63 2.63 0 00-1.58-1 6.63 6.63 0 00-.76-.13 11.61 11.61 0 00-1.18 0h-2v6.03h2.23a5.41 5.41 0 001.64-.23 3.31 3.31 0 001.16-.63 2.57 2.57 0 00.7-1 3.27 3.27 0 00.28-1.24zM55.89 15.85a9.73 9.73 0 01-.33 2.64 4.64 4.64 0 01-1.15 2 5.09 5.09 0 01-2.11 1.26 10.33 10.33 0 01-3.23.44 9.71 9.71 0 01-1.21-.08 10.64 10.64 0 01-1.11-.19 7.67 7.67 0 01-.86-.25 1.67 1.67 0 01-.49-.24 1.51 1.51 0 01-.21-.23 1.13 1.13 0 01-.14-.31 1.82 1.82 0 01-.08-.47v-.72-1a2.65 2.65 0 01.1-.61c.05-.15.12-.68.21-.74a.56.56 0 01.33-.09 1 1 0 01.43.11l.55.22c.21.08.44.15.72.23a3.88 3.88 0 001 .1 3.58 3.58 0 001-.12 1.5 1.5 0 00.69-.43 2.16 2.16 0 00.42-.83 2.34 2.34 0 00.14-.91V.85a.38.38 0 01.14-.29.87.87 0 01.42-.21 4.39 4.39 0 01.83-.13h2.59a4.68 4.68 0 01.83.13.94.94 0 01.45.21.37.37 0 01.13.29zM8.16 38a.27.27 0 010 .16.25.25 0 01-.15.11 1.37 1.37 0 01-.29.07h-.9a1.54 1.54 0 01-.29-.07.25.25 0 01-.15-.11.22.22 0 010-.16v-.87a5.12 5.12 0 01-1.28 1 3 3 0 01-1.47.36A3 3 0 012 38.14a2.82 2.82 0 01-1-.93 3.87 3.87 0 01-.57-1.38 7.47 7.47 0 01-.18-1.66 6.89 6.89 0 01.23-1.89 4.09 4.09 0 01.65-1.43A2.93 2.93 0 012.22 30a3.32 3.32 0 011.48-.32 2.57 2.57 0 011.19.27 4.15 4.15 0 011.11.74v-4.26a.3.3 0 010-.16.5.5 0 01.17-.12 2 2 0 01.34-.07 4.06 4.06 0 01.54 0 4 4 0 01.54 0 1.68 1.68 0 01.33.07.46.46 0 01.18.12.24.24 0 01.05.16zM6 32.74a5 5 0 00-.91-.92 1.54 1.54 0 00-.91-.31 1.32 1.32 0 00-.75.21 1.66 1.66 0 00-.5.58 2.87 2.87 0 00-.28.81 4.53 4.53 0 00-.09.91 5 5 0 00.08 1 3.23 3.23 0 00.25.83 1.78 1.78 0 00.49.59 1.26 1.26 0 00.75.22 1.69 1.69 0 00.45-.07 1.64 1.64 0 00.42-.26 3.08 3.08 0 00.46-.39c.16-.16.33-.36.52-.59zM13.83 27.47a1.26 1.26 0 01-.28.93 1.5 1.5 0 01-1 .25 1.53 1.53 0 01-1-.24 1.7 1.7 0 010-1.82 1.46 1.46 0 011-.26 1.45 1.45 0 011 .25 1.17 1.17 0 01.28.89zM13.66 38a.25.25 0 01-.05.15.39.39 0 01-.19.12 1.8 1.8 0 01-.33.06 4.28 4.28 0 01-.54 0 4.19 4.19 0 01-.54 0 2.12 2.12 0 01-.34-.06.41.41 0 01-.18-.12.25.25 0 01-.05-.15v-7.85a.25.25 0 01.05-.15.41.41 0 01.18-.12 1.35 1.35 0 01.34-.07 4 4 0 01.54 0 4.06 4.06 0 01.54 0 1.17 1.17 0 01.33.07.39.39 0 01.19.12.25.25 0 01.05.15zM23.61 38a.23.23 0 01-.09.19.53.53 0 01-.27.1 4 4 0 01-.56 0 3.91 3.91 0 01-.58 0 .52.52 0 01-.26-.1.25.25 0 01-.07-.19v-.63a3.38 3.38 0 01-1.11.81 3.09 3.09 0 01-1.37.29 3.81 3.81 0 01-1.15-.16 2.63 2.63 0 01-.91-.48 2.28 2.28 0 01-.6-.8 2.75 2.75 0 01-.21-1.11 2.53 2.53 0 01.27-1.2 2.26 2.26 0 01.8-.83 3.92 3.92 0 011.33-.49 9.13 9.13 0 011.84-.16h.77v-.48a2.43 2.43 0 00-.08-.64 1.16 1.16 0 00-.24-.47 1.1 1.1 0 00-.46-.27 2.41 2.41 0 00-.71-.09 3.35 3.35 0 00-1 .13 5.27 5.27 0 00-.77.27c-.23.1-.41.19-.56.27a.86.86 0 01-.37.13.23.23 0 01-.17-.07.43.43 0 01-.12-.17 1 1 0 01-.08-.28 2.22 2.22 0 010-.37 1.66 1.66 0 01.05-.44.59.59 0 01.17-.28 1.38 1.38 0 01.43-.28 4.14 4.14 0 01.72-.29 7.41 7.41 0 01.9-.22 6.66 6.66 0 011-.08 6 6 0 011.58.18 2.64 2.64 0 011.08.56 2.19 2.19 0 01.62 1 4.47 4.47 0 01.19 1.4zm-2.17-3.37h-.85a4.84 4.84 0 00-.92.08 1.62 1.62 0 00-.61.24.91.91 0 00-.35.38 1.21 1.21 0 00-.11.52 1 1 0 00.31.77 1.25 1.25 0 00.87.28 1.61 1.61 0 00.86-.23 3.54 3.54 0 00.8-.7zM34 30.68a1.59 1.59 0 01-.09.62q-.11.21-.24.21h-.93A1.29 1.29 0 0133 32a1.73 1.73 0 01.08.56 3.16 3.16 0 01-.22 1.22 2.56 2.56 0 01-.66.89 2.93 2.93 0 01-1 .56 4.34 4.34 0 01-1.34.19 2.86 2.86 0 01-.73-.09 1.92 1.92 0 01-.53-.22 1.85 1.85 0 00-.19.27.86.86 0 00-.08.36.51.51 0 00.23.42 1.23 1.23 0 00.62.18l1.82.06a4.72 4.72 0 011.19.18 2.71 2.71 0 01.88.46 2.1 2.1 0 01.55.71 2.37 2.37 0 01.19 1 2.43 2.43 0 01-.26 1.09 2.49 2.49 0 01-.76.9 4.17 4.17 0 01-1.29.6 6.82 6.82 0 01-1.8.22 8.28 8.28 0 01-1.7-.21 4.08 4.08 0 01-1.16-.44 1.81 1.81 0 01-.67-.68 1.88 1.88 0 01-.2-.86 2 2 0 01.07-.55 2.31 2.31 0 01.22-.51 3 3 0 01.36-.46 3.28 3.28 0 01.48-.42 1.54 1.54 0 01-.58-.55 1.49 1.49 0 01-.21-.77 1.88 1.88 0 01.24-.94 2.84 2.84 0 01.62-.77 2.54 2.54 0 01-.5-.74 2.83 2.83 0 01-.18-1.08 3 3 0 01.24-1.23 2.66 2.66 0 01.67-.91 3.13 3.13 0 011-.58 4.27 4.27 0 011.33-.19 5.53 5.53 0 01.71 0 5.25 5.25 0 01.62.12h2.5c.1 0 .18.07.24.2a1.66 1.66 0 01.2.69zm-2.32 8.13a.7.7 0 00-.32-.61 1.73 1.73 0 00-.87-.23h-1.58a2.38 2.38 0 00-.36.32 1.15 1.15 0 00-.22.3.62.62 0 00-.11.27 1.24 1.24 0 000 .27.72.72 0 00.44.67 3.57 3.57 0 002.1.13 1.72 1.72 0 00.56-.27 1 1 0 00.3-.37 1.12 1.12 0 00.01-.48zm-.52-6.27a1.32 1.32 0 00-.36-1 1.34 1.34 0 00-1-.35 1.26 1.26 0 00-.57.11 1 1 0 00-.41.3 1.26 1.26 0 00-.25.44 1.81 1.81 0 00-.07.52 1.25 1.25 0 00.35 1 1.33 1.33 0 001 .35 1.5 1.5 0 00.58-.11 1.22 1.22 0 00.41-.29A1.14 1.14 0 0031 33a1.43 1.43 0 00.11-.46zM42 35.77a2.59 2.59 0 01-.25 1.23 2.25 2.25 0 01-.71.85 3 3 0 01-1.08.52 4.92 4.92 0 01-1.36.17 5.73 5.73 0 01-.84-.06 5.48 5.48 0 01-.72-.17 4.88 4.88 0 01-.53-.21 1 1 0 01-.3-.2.53.53 0 01-.15-.29A2.09 2.09 0 0136 37v-.41a1.22 1.22 0 010-.25.31.31 0 01.09-.12.28.28 0 01.13 0 .59.59 0 01.29.11l.47.24a5.41 5.41 0 00.66.25 3.13 3.13 0 00.85.11 2.15 2.15 0 00.53-.06 1.28 1.28 0 00.41-.18.73.73 0 00.26-.29.87.87 0 00.08-.4.68.68 0 00-.16-.46 1.68 1.68 0 00-.43-.33 5.08 5.08 0 00-.61-.26l-.57-.32a6.53 6.53 0 01-.7-.35 2.83 2.83 0 01-.61-.47 2.25 2.25 0 01-.43-.68 2.49 2.49 0 01-.16-1 2.4 2.4 0 01.22-1 2.34 2.34 0 01.63-.81 3.21 3.21 0 011-.52 4.62 4.62 0 011.34-.18 5.52 5.52 0 01.71.05 6.27 6.27 0 01.63.13 2.87 2.87 0 01.48.18l.28.15a.75.75 0 01.12.14.5.5 0 01.05.16v.23a3.22 3.22 0 010 .33v.39a1.19 1.19 0 010 .24c0 .06 0 .1-.09.12a.24.24 0 01-.12 0 .58.58 0 01-.25-.09 4.27 4.27 0 00-.42-.2 4.31 4.31 0 00-.58-.2 2.86 2.86 0 00-.75-.09 2 2 0 00-.52.06.87.87 0 00-.36.18.56.56 0 00-.21.27.71.71 0 00-.07.32.65.65 0 00.16.46 1.37 1.37 0 00.44.33 6.1 6.1 0 00.62.26l.71.27a6.44 6.44 0 01.7.34 2.69 2.69 0 01.63.48 2.25 2.25 0 01.6 1.6z"/>
    </g>
  </g>
</svg>
