<svg xmlns="http://www.w3.org/2000/svg" viewBox="0 0 81.89 52.78">
  <defs>
    <style>
      .cls-1{fill:#fff}
    </style>
  </defs>
  <g id="Calque_2" data-name="Calque 2">
    <g id="Calque_1-2" data-name="Calque 1">
      <path class="cls-1" d="M12.75 5.31a6.78 6.78 0 01-.46 2.6A4.91 4.91 0 0111 9.82 5.93 5.93 0 018.8 11a9.93 9.93 0 01-3 .41H4.34V17a.36.36 0 01-.09.24.57.57 0 01-.25.16 2 2 0 01-.54.11 6.78 6.78 0 01-.86 0 7 7 0 01-.86 0 2.21 2.21 0 01-.55-.11.54.54 0 01-.28-.17.41.41 0 01-.12-.23V1.27a1.26 1.26 0 01.33-.95A1.21 1.21 0 012 0h4.11c.41 0 .81 0 1.18.05a12.9 12.9 0 011.34.2 5.75 5.75 0 011.59.57 4.83 4.83 0 011.37 1.06 4.29 4.29 0 01.86 1.5 5.79 5.79 0 01.3 1.93zM9 5.56a3.1 3.1 0 00-.33-1.51 2.2 2.2 0 00-.79-.88 2.7 2.7 0 00-1-.36 9.48 9.48 0 00-1.08-.07H4.34v5.93h1.59a4 4 0 001.43-.23 2.53 2.53 0 00.94-.64 3 3 0 00.55-1A3.86 3.86 0 009 5.56zM37.47 17a.4.4 0 01-.07.24.5.5 0 01-.27.17 2 2 0 01-.52.11 6.37 6.37 0 01-.83 0 6.24 6.24 0 01-.81 0 2 2 0 01-.51-.11.5.5 0 01-.27-.17.41.41 0 01-.08-.24V2.77L29 17a.65.65 0 01-.18.29.87.87 0 01-.33.19 2.28 2.28 0 01-.53.08h-1.57a2.23 2.23 0 01-.53-.11 1 1 0 01-.33-.18.48.48 0 01-.16-.26L20.5 2.77V17a.4.4 0 01-.07.24.5.5 0 01-.28.17 2 2 0 01-.52.11 6.11 6.11 0 01-.82 0 6.24 6.24 0 01-.81 0 2 2 0 01-.52-.11.5.5 0 01-.27-.17.4.4 0 01-.07-.24V1.42a1.46 1.46 0 01.33-1.06 1.35 1.35 0 011-.36h2.32a4.81 4.81 0 011.07.1 2.15 2.15 0 01.77.34 2.05 2.05 0 01.54.62 4.28 4.28 0 01.37.95l3.76 10.41h.06L31.27 2a5.6 5.6 0 01.39-1 2.27 2.27 0 01.48-.63A1.62 1.62 0 0132.8.1a3.28 3.28 0 01.88-.1h2.39a2 2 0 01.63.09 1.28 1.28 0 01.43.28 1.1 1.1 0 01.25.45 1.8 1.8 0 01.09.6zM55.54 12.23a5.26 5.26 0 01-.26 1.69 4.51 4.51 0 01-.71 1.34 4.69 4.69 0 01-1.08 1 6.36 6.36 0 01-1.38.69 8.34 8.34 0 01-1.62.39 12.38 12.38 0 01-1.91.13h-4.64a1.12 1.12 0 01-.75-.26 1.06 1.06 0 01-.31-.86V1.12a1.06 1.06 0 01.31-.86 1.12 1.12 0 01.75-.26h4.39a11.78 11.78 0 012.72.27 5.25 5.25 0 011.87.82 3.55 3.55 0 011.17 1.38 4.5 4.5 0 01.41 2 4.24 4.24 0 01-.17 1.2 3.39 3.39 0 01-.47 1 3.87 3.87 0 01-.76.81 3.93 3.93 0 01-1 .56 4.55 4.55 0 011.37.48 3.81 3.81 0 011.09.87 4 4 0 01.74 1.25 4.47 4.47 0 01.24 1.59zm-4.6-7.36a2.54 2.54 0 00-.16-.94 1.83 1.83 0 00-.48-.7 2.35 2.35 0 00-.82-.42 4.7 4.7 0 00-1.32-.15h-1.79V7.2h2a3.24 3.24 0 001.21-.2 1.94 1.94 0 00.76-.5 1.89 1.89 0 00.46-.74 2.93 2.93 0 00.14-.89zm.91 7.48a2.85 2.85 0 00-.2-1.08 2.2 2.2 0 00-.6-.81 2.84 2.84 0 00-1-.5 6.13 6.13 0 00-1.58-.17h-2.1v5h2.56a4.08 4.08 0 001.25-.16 2.39 2.39 0 00.88-.46 2 2 0 00.58-.75 2.44 2.44 0 00.21-1.07zM2.41 41.88a.58.58 0 00-.22-.46 1.7 1.7 0 00-.78-.32 2.76 2.76 0 01-1-.38A.81.81 0 01.1 40a.91.91 0 01.36-.72 1.45 1.45 0 011-.3 1.5 1.5 0 011 .32.94.94 0 01.36.78h-.44a.67.67 0 00-.26-.54 1.05 1.05 0 00-.7-.23 1 1 0 00-.68.2.61.61 0 00-.23.49.53.53 0 00.2.42 1.73 1.73 0 00.78.3 2.42 2.42 0 011 .41.81.81 0 01.34.7.9.9 0 01-.38.75 1.55 1.55 0 01-1 .3 1.61 1.61 0 01-1.07-.33.93.93 0 01-.38-.74h.39a.64.64 0 00.33.58 1.29 1.29 0 00.72.19 1.15 1.15 0 00.71-.2.62.62 0 00.26-.5zM7.07 41.07a2.13 2.13 0 01-.38 1.34 1.25 1.25 0 01-1.05.5 1.45 1.45 0 01-.64-.15 1.33 1.33 0 01-.49-.42v1.93h-.45v-5.18h.32l.07.58a1.5 1.5 0 01.49-.48 1.42 1.42 0 01.7-.17 1.21 1.21 0 011.05.54A2.4 2.4 0 017.07 41zM6.66 41a2.14 2.14 0 00-.29-1.16.9.9 0 00-.83-.45 1.09 1.09 0 00-.67.2 1.27 1.27 0 00-.4.51v1.8a1.1 1.1 0 00.42.48 1.14 1.14 0 00.66.18 1 1 0 00.83-.41 1.92 1.92 0 00.28-1.08zM9.71 42.91a1.52 1.52 0 01-1.18-.52 1.92 1.92 0 01-.45-1.32v-.19a1.92 1.92 0 01.46-1.33A1.44 1.44 0 019.67 39a1.32 1.32 0 011.06.44 1.79 1.79 0 01.37 1.18V41H8.49v.11a1.71 1.71 0 00.33 1.07 1.05 1.05 0 00.89.42 1.61 1.61 0 00.63-.12 1.31 1.31 0 00.48-.3l.17.29a1.62 1.62 0 01-.51.34 2 2 0 01-.77.1zm0-3.54a1 1 0 00-.78.35 1.38 1.38 0 00-.36.86h2.14v-.09a1.22 1.22 0 00-.26-.82.89.89 0 00-.78-.3zm.44-1.87h.51l-.86.9h-.4zM13.59 42.56a1.1 1.1 0 00.7-.24.76.76 0 00.31-.65h.4a1.07 1.07 0 01-.41.87 1.51 1.51 0 01-1 .35 1.42 1.42 0 01-1.17-.53A2.15 2.15 0 0112 41v-.14a2.12 2.12 0 01.41-1.34 1.42 1.42 0 011.18-.52 1.44 1.44 0 011 .36 1.19 1.19 0 01.39 1h-.38a.92.92 0 00-.3-.72 1 1 0 00-.71-.27 1 1 0 00-.88.44 1.91 1.91 0 00-.29 1.08V41a2 2 0 00.29 1.1 1 1 0 00.88.46zM16.61 38h-.41v-.58h.41zm0 4.81h-.41v-3.72h.41zM20.41 42.83c0-.13 0-.24-.06-.34a2.71 2.71 0 010-.29 1.51 1.51 0 01-.55.51 1.61 1.61 0 01-.8.2 1.14 1.14 0 01-.85-.3 1.05 1.05 0 01-.31-.79 1 1 0 01.44-.81 2 2 0 011.15-.31h.92v-.47a.8.8 0 00-.26-.63 1.05 1.05 0 00-.72-.23 1 1 0 00-.68.21.62.62 0 00-.26.52H18a.89.89 0 01.37-.74 1.49 1.49 0 011-.32 1.47 1.47 0 011 .32 1.11 1.11 0 01.38.9v1.84a2.36 2.36 0 000 .38c0 .13 0 .25.07.37zM19 42.54a1.49 1.49 0 00.82-.23 1.17 1.17 0 00.48-.58V41h-.93a1.38 1.38 0 00-.83.24.71.71 0 00-.33.58.67.67 0 00.21.52.81.81 0 00.58.2zM22.6 42.83h-.41v-5.39h.41zM24.49 38h-.41v-.58h.41zm0 4.81h-.41v-3.72h.41zM28.16 41.88a.6.6 0 00-.21-.46 1.8 1.8 0 00-.78-.32 2.61 2.61 0 01-1-.38.79.79 0 01-.32-.68.91.91 0 01.36-.72 1.44 1.44 0 011-.3 1.5 1.5 0 011 .32.94.94 0 01.36.78h-.38a.68.68 0 00-.27-.54 1 1 0 00-.7-.23 1 1 0 00-.67.2.58.58 0 00-.23.46.52.52 0 00.19.42 1.73 1.73 0 00.78.3 2.53 2.53 0 011 .41.83.83 0 01.33.7.89.89 0 01-.37.75 1.88 1.88 0 01-2.08 0 .93.93 0 01-.37-.77h.38a.69.69 0 00.33.58 1.34 1.34 0 00.72.19 1.15 1.15 0 00.71-.2.59.59 0 00.22-.51zM30.46 38.13v1h.82v.34h-.82v2.44a.79.79 0 00.13.52.46.46 0 00.36.15h.31l.07.3-.21.07h-.24a.8.8 0 01-.62-.25 1.22 1.22 0 01-.22-.79v-2.48h-.65v-.34H30v-1zM33.8 42.91a1.52 1.52 0 01-1.18-.52 1.92 1.92 0 01-.45-1.32v-.19a1.92 1.92 0 01.46-1.33 1.44 1.44 0 011.13-.55 1.32 1.32 0 011.06.44 1.79 1.79 0 01.37 1.18V41h-2.61v.11a1.71 1.71 0 00.33 1.07 1.05 1.05 0 00.89.42 1.61 1.61 0 00.63-.12 1.31 1.31 0 00.48-.3l.17.29a1.62 1.62 0 01-.51.34 2 2 0 01-.77.1zm0-3.54a1 1 0 00-.78.35 1.38 1.38 0 00-.36.86h2.14v-.09a1.22 1.22 0 00-.26-.82.89.89 0 00-.78-.3zM38.55 41.88a.58.58 0 00-.22-.46 1.7 1.7 0 00-.78-.32 2.62 2.62 0 01-1-.38.8.8 0 01-.33-.68.91.91 0 01.36-.72 1.47 1.47 0 011-.3 1.5 1.5 0 011 .32.94.94 0 01.36.78h-.38a.68.68 0 00-.27-.54 1.22 1.22 0 00-1.38 0 .61.61 0 00-.23.46.53.53 0 00.2.42 1.73 1.73 0 00.78.3 2.53 2.53 0 011 .41.83.83 0 01.33.7.88.88 0 01-.38.75 1.55 1.55 0 01-1 .3 1.61 1.61 0 01-1.07-.33.93.93 0 01-.37-.77h.38a.69.69 0 00.33.58 1.29 1.29 0 00.72.19 1.15 1.15 0 00.71-.2.62.62 0 00.24-.51zM42 41a2.47 2.47 0 01.38-1.43 1.24 1.24 0 011.1-.57 1.3 1.3 0 01.67.16 1.25 1.25 0 01.48.46v-2.2h.42v5.39h-.34l-.06-.54a1.4 1.4 0 01-.48.46 1.54 1.54 0 01-.7.16 1.27 1.27 0 01-1-.5 2.2 2.2 0 01-.47-1.32zm.42.08a1.92 1.92 0 00.27 1.08 1 1 0 00.82.4 1.11 1.11 0 001.08-.67V40.1a1.28 1.28 0 00-.4-.52 1.09 1.09 0 00-.67-.2.89.89 0 00-.82.45 2.14 2.14 0 00-.24 1.17zM47.86 42.91a1.5 1.5 0 01-1.18-.52 1.92 1.92 0 01-.45-1.32v-.19a2 2 0 01.45-1.33 1.47 1.47 0 011.14-.55 1.3 1.3 0 011 .44 1.74 1.74 0 01.38 1.18V41h-2.56v.11a1.76 1.76 0 00.36 1.03 1.08 1.08 0 00.9.42 1.61 1.61 0 00.63-.12 1.31 1.31 0 00.48-.3l.17.29a1.62 1.62 0 01-.51.34 2 2 0 01-.81.14zm0-3.54a1 1 0 00-.78.35 1.44 1.44 0 00-.37.86h2.14v-.09a1.28 1.28 0 00-.26-.82.89.89 0 00-.77-.3zM52.84 42.83h-.41v-5.39h.41zM54 40.91a2 2 0 01.46-1.36 1.62 1.62 0 012.4 0 2 2 0 01.46 1.36V41a2 2 0 01-.46 1.36 1.62 1.62 0 01-2.4 0A2 2 0 0154 41zm.42.11a1.77 1.77 0 00.33 1.09 1.07 1.07 0 00.92.45 1.06 1.06 0 00.9-.45 1.77 1.77 0 00.36-1.11v-.11a1.79 1.79 0 00-.33-1.09 1.15 1.15 0 00-1.82 0 1.79 1.79 0 00-.33 1.09zM58.35 41a2.47 2.47 0 01.37-1.43 1.24 1.24 0 011.06-.57 1.36 1.36 0 01.69.17 1.44 1.44 0 01.49.49l.06-.59h.33v3.77A1.49 1.49 0 0161 44a1.53 1.53 0 01-1.12.39 3.15 3.15 0 01-.58-.07 1.94 1.94 0 01-.53-.18l.08-.35a2.48 2.48 0 00.48.17 2.35 2.35 0 00.54.06 1.1 1.1 0 00.83-.29 1.17 1.17 0 00.27-.83v-.54a1.2 1.2 0 01-.48.44 1.44 1.44 0 01-.67.15 1.26 1.26 0 01-1.06-.51 2.16 2.16 0 01-.37-1.33zm.41.08a1.84 1.84 0 00.24 1.07.93.93 0 00.81.4 1.17 1.17 0 00.67-.18 1.1 1.1 0 00.41-.49v-1.79a1.19 1.19 0 00-.4-.51 1.09 1.09 0 00-.67-.2.9.9 0 00-.82.45 2.14 2.14 0 00-.24 1.17zM63.19 38h-.42v-.58h.42zm0 4.81h-.42v-3.72h.42zM66 42.56a1.1 1.1 0 00.7-.24.79.79 0 00.31-.65h.37a1 1 0 01-.41.87 1.48 1.48 0 01-1 .35 1.42 1.42 0 01-1.17-.53 2.09 2.09 0 01-.4-1.36v-.14a2.07 2.07 0 01.42-1.34A1.4 1.4 0 0166 39a1.47 1.47 0 011 .36 1.22 1.22 0 01.38 1H67a.92.92 0 00-.3-.72 1 1 0 00-.72-.27 1 1 0 00-.87.44 1.91 1.91 0 00-.29 1.08V41a2 2 0 00.29 1.1 1 1 0 00.89.46zM69 38h-.4v-.58h.4zm0 4.81h-.4v-3.72h.4zM71.86 42.91a1.52 1.52 0 01-1.18-.52 1.92 1.92 0 01-.45-1.32v-.19a1.92 1.92 0 01.46-1.33 1.44 1.44 0 011.13-.55 1.32 1.32 0 011.06.44 1.74 1.74 0 01.37 1.18V41h-2.61v.11a1.71 1.71 0 00.36 1.03 1.05 1.05 0 00.89.42 1.61 1.61 0 00.63-.12 1.31 1.31 0 00.48-.3l.18.29a1.8 1.8 0 01-.52.34 2 2 0 01-.8.14zm0-3.54a1 1 0 00-.78.35 1.38 1.38 0 00-.36.86h2.14v-.09a1.22 1.22 0 00-.26-.82.89.89 0 00-.78-.3zM74.83 42.83h-.41v-5.39h.41zM78.5 41.88a.6.6 0 00-.21-.46 1.8 1.8 0 00-.78-.32 2.76 2.76 0 01-1-.38.79.79 0 01-.31-.72.91.91 0 01.36-.72 1.44 1.44 0 011-.3 1.48 1.48 0 011 .32.94.94 0 01.36.78h-.38a.7.7 0 00-.26-.54 1.06 1.06 0 00-.71-.23 1 1 0 00-.67.2.58.58 0 00-.23.46.52.52 0 00.19.42 1.73 1.73 0 00.78.3 2.53 2.53 0 011 .41.84.84 0 01.34.7.9.9 0 01-.38.75 1.57 1.57 0 01-1 .3 1.62 1.62 0 01-1.08-.33.92.92 0 01-.36-.77h.38a.69.69 0 00.33.58 1.35 1.35 0 00.73.19 1.17 1.17 0 00.71-.2.61.61 0 00.19-.44zM.52 47.59v.62A1.31 1.31 0 011 47.7a1.34 1.34 0 01.71-.18 1.17 1.17 0 01.71.21 1.16 1.16 0 01.42.63 1.34 1.34 0 01.48-.61 1.27 1.27 0 01.76-.23 1.15 1.15 0 01.92.4 1.92 1.92 0 01.33 1.23v2.19H5v-2.19a1.55 1.55 0 00-.24-1 .86.86 0 00-.76-.27 1 1 0 00-.74.29 1.39 1.39 0 00-.32.75v2.42h-.39v-2.19a1.45 1.45 0 00-.25-1 .83.83 0 00-.68-.3 1.06 1.06 0 00-.69.22 1.21 1.21 0 00-.36.6v2.64H.15v-3.72zM8.15 51.41A1.51 1.51 0 017 50.9a2 2 0 01-.45-1.32v-.19A2 2 0 017 48.05a1.44 1.44 0 011.13-.53 1.32 1.32 0 011.04.48 1.76 1.76 0 01.37 1.18v.32H6.93v.12a1.68 1.68 0 00.33 1.06 1.05 1.05 0 00.89.42 1.81 1.81 0 00.63-.1 1.63 1.63 0 00.48-.3l.18.28a1.62 1.62 0 01-.52.34 2 2 0 01-.77.09zm0-3.53a1 1 0 00-.78.34 1.43 1.43 0 00-.36.87h2.12V49a1.25 1.25 0 00-.27-.82.88.88 0 00-.75-.3zm.4-1.88h.51l-.86.9h-.36zM11.31 46.64v1h.82v.34h-.82v2.44a.78.78 0 00.13.52.44.44 0 00.36.16H12.11l.06.31a.8.8 0 01-.2.06 1.07 1.07 0 01-.25 0 .76.76 0 01-.61-.25 1.17 1.17 0 01-.22-.79v-2.5h-.65v-.34h.65v-1zM13.69 46.52h-.41v-.58h.41zm0 4.82h-.41v-3.75h.41zM16.54 51.41a1.51 1.51 0 01-1.18-.51 2 2 0 01-.45-1.32v-.19a2 2 0 01.46-1.34 1.44 1.44 0 011.13-.53 1.32 1.32 0 011.06.44 1.81 1.81 0 01.37 1.18v.32h-2.61v.12a1.68 1.68 0 00.33 1.06 1.05 1.05 0 00.89.42 1.81 1.81 0 00.63-.11 1.63 1.63 0 00.48-.3l.17.28a1.47 1.47 0 01-.51.34 2 2 0 01-.77.14zm0-3.53a1 1 0 00-.78.34 1.43 1.43 0 00-.36.87h2.14V49a1.24 1.24 0 00-.26-.82.88.88 0 00-.78-.3zM20.76 48h-.3a.92.92 0 00-.64.22 1.29 1.29 0 00-.36.6v2.59h-.41v-3.82h.36l.05.63a1.4 1.4 0 01.44-.54 1.09 1.09 0 01.65-.2h.26zM24 50.38a.6.6 0 00-.21-.46 1.8 1.8 0 00-.79-.32 2.52 2.52 0 01-1-.38.77.77 0 01-.32-.67.91.91 0 01.36-.73 1.44 1.44 0 01.95-.3 1.5 1.5 0 011 .32.94.94 0 01.36.78H24a.7.7 0 00-.26-.53 1 1 0 00-.71-.23 1 1 0 00-.67.19.59.59 0 00-.23.46.53.53 0 00.19.43 1.88 1.88 0 00.78.29 2.69 2.69 0 011 .41.85.85 0 01.34.7.93.93 0 01-.38.76 1.65 1.65 0 01-1 .29 1.67 1.67 0 01-1.06-.3.91.91 0 01-.36-.78H22a.7.7 0 00.33.59 1.44 1.44 0 00.73.18 1.12 1.12 0 00.7-.2.57.57 0 00.24-.5zM30.67 49.57a2.11 2.11 0 01-.39 1.34 1.24 1.24 0 01-1 .5 1.52 1.52 0 01-.69-.15 1.22 1.22 0 01-.48-.42v1.94h-.42v-5.19H28l.08.59a1.23 1.23 0 01.48-.48 1.33 1.33 0 01.7-.18 1.21 1.21 0 011.05.54 2.41 2.41 0 01.39 1.44zm-.42-.07a2.16 2.16 0 00-.25-1.17.93.93 0 00-.83-.45 1.12 1.12 0 00-.68.2 1.25 1.25 0 00-.39.51v1.82a1.13 1.13 0 00.41.48 1.24 1.24 0 00.66.17 1 1 0 00.83-.41 1.84 1.84 0 00.28-1.08zM31.65 49.41a2 2 0 01.45-1.36 1.62 1.62 0 012.4 0 2 2 0 01.5 1.36v.11a2 2 0 01-.45 1.36 1.63 1.63 0 01-2.41 0 2 2 0 01-.45-1.36zm.41.11a1.8 1.8 0 00.33 1.1 1.17 1.17 0 001.83 0 1.8 1.8 0 00.33-1.1v-.11a1.73 1.73 0 00-.34-1.09 1.16 1.16 0 00-1.82 0 1.79 1.79 0 00-.33 1.09zM38.56 50.73a1.18 1.18 0 01-.49.5 1.36 1.36 0 01-.71.18 1.13 1.13 0 01-.93-.4 1.94 1.94 0 01-.34-1.25v-2.17h.42v2.18a1.64 1.64 0 00.23 1 .81.81 0 00.67.3 1.2 1.2 0 00.74-.21 1.05 1.05 0 00.39-.57v-2.7H39v3.75h-.37zM42 48h-.29a.92.92 0 00-.64.22 1.21 1.21 0 00-.36.6v2.59h-.41v-3.82h.36v.63a1.31 1.31 0 01.44-.54 1.09 1.09 0 01.65-.2h.26zM45.51 51.34h-.41v-5.4h.41zM48.36 51.41a1.51 1.51 0 01-1.18-.51 2 2 0 01-.45-1.32v-.19a2 2 0 01.45-1.34 1.47 1.47 0 011.14-.53 1.32 1.32 0 011.06.44 1.81 1.81 0 01.37 1.18v.32h-2.61v.12a1.73 1.73 0 00.32 1.06 1.08 1.08 0 00.9.42A1.81 1.81 0 0049 51a1.63 1.63 0 00.48-.3l.17.28a1.47 1.47 0 01-.51.34 2 2 0 01-.78.09zm0-3.53a1 1 0 00-.78.34 1.43 1.43 0 00-.36.87h2.14V49a1.24 1.24 0 00-.26-.82.88.88 0 00-.78-.3zM55.89 49.57a2.11 2.11 0 01-.38 1.34 1.25 1.25 0 01-1 .5 1.42 1.42 0 01-.7-.16 1.3 1.3 0 01-.49-.47l-.07.56h-.32v-5.4h.41v2.23a1.3 1.3 0 01.48-.48 1.36 1.36 0 01.69-.17 1.21 1.21 0 011 .54 2.41 2.41 0 01.38 1.44zm-.42-.07a2.25 2.25 0 00-.27-1.17.91.91 0 00-.82-.45 1.1 1.1 0 00-.7.21 1.31 1.31 0 00-.39.55v1.71a1.1 1.1 0 00.41.51 1.14 1.14 0 00.68.19.91.91 0 00.82-.4 1.92 1.92 0 00.27-1.08zM59.47 51.34V51a1.42 1.42 0 010-.29 1.49 1.49 0 01-.55.5 1.61 1.61 0 01-.8.2 1.18 1.18 0 01-.85-.29 1.08 1.08 0 01-.31-.8 1 1 0 01.44-.81 2 2 0 011.15-.31h.92v-.46a.8.8 0 00-.26-.63 1 1 0 00-.72-.23 1 1 0 00-.68.21.61.61 0 00-.26.52h-.39a.88.88 0 01.36-.75 1.5 1.5 0 011-.32 1.44 1.44 0 011 .32 1.11 1.11 0 01.38.9v2.23a2.45 2.45 0 00.08.37zM58.1 51a1.48 1.48 0 00.82-.22 1.15 1.15 0 00.48-.59v-.71h-.93a1.38 1.38 0 00-.83.24.7.7 0 00-.33.58.66.66 0 00.21.51.81.81 0 00.58.19zm1.3-4.19v.06H59l-.58-.58-.57.58h-.38v-.07l.78-.77h.34zM61.84 46.64v1h.83v.34h-.83v2.44a.77.77 0 00.14.52.42.42 0 00.35.16h.32l.06.31a1.05 1.05 0 01-.21.06h-.24a.79.79 0 01-.62-.25 1.22 1.22 0 01-.22-.79v-2.5h-.64v-.34h.64v-1zM64.22 46.52h-.41v-.58h.41zm0 4.82h-.41v-3.75h.41zM66 47.59v.62a1.31 1.31 0 01.48-.51 1.36 1.36 0 01.71-.18 1.18 1.18 0 01.72.21 1.15 1.15 0 01.41.63 1.41 1.41 0 01.48-.61 1.27 1.27 0 01.76-.23 1.16 1.16 0 01.93.4 2 2 0 01.32 1.23v2.19h-.41v-2.19a1.48 1.48 0 00-.25-1 .85.85 0 00-.68-.29.94.94 0 00-.73.29 1.48 1.48 0 00-.33.75v2.45H68v-2.2a1.51 1.51 0 00-.25-1 .84.84 0 00-.68-.3 1.06 1.06 0 00-.69.22 1.16 1.16 0 00-.37.6v2.64h-.41v-3.72zM73.64 51.41a1.49 1.49 0 01-1.18-.51 2 2 0 01-.46-1.32v-.19a2 2 0 01.45-1.34 1.47 1.47 0 011.14-.53 1.3 1.3 0 011.05.44 1.76 1.76 0 01.36 1.18v.32h-2.58v.12a1.73 1.73 0 00.32 1.06 1.08 1.08 0 00.9.42 1.81 1.81 0 00.63-.11 1.63 1.63 0 00.48-.3l.17.28a1.47 1.47 0 01-.51.34 2 2 0 01-.77.14zm0-3.53a1 1 0 00-.78.34 1.43 1.43 0 00-.36.87h2.14V49a1.3 1.3 0 00-.26-.82.88.88 0 00-.78-.3zM76.51 47.59v.65a1.47 1.47 0 01.49-.53 1.38 1.38 0 01.72-.19 1.15 1.15 0 01.93.38 1.75 1.75 0 01.35 1.16v2.28h-.42v-2.28a1.36 1.36 0 00-.24-.91.87.87 0 00-.68-.27 1.11 1.11 0 00-.71.22 1.18 1.18 0 00-.4.59v2.65h-.41v-3.75zM81 46.64v1h.83v.34H81v2.44a.77.77 0 00.14.52.41.41 0 00.35.16h.31l.07.31a1.05 1.05 0 01-.21.06h-.24a.77.77 0 01-.62-.25 1.22 1.22 0 01-.22-.79v-2.5H80v-.34h.64v-1zM5.19 29.28a2.12 2.12 0 01-.22 1 1.92 1.92 0 01-.59.71 2.66 2.66 0 01-.91.44 4.54 4.54 0 01-1.13.14 5.39 5.39 0 01-.71 0 4.38 4.38 0 01-.6-.15 2.39 2.39 0 01-.44-.17.83.83 0 01-.26-.25.46.46 0 01-.13-.24 2 2 0 010-.49 3.23 3.23 0 010-.34.81.81 0 010-.21s0-.09.07-.1a.2.2 0 01.11 0 .51.51 0 01.24.09c.11.07.24.13.4.21a4.3 4.3 0 00.55.2 2.21 2.21 0 00.71.1 2 2 0 00.45-.05 1.52 1.52 0 00.36-.17.61.61 0 00.21-.24.74.74 0 00.08-.34.56.56 0 00-.14-.38 1.15 1.15 0 00-.36-.28 4.11 4.11 0 00-.51-.22l-.58-.23A4.6 4.6 0 011.2 28a2.2 2.2 0 01-.51-.4 1.69 1.69 0 01-.36-.56 2.17 2.17 0 01-.13-.8 2.08 2.08 0 01.18-.87 1.82 1.82 0 01.53-.67 2.45 2.45 0 01.85-.44 3.84 3.84 0 011.12-.15 4 4 0 01.6 0 5.2 5.2 0 01.52.11 3.6 3.6 0 01.4.14 1.93 1.93 0 01.24.14.23.23 0 01.09.11.5.5 0 010 .13 1 1 0 010 .19 2.19 2.19 0 010 .29 2.58 2.58 0 010 .32.53.53 0 010 .2.2.2 0 01-.07.1.19.19 0 01-.1 0 .51.51 0 01-.21-.08L4 25.69a3.53 3.53 0 00-.49-.16 2.35 2.35 0 00-.63-.08 1.9 1.9 0 00-.44.05 1.05 1.05 0 00-.3.15.63.63 0 00-.18.22.66.66 0 00-.05.28.51.51 0 00.14.38 1.15 1.15 0 00.36.28A4.46 4.46 0 003 27l.59.22c.19.09.39.18.59.29a2.49 2.49 0 01.52.4 1.69 1.69 0 01.3.59 1.87 1.87 0 01.19.78zM14.11 27.78a5 5 0 01-.22 1.54 3.23 3.23 0 01-.67 1.19 2.94 2.94 0 01-1.13.78 4.27 4.27 0 01-1.59.27 4.37 4.37 0 01-1.5-.24 2.69 2.69 0 01-1.71-1.86 5.19 5.19 0 01-.21-1.55 4.92 4.92 0 01.22-1.53 3.21 3.21 0 01.7-1.2 3 3 0 011.12-.77 4.27 4.27 0 011.59-.27 4.39 4.39 0 011.53.24 2.77 2.77 0 011.08.7 3 3 0 01.63 1.14 5.73 5.73 0 01.16 1.56zm-1.91.08a4.19 4.19 0 00-.08-.9 1.94 1.94 0 00-.26-.71 1.33 1.33 0 00-.49-.48 1.76 1.76 0 00-1.49 0 1.21 1.21 0 00-.51.44 2 2 0 00-.3.7 3.73 3.73 0 00-.1.93 4.94 4.94 0 00.08.9 2.14 2.14 0 00.26.71 1.3 1.3 0 00.49.47 1.65 1.65 0 00.77.17 1.67 1.67 0 00.73-.15 1.36 1.36 0 00.51-.44 2.35 2.35 0 00.3-.7 4.38 4.38 0 00.09-.94zM18.67 25.81v5.33a.2.2 0 010 .13.27.27 0 01-.15.09 1.45 1.45 0 01-.29.06h-.9a1.33 1.33 0 01-.28-.06.27.27 0 01-.15-.09.2.2 0 010-.13v-5.33H16c-.09 0-.16-.06-.21-.17a1.92 1.92 0 01-.07-.58 3.53 3.53 0 010-.36 1.11 1.11 0 010-.24.27.27 0 01.09-.12.28.28 0 01.13 0h.82v-.56a4.5 4.5 0 01.24-1.2 2.32 2.32 0 01.41-.85 1.76 1.76 0 01.72-.5 2.92 2.92 0 011-.17 3.55 3.55 0 01.57.05 3.77 3.77 0 01.4.1l.19.1a.47.47 0 01.08.14 1.19 1.19 0 010 .24v.36a2.82 2.82 0 010 .34.77.77 0 010 .2.2.2 0 01-.07.1h-.19l-.15-.06-.21-.05a1.32 1.32 0 00-.3 0 .9.9 0 00-.34.06.58.58 0 00-.24.2 1.23 1.23 0 00-.14.36 2.66 2.66 0 000 .53v.61h2.49v-1.5a.24.24 0 01.05-.14.33.33 0 01.14-.1 1.55 1.55 0 01.29-.05 2.89 2.89 0 01.44 0 2.83 2.83 0 01.45 0 1.55 1.55 0 01.29.05.48.48 0 01.15.1.23.23 0 010 .14v1.47h1.43a.25.25 0 01.13 0 .4.4 0 01.1.12 1.11 1.11 0 01.05.24 3.53 3.53 0 010 .36 1.64 1.64 0 01-.07.58.24.24 0 01-.22.17H23v3.12a1.58 1.58 0 00.17.81.65.65 0 00.61.27L24 30l.21-.06.15-.06h.12a.11.11 0 01.08 0s0 .05.07.1a2 2 0 010 .21 3 3 0 010 .34 2.17 2.17 0 010 .5.53.53 0 01-.11.25.87.87 0 01-.2.12 1.54 1.54 0 01-.3.09l-.37.07h-.4a3.06 3.06 0 01-1-.14 1.65 1.65 0 01-.67-.43 1.75 1.75 0 01-.39-.74 3.58 3.58 0 01-.13-1.05v-3.39zM37 24.54a.81.81 0 010 .2 3 3 0 01-.08.34l-1.76 6a.53.53 0 01-.09.2.41.41 0 01-.18.12 1.31 1.31 0 01-.35.06h-1.19a1.77 1.77 0 01-.35-.07.39.39 0 01-.19-.12.56.56 0 01-.09-.19l-1.11-4V27v.07l-1 4a.53.53 0 01-.09.2.39.39 0 01-.19.12 1.49 1.49 0 01-.36.06h-1.22a2.08 2.08 0 01-.36-.07.44.44 0 01-.19-.12.84.84 0 01-.09-.19l-1.74-6a2.51 2.51 0 01-.08-.33 2.06 2.06 0 010-.21.2.2 0 010-.13.49.49 0 01.15-.09 1.68 1.68 0 01.29 0H27.66a1 1 0 01.29 0 .26.26 0 01.14.1.34.34 0 01.06.15l1.31 4.83v.09-.09l1.23-4.83a.26.26 0 01.07-.15.26.26 0 01.14-.1.81.81 0 01.27 0h.89a1.46 1.46 0 01.27 0 .28.28 0 01.14.09l.06.13 1.31 4.87v.08-.09l1.26-4.83a.25.25 0 01.05-.15.28.28 0 01.15-.1.94.94 0 01.28 0h1.17a.42.42 0 01.14.09.28.28 0 01.11.14zM44.53 31.16a.19.19 0 01-.08.16.5.5 0 01-.23.09 5.65 5.65 0 01-.95 0 .5.5 0 01-.22-.09.21.21 0 01-.06-.16v-.52a3.18 3.18 0 01-.92.68 2.77 2.77 0 01-1.16.24 3.22 3.22 0 01-1-.14 2 2 0 01-.76-.4 1.76 1.76 0 01-.5-.67 2.27 2.27 0 01-.18-.93 2.11 2.11 0 01.23-1 1.8 1.8 0 01.67-.7 3.29 3.29 0 011.11-.41 7.83 7.83 0 011.54-.13h.64v-.4a2.12 2.12 0 00-.06-.54.82.82 0 00-.21-.39.84.84 0 00-.38-.23 2 2 0 00-.59-.07 3 3 0 00-.83.1 4.07 4.07 0 00-.65.23 5.21 5.21 0 00-.47.23.65.65 0 01-.3.1.25.25 0 01-.15-.05A.56.56 0 0139 26a.7.7 0 01-.06-.24 1.42 1.42 0 010-.31 1.63 1.63 0 010-.36.49.49 0 01.14-.24 1.32 1.32 0 01.36-.23 3.53 3.53 0 01.61-.24 4.12 4.12 0 01.75-.18 4.8 4.8 0 01.85-.07 5.05 5.05 0 011.32.15 2.23 2.23 0 01.91.46 1.79 1.79 0 01.51.81 3.7 3.7 0 01.17 1.17zm-1.83-2.82H42a3.37 3.37 0 00-.77.07 1.38 1.38 0 00-.52.2.8.8 0 00-.29.32 1 1 0 00-.09.43.81.81 0 00.26.65 1 1 0 00.73.24 1.39 1.39 0 00.72-.2 3.15 3.15 0 00.66-.59zM51.48 25.17v.43a1.19 1.19 0 010 .27.26.26 0 01-.07.13.2.2 0 01-.13 0h-.35l-.21-.06h-.24a.85.85 0 00-.31.06 1.28 1.28 0 00-.32.2 1.92 1.92 0 00-.35.35 6.24 6.24 0 00-.39.55v4.1a.2.2 0 010 .13.27.27 0 01-.15.09 1.45 1.45 0 01-.29.06h-.9a1.49 1.49 0 01-.28-.06.27.27 0 01-.15-.09.21.21 0 010-.13v-6.64a.25.25 0 010-.13.25.25 0 01.13-.09.83.83 0 01.25-.06h.77a.59.59 0 01.24.06.19.19 0 01.12.09.18.18 0 010 .13v.82a5 5 0 01.49-.61 2.79 2.79 0 01.43-.38 1.34 1.34 0 01.42-.2 1.4 1.4 0 01.41-.05h.44l.2.06a.5.5 0 01.13.07.33.33 0 01.06.08.86.86 0 010 .13v.23zM59.41 27.66a.73.73 0 01-.15.5.53.53 0 01-.41.16h-4a2.54 2.54 0 00.1.76 1.47 1.47 0 00.32.59 1.29 1.29 0 00.56.36 2.24 2.24 0 00.82.13 4.47 4.47 0 00.86-.07 5.74 5.74 0 00.63-.16l.45-.15a.75.75 0 01.29-.07h.11a.2.2 0 01.07.1.4.4 0 010 .18 2.54 2.54 0 010 .31v.28a1 1 0 010 .19.29.29 0 010 .14.38.38 0 01-.06.09 1 1 0 01-.26.14 4.41 4.41 0 01-.54.17 6.82 6.82 0 01-.76.15 6.67 6.67 0 01-.92.06 4.77 4.77 0 01-1.54-.22 2.72 2.72 0 01-1.1-.67 2.68 2.68 0 01-.66-1.14 5.76 5.76 0 010-3.19 3.32 3.32 0 01.66-1.2 3.1 3.1 0 011.06-.75 4.18 4.18 0 012.82 0 2.5 2.5 0 011 .68 2.53 2.53 0 01.56 1 4.36 4.36 0 01.17 1.28zm-1.8-.53a1.88 1.88 0 00-.31-1.23 1.21 1.21 0 00-1-.45 1.31 1.31 0 00-.61.13 1.29 1.29 0 00-.44.36 1.75 1.75 0 00-.26.53 2.76 2.76 0 00-.11.66z"/>
    </g>
  </g>
</svg>
