<svg xmlns="http://www.w3.org/2000/svg" viewBox="0 0 118.44 54.66">
  <defs>
    <style>
      .cls-1{fill:#fff}
    </style>
  </defs>
  <g id="Calque_2" data-name="Calque 2">
    <g id="Calque_1-2" data-name="Calque 1">
      <path class="cls-1" d="M2.7 45.05a.58.58 0 00-.22-.46 1.7 1.7 0 00-.78-.32 2.57 2.57 0 01-1-.39.79.79 0 01-.32-.67.93.93 0 01.36-.74 1.46 1.46 0 011-.3 1.5 1.5 0 011 .32 1 1 0 01.36.79h-.42a.68.68 0 00-.27-.54 1.05 1.05 0 00-.7-.23 1 1 0 00-.69.2.61.61 0 00-.23.46.55.55 0 00.2.43 2 2 0 00.78.3 2.38 2.38 0 011 .41.84.84 0 01.34.7 1 1 0 01-.38.77 1.68 1.68 0 01-1 .29 1.62 1.62 0 01-1.08-.33.89.89 0 01-.37-.74h.39a.66.66 0 00.33.59 1.32 1.32 0 00.73.19 1.15 1.15 0 00.71-.2.62.62 0 00.26-.53zM7.4 44.23a2.24 2.24 0 01-.4 1.36 1.28 1.28 0 01-1.06.5 1.52 1.52 0 01-.69-.15 1.27 1.27 0 01-.49-.43v2h-.4v-5.27h.33l.07.59A1.36 1.36 0 016 42.17a1.23 1.23 0 011 .55 2.48 2.48 0 01.38 1.44zm-.4-.07A2.16 2.16 0 006.7 43a.93.93 0 00-.84-.45 1.06 1.06 0 00-.68.2 1.27 1.27 0 00-.4.51v1.83a1.22 1.22 0 00.42.48 1.17 1.17 0 00.67.18 1 1 0 00.83-.41 1.91 1.91 0 00.3-1.11zM10.06 46.09a1.49 1.49 0 01-1.19-.52 1.91 1.91 0 01-.46-1.33v-.19a2 2 0 01.46-1.35 1.48 1.48 0 011.13-.53 1.3 1.3 0 011.06.45 1.74 1.74 0 01.38 1.18v.33H8.83v.11a1.69 1.69 0 00.33 1.07 1 1 0 00.9.43 1.61 1.61 0 00.63-.12 1.16 1.16 0 00.48-.3l.18.28a1.53 1.53 0 01-.52.35 2 2 0 01-.77.14zm0-3.56a1 1 0 00-.79.35 1.43 1.43 0 00-.36.87H11v-.09a1.23 1.23 0 00-.27-.82.89.89 0 00-.73-.31zm.44-1.89h.5l-.87.91h-.39zM14 45.74a1.15 1.15 0 00.71-.24.8.8 0 00.3-.66h.38a1.08 1.08 0 01-.42.88 1.51 1.51 0 01-1 .35 1.42 1.42 0 01-1.18-.53 2.12 2.12 0 01-.42-1.36v-.14a2.14 2.14 0 01.42-1.36 1.42 1.42 0 011.21-.51 1.44 1.44 0 011 .37 1.23 1.23 0 01.4 1H15a.91.91 0 00-.29-.72 1 1 0 00-.73-.27 1 1 0 00-.88.44 1.94 1.94 0 00-.29 1.09v.14a2 2 0 00.29 1.1 1 1 0 00.9.42zM17 41.16h-.4v-.58h.4zM17 46h-.4v-3.76h.4zM20.84 46c0-.14 0-.25-.06-.35a2.64 2.64 0 010-.29 1.47 1.47 0 01-.54.51 1.68 1.68 0 01-.81.2 1.21 1.21 0 01-.86-.29 1.09 1.09 0 01-.31-.8.94.94 0 01.45-.82 1.91 1.91 0 011.15-.32h.92v-.47a.81.81 0 00-.25-.63 1.06 1.06 0 00-.73-.23 1.09 1.09 0 00-.69.21.65.65 0 00-.26.53h-.39a.85.85 0 01.36-.74 1.7 1.7 0 012 0 1.13 1.13 0 01.38.91v2.24a2.57 2.57 0 00.08.38zm-1.39-.3a1.55 1.55 0 00.84-.23 1.13 1.13 0 00.47-.59v-.72h-.93a1.39 1.39 0 00-.84.24.73.73 0 00-.33.59.66.66 0 00.21.51.79.79 0 00.58.22zM23 46h-.41v-5.42H23zM25 41.16h-.41v-.58H25zM25 46h-.41v-3.76H25zM28.65 45.05a.58.58 0 00-.22-.46 1.75 1.75 0 00-.78-.32 2.57 2.57 0 01-1-.39.78.78 0 01-.33-.67.94.94 0 01.37-.74 1.45 1.45 0 011-.3 1.53 1.53 0 011 .32 1 1 0 01.36.79h-.38a.68.68 0 00-.27-.54 1.06 1.06 0 00-.71-.23 1 1 0 00-.68.2.61.61 0 00-.23.46.55.55 0 00.2.43 2 2 0 00.78.3 2.44 2.44 0 011 .41.84.84 0 01.34.7.93.93 0 01-.39.77 1.64 1.64 0 01-1 .29 1.61 1.61 0 01-1.07-.33.93.93 0 01-.38-.78h.38a.69.69 0 00.34.59 1.31 1.31 0 00.72.19 1.18 1.18 0 00.72-.2.62.62 0 00.23-.49zM31 41.28v1h.82v.35H31V45a.81.81 0 00.13.53.46.46 0 00.36.15H31.8l.07.31a1.05 1.05 0 01-.21.06 1.07 1.07 0 01-.25 0 .79.79 0 01-.62-.25 1.23 1.23 0 01-.22-.8v-2.41h-.65v-.35h.65v-1zM34.33 46.09a1.49 1.49 0 01-1.19-.52 2 2 0 01-.46-1.33v-.19a2 2 0 01.46-1.35 1.49 1.49 0 011.15-.53 1.3 1.3 0 011.06.45 1.74 1.74 0 01.38 1.18v.33H33.1v.11a1.69 1.69 0 00.33 1.07 1.05 1.05 0 00.9.43 1.61 1.61 0 00.63-.12 1.16 1.16 0 00.48-.3l.18.28a1.44 1.44 0 01-.52.35 2 2 0 01-.77.14zm0-3.56a1 1 0 00-.79.35 1.43 1.43 0 00-.36.87h2.16v-.09a1.28 1.28 0 00-.26-.82.92.92 0 00-.79-.31zM39.12 45.05a.61.61 0 00-.22-.46 1.8 1.8 0 00-.79-.32 2.51 2.51 0 01-1-.39.78.78 0 01-.33-.67.93.93 0 01.36-.74 1.5 1.5 0 011-.3 1.53 1.53 0 011 .32 1 1 0 01.36.79h-.39a.7.7 0 00-.26-.54 1.08 1.08 0 00-.71-.23 1 1 0 00-.68.2.58.58 0 00-.23.46.54.54 0 00.19.43 2.07 2.07 0 00.79.3 2.39 2.39 0 011 .41.81.81 0 01.34.7 1 1 0 01-.38.77 1.66 1.66 0 01-1 .29 1.62 1.62 0 01-1.08-.33.94.94 0 01-.37-.78h.38a.7.7 0 00.33.59 1.35 1.35 0 00.73.19 1.15 1.15 0 00.71-.2.61.61 0 00.25-.49zM42.64 44.16a2.48 2.48 0 01.36-1.44 1.21 1.21 0 011.06-.55 1.36 1.36 0 011.17.63v-2.22h.41V46h-.34l-.06-.55a1.27 1.27 0 01-.49.46 1.35 1.35 0 01-.69.16 1.26 1.26 0 01-1.06-.5 2.24 2.24 0 01-.38-1.36zm.42.07a1.93 1.93 0 00.27 1.09.93.93 0 00.82.41 1.12 1.12 0 001.1-.68v-1.79a1.32 1.32 0 00-.41-.52 1 1 0 00-.68-.2.92.92 0 00-.83.45 2.25 2.25 0 00-.27 1.17zM49.53 45.4a1.27 1.27 0 01-.49.51 1.37 1.37 0 01-.72.18 1.13 1.13 0 01-.93-.4 1.92 1.92 0 01-.34-1.26v-2.19h.42v2.2a1.61 1.61 0 00.23 1 .81.81 0 00.67.3 1.23 1.23 0 00.75-.21 1.15 1.15 0 00.4-.58v-2.7h.41V46h-.37zM54.72 45.74a1.11 1.11 0 00.71-.24.78.78 0 00.31-.66h.38a1.07 1.07 0 01-.41.88 1.52 1.52 0 01-1 .35 1.42 1.42 0 01-1.17-.53 2.12 2.12 0 01-.42-1.36v-.14a2.14 2.14 0 01.42-1.36 1.42 1.42 0 011.17-.53 1.46 1.46 0 011 .37 1.19 1.19 0 01.39 1h-.38a1 1 0 00-.29-.72 1 1 0 00-.73-.27 1 1 0 00-.88.44 1.87 1.87 0 00-.29 1.09v.14a1.88 1.88 0 00.29 1.1 1 1 0 00.9.44zM57.07 44.07a2 2 0 01.46-1.36 1.63 1.63 0 012.42 0 2 2 0 01.46 1.36v.12a2 2 0 01-.41 1.37 1.65 1.65 0 01-2.42 0 2 2 0 01-.46-1.37zm.42.12a1.8 1.8 0 00.33 1.1 1.17 1.17 0 001.84 0 1.8 1.8 0 00.33-1.1v-.12a1.79 1.79 0 00-.33-1.07 1.09 1.09 0 00-.92-.45 1.08 1.08 0 00-.92.45 1.79 1.79 0 00-.33 1.09zM61.93 42.24v.66a1.51 1.51 0 01.49-.54 1.44 1.44 0 01.73-.19 1.18 1.18 0 01.94.38 1.8 1.8 0 01.32 1.17V46H64v-2.3a1.39 1.39 0 00-.24-.92.9.9 0 00-.69-.26 1.09 1.09 0 00-.72.22 1.2 1.2 0 00-.4.59V46h-.42v-3.76zM68.08 45.05a.6.6 0 00-.21-.46 1.8 1.8 0 00-.79-.32 2.57 2.57 0 01-1-.39.79.79 0 01-.32-.67.93.93 0 01.36-.74 1.72 1.72 0 012 0 .94.94 0 01.36.79h-.39a.68.68 0 00-.27-.54 1.23 1.23 0 00-1.39 0 .61.61 0 00-.23.46.55.55 0 00.2.43 2 2 0 00.79.3 2.39 2.39 0 011 .41.81.81 0 01.34.7 1 1 0 01-.38.77 1.66 1.66 0 01-1 .29 1.62 1.62 0 01-1.15-.32.92.92 0 01-.37-.78h.39a.68.68 0 00.33.59 1.35 1.35 0 00.73.19 1.15 1.15 0 00.71-.2.59.59 0 00.29-.51zM71.18 46.09a1.5 1.5 0 01-1.18-.52 2 2 0 01-.46-1.33v-.19A2 2 0 0170 42.7a1.46 1.46 0 011.14-.53 1.3 1.3 0 011.06.45 1.74 1.74 0 01.38 1.18v.33H70v.11a1.69 1.69 0 00.33 1.07 1.06 1.06 0 00.9.43 1.61 1.61 0 00.63-.12 1.27 1.27 0 00.49-.3l.17.28a1.44 1.44 0 01-.52.4 2 2 0 01-.82.09zm0-3.56a1 1 0 00-.79.35 1.43 1.43 0 00-.36.87h2.16v-.09a1.28 1.28 0 00-.26-.82.92.92 0 00-.79-.31zM74.18 41.16h-.42v-.58h.42zm0 4.86h-.42v-3.78h.42zM76.08 46h-.41v-5.42h.41zM81 46.09a1.49 1.49 0 01-1.19-.52 1.91 1.91 0 01-.46-1.33v-.19a2 2 0 01.46-1.35 1.48 1.48 0 011.15-.53 1.3 1.3 0 011.06.45 1.74 1.74 0 01.37 1.18v.33h-2.64v.11a1.69 1.69 0 00.33 1.07 1 1 0 00.9.43 1.61 1.61 0 00.63-.12 1.31 1.31 0 00.48-.3l.18.28a1.53 1.53 0 01-.52.35 2 2 0 01-.75.14zm0-3.56a1 1 0 00-.79.35 1.5 1.5 0 00-.37.87H82v-.09a1.23 1.23 0 00-.27-.82.89.89 0 00-.79-.31zm.44-1.89h.51l-.86.91h-.38zM83.87 42.24v.66a1.42 1.42 0 01.49-.54 1.44 1.44 0 01.73-.19 1.18 1.18 0 01.94.38 1.8 1.8 0 01.32 1.17V46H86v-2.3a1.39 1.39 0 00-.24-.92.92.92 0 00-.69-.26 1.09 1.09 0 00-.72.22 1.14 1.14 0 00-.4.59V46h-.45v-3.76zM89.2 46.09a1.49 1.49 0 01-1.2-.52 1.91 1.91 0 01-.46-1.33v-.19A2 2 0 0188 42.7a1.48 1.48 0 011.15-.53 1.3 1.3 0 011.06.45 1.74 1.74 0 01.37 1.18v.33H88v.11a1.69 1.69 0 00.33 1.07 1 1 0 00.9.43 1.61 1.61 0 00.63-.12 1.31 1.31 0 00.48-.3l.18.28a1.53 1.53 0 01-.52.4 2 2 0 01-.8.09zm0-3.56a1 1 0 00-.79.35 1.5 1.5 0 00-.37.87h2.17v-.09a1.23 1.23 0 00-.27-.82.89.89 0 00-.78-.31zM93.45 42.6h-.3a1 1 0 00-.65.22 1.28 1.28 0 00-.36.61V46h-.42v-3.76h.37v.63a1.4 1.4 0 01.44-.54 1.12 1.12 0 01.66-.2h.26zM94.23 44.16a2.48 2.48 0 01.38-1.44 1.23 1.23 0 011.07-.55 1.31 1.31 0 011.18.67l.06-.6h.34V46a1.47 1.47 0 01-.4 1.11 1.53 1.53 0 01-1.12.39 2.41 2.41 0 01-.58-.07 1.9 1.9 0 01-.54-.18l.08-.35a2.48 2.48 0 00.48.17 2.44 2.44 0 00.55.06 1.1 1.1 0 00.83-.29 1.14 1.14 0 00.28-.84v-.5a1.29 1.29 0 01-.49.44 1.45 1.45 0 01-.68.15 1.26 1.26 0 01-1.06-.51 2.19 2.19 0 01-.38-1.35zm.42.07a1.93 1.93 0 00.27 1.09 1 1 0 00.83.41 1.17 1.17 0 00.67-.18 1.21 1.21 0 00.42-.5v-1.79a1.25 1.25 0 00-.41-.52 1 1 0 00-.67-.2.9.9 0 00-.83.45 2.16 2.16 0 00-.28 1.17zM100.08 46.09a1.49 1.49 0 01-1.19-.52 1.91 1.91 0 01-.46-1.33v-.19a2 2 0 01.46-1.35 1.48 1.48 0 011.15-.53 1.31 1.31 0 011.06.45 1.74 1.74 0 01.37 1.18v.33h-2.62v.11a1.74 1.74 0 00.32 1.07 1.07 1.07 0 00.91.43 1.64 1.64 0 00.63-.12 1.31 1.31 0 00.48-.3l.18.28a1.53 1.53 0 01-.52.35 2 2 0 01-.77.14zm0-3.56a1 1 0 00-.79.35 1.5 1.5 0 00-.37.87h2.16v-.09a1.22 1.22 0 00-.26-.82.9.9 0 00-.82-.31zm.44-1.89h.48l-.87.91h-.37zM103.25 41.28v1h.83v.35h-.83V45a.8.8 0 00.14.53.46.46 0 00.36.15H104.06l.07.31a1.05 1.05 0 01-.21.06 1.07 1.07 0 01-.25 0 .79.79 0 01-.62-.25 1.23 1.23 0 01-.22-.8v-2.41h-.65v-.35h.65v-1zM105.65 41.16h-.41v-.58h.41zm0 4.86h-.41v-3.78h.41zM106.93 44.16a2.48 2.48 0 01.38-1.44 1.21 1.21 0 011.07-.55 1.37 1.37 0 01.68.17 1.4 1.4 0 01.48.46l.06-.56h.34v5.23h-.42v-1.95a1.2 1.2 0 01-.48.42 1.47 1.47 0 01-.67.15 1.26 1.26 0 01-1.06-.5 2.24 2.24 0 01-.38-1.36zm.42.07a2 2 0 00.27 1.1.93.93 0 00.82.41 1.16 1.16 0 00.66-.18 1.13 1.13 0 00.42-.47v-1.87a1.41 1.41 0 00-.4-.5 1.11 1.11 0 00-.67-.19.92.92 0 00-.83.45 2.32 2.32 0 00-.27 1.18zM113.82 45.4a1.27 1.27 0 01-.49.51 1.37 1.37 0 01-.72.18 1.13 1.13 0 01-.93-.4 1.92 1.92 0 01-.34-1.26v-2.19h.42v2.2a1.68 1.68 0 00.23 1 .81.81 0 00.67.3 1.23 1.23 0 00.75-.21 1.15 1.15 0 00.4-.58v-2.7h.42V46h-.37zM117.05 46.09a1.49 1.49 0 01-1.19-.52 1.91 1.91 0 01-.46-1.33v-.19a2 2 0 01.46-1.35 1.48 1.48 0 011.15-.53 1.31 1.31 0 011.06.45 1.74 1.74 0 01.37 1.18v.33h-2.62v.11a1.74 1.74 0 00.32 1.07 1.07 1.07 0 00.91.43 1.61 1.61 0 00.63-.12 1.31 1.31 0 00.48-.3l.18.28a1.53 1.53 0 01-.52.35 2 2 0 01-.77.14zm0-3.56a1 1 0 00-.79.35 1.5 1.5 0 00-.37.87H118v-.09a1.23 1.23 0 00-.27-.82.9.9 0 00-.73-.31zM1.88 54.66a1.49 1.49 0 01-1.19-.52 1.91 1.91 0 01-.46-1.33v-.19a2 2 0 01.46-1.35 1.48 1.48 0 011.15-.53 1.32 1.32 0 011.06.44 1.78 1.78 0 01.37 1.19v.33H.65v.11A1.74 1.74 0 001 53.88a1.1 1.1 0 00.91.43 1.61 1.61 0 00.63-.12 1.31 1.31 0 00.48-.3l.18.28a1.53 1.53 0 01-.52.35 2 2 0 01-.8.14zm0-3.56a1 1 0 00-.79.34 1.53 1.53 0 00-.37.88h2.14v-.09a1.27 1.27 0 00-.27-.83.91.91 0 00-.75-.3zM5.06 49.85v1h.82v.34h-.82v2.46a.83.83 0 00.13.53.46.46 0 00.36.15h.31l.07.31a.65.65 0 01-.21.07 1.07 1.07 0 01-.25 0 .79.79 0 01-.62-.25 1.25 1.25 0 01-.22-.8v-2.51H4v-.34h.65v-1zM10.44 54.66a1.5 1.5 0 01-1.19-.52 2 2 0 01-.45-1.33v-.19a2 2 0 01.46-1.35 1.47 1.47 0 011.14-.53 1.32 1.32 0 011.06.44 1.79 1.79 0 01.38 1.19v.33H9.21v.11a1.69 1.69 0 00.33 1.07 1.09 1.09 0 00.9.43 1.69 1.69 0 00.64-.12 1.31 1.31 0 00.48-.3l.17.28a1.44 1.44 0 01-.52.35 2 2 0 01-.77.14zm0-3.56a1 1 0 00-.79.34 1.46 1.46 0 00-.36.88h2.16v-.09a1.33 1.33 0 00-.26-.83 1 1 0 00-.79-.3zM13.34 50.81v.66a1.35 1.35 0 01.49-.54 1.41 1.41 0 01.73-.19 1.15 1.15 0 01.93.38 1.74 1.74 0 01.32 1.17v2.3h-.42v-2.3a1.39 1.39 0 00-.24-.92.9.9 0 00-.69-.26 1.12 1.12 0 00-.72.22 1.2 1.2 0 00-.39.58v2.68H13v-3.78zM18.3 53.64l.13.44.13-.44 1-2.83H20l-1.4 3.78h-.33l-1.44-3.78h.43zM21.48 49.73h-.42v-.58h.42zm0 4.86h-.42v-3.78h.42zM24.64 51.17h-.3a1 1 0 00-.65.22 1.2 1.2 0 00-.36.61v2.61h-.42v-3.8h.37v.63a1.4 1.4 0 01.44-.54 1.12 1.12 0 01.66-.2h.26zM25.33 52.64a2 2 0 01.46-1.36 1.52 1.52 0 011.21-.54 1.49 1.49 0 011.21.54 2 2 0 01.46 1.36v.12a2.06 2.06 0 01-.45 1.37 1.66 1.66 0 01-2.43 0 2.06 2.06 0 01-.46-1.37zm.42.12a1.8 1.8 0 00.33 1.1 1.1 1.1 0 00.93.45 1.06 1.06 0 00.91-.45 1.74 1.74 0 00.34-1.1v-.12a1.73 1.73 0 00-.34-1.09 1.08 1.08 0 00-.92-.45 1.09 1.09 0 00-.92.45 1.79 1.79 0 00-.33 1.09zM30.2 50.81v.66a1.35 1.35 0 01.49-.54 1.41 1.41 0 01.73-.19 1.15 1.15 0 01.93.38 1.8 1.8 0 01.32 1.17v2.3h-.42v-2.3a1.39 1.39 0 00-.24-.92.9.9 0 00-.69-.26 1.11 1.11 0 00-.72.22 1.2 1.2 0 00-.39.58v2.68h-.42v-3.78zM34.46 50.81v.66a1.35 1.35 0 01.49-.54 1.41 1.41 0 01.73-.19 1.15 1.15 0 01.93.38 1.8 1.8 0 01.39 1.17v2.3h-.42v-2.3a1.39 1.39 0 00-.24-.92.9.9 0 00-.69-.26 1.11 1.11 0 00-.72.22 1.2 1.2 0 00-.39.58v2.68h-.42v-3.78zM39.78 54.66a1.5 1.5 0 01-1.19-.52 2 2 0 01-.45-1.33v-.19a2 2 0 01.46-1.35 1.47 1.47 0 011.14-.53 1.34 1.34 0 011.07.44 1.78 1.78 0 01.37 1.19v.33h-2.62v.11a1.68 1.68 0 00.32 1.07 1.09 1.09 0 00.9.43 1.69 1.69 0 00.64-.12 1.31 1.31 0 00.48-.3l.18.28a1.58 1.58 0 01-.53.35 2 2 0 01-.77.14zm0-3.56a1 1 0 00-.79.34 1.52 1.52 0 00-.36.88h2.16v-.09a1.33 1.33 0 00-.26-.83 1 1 0 00-.79-.3zM42.66 50.81v.62a1.41 1.41 0 01.49-.51 1.36 1.36 0 01.71-.18 1.18 1.18 0 01.72.21 1.11 1.11 0 01.42.63 1.35 1.35 0 01.49-.61 1.27 1.27 0 01.76-.23 1.16 1.16 0 01.93.4 2 2 0 01.33 1.24v2.21h-.42v-2.21a1.51 1.51 0 00-.25-1 .84.84 0 00-.68-.28.93.93 0 00-.74.29 1.44 1.44 0 00-.33.75v2.44h-.42v-2.2a1.5 1.5 0 00-.25-1 .82.82 0 00-.68-.29 1 1 0 00-.7.22 1.09 1.09 0 00-.37.59v2.67h-.37v-3.76zM50.36 54.66a1.49 1.49 0 01-1.19-.52 1.91 1.91 0 01-.46-1.33v-.19a2 2 0 01.46-1.35 1.48 1.48 0 011.15-.53 1.32 1.32 0 011.06.44 1.78 1.78 0 01.37 1.19v.33h-2.62v.11a1.69 1.69 0 00.33 1.07 1.07 1.07 0 00.9.43 1.61 1.61 0 00.63-.12 1.31 1.31 0 00.48-.3l.18.28a1.53 1.53 0 01-.52.35 2 2 0 01-.77.14zm0-3.56a1 1 0 00-.79.34 1.53 1.53 0 00-.37.88h2.17v-.09a1.27 1.27 0 00-.27-.83.91.91 0 00-.78-.3zM53.25 50.81v.66a1.51 1.51 0 01.49-.54 1.44 1.44 0 01.73-.19 1.18 1.18 0 01.94.38 1.8 1.8 0 01.32 1.17v2.3h-.42v-2.3a1.39 1.39 0 00-.24-.92.9.9 0 00-.69-.26 1.09 1.09 0 00-.72.22 1.21 1.21 0 00-.4.58v2.68h-.42v-3.78zM57.8 49.85v1h.83v.34h-.83v2.46a.83.83 0 00.13.53.46.46 0 00.36.15h.31l.07.31a.65.65 0 01-.21.07 1 1 0 01-.25 0 .75.75 0 01-.61-.25 1.19 1.19 0 01-.23-.8v-2.51h-.65v-.34h.65v-1zM62.12 54.59a3.22 3.22 0 01-.06-.35A2.64 2.64 0 0162 54a1.51 1.51 0 01-.55.51 1.62 1.62 0 01-.81.2 1.18 1.18 0 01-.86-.3 1.06 1.06 0 01-.3-.8 1 1 0 01.44-.82 2 2 0 011.15-.31H62V52a.8.8 0 00-.26-.63 1 1 0 00-.72-.23 1.05 1.05 0 00-.69.21.63.63 0 00-.27.52h-.38a.9.9 0 01.36-.74 1.72 1.72 0 012 0 1.13 1.13 0 01.37.91v1.86a2.34 2.34 0 000 .38 2.53 2.53 0 00.07.38zm-1.39-.3a1.5 1.5 0 00.83-.23 1.1 1.1 0 00.48-.59v-.72h-.93a1.39 1.39 0 00-.84.24.73.73 0 00-.33.59.66.66 0 00.21.51.82.82 0 00.58.2zM64.32 54.59h-.42v-5.44h.42zM16 15.54a4.23 4.23 0 01.19.74.45.45 0 01-.1.41.91.91 0 01-.5.17h-2a2.32 2.32 0 01-.56-.08.5.5 0 01-.27-.16.85.85 0 01-.13-.27L11.47 13H5.19l-1.06 3.27a1 1 0 01-.14.3.53.53 0 01-.27.2 2.48 2.48 0 01-.53.09h-.9a7.72 7.72 0 01-.93 0 .71.71 0 01-.46-.19.48.48 0 01-.09-.42 3.89 3.89 0 01.19-.73L6.16.67a1.27 1.27 0 01.18-.35.67.67 0 01.33-.21A2.36 2.36 0 017.3 0h2.27a3 3 0 01.71.09.69.69 0 01.36.21 1.42 1.42 0 01.19.39zM8.32 3.27l-2.38 7.11h4.74zM32 11.79a5.11 5.11 0 01-.24 1.62 4.47 4.47 0 01-.68 1.28 4.54 4.54 0 01-1 1 6.78 6.78 0 01-1.32.66 8.36 8.36 0 01-1.55.38 12.68 12.68 0 01-1.83.12h-4.5a1 1 0 01-.71-.25 1 1 0 01-.29-.82V1.15a1 1 0 01.29-.82 1 1 0 01.71-.25h4.21a10.8 10.8 0 012.6.26 5.11 5.11 0 011.8.78 3.48 3.48 0 011.12 1.32A4.31 4.31 0 0131 4.33a4.26 4.26 0 01-.16 1.15 3.31 3.31 0 01-.45 1 3.37 3.37 0 01-.73.78 3.92 3.92 0 01-1 .54 4.72 4.72 0 011.34.42 3.89 3.89 0 011 .84 3.82 3.82 0 01.7 1.19 4.18 4.18 0 01.3 1.54zm-4.39-7a2.59 2.59 0 00-.16-.91 1.68 1.68 0 00-.45-.71 2.18 2.18 0 00-.79-.4 4.29 4.29 0 00-1.26-.14h-1.74V7h1.9a3.43 3.43 0 001.18-.17 2.11 2.11 0 00.71-.51 2 2 0 00.43-.71 2.51 2.51 0 00.17-.86zm.86 7.16a2.61 2.61 0 00-.19-1 2 2 0 00-.57-.77 2.55 2.55 0 00-1-.48 5.66 5.66 0 00-1.51-.17h-2v4.76h2.46a4.06 4.06 0 001.19-.15 2.37 2.37 0 00.85-.44 2 2 0 00.55-.72 2.25 2.25 0 00.21-1.07zM55.76 16.34a.48.48 0 01-.07.24.59.59 0 01-.26.17 3.36 3.36 0 01-.5.1 5.82 5.82 0 01-.79 0 5.75 5.75 0 01-.78 0 3.19 3.19 0 01-.49-.1.65.65 0 01-.26-.17.4.4 0 01-.07-.24V2.73l-4.85 13.6a.57.57 0 01-.17.28.76.76 0 01-.31.17 1.79 1.79 0 01-.51.09h-1.5a2.47 2.47 0 01-.51-.11.81.81 0 01-.32-.17.51.51 0 01-.16-.25L39.5 2.73v13.61a.48.48 0 01-.07.24.57.57 0 01-.27.17 3.36 3.36 0 01-.5.1 5.57 5.57 0 01-.78 0 5.75 5.75 0 01-.78 0 3.19 3.19 0 01-.49-.1.53.53 0 01-.26-.17.4.4 0 01-.07-.24V1.44a1.34 1.34 0 01.35-1 1.22 1.22 0 01.93-.35h2.22a5 5 0 011 .09 2.09 2.09 0 01.74.33 1.86 1.86 0 01.52.59 4.66 4.66 0 01.36.9L46 12l3.82-10a5.48 5.48 0 01.37-.92 2.11 2.11 0 01.47-.58 1.61 1.61 0 01.62-.33 3.49 3.49 0 01.84-.09h2.29a1.76 1.76 0 01.6.09 1.11 1.11 0 01.42.26 1.2 1.2 0 01.24.43 1.72 1.72 0 01.09.58zM7.22 28.5a.81.81 0 01-.17.56.63.63 0 01-.47.18H2.11a3.13 3.13 0 00.11.85 1.51 1.51 0 00.35.65 1.53 1.53 0 00.63.41 2.54 2.54 0 00.92.14 4.49 4.49 0 001-.08 4.8 4.8 0 00.67-.21l.49-.17a1 1 0 01.33-.08.21.21 0 01.12 0 .21.21 0 01.08.1.81.81 0 01.05.21v.34a2.73 2.73 0 010 .31 1.27 1.27 0 010 .22.53.53 0 010 .15.94.94 0 01-.09.12.92.92 0 01-.29.16 3.72 3.72 0 01-.61.19 7.5 7.5 0 01-.85.17 8.17 8.17 0 01-1 .07 5.28 5.28 0 01-1.72-.25 3 3 0 01-1.3-.68 3.07 3.07 0 01-.74-1.27A6 6 0 010 28.8 5.68 5.68 0 01.26 27 3.59 3.59 0 011 25.7a3 3 0 011.18-.84 4.11 4.11 0 011.57-.29 4.09 4.09 0 011.57.27 2.85 2.85 0 011.08.76 3 3 0 01.6 1.14 5 5 0 01.2 1.43zm-2-.59a2.16 2.16 0 00-.35-1.37A1.34 1.34 0 003.7 26a1.49 1.49 0 00-.69.15 1.35 1.35 0 00-.49.4 1.91 1.91 0 00-.29.59 2.86 2.86 0 00-.12.73zM4 21.43a.67.67 0 01.14-.15.7.7 0 01.21-.11l.31-.05h.47a4.18 4.18 0 01.59 0 .77.77 0 01.31.09.14.14 0 01.09.15.29.29 0 01-.08.17l-1.6 1.91-.13.14a.67.67 0 01-.17.08 1.33 1.33 0 01-.26.05h-.39a2.69 2.69 0 01-.46 0 .45.45 0 01-.24-.08.13.13 0 01-.05-.13.46.46 0 01.09-.19zM16.92 32.39a.24.24 0 01-.05.14.45.45 0 01-.17.11l-.31.06h-1.01l-.32-.06a.41.41 0 01-.16-.11.24.24 0 01-.05-.14V28.2a3.6 3.6 0 00-.08-.84 1.6 1.6 0 00-.23-.53.87.87 0 00-.38-.33 1.2 1.2 0 00-.55-.12 1.34 1.34 0 00-.79.28 5.12 5.12 0 00-.85.84v4.89a.23.23 0 010 .14.45.45 0 01-.17.11l-.32.06h-1.01l-.31-.06a.38.38 0 01-.17-.11.24.24 0 010-.14V25a.23.23 0 010-.14.37.37 0 01.15-.11l.27-.06h.86l.27.06a.33.33 0 01.14.11.23.23 0 010 .14v.85a4.73 4.73 0 011.24-1 2.8 2.8 0 011.31-.33 2.88 2.88 0 011.27.25 2.2 2.2 0 01.83.67 2.82 2.82 0 01.46 1 6 6 0 01.14 1.37zM26.72 28.5a.81.81 0 01-.17.56.63.63 0 01-.47.18h-4.47a3.13 3.13 0 00.11.85 1.51 1.51 0 00.35.65 1.6 1.6 0 00.63.41 2.54 2.54 0 00.92.14 4.49 4.49 0 00.95-.08 4.8 4.8 0 00.72-.17l.49-.17a1 1 0 01.33-.08.21.21 0 01.12 0 .21.21 0 01.08.1.81.81 0 01.05.21v.34a2.73 2.73 0 010 .31 1.27 1.27 0 010 .22.53.53 0 01-.05.15.94.94 0 01-.09.12.92.92 0 01-.29.16 3.72 3.72 0 01-.61.19 7.5 7.5 0 01-.85.17 8.17 8.17 0 01-1 .07 5.28 5.28 0 01-1.72-.25 3 3 0 01-1.23-.75 3.19 3.19 0 01-.74-1.27 6 6 0 01-.24-1.79 5.68 5.68 0 01.22-1.77 3.59 3.59 0 01.74-1.33 3.11 3.11 0 011.18-.84 4.11 4.11 0 011.57-.29 4.18 4.18 0 011.58.27 2.89 2.89 0 011.07.76 3 3 0 01.62 1.14 5 5 0 01.2 1.43zm-2-.59a2.16 2.16 0 00-.35-1.37A1.34 1.34 0 0023.2 26a1.52 1.52 0 00-.69.15 1.35 1.35 0 00-.49.4 1.91 1.91 0 00-.29.59 2.86 2.86 0 00-.12.73zM34.12 25.73v.48a1.54 1.54 0 01-.05.3.35.35 0 01-.08.15.29.29 0 01-.14 0h-.15l-.18-.06-.23-.07h-.27a.87.87 0 00-.35.07 1.74 1.74 0 00-.36.21 2.47 2.47 0 00-.38.4 4.88 4.88 0 00-.43.61v4.58a.24.24 0 01-.05.14.45.45 0 01-.17.11l-.32.06h-1.01l-.31-.06a.38.38 0 01-.17-.11.24.24 0 01-.05-.14V25a.23.23 0 010-.14.37.37 0 01.15-.11l.27-.06h.87l.26.06a.33.33 0 01.14.11.23.23 0 010 .14v1a4.74 4.74 0 01.54-.68 3.58 3.58 0 01.49-.43 1.93 1.93 0 01.46-.22 1.82 1.82 0 01.46-.06h.49l.23.07a.58.58 0 01.14.08.28.28 0 01.07.09v.4c0 .12.13.28.13.48zM42.8 25.55a1.45 1.45 0 01-.09.59c-.06.12-.14.19-.22.19h-.87a1.17 1.17 0 01.26.44 1.89 1.89 0 01.08.53 2.73 2.73 0 01-.22 1.14 2.22 2.22 0 01-.61.84 2.78 2.78 0 01-1 .52 4.18 4.18 0 01-1.26.17 2.46 2.46 0 01-.67-.08 2.06 2.06 0 01-.5-.2 1.8 1.8 0 00-.18.25.72.72 0 00-.07.33.46.46 0 00.21.39 1.05 1.05 0 00.58.17l1.79.07a4.18 4.18 0 011.12.17 2.65 2.65 0 01.82.43 2 2 0 01.51.67 2 2 0 01.18.88 2.25 2.25 0 01-.24 1 2.38 2.38 0 01-.72.84 3.76 3.76 0 01-1.19.56 6.12 6.12 0 01-1.69.2 8.13 8.13 0 01-1.6-.14 3.54 3.54 0 01-1.09-.42 1.67 1.67 0 01-.62-.62 1.86 1.86 0 01-.19-.81 2.25 2.25 0 01.07-.52 2.18 2.18 0 01.21-.47 2.24 2.24 0 01.33-.43 3.55 3.55 0 01.45-.4 1.39 1.39 0 01-.74-1.23 1.75 1.75 0 01.23-.88 2.63 2.63 0 01.57-.72 2.25 2.25 0 01-.46-.69 2.7 2.7 0 01-.17-1 2.81 2.81 0 01.22-1.15 2.33 2.33 0 01.63-.85 2.62 2.62 0 011-.54 4 4 0 011.23-.19 4.91 4.91 0 01.67 0 3.32 3.32 0 01.58.11h2.34c.09 0 .16.06.22.18a1.5 1.5 0 01.1.67zm-2.18 7.6a.65.65 0 00-.29-.56 1.48 1.48 0 00-.82-.22h-1.47a2.12 2.12 0 00-.34.3 1.57 1.57 0 00-.21.28.73.73 0 00-.1.25 1.15 1.15 0 000 .26.67.67 0 00.42.62 2.51 2.51 0 001.17.22 2.57 2.57 0 00.79-.1 1.33 1.33 0 00.52-.25.84.84 0 00.28-.35.94.94 0 00.05-.45zm-.48-5.86a1.23 1.23 0 00-.33-.92 1.26 1.26 0 00-.93-.33 1.33 1.33 0 00-.54.1 1.08 1.08 0 00-.38.28 1.27 1.27 0 00-.23.41 1.61 1.61 0 00-.07.49 1.19 1.19 0 00.33.89 1.22 1.22 0 00.91.32 1.35 1.35 0 00.55-.1.94.94 0 00.38-.27 1.13 1.13 0 00.23-.4 1.5 1.5 0 00.08-.47zM47.38 22.55a1.18 1.18 0 01-.25.87 2 2 0 01-1.89 0 1.15 1.15 0 01-.24-.84 1.16 1.16 0 01.25-.86 1.32 1.32 0 011-.25 1.38 1.38 0 01.94.24 1.13 1.13 0 01.19.84zm-.15 9.84a.24.24 0 010 .14.45.45 0 01-.17.11l-.32.06h-1l-.32-.06a.45.45 0 01-.17-.11.24.24 0 01-.05-.14v-7.33a.27.27 0 01.05-.15.45.45 0 01.17-.1 1.18 1.18 0 01.32-.07 4.18 4.18 0 011 0 1.18 1.18 0 01.32.07.45.45 0 01.17.1.27.27 0 010 .15zM57.06 28.5a.81.81 0 01-.17.56.6.6 0 01-.46.18H52a3.13 3.13 0 00.11.85 1.64 1.64 0 00.36.65 1.5 1.5 0 00.62.41 2.58 2.58 0 00.92.14 4.59 4.59 0 001-.08 5 5 0 00.71-.17l.5-.17a1 1 0 01.32-.08.21.21 0 01.12 0 .22.22 0 01.09.1.87.87 0 010 .21v.87a.53.53 0 010 .15l-.08.12a1.2 1.2 0 01-.3.16 3.72 3.72 0 01-.61.19 7.07 7.07 0 01-.85.17 7.91 7.91 0 01-1 .07 5.22 5.22 0 01-1.71-.25 2.94 2.94 0 01-1.24-.75 3.17 3.17 0 01-.73-1.27 6 6 0 01-.25-1.79A5.68 5.68 0 0150.1 27a3.73 3.73 0 01.74-1.33 3.19 3.19 0 011.16-.81 4.57 4.57 0 013.15 0 2.81 2.81 0 011.07.76 2.87 2.87 0 01.62 1.14 5 5 0 01.2 1.43zm-2-.59a2.1 2.1 0 00-.35-1.37 1.33 1.33 0 00-1.16-.5 1.45 1.45 0 00-.68.15 1.28 1.28 0 00-.49.4 1.73 1.73 0 00-.3.59 2.86 2.86 0 00-.12.73zM68.81 31.22v.36a1.5 1.5 0 010 .24.5.5 0 01-.05.16.92.92 0 01-.12.16 2.14 2.14 0 01-.34.23 3.37 3.37 0 01-.54.24 4.37 4.37 0 01-.67.17 3.57 3.57 0 01-.74.07 4.14 4.14 0 01-1.5-.26 2.91 2.91 0 01-1.1-.78 3.53 3.53 0 01-.75-1.26 5.8 5.8 0 01-.23-1.69 6 6 0 01.31-1.86 3.53 3.53 0 01.77-1.33 3.09 3.09 0 011.15-.83 4.14 4.14 0 011.48-.26 3.49 3.49 0 01.65.06 4.61 4.61 0 01.59.15 2.9 2.9 0 01.5.23 1.48 1.48 0 01.3.21.52.52 0 01.13.15.38.38 0 01.06.16v.25a3.16 3.16 0 010 .35 1.74 1.74 0 01-.09.67c0 .13-.12.19-.21.19a.58.58 0 01-.3-.11l-.37-.26a2.42 2.42 0 00-.51-.25 1.88 1.88 0 00-.71-.12 1.4 1.4 0 00-1.23.62 3.21 3.21 0 00-.43 1.83 4.61 4.61 0 00.11 1 2.12 2.12 0 00.31.76 1.37 1.37 0 00.53.46 1.72 1.72 0 00.74.15 1.88 1.88 0 00.74-.13 2.92 2.92 0 00.53-.28 4 4 0 00.39-.29.48.48 0 01.26-.12.17.17 0 01.13 0 .35.35 0 01.08.15 1.7 1.7 0 010 .28c.12.2.13.31.13.53zM78.63 28.64a5.7 5.7 0 01-.24 1.71 3.73 3.73 0 01-.75 1.34 3.41 3.41 0 01-1.26.86 4.62 4.62 0 01-1.77.31 4.87 4.87 0 01-1.71-.27 3 3 0 01-1.9-2.07 6.09 6.09 0 01-.23-1.73 5.5 5.5 0 01.23-1.72 3.69 3.69 0 01.75-1.33 3.41 3.41 0 011.25-.86 4.55 4.55 0 011.77-.31 4.87 4.87 0 011.71.27 3 3 0 011.2.79 3.26 3.26 0 01.7 1.27 5.82 5.82 0 01.25 1.74zm-2.13.08a5.24 5.24 0 00-.09-1 2.12 2.12 0 00-.29-.79 1.47 1.47 0 00-.55-.53 1.71 1.71 0 00-.86-.19 1.89 1.89 0 00-.81.17 1.47 1.47 0 00-.56.49 2.48 2.48 0 00-.34.79 4.61 4.61 0 00-.11 1 5.24 5.24 0 00.09 1 2.32 2.32 0 00.3.79 1.38 1.38 0 00.54.53 1.86 1.86 0 00.86.18 1.8 1.8 0 00.82-.16 1.39 1.39 0 00.56-.49 2.14 2.14 0 00.33-.78 4.61 4.61 0 00.11-1.01zM88.27 32.39a.24.24 0 010 .14.45.45 0 01-.17.11l-.31.06h-1.01l-.32-.06a.41.41 0 01-.16-.11.24.24 0 010-.14V28.2a3.6 3.6 0 00-.08-.84 1.6 1.6 0 00-.23-.53.87.87 0 00-.38-.33 1.18 1.18 0 00-.55-.12 1.34 1.34 0 00-.79.28 4.74 4.74 0 00-.84.84v4.89a.24.24 0 010 .14.45.45 0 01-.17.11l-.32.06h-1.01l-.31-.06a.38.38 0 01-.17-.11.24.24 0 010-.14V25a.23.23 0 010-.14.37.37 0 01.15-.11l.27-.06h.87l.26.06a.33.33 0 01.14.11.23.23 0 01-.14.14v.85a4.73 4.73 0 011.24-1 2.8 2.8 0 011.31-.33 2.88 2.88 0 011.27.25 2.2 2.2 0 01.83.67 2.82 2.82 0 01.46 1 6 6 0 01.14 1.37zM96.45 30.31a2.45 2.45 0 01-.23 1.11 2.21 2.21 0 01-.67.79 2.88 2.88 0 01-1 .49 5.07 5.07 0 01-1.27.16 4.93 4.93 0 01-.78-.06 4.73 4.73 0 01-.67-.16 3.81 3.81 0 01-.5-.19 1.32 1.32 0 01-.29-.19.68.68 0 01-.14-.27 2.44 2.44 0 010-.55 3.47 3.47 0 010-.38 1 1 0 010-.23.23.23 0 01.08-.12.28.28 0 01.13 0 .58.58 0 01.26.11l.44.22a3.68 3.68 0 00.62.23 2.43 2.43 0 00.79.11 1.9 1.9 0 00.5-.06 1.32 1.32 0 00.38-.16.62.62 0 00.24-.27.79.79 0 00.09-.38.65.65 0 00-.16-.43 1.46 1.46 0 00-.4-.31 5.15 5.15 0 00-.57-.24c-.21-.08-.43-.16-.65-.26a5.59 5.59 0 01-.65-.32 2.71 2.71 0 01-.57-.44 2 2 0 01-.4-.64 2.32 2.32 0 01-.16-.89 2.17 2.17 0 01.8-1.72 2.94 2.94 0 01.95-.49 4.34 4.34 0 011.25-.17 4.91 4.91 0 01.67.05c.21 0 .41.08.59.12a2.7 2.7 0 01.44.17 1.16 1.16 0 01.26.14.42.42 0 01.11.13.53.53 0 010 .15v.21a3 3 0 010 .32v.36a1 1 0 010 .22.2.2 0 01-.08.11.21.21 0 01-.12 0 .69.69 0 01-.23-.08 3.6 3.6 0 00-.39-.19 3.1 3.1 0 00-.54-.18 2.55 2.55 0 00-.71-.09 1.75 1.75 0 00-.48.06.83.83 0 00-.34.16.79.79 0 00-.2.25.81.81 0 00-.06.31.64.64 0 00.15.43 1.51 1.51 0 00.42.3 4.58 4.58 0 00.58.25l.66.25a5.59 5.59 0 01.65.32 2.83 2.83 0 01.59.44 2.54 2.54 0 01.41.63 2.33 2.33 0 01.2.87zM105.78 28.5a.81.81 0 01-.17.56.63.63 0 01-.47.18h-4.47a3.13 3.13 0 00.11.85 1.51 1.51 0 00.35.65 1.6 1.6 0 00.63.41 2.54 2.54 0 00.92.14 4.49 4.49 0 00.95-.08 4.8 4.8 0 00.72-.17l.49-.17a1 1 0 01.33-.08.21.21 0 01.12 0 .21.21 0 01.08.1.81.81 0 010 .21v.34a2.73 2.73 0 010 .31 1.27 1.27 0 010 .22.53.53 0 01-.05.15.94.94 0 01-.09.12.92.92 0 01-.29.16 3.72 3.72 0 01-.61.19 7.5 7.5 0 01-.85.17 8.17 8.17 0 01-1 .07 5.28 5.28 0 01-1.72-.25 3 3 0 01-1.23-.75 3.07 3.07 0 01-.74-1.27 6 6 0 01-.24-1.79 5.68 5.68 0 01.27-1.77 3.59 3.59 0 01.74-1.33 3.11 3.11 0 011.18-.84 4.54 4.54 0 013.14 0 2.85 2.85 0 011.08.76 3 3 0 01.62 1.14 5 5 0 01.2 1.43zm-2-.59a2.16 2.16 0 00-.35-1.37 1.34 1.34 0 00-1.16-.5 1.52 1.52 0 00-.69.15 1.35 1.35 0 00-.49.4 1.91 1.91 0 00-.29.59 2.86 2.86 0 00-.12.73zM110.69 22.55a1.13 1.13 0 01-.26.87 1.38 1.38 0 01-.94.24 1.46 1.46 0 01-.95-.23 1.15 1.15 0 01-.24-.84 1.21 1.21 0 01.25-.86 1.95 1.95 0 011.89 0 1.08 1.08 0 01.25.82zm-.16 9.84a.19.19 0 010 .14.33.33 0 01-.17.11l-.31.06h-1.01l-.31-.06a.38.38 0 01-.17-.11.19.19 0 01-.05-.14v-7.33a.21.21 0 01.05-.15.38.38 0 01.17-.1 1.1 1.1 0 01.31-.07 3.58 3.58 0 01.51 0 3.43 3.43 0 01.5 0 1 1 0 01.31.07.33.33 0 01.17.1.21.21 0 010 .15zM115.65 32.39a.23.23 0 010 .14.45.45 0 01-.17.11l-.32.06h-1.01l-.31-.06a.38.38 0 01-.17-.11.24.24 0 010-.14V21.56a.25.25 0 010-.15.32.32 0 01.17-.11 1.1 1.1 0 01.31-.07 3.58 3.58 0 01.51 0 3.43 3.43 0 01.5 0 1.18 1.18 0 01.32.07.36.36 0 01.17.11.24.24 0 010 .15z"/>
    </g>
  </g>
</svg>
