<svg xmlns="http://www.w3.org/2000/svg" viewBox="0 0 111.68 55.72">
  <defs>
    <style>
      .cls-1{fill:#fff}
    </style>
  </defs>
  <g id="Calque_2" data-name="Calque 2">
    <g id="Calque_1-2" data-name="Calque 1">
      <path class="cls-1" d="M13.81 15.57a1.24 1.24 0 01-.1.52 1 1 0 01-.28.39 1.09 1.09 0 01-.41.23 2 2 0 01-.48.07h-1.45a3 3 0 01-.78-.09 1.55 1.55 0 01-.6-.33 3.05 3.05 0 01-.54-.65c-.17-.27-.36-.62-.58-1.05L4.45 6.87c-.25-.47-.49-1-.74-1.5S3.24 4.31 3 3.8c0 .62.06 1.24.07 1.85s0 1.25 0 1.9v8.72a.48.48 0 01-.07.24.55.55 0 01-.25.17 1.92 1.92 0 01-.47.11 5.35 5.35 0 01-.76 0 5.28 5.28 0 01-.75 0 1.94 1.94 0 01-.46-.11.48.48 0 01-.23-.17.48.48 0 01-.07-.24v-15A1.13 1.13 0 01.42.38a1.3 1.3 0 01.87-.3h1.82a3.79 3.79 0 01.82.08 1.83 1.83 0 01.6.28A2.33 2.33 0 015 1a7 7 0 01.47.85l3.28 6.06L9.31 9c.18.36.36.71.53 1.07s.34.71.51 1 .32.69.47 1c0-.6-.05-1.23-.06-1.88s0-1.28 0-1.87V.58a.38.38 0 01.08-.23.56.56 0 01.25-.18 1.7 1.7 0 01.48-.11h1.5a1.4 1.4 0 01.45.11.49.49 0 01.23.18.44.44 0 01.06.23zM28.86 15.42a5.53 5.53 0 010 .63 1.54 1.54 0 01-.1.4.52.52 0 01-.16.23.31.31 0 01-.21.07H20a1 1 0 01-.71-.25 1 1 0 01-.29-.82V1.15a1 1 0 01.29-.82A1 1 0 0120 .08h8.33a.36.36 0 01.2.06.54.54 0 01.16.23 1.68 1.68 0 01.09.41 3.82 3.82 0 010 .64 3.59 3.59 0 010 .61 1.8 1.8 0 01-.09.41.66.66 0 01-.16.22.31.31 0 01-.2.07h-6V6.8h5a.38.38 0 01.21.07.56.56 0 01.17.22 1.7 1.7 0 01.09.4 5.28 5.28 0 010 .61 5.22 5.22 0 010 .62 1.59 1.59 0 01-.09.4.46.46 0 01-.17.21.37.37 0 01-.21.06h-5v4.71h6a.31.31 0 01.21.07.48.48 0 01.16.22 1.75 1.75 0 01.1.41 5.34 5.34 0 01.06.62zM50.93 15.89a1.39 1.39 0 01-.21.49.85.85 0 01-.41.29 3.4 3.4 0 01-.69.13h-2.27a3.25 3.25 0 01-.7-.13.73.73 0 01-.37-.29 1.4 1.4 0 01-.18-.49L43.43 5.32l-2.55 10.57a1.34 1.34 0 01-.18.48.73.73 0 01-.37.29 2.51 2.51 0 01-.68.14h-2.33a3.36 3.36 0 01-.71-.13.73.73 0 01-.37-.29 1.62 1.62 0 01-.19-.49L32.26 1.34a3.9 3.9 0 01-.13-.73.46.46 0 01.15-.4.87.87 0 01.53-.21h2a1.66 1.66 0 01.54.09.42.42 0 01.24.21 1.28 1.28 0 01.1.38l2.91 12.79 3-12.68a1.42 1.42 0 01.14-.4.48.48 0 01.28-.24 1.74 1.74 0 01.6-.15H44.55a1.55 1.55 0 01.57.11.57.57 0 01.29.23 1.29 1.29 0 01.14.42l3.15 12.68L51.63.73a1.61 1.61 0 01.1-.35.42.42 0 01.27-.23 1.53 1.53 0 01.49-.15H54.31a.7.7 0 01.46.18.5.5 0 01.12.42 5.38 5.38 0 01-.13.75zM2.94 44.39a.6.6 0 00-.22-.47 1.82 1.82 0 00-.81-.34 2.58 2.58 0 01-1-.39.8.8 0 01-.33-.69.92.92 0 01.37-.75 1.49 1.49 0 011-.31 1.52 1.52 0 011 .33 1 1 0 01.37.8h-.4a.7.7 0 00-.28-.57 1 1 0 00-.72-.24 1 1 0 00-.7.21.58.58 0 00-.23.47.53.53 0 00.2.44 1.89 1.89 0 00.8.31 2.71 2.71 0 011 .41.88.88 0 01.35.73.94.94 0 01-.39.78 1.67 1.67 0 01-1 .3 1.66 1.66 0 01-1.1-.33.94.94 0 01-.38-.8h.4a.69.69 0 00.34.6 1.38 1.38 0 00.74.19 1.2 1.2 0 00.73-.2.62.62 0 00.26-.48zM7.76 43.55a2.27 2.27 0 01-.39 1.39 1.32 1.32 0 01-1.09.51 1.61 1.61 0 01-.71-.15 1.29 1.29 0 01-.49-.44v2h-.43v-5.35H5l.07.61a1.41 1.41 0 01.5-.5 1.44 1.44 0 01.73-.18 1.28 1.28 0 011.07.56 2.52 2.52 0 01.39 1.48zm-.43-.07a2.27 2.27 0 00-.33-1.2 1 1 0 00-.86-.47 1.09 1.09 0 00-.69.21 1.21 1.21 0 00-.41.53v1.87a1.19 1.19 0 00.42.49 1.22 1.22 0 00.69.18 1 1 0 00.85-.42 2 2 0 00.29-1.12zM10.48 45.45a1.54 1.54 0 01-1.22-.53 2 2 0 01-.46-1.36v-.2A2 2 0 019.27 42a1.48 1.48 0 011.17-.54 1.36 1.36 0 011.09.45 1.8 1.8 0 01.38 1.22v.33H9.22v.12a1.78 1.78 0 00.34 1.1 1.09 1.09 0 00.92.43 1.93 1.93 0 00.65-.11 1.44 1.44 0 00.49-.32l.19.3a1.63 1.63 0 01-.54.35 1.89 1.89 0 01-.79.12zm0-3.65a1 1 0 00-.81.36 1.54 1.54 0 00-.37.9h2.22V43a1.25 1.25 0 00-.28-.85.92.92 0 00-.8-.35zm.46-1.93h.52l-.89.93h-.38zM14.49 45.09a1.16 1.16 0 00.72-.24.81.81 0 00.32-.68h.38a1.07 1.07 0 01-.42.89 1.54 1.54 0 01-1 .36 1.46 1.46 0 01-1.21-.54 2.22 2.22 0 01-.43-1.39v-.15a2.24 2.24 0 01.43-1.34 1.46 1.46 0 011.2-.54 1.5 1.5 0 011 .38 1.2 1.2 0 01.4 1h-.38a1 1 0 00-.3-.74 1.1 1.1 0 00-.75-.28 1 1 0 00-.9.45 2 2 0 00-.3 1.12v.15a2 2 0 00.3 1.13 1 1 0 00.94.42zM17.61 40.4h-.43v-.6h.43zm0 5h-.43v-3.89h.43zM21.53 45.38a3.22 3.22 0 01-.06-.35v-.3a1.57 1.57 0 01-.56.52 1.73 1.73 0 01-.83.2 1.22 1.22 0 01-.88-.3 1.07 1.07 0 01-.31-.82 1 1 0 01.45-.84 2 2 0 011.18-.32h.95v-.48a.86.86 0 00-.26-.65 1.06 1.06 0 00-.74-.24 1.13 1.13 0 00-.71.22.65.65 0 00-.27.54h-.4a.91.91 0 01.37-.77 1.76 1.76 0 012 0 1.12 1.12 0 01.39.93v1.9a2.68 2.68 0 000 .4 2.87 2.87 0 00.08.38zm-1.42-.31a1.48 1.48 0 00.85-.23 1.18 1.18 0 00.49-.6v-.74h-.95a1.37 1.37 0 00-.86.25.71.71 0 00-.34.6.69.69 0 00.21.52.84.84 0 00.6.2zM23.79 45.38h-.43V39.8h.43zM25.74 40.4h-.42v-.6h.42zm0 5h-.42v-3.89h.42zM29.53 44.39a.6.6 0 00-.22-.47 1.82 1.82 0 00-.81-.34 2.58 2.58 0 01-1-.39.8.8 0 01-.33-.69.92.92 0 01.37-.75 1.49 1.49 0 011-.31 1.52 1.52 0 011 .33 1 1 0 01.37.8h-.39a.7.7 0 00-.28-.56 1 1 0 00-.72-.24 1 1 0 00-.7.21.58.58 0 00-.23.47.53.53 0 00.2.44 1.89 1.89 0 00.8.31 2.79 2.79 0 011 .41.88.88 0 01.35.73.94.94 0 01-.39.78 2 2 0 01-2.14 0 .94.94 0 01-.38-.8h.4a.69.69 0 00.34.6 1.38 1.38 0 00.74.19 1.25 1.25 0 00.74-.2.64.64 0 00.28-.52zM31.9 40.52v1h.86v.35h-.86v2.52a.85.85 0 00.14.54.49.49 0 00.37.16h.32l.07.32a1 1 0 01-.21.07h-.26a.79.79 0 01-.63-.25 1.25 1.25 0 01-.23-.82v-2.55h-.67v-.35h.67v-1zM35.35 45.45a1.54 1.54 0 01-1.22-.53 2 2 0 01-.46-1.36v-.2a2 2 0 01.47-1.36 1.49 1.49 0 011.17-.54 1.36 1.36 0 011.09.45 1.8 1.8 0 01.38 1.22v.33H34.1v.12a1.78 1.78 0 00.33 1.1 1.09 1.09 0 00.92.43A1.93 1.93 0 0036 45a1.59 1.59 0 00.5-.32l.18.3a1.63 1.63 0 01-.54.35 1.89 1.89 0 01-.79.12zm0-3.65a1 1 0 00-.81.36 1.54 1.54 0 00-.37.9h2.22V43a1.29 1.29 0 00-.27-.85 1 1 0 00-.81-.35zM40.26 44.39a.61.61 0 00-.23-.47 1.72 1.72 0 00-.8-.34 2.46 2.46 0 01-1-.39.81.81 0 01-.34-.69.93.93 0 01.38-.75 1.49 1.49 0 011-.31 1.53 1.53 0 011 .33 1 1 0 01.37.8h-.4A.72.72 0 0040 42a1 1 0 00-.72-.24 1.06 1.06 0 00-.71.21.61.61 0 00-.23.47.56.56 0 00.2.44 2 2 0 00.81.31 2.73 2.73 0 011 .41.85.85 0 01.35.73.94.94 0 01-.39.78 1.64 1.64 0 01-1 .3 1.71 1.71 0 01-1.11-.33 1 1 0 01-.38-.8h.39a.71.71 0 00.34.6 1.39 1.39 0 00.75.19 1.22 1.22 0 00.73-.2.62.62 0 00.23-.48zM43.86 43.48a2.52 2.52 0 01.4-1.48 1.26 1.26 0 011.09-.56 1.38 1.38 0 011.19.64V39.8H47v5.58h-.35l-.06-.56a1.4 1.4 0 01-.5.47 1.53 1.53 0 01-.72.16 1.28 1.28 0 01-1.08-.51 2.27 2.27 0 01-.4-1.39zm.43.07a2 2 0 00.28 1.12 1 1 0 00.85.41 1.24 1.24 0 00.69-.18 1.34 1.34 0 00.43-.51v-1.83a1.41 1.41 0 00-.42-.54 1.09 1.09 0 00-.69-.21 1 1 0 00-.85.46 2.28 2.28 0 00-.29 1.21zM49.87 45.45a1.53 1.53 0 01-1.22-.53 2 2 0 01-.47-1.36v-.2a2 2 0 01.48-1.36 1.48 1.48 0 011.17-.54 1.36 1.36 0 011.09.45 1.85 1.85 0 01.38 1.22v.33h-2.69v.12a1.78 1.78 0 00.33 1.1 1.11 1.11 0 00.93.43 2 2 0 00.65-.11 1.44 1.44 0 00.49-.32l.18.3a1.49 1.49 0 01-.53.35 1.89 1.89 0 01-.79.12zm0-3.65a1 1 0 00-.81.36 1.47 1.47 0 00-.37.9h2.21V43a1.29 1.29 0 00-.27-.85 1 1 0 00-.8-.35zM55 45.38h-.43V39.8H55zM57 40.82l-.26 1.09h-.26l.09-1.08v-.65H57zM58.93 40.4h-.42v-.6h.42zm0 5h-.42v-3.89h.42zM60.78 41.51v.67a1.47 1.47 0 01.51-.54 1.36 1.36 0 01.74-.2 1.19 1.19 0 011 .39 1.78 1.78 0 01.33 1.17v2.36h-.43V43a1.36 1.36 0 00-.25-.94.87.87 0 00-.7-.28 1.15 1.15 0 00-.74.23 1.29 1.29 0 00-.41.6v2.74h-.42v-3.84zM64.62 43.48A2.52 2.52 0 0165 42a1.26 1.26 0 011.09-.56 1.43 1.43 0 01.72.18 1.41 1.41 0 01.5.5l.06-.61h.34v3.89a1.54 1.54 0 01-.4 1.14 1.59 1.59 0 01-1.16.4 2.55 2.55 0 01-.59-.07 2.37 2.37 0 01-.55-.18l.08-.37a2.05 2.05 0 00.49.18 2.53 2.53 0 00.56.06 1.14 1.14 0 00.86-.3 1.17 1.17 0 00.28-.86v-.55a1.35 1.35 0 01-.5.45 1.54 1.54 0 01-.7.15 1.27 1.27 0 01-1.08-.52 2.22 2.22 0 01-.39-1.38zm.43.07a2 2 0 00.28 1.12 1 1 0 00.85.41 1.21 1.21 0 00.68-.18 1.27 1.27 0 00.43-.51v-1.84a1.31 1.31 0 00-.42-.53 1.09 1.09 0 00-.69-.21.94.94 0 00-.85.47 2.27 2.27 0 00-.28 1.2zM70.61 45.45a1.53 1.53 0 01-1.22-.53 2 2 0 01-.47-1.36v-.2a2.08 2.08 0 01.47-1.36 1.51 1.51 0 011.18-.54 1.33 1.33 0 011.08.45 1.81 1.81 0 01.35 1.2v.33h-2.65v.12a1.78 1.78 0 00.33 1.1 1.11 1.11 0 00.93.43 2 2 0 00.65-.11 1.54 1.54 0 00.49-.32l.18.3a1.49 1.49 0 01-.53.35 1.92 1.92 0 01-.79.14zm0-3.65a1 1 0 00-.81.36 1.48 1.48 0 00-.38.9h2.22V43a1.29 1.29 0 00-.27-.85 1 1 0 00-.8-.35zm.39-1.93h.53l-.89.93h-.39zM73.57 41.51v.67a1.47 1.47 0 01.51-.54 1.39 1.39 0 01.74-.2 1.19 1.19 0 011 .39 1.78 1.78 0 01.33 1.17v2.36h-.43V43a1.36 1.36 0 00-.25-.94.87.87 0 00-.7-.28A1.15 1.15 0 0074 42a1.29 1.29 0 00-.41.6v2.74h-.43v-3.83zM78 40.4h-.43v-.6H78zm0 5h-.43v-3.89H78zM81 45.45a1.51 1.51 0 01-1.21-.53 1.94 1.94 0 01-.47-1.36v-.2a2 2 0 01.45-1.36 1.51 1.51 0 011.17-.54 1.35 1.35 0 011.09.45 1.81 1.81 0 01.39 1.22v.33h-2.69v.12a1.78 1.78 0 00.33 1.1 1.09 1.09 0 00.92.43 1.88 1.88 0 00.65-.11 1.48 1.48 0 00.5-.32l.18.3a1.53 1.53 0 01-.54.35 1.89 1.89 0 01-.77.12zm0-3.65a1.06 1.06 0 00-.81.36 1.54 1.54 0 00-.37.9H82V43a1.29 1.29 0 00-.27-.85 1 1 0 00-.79-.35zM85.34 41.88h-.31a.93.93 0 00-.66.23 1.27 1.27 0 00-.37.62v2.67h-.43v-3.89H84v.65a1.33 1.33 0 01.45-.56 1.15 1.15 0 01.67-.2h.27zM86.84 40.4h-.42v-.6h.42zm0 5h-.42v-3.89h.42zM89.79 45.45a1.52 1.52 0 01-1.22-.53 2 2 0 01-.47-1.36v-.2a2.08 2.08 0 01.47-1.36 1.51 1.51 0 011.18-.54 1.33 1.33 0 011.08.45 1.81 1.81 0 01.39 1.22v.33h-2.69v.12a1.78 1.78 0 00.33 1.1 1.11 1.11 0 00.93.43 2 2 0 00.65-.11 1.54 1.54 0 00.49-.32l.18.3a1.49 1.49 0 01-.53.35 1.92 1.92 0 01-.79.12zm0-3.65a1 1 0 00-.81.36 1.48 1.48 0 00-.38.9h2.22V43a1.29 1.29 0 00-.27-.85 1 1 0 00-.8-.35zM92.78 45.31l-.38 1h-.29l.24-1v-.59h.43zM.46 52.26a2.52 2.52 0 01.39-1.48 1.27 1.27 0 011.09-.56 1.42 1.42 0 01.7.17 1.38 1.38 0 01.49.47v-2.27h.43v5.57h-.35l-.06-.56a1.4 1.4 0 01-.5.47 1.46 1.46 0 01-.71.16 1.29 1.29 0 01-1.09-.51 2.27 2.27 0 01-.39-1.39zm.43.07a2 2 0 00.28 1.12 1 1 0 00.84.41 1.22 1.22 0 00.69-.18 1.19 1.19 0 00.43-.51v-1.83a1.39 1.39 0 00-.41-.54 1.1 1.1 0 00-.7-.21 1 1 0 00-.85.46 2.28 2.28 0 00-.28 1.21zM7.52 53.53a1.3 1.3 0 01-.49.52 1.49 1.49 0 01-.75.18 1.16 1.16 0 01-1-.41A2 2 0 015 52.53v-2.24h.43v2.25a1.65 1.65 0 00.24 1 .81.81 0 00.68.31 1.26 1.26 0 00.77-.21 1.16 1.16 0 00.41-.6v-2.75h.43v3.87h-.4zM11.26 52.26a2.45 2.45 0 01.4-1.48 1.26 1.26 0 011.09-.56 1.41 1.41 0 01.69.17 1.49 1.49 0 01.5.47v-2.27h.43v5.57H14v-.56a1.33 1.33 0 01-.5.47 1.46 1.46 0 01-.71.16 1.28 1.28 0 01-1.08-.51 2.21 2.21 0 01-.4-1.39zm.43.07a2 2 0 00.31 1.12 1 1 0 00.85.41 1.27 1.27 0 00.69-.18 1.35 1.35 0 00.43-.51v-1.83a1.41 1.41 0 00-.42-.54 1.09 1.09 0 00-.69-.21 1 1 0 00-.85.46 2.28 2.28 0 00-.29 1.21zM16.28 49.18h-.43v-.59h.43zm0 5h-.43v-3.89h.43zM20.2 54.16a3.22 3.22 0 01-.06-.35v-.3a1.57 1.57 0 01-.56.52 1.73 1.73 0 01-.83.2 1.22 1.22 0 01-.88-.3 1.07 1.07 0 01-.31-.82 1 1 0 01.45-.84 2 2 0 011.16-.27h.95v-.48a.86.86 0 00-.26-.65 1.06 1.06 0 00-.74-.23 1.11 1.11 0 00-.71.21.65.65 0 00-.27.54h-.4a.92.92 0 01.38-.77 1.76 1.76 0 012.05 0 1.12 1.12 0 01.38.93v1.9a2.69 2.69 0 000 .4 2.79 2.79 0 00.07.38zm-1.42-.31a1.48 1.48 0 00.85-.23 1.23 1.23 0 00.49-.6v-.74h-.95a1.42 1.42 0 00-.87.25.72.72 0 00-.33.6.67.67 0 00.21.52.82.82 0 00.6.2zM21.82 52.26a2.52 2.52 0 01.39-1.48 1.29 1.29 0 011.1-.56 1.36 1.36 0 01.71.18 1.41 1.41 0 01.5.5l.06-.61h.35v3.89a1.54 1.54 0 01-.41 1.14 1.56 1.56 0 01-1.15.4 2.58 2.58 0 01-.6-.07 2.54 2.54 0 01-.55-.18l.08-.37a2.13 2.13 0 00.5.18 2.47 2.47 0 00.56.06 1.11 1.11 0 00.85-.3 1.18 1.18 0 00.29-.86v-.55a1.43 1.43 0 01-.5.45 1.57 1.57 0 01-.7.15 1.32 1.32 0 01-1.09-.51 2.27 2.27 0 01-.39-1.39zm.43.07a2 2 0 00.28 1.12 1 1 0 00.85.41 1.27 1.27 0 00.69-.18 1.35 1.35 0 00.43-.51v-1.84a1.31 1.31 0 00-.42-.53 1.09 1.09 0 00-.69-.21.93.93 0 00-.85.47 2.27 2.27 0 00-.29 1.2zM26.72 50.29v.67a1.47 1.47 0 01.51-.54 1.34 1.34 0 01.74-.2 1.19 1.19 0 011 .39 1.78 1.78 0 01.33 1.19v2.36h-.43v-2.35a1.36 1.36 0 00-.25-.94.87.87 0 00-.7-.28 1.13 1.13 0 00-.74.23 1.29 1.29 0 00-.41.6v2.74h-.43v-3.87zM30.47 52.17a2.08 2.08 0 01.47-1.4 1.67 1.67 0 012.48 0 2.08 2.08 0 01.47 1.4v.12a2.08 2.08 0 01-.47 1.4 1.54 1.54 0 01-1.23.54 1.57 1.57 0 01-1.25-.54 2.08 2.08 0 01-.47-1.4zm.43.12a1.85 1.85 0 00.34 1.13 1.11 1.11 0 00.95.45 1.1 1.1 0 00.93-.45 1.85 1.85 0 00.34-1.13v-.12a1.8 1.8 0 00-.34-1.12 1.1 1.1 0 00-.94-.46 1.09 1.09 0 00-.94.46 1.8 1.8 0 00-.34 1.12zM37.39 53.17a.6.6 0 00-.22-.47 1.82 1.82 0 00-.81-.34 2.46 2.46 0 01-1-.39.8.8 0 01-.33-.69.92.92 0 01.37-.75 1.49 1.49 0 011-.31 1.53 1.53 0 011 .33 1 1 0 01.37.8h-.4a.72.72 0 00-.27-.56 1 1 0 00-.72-.23 1 1 0 00-.7.2.61.61 0 00-.24.47.56.56 0 00.2.44 2 2 0 00.81.31 2.69 2.69 0 011 .42.86.86 0 01.35.72.92.92 0 01-.4.78 1.64 1.64 0 01-1 .3 1.71 1.71 0 01-1.11-.33 1 1 0 01-.38-.8h.39a.72.72 0 00.35.6 1.38 1.38 0 00.74.19 1.22 1.22 0 00.73-.2.62.62 0 00.27-.49zM39.76 49.3v1h.85v.35h-.85v2.52a.85.85 0 00.14.54.47.47 0 00.37.16h.32l.07.32a1 1 0 01-.22.07h-.25a.79.79 0 01-.63-.25 1.25 1.25 0 01-.23-.82v-2.55h-.67v-.35h.67v-1zM42.22 49.18h-.42v-.59h.42zm0 5h-.42v-3.89h.42zM45.11 53.87a1.18 1.18 0 00.73-.24.81.81 0 00.31-.68h.38a1.07 1.07 0 01-.42.89 1.54 1.54 0 01-1 .36 1.44 1.44 0 01-1.2-.54 2.16 2.16 0 01-.43-1.39v-.15a2.18 2.18 0 01.43-1.39 1.43 1.43 0 011.2-.54 1.47 1.47 0 011 .38 1.21 1.21 0 01.4 1h-.38a1 1 0 00-.3-.74 1.07 1.07 0 00-.74-.27 1 1 0 00-.91.44 2 2 0 00-.29 1.12v.15a2.06 2.06 0 00.29 1.13 1 1 0 00.93.47zM52.27 54.16c0-.14 0-.25-.06-.35s0-.2 0-.3a1.57 1.57 0 01-.56.52 1.7 1.7 0 01-.83.2 1.19 1.19 0 01-.87-.3 1.08 1.08 0 01-.32-.82 1 1 0 01.46-.84 2 2 0 011.15-.27h.95v-.48a.82.82 0 00-.26-.65 1 1 0 00-.74-.23 1.13 1.13 0 00-.71.21.65.65 0 00-.27.54h-.39a.91.91 0 01.37-.77 1.55 1.55 0 011-.33 1.49 1.49 0 011 .33 1.12 1.12 0 01.39.93v2.3c0 .13 0 .25.08.38zm-1.42-.31a1.48 1.48 0 00.85-.23 1.13 1.13 0 00.49-.6v-.74h-.95a1.39 1.39 0 00-.86.25.71.71 0 00-.34.6.65.65 0 00.22.52.8.8 0 00.59.2zm.6-4.27H51l-.86-.93h.55zM56.6 54.16h-.42v-5.57h.42zM60.52 54.16c0-.14 0-.25-.05-.35a1.51 1.51 0 010-.3 1.65 1.65 0 01-.56.52 1.73 1.73 0 01-.83.2 1.2 1.2 0 01-.88-.3 1.08 1.08 0 01-.32-.82 1 1 0 01.46-.84A2 2 0 0159.5 52h1v-.48a.86.86 0 00-.26-.65 1.09 1.09 0 00-.75-.23 1.13 1.13 0 00-.71.21.65.65 0 00-.27.54h-.39a.94.94 0 01.37-.77 1.57 1.57 0 011-.33 1.53 1.53 0 011 .33 1.15 1.15 0 01.38.93v1.9a2.69 2.69 0 000 .4 2.79 2.79 0 00.07.38zm-1.42-.31a1.52 1.52 0 00.86-.23 1.23 1.23 0 00.49-.6v-.74h-1a1.41 1.41 0 00-.86.25.73.73 0 00-.34.6.65.65 0 00.22.52.8.8 0 00.63.2zM66.14 50.66h-.3a1 1 0 00-.66.23 1.22 1.22 0 00-.38.62v2.67h-.42v-3.89h.37v.65a1.43 1.43 0 01.46-.56 1.13 1.13 0 01.67-.2h.26zM68.57 54.23a1.53 1.53 0 01-1.22-.53 2 2 0 01-.47-1.36v-.2a2.08 2.08 0 01.47-1.38 1.51 1.51 0 011.18-.54 1.33 1.33 0 011.08.45 1.81 1.81 0 01.39 1.22v.33h-2.69v.12a1.78 1.78 0 00.33 1.1 1.1 1.1 0 00.93.43 2 2 0 00.65-.11 1.54 1.54 0 00.49-.32l.18.3a1.49 1.49 0 01-.53.35 1.92 1.92 0 01-.79.14zm0-3.64a1 1 0 00-.81.35 1.51 1.51 0 00-.38.9h2.21v-.09a1.31 1.31 0 00-.27-.85.94.94 0 00-.79-.31zm.43-1.94h.53l-.89.93h-.39zM73.6 54.16c0-.14 0-.25-.06-.35s0-.2 0-.3A1.57 1.57 0 0173 54a1.7 1.7 0 01-.83.2 1.19 1.19 0 01-.87-.3 1.08 1.08 0 01-.32-.82 1 1 0 01.46-.84 2 2 0 011.13-.24h1v-.48a.82.82 0 00-.26-.65 1 1 0 00-.74-.23 1.13 1.13 0 00-.71.21.65.65 0 00-.27.54h-.39a.91.91 0 01.37-.77 1.55 1.55 0 011-.33 1.49 1.49 0 011 .33 1.12 1.12 0 01.39.93v2.3c0 .13 0 .25.08.38zm-1.42-.31a1.48 1.48 0 00.85-.23 1.13 1.13 0 00.49-.6v-.74h-1a1.39 1.39 0 00-.86.25.71.71 0 00-.34.6.65.65 0 00.22.52.8.8 0 00.64.2zM75.86 54.16h-.42v-5.57h.42zM77.82 49.18h-.43v-.59h.43zm0 5h-.43v-3.89h.43zM81.61 53.17a.61.61 0 00-.23-.47 1.83 1.83 0 00-.8-.34 2.46 2.46 0 01-1-.39.79.79 0 01-.34-.69.93.93 0 01.38-.75 1.46 1.46 0 011-.31 1.54 1.54 0 011 .33 1 1 0 01.36.8h-.4a.72.72 0 00-.27-.56 1.08 1.08 0 00-.73-.23 1 1 0 00-.7.2.63.63 0 00-.23.47.53.53 0 00.2.44 1.89 1.89 0 00.81.31 2.57 2.57 0 011 .42.86.86 0 01.35.72.94.94 0 01-.39.78 1.66 1.66 0 01-1 .3 1.71 1.71 0 01-1.11-.33 1 1 0 01-.38-.8h.39a.69.69 0 00.34.6 1.39 1.39 0 00.75.19 1.24 1.24 0 00.73-.2.62.62 0 00.27-.49zM85.76 54.16a3.22 3.22 0 01-.06-.35 1.51 1.51 0 010-.3 1.65 1.65 0 01-.56.52 1.73 1.73 0 01-.83.2 1.2 1.2 0 01-.88-.3 1.07 1.07 0 01-.31-.82 1 1 0 01.45-.84 2 2 0 011.16-.27h1v-.48a.86.86 0 00-.26-.65 1.09 1.09 0 00-.75-.23 1.13 1.13 0 00-.71.21.65.65 0 00-.27.54h-.44a.94.94 0 01.37-.77 1.57 1.57 0 011-.33 1.53 1.53 0 011 .33 1.15 1.15 0 01.38.93v1.9a2.69 2.69 0 000 .4 2.79 2.79 0 00.07.38zm-1.43-.31a1.52 1.52 0 00.86-.23 1.23 1.23 0 00.49-.6v-.74h-1a1.41 1.41 0 00-.86.25.73.73 0 00-.34.6.68.68 0 00.22.52.8.8 0 00.63.2zM88.2 49.3v1h.85v.35h-.85v2.52a.85.85 0 00.14.54.47.47 0 00.37.16h.32l.07.32a1 1 0 01-.22.07h-.25A.79.79 0 0188 54a1.25 1.25 0 01-.23-.82v-2.54h-.67v-.35h.67v-1zM90.66 49.18h-.42v-.59h.42zm0 5h-.42v-3.89h.42zM91.9 52.17a2.07 2.07 0 01.46-1.4 1.68 1.68 0 012.49 0 2.08 2.08 0 01.47 1.4v.12a2.08 2.08 0 01-.47 1.4 1.55 1.55 0 01-1.24.54 1.58 1.58 0 01-1.25-.54 2.07 2.07 0 01-.46-1.4zm.43.12a1.91 1.91 0 00.33 1.13 1.14 1.14 0 001 .45 1.12 1.12 0 00.94-.45 1.85 1.85 0 00.34-1.13v-.12a1.8 1.8 0 00-.34-1.12 1.2 1.2 0 00-1.89 0 1.86 1.86 0 00-.33 1.12zM96.88 50.29v.67a1.4 1.4 0 01.51-.54 1.34 1.34 0 01.74-.2 1.19 1.19 0 011 .39 1.78 1.78 0 01.33 1.19v2.36H99v-2.35a1.36 1.36 0 00-.25-.94.88.88 0 00-.7-.28 1.13 1.13 0 00-.74.23 1.29 1.29 0 00-.41.6v2.74h-.4v-3.87zM6.48 28.7a.71.71 0 01-.15.5.54.54 0 01-.42.16h-4a3 3 0 00.1.77 1.55 1.55 0 00.32.58 1.37 1.37 0 00.56.37 2.54 2.54 0 00.83.13 5.44 5.44 0 00.86-.07A6 6 0 005.2 31l.44-.16a1.07 1.07 0 01.29-.07.18.18 0 01.11 0 .24.24 0 01.08.09.78.78 0 010 .19v.31a2.35 2.35 0 010 .28 1 1 0 010 .19.46.46 0 010 .14l-.12.12a1.19 1.19 0 01-.27.14 4.41 4.41 0 01-.54.17 6.71 6.71 0 01-1.68.21A4.77 4.77 0 012 32.39a2.76 2.76 0 01-1.11-.67 2.68 2.68 0 01-.66-1.14 5.8 5.8 0 010-3.2 3.2 3.2 0 01.67-1.2 2.77 2.77 0 011.1-.75 3.65 3.65 0 011.41-.26 3.52 3.52 0 011.41.25 2.59 2.59 0 011 .67 2.76 2.76 0 01.55 1 4.35 4.35 0 01.18 1.28zm-1.81-.53a1.88 1.88 0 00-.31-1.23 1.22 1.22 0 00-1-.45 1.35 1.35 0 00-.62.13 1.26 1.26 0 00-.43.36 1.56 1.56 0 00-.27.53 2.76 2.76 0 00-.11.66zm-1-5.82a.86.86 0 01.13-.14.51.51 0 01.18-.09l.28-.05h.42a3.7 3.7 0 01.53 0 .87.87 0 01.28.08c.06 0 .09.08.08.13a.31.31 0 01-.07.16L4 24.17l-.12.13a.52.52 0 01-.15.07l-.23.05h-.75a.56.56 0 01-.21-.07.11.11 0 010-.12.34.34 0 01.07-.17zM15.19 32.19a.21.21 0 010 .13.28.28 0 01-.14.09 1.45 1.45 0 01-.29.06h-.9a1.45 1.45 0 01-.29-.06.24.24 0 01-.14-.09.21.21 0 01-.05-.13v-3.76a3 3 0 00-.07-.76 1.55 1.55 0 00-.2-.47.92.92 0 00-.35-.3 1.07 1.07 0 00-.49-.11 1.3 1.3 0 00-.72.26 3.78 3.78 0 00-.75.75v4.39a.2.2 0 010 .13.27.27 0 01-.16.09 1.33 1.33 0 01-.28.06h-.9a1.45 1.45 0 01-.29-.06.27.27 0 01-.15-.09.2.2 0 010-.13v-6.6a.28.28 0 010-.13.42.42 0 01.14-.09 1.09 1.09 0 01.25-.05 2.06 2.06 0 01.38 0 2.3 2.3 0 01.39 0 1.11 1.11 0 01.24.05.31.31 0 01.12.09.28.28 0 010 .13v.76a4 4 0 011.11-.88 2.49 2.49 0 011.18-.3 2.68 2.68 0 011.13.22 2 2 0 01.75.61 2.35 2.35 0 01.41.89 4.85 4.85 0 01.13 1.22zM24 28.7a.67.67 0 01-.16.5.53.53 0 01-.41.16h-4a2.61 2.61 0 00.1.77 1.43 1.43 0 00.32.58 1.31 1.31 0 00.56.37 2.54 2.54 0 00.83.13 5.21 5.21 0 00.85-.07 5.41 5.41 0 00.61-.14l.45-.16a1.07 1.07 0 01.29-.07.2.2 0 01.11 0 .22.22 0 01.07.09.49.49 0 010 .19 2.54 2.54 0 010 .31V31.83a.46.46 0 010 .14.38.38 0 01-.08.11 1 1 0 01-.26.14 4.11 4.11 0 01-.55.17 6 6 0 01-.76.15 6.52 6.52 0 01-.91.06 4.87 4.87 0 01-1.55-.22 2.72 2.72 0 01-1.1-.67 2.68 2.68 0 01-.66-1.14 5.22 5.22 0 01-.24-1.57 4.92 4.92 0 01.23-1.59 3.32 3.32 0 01.66-1.2 2.85 2.85 0 011.06-.75 3.73 3.73 0 011.41-.26 3.54 3.54 0 011.42.25 2.48 2.48 0 011 .67 2.64 2.64 0 01.56 1A4.35 4.35 0 0124 28.4zm-1.81-.53a1.88 1.88 0 00-.31-1.23 1.22 1.22 0 00-1-.45 1.35 1.35 0 00-.62.13 1.26 1.26 0 00-.43.36 1.56 1.56 0 00-.27.53 2.76 2.76 0 00-.11.66zM30.63 26.21v.43a1.19 1.19 0 01-.05.27.26.26 0 01-.07.13.2.2 0 01-.13 0h-.13l-.18-.04-.2-.06h-.24a.81.81 0 00-.31.06 1.32 1.32 0 00-.33.2 1.9 1.9 0 00-.34.35 6.24 6.24 0 00-.39.55v4.11a.21.21 0 01-.05.13.24.24 0 01-.15.09 1.33 1.33 0 01-.28.06h-.9a1.45 1.45 0 01-.29-.06.27.27 0 01-.15-.09.2.2 0 010-.13v-6.6a.28.28 0 010-.13.42.42 0 01.14-.09 1.11 1.11 0 01.24-.05 2.12 2.12 0 01.38 0 2.36 2.36 0 01.4 0 1.11 1.11 0 01.24.05l.12.09a.28.28 0 010 .13v.82a5.92 5.92 0 01.48-.61 3.47 3.47 0 01.44-.38 1.36 1.36 0 01.41-.19 1.52 1.52 0 01.42-.06H30.14l.21.06a.32.32 0 01.13.07.16.16 0 01.06.08v.36zM38.43 26.05a1.2 1.2 0 01-.09.53c-.05.11-.12.17-.2.17h-.77a1.07 1.07 0 01.23.4 1.49 1.49 0 01.07.47 2.51 2.51 0 01-.19 1 2.09 2.09 0 01-.55.76 2.41 2.41 0 01-.87.46 3.57 3.57 0 01-1.12.16 2.37 2.37 0 01-.61-.07 1.69 1.69 0 01-.44-.19.94.94 0 00-.16.23.6.6 0 00-.07.3.42.42 0 00.18.35 1 1 0 00.53.15l1.61.06A4.19 4.19 0 0137 31a2.25 2.25 0 01.74.38 1.79 1.79 0 01.46.6 2 2 0 01.16.79 2 2 0 01-.22.92 2 2 0 01-.64.75 3.61 3.61 0 01-1.1.56 5.63 5.63 0 01-1.51.18 6.68 6.68 0 01-1.44-.18 3.39 3.39 0 01-1-.37 1.52 1.52 0 01-.56-.57 1.59 1.59 0 01-.17-.72 1.84 1.84 0 01.06-.47 1.43 1.43 0 01.19-.42 1.85 1.85 0 01.3-.39 2.78 2.78 0 01.4-.35 1.3 1.3 0 01-.49-.47 1.16 1.16 0 01-.17-.64 1.52 1.52 0 01.2-.79 2.44 2.44 0 01.51-.65 1.92 1.92 0 01-.41-.62 2.34 2.34 0 01-.16-.9 2.4 2.4 0 01.21-1 2.07 2.07 0 01.56-.77 2.53 2.53 0 01.87-.48 3.5 3.5 0 011.11-.17 3.73 3.73 0 01.59 0 3.85 3.85 0 01.53.1h2.09a.24.24 0 01.21.16 1.45 1.45 0 01.11.57zm-2 6.83a.58.58 0 00-.26-.51 1.38 1.38 0 00-.74-.2h-1.32a1.71 1.71 0 00-.31.27 3 3 0 00-.18.24.61.61 0 00-.09.23.91.91 0 000 .23.62.62 0 00.38.57 2.46 2.46 0 001 .19 2.41 2.41 0 00.71-.09 1.37 1.37 0 00.47-.22.83.83 0 00.25-.32.86.86 0 00.13-.39zM36 27.61a1.13 1.13 0 00-.3-.83 1.15 1.15 0 00-.83-.29 1.22 1.22 0 00-.49.09 1.07 1.07 0 00-.34.25 1 1 0 00-.2.37 1.31 1.31 0 00-.07.44 1.07 1.07 0 00.3.8 1.12 1.12 0 00.82.29 1.26 1.26 0 00.49-.09 1 1 0 00.34-.24A1.31 1.31 0 0036 28a1.55 1.55 0 000-.39zM42.54 23.36a1 1 0 01-.23.78 1.27 1.27 0 01-.85.21 1.22 1.22 0 01-.84-.21 1 1 0 01-.22-.74 1.05 1.05 0 01.22-.78 1.24 1.24 0 01.86-.22 1.25 1.25 0 01.84.21 1 1 0 01.22.75zm-.14 8.83a.2.2 0 010 .13.27.27 0 01-.15.09 1.45 1.45 0 01-.29.06h-.9a1.62 1.62 0 01-.29-.06.27.27 0 01-.15-.09.2.2 0 010-.13v-6.58a.2.2 0 010-.13.36.36 0 01.15-.1 1.05 1.05 0 01.29-.06 5.07 5.07 0 01.9 0 1 1 0 01.29.06.36.36 0 01.15.1.2.2 0 010 .13zM51.23 28.7a.71.71 0 01-.15.5.54.54 0 01-.42.16h-4a2.61 2.61 0 00.1.77 1.34 1.34 0 00.88.95 2.43 2.43 0 00.82.13 5.34 5.34 0 00.86-.07A6 6 0 0050 31l.45-.16a.94.94 0 01.28-.07.18.18 0 01.11 0 .24.24 0 01.08.09.78.78 0 010 .19 2.82 2.82 0 010 .31 2.35 2.35 0 010 .28 1 1 0 010 .19.47.47 0 010 .14.76.76 0 01-.08.11 1 1 0 01-.26.14 5.31 5.31 0 01-.55.17 6.39 6.39 0 01-.76.15 6.67 6.67 0 01-.92.06 4.77 4.77 0 01-1.54-.22 2.83 2.83 0 01-1.11-.67 2.91 2.91 0 01-.7-1.13 5.55 5.55 0 01-.25-1.58 5.21 5.21 0 01.25-1.62 3.34 3.34 0 01.67-1.2 2.77 2.77 0 011.06-.75 3.69 3.69 0 011.41-.26 3.52 3.52 0 011.41.25 2.44 2.44 0 011 .67 2.76 2.76 0 01.55 1 4.35 4.35 0 01.18 1.28zm-1.8-.53a1.88 1.88 0 00-.32-1.23 1.21 1.21 0 00-1-.45 1.31 1.31 0 00-.61.13 1.29 1.29 0 00-.5.38 1.56 1.56 0 00-.27.53 2.76 2.76 0 00-.1.66zM62.93 31.14a3 3 0 010 .32.69.69 0 010 .22.39.39 0 010 .14.47.47 0 01-.12.14 1.48 1.48 0 01-.3.21 2.48 2.48 0 01-.49.22 4.61 4.61 0 01-.59.15 3.68 3.68 0 01-.66.06 3.74 3.74 0 01-1.35-.23 2.52 2.52 0 01-1-.7 3 3 0 01-.6-1.13 5 5 0 01-.28-1.54 5.52 5.52 0 01.25-1.72 3.46 3.46 0 01.69-1.19 2.85 2.85 0 011.05-.7 3.83 3.83 0 011.33-.23 3.68 3.68 0 01.58.05 4.26 4.26 0 01.54.14 3.62 3.62 0 01.44.2 1.64 1.64 0 01.28.19.92.92 0 01.11.14.46.46 0 010 .14.73.73 0 010 .22 3 3 0 010 .32 1.73 1.73 0 01-.07.6c0 .11-.11.17-.19.17a.45.45 0 01-.27-.1A3.66 3.66 0 0062 27a2.81 2.81 0 00-.46-.23 1.76 1.76 0 00-.64-.1 1.23 1.23 0 00-1.1.56 2.82 2.82 0 00-.39 1.63 3.76 3.76 0 00.1.94 2 2 0 00.28.68 1.15 1.15 0 00.47.41 1.44 1.44 0 00.67.14 1.9 1.9 0 00.66-.11 3 3 0 00.48-.26c.14-.09.26-.18.35-.25a.39.39 0 01.24-.12.15.15 0 01.11 0 .26.26 0 01.07.13 1.59 1.59 0 010 .26c.09.16.09.32.09.46zM71.75 28.82a4.94 4.94 0 01-.22 1.54 3.2 3.2 0 01-.67 1.2 2.94 2.94 0 01-1.13.78 4.27 4.27 0 01-1.59.27 4.39 4.39 0 01-1.53-.24 2.75 2.75 0 01-1.08-.71 2.93 2.93 0 01-.64-1.15 5.24 5.24 0 01-.21-1.51 5 5 0 01.23-1.54 3.21 3.21 0 01.68-1.2 2.88 2.88 0 011.12-.77 4.14 4.14 0 011.59-.28 4.45 4.45 0 011.54.24 2.79 2.79 0 011.08.71 3 3 0 01.63 1.14 5.37 5.37 0 01.2 1.52zm-1.91.08a4.94 4.94 0 00-.08-.9 2.14 2.14 0 00-.26-.71 1.33 1.33 0 00-.49-.48 1.64 1.64 0 00-.78-.17 1.66 1.66 0 00-.72.15 1.3 1.3 0 00-.51.45 2.24 2.24 0 00-.3.7 3.82 3.82 0 00-.1.94 4.91 4.91 0 00.08.89 2.35 2.35 0 00.26.72 1.33 1.33 0 00.5.47 1.58 1.58 0 00.76.16 1.68 1.68 0 00.74-.15 1.43 1.43 0 00.51-.44 1.94 1.94 0 00.29-.7 3.73 3.73 0 00.1-.93zM80.41 32.19a.21.21 0 010 .13.27.27 0 01-.15.09 1.33 1.33 0 01-.28.06h-.9a1.45 1.45 0 01-.29-.06.27.27 0 01-.15-.09.2.2 0 010-.13v-3.76a3 3 0 00-.07-.76 1.85 1.85 0 00-.2-.47.92.92 0 00-.35-.3 1.07 1.07 0 00-.49-.11 1.25 1.25 0 00-.72.26 3.78 3.78 0 00-.75.75v4.39a.21.21 0 010 .13.27.27 0 01-.15.09 1.33 1.33 0 01-.28.06h-.9a1.45 1.45 0 01-.29-.06.27.27 0 01-.15-.09.2.2 0 010-.13v-6.6a.28.28 0 010-.13.42.42 0 01.14-.09 1.11 1.11 0 01.24-.05 2.12 2.12 0 01.38 0 2.36 2.36 0 01.4 0 1.11 1.11 0 01.24.05l.12.09a.28.28 0 010 .13v.76a4.15 4.15 0 011.12-.88 2.46 2.46 0 011.18-.3 2.71 2.71 0 011.13.22 2 2 0 01.75.61 2.35 2.35 0 01.41.89 5.36 5.36 0 01.13 1.22zM88.1 31.14a3 3 0 010 .32v.22a.84.84 0 010 .14.47.47 0 01-.12.14 1.48 1.48 0 01-.3.21 2.78 2.78 0 01-.49.22 4.61 4.61 0 01-.59.15 3.71 3.71 0 01-.67.06 3.82 3.82 0 01-1.35-.23 2.48 2.48 0 01-1-.7 3.15 3.15 0 01-.61-1.13 5.38 5.38 0 01-.2-1.52A5.24 5.24 0 0183 27.3a3.17 3.17 0 01.69-1.19 2.85 2.85 0 011-.7 3.79 3.79 0 011.31-.23 3.28 3.28 0 011.11.19 3.18 3.18 0 01.45.2 1.64 1.64 0 01.28.19.92.92 0 01.11.14.46.46 0 01.05.1v.22a3 3 0 010 .32 1.73 1.73 0 01-.07.6c0 .11-.11.17-.19.17a.43.43 0 01-.27-.1 3.66 3.66 0 00-.33-.23 2.81 2.81 0 00-.46-.23 1.76 1.76 0 00-.64-.1 1.26 1.26 0 00-1.11.56 2.91 2.91 0 00-.38 1.63 3.76 3.76 0 00.1.94 1.83 1.83 0 00.28.68 1.15 1.15 0 00.47.41 1.41 1.41 0 00.67.14 1.9 1.9 0 00.66-.11 3.57 3.57 0 00.48-.26c.14-.09.25-.18.35-.25a.39.39 0 01.24-.12.15.15 0 01.11 0 .26.26 0 01.07.13v.26c0 .1.12.34.12.48zM96.42 28.7a.71.71 0 01-.15.5.54.54 0 01-.42.16h-4a2.61 2.61 0 00.1.77 1.41 1.41 0 00.31.58 1.45 1.45 0 00.56.37 2.54 2.54 0 00.83.13 5.44 5.44 0 00.86-.07 6 6 0 00.64-.16c.18-.06.33-.11.44-.16a1.07 1.07 0 01.29-.07.18.18 0 01.11 0 .24.24 0 01.08.09.78.78 0 010 .19 2.82 2.82 0 010 .31 2.35 2.35 0 010 .28 1 1 0 010 .19A1.27 1.27 0 0196 32a.76.76 0 01-.08.11 1 1 0 01-.27.14 4.41 4.41 0 01-.54.17 6.39 6.39 0 01-.76.15 6.77 6.77 0 01-.92.06 4.77 4.77 0 01-1.54-.22 2.83 2.83 0 01-1.11-.67 2.91 2.91 0 01-.66-1.14 5.8 5.8 0 010-3.2 3.34 3.34 0 01.67-1.2 2.77 2.77 0 011.06-.75 3.65 3.65 0 011.41-.26 3.52 3.52 0 011.41.25 2.52 2.52 0 011 .67 2.76 2.76 0 01.55 1 4.35 4.35 0 01.18 1.28zm-1.8-.53a1.88 1.88 0 00-.32-1.23 1.21 1.21 0 00-1-.45 1.38 1.38 0 00-.62.13 1.26 1.26 0 00-.43.36 1.56 1.56 0 00-.27.53 2.34 2.34 0 00-.1.66zM105.47 28.8a6 6 0 01-.19 1.58 3.49 3.49 0 01-.55 1.2 2.35 2.35 0 01-.9.76 2.73 2.73 0 01-1.24.27 2.89 2.89 0 01-.53 0 2.54 2.54 0 01-.46-.17 3.79 3.79 0 01-.45-.29 5.24 5.24 0 01-.46-.4v3.11a.2.2 0 010 .13.36.36 0 01-.15.1 1.05 1.05 0 01-.29.06 5.07 5.07 0 01-.9 0A1.05 1.05 0 0199 35a.36.36 0 01-.15-.1.2.2 0 010-.13v-9.18a.2.2 0 010-.13.29.29 0 01.13-.09 1.11 1.11 0 01.24-.05 2.12 2.12 0 01.38 0 2 2 0 01.37 0 1.09 1.09 0 01.25.05.48.48 0 01.13.09.28.28 0 010 .13v.78c.2-.2.39-.37.57-.52a3 3 0 01.57-.38 2.22 2.22 0 01.59-.22 2.78 2.78 0 01.66-.08 2.49 2.49 0 011.23.29 2.3 2.3 0 01.83.78 3.39 3.39 0 01.47 1.15 6.35 6.35 0 01.2 1.41zm-1.94.13a5.32 5.32 0 00-.06-.81 2.07 2.07 0 00-.22-.69 1.37 1.37 0 00-.39-.49 1.05 1.05 0 00-.62-.18 1.35 1.35 0 00-.74.24 3.26 3.26 0 00-.39.32 6.08 6.08 0 00-.42.5V30a4.25 4.25 0 00.75.77 1.21 1.21 0 00.74.27 1 1 0 00.62-.19 1.28 1.28 0 00.41-.48 2.38 2.38 0 00.24-.68 3.19 3.19 0 00.08-.76zM111.68 31.54a2.17 2.17 0 010 .5.54.54 0 01-.11.24.57.57 0 01-.19.13 1.93 1.93 0 01-.31.09l-.37.07h-.41a3.15 3.15 0 01-1-.14 1.72 1.72 0 01-.67-.43 1.75 1.75 0 01-.39-.74 4.07 4.07 0 01-.13-1.05v-3.36h-.79c-.09 0-.16-.06-.21-.17a1.59 1.59 0 01-.08-.58 3.57 3.57 0 010-.37.64.64 0 01.06-.23.19.19 0 01.09-.12.2.2 0 01.13 0h.78v-1.51a.24.24 0 01.19-.23 1 1 0 01.29-.06h.9a1 1 0 01.29.06.24.24 0 01.19.23v1.47h1.43a.18.18 0 01.13 0 .25.25 0 01.1.12 1 1 0 010 .23 3.57 3.57 0 010 .37 1.64 1.64 0 01-.07.58.24.24 0 01-.22.17H110V30a1.58 1.58 0 00.17.81.66.66 0 00.61.27 1.09 1.09 0 00.26 0 .65.65 0 00.21-.06l.16-.06h.2a.17.17 0 01.06.11.87.87 0 010 .21 3 3 0 01.01.26z"/>
    </g>
  </g>
</svg>
