<svg xmlns="http://www.w3.org/2000/svg" viewBox="0 0 94.496 92.622">
  <g fill="#fff" data-name="picto ingenierie">
    <path d="M55.517 66.148a23.859 23.859 0 01-1.231 4.606l5 4.53a30.034 30.034 0 01-2.421 4.225l-6.419-2.07a24.021 24.021 0 01-3.384 3.386l2.069 6.419a30.14 30.14 0 01-4.225 2.421l-4.53-5a23.8 23.8 0 01-4.606 1.231l-1.426 6.606c-.806.063-1.616.123-2.44.123s-1.633-.06-2.441-.123l-1.426-6.606a23.82 23.82 0 01-4.606-1.231l-4.53 5a30 30 0 01-4.226-2.421l2.07-6.419a24.062 24.062 0 01-3.382-3.383l-6.42 2.07a30.375 30.375 0 01-2.421-4.225l5-4.53a23.836 23.836 0 01-1.231-4.606l-6.6-1.427c-.064-.807-.123-1.617-.123-2.441s.059-1.633.123-2.441l6.6-1.426a23.815 23.815 0 011.231-4.606l-5-4.53a30.136 30.136 0 012.421-4.225l6.42 2.069a24.015 24.015 0 013.384-3.382l-2.07-6.42a30.367 30.367 0 014.225-2.421l4.53 5a23.806 23.806 0 014.606-1.231l1.426-6.6c.807-.064 1.616-.123 2.44-.123s1.634.059 2.441.123l1.427 6.6a23.849 23.849 0 014.606 1.231l4.53-5a30.255 30.255 0 014.225 2.421l-2.07 6.42a24.024 24.024 0 013.383 3.384l6.419-2.07a30.265 30.265 0 012.421 4.225l-5 4.53a23.813 23.813 0 011.231 4.606l6.606 1.426c.063.807.123 1.617.123 2.44s-.06 1.634-.123 2.441zM31.903 46.31a15.97 15.97 0 1015.969 15.97 15.969 15.969 0 00-15.969-15.97z" data-name="Tracé 1552"/>
    <path d="M77.67 21.248a12.759 12.759 0 01-.975 2.363l2.521 4.832a17.643 17.643 0 01-2.9 2.9l-4.832-2.521a12.625 12.625 0 01-2.364.976l-1.635 5.206a17.567 17.567 0 01-2.047.131 17.777 17.777 0 01-2.046-.13l-1.635-5.206a12.76 12.76 0 01-2.363-.975l-4.833 2.521a17.644 17.644 0 01-2.9-2.9l2.521-4.832a12.581 12.581 0 01-.976-2.364L48 19.614a16.165 16.165 0 010-4.094l5.206-1.635a12.729 12.729 0 01.975-2.364L51.66 6.689a17.694 17.694 0 012.9-2.9l4.832 2.522a12.559 12.559 0 012.364-.976L63.391.129a17.331 17.331 0 012.047-.131 17.533 17.533 0 012.046.13l1.635 5.206a12.691 12.691 0 012.363.975l4.833-2.521a17.636 17.636 0 012.9 2.9l-2.521 4.832a12.548 12.548 0 01.976 2.364l5.206 1.635a17.317 17.317 0 01.131 2.047 17.519 17.519 0 01-.129 2.045zM65.439 11.179a6.387 6.387 0 106.387 6.387 6.387 6.387 0 00-6.387-6.387z" data-name="Tracé 1553"/>
    <path d="M90.573 57.283a11.1 11.1 0 01-1.036 2.51l1.589 3.345a14.5 14.5 0 01-2.472 2.472l-3.345-1.589a11.082 11.082 0 01-2.51 1.036l-1.242 3.494a13.065 13.065 0 01-3.491 0l-1.242-3.494a11.11 11.11 0 01-2.511-1.036L70.97 65.61a14.5 14.5 0 01-2.472-2.472l1.589-3.345a11.093 11.093 0 01-1.037-2.509l-3.494-1.242a13.2 13.2 0 010-3.492l3.494-1.242a11.071 11.071 0 011.037-2.509l-1.589-3.345a14.5 14.5 0 012.472-2.472l3.343 1.589a11.065 11.065 0 012.511-1.036l1.242-3.494a13.949 13.949 0 011.745-.118 14.173 14.173 0 011.746.117l1.242 3.493a11.1 11.1 0 012.51 1.037l3.345-1.589a14.505 14.505 0 012.472 2.472l-1.589 3.343a11.086 11.086 0 011.036 2.511l3.494 1.242a13.195 13.195 0 010 3.491zm-10.761-7.778a4.79 4.79 0 104.79 4.79 4.791 4.791 0 00-4.79-4.79z" data-name="Tracé 1554"/>
    <path d="M94.496 3.225l-9.551-1.91-1.91 9.551 3.132.627.86-4.3a23.966 23.966 0 012.365 10.373 23.7 23.7 0 01-5.253 14.971l2.492 2a27.17 27.17 0 003.151-29l4.089.818z" data-name="Tracé 1555"/>
    <path d="M34.629 16.437l-2.258 2.258 2.17 2.171a41.476 41.476 0 00-2.639-.106 41.434 41.434 0 00-31.9 14.946l2.453 2.045a38.25 38.25 0 0129.45-13.8c.813 0 1.624.046 2.436.1l-1.967 1.967 2.258 2.258 5.92-5.92z" data-name="Tracé 1556"/>
  </g>
</svg>
