<?xml version="1.0" encoding="UTF-8" standalone="no"?>
<!-- Created with Inkscape (http://www.inkscape.org/) -->

<svg
   width="208mm"
   height="208mm"
   viewBox="0 0 208 208"
   version="1.1"
   id="svg1555"
   inkscape:version="1.1.2 (b8e25be833, 2022-02-05)"
   sodipodi:docname="dessin3.svg"
   xmlns:inkscape="http://www.inkscape.org/namespaces/inkscape"
   xmlns:sodipodi="http://sodipodi.sourceforge.net/DTD/sodipodi-0.dtd"
   xmlns="http://www.w3.org/2000/svg"
   xmlns:svg="http://www.w3.org/2000/svg">
  <sodipodi:namedview
     id="namedview1557"
     pagecolor="#000000"
     bordercolor="#666666"
     borderopacity="1.0"
     inkscape:pageshadow="2"
     inkscape:pageopacity="0"
     inkscape:pagecheckerboard="0"
     inkscape:document-units="mm"
     showgrid="false"
     inkscape:zoom="0.70377385"
     inkscape:cx="475.29473"
     inkscape:cy="496.60839"
     inkscape:window-width="1920"
     inkscape:window-height="976"
     inkscape:window-x="-8"
     inkscape:window-y="-8"
     inkscape:window-maximized="1"
     inkscape:current-layer="layer1" />
  <defs
     id="defs1552" />
  <g
     inkscape:label="Calque 1"
     inkscape:groupmode="layer"
     id="layer1">
    <path
       id="path11121"
       style="fill:#ffffff;fill-opacity:1;stroke:#7a3600;stroke-width:0.2645;stroke-opacity:0"
       d="m 136.48985,185.23554 a 36.517257,12.594303 0 0 0 -3.51984,5.38313 36.517257,12.594303 0 0 0 36.51681,12.59407 36.517257,12.594303 0 0 0 36.51732,-12.59407 36.517257,12.594303 0 0 0 -2.9525,-4.95938 36.517257,12.594303 0 0 1 -33.00263,7.21506 36.517257,12.594303 0 0 1 -33.55916,-7.63881 z" />
    <path
       id="path11121-3"
       style="fill:#ffffff;fill-opacity:1;stroke:#7a3600;stroke-width:0.261789;stroke-opacity:0"
       d="m 136.60601,166.9591 a 35.772435,12.594303 0 0 0 -3.44805,5.38313 35.772435,12.594303 0 0 0 35.77199,12.59406 35.772435,12.594303 0 0 0 35.77251,-12.59406 35.772435,12.594303 0 0 0 -2.89228,-4.95939 35.772435,12.594303 0 0 1 -32.3295,7.21506 35.772435,12.594303 0 0 1 -32.87467,-7.6388 z" />
    <path
       id="path11121-3-9"
       style="fill:#ffffff;fill-opacity:1;stroke:#7a3600;stroke-width:0.259926;stroke-opacity:0"
       d="m 137.68496,148.68282 a 35.265167,12.594303 0 0 0 -3.39915,5.38313 35.265167,12.594303 0 0 0 35.26473,12.59406 35.265167,12.594303 0 0 0 35.26524,-12.59406 35.265167,12.594303 0 0 0 -2.85126,-4.95939 35.265167,12.594303 0 0 1 -31.87107,7.21506 35.265167,12.594303 0 0 1 -32.40849,-7.6388 z" />
    <path
       id="path11121-3-9-9"
       style="fill:#ffffff;fill-opacity:1;stroke:#7a3600;stroke-width:0.261086;stroke-opacity:0"
       d="m 138.09131,130.407 a 35.580577,12.594303 0 0 0 -3.42955,5.38313 35.580577,12.594303 0 0 0 35.58014,12.59406 35.580577,12.594303 0 0 0 35.58064,-12.59406 35.580577,12.594303 0 0 0 -2.87676,-4.95939 35.580577,12.594303 0 0 1 -32.15611,7.21506 35.580577,12.594303 0 0 1 -32.69836,-7.6388 z" />
    <path
       id="path11121-3-9-9-9"
       style="fill:#ffffff;fill-opacity:1;stroke:#7a3600;stroke-width:0.261586;stroke-opacity:0"
       d="m 136.9766,112.13107 a 35.716876,12.594303 0 0 0 -3.44269,5.38313 35.716876,12.594303 0 0 0 35.71644,12.59406 35.716876,12.594303 0 0 0 35.71694,-12.59406 35.716876,12.594303 0 0 0 -2.88779,-4.95939 35.716876,12.594303 0 0 1 -32.27929,7.21506 35.716876,12.594303 0 0 1 -32.82361,-7.6388 z" />
    <path
       id="path11121-3-9-9-9-9"
       style="fill:#ffffff;fill-opacity:1;stroke:#7a3600;stroke-width:0.2611;stroke-opacity:0"
       d="m 137.71574,93.854998 a 35.584482,12.594303 0 0 0 -3.42993,5.38313 35.584482,12.594303 0 0 0 35.58404,12.594062 35.584482,12.594303 0 0 0 35.58455,-12.594062 35.584482,12.594303 0 0 0 -2.87708,-4.95939 35.584482,12.594303 0 0 1 -32.15964,7.215062 35.584482,12.594303 0 0 1 -32.70194,-7.638802 z" />
    <path
       id="path11121-3-9-9-9-9-5"
       style="fill:#ffffff;fill-opacity:1;stroke:#7a3600;stroke-width:0.259892;stroke-opacity:0"
       d="m 138.43594,75.578819 a 35.255782,12.594303 0 0 0 -3.39823,5.38313 35.255782,12.594303 0 0 0 35.25534,12.594057 35.255782,12.594303 0 0 0 35.25586,-12.594057 35.255782,12.594303 0 0 0 -2.85051,-4.95939 35.255782,12.594303 0 0 1 -31.86257,7.21506 35.255782,12.594303 0 0 1 -32.39989,-7.6388 z" />
    <path
       id="path11121-3-9-9-9-9-5-2"
       style="fill:#ffffff;fill-opacity:1;stroke:#7a3600;stroke-width:0.260397;stroke-opacity:0"
       d="m 137.32133,57.302893 a 35.392972,12.594303 0 0 0 -3.41147,5.38313 35.392972,12.594303 0 0 0 35.39253,12.59406 35.392972,12.594303 0 0 0 35.39305,-12.59406 35.392972,12.594303 0 0 0 -2.8616,-4.95939 35.392972,12.594303 0 0 1 -31.98657,7.21506 35.392972,12.594303 0 0 1 -32.52594,-7.6388 z" />
    <rect
       style="fill:#ffffff;fill-opacity:1;stroke:#7a3600;stroke-width:0.278063;stroke-opacity:0"
       id="rect12162"
       width="9.0227842"
       height="147.35876"
       x="133.18262"
       y="46.603928" />
    <rect
       style="fill:#ffffff;fill-opacity:1;stroke:#7a3600;stroke-width:0.276743;stroke-opacity:0"
       id="rect12162-0"
       width="9.0227842"
       height="145.96295"
       x="196.8206"
       y="46.30682" />
    <ellipse
       style="fill:#ffffff;fill-opacity:1;stroke:#7a3600;stroke-width:0.260333;stroke-opacity:0"
       id="path12288"
       cx="169.4368"
       cy="45.724289"
       rx="36.093472"
       ry="11.09284" />
    <ellipse
       style="fill:#ffffff;fill-opacity:1;stroke:#7a3600;stroke-width:0.263674;stroke-opacity:0"
       id="path12288-2"
       cx="106.26883"
       cy="136.8868"
       rx="37.031662"
       ry="11.091169" />
    <path
       id="path11121-2"
       style="fill:#ffffff;fill-opacity:1;stroke:#7a3600;stroke-width:0.264999;stroke-opacity:0"
       d="m 71.806793,185.23562 a 36.655062,12.594303 0 0 0 -3.53311,5.38313 36.655062,12.594303 0 0 0 36.654637,12.59407 36.655062,12.594303 0 0 0 36.65512,-12.59407 36.655062,12.594303 0 0 0 -2.96364,-4.95938 36.655062,12.594303 0 0 1 -33.12718,7.21506 36.655062,12.594303 0 0 1 -33.685827,-7.63881 z" />
    <path
       id="path11121-3-3"
       style="fill:#ffffff;fill-opacity:1;stroke:#7a3600;stroke-width:0.264999;stroke-opacity:0"
       d="m 71.994743,166.95962 a 36.655062,12.594303 0 0 0 -3.53311,5.38313 36.655062,12.594303 0 0 0 36.654637,12.59406 36.655062,12.594303 0 0 0 36.65512,-12.59406 36.655062,12.594303 0 0 0 -2.96364,-4.95939 36.655062,12.594303 0 0 1 -33.12718,7.21506 36.655062,12.594303 0 0 1 -33.685827,-7.6388 z" />
    <path
       id="path11121-3-9-1"
       style="fill:#ffffff;fill-opacity:1;stroke:#7a3600;stroke-width:0.264999;stroke-opacity:0"
       d="m 73.122593,148.68362 a 36.655062,12.594303 0 0 0 -3.53311,5.38313 36.655062,12.594303 0 0 0 36.654627,12.59406 36.655062,12.594303 0 0 0 36.65513,-12.59406 36.655062,12.594303 0 0 0 -2.96364,-4.95939 36.655062,12.594303 0 0 1 -33.12718,7.21506 36.655062,12.594303 0 0 1 -33.685827,-7.6388 z" />
    <path
       id="path11121-32"
       style="fill:#ffffff;fill-opacity:1;stroke:#7a3600;stroke-width:0.264999;stroke-opacity:0"
       d="m 7.0850773,185.23568 a 36.655062,12.594303 0 0 0 -3.5331212,5.38314 36.655062,12.594303 0 0 0 36.6546129,12.59406 36.655062,12.594303 0 0 0 36.65513,-12.59406 36.655062,12.594303 0 0 0 -2.96364,-4.95939 36.655062,12.594303 0 0 1 -33.12718,7.21506 36.655062,12.594303 0 0 1 -33.6858017,-7.63881 z" />
    <path
       id="path11121-3-98"
       style="fill:#ffffff;fill-opacity:1;stroke:#7a3600;stroke-width:0.264999;stroke-opacity:0"
       d="m 7.6137863,166.95962 a 36.655062,12.594303 0 0 0 -3.5331201,5.38313 36.655062,12.594303 0 0 0 36.6546118,12.59406 36.655062,12.594303 0 0 0 36.65513,-12.59406 36.655062,12.594303 0 0 0 -2.96364,-4.95939 36.655062,12.594303 0 0 1 -33.12718,7.21506 36.655062,12.594303 0 0 1 -33.6858017,-7.6388 z" />
    <path
       id="path11121-3-9-7"
       style="fill:#ffffff;fill-opacity:1;stroke:#7a3600;stroke-width:0.264999;stroke-opacity:0"
       d="m 7.6137863,148.68362 a 36.655062,12.594303 0 0 0 -3.5331201,5.38313 36.655062,12.594303 0 0 0 36.6546118,12.59406 36.655062,12.594303 0 0 0 36.65513,-12.59406 36.655062,12.594303 0 0 0 -2.96364,-4.95939 36.655062,12.594303 0 0 1 -33.12718,7.21506 36.655062,12.594303 0 0 1 -33.6858017,-7.6388 z" />
    <path
       id="path11121-3-9-9-6"
       style="fill:#ffffff;fill-opacity:1;stroke:#7a3600;stroke-width:0.264999;stroke-opacity:0"
       d="m 7.6137863,130.40762 a 36.655062,12.594303 0 0 0 -3.5331201,5.38313 36.655062,12.594303 0 0 0 36.6546118,12.59406 36.655062,12.594303 0 0 0 36.65513,-12.59406 36.655062,12.594303 0 0 0 -2.96364,-4.95939 36.655062,12.594303 0 0 1 -33.12718,7.21506 36.655062,12.594303 0 0 1 -33.6858017,-7.6388 z" />
    <path
       id="path11121-3-9-9-9-7"
       style="fill:#ffffff;fill-opacity:1;stroke:#7a3600;stroke-width:0.264999;stroke-opacity:0"
       d="m 7.6137863,112.13162 a 36.655062,12.594303 0 0 0 -3.5331201,5.38313 36.655062,12.594303 0 0 0 36.6546118,12.59406 36.655062,12.594303 0 0 0 36.65513,-12.59406 36.655062,12.594303 0 0 0 -2.96364,-4.95939 36.655062,12.594303 0 0 1 -33.12718,7.21506 36.655062,12.594303 0 0 1 -33.6858017,-7.6388 z" />
    <path
       id="path11121-3-9-9-9-9-4"
       style="fill:#ffffff;fill-opacity:1;stroke:#7a3600;stroke-width:0.262426;stroke-opacity:0"
       d="M 7.5442173,93.855202 A 35.946651,12.594303 0 0 0 4.0793797,99.238329 35.946651,12.594303 0 0 0 40.02559,111.83239 35.946651,12.594303 0 0 0 75.972308,99.238329 35.946651,12.594303 0 0 0 73.065945,94.278942 35.946651,12.594303 0 0 1 40.578994,101.494 35.946651,12.594303 0 0 1 7.5442173,93.855202 Z" />
    <rect
       style="fill:#ffffff;fill-opacity:1;stroke:#7a3600;stroke-width:0.238091;stroke-opacity:0"
       id="rect12162-9"
       width="9.0227842"
       height="108.03784"
       x="3.7646472"
       y="84.044434" />
    <rect
       style="fill:#ffffff;fill-opacity:1;stroke:#7a3600;stroke-width:0.240179;stroke-opacity:0"
       id="rect12162-9-0"
       width="9.0227842"
       height="109.94168"
       x="68.729225"
       y="82.140884" />
    <ellipse
       style="fill:#ffffff;fill-opacity:1;stroke:#7a3600;stroke-width:0.263674;stroke-opacity:0"
       id="path12288-7"
       cx="40.582764"
       cy="82.518837"
       rx="37.031677"
       ry="11.091169" />
  </g>
</svg>
