<svg xmlns="http://www.w3.org/2000/svg" viewBox="0 0 79.645 73.28">
  <g data-name="Picto plan">
    <path fill="#fff" d="M12.848 50.26a11.463 11.463 0 000 22.925l4.118.01V50.26z" data-name="Tracé 1548"/>
    <g data-name="Groupe 156">
      <path fill="#fff" d="M12.849 47.487h2.732V0h-2.732A12.85 12.85 0 000 12.849v42.787a14.238 14.238 0 0112.849-8.149z" data-name="Tracé 1549"/>
    </g>
    <g fill="#fff" data-name="Groupe 157">
      <path d="M43.865 53.342h2.773v7.1H67.1V41.08h-7.341v-2.773H67.1V22.26H46.638v16.047h6.851v2.773h-6.851v6.1h-2.773V22.26H28.922v38.178h14.944z" data-name="Tracé 1550"/>
      <path d="M18.354 9.755v40.5h-4.953v22.934l3.569.008v.085h62.676V9.755zm51.519 53.456H26.146V19.489h43.723z" data-name="Tracé 1551"/>
    </g>
  </g>
</svg>
