<?xml version="1.0" encoding="utf-8"?>
<!-- Generator: Adobe Illustrator 25.0.1, SVG Export Plug-In . SVG Version: 6.00 Build 0)  -->
<svg version="1.1" id="Calque_1" xmlns="http://www.w3.org/2000/svg" xmlns:xlink="http://www.w3.org/1999/xlink" x="0px" y="0px"
	 viewBox="0 0 100.583 71.09" enable-background="new 0 0 100.583 71.09" xml:space="preserve">
<g id="Calque_3">
</g>
<path fill="#FFFFFF" d="M99.533,65.823l-13.8-13.8c3.446-4.364,5.522-9.86,5.522-15.84c0-14.129-11.494-25.623-25.623-25.623
	c-4.509,0-8.744,1.18-12.429,3.234c-5.457-8.825-15.264-14.088-25.8-13.596C19.728,0.562,12.655,3.891,7.485,9.572
	c-5.169,5.683-7.816,13.039-7.453,20.713c0.728,15.381,13.473,27.402,28.713,27.402c0.456,0,0.916-0.012,1.376-0.033
	c5.685-0.269,11.009-2.146,15.54-5.455c4.7,5.849,11.9,9.607,19.97,9.607c5.98,0,11.474-2.075,15.838-5.521l13.8,13.8
	c0.588,0.589,1.36,0.883,2.131,0.883c0.771,0,1.543-0.294,2.131-0.883C100.711,68.908,100.711,67.001,99.533,65.823z M48.065,40.637
	c-0.469,0.812-1.154,1.728-1.974,2.606c-0.801-2.208-1.26-4.578-1.26-7.059c0-3.001,0.652-5.848,1.801-8.427
	c0.121,0.075,0.252,0.132,0.37,0.212C51.616,31.135,49.853,37.546,48.065,40.637z M20.655,44.708
	c-4.388,2.096-8.449-2.017-10.006-4.71c-1.554-2.694-3.091-8.272,0.921-11.026c4.624-3.179,12.222-1.178,14.266-0.55
	c-0.239,0.456-0.377,0.979-0.377,1.531c0,1.603,1.146,2.938,2.661,3.237C27.443,35.84,25.332,42.471,20.655,44.708z M26.427,27.617
	c-1.559-1.448-7.112-7.03-6.678-12.636c0.38-4.853,5.975-6.312,9.081-6.312c3.108,0,8.716,1.459,9.088,6.312
	c0.447,5.716-5.337,11.417-6.752,12.722c-0.599-0.645-1.455-1.049-2.408-1.049C27.85,26.654,27.027,27.022,26.427,27.617z
	 M36.864,44.799c-4.729-2.266-6.849-9.027-7.496-11.603c1.533-0.287,2.692-1.629,2.692-3.244c0-0.517-0.125-1.007-0.34-1.445
	c1.525-0.464,5.835-1.603,9.846-1.035c-0.989,2.724-1.557,5.649-1.557,8.711c0,3.069,0.57,6.001,1.564,8.73
	C40.126,45.484,38.52,45.591,36.864,44.799z M52.327,52.154c1.925-1.957,3.611-4.146,5.006-6.529
	c0.805,0.279,1.735,0.462,2.858,0.462c3.248,0,4.961-1.47,6.337-2.649c1.21-1.04,2.085-1.791,4.016-1.791
	c1.931,0,2.805,0.751,4.016,1.791c0.38,0.324,0.951,0.28,1.275-0.098c0.326-0.379,0.282-0.949-0.097-1.275
	c-1.276-1.095-2.595-2.227-5.195-2.227c-2.601,0-3.919,1.133-5.194,2.227c-1.269,1.088-2.581,2.214-5.159,2.214
	c-0.76,0-1.401-0.106-1.972-0.272c0.388-0.756,0.746-1.529,1.076-2.318c0.289,0.026,0.579,0.051,0.896,0.051
	c3.25,0,4.962-1.47,6.337-2.651c1.211-1.039,2.086-1.79,4.017-1.79c1.929,0,2.805,0.751,4.017,1.79
	c0.379,0.324,0.949,0.281,1.275-0.098c0.325-0.379,0.281-0.95-0.098-1.275c-1.276-1.094-2.595-2.226-5.194-2.226
	c-2.6,0-3.919,1.132-5.195,2.226c-1.268,1.089-2.579,2.215-5.159,2.215c-0.075,0-0.14-0.01-0.213-0.012
	c0.295-0.838,0.554-1.693,0.782-2.561c2.873-0.164,4.477-1.51,5.768-2.617c1.211-1.041,2.086-1.792,4.016-1.792
	c1.929,0,2.804,0.751,4.016,1.792c0.38,0.324,0.951,0.28,1.275-0.098c0.326-0.379,0.282-0.949-0.097-1.275
	c-1.276-1.095-2.596-2.228-5.195-2.228c-2.6,0-3.919,1.133-5.194,2.228c-1.093,0.938-2.224,1.899-4.164,2.148
	c0.426-2.115,0.661-4.299,0.661-6.538c0-4.467-0.905-8.722-2.518-12.613c1.99-0.634,4.105-0.982,6.302-0.982
	c11.469,0,20.8,9.331,20.8,20.8s-9.331,20.8-20.8,20.8C60.575,56.983,55.937,55.166,52.327,52.154z"/>
</svg>
