<svg xmlns="http://www.w3.org/2000/svg" viewBox="0 0 62.94 61.81"><defs><style>.cls-1{fill:#fff;}</style></defs><g id="Calque_2" data-name="Calque 2"><g id="Calque_1-2" data-name="Calque 1"><path class="cls-1" d="M30,50.75V57.1a2.43,2.43,0,0,1-.24,1.15,1.3,1.3,0,0,1-.68.56,2.44,2.44,0,0,1-.33.09H12.33a2.29,2.29,0,0,1-1.5-.54,1.46,1.46,0,0,1-.53-1.1V29.8H3.87A1,1,0,0,1,3,29.32a.46.46,0,0,1,0-.21.55.55,0,0,1,.2-.42l10.67-9.86V11.24A1.94,1.94,0,0,1,15.72,9.3h8.37l6.62-6.12a1.2,1.2,0,0,1,1.52,0l27.6,25.51a.55.55,0,0,1,.2.42.46.46,0,0,1-.05.21,1,1,0,0,1-.91.48H52.64V57.27a1.46,1.46,0,0,1-.53,1.1,2.27,2.27,0,0,1-1.5.54H35.86a1.45,1.45,0,0,0,0,2.9H50.61A5.14,5.14,0,0,0,54,60.54a4.4,4.4,0,0,0,1.51-3.27V32.7h3.52a3.85,3.85,0,0,0,3.53-2.13,3.29,3.29,0,0,0,.34-1.46,3.5,3.5,0,0,0-1.14-2.56L34.2,1a4.1,4.1,0,0,0-5.46,0L23,6.39H15.72a4.85,4.85,0,0,0-4.85,4.85v6.32l-9.73,9A3.52,3.52,0,0,0,0,29.11a3.36,3.36,0,0,0,.34,1.47A3.87,3.87,0,0,0,3.87,32.7H7.39V57.27A4.4,4.4,0,0,0,8.9,60.54a5.16,5.16,0,0,0,3.43,1.27H28.78a4.4,4.4,0,0,0,2.08-.64,4.11,4.11,0,0,0,1.45-1.5,5.25,5.25,0,0,0,.61-2.57V50.75Z"/><path class="cls-1" d="M32.74,23.05c.32-.32.7-.47.84-.33l.5.48c.14.13,0,.5-.33.82l-.4.4-1-1Z"/><path class="cls-1" d="M29.6,22.76l.73.7a.55.55,0,0,1,.6.09l2.31,2.22a.56.56,0,0,1-.05.81.61.61,0,0,1-.82.06l-2.31-2.23a.51.51,0,0,1-.1-.59l-.54-.52-4.85,4.82-.37-.35,5-5a.29.29,0,0,1,.18-.07A.24.24,0,0,1,29.6,22.76Z"/><path class="cls-1" d="M22.49,31.75,25,34.18l-3.09.92-.06-.05-.24.24a.17.17,0,0,1-.21,0,.15.15,0,0,1,0-.2l.25-.24-.06-.05Z"/><path class="cls-1" d="M29.79,24.68l2.32,2.22.13.1-7,6.91-2.52-2.42,7-6.91Z"/><path class="cls-1" d="M33.51,25.51l-2.32-2.23-.1-.07.16-.15c.18-.19.62-.06,1,.28l1.24,1.19c.36.34.49.77.31.95l-.16.15Z"/><path class="cls-1" d="M35.81,26,37,27.17l-.27.27-1.19-1.19-1.36,1.37,1.18,1.19-.27.27-1.18-1.19-1.37,1.37,1.19,1.19-.27.27-1.19-1.19L30.9,30.9l1.19,1.18-.27.27-1.19-1.18L26,35.81,27.18,37l-.27.27-1.19-1.18-5.14,5.14h19v-19ZM25.27,38.9l-1.19-1.19.27-.27,1.19,1.19Zm3.28-3.27-1.19-1.19.27-.27,1.19,1.19Zm.72-3.1,1.18,1.19-.27.27L29,32.8Zm6.54,4.88h-6l6-6Z"/></g></g></svg>