<svg xmlns="http://www.w3.org/2000/svg" viewBox="0 0 72.65 71.35"><defs><style>.cls-1{fill:#fff;}</style></defs><g id="Calque_2" data-name="Calque 2"><g id="Calque_1-2" data-name="Calque 1"><path class="cls-1" d="M34.65,58.59v7.32a2.55,2.55,0,0,1-.28,1.32,1.41,1.41,0,0,1-.78.66,3.69,3.69,0,0,1-.38.1h-19a2.63,2.63,0,0,1-1.73-.62,1.71,1.71,0,0,1-.61-1.27V34.4H4.47a1.17,1.17,0,0,1-1.06-.56.77.77,0,0,1-.06-.24.69.69,0,0,1,.24-.48L15.91,21.74V13a2.25,2.25,0,0,1,2.24-2.24h9.66l7.65-7.06a1.34,1.34,0,0,1,1.74,0L69.06,33.12a.62.62,0,0,1,.24.48.6.6,0,0,1-.06.24,1.15,1.15,0,0,1-1,.56H60.77V66.11a1.69,1.69,0,0,1-.62,1.27,2.62,2.62,0,0,1-1.72.62h-17a1.68,1.68,0,1,0,0,3.35h17a5.91,5.91,0,0,0,4-1.47,5.06,5.06,0,0,0,1.74-3.77V37.75h4.07a4.47,4.47,0,0,0,4.08-2.46,4,4,0,0,0-.93-4.64L39.48,1.21a4.71,4.71,0,0,0-6.3,0L26.5,7.38H18.15A5.6,5.6,0,0,0,12.55,13v7.3L1.32,30.65A4.05,4.05,0,0,0,0,33.6a4,4,0,0,0,.39,1.7,4.49,4.49,0,0,0,4.08,2.45H8.53V66.11a5.06,5.06,0,0,0,1.74,3.77,6,6,0,0,0,4,1.47h19a5.06,5.06,0,0,0,2.41-.74,4.8,4.8,0,0,0,1.67-1.73,5.93,5.93,0,0,0,.7-3V58.58Z"/><path class="cls-1" d="M38.79,24.36a13.28,13.28,0,0,0-4.95.18,5.27,5.27,0,0,1,.93,1.11c.08.13.17.3.27.49a11.53,11.53,0,0,1,3.47,0,.9.9,0,1,0,.28-1.78Z"/><path class="cls-1" d="M47.32,42.61l-.61,0A11.4,11.4,0,0,1,44.27,46a.9.9,0,0,0,.63,1.55.88.88,0,0,0,.62-.25,13.33,13.33,0,0,0,3.21-4.92,5.45,5.45,0,0,1-1.22.19Z"/><path class="cls-1" d="M25.26,41.2a.9.9,0,0,0-1.72.53,13.06,13.06,0,0,0,1.39,3,12.49,12.49,0,0,0,1.17,1.61,5.19,5.19,0,0,1,.47-1.24c.09-.17.22-.37.37-.61-.17-.23-.33-.46-.48-.7A11.77,11.77,0,0,1,25.26,41.2Z"/><path class="cls-1" d="M38.37,27.07a10.44,10.44,0,0,0-2.9,0c.31.66.64,1.46,1,2.33a8.27,8.27,0,0,1,1.57.08,1.19,1.19,0,0,0,1.37-1A1.21,1.21,0,0,0,38.37,27.07Z"/><path class="cls-1" d="M43.16,42.14A8,8,0,0,1,42,43.64a1.2,1.2,0,0,0,0,1.7,1.17,1.17,0,0,0,.86.37,1.2,1.2,0,0,0,.84-.34,10.68,10.68,0,0,0,2.09-2.87C45,42.43,44.08,42.3,43.16,42.14Z"/><path class="cls-1" d="M27.26,43.33l.25.38c.44-.61,1-1.3,1.57-2a8.12,8.12,0,0,1-.63-1.49,1.2,1.2,0,0,0-2.29.72A10.28,10.28,0,0,0,27.26,43.33Z"/><path class="cls-1" d="M32.1,35.87a4.58,4.58,0,0,1,1.75-2,4.52,4.52,0,0,1,2.4-.68h.16a36.39,36.39,0,0,0-1.21-3.7c-.33-.86-.66-1.64-1-2.25a9.48,9.48,0,0,0-.44-.86l-.06-.11A4.07,4.07,0,0,0,32.37,25a3.91,3.91,0,0,0-5.27,5.44A33.16,33.16,0,0,0,32.1,35.87Z"/><path class="cls-1" d="M47.36,33.59h-.12A33.26,33.26,0,0,0,40,35.17l.13.2a4.57,4.57,0,0,1,.56,3.46,4.71,4.71,0,0,1-.6,1.42c1.18.32,2.46.58,3.64.78.91.15,1.76.25,2.45.32l1,.06h.29a3.91,3.91,0,0,0-.11-7.82Z"/><path class="cls-1" d="M32.36,40.18c0-.06-.07-.13-.11-.2a35.5,35.5,0,0,0-2.48,2.76c-.59.72-1.1,1.4-1.5,2-.22.31-.4.59-.53.82l-.11.19A3.89,3.89,0,0,0,29.22,51a3.84,3.84,0,0,0,1.84.47,3.91,3.91,0,0,0,3.45-2,34,34,0,0,0,2.25-7.09c-.17,0-.33,0-.5,0A4.56,4.56,0,0,1,32.36,40.18Z"/><path class="cls-1" d="M38.25,35.85l-.13-.13a2.47,2.47,0,0,0-.38-.28l-.28-.16a2.35,2.35,0,0,0-.44-.17l-.2,0a2.76,2.76,0,0,0-.57-.06,2.73,2.73,0,0,0-1.45.41,2.8,2.8,0,0,0-1.23,1.65c0,.07,0,.14,0,.21a2.31,2.31,0,0,0-.05.46,1.83,1.83,0,0,0,0,.33,2.36,2.36,0,0,0,.08.45l.06.2a2.84,2.84,0,0,0,.25.53,2.79,2.79,0,0,0,2.37,1.32,2.64,2.64,0,0,0,.78-.12h0a2.53,2.53,0,0,0,.61-.27l0,0,.05,0a2.21,2.21,0,0,0,.52-.44l0,0a2.78,2.78,0,0,0,.31-3.32A2.48,2.48,0,0,0,38.25,35.85Z"/></g></g></svg>