<svg xmlns="http://www.w3.org/2000/svg" viewBox="0 0 62.78 61.66"><defs><style>.cls-1{fill:#fff;}</style></defs><g id="Calque_2" data-name="Calque 2"><g id="Calque_1-2" data-name="Calque 1"><path class="cls-1" d="M29.94,49.75c0,.6-.12,8.13-.24,8.35a1.22,1.22,0,0,1-.68.56,1.45,1.45,0,0,1-.32.09H12.29a2.25,2.25,0,0,1-1.49-.54,1.48,1.48,0,0,1-.53-1.1V29.72H3.86A1,1,0,0,1,3,29.24.41.41,0,0,1,2.9,29a.53.53,0,0,1,.21-.41l10.63-9.84V11.21a1.94,1.94,0,0,1,1.94-1.93H24l6.61-6.11a1.18,1.18,0,0,1,1.5,0L59.68,28.62a.54.54,0,0,1,.2.41.41.41,0,0,1-.05.21,1,1,0,0,1-.91.48H52.51v27.4a1.45,1.45,0,0,1-.53,1.1,2.23,2.23,0,0,1-1.49.54H35.77a1.45,1.45,0,0,0,0,2.9H50.49a5.18,5.18,0,0,0,3.41-1.27,4.4,4.4,0,0,0,1.51-3.27V32.62h3.51a3.88,3.88,0,0,0,3.53-2.12,3.43,3.43,0,0,0-.8-4L34.11,1a4.08,4.08,0,0,0-5.44,0L22.9,6.38H15.68a4.83,4.83,0,0,0-4.83,4.83v6.31l-9.71,9A3.46,3.46,0,0,0,0,29,3.33,3.33,0,0,0,.34,30.5a3.85,3.85,0,0,0,3.52,2.12H7.37v24.5a4.4,4.4,0,0,0,1.51,3.27,5.18,5.18,0,0,0,3.41,1.27H28.7A4.67,4.67,0,0,0,30.79,61a4.13,4.13,0,0,0,1.44-1.49c.39-.7.61-8.76.61-9.77"/><path class="cls-1" d="M31,47.27a17.92,17.92,0,0,0,.8-1.76c0,.39,0,.78.05,1.2,0,0,5.76-1.06,8.32-5,1.87-2.88,6.12-5.82,6.12-5.82s-10.45-.26-13.6,5.79C33.6,29.33,13.52,24.3,13.52,24.3s5.78,7.21,8,13.53c1.87,5.3,7,9.15,7,9.15A2.63,2.63,0,0,0,31,47.27ZM41,38l-6.53,6S36,40.56,41,38ZM21,30.12c7.1,6.81,8.59,13.94,8.59,13.94Z"/></g></g></svg>