<svg xmlns="http://www.w3.org/2000/svg" viewBox="0 0 57.02 56"><defs><style>.cls-1{fill:#fff;}</style></defs><g id="Calque_2" data-name="Calque 2"><g id="Calque_1-2" data-name="Calque 1"><path class="cls-1" d="M27.2,46v5.75a2.17,2.17,0,0,1-.22,1,1.12,1.12,0,0,1-.62.51,1.7,1.7,0,0,1-.3.08H11.17a2,2,0,0,1-1.36-.49,1.33,1.33,0,0,1-.48-1V27H3.5a.9.9,0,0,1-.82-.44.36.36,0,0,1-.05-.19A.51.51,0,0,1,2.82,26l9.66-8.93V10.18a1.78,1.78,0,0,1,1.76-1.76h7.59l6-5.54a1,1,0,0,1,.68-.25,1,1,0,0,1,.69.25L54.2,26a.51.51,0,0,1,.19.38.36.36,0,0,1,0,.19.9.9,0,0,1-.82.44H47.69V51.88a1.29,1.29,0,0,1-.48,1,2,2,0,0,1-1.35.49H32.49a1.32,1.32,0,0,0,0,2.63H45.86A4.7,4.7,0,0,0,49,54.85a4,4,0,0,0,1.37-3V29.63h3.19a3.52,3.52,0,0,0,3.2-1.93A3.1,3.1,0,0,0,56,24.06L31,1A3.69,3.69,0,0,0,26,1L20.8,5.79H14.24a4.4,4.4,0,0,0-4.39,4.39v5.73L1,24.06a3.16,3.16,0,0,0-1,2.31A3,3,0,0,0,.31,27.7,3.51,3.51,0,0,0,3.5,29.63H6.7V51.88a4,4,0,0,0,1.36,3A4.71,4.71,0,0,0,11.17,56h14.9A4,4,0,0,0,28,55.42a3.73,3.73,0,0,0,1.31-1.36,4.67,4.67,0,0,0,.56-2.33V46Z"/><path class="cls-1" d="M29.59,43.12v-9l2.57-1.59c1.67-1,4.1-2.5,4.59-4.89h.64a.41.41,0,0,0,.43-.4V24.52a.42.42,0,0,0-.43-.41H34.6a.42.42,0,0,0-.42.41v2.67a.41.41,0,0,0,.42.4h.56c-.46,1.47-2.07,2.57-3.83,3.65l-1.74,1.07V22H32l-3.54-5.87L24.93,22h2.43V37.73l-1.74-1.07c-1.95-1.19-3.72-2.41-3.94-4.14a2,2,0,0,0,1.23-1.83,2.12,2.12,0,0,0-4.23,0,2,2,0,0,0,1.46,1.92c.28,2.62,2.89,4.22,4.65,5.29l2.57,1.59v3.63"/></g></g></svg>