<svg xmlns="http://www.w3.org/2000/svg" viewBox="0 0 69.63 68.38"><defs><style>.cls-1{fill:#fff;}</style></defs><g id="Calque_2" data-name="Calque 2"><g id="Calque_1-2" data-name="Calque 1"><path class="cls-1" d="M33.21,56.14v7a2.65,2.65,0,0,1-.27,1.27,1.41,1.41,0,0,1-.75.63,1.77,1.77,0,0,1-.37.09H13.63A2.49,2.49,0,0,1,12,64.57a1.6,1.6,0,0,1-.59-1.22V33H4.28a1.09,1.09,0,0,1-1-.53.78.78,0,0,1-.06-.23.65.65,0,0,1,.23-.46l11.8-10.91v-8.4a2.15,2.15,0,0,1,2.15-2.14h9.26L34,3.52a1.28,1.28,0,0,1,1.67,0L66.18,31.74a.6.6,0,0,1,.23.46.42.42,0,0,1-.06.23,1.07,1.07,0,0,1-1,.53H58.23V63.35a1.63,1.63,0,0,1-.58,1.22,2.51,2.51,0,0,1-1.66.59H39.67a1.61,1.61,0,0,0,0,3.22H56A5.68,5.68,0,0,0,59.78,67a4.85,4.85,0,0,0,1.67-3.62V36.18h3.9a4.29,4.29,0,0,0,3.9-2.36,3.7,3.7,0,0,0,.38-1.62,3.86,3.86,0,0,0-1.26-2.82L37.83,1.16a4.5,4.5,0,0,0-6,0L25.39,7.07h-8A5.36,5.36,0,0,0,12,12.43v7l-10.77,10A3.86,3.86,0,0,0,0,32.2a3.69,3.69,0,0,0,.37,1.62,4.31,4.31,0,0,0,3.91,2.36h3.9V63.35A4.85,4.85,0,0,0,9.85,67a5.68,5.68,0,0,0,3.78,1.41h18.2a5,5,0,0,0,2.31-.72A4.49,4.49,0,0,0,35.74,66a5.66,5.66,0,0,0,.68-2.84v-7Z"/><rect class="cls-1" x="22.37" y="42.52" width="7.79" height="2.01"/><rect class="cls-1" x="22.37" y="53.54" width="7.79" height="2.01"/><rect class="cls-1" x="22.37" y="50.78" width="7.79" height="2.01"/><rect class="cls-1" x="22.37" y="48.03" width="7.79" height="2.02"/><rect class="cls-1" x="22.37" y="45.28" width="7.79" height="2.01"/><rect class="cls-1" x="22.37" y="37.7" width="7.79" height="2.01"/><rect class="cls-1" x="22.37" y="29.3" width="7.79" height="2.01"/><rect class="cls-1" x="39.46" y="53.54" width="7.79" height="2.01"/><rect class="cls-1" x="39.46" y="50.78" width="7.79" height="2.01"/><rect class="cls-1" x="39.46" y="48.03" width="7.79" height="2.02"/><rect class="cls-1" x="39.46" y="45.28" width="7.79" height="2.01"/><rect class="cls-1" x="39.46" y="40.32" width="7.79" height="2.01"/><rect class="cls-1" x="39.46" y="31.92" width="7.79" height="2.01"/><rect class="cls-1" x="30.92" y="42.52" width="7.79" height="2.01"/><rect class="cls-1" x="30.92" y="39.77" width="7.79" height="2.01"/><rect class="cls-1" x="30.92" y="34.81" width="7.79" height="2.01"/><rect class="cls-1" x="30.92" y="26.41" width="7.79" height="2.01"/><rect class="cls-1" x="30.92" y="50.78" width="7.79" height="2.01"/><rect class="cls-1" x="30.92" y="48.03" width="7.79" height="2.02"/><rect class="cls-1" x="30.92" y="45.28" width="7.79" height="2.01"/></g></g></svg>