<svg xmlns="http://www.w3.org/2000/svg" viewBox="0 0 111.68 55.72"><defs><style>.cls-1{fill:#fff;}</style></defs><g id="Calque_2" data-name="Calque 2"><g id="Calque_1-2" data-name="Calque 1"><path class="cls-1" d="M13.81,15.57a1.24,1.24,0,0,1-.1.52,1,1,0,0,1-.28.39,1.09,1.09,0,0,1-.41.23,2,2,0,0,1-.48.07H11.09a3,3,0,0,1-.78-.09,1.55,1.55,0,0,1-.6-.33,3.05,3.05,0,0,1-.54-.65c-.17-.27-.36-.62-.58-1.05L4.45,6.87c-.25-.47-.49-1-.74-1.5S3.24,4.31,3,3.8H3c0,.62.06,1.24.07,1.85s0,1.25,0,1.9v8.72a.48.48,0,0,1-.07.24.55.55,0,0,1-.25.17,1.92,1.92,0,0,1-.47.11,5.35,5.35,0,0,1-.76,0,5.28,5.28,0,0,1-.75,0,1.94,1.94,0,0,1-.46-.11.48.48,0,0,1-.23-.17.48.48,0,0,1-.07-.24v-15A1.13,1.13,0,0,1,.42.38a1.3,1.3,0,0,1,.87-.3H3.11a3.79,3.79,0,0,1,.82.08,1.83,1.83,0,0,1,.6.28A2.33,2.33,0,0,1,5,1a7,7,0,0,1,.47.85L8.75,7.91,9.31,9c.18.36.36.71.53,1.07s.34.71.51,1,.32.69.47,1h0c0-.6-.05-1.23-.06-1.88s0-1.28,0-1.87V.58a.38.38,0,0,1,.08-.23.56.56,0,0,1,.25-.18,1.7,1.7,0,0,1,.48-.11c.2,0,.45,0,.76,0s.54,0,.74,0a1.4,1.4,0,0,1,.45.11.49.49,0,0,1,.23.18.44.44,0,0,1,.06.23Z"/><path class="cls-1" d="M28.86,15.42a5.53,5.53,0,0,1,0,.63,1.54,1.54,0,0,1-.1.4.52.52,0,0,1-.16.23.31.31,0,0,1-.21.07H20a1,1,0,0,1-.71-.25,1,1,0,0,1-.29-.82V1.15a1,1,0,0,1,.29-.82A1,1,0,0,1,20,.08h8.33a.36.36,0,0,1,.2.06.54.54,0,0,1,.16.23,1.68,1.68,0,0,1,.09.41,3.82,3.82,0,0,1,0,.64,3.59,3.59,0,0,1,0,.61,1.8,1.8,0,0,1-.09.41.66.66,0,0,1-.16.22.31.31,0,0,1-.2.07h-6V6.8h5a.38.38,0,0,1,.21.07.56.56,0,0,1,.17.22,1.7,1.7,0,0,1,.09.4,5.28,5.28,0,0,1,0,.61,5.22,5.22,0,0,1,0,.62,1.59,1.59,0,0,1-.09.4.46.46,0,0,1-.17.21.37.37,0,0,1-.21.06h-5V14.1h6a.31.31,0,0,1,.21.07.48.48,0,0,1,.16.22,1.75,1.75,0,0,1,.1.41A5.34,5.34,0,0,1,28.86,15.42Z"/><path class="cls-1" d="M50.93,15.89a1.39,1.39,0,0,1-.21.49.85.85,0,0,1-.41.29,3.4,3.4,0,0,1-.69.13c-.29,0-.65,0-1.09,0s-.88,0-1.18,0a3.25,3.25,0,0,1-.7-.13.73.73,0,0,1-.37-.29,1.4,1.4,0,0,1-.18-.49L43.43,5.32h0L40.88,15.89a1.34,1.34,0,0,1-.18.48.73.73,0,0,1-.37.29,2.51,2.51,0,0,1-.68.14q-.43,0-1.14,0c-.5,0-.9,0-1.19,0a3.36,3.36,0,0,1-.71-.13.73.73,0,0,1-.37-.29,1.62,1.62,0,0,1-.19-.49L32.26,1.34a3.9,3.9,0,0,1-.13-.73.46.46,0,0,1,.15-.4A.87.87,0,0,1,32.81,0q.36,0,1,0l1,0a1.66,1.66,0,0,1,.54.09.42.42,0,0,1,.24.21,1.28,1.28,0,0,1,.1.38L38.6,13.47h0l3-12.68a1.42,1.42,0,0,1,.14-.4.48.48,0,0,1,.28-.24A1.74,1.74,0,0,1,42.62,0q.35,0,.93,0c.41,0,.74,0,1,0a1.55,1.55,0,0,1,.57.11.57.57,0,0,1,.29.23,1.29,1.29,0,0,1,.14.42l3.15,12.68h0L51.63.73a1.61,1.61,0,0,1,.1-.35A.42.42,0,0,1,52,.15,1.53,1.53,0,0,1,52.49,0c.22,0,.54,0,.94,0s.67,0,.88,0a.7.7,0,0,1,.46.18.5.5,0,0,1,.12.42,5.38,5.38,0,0,1-.13.75Z"/><path class="cls-1" d="M2.94,44.39a.6.6,0,0,0-.22-.47,1.82,1.82,0,0,0-.81-.34,2.58,2.58,0,0,1-1-.39.8.8,0,0,1-.33-.69.92.92,0,0,1,.37-.75,1.49,1.49,0,0,1,1-.31,1.52,1.52,0,0,1,1,.33,1,1,0,0,1,.37.8v0H2.92A.7.7,0,0,0,2.64,42a1,1,0,0,0-.72-.24,1,1,0,0,0-.7.21.58.58,0,0,0-.23.47.53.53,0,0,0,.2.44,1.89,1.89,0,0,0,.8.31,2.71,2.71,0,0,1,1,.41.88.88,0,0,1,.35.73.94.94,0,0,1-.39.78,1.67,1.67,0,0,1-1,.3,1.66,1.66,0,0,1-1.1-.33.94.94,0,0,1-.38-.8v0h.4a.69.69,0,0,0,.34.6,1.38,1.38,0,0,0,.74.19,1.2,1.2,0,0,0,.73-.2A.62.62,0,0,0,2.94,44.39Z"/><path class="cls-1" d="M7.76,43.55a2.27,2.27,0,0,1-.39,1.39,1.32,1.32,0,0,1-1.09.51,1.61,1.61,0,0,1-.71-.15,1.29,1.29,0,0,1-.49-.44v2H4.65V41.51H5l.07.61a1.41,1.41,0,0,1,.5-.5,1.44,1.44,0,0,1,.73-.18A1.28,1.28,0,0,1,7.37,42a2.52,2.52,0,0,1,.39,1.48Zm-.43-.07A2.27,2.27,0,0,0,7,42.28a1,1,0,0,0-.86-.47,1.09,1.09,0,0,0-.69.21,1.21,1.21,0,0,0-.41.53v1.87a1.19,1.19,0,0,0,.42.49,1.22,1.22,0,0,0,.69.18A1,1,0,0,0,7,44.67a2,2,0,0,0,.29-1.12Z"/><path class="cls-1" d="M10.48,45.45a1.54,1.54,0,0,1-1.22-.53,2,2,0,0,1-.46-1.36v-.2A2,2,0,0,1,9.27,42a1.48,1.48,0,0,1,1.17-.54,1.36,1.36,0,0,1,1.09.45,1.8,1.8,0,0,1,.38,1.22v.33H9.22v.12a1.78,1.78,0,0,0,.34,1.1,1.09,1.09,0,0,0,.92.43,1.93,1.93,0,0,0,.65-.11,1.44,1.44,0,0,0,.49-.32l.19.3a1.63,1.63,0,0,1-.54.35A1.89,1.89,0,0,1,10.48,45.45Zm0-3.65a1,1,0,0,0-.81.36,1.54,1.54,0,0,0-.37.9v0h2.22V43a1.25,1.25,0,0,0-.28-.85A.92.92,0,0,0,10.44,41.8Zm.46-1.93h.52v0l-.89.93h-.38Z"/><path class="cls-1" d="M14.49,45.09a1.16,1.16,0,0,0,.72-.24.81.81,0,0,0,.32-.68h.38v0a1.07,1.07,0,0,1-.42.89,1.54,1.54,0,0,1-1,.36,1.46,1.46,0,0,1-1.21-.54,2.22,2.22,0,0,1-.43-1.39v-.15A2.24,2.24,0,0,1,13.28,42a1.46,1.46,0,0,1,1.2-.54,1.5,1.5,0,0,1,1,.38,1.2,1.2,0,0,1,.4,1v0h-.38a1,1,0,0,0-.3-.74,1.1,1.1,0,0,0-.75-.28,1,1,0,0,0-.9.45,2,2,0,0,0-.3,1.12v.15a2,2,0,0,0,.3,1.13A1,1,0,0,0,14.49,45.09Z"/><path class="cls-1" d="M17.61,40.4h-.43v-.6h.43Zm0,5h-.43V41.51h.43Z"/><path class="cls-1" d="M21.53,45.38a3.22,3.22,0,0,1-.06-.35c0-.1,0-.2,0-.3a1.57,1.57,0,0,1-.56.52,1.73,1.73,0,0,1-.83.2,1.22,1.22,0,0,1-.88-.3,1.07,1.07,0,0,1-.31-.82,1,1,0,0,1,.45-.84,2,2,0,0,1,1.18-.32h.95v-.48a.86.86,0,0,0-.26-.65,1.06,1.06,0,0,0-.74-.24,1.13,1.13,0,0,0-.71.22.65.65,0,0,0-.27.54h-.4v0a.91.91,0,0,1,.37-.77,1.76,1.76,0,0,1,2,0,1.12,1.12,0,0,1,.39.93v1.9a2.68,2.68,0,0,0,0,.4,2.87,2.87,0,0,0,.08.38Zm-1.42-.31a1.48,1.48,0,0,0,.85-.23,1.18,1.18,0,0,0,.49-.6V43.5H20.5a1.37,1.37,0,0,0-.86.25.71.71,0,0,0-.34.6.69.69,0,0,0,.21.52A.84.84,0,0,0,20.11,45.07Z"/><path class="cls-1" d="M23.79,45.38h-.43V39.8h.43Z"/><path class="cls-1" d="M25.74,40.4h-.42v-.6h.42Zm0,5h-.42V41.51h.42Z"/><path class="cls-1" d="M29.53,44.39a.6.6,0,0,0-.22-.47,1.82,1.82,0,0,0-.81-.34,2.58,2.58,0,0,1-1-.39.8.8,0,0,1-.33-.69.92.92,0,0,1,.37-.75,1.49,1.49,0,0,1,1-.31,1.52,1.52,0,0,1,1,.33,1,1,0,0,1,.37.8v0h-.39a.7.7,0,0,0-.28-.56,1,1,0,0,0-.72-.24,1,1,0,0,0-.7.21.58.58,0,0,0-.23.47.53.53,0,0,0,.2.44,1.89,1.89,0,0,0,.8.31,2.79,2.79,0,0,1,1,.41.88.88,0,0,1,.35.73.94.94,0,0,1-.39.78,2,2,0,0,1-2.14,0,.94.94,0,0,1-.38-.8v0h.4a.69.69,0,0,0,.34.6,1.38,1.38,0,0,0,.74.19,1.25,1.25,0,0,0,.74-.2A.64.64,0,0,0,29.53,44.39Z"/><path class="cls-1" d="M31.9,40.52v1h.86v.35H31.9v2.52a.85.85,0,0,0,.14.54.49.49,0,0,0,.37.16h.15l.17,0,.07.32a1,1,0,0,1-.21.07l-.26,0a.79.79,0,0,1-.63-.25,1.25,1.25,0,0,1-.23-.82V41.86H30.8v-.35h.67v-1Z"/><path class="cls-1" d="M35.35,45.45a1.54,1.54,0,0,1-1.22-.53,2,2,0,0,1-.46-1.36v-.2A2,2,0,0,1,34.14,42a1.49,1.49,0,0,1,1.17-.54,1.36,1.36,0,0,1,1.09.45,1.8,1.8,0,0,1,.38,1.22v.33H34.1v.12a1.78,1.78,0,0,0,.33,1.1,1.09,1.09,0,0,0,.92.43A1.93,1.93,0,0,0,36,45a1.59,1.59,0,0,0,.5-.32l.18.3a1.63,1.63,0,0,1-.54.35A1.89,1.89,0,0,1,35.35,45.45Zm0-3.65a1,1,0,0,0-.81.36,1.54,1.54,0,0,0-.37.9v0h2.22V43a1.29,1.29,0,0,0-.27-.85A1,1,0,0,0,35.31,41.8Z"/><path class="cls-1" d="M40.26,44.39a.61.61,0,0,0-.23-.47,1.72,1.72,0,0,0-.8-.34,2.46,2.46,0,0,1-1-.39.81.81,0,0,1-.34-.69.93.93,0,0,1,.38-.75,1.49,1.49,0,0,1,1-.31,1.53,1.53,0,0,1,1,.33,1,1,0,0,1,.37.8v0h-.4A.72.72,0,0,0,40,42a1,1,0,0,0-.72-.24,1.06,1.06,0,0,0-.71.21.61.61,0,0,0-.23.47.56.56,0,0,0,.2.44,2,2,0,0,0,.81.31,2.73,2.73,0,0,1,1,.41.85.85,0,0,1,.35.73.94.94,0,0,1-.39.78,1.64,1.64,0,0,1-1,.3,1.71,1.71,0,0,1-1.11-.33,1,1,0,0,1-.38-.8v0h.39a.71.71,0,0,0,.34.6,1.39,1.39,0,0,0,.75.19,1.22,1.22,0,0,0,.73-.2A.62.62,0,0,0,40.26,44.39Z"/><path class="cls-1" d="M43.86,43.48a2.52,2.52,0,0,1,.4-1.48,1.26,1.26,0,0,1,1.09-.56,1.38,1.38,0,0,1,1.19.64V39.8H47v5.58h-.35l-.06-.56a1.4,1.4,0,0,1-.5.47,1.53,1.53,0,0,1-.72.16,1.28,1.28,0,0,1-1.08-.51,2.27,2.27,0,0,1-.4-1.39Zm.43.07a2,2,0,0,0,.28,1.12,1,1,0,0,0,.85.41,1.24,1.24,0,0,0,.69-.18,1.34,1.34,0,0,0,.43-.51V42.56a1.41,1.41,0,0,0-.42-.54,1.09,1.09,0,0,0-.69-.21,1,1,0,0,0-.85.46,2.28,2.28,0,0,0-.29,1.21Z"/><path class="cls-1" d="M49.87,45.45a1.53,1.53,0,0,1-1.22-.53,2,2,0,0,1-.47-1.36v-.2A2,2,0,0,1,48.66,42a1.48,1.48,0,0,1,1.17-.54,1.36,1.36,0,0,1,1.09.45,1.85,1.85,0,0,1,.38,1.22v.33H48.61v.12a1.78,1.78,0,0,0,.33,1.1,1.11,1.11,0,0,0,.93.43,2,2,0,0,0,.65-.11,1.44,1.44,0,0,0,.49-.32l.18.3a1.49,1.49,0,0,1-.53.35A1.89,1.89,0,0,1,49.87,45.45Zm0-3.65a1,1,0,0,0-.81.36,1.47,1.47,0,0,0-.37.9v0h2.21V43a1.29,1.29,0,0,0-.27-.85A1,1,0,0,0,49.83,41.8Z"/><path class="cls-1" d="M55,45.38h-.43V39.8H55Z"/><path class="cls-1" d="M57,40.82l-.26,1.09h-.26l.09-1.08v-.65H57Z"/><path class="cls-1" d="M58.93,40.4h-.42v-.6h.42Zm0,5h-.42V41.51h.42Z"/><path class="cls-1" d="M60.78,41.51l0,.67a1.47,1.47,0,0,1,.51-.54,1.36,1.36,0,0,1,.74-.2,1.19,1.19,0,0,1,1,.39A1.78,1.78,0,0,1,63.36,43v2.36h-.43V43a1.36,1.36,0,0,0-.25-.94.87.87,0,0,0-.7-.28,1.15,1.15,0,0,0-.74.23,1.29,1.29,0,0,0-.41.6v2.74h-.42V41.51Z"/><path class="cls-1" d="M64.62,43.48A2.52,2.52,0,0,1,65,42a1.26,1.26,0,0,1,1.09-.56,1.43,1.43,0,0,1,.72.18,1.41,1.41,0,0,1,.5.5l.06-.61h.34V45.4a1.54,1.54,0,0,1-.4,1.14,1.59,1.59,0,0,1-1.16.4,2.55,2.55,0,0,1-.59-.07,2.37,2.37,0,0,1-.55-.18l.08-.37a2.05,2.05,0,0,0,.49.18,2.53,2.53,0,0,0,.56.06,1.14,1.14,0,0,0,.86-.3,1.17,1.17,0,0,0,.28-.86v-.55a1.35,1.35,0,0,1-.5.45,1.54,1.54,0,0,1-.7.15A1.27,1.27,0,0,1,65,44.93a2.22,2.22,0,0,1-.39-1.38Zm.43.07a2,2,0,0,0,.28,1.12,1,1,0,0,0,.85.41,1.21,1.21,0,0,0,.68-.18,1.27,1.27,0,0,0,.43-.51V42.55a1.31,1.31,0,0,0-.42-.53,1.09,1.09,0,0,0-.69-.21.94.94,0,0,0-.85.47,2.27,2.27,0,0,0-.28,1.2Z"/><path class="cls-1" d="M70.61,45.45a1.53,1.53,0,0,1-1.22-.53,2,2,0,0,1-.47-1.36v-.2A2.08,2.08,0,0,1,69.39,42a1.51,1.51,0,0,1,1.18-.54,1.33,1.33,0,0,1,1.08.45A1.81,1.81,0,0,1,72,43.11v.33H69.35v.12a1.78,1.78,0,0,0,.33,1.1,1.11,1.11,0,0,0,.93.43,2,2,0,0,0,.65-.11,1.54,1.54,0,0,0,.49-.32l.18.3a1.49,1.49,0,0,1-.53.35A1.92,1.92,0,0,1,70.61,45.45Zm0-3.65a1,1,0,0,0-.81.36,1.48,1.48,0,0,0-.38.9v0h2.22V43a1.29,1.29,0,0,0-.27-.85A1,1,0,0,0,70.57,41.8ZM71,39.87h.53v0l-.89.93h-.39Z"/><path class="cls-1" d="M73.57,41.51l0,.67a1.47,1.47,0,0,1,.51-.54,1.39,1.39,0,0,1,.74-.2,1.19,1.19,0,0,1,1,.39A1.78,1.78,0,0,1,76.15,43v2.36h-.43V43a1.36,1.36,0,0,0-.25-.94.87.87,0,0,0-.7-.28A1.15,1.15,0,0,0,74,42a1.29,1.29,0,0,0-.41.6v2.74h-.43V41.51Z"/><path class="cls-1" d="M78,40.4h-.43v-.6H78Zm0,5h-.43V41.51H78Z"/><path class="cls-1" d="M81,45.45a1.51,1.51,0,0,1-1.21-.53,1.94,1.94,0,0,1-.47-1.36v-.2A2,2,0,0,1,79.77,42a1.51,1.51,0,0,1,1.17-.54,1.35,1.35,0,0,1,1.09.45,1.81,1.81,0,0,1,.39,1.22v.33H79.73v.12a1.78,1.78,0,0,0,.33,1.1,1.09,1.09,0,0,0,.92.43,1.88,1.88,0,0,0,.65-.11,1.48,1.48,0,0,0,.5-.32l.18.3a1.53,1.53,0,0,1-.54.35A1.89,1.89,0,0,1,81,45.45Zm0-3.65a1.06,1.06,0,0,0-.81.36,1.54,1.54,0,0,0-.37.9v0H82V43a1.29,1.29,0,0,0-.27-.85A1,1,0,0,0,80.94,41.8Z"/><path class="cls-1" d="M85.34,41.88l-.31,0a.93.93,0,0,0-.66.23,1.27,1.27,0,0,0-.37.62v2.67h-.43V41.51H84l0,.65v0a1.33,1.33,0,0,1,.45-.56,1.15,1.15,0,0,1,.67-.2h.15l.12,0Z"/><path class="cls-1" d="M86.84,40.4h-.42v-.6h.42Zm0,5h-.42V41.51h.42Z"/><path class="cls-1" d="M89.79,45.45a1.52,1.52,0,0,1-1.22-.53,2,2,0,0,1-.47-1.36v-.2A2.08,2.08,0,0,1,88.57,42a1.51,1.51,0,0,1,1.18-.54,1.33,1.33,0,0,1,1.08.45,1.81,1.81,0,0,1,.39,1.22v.33H88.53v.12a1.78,1.78,0,0,0,.33,1.1,1.11,1.11,0,0,0,.93.43,2,2,0,0,0,.65-.11,1.54,1.54,0,0,0,.49-.32l.18.3a1.49,1.49,0,0,1-.53.35A1.92,1.92,0,0,1,89.79,45.45Zm0-3.65a1,1,0,0,0-.81.36,1.48,1.48,0,0,0-.38.9v0h2.22V43a1.29,1.29,0,0,0-.27-.85A1,1,0,0,0,89.75,41.8Z"/><path class="cls-1" d="M92.78,45.31l-.38,1h-.29l.24-1v-.59h.43Z"/><path class="cls-1" d="M.46,52.26a2.52,2.52,0,0,1,.39-1.48,1.27,1.27,0,0,1,1.09-.56,1.42,1.42,0,0,1,.7.17,1.38,1.38,0,0,1,.49.47V48.59h.43v5.57H3.21l-.06-.56a1.4,1.4,0,0,1-.5.47,1.46,1.46,0,0,1-.71.16,1.29,1.29,0,0,1-1.09-.51,2.27,2.27,0,0,1-.39-1.39Zm.43.07a2,2,0,0,0,.28,1.12,1,1,0,0,0,.84.41,1.22,1.22,0,0,0,.69-.18,1.19,1.19,0,0,0,.43-.51V51.34a1.39,1.39,0,0,0-.41-.54,1.1,1.1,0,0,0-.7-.21,1,1,0,0,0-.85.46,2.28,2.28,0,0,0-.28,1.21Z"/><path class="cls-1" d="M7.52,53.53a1.3,1.3,0,0,1-.49.52,1.49,1.49,0,0,1-.75.18,1.16,1.16,0,0,1-1-.41A2,2,0,0,1,5,52.53V50.29h.43v2.25a1.65,1.65,0,0,0,.24,1,.81.81,0,0,0,.68.31,1.26,1.26,0,0,0,.77-.21,1.16,1.16,0,0,0,.41-.6V50.29h.43v3.87H7.56Z"/><path class="cls-1" d="M11.26,52.26a2.45,2.45,0,0,1,.4-1.48,1.26,1.26,0,0,1,1.09-.56,1.41,1.41,0,0,1,.69.17,1.49,1.49,0,0,1,.5.47V48.59h.43v5.57H14L14,53.6a1.33,1.33,0,0,1-.5.47,1.46,1.46,0,0,1-.71.16,1.28,1.28,0,0,1-1.08-.51,2.21,2.21,0,0,1-.4-1.39Zm.43.07A2,2,0,0,0,12,53.45a1,1,0,0,0,.85.41,1.27,1.27,0,0,0,.69-.18,1.35,1.35,0,0,0,.43-.51V51.34a1.41,1.41,0,0,0-.42-.54,1.09,1.09,0,0,0-.69-.21,1,1,0,0,0-.85.46,2.28,2.28,0,0,0-.29,1.21Z"/><path class="cls-1" d="M16.28,49.18h-.43v-.59h.43Zm0,5h-.43V50.29h.43Z"/><path class="cls-1" d="M20.2,54.16a3.22,3.22,0,0,1-.06-.35c0-.1,0-.2,0-.3a1.57,1.57,0,0,1-.56.52,1.73,1.73,0,0,1-.83.2,1.22,1.22,0,0,1-.88-.3,1.07,1.07,0,0,1-.31-.82,1,1,0,0,1,.45-.84A2,2,0,0,1,19.17,52h.95v-.48a.86.86,0,0,0-.26-.65,1.06,1.06,0,0,0-.74-.23,1.11,1.11,0,0,0-.71.21.65.65,0,0,0-.27.54h-.4v0a.92.92,0,0,1,.38-.77,1.76,1.76,0,0,1,2.05,0,1.12,1.12,0,0,1,.38.93v1.9a2.69,2.69,0,0,0,0,.4,2.79,2.79,0,0,0,.07.38Zm-1.42-.31a1.48,1.48,0,0,0,.85-.23,1.23,1.23,0,0,0,.49-.6v-.74h-.95a1.42,1.42,0,0,0-.87.25.72.72,0,0,0-.33.6.67.67,0,0,0,.21.52A.82.82,0,0,0,18.78,53.85Z"/><path class="cls-1" d="M21.82,52.26a2.52,2.52,0,0,1,.39-1.48,1.29,1.29,0,0,1,1.1-.56,1.36,1.36,0,0,1,.71.18,1.41,1.41,0,0,1,.5.5l.06-.61h.35v3.89a1.54,1.54,0,0,1-.41,1.14,1.56,1.56,0,0,1-1.15.4,2.58,2.58,0,0,1-.6-.07,2.54,2.54,0,0,1-.55-.18l.08-.37a2.13,2.13,0,0,0,.5.18,2.47,2.47,0,0,0,.56.06,1.11,1.11,0,0,0,.85-.3,1.18,1.18,0,0,0,.29-.86v-.55a1.43,1.43,0,0,1-.5.45,1.57,1.57,0,0,1-.7.15,1.32,1.32,0,0,1-1.09-.51,2.27,2.27,0,0,1-.39-1.39Zm.43.07a2,2,0,0,0,.28,1.12,1,1,0,0,0,.85.41,1.27,1.27,0,0,0,.69-.18,1.35,1.35,0,0,0,.43-.51V51.33a1.31,1.31,0,0,0-.42-.53,1.09,1.09,0,0,0-.69-.21.93.93,0,0,0-.85.47,2.27,2.27,0,0,0-.29,1.2Z"/><path class="cls-1" d="M26.72,50.29l0,.67a1.47,1.47,0,0,1,.51-.54,1.34,1.34,0,0,1,.74-.2,1.19,1.19,0,0,1,1,.39,1.78,1.78,0,0,1,.33,1.19v2.36h-.43V51.81a1.36,1.36,0,0,0-.25-.94.87.87,0,0,0-.7-.28,1.13,1.13,0,0,0-.74.23,1.29,1.29,0,0,0-.41.6v2.74h-.43V50.29Z"/><path class="cls-1" d="M30.47,52.17a2.08,2.08,0,0,1,.47-1.4,1.67,1.67,0,0,1,2.48,0,2.08,2.08,0,0,1,.47,1.4v.12a2.08,2.08,0,0,1-.47,1.4,1.54,1.54,0,0,1-1.23.54,1.57,1.57,0,0,1-1.25-.54,2.08,2.08,0,0,1-.47-1.4Zm.43.12a1.85,1.85,0,0,0,.34,1.13,1.11,1.11,0,0,0,.95.45,1.1,1.1,0,0,0,.93-.45,1.85,1.85,0,0,0,.34-1.13v-.12a1.8,1.8,0,0,0-.34-1.12,1.1,1.1,0,0,0-.94-.46,1.09,1.09,0,0,0-.94.46,1.8,1.8,0,0,0-.34,1.12Z"/><path class="cls-1" d="M37.39,53.17a.6.6,0,0,0-.22-.47,1.82,1.82,0,0,0-.81-.34,2.46,2.46,0,0,1-1-.39.8.8,0,0,1-.33-.69.92.92,0,0,1,.37-.75,1.49,1.49,0,0,1,1-.31,1.53,1.53,0,0,1,1,.33,1,1,0,0,1,.37.8v0h-.4a.72.72,0,0,0-.27-.56,1,1,0,0,0-.72-.23,1,1,0,0,0-.7.2.61.61,0,0,0-.24.47.56.56,0,0,0,.2.44,2,2,0,0,0,.81.31,2.69,2.69,0,0,1,1,.42.86.86,0,0,1,.35.72.92.92,0,0,1-.4.78,1.64,1.64,0,0,1-1,.3,1.71,1.71,0,0,1-1.11-.33,1,1,0,0,1-.38-.8v0h.39a.72.72,0,0,0,.35.6,1.38,1.38,0,0,0,.74.19,1.22,1.22,0,0,0,.73-.2A.62.62,0,0,0,37.39,53.17Z"/><path class="cls-1" d="M39.76,49.3v1h.85v.35h-.85v2.52a.85.85,0,0,0,.14.54.47.47,0,0,0,.37.16h.15l.17,0,.07.32a1,1,0,0,1-.22.07l-.25,0a.79.79,0,0,1-.63-.25,1.25,1.25,0,0,1-.23-.82V50.64h-.67v-.35h.67v-1Z"/><path class="cls-1" d="M42.22,49.18H41.8v-.59h.42Zm0,5H41.8V50.29h.42Z"/><path class="cls-1" d="M45.11,53.87a1.18,1.18,0,0,0,.73-.24.81.81,0,0,0,.31-.68h.38v0a1.07,1.07,0,0,1-.42.89,1.54,1.54,0,0,1-1,.36,1.44,1.44,0,0,1-1.2-.54,2.16,2.16,0,0,1-.43-1.39v-.15a2.18,2.18,0,0,1,.43-1.39,1.43,1.43,0,0,1,1.2-.54,1.47,1.47,0,0,1,1,.38,1.21,1.21,0,0,1,.4,1v0h-.38a1,1,0,0,0-.3-.74,1.07,1.07,0,0,0-.74-.27,1,1,0,0,0-.91.44,2,2,0,0,0-.29,1.12v.15a2.06,2.06,0,0,0,.29,1.13A1,1,0,0,0,45.11,53.87Z"/><path class="cls-1" d="M52.27,54.16c0-.14,0-.25-.06-.35s0-.2,0-.3a1.57,1.57,0,0,1-.56.52,1.7,1.7,0,0,1-.83.2,1.19,1.19,0,0,1-.87-.3,1.08,1.08,0,0,1-.32-.82,1,1,0,0,1,.46-.84A2,2,0,0,1,51.24,52h.95v-.48a.82.82,0,0,0-.26-.65,1,1,0,0,0-.74-.23,1.13,1.13,0,0,0-.71.21.65.65,0,0,0-.27.54h-.39v0a.91.91,0,0,1,.37-.77,1.55,1.55,0,0,1,1-.33,1.49,1.49,0,0,1,1,.33,1.12,1.12,0,0,1,.39.93v1.9c0,.13,0,.27,0,.4s0,.25.08.38Zm-1.42-.31a1.48,1.48,0,0,0,.85-.23,1.13,1.13,0,0,0,.49-.6v-.74h-.95a1.39,1.39,0,0,0-.86.25.71.71,0,0,0-.34.6.65.65,0,0,0,.22.52A.8.8,0,0,0,50.85,53.85Zm.6-4.27H51l-.86-.93v0h.55Z"/><path class="cls-1" d="M56.6,54.16h-.42V48.59h.42Z"/><path class="cls-1" d="M60.52,54.16c0-.14,0-.25-.05-.35a1.51,1.51,0,0,1,0-.3,1.65,1.65,0,0,1-.56.52,1.73,1.73,0,0,1-.83.2,1.2,1.2,0,0,1-.88-.3,1.08,1.08,0,0,1-.32-.82,1,1,0,0,1,.46-.84A2,2,0,0,1,59.5,52h1v-.48a.86.86,0,0,0-.26-.65,1.09,1.09,0,0,0-.75-.23,1.13,1.13,0,0,0-.71.21.65.65,0,0,0-.27.54h-.39v0a.94.94,0,0,1,.37-.77,1.57,1.57,0,0,1,1-.33,1.53,1.53,0,0,1,1,.33,1.15,1.15,0,0,1,.38.93v1.9a2.69,2.69,0,0,0,0,.4,2.79,2.79,0,0,0,.07.38Zm-1.42-.31a1.52,1.52,0,0,0,.86-.23,1.23,1.23,0,0,0,.49-.6v-.74h-1a1.41,1.41,0,0,0-.86.25.73.73,0,0,0-.34.6.65.65,0,0,0,.22.52A.8.8,0,0,0,59.1,53.85Z"/><path class="cls-1" d="M66.14,50.66l-.3,0a1,1,0,0,0-.66.23,1.22,1.22,0,0,0-.38.62v2.67h-.42V50.29h.37l0,.65v0a1.43,1.43,0,0,1,.46-.56,1.13,1.13,0,0,1,.67-.2h.15l.11,0Z"/><path class="cls-1" d="M68.57,54.23a1.53,1.53,0,0,1-1.22-.53,2,2,0,0,1-.47-1.36v-.2a2.08,2.08,0,0,1,.47-1.38,1.51,1.51,0,0,1,1.18-.54,1.33,1.33,0,0,1,1.08.45A1.81,1.81,0,0,1,70,51.89v.33H67.31v.12a1.78,1.78,0,0,0,.33,1.1,1.1,1.1,0,0,0,.93.43,2,2,0,0,0,.65-.11,1.54,1.54,0,0,0,.49-.32l.18.3a1.49,1.49,0,0,1-.53.35A1.92,1.92,0,0,1,68.57,54.23Zm0-3.64a1,1,0,0,0-.81.35,1.51,1.51,0,0,0-.38.9l0,0h2.21v-.09a1.31,1.31,0,0,0-.27-.85A.94.94,0,0,0,68.53,50.59ZM69,48.65h.53v0l-.89.93h-.39Z"/><path class="cls-1" d="M73.6,54.16c0-.14,0-.25-.06-.35s0-.2,0-.3A1.57,1.57,0,0,1,73,54a1.7,1.7,0,0,1-.83.2,1.19,1.19,0,0,1-.87-.3,1.08,1.08,0,0,1-.32-.82,1,1,0,0,1,.46-.84A2,2,0,0,1,72.57,52h1v-.48a.82.82,0,0,0-.26-.65,1,1,0,0,0-.74-.23,1.13,1.13,0,0,0-.71.21.65.65,0,0,0-.27.54h-.39v0a.91.91,0,0,1,.37-.77,1.55,1.55,0,0,1,1-.33,1.49,1.49,0,0,1,1,.33,1.12,1.12,0,0,1,.39.93v1.9c0,.13,0,.27,0,.4s0,.25.08.38Zm-1.42-.31a1.48,1.48,0,0,0,.85-.23,1.13,1.13,0,0,0,.49-.6v-.74h-1a1.39,1.39,0,0,0-.86.25.71.71,0,0,0-.34.6.65.65,0,0,0,.22.52A.8.8,0,0,0,72.18,53.85Z"/><path class="cls-1" d="M75.86,54.16h-.42V48.59h.42Z"/><path class="cls-1" d="M77.82,49.18h-.43v-.59h.43Zm0,5h-.43V50.29h.43Z"/><path class="cls-1" d="M81.61,53.17a.61.61,0,0,0-.23-.47,1.83,1.83,0,0,0-.8-.34,2.46,2.46,0,0,1-1-.39.79.79,0,0,1-.34-.69.93.93,0,0,1,.38-.75,1.46,1.46,0,0,1,1-.31,1.54,1.54,0,0,1,1,.33,1,1,0,0,1,.36.8v0h-.4a.72.72,0,0,0-.27-.56,1.08,1.08,0,0,0-.73-.23,1,1,0,0,0-.7.2.63.63,0,0,0-.23.47.53.53,0,0,0,.2.44,1.89,1.89,0,0,0,.81.31,2.57,2.57,0,0,1,1,.42.86.86,0,0,1,.35.72.94.94,0,0,1-.39.78,1.66,1.66,0,0,1-1,.3,1.71,1.71,0,0,1-1.11-.33,1,1,0,0,1-.38-.8v0h.39a.69.69,0,0,0,.34.6,1.39,1.39,0,0,0,.75.19,1.24,1.24,0,0,0,.73-.2A.62.62,0,0,0,81.61,53.17Z"/><path class="cls-1" d="M85.76,54.16a3.22,3.22,0,0,1-.06-.35,1.51,1.51,0,0,1,0-.3,1.65,1.65,0,0,1-.56.52,1.73,1.73,0,0,1-.83.2,1.2,1.2,0,0,1-.88-.3,1.07,1.07,0,0,1-.31-.82,1,1,0,0,1,.45-.84A2,2,0,0,1,84.73,52h1v-.48a.86.86,0,0,0-.26-.65,1.09,1.09,0,0,0-.75-.23,1.13,1.13,0,0,0-.71.21.65.65,0,0,0-.27.54H83.3v0a.94.94,0,0,1,.37-.77,1.57,1.57,0,0,1,1-.33,1.53,1.53,0,0,1,1,.33,1.15,1.15,0,0,1,.38.93v1.9a2.69,2.69,0,0,0,0,.4,2.79,2.79,0,0,0,.07.38Zm-1.43-.31a1.52,1.52,0,0,0,.86-.23,1.23,1.23,0,0,0,.49-.6v-.74h-1a1.41,1.41,0,0,0-.86.25.73.73,0,0,0-.34.6.68.68,0,0,0,.22.52A.8.8,0,0,0,84.33,53.85Z"/><path class="cls-1" d="M88.2,49.3v1h.85v.35H88.2v2.52a.85.85,0,0,0,.14.54.47.47,0,0,0,.37.16h.15l.17,0,.07.32a1,1,0,0,1-.22.07l-.25,0A.79.79,0,0,1,88,54a1.25,1.25,0,0,1-.23-.82V50.64H87.1v-.35h.67v-1Z"/><path class="cls-1" d="M90.66,49.18h-.42v-.59h.42Zm0,5h-.42V50.29h.42Z"/><path class="cls-1" d="M91.9,52.17a2.07,2.07,0,0,1,.46-1.4,1.68,1.68,0,0,1,2.49,0,2.08,2.08,0,0,1,.47,1.4v.12a2.08,2.08,0,0,1-.47,1.4,1.55,1.55,0,0,1-1.24.54,1.58,1.58,0,0,1-1.25-.54,2.07,2.07,0,0,1-.46-1.4Zm.43.12a1.91,1.91,0,0,0,.33,1.13,1.14,1.14,0,0,0,1,.45,1.12,1.12,0,0,0,.94-.45,1.85,1.85,0,0,0,.34-1.13v-.12a1.8,1.8,0,0,0-.34-1.12,1.2,1.2,0,0,0-1.89,0,1.86,1.86,0,0,0-.33,1.12Z"/><path class="cls-1" d="M96.88,50.29l0,.67a1.4,1.4,0,0,1,.51-.54,1.34,1.34,0,0,1,.74-.2,1.19,1.19,0,0,1,1,.39,1.78,1.78,0,0,1,.33,1.19v2.36H99V51.81a1.36,1.36,0,0,0-.25-.94.88.88,0,0,0-.7-.28,1.13,1.13,0,0,0-.74.23,1.29,1.29,0,0,0-.41.6v2.74H96.5V50.29Z"/><path class="cls-1" d="M6.48,28.7a.71.71,0,0,1-.15.5.54.54,0,0,1-.42.16h-4a3,3,0,0,0,.1.77,1.55,1.55,0,0,0,.32.58,1.37,1.37,0,0,0,.56.37,2.54,2.54,0,0,0,.83.13,5.44,5.44,0,0,0,.86-.07A6,6,0,0,0,5.2,31l.44-.16a1.07,1.07,0,0,1,.29-.07.18.18,0,0,1,.11,0,.24.24,0,0,1,.08.09.78.78,0,0,1,0,.19c0,.08,0,.19,0,.31a2.35,2.35,0,0,1,0,.28,1,1,0,0,1,0,.19.46.46,0,0,1,0,.14L6,32.09a1.19,1.19,0,0,1-.27.14,4.41,4.41,0,0,1-.54.17,6.71,6.71,0,0,1-1.68.21A4.77,4.77,0,0,1,2,32.39a2.76,2.76,0,0,1-1.11-.67,2.68,2.68,0,0,1-.66-1.14,5.8,5.8,0,0,1,0-3.2,3.2,3.2,0,0,1,.67-1.2A2.77,2.77,0,0,1,2,25.43a3.65,3.65,0,0,1,1.41-.26,3.52,3.52,0,0,1,1.41.25,2.59,2.59,0,0,1,1,.67,2.76,2.76,0,0,1,.55,1,4.35,4.35,0,0,1,.18,1.28Zm-1.81-.53a1.88,1.88,0,0,0-.31-1.23,1.22,1.22,0,0,0-1-.45,1.35,1.35,0,0,0-.62.13,1.26,1.26,0,0,0-.43.36,1.56,1.56,0,0,0-.27.53,2.76,2.76,0,0,0-.11.66Zm-1-5.82a.86.86,0,0,1,.13-.14.51.51,0,0,1,.18-.09l.28-.05h.42a3.7,3.7,0,0,1,.53,0,.87.87,0,0,1,.28.08c.06,0,.09.08.08.13a.31.31,0,0,1-.07.16L4,24.17l-.12.13a.52.52,0,0,1-.15.07l-.23.05H3.17l-.42,0a.56.56,0,0,1-.21-.07.11.11,0,0,1,0-.12.34.34,0,0,1,.07-.17Z"/><path class="cls-1" d="M15.19,32.19a.21.21,0,0,1,0,.13.28.28,0,0,1-.14.09,1.45,1.45,0,0,1-.29.06l-.45,0-.45,0a1.45,1.45,0,0,1-.29-.06.24.24,0,0,1-.14-.09.21.21,0,0,1-.05-.13V28.43a3,3,0,0,0-.07-.76,1.55,1.55,0,0,0-.2-.47.92.92,0,0,0-.35-.3,1.07,1.07,0,0,0-.49-.11,1.3,1.3,0,0,0-.72.26,3.78,3.78,0,0,0-.75.75v4.39a.2.2,0,0,1,0,.13.27.27,0,0,1-.16.09,1.33,1.33,0,0,1-.28.06l-.45,0-.45,0a1.45,1.45,0,0,1-.29-.06.27.27,0,0,1-.15-.09.2.2,0,0,1,0-.13v-6.6a.28.28,0,0,1,0-.13.42.42,0,0,1,.14-.09,1.09,1.09,0,0,1,.25-.05,2.06,2.06,0,0,1,.38,0,2.3,2.3,0,0,1,.39,0,1.11,1.11,0,0,1,.24.05.31.31,0,0,1,.12.09.28.28,0,0,1,0,.13v.76a4,4,0,0,1,1.11-.88,2.49,2.49,0,0,1,1.18-.3,2.68,2.68,0,0,1,1.13.22,2,2,0,0,1,.75.61,2.35,2.35,0,0,1,.41.89,4.85,4.85,0,0,1,.13,1.22Z"/><path class="cls-1" d="M24,28.7a.67.67,0,0,1-.16.5.53.53,0,0,1-.41.16h-4a2.61,2.61,0,0,0,.1.77,1.43,1.43,0,0,0,.32.58,1.31,1.31,0,0,0,.56.37,2.54,2.54,0,0,0,.83.13,5.21,5.21,0,0,0,.85-.07A5.41,5.41,0,0,0,22.7,31l.45-.16a1.07,1.07,0,0,1,.29-.07.2.2,0,0,1,.11,0,.22.22,0,0,1,.07.09.49.49,0,0,1,0,.19,2.54,2.54,0,0,1,0,.31c0,.11,0,.2,0,.28s0,.14,0,.19a.46.46,0,0,1,0,.14.38.38,0,0,1-.08.11,1,1,0,0,1-.26.14,4.11,4.11,0,0,1-.55.17,6,6,0,0,1-.76.15,6.52,6.52,0,0,1-.91.06,4.87,4.87,0,0,1-1.55-.22,2.72,2.72,0,0,1-1.1-.67,2.68,2.68,0,0,1-.66-1.14A5.22,5.22,0,0,1,17.51,29a4.92,4.92,0,0,1,.23-1.59,3.32,3.32,0,0,1,.66-1.2,2.85,2.85,0,0,1,1.06-.75,3.73,3.73,0,0,1,1.41-.26,3.54,3.54,0,0,1,1.42.25,2.48,2.48,0,0,1,1,.67,2.64,2.64,0,0,1,.56,1A4.35,4.35,0,0,1,24,28.4Zm-1.81-.53a1.88,1.88,0,0,0-.31-1.23,1.22,1.22,0,0,0-1-.45,1.35,1.35,0,0,0-.62.13,1.26,1.26,0,0,0-.43.36,1.56,1.56,0,0,0-.27.53,2.76,2.76,0,0,0-.11.66Z"/><path class="cls-1" d="M30.63,26.21c0,.17,0,.32,0,.43a1.19,1.19,0,0,1-.05.27.26.26,0,0,1-.07.13.2.2,0,0,1-.13,0l-.13,0L30.07,27l-.2-.06-.24,0a.81.81,0,0,0-.31.06,1.32,1.32,0,0,0-.33.2,1.9,1.9,0,0,0-.34.35,6.24,6.24,0,0,0-.39.55v4.11a.21.21,0,0,1-.05.13.24.24,0,0,1-.15.09,1.33,1.33,0,0,1-.28.06l-.45,0-.45,0a1.45,1.45,0,0,1-.29-.06.27.27,0,0,1-.15-.09.2.2,0,0,1,0-.13v-6.6a.28.28,0,0,1,0-.13.42.42,0,0,1,.14-.09,1.11,1.11,0,0,1,.24-.05,2.12,2.12,0,0,1,.38,0,2.36,2.36,0,0,1,.4,0,1.11,1.11,0,0,1,.24.05l.12.09a.28.28,0,0,1,0,.13v.82a5.92,5.92,0,0,1,.48-.61,3.47,3.47,0,0,1,.44-.38,1.36,1.36,0,0,1,.41-.19,1.52,1.52,0,0,1,.42-.06h.2l.23,0,.21.06a.32.32,0,0,1,.13.07.16.16,0,0,1,.06.08l0,.12q0,.07,0,.24Z"/><path class="cls-1" d="M38.43,26.05a1.2,1.2,0,0,1-.09.53c-.05.11-.12.17-.2.17h-.77a1.07,1.07,0,0,1,.23.4,1.49,1.49,0,0,1,.07.47,2.51,2.51,0,0,1-.19,1,2.09,2.09,0,0,1-.55.76,2.41,2.41,0,0,1-.87.46,3.57,3.57,0,0,1-1.12.16,2.37,2.37,0,0,1-.61-.07,1.69,1.69,0,0,1-.44-.19.94.94,0,0,0-.16.23.6.6,0,0,0-.07.3.42.42,0,0,0,.18.35,1,1,0,0,0,.53.15l1.61.06A4.19,4.19,0,0,1,37,31a2.25,2.25,0,0,1,.74.38,1.79,1.79,0,0,1,.46.6,2,2,0,0,1,.16.79,2,2,0,0,1-.22.92,2,2,0,0,1-.64.75A3.61,3.61,0,0,1,36.4,35a5.63,5.63,0,0,1-1.51.18A6.68,6.68,0,0,1,33.45,35a3.39,3.39,0,0,1-1-.37,1.52,1.52,0,0,1-.56-.57,1.59,1.59,0,0,1-.17-.72,1.84,1.84,0,0,1,.06-.47,1.43,1.43,0,0,1,.19-.42,1.85,1.85,0,0,1,.3-.39,2.78,2.78,0,0,1,.4-.35,1.3,1.3,0,0,1-.49-.47,1.16,1.16,0,0,1-.17-.64,1.52,1.52,0,0,1,.2-.79,2.44,2.44,0,0,1,.51-.65,1.92,1.92,0,0,1-.41-.62,2.34,2.34,0,0,1-.16-.9,2.4,2.4,0,0,1,.21-1,2.07,2.07,0,0,1,.56-.77,2.53,2.53,0,0,1,.87-.48,3.5,3.5,0,0,1,1.11-.17,3.73,3.73,0,0,1,.59,0,3.85,3.85,0,0,1,.53.1h2.09a.24.24,0,0,1,.21.16A1.45,1.45,0,0,1,38.43,26.05Zm-2,6.83a.58.58,0,0,0-.26-.51,1.38,1.38,0,0,0-.74-.2l-1.32,0a1.71,1.71,0,0,0-.31.27,3,3,0,0,0-.18.24.61.61,0,0,0-.09.23.91.91,0,0,0,0,.23.62.62,0,0,0,.38.57,2.46,2.46,0,0,0,1,.19,2.41,2.41,0,0,0,.71-.09,1.37,1.37,0,0,0,.47-.22.83.83,0,0,0,.25-.32A.86.86,0,0,0,36.47,32.88ZM36,27.61a1.13,1.13,0,0,0-.3-.83,1.15,1.15,0,0,0-.83-.29,1.22,1.22,0,0,0-.49.09,1.07,1.07,0,0,0-.34.25,1,1,0,0,0-.2.37,1.31,1.31,0,0,0-.07.44,1.07,1.07,0,0,0,.3.8,1.12,1.12,0,0,0,.82.29,1.26,1.26,0,0,0,.49-.09,1,1,0,0,0,.34-.24A1.31,1.31,0,0,0,36,28,1.55,1.55,0,0,0,36,27.61Z"/><path class="cls-1" d="M42.54,23.36a1,1,0,0,1-.23.78,1.27,1.27,0,0,1-.85.21,1.22,1.22,0,0,1-.84-.21,1,1,0,0,1-.22-.74,1.05,1.05,0,0,1,.22-.78,1.24,1.24,0,0,1,.86-.22,1.25,1.25,0,0,1,.84.21A1,1,0,0,1,42.54,23.36Zm-.14,8.83a.2.2,0,0,1,0,.13.27.27,0,0,1-.15.09,1.45,1.45,0,0,1-.29.06l-.45,0-.45,0a1.62,1.62,0,0,1-.29-.06.27.27,0,0,1-.15-.09.2.2,0,0,1,0-.13V25.61a.2.2,0,0,1,0-.13.36.36,0,0,1,.15-.1,1.05,1.05,0,0,1,.29-.06,5.07,5.07,0,0,1,.9,0,1,1,0,0,1,.29.06.36.36,0,0,1,.15.1.2.2,0,0,1,0,.13Z"/><path class="cls-1" d="M51.23,28.7a.71.71,0,0,1-.15.5.54.54,0,0,1-.42.16h-4a2.61,2.61,0,0,0,.1.77,1.34,1.34,0,0,0,.88.95,2.43,2.43,0,0,0,.82.13,5.34,5.34,0,0,0,.86-.07A6,6,0,0,0,50,31l.45-.16a.94.94,0,0,1,.28-.07.18.18,0,0,1,.11,0,.24.24,0,0,1,.08.09.78.78,0,0,1,0,.19,2.82,2.82,0,0,1,0,.31,2.35,2.35,0,0,1,0,.28,1,1,0,0,1,0,.19.47.47,0,0,1,0,.14.76.76,0,0,1-.08.11,1,1,0,0,1-.26.14,5.31,5.31,0,0,1-.55.17,6.39,6.39,0,0,1-.76.15,6.67,6.67,0,0,1-.92.06,4.77,4.77,0,0,1-1.54-.22,2.83,2.83,0,0,1-1.11-.67A2.91,2.91,0,0,1,45,30.58,5.55,5.55,0,0,1,44.75,29,5.21,5.21,0,0,1,45,27.38a3.34,3.34,0,0,1,.67-1.2,2.77,2.77,0,0,1,1.06-.75,3.69,3.69,0,0,1,1.41-.26,3.52,3.52,0,0,1,1.41.25,2.44,2.44,0,0,1,1,.67,2.76,2.76,0,0,1,.55,1,4.35,4.35,0,0,1,.18,1.28Zm-1.8-.53a1.88,1.88,0,0,0-.32-1.23,1.21,1.21,0,0,0-1-.45,1.31,1.31,0,0,0-.61.13A1.29,1.29,0,0,0,47,27a1.56,1.56,0,0,0-.27.53,2.76,2.76,0,0,0-.1.66Z"/><path class="cls-1" d="M62.93,31.14a3,3,0,0,1,0,.32.69.69,0,0,1,0,.22.39.39,0,0,1,0,.14.47.47,0,0,1-.12.14,1.48,1.48,0,0,1-.3.21,2.48,2.48,0,0,1-.49.22,4.61,4.61,0,0,1-.59.15,3.68,3.68,0,0,1-.66.06,3.74,3.74,0,0,1-1.35-.23,2.52,2.52,0,0,1-1-.7,3,3,0,0,1-.6-1.13A5,5,0,0,1,57.54,29a5.52,5.52,0,0,1,.25-1.72,3.46,3.46,0,0,1,.69-1.19,2.85,2.85,0,0,1,1.05-.7,3.83,3.83,0,0,1,1.33-.23,3.68,3.68,0,0,1,.58.05,4.26,4.26,0,0,1,.54.14,3.62,3.62,0,0,1,.44.2,1.64,1.64,0,0,1,.28.19.92.92,0,0,1,.11.14.46.46,0,0,1,0,.14.73.73,0,0,1,0,.22,3,3,0,0,1,0,.32,1.73,1.73,0,0,1-.07.6c0,.11-.11.17-.19.17a.45.45,0,0,1-.27-.1A3.66,3.66,0,0,0,62,27a2.81,2.81,0,0,0-.46-.23,1.76,1.76,0,0,0-.64-.1,1.23,1.23,0,0,0-1.1.56,2.82,2.82,0,0,0-.39,1.63,3.76,3.76,0,0,0,.1.94,2,2,0,0,0,.28.68,1.15,1.15,0,0,0,.47.41,1.44,1.44,0,0,0,.67.14,1.9,1.9,0,0,0,.66-.11,3,3,0,0,0,.48-.26c.14-.09.26-.18.35-.25a.39.39,0,0,1,.24-.12.15.15,0,0,1,.11,0,.26.26,0,0,1,.07.13,1.59,1.59,0,0,1,0,.26C62.93,30.84,62.93,31,62.93,31.14Z"/><path class="cls-1" d="M71.75,28.82a4.94,4.94,0,0,1-.22,1.54,3.2,3.2,0,0,1-.67,1.2,2.94,2.94,0,0,1-1.13.78,4.27,4.27,0,0,1-1.59.27,4.39,4.39,0,0,1-1.53-.24,2.75,2.75,0,0,1-1.08-.71,2.93,2.93,0,0,1-.64-1.15A5.24,5.24,0,0,1,64.68,29a5,5,0,0,1,.23-1.54,3.21,3.21,0,0,1,.68-1.2,2.88,2.88,0,0,1,1.12-.77,4.14,4.14,0,0,1,1.59-.28,4.45,4.45,0,0,1,1.54.24,2.79,2.79,0,0,1,1.08.71,3,3,0,0,1,.63,1.14A5.37,5.37,0,0,1,71.75,28.82Zm-1.91.08a4.94,4.94,0,0,0-.08-.9,2.14,2.14,0,0,0-.26-.71,1.33,1.33,0,0,0-.49-.48,1.64,1.64,0,0,0-.78-.17,1.66,1.66,0,0,0-.72.15,1.3,1.3,0,0,0-.51.45,2.24,2.24,0,0,0-.3.7,3.82,3.82,0,0,0-.1.94,4.91,4.91,0,0,0,.08.89,2.35,2.35,0,0,0,.26.72,1.33,1.33,0,0,0,.5.47,1.58,1.58,0,0,0,.76.16,1.68,1.68,0,0,0,.74-.15,1.43,1.43,0,0,0,.51-.44,1.94,1.94,0,0,0,.29-.7A3.73,3.73,0,0,0,69.84,28.9Z"/><path class="cls-1" d="M80.41,32.19a.21.21,0,0,1,0,.13.27.27,0,0,1-.15.09,1.33,1.33,0,0,1-.28.06l-.45,0-.45,0a1.45,1.45,0,0,1-.29-.06.27.27,0,0,1-.15-.09.2.2,0,0,1,0-.13V28.43a3,3,0,0,0-.07-.76,1.85,1.85,0,0,0-.2-.47.92.92,0,0,0-.35-.3,1.07,1.07,0,0,0-.49-.11,1.25,1.25,0,0,0-.72.26,3.78,3.78,0,0,0-.75.75v4.39a.21.21,0,0,1,0,.13.27.27,0,0,1-.15.09,1.33,1.33,0,0,1-.28.06l-.45,0-.45,0a1.45,1.45,0,0,1-.29-.06.27.27,0,0,1-.15-.09.2.2,0,0,1,0-.13v-6.6a.28.28,0,0,1,0-.13.42.42,0,0,1,.14-.09,1.11,1.11,0,0,1,.24-.05,2.12,2.12,0,0,1,.38,0,2.36,2.36,0,0,1,.4,0,1.11,1.11,0,0,1,.24.05l.12.09a.28.28,0,0,1,0,.13v.76a4.15,4.15,0,0,1,1.12-.88,2.46,2.46,0,0,1,1.18-.3,2.71,2.71,0,0,1,1.13.22,2,2,0,0,1,.75.61,2.35,2.35,0,0,1,.41.89,5.36,5.36,0,0,1,.13,1.22Z"/><path class="cls-1" d="M88.1,31.14a3,3,0,0,1,0,.32c0,.09,0,.16,0,.22a.84.84,0,0,1,0,.14.47.47,0,0,1-.12.14,1.48,1.48,0,0,1-.3.21,2.78,2.78,0,0,1-.49.22,4.61,4.61,0,0,1-.59.15,3.71,3.71,0,0,1-.67.06,3.82,3.82,0,0,1-1.35-.23,2.48,2.48,0,0,1-1-.7,3.15,3.15,0,0,1-.61-1.13,5.38,5.38,0,0,1-.2-1.52A5.24,5.24,0,0,1,83,27.3a3.17,3.17,0,0,1,.69-1.19,2.85,2.85,0,0,1,1-.7A3.79,3.79,0,0,1,86,25.18a3.28,3.28,0,0,1,1.11.19,3.18,3.18,0,0,1,.45.2,1.64,1.64,0,0,1,.28.19.92.92,0,0,1,.11.14A.46.46,0,0,1,88,26c0,.06,0,.14,0,.22a3,3,0,0,1,0,.32,1.73,1.73,0,0,1-.07.6c0,.11-.11.17-.19.17a.43.43,0,0,1-.27-.1,3.66,3.66,0,0,0-.33-.23,2.81,2.81,0,0,0-.46-.23,1.76,1.76,0,0,0-.64-.1,1.26,1.26,0,0,0-1.11.56,2.91,2.91,0,0,0-.38,1.63,3.76,3.76,0,0,0,.1.94,1.83,1.83,0,0,0,.28.68,1.15,1.15,0,0,0,.47.41,1.41,1.41,0,0,0,.67.14,1.9,1.9,0,0,0,.66-.11,3.57,3.57,0,0,0,.48-.26c.14-.09.25-.18.35-.25a.39.39,0,0,1,.24-.12.15.15,0,0,1,.11,0,.26.26,0,0,1,.07.13c0,.07,0,.16,0,.26S88.1,31,88.1,31.14Z"/><path class="cls-1" d="M96.42,28.7a.71.71,0,0,1-.15.5.54.54,0,0,1-.42.16h-4a2.61,2.61,0,0,0,.1.77,1.41,1.41,0,0,0,.31.58,1.45,1.45,0,0,0,.56.37,2.54,2.54,0,0,0,.83.13,5.44,5.44,0,0,0,.86-.07,6,6,0,0,0,.64-.16c.18-.06.33-.11.44-.16a1.07,1.07,0,0,1,.29-.07.18.18,0,0,1,.11,0,.24.24,0,0,1,.08.09.78.78,0,0,1,0,.19,2.82,2.82,0,0,1,0,.31,2.35,2.35,0,0,1,0,.28,1,1,0,0,1,0,.19A1.27,1.27,0,0,1,96,32a.76.76,0,0,1-.08.11,1,1,0,0,1-.27.14,4.41,4.41,0,0,1-.54.17,6.39,6.39,0,0,1-.76.15,6.77,6.77,0,0,1-.92.06,4.77,4.77,0,0,1-1.54-.22,2.83,2.83,0,0,1-1.11-.67,2.91,2.91,0,0,1-.66-1.14,5.8,5.8,0,0,1,0-3.2,3.34,3.34,0,0,1,.67-1.2,2.77,2.77,0,0,1,1.06-.75,3.65,3.65,0,0,1,1.41-.26,3.52,3.52,0,0,1,1.41.25,2.52,2.52,0,0,1,1,.67,2.76,2.76,0,0,1,.55,1,4.35,4.35,0,0,1,.18,1.28Zm-1.8-.53a1.88,1.88,0,0,0-.32-1.23,1.21,1.21,0,0,0-1-.45,1.38,1.38,0,0,0-.62.13,1.26,1.26,0,0,0-.43.36,1.56,1.56,0,0,0-.27.53,2.34,2.34,0,0,0-.1.66Z"/><path class="cls-1" d="M105.47,28.8a6,6,0,0,1-.19,1.58,3.49,3.49,0,0,1-.55,1.2,2.35,2.35,0,0,1-.9.76,2.73,2.73,0,0,1-1.24.27,2.89,2.89,0,0,1-.53,0,2.54,2.54,0,0,1-.46-.17,3.79,3.79,0,0,1-.45-.29,5.24,5.24,0,0,1-.46-.4v3.11a.2.2,0,0,1,0,.13.36.36,0,0,1-.15.1,1.05,1.05,0,0,1-.29.06,5.07,5.07,0,0,1-.9,0A1.05,1.05,0,0,1,99,35a.36.36,0,0,1-.15-.1.2.2,0,0,1,0-.13V25.59a.2.2,0,0,1,0-.13.29.29,0,0,1,.13-.09,1.11,1.11,0,0,1,.24-.05,2.12,2.12,0,0,1,.38,0,2,2,0,0,1,.37,0,1.09,1.09,0,0,1,.25.05.48.48,0,0,1,.13.09.28.28,0,0,1,0,.13v.78c.2-.2.39-.37.57-.52a3,3,0,0,1,.57-.38,2.22,2.22,0,0,1,.59-.22,2.78,2.78,0,0,1,.66-.08,2.49,2.49,0,0,1,1.23.29,2.3,2.3,0,0,1,.83.78,3.39,3.39,0,0,1,.47,1.15A6.35,6.35,0,0,1,105.47,28.8Zm-1.94.13a5.32,5.32,0,0,0-.06-.81,2.07,2.07,0,0,0-.22-.69,1.37,1.37,0,0,0-.39-.49,1.05,1.05,0,0,0-.62-.18,1.35,1.35,0,0,0-.74.24,3.26,3.26,0,0,0-.39.32,6.08,6.08,0,0,0-.42.5V30a4.25,4.25,0,0,0,.75.77,1.21,1.21,0,0,0,.74.27,1,1,0,0,0,.62-.19,1.28,1.28,0,0,0,.41-.48,2.38,2.38,0,0,0,.24-.68A3.19,3.19,0,0,0,103.53,28.93Z"/><path class="cls-1" d="M111.68,31.54a2.17,2.17,0,0,1,0,.5.54.54,0,0,1-.11.24.57.57,0,0,1-.19.13,1.93,1.93,0,0,1-.31.09l-.37.07-.41,0a3.15,3.15,0,0,1-1-.14,1.72,1.72,0,0,1-.67-.43,1.75,1.75,0,0,1-.39-.74,4.07,4.07,0,0,1-.13-1.05V26.85h-.79c-.09,0-.16-.06-.21-.17a1.59,1.59,0,0,1-.08-.58,3.57,3.57,0,0,1,0-.37.64.64,0,0,1,.06-.23.19.19,0,0,1,.09-.12.2.2,0,0,1,.13,0h.78V23.87a.24.24,0,0,1,.19-.23,1,1,0,0,1,.29-.06l.45,0,.45,0a1,1,0,0,1,.29.06.24.24,0,0,1,.19.23v1.47h1.43a.18.18,0,0,1,.13,0,.25.25,0,0,1,.1.12,1,1,0,0,1,0,.23,3.57,3.57,0,0,1,0,.37,1.64,1.64,0,0,1-.07.58.24.24,0,0,1-.22.17H110V30a1.58,1.58,0,0,0,.17.81.66.66,0,0,0,.61.27,1.09,1.09,0,0,0,.26,0,.65.65,0,0,0,.21-.06l.16-.06.11,0,.09,0a.17.17,0,0,1,.06.11.87.87,0,0,1,0,.21A3,3,0,0,1,111.68,31.54Z"/></g></g></svg>