<svg xmlns="http://www.w3.org/2000/svg" viewBox="0 0 116.47 62.51"><defs><style>.cls-1{fill:#fff;}</style></defs><g id="Calque_2" data-name="Calque 2"><g id="Calque_1-2" data-name="Calque 1"><path class="cls-1" d="M17,17.9a5.28,5.28,0,0,1,.22.84.51.51,0,0,1-.11.46.89.89,0,0,1-.57.19,10.87,10.87,0,0,1-1.11,0l-1.15,0a2.85,2.85,0,0,1-.63-.09.55.55,0,0,1-.3-.18.81.81,0,0,1-.14-.31L11.93,15h-7L3.72,18.73a1.34,1.34,0,0,1-.15.34.59.59,0,0,1-.3.22,2.39,2.39,0,0,1-.59.11c-.26,0-.59,0-1,0a9.51,9.51,0,0,1-1,0,.77.77,0,0,1-.52-.22A.55.55,0,0,1,0,18.7a4.73,4.73,0,0,1,.22-.83L6,1a1.86,1.86,0,0,1,.2-.4A.79.79,0,0,1,6.56.37a3.42,3.42,0,0,1,.7-.1l1.19,0L9.8.27a4.28,4.28,0,0,1,.79.1A.82.82,0,0,1,11,.62a1.39,1.39,0,0,1,.21.44ZM8.4,4h0L5.75,12h5.3Z"/><path class="cls-1" d="M33.9,16.46c0,.25,0,.46,0,.63a3.71,3.71,0,0,1-.07.44,1.58,1.58,0,0,1-.11.31,1.74,1.74,0,0,1-.24.31,3.08,3.08,0,0,1-.61.43,7.34,7.34,0,0,1-1.11.51,10.13,10.13,0,0,1-1.5.4,9.67,9.67,0,0,1-1.83.16,9.53,9.53,0,0,1-3.47-.6,6.8,6.8,0,0,1-2.63-1.8,8.15,8.15,0,0,1-1.66-3,13.72,13.72,0,0,1-.58-4.17,13.19,13.19,0,0,1,.64-4.3,8.74,8.74,0,0,1,1.78-3.16A7.46,7.46,0,0,1,25.22.69,9.16,9.16,0,0,1,28.74,0a8.13,8.13,0,0,1,1.5.13,9.68,9.68,0,0,1,1.34.35,5.88,5.88,0,0,1,1.1.49,2.83,2.83,0,0,1,.69.48,1.63,1.63,0,0,1,.27.33,1.16,1.16,0,0,1,.11.33,4.79,4.79,0,0,1,.07.49c0,.19,0,.42,0,.69s0,.54,0,.75a2,2,0,0,1-.1.5.79.79,0,0,1-.17.28.35.35,0,0,1-.23.09,1,1,0,0,1-.55-.26c-.23-.17-.51-.36-.86-.58a6.76,6.76,0,0,0-1.26-.57,5.33,5.33,0,0,0-1.74-.25,4.2,4.2,0,0,0-2,.46,4.35,4.35,0,0,0-1.49,1.32,6.63,6.63,0,0,0-.93,2.08,11,11,0,0,0-.31,2.74,11.32,11.32,0,0,0,.33,2.91,5.62,5.62,0,0,0,1,2A4,4,0,0,0,27,16a4.92,4.92,0,0,0,2,.39,5.68,5.68,0,0,0,1.75-.25A7.59,7.59,0,0,0,32,15.6c.35-.2.64-.37.87-.53a1.06,1.06,0,0,1,.53-.24.41.41,0,0,1,.23.06.45.45,0,0,1,.14.24,2.27,2.27,0,0,1,.09.49Q33.9,15.94,33.9,16.46Z"/><path class="cls-1" d="M54.94,9.62a14.43,14.43,0,0,1-.57,4.23A8.73,8.73,0,0,1,52.65,17a7.54,7.54,0,0,1-2.83,2,10.39,10.39,0,0,1-3.89.68,11.26,11.26,0,0,1-3.81-.58,6.73,6.73,0,0,1-2.71-1.77,7.6,7.6,0,0,1-1.62-3A15.57,15.57,0,0,1,37.25,10a14,14,0,0,1,.57-4.15,8.59,8.59,0,0,1,1.72-3.14,7.54,7.54,0,0,1,2.83-2A10.23,10.23,0,0,1,46.28,0,11.26,11.26,0,0,1,50,.57a6.5,6.5,0,0,1,2.72,1.77,7.63,7.63,0,0,1,1.65,3A14.73,14.73,0,0,1,54.94,9.62Zm-4,.21a15.2,15.2,0,0,0-.23-2.73A6,6,0,0,0,49.94,5a3.85,3.85,0,0,0-1.48-1.35,5,5,0,0,0-2.31-.48,4.6,4.6,0,0,0-2.34.54,4.26,4.26,0,0,0-1.52,1.43,6,6,0,0,0-.82,2.09,13,13,0,0,0-.24,2.54,14.65,14.65,0,0,0,.24,2.79,6,6,0,0,0,.78,2.13A3.59,3.59,0,0,0,43.72,16a5.16,5.16,0,0,0,2.32.46A4.61,4.61,0,0,0,48.38,16a4.17,4.17,0,0,0,1.52-1.43,6.11,6.11,0,0,0,.82-2.13A13.12,13.12,0,0,0,51,9.83Z"/><path class="cls-1" d="M75.11,12.26a9,9,0,0,1-.51,3.13,6.18,6.18,0,0,1-1.49,2.34,6.44,6.44,0,0,1-2.42,1.45,11.33,11.33,0,0,1-6.49.05,6.17,6.17,0,0,1-2.37-1.36,5.93,5.93,0,0,1-1.48-2.26,9.07,9.07,0,0,1-.51-3.18V.87A.5.5,0,0,1,59.92.6a.65.65,0,0,1,.32-.19,2.9,2.9,0,0,1,.58-.12,7.86,7.86,0,0,1,.92,0,8,8,0,0,1,.92,0,2.78,2.78,0,0,1,.57.12.61.61,0,0,1,.31.19.39.39,0,0,1,.1.27V12.09a6.36,6.36,0,0,0,.27,2,3.61,3.61,0,0,0,.79,1.37,3.25,3.25,0,0,0,1.23.82,4.46,4.46,0,0,0,1.59.27,4.28,4.28,0,0,0,1.61-.28,3.25,3.25,0,0,0,1.2-.82,3.54,3.54,0,0,0,.75-1.32,5.46,5.46,0,0,0,.27-1.78V.87A.44.44,0,0,1,71.44.6a.62.62,0,0,1,.3-.19,3,3,0,0,1,.59-.12,7.78,7.78,0,0,1,.91,0,7.67,7.67,0,0,1,.91,0,3.12,3.12,0,0,1,.57.12A.62.62,0,0,1,75,.6a.44.44,0,0,1,.09.27Z"/><path class="cls-1" d="M92,13.64a5.89,5.89,0,0,1-.55,2.63,5.33,5.33,0,0,1-1.48,1.89,6.48,6.48,0,0,1-2.2,1.14,9.9,9.9,0,0,1-4.49.22,10.52,10.52,0,0,1-1.46-.39,5.61,5.61,0,0,1-1.06-.48,2.78,2.78,0,0,1-.62-.44,1.13,1.13,0,0,1-.26-.55,4.59,4.59,0,0,1-.08-1c0-.31,0-.56,0-.77a2,2,0,0,1,.09-.5.55.55,0,0,1,.17-.27.45.45,0,0,1,.26-.08,1.23,1.23,0,0,1,.57.24c.24.16.56.34.94.54a9.3,9.3,0,0,0,1.38.53,6.16,6.16,0,0,0,1.86.25,4.32,4.32,0,0,0,1.24-.17,2.56,2.56,0,0,0,.93-.48,2,2,0,0,0,.59-.76,2.58,2.58,0,0,0,.2-1A1.81,1.81,0,0,0,87.67,13a3.58,3.58,0,0,0-.9-.82,9.24,9.24,0,0,0-1.26-.67c-.48-.21-1-.44-1.46-.67a13.79,13.79,0,0,1-1.46-.8A6.22,6.22,0,0,1,81.32,9a5.1,5.1,0,0,1-.9-1.48,5.44,5.44,0,0,1-.35-2,5.5,5.5,0,0,1,.5-2.4,4.79,4.79,0,0,1,1.35-1.72,5.44,5.44,0,0,1,2-1A8.87,8.87,0,0,1,87.67.1a8.84,8.84,0,0,1,1.25.28,7,7,0,0,1,1,.4,2.24,2.24,0,0,1,.59.37,1,1,0,0,1,.2.25,1,1,0,0,1,.08.27,2.11,2.11,0,0,1,.06.42c0,.17,0,.39,0,.64s0,.53,0,.72a4.08,4.08,0,0,1-.07.49.73.73,0,0,1-.15.28.39.39,0,0,1-.25.08,1.12,1.12,0,0,1-.51-.2A9.07,9.07,0,0,0,89,3.65a8.22,8.22,0,0,0-1.17-.44A5.15,5.15,0,0,0,86.4,3a3.52,3.52,0,0,0-1.08.15,2.27,2.27,0,0,0-.77.43,1.67,1.67,0,0,0-.47.65,2.24,2.24,0,0,0-.15.81,1.8,1.8,0,0,0,.34,1.1,3.47,3.47,0,0,0,.91.82,9.69,9.69,0,0,0,1.29.67L88,8.31a15,15,0,0,1,1.47.8,6.07,6.07,0,0,1,1.29,1.08,5,5,0,0,1,.91,1.46A5.28,5.28,0,0,1,92,13.64Z"/><path class="cls-1" d="M108.73,1.92c0,.29,0,.53,0,.73a2.4,2.4,0,0,1-.11.49.71.71,0,0,1-.18.27.38.38,0,0,1-.24.09h-4.68V18.81a.39.39,0,0,1-.1.27.61.61,0,0,1-.31.19,2.9,2.9,0,0,1-.58.12,8,8,0,0,1-.92,0,8.08,8.08,0,0,1-.92,0,2.9,2.9,0,0,1-.58-.12.61.61,0,0,1-.31-.19.45.45,0,0,1-.1-.27V3.5H95a.36.36,0,0,1-.24-.09.71.71,0,0,1-.18-.27,2.46,2.46,0,0,1-.1-.49,5.07,5.07,0,0,1,0-.73,5.22,5.22,0,0,1,0-.74,2.43,2.43,0,0,1,.1-.5.6.6,0,0,1,.18-.26A.41.41,0,0,1,95,.34h13.18a.43.43,0,0,1,.24.08.6.6,0,0,1,.18.26,2.36,2.36,0,0,1,.11.5C108.72,1.38,108.73,1.63,108.73,1.92Z"/><path class="cls-1" d="M116.47,18.81a.44.44,0,0,1-.09.27.66.66,0,0,1-.31.19,3.06,3.06,0,0,1-.58.12,10.6,10.6,0,0,1-1.84,0,3,3,0,0,1-.59-.12.71.71,0,0,1-.31-.19.44.44,0,0,1-.09-.27V.87a.44.44,0,0,1,.09-.27.7.7,0,0,1,.32-.19,3,3,0,0,1,.59-.12,7.67,7.67,0,0,1,.91,0,7.86,7.86,0,0,1,.92,0,3.06,3.06,0,0,1,.58.12.66.66,0,0,1,.31.19.44.44,0,0,1,.09.27Z"/><path class="cls-1" d="M3.28,49.68A.69.69,0,0,0,3,49.15a2.05,2.05,0,0,0-.92-.38A3,3,0,0,1,1,48.32a.91.91,0,0,1-.38-.79A1.07,1.07,0,0,1,1,46.68a1.68,1.68,0,0,1,1.13-.35,1.73,1.73,0,0,1,1.17.37,1.09,1.09,0,0,1,.42.92v0H3.25A.8.8,0,0,0,2.94,47a1.21,1.21,0,0,0-.82-.27,1.21,1.21,0,0,0-.8.23.71.71,0,0,0-.27.55.62.62,0,0,0,.23.49,2.12,2.12,0,0,0,.92.35,3.05,3.05,0,0,1,1.17.48,1,1,0,0,1,.39.82,1.05,1.05,0,0,1-.44.89,1.88,1.88,0,0,1-1.18.35,1.9,1.9,0,0,1-1.26-.39,1.07,1.07,0,0,1-.43-.91v0H.9a.8.8,0,0,0,.39.69,1.65,1.65,0,0,0,.85.22A1.3,1.3,0,0,0,3,50.25.7.7,0,0,0,3.28,49.68Z"/><path class="cls-1" d="M8.76,48.73a2.53,2.53,0,0,1-.44,1.58,1.48,1.48,0,0,1-1.24.59,1.71,1.71,0,0,1-.8-.18,1.36,1.36,0,0,1-.57-.49v2.28H5.22v-6.1h.37l.09.69a1.56,1.56,0,0,1,.57-.57,1.6,1.6,0,0,1,.83-.2A1.45,1.45,0,0,1,8.32,47a2.84,2.84,0,0,1,.44,1.69Zm-.48-.08a2.46,2.46,0,0,0-.34-1.37,1.09,1.09,0,0,0-1-.53,1.33,1.33,0,0,0-.8.23,1.48,1.48,0,0,0-.46.61v2.13a1.31,1.31,0,0,0,.48.56,1.38,1.38,0,0,0,.78.21,1.1,1.1,0,0,0,1-.48,2.16,2.16,0,0,0,.34-1.28Z"/><path class="cls-1" d="M11.87,50.9a1.74,1.74,0,0,1-1.39-.61,2.23,2.23,0,0,1-.54-1.55v-.22A2.29,2.29,0,0,1,10.48,47a1.69,1.69,0,0,1,1.34-.62,1.55,1.55,0,0,1,1.24.51,2.1,2.1,0,0,1,.44,1.39v.38H10.43v.13A2,2,0,0,0,10.81,50a1.28,1.28,0,0,0,1.06.5,2,2,0,0,0,.74-.14,1.52,1.52,0,0,0,.56-.35l.21.33a2,2,0,0,1-.61.41A2.45,2.45,0,0,1,11.87,50.9Zm0-4.16a1.19,1.19,0,0,0-.92.41,1.7,1.7,0,0,0-.43,1l0,0H13v-.1a1.48,1.48,0,0,0-.31-1A1.07,1.07,0,0,0,11.82,46.74Zm.52-2.2h.6v0l-1,1.06H11.5Z"/><path class="cls-1" d="M16.43,50.49a1.33,1.33,0,0,0,.82-.28.91.91,0,0,0,.36-.77h.44v0a1.25,1.25,0,0,1-.48,1,1.78,1.78,0,0,1-1.15.41,1.64,1.64,0,0,1-1.37-.62,2.44,2.44,0,0,1-.49-1.58v-.18A2.47,2.47,0,0,1,15.05,47a1.64,1.64,0,0,1,1.37-.62,1.67,1.67,0,0,1,1.18.43,1.36,1.36,0,0,1,.46,1.12v0h-.44a1.08,1.08,0,0,0-.34-.84,1.21,1.21,0,0,0-.85-.32,1.16,1.16,0,0,0-1,.51,2.29,2.29,0,0,0-.34,1.27v.18A2.32,2.32,0,0,0,15.39,50,1.16,1.16,0,0,0,16.43,50.49Z"/><path class="cls-1" d="M20,45.15H19.5v-.69H20Zm0,5.66H19.5v-4.4H20Z"/><path class="cls-1" d="M24.45,50.81c0-.15-.05-.29-.07-.4s0-.22,0-.34a1.66,1.66,0,0,1-.64.59,1.83,1.83,0,0,1-.94.24,1.37,1.37,0,0,1-1-.35,1.23,1.23,0,0,1-.36-.93,1.13,1.13,0,0,1,.52-1,2.28,2.28,0,0,1,1.34-.36h1.08v-.55a1,1,0,0,0-.3-.74,1.44,1.44,0,0,0-1.65,0,.73.73,0,0,0-.31.61h-.45v0a1.09,1.09,0,0,1,.43-.88,1.76,1.76,0,0,1,1.17-.37,1.75,1.75,0,0,1,1.17.37,1.31,1.31,0,0,1,.44,1.06v2.16a3.46,3.46,0,0,0,0,.46,3.29,3.29,0,0,0,.09.43Zm-1.62-.34a1.7,1.7,0,0,0,1-.27,1.34,1.34,0,0,0,.56-.69v-.84H23.28a1.7,1.7,0,0,0-1,.28.85.85,0,0,0-.38.69.78.78,0,0,0,.24.6A1,1,0,0,0,22.83,50.47Z"/><path class="cls-1" d="M27,50.81h-.48V44.46H27Z"/><path class="cls-1" d="M29.25,45.15h-.49v-.69h.49Zm0,5.66h-.49v-4.4h.49Z"/><path class="cls-1" d="M33.57,49.68a.7.7,0,0,0-.26-.53,2,2,0,0,0-.92-.38,3,3,0,0,1-1.16-.45.94.94,0,0,1-.38-.79,1.05,1.05,0,0,1,.43-.85,1.67,1.67,0,0,1,1.12-.35,1.77,1.77,0,0,1,1.18.37,1.12,1.12,0,0,1,.42.92v0h-.45a.84.84,0,0,0-.31-.63,1.46,1.46,0,0,0-1.63,0,.74.74,0,0,0-.26.55.59.59,0,0,0,.23.49,2.12,2.12,0,0,0,.91.35,2.92,2.92,0,0,1,1.17.48,1,1,0,0,1,.4.82,1.06,1.06,0,0,1-.45.89,2.18,2.18,0,0,1-2.43,0,1.08,1.08,0,0,1-.44-.91v0h.45a.8.8,0,0,0,.39.69,1.65,1.65,0,0,0,.85.22,1.3,1.3,0,0,0,.83-.24A.72.72,0,0,0,33.57,49.68Z"/><path class="cls-1" d="M36.27,45.28v1.13h1v.4h-1v2.87a1,1,0,0,0,.15.61.54.54,0,0,0,.42.18H37l.2,0,.07.37a1,1,0,0,1-.24.08,1.33,1.33,0,0,1-.28,0,.91.91,0,0,1-.73-.3,1.37,1.37,0,0,1-.26-.92V46.81H35v-.4h.76V45.28Z"/><path class="cls-1" d="M40.19,50.9a1.72,1.72,0,0,1-1.38-.61,2.23,2.23,0,0,1-.54-1.55v-.22A2.29,2.29,0,0,1,38.81,47a1.69,1.69,0,0,1,1.34-.62,1.55,1.55,0,0,1,1.24.51,2.1,2.1,0,0,1,.44,1.39v.38H38.76v.13A2,2,0,0,0,39.14,50a1.27,1.27,0,0,0,1,.5,2,2,0,0,0,.74-.14A1.49,1.49,0,0,0,41.5,50l.2.33a1.81,1.81,0,0,1-.6.41A2.51,2.51,0,0,1,40.19,50.9Zm0-4.16a1.19,1.19,0,0,0-.92.41,1.64,1.64,0,0,0-.43,1v0h2.53v-.1a1.48,1.48,0,0,0-.31-1A1.07,1.07,0,0,0,40.15,46.74Z"/><path class="cls-1" d="M45.78,49.68a.69.69,0,0,0-.25-.53,2.05,2.05,0,0,0-.92-.38,3,3,0,0,1-1.16-.45.91.91,0,0,1-.38-.79,1.07,1.07,0,0,1,.42-.85,1.7,1.7,0,0,1,1.13-.35,1.73,1.73,0,0,1,1.17.37,1.06,1.06,0,0,1,.42.92v0h-.45a.8.8,0,0,0-.31-.63,1.44,1.44,0,0,0-1.62,0,.71.71,0,0,0-.27.55.62.62,0,0,0,.23.49,2.12,2.12,0,0,0,.92.35,3.05,3.05,0,0,1,1.17.48,1,1,0,0,1,.39.82,1.05,1.05,0,0,1-.44.89,2.2,2.2,0,0,1-2.44,0A1.07,1.07,0,0,1,43,49.6v0h.44a.8.8,0,0,0,.39.69,1.68,1.68,0,0,0,.85.22,1.35,1.35,0,0,0,.84-.24A.71.71,0,0,0,45.78,49.68Z"/><path class="cls-1" d="M49.89,48.65A2.85,2.85,0,0,1,50.34,47a1.43,1.43,0,0,1,1.24-.63,1.57,1.57,0,0,1,.79.19,1.61,1.61,0,0,1,.56.54v-2.6h.49v6.35H53L53,50.17a1.47,1.47,0,0,1-.57.54,1.62,1.62,0,0,1-.81.19,1.45,1.45,0,0,1-1.23-.59,2.53,2.53,0,0,1-.45-1.58Zm.49.08A2.25,2.25,0,0,0,50.7,50a1.06,1.06,0,0,0,1,.47,1.35,1.35,0,0,0,.78-.21,1.28,1.28,0,0,0,.49-.58V47.6a1.52,1.52,0,0,0-.47-.61,1.24,1.24,0,0,0-.79-.24,1.07,1.07,0,0,0-1,.53,2.65,2.65,0,0,0-.32,1.37Z"/><path class="cls-1" d="M57.93,50.1a1.59,1.59,0,0,1-.56.59,1.65,1.65,0,0,1-.85.21,1.33,1.33,0,0,1-1.09-.48A2.25,2.25,0,0,1,55,49V46.41h.49V49a1.89,1.89,0,0,0,.27,1.15.91.91,0,0,0,.78.35,1.48,1.48,0,0,0,.88-.24,1.38,1.38,0,0,0,.46-.68V46.41h.49v4.4H58Z"/><path class="cls-1" d="M64,50.49a1.33,1.33,0,0,0,.82-.28.91.91,0,0,0,.36-.77h.44v0a1.25,1.25,0,0,1-.48,1A1.78,1.78,0,0,1,64,50.9a1.64,1.64,0,0,1-1.37-.62,2.44,2.44,0,0,1-.49-1.58v-.18A2.47,2.47,0,0,1,62.62,47,1.64,1.64,0,0,1,64,46.33a1.67,1.67,0,0,1,1.18.43,1.36,1.36,0,0,1,.46,1.12v0h-.44a1.08,1.08,0,0,0-.34-.84,1.21,1.21,0,0,0-.85-.32,1.16,1.16,0,0,0-1,.51,2.29,2.29,0,0,0-.34,1.27v.18A2.32,2.32,0,0,0,63,50,1.16,1.16,0,0,0,64,50.49Z"/><path class="cls-1" d="M66.73,48.55a2.37,2.37,0,0,1,.54-1.6,1.76,1.76,0,0,1,1.41-.62A1.8,1.8,0,0,1,70.1,47a2.41,2.41,0,0,1,.53,1.6v.13a2.41,2.41,0,0,1-.53,1.6,1.92,1.92,0,0,1-2.83,0,2.37,2.37,0,0,1-.54-1.6Zm.49.13A2.1,2.1,0,0,0,67.61,50a1.37,1.37,0,0,0,2.15,0,2.16,2.16,0,0,0,.38-1.29v-.13a2.07,2.07,0,0,0-.39-1.28,1.35,1.35,0,0,0-2.14,0,2.07,2.07,0,0,0-.39,1.28Z"/><path class="cls-1" d="M72.41,46.41l0,.76a1.73,1.73,0,0,1,.58-.62,1.56,1.56,0,0,1,.85-.22,1.35,1.35,0,0,1,1.09.43,2.1,2.1,0,0,1,.37,1.37v2.68h-.48V48.13a1.59,1.59,0,0,0-.29-1.07,1,1,0,0,0-.8-.31,1.3,1.3,0,0,0-.84.26,1.42,1.42,0,0,0-.46.68v3.12H72v-4.4Z"/><path class="cls-1" d="M79.59,49.68a.7.7,0,0,0-.26-.53,2,2,0,0,0-.91-.38,3.1,3.1,0,0,1-1.17-.45.94.94,0,0,1-.38-.79,1.08,1.08,0,0,1,.43-.85,1.67,1.67,0,0,1,1.12-.35,1.74,1.74,0,0,1,1.18.37,1.12,1.12,0,0,1,.42.92v0h-.45a.8.8,0,0,0-.31-.63,1.22,1.22,0,0,0-.83-.27,1.2,1.2,0,0,0-.79.23.71.71,0,0,0-.27.55.62.62,0,0,0,.23.49,2.12,2.12,0,0,0,.92.35,3.05,3.05,0,0,1,1.17.48,1,1,0,0,1,.39.82,1.08,1.08,0,0,1-.44.89,1.88,1.88,0,0,1-1.18.35,1.86,1.86,0,0,1-1.26-.39,1,1,0,0,1-.43-.91v0h.45a.8.8,0,0,0,.39.69,1.65,1.65,0,0,0,.85.22,1.3,1.3,0,0,0,.83-.24A.7.7,0,0,0,79.59,49.68Z"/><path class="cls-1" d="M83.2,50.9a1.76,1.76,0,0,1-1.39-.61,2.28,2.28,0,0,1-.53-1.55v-.22A2.29,2.29,0,0,1,81.82,47a1.68,1.68,0,0,1,1.34-.62,1.56,1.56,0,0,1,1.24.51,2.1,2.1,0,0,1,.43,1.39v.38H81.77v.13A2,2,0,0,0,82.15,50a1.25,1.25,0,0,0,1,.5,2,2,0,0,0,.74-.14A1.45,1.45,0,0,0,84.5,50l.21.33a1.86,1.86,0,0,1-.61.41A2.41,2.41,0,0,1,83.2,50.9Zm0-4.16a1.19,1.19,0,0,0-.93.41,1.69,1.69,0,0,0-.42,1v0h2.52v-.1a1.54,1.54,0,0,0-.3-1A1.09,1.09,0,0,0,83.16,46.74Z"/><path class="cls-1" d="M86.7,45.15h-.49v-.69h.49Zm0,5.66h-.49v-4.4h.49Z"/><path class="cls-1" d="M88.92,50.81h-.48V44.46h.48Z"/><path class="cls-1" d="M2.32,60.9a1.74,1.74,0,0,1-1.39-.61,2.23,2.23,0,0,1-.54-1.55v-.22A2.29,2.29,0,0,1,.93,57a1.69,1.69,0,0,1,1.34-.62,1.55,1.55,0,0,1,1.24.51A2.1,2.1,0,0,1,4,58.23v.38H.88v.13A2,2,0,0,0,1.26,60a1.28,1.28,0,0,0,1.06.5,2,2,0,0,0,.74-.14A1.52,1.52,0,0,0,3.62,60l.21.33a1.82,1.82,0,0,1-.61.41A2.41,2.41,0,0,1,2.32,60.9Zm0-4.16a1.19,1.19,0,0,0-.92.41,1.75,1.75,0,0,0-.43,1l0,0H3.46v-.1a1.48,1.48,0,0,0-.31-1A1.07,1.07,0,0,0,2.27,56.74Z"/><path class="cls-1" d="M6,55.28v1.13H7v.4H6v2.87a1,1,0,0,0,.15.61.54.54,0,0,0,.42.18h.17l.2,0,.07.36a1,1,0,0,1-.24.08,1.36,1.36,0,0,1-.29,0,.93.93,0,0,1-.72-.29,1.41,1.41,0,0,1-.26-.93V56.81H4.77v-.4h.76V55.28Z"/><path class="cls-1" d="M10.45,58.65A2.94,2.94,0,0,1,10.89,57a1.45,1.45,0,0,1,1.25-.63,1.57,1.57,0,0,1,.79.19,1.61,1.61,0,0,1,.56.54v-2.6H14v6.35h-.4l-.07-.64a1.47,1.47,0,0,1-.57.54,1.62,1.62,0,0,1-.81.19,1.48,1.48,0,0,1-1.24-.59,2.6,2.6,0,0,1-.44-1.58Zm.49.08A2.17,2.17,0,0,0,11.26,60a1.06,1.06,0,0,0,1,.47,1.35,1.35,0,0,0,.78-.2,1.39,1.39,0,0,0,.49-.58V57.6A1.52,1.52,0,0,0,13,57a1.24,1.24,0,0,0-.79-.24,1.07,1.07,0,0,0-1,.53,2.65,2.65,0,0,0-.32,1.37Z"/><path class="cls-1" d="M17.28,60.9a1.72,1.72,0,0,1-1.38-.61,2.23,2.23,0,0,1-.54-1.55v-.22A2.29,2.29,0,0,1,15.9,57a1.69,1.69,0,0,1,1.34-.62,1.55,1.55,0,0,1,1.24.51,2.1,2.1,0,0,1,.44,1.39v.38H15.85v.13A2,2,0,0,0,16.23,60a1.27,1.27,0,0,0,1.05.5,2,2,0,0,0,.74-.14,1.49,1.49,0,0,0,.57-.35l.2.33a1.68,1.68,0,0,1-.6.41A2.51,2.51,0,0,1,17.28,60.9Zm0-4.16a1.19,1.19,0,0,0-.92.41,1.69,1.69,0,0,0-.43,1v0h2.53v-.1a1.48,1.48,0,0,0-.31-1A1.07,1.07,0,0,0,17.24,56.74Z"/><path class="cls-1" d="M23.14,60.81h-.49V54.46h.49Z"/><path class="cls-1" d="M27.61,60.81c0-.15-.05-.28-.07-.4s0-.22,0-.34a1.74,1.74,0,0,1-.64.59,1.83,1.83,0,0,1-.94.24,1.39,1.39,0,0,1-1-.35,1.21,1.21,0,0,1-.35-.93,1.14,1.14,0,0,1,.51-1,2.34,2.34,0,0,1,1.35-.36h1.08v-.55a1,1,0,0,0-.3-.74,1.22,1.22,0,0,0-.85-.27,1.25,1.25,0,0,0-.8.25.74.74,0,0,0-.31.61h-.45v0a1,1,0,0,1,.43-.87,2,2,0,0,1,2.33,0A1.29,1.29,0,0,1,28,57.76v2.17a3.4,3.4,0,0,0,0,.45,3.29,3.29,0,0,0,.09.43ZM26,60.47a1.72,1.72,0,0,0,1-.27,1.34,1.34,0,0,0,.56-.69v-.84H26.43a1.63,1.63,0,0,0-1,.29.81.81,0,0,0-.39.68.79.79,0,0,0,.25.6A1,1,0,0,0,26,60.47Z"/><path class="cls-1" d="M32.41,56.41l0,.72a1.54,1.54,0,0,1,.57-.59,1.57,1.57,0,0,1,.83-.21,1.39,1.39,0,0,1,.84.24,1.33,1.33,0,0,1,.49.74,1.59,1.59,0,0,1,.57-.72,1.51,1.51,0,0,1,.89-.26,1.31,1.31,0,0,1,1.09.47,2.29,2.29,0,0,1,.38,1.45v2.56h-.49V58.24a1.71,1.71,0,0,0-.29-1.15,1,1,0,0,0-.8-.34,1.13,1.13,0,0,0-.86.34,1.74,1.74,0,0,0-.39.88s0,.06,0,.09v2.75H34.8V58.24a1.78,1.78,0,0,0-.29-1.14,1,1,0,0,0-.8-.35,1.22,1.22,0,0,0-.82.26,1.38,1.38,0,0,0-.42.7v3.1H32v-4.4Z"/><path class="cls-1" d="M41.39,60.9A1.74,1.74,0,0,1,40,60.29a2.23,2.23,0,0,1-.54-1.55v-.22A2.29,2.29,0,0,1,40,57a1.69,1.69,0,0,1,1.34-.62,1.55,1.55,0,0,1,1.24.51A2.1,2.1,0,0,1,43,58.23v.38H40v.13A2,2,0,0,0,40.33,60a1.28,1.28,0,0,0,1.06.5,2,2,0,0,0,.74-.14,1.52,1.52,0,0,0,.56-.35l.21.33a1.82,1.82,0,0,1-.61.41A2.41,2.41,0,0,1,41.39,60.9Zm0-4.16a1.19,1.19,0,0,0-.92.41,1.75,1.75,0,0,0-.43,1l0,0h2.52v-.1a1.48,1.48,0,0,0-.31-1A1.07,1.07,0,0,0,41.34,56.74Z"/><path class="cls-1" d="M47,59.69a.69.69,0,0,0-.25-.54,2.05,2.05,0,0,0-.92-.38,3,3,0,0,1-1.16-.45.9.9,0,0,1-.38-.79,1.07,1.07,0,0,1,.42-.85,1.75,1.75,0,0,1,1.13-.35A1.73,1.73,0,0,1,47,56.7a1.07,1.07,0,0,1,.42.92v0h-.46a.8.8,0,0,0-.31-.63,1.21,1.21,0,0,0-.82-.27A1.18,1.18,0,0,0,45,57a.68.68,0,0,0-.27.54A.62.62,0,0,0,45,58a2.12,2.12,0,0,0,.92.35,3.22,3.22,0,0,1,1.17.48,1,1,0,0,1,.4.82,1.05,1.05,0,0,1-.45.89,1.88,1.88,0,0,1-1.18.35,2,2,0,0,1-1.26-.38,1.1,1.1,0,0,1-.43-.92v0h.45a.77.77,0,0,0,.38.69,1.58,1.58,0,0,0,.85.22,1.33,1.33,0,0,0,.84-.24A.69.69,0,0,0,47,59.69Z"/><path class="cls-1" d="M51.79,60.1a1.59,1.59,0,0,1-.56.59,1.65,1.65,0,0,1-.85.21,1.36,1.36,0,0,1-1.09-.47A2.31,2.31,0,0,1,48.9,59V56.41h.48V59a1.94,1.94,0,0,0,.28,1.16.93.93,0,0,0,.78.34,1.48,1.48,0,0,0,.88-.24,1.4,1.4,0,0,0,.46-.67V56.41h.49v4.4h-.44Z"/><path class="cls-1" d="M55.9,56.83l-.35,0a1.13,1.13,0,0,0-.76.26,1.57,1.57,0,0,0-.42.71v3h-.49v-4.4h.43l.06.73v0a1.55,1.55,0,0,1,.52-.63,1.22,1.22,0,0,1,.76-.23h.17l.14,0Z"/><path class="cls-1" d="M58.66,60.9a1.76,1.76,0,0,1-1.39-.61,2.23,2.23,0,0,1-.53-1.55v-.22A2.29,2.29,0,0,1,57.28,57a1.67,1.67,0,0,1,1.33-.62,1.54,1.54,0,0,1,1.24.51,2.1,2.1,0,0,1,.44,1.39v.38H57.23v.13A2,2,0,0,0,57.61,60a1.25,1.25,0,0,0,1,.5,2,2,0,0,0,.74-.14A1.52,1.52,0,0,0,60,60l.21.33a1.82,1.82,0,0,1-.61.41A2.41,2.41,0,0,1,58.66,60.9Zm0-4.16a1.19,1.19,0,0,0-.92.41,1.75,1.75,0,0,0-.42,1v0H59.8v-.1a1.48,1.48,0,0,0-.31-1A1.06,1.06,0,0,0,58.61,56.74Z"/><path class="cls-1" d="M66.76,60.81a3.77,3.77,0,0,1-.07-.4,1.88,1.88,0,0,1,0-.34,1.82,1.82,0,0,1-.64.59,1.86,1.86,0,0,1-1,.24,1.38,1.38,0,0,1-1-.35,1.21,1.21,0,0,1-.36-.93,1.15,1.15,0,0,1,.52-1,2.28,2.28,0,0,1,1.34-.36h1.09v-.55a1,1,0,0,0-.3-.74,1.22,1.22,0,0,0-.85-.27,1.3,1.3,0,0,0-.81.25.76.76,0,0,0-.3.61H64v0a1,1,0,0,1,.42-.87,2,2,0,0,1,2.34,0,1.32,1.32,0,0,1,.44,1.06v2.17a3.4,3.4,0,0,0,0,.45,2.17,2.17,0,0,0,.08.43Zm-1.62-.34a1.75,1.75,0,0,0,1-.27,1.39,1.39,0,0,0,.56-.69v-.84H65.58a1.61,1.61,0,0,0-1,.29.81.81,0,0,0-.39.68.76.76,0,0,0,.25.6A1,1,0,0,0,65.14,60.47Z"/><path class="cls-1" d="M70.39,60.49a1.36,1.36,0,0,0,.83-.28.91.91,0,0,0,.36-.77H72v0a1.19,1.19,0,0,1-.48,1,1.76,1.76,0,0,1-1.15.41A1.67,1.67,0,0,1,69,60.28a2.5,2.5,0,0,1-.49-1.58v-.17A2.5,2.5,0,0,1,69,57a1.63,1.63,0,0,1,1.37-.62,1.68,1.68,0,0,1,1.18.43A1.37,1.37,0,0,1,72,57.88v0h-.44a1.08,1.08,0,0,0-.34-.84,1.25,1.25,0,0,0-.85-.32,1.15,1.15,0,0,0-1,.51A2.24,2.24,0,0,0,69,58.53v.17A2.24,2.24,0,0,0,69.36,60,1.15,1.15,0,0,0,70.39,60.49Z"/><path class="cls-1" d="M73.13,58.55a2.41,2.41,0,0,1,.53-1.6,1.8,1.8,0,0,1,1.42-.62,1.78,1.78,0,0,1,1.41.62,2.37,2.37,0,0,1,.54,1.6v.13a2.37,2.37,0,0,1-.54,1.6,1.76,1.76,0,0,1-1.41.62,1.8,1.8,0,0,1-1.42-.62,2.41,2.41,0,0,1-.53-1.6Zm.49.13A2.1,2.1,0,0,0,74,60a1.36,1.36,0,0,0,2.14,0,2.1,2.1,0,0,0,.39-1.29v-.13a2.07,2.07,0,0,0-.39-1.28,1.27,1.27,0,0,0-1.07-.53,1.24,1.24,0,0,0-1.07.53,2.07,2.07,0,0,0-.39,1.28Z"/><path class="cls-1" d="M81.26,60.1a1.54,1.54,0,0,1-.57.59,1.64,1.64,0,0,1-.84.21,1.38,1.38,0,0,1-1.1-.47A2.31,2.31,0,0,1,78.36,59V56.41h.49V59a1.94,1.94,0,0,0,.27,1.16,1,1,0,0,0,.78.34,1.46,1.46,0,0,0,.88-.24,1.33,1.33,0,0,0,.46-.67V56.41h.49v4.4H81.3Z"/><path class="cls-1" d="M86,59.69a.7.7,0,0,0-.26-.54,2.05,2.05,0,0,0-.92-.38,3,3,0,0,1-1.16-.45.92.92,0,0,1-.38-.79,1.05,1.05,0,0,1,.43-.85,1.71,1.71,0,0,1,1.12-.35A1.77,1.77,0,0,1,86,56.7a1.13,1.13,0,0,1,.42.92v0H86a.84.84,0,0,0-.31-.63,1.24,1.24,0,0,0-.83-.27A1.18,1.18,0,0,0,84,57a.68.68,0,0,0-.27.54A.6.6,0,0,0,84,58a2.07,2.07,0,0,0,.91.35,3.07,3.07,0,0,1,1.17.48,1,1,0,0,1,.4.82,1.05,1.05,0,0,1-.45.89,1.85,1.85,0,0,1-1.17.35,1.91,1.91,0,0,1-1.26-.38,1.11,1.11,0,0,1-.44-.92v0h.45a.8.8,0,0,0,.39.69,1.56,1.56,0,0,0,.85.22,1.3,1.3,0,0,0,.83-.24A.71.71,0,0,0,86,59.69Z"/><path class="cls-1" d="M88.69,55.28v1.13h1v.4h-1v2.87a1,1,0,0,0,.15.61.54.54,0,0,0,.42.18h.17l.2,0,.07.36a1,1,0,0,1-.24.08,1.33,1.33,0,0,1-.28,0,.94.94,0,0,1-.73-.29,1.41,1.41,0,0,1-.26-.93V56.81h-.76v-.4h.76V55.28Z"/><path class="cls-1" d="M91.49,55.15H91v-.69h.49Zm0,5.66H91v-4.4h.49Z"/><path class="cls-1" d="M93,58.65A2.87,2.87,0,0,1,93.42,57a1.44,1.44,0,0,1,1.24-.63,1.58,1.58,0,0,1,.8.19,1.61,1.61,0,0,1,.56.54l.08-.65h.39v6.1H96V60.24a1.64,1.64,0,0,1-.56.49,1.8,1.8,0,0,1-.79.17,1.47,1.47,0,0,1-1.23-.59A2.53,2.53,0,0,1,93,58.73Zm.48.08A2.31,2.31,0,0,0,93.78,60a1.09,1.09,0,0,0,1,.48,1.42,1.42,0,0,0,.77-.2,1.41,1.41,0,0,0,.49-.56V57.55a1.49,1.49,0,0,0-.47-.58,1.27,1.27,0,0,0-.78-.23,1,1,0,0,0-1,.53,2.61,2.61,0,0,0-.33,1.38Z"/><path class="cls-1" d="M101,60.1a1.54,1.54,0,0,1-.57.59,1.64,1.64,0,0,1-.84.21,1.34,1.34,0,0,1-1.09-.47,2.24,2.24,0,0,1-.4-1.47V56.41h.49V59a1.87,1.87,0,0,0,.28,1.16.92.92,0,0,0,.77.34,1.46,1.46,0,0,0,.88-.24,1.33,1.33,0,0,0,.46-.67V56.41h.49v4.4h-.43Z"/><path class="cls-1" d="M104.78,60.9a1.72,1.72,0,0,1-1.38-.61,2.23,2.23,0,0,1-.54-1.55v-.22A2.29,2.29,0,0,1,103.4,57a1.69,1.69,0,0,1,1.34-.62,1.55,1.55,0,0,1,1.24.51,2.1,2.1,0,0,1,.43,1.39v.38h-3.06v.13a2,2,0,0,0,.38,1.25,1.27,1.27,0,0,0,1,.5,2,2,0,0,0,.74-.14,1.38,1.38,0,0,0,.56-.35l.21.33a1.64,1.64,0,0,1-.61.41A2.41,2.41,0,0,1,104.78,60.9Zm0-4.16a1.21,1.21,0,0,0-.93.41,1.75,1.75,0,0,0-.42,1v0h2.53v-.1a1.54,1.54,0,0,0-.31-1A1.09,1.09,0,0,0,104.74,56.74Z"/><path class="cls-1" d="M7.14,35.64c0,.15,0,.28,0,.38a1.73,1.73,0,0,1,0,.27.58.58,0,0,1,0,.17.8.8,0,0,1-.14.17,1.76,1.76,0,0,1-.37.25,3.48,3.48,0,0,1-.58.26,4.72,4.72,0,0,1-.72.19,4.25,4.25,0,0,1-.8.07,4.19,4.19,0,0,1-1.63-.29,3,3,0,0,1-1.19-.84,3.61,3.61,0,0,1-.72-1.36,6,6,0,0,1-.25-1.83A6.37,6.37,0,0,1,.94,31a3.91,3.91,0,0,1,.84-1.44A3.18,3.18,0,0,1,3,28.73a4.39,4.39,0,0,1,1.61-.28,3.93,3.93,0,0,1,.69.06,5.59,5.59,0,0,1,.65.17,3.25,3.25,0,0,1,.53.24,1.27,1.27,0,0,1,.33.24.6.6,0,0,1,.14.16.54.54,0,0,1,.07.17c0,.08,0,.16,0,.27a3.79,3.79,0,0,1,0,.38,2,2,0,0,1-.09.72q-.09.21-.24.21A.58.58,0,0,1,6.46,31a3.86,3.86,0,0,0-.4-.28,3.51,3.51,0,0,0-.55-.28,2.18,2.18,0,0,0-.77-.12,1.5,1.5,0,0,0-1.33.67,3.49,3.49,0,0,0-.47,2,4.84,4.84,0,0,0,.12,1.13,2.28,2.28,0,0,0,.34.82,1.41,1.41,0,0,0,.57.49,1.85,1.85,0,0,0,.8.17,2.16,2.16,0,0,0,.8-.14,2.89,2.89,0,0,0,.58-.31,4.74,4.74,0,0,0,.42-.3.45.45,0,0,1,.28-.14.21.21,0,0,1,.14,0,.38.38,0,0,1,.08.17,1.86,1.86,0,0,1,0,.3A3.48,3.48,0,0,1,7.14,35.64Z"/><path class="cls-1" d="M17.77,32.85a6.36,6.36,0,0,1-.26,1.85,3.79,3.79,0,0,1-.82,1.44,3.49,3.49,0,0,1-1.36.94,5.15,5.15,0,0,1-1.92.33,5.14,5.14,0,0,1-1.84-.3,3.27,3.27,0,0,1-1.3-.85,3.51,3.51,0,0,1-.77-1.38A6.32,6.32,0,0,1,9.25,33a6.06,6.06,0,0,1,.27-1.86,4,4,0,0,1,.82-1.45,3.58,3.58,0,0,1,1.36-.93,5.06,5.06,0,0,1,1.91-.33,5.4,5.4,0,0,1,1.85.29,3.31,3.31,0,0,1,1.3.85A3.56,3.56,0,0,1,17.52,31,6.41,6.41,0,0,1,17.77,32.85Zm-2.31.09a6.08,6.08,0,0,0-.09-1.09,2.52,2.52,0,0,0-.32-.86,1.61,1.61,0,0,0-.59-.57,2.23,2.23,0,0,0-1.8,0,1.59,1.59,0,0,0-.62.53,2.63,2.63,0,0,0-.36.85,4.84,4.84,0,0,0-.12,1.13,5.22,5.22,0,0,0,.1,1.08,2.65,2.65,0,0,0,.31.86,1.56,1.56,0,0,0,.6.57,2,2,0,0,0,.92.2,2,2,0,0,0,.89-.18,1.64,1.64,0,0,0,.61-.53,2.63,2.63,0,0,0,.36-.85A5.38,5.38,0,0,0,15.46,32.94Z"/><path class="cls-1" d="M28.2,36.9a.3.3,0,0,1-.05.16.5.5,0,0,1-.18.11,2,2,0,0,1-.34.07l-.54,0-.55,0a1.94,1.94,0,0,1-.35-.07.38.38,0,0,1-.17-.11A.25.25,0,0,1,26,36.9V32.36a4.13,4.13,0,0,0-.08-.9,1.86,1.86,0,0,0-.25-.57,1,1,0,0,0-.41-.37,1.38,1.38,0,0,0-.59-.13,1.49,1.49,0,0,0-.87.32,4.57,4.57,0,0,0-.91.91V36.9a.3.3,0,0,1-.05.16.48.48,0,0,1-.19.11,1.65,1.65,0,0,1-.34.07l-.54,0-.55,0a2,2,0,0,1-.34-.07.43.43,0,0,1-.18-.11.24.24,0,0,1-.05-.16V29a.29.29,0,0,1,0-.16.34.34,0,0,1,.16-.11,1.13,1.13,0,0,1,.3-.06,2.86,2.86,0,0,1,.46,0,3,3,0,0,1,.47,0,1,1,0,0,1,.29.06.37.37,0,0,1,.15.11.29.29,0,0,1,0,.16v.92a5.08,5.08,0,0,1,1.34-1.07,3,3,0,0,1,1.43-.36,3.08,3.08,0,0,1,1.36.27,2.4,2.4,0,0,1,.9.73,2.86,2.86,0,0,1,.5,1.07A6.31,6.31,0,0,1,28.2,32Z"/><path class="cls-1" d="M36,36.12a3,3,0,0,1,0,.6.6.6,0,0,1-.13.29.55.55,0,0,1-.24.15,1.52,1.52,0,0,1-.36.12l-.46.08-.49,0a3.38,3.38,0,0,1-1.16-.17,1.8,1.8,0,0,1-.81-.52,2.07,2.07,0,0,1-.47-.88,4.36,4.36,0,0,1-.16-1.27V30.47h-1a.29.29,0,0,1-.26-.21,2,2,0,0,1-.09-.7c0-.18,0-.32,0-.44a1.26,1.26,0,0,1,.07-.28.37.37,0,0,1,.11-.15.29.29,0,0,1,.16,0h.94V26.87a.3.3,0,0,1,0-.16.7.7,0,0,1,.18-.12,1.94,1.94,0,0,1,.35-.07l.54,0,.55,0a1.81,1.81,0,0,1,.34.07.7.7,0,0,1,.18.12.3.3,0,0,1,0,.16v1.78h1.73a.29.29,0,0,1,.16,0,.37.37,0,0,1,.11.15,1.26,1.26,0,0,1,.07.28c0,.12,0,.26,0,.44a2,2,0,0,1-.09.7.29.29,0,0,1-.26.21H33.91V34.2a1.85,1.85,0,0,0,.21,1,.8.8,0,0,0,.73.32,1.58,1.58,0,0,0,.32,0,1.49,1.49,0,0,0,.25-.07l.19-.07.14,0a.19.19,0,0,1,.1,0,.23.23,0,0,1,.08.12c0,.07,0,.15,0,.26S36,36,36,36.12Z"/><path class="cls-1" d="M43.78,29.69c0,.21,0,.39,0,.53a1.22,1.22,0,0,1-.06.32.31.31,0,0,1-.09.16.24.24,0,0,1-.15,0l-.16,0-.2-.07-.24-.06a1.39,1.39,0,0,0-.3,0,1,1,0,0,0-.37.07,1.53,1.53,0,0,0-.39.24,2.88,2.88,0,0,0-.42.43,6.47,6.47,0,0,0-.47.66V36.9a.24.24,0,0,1-.05.16.5.5,0,0,1-.18.11,2,2,0,0,1-.34.07l-.55,0-.54,0a1.94,1.94,0,0,1-.35-.07.5.5,0,0,1-.18-.11.3.3,0,0,1,0-.16V29a.29.29,0,0,1,0-.16.41.41,0,0,1,.16-.11,1.13,1.13,0,0,1,.3-.06,3,3,0,0,1,.46,0,3,3,0,0,1,.47,0,.91.91,0,0,1,.29.06.37.37,0,0,1,.15.11.29.29,0,0,1,0,.16v1a7.64,7.64,0,0,1,.59-.74,3.35,3.35,0,0,1,.53-.45,1.35,1.35,0,0,1,.5-.24,1.68,1.68,0,0,1,.5-.07l.25,0a2.12,2.12,0,0,1,.52.11.57.57,0,0,1,.16.09.28.28,0,0,1,.07.09.54.54,0,0,1,0,.15c0,.06,0,.16,0,.28Z"/><path class="cls-1" d="M54,32.85a6.36,6.36,0,0,1-.26,1.85A3.79,3.79,0,0,1,53,36.14a3.49,3.49,0,0,1-1.36.94,5.77,5.77,0,0,1-3.76,0,3.27,3.27,0,0,1-1.3-.85,3.51,3.51,0,0,1-.77-1.38A6.32,6.32,0,0,1,45.52,33a6.06,6.06,0,0,1,.27-1.86,4,4,0,0,1,.82-1.45A3.58,3.58,0,0,1,48,28.77a5.06,5.06,0,0,1,1.91-.33,5.4,5.4,0,0,1,1.85.29,3.31,3.31,0,0,1,1.3.85A3.56,3.56,0,0,1,53.79,31,6.41,6.41,0,0,1,54,32.85Zm-2.31.09a6.08,6.08,0,0,0-.09-1.09,2.52,2.52,0,0,0-.32-.86,1.61,1.61,0,0,0-.59-.57,2.23,2.23,0,0,0-1.8,0,1.59,1.59,0,0,0-.62.53,2.63,2.63,0,0,0-.36.85,4.84,4.84,0,0,0-.12,1.13,5.22,5.22,0,0,0,.1,1.08,2.65,2.65,0,0,0,.31.86,1.56,1.56,0,0,0,.6.57,2,2,0,0,0,.92.2,2,2,0,0,0,.89-.18,1.64,1.64,0,0,0,.61-.53,2.63,2.63,0,0,0,.36-.85A4.78,4.78,0,0,0,51.73,32.94Z"/><path class="cls-1" d="M59.12,36.9a.3.3,0,0,1,0,.16.5.5,0,0,1-.18.11,1.94,1.94,0,0,1-.35.07l-.54,0-.54,0a1.94,1.94,0,0,1-.35-.07.5.5,0,0,1-.18-.11.24.24,0,0,1,0-.16V25.18a.24.24,0,0,1,0-.16.41.41,0,0,1,.18-.12,1.84,1.84,0,0,1,.35-.08l.54,0,.54,0a1.84,1.84,0,0,1,.35.08.41.41,0,0,1,.18.12.3.3,0,0,1,0,.16Z"/></g></g></svg>