<svg xmlns="http://www.w3.org/2000/svg" viewBox="0 0 105.1 64.09"><defs><style>.cls-1{fill:#fff;}</style></defs><g id="Calque_2" data-name="Calque 2"><g id="Calque_1-2" data-name="Calque 1"><path class="cls-1" d="M.61,47.51s0,0,0,0l0,.07h0l0,0s0,0,0,0l0-.07S.63,47.51.61,47.51Z"/><path class="cls-1" d="M2.93,51.08a.74.74,0,0,0-.26-.55,2.05,2.05,0,0,0-.93-.38A3.09,3.09,0,0,1,.56,49.7a1,1,0,0,1-.39-.81A1.1,1.1,0,0,1,.61,48a1.74,1.74,0,0,1,1.14-.35,1.79,1.79,0,0,1,1.19.38,1.12,1.12,0,0,1,.43.93v0H2.9a.85.85,0,0,0-.32-.64,1.24,1.24,0,0,0-.83-.27,1.19,1.19,0,0,0-.81.24.7.7,0,0,0-.27.55.61.61,0,0,0,.23.5,2.18,2.18,0,0,0,.93.35A3.09,3.09,0,0,1,3,50.22a1,1,0,0,1,.4.83A1.1,1.1,0,0,1,3,52a1.92,1.92,0,0,1-1.2.35,1.94,1.94,0,0,1-1.28-.39A1.12,1.12,0,0,1,.05,51v0H.52a.82.82,0,0,0,.39.7,1.62,1.62,0,0,0,.86.22,1.36,1.36,0,0,0,.85-.24A.7.7,0,0,0,2.93,51.08Z"/><path class="cls-1" d="M8.5,50.11A2.54,2.54,0,0,1,8,51.71a1.48,1.48,0,0,1-1.25.6A1.8,1.8,0,0,1,6,52.13a1.53,1.53,0,0,1-.57-.5v2.31H4.9V47.75h.38l.09.7A1.61,1.61,0,0,1,6,47.87a1.7,1.7,0,0,1,.83-.2A1.45,1.45,0,0,1,8,48.31,2.86,2.86,0,0,1,8.5,50ZM8,50a2.5,2.5,0,0,0-.34-1.38,1.08,1.08,0,0,0-1-.54,1.33,1.33,0,0,0-.8.23A1.45,1.45,0,0,0,5.4,49v2.16a1.3,1.3,0,0,0,.49.57,1.39,1.39,0,0,0,.79.21,1.13,1.13,0,0,0,1-.49A2.24,2.24,0,0,0,8,50.11Z"/><path class="cls-1" d="M11.64,52.31a1.79,1.79,0,0,1-1.4-.62,2.27,2.27,0,0,1-.55-1.57v-.23a2.36,2.36,0,0,1,.55-1.59,1.74,1.74,0,0,1,1.36-.63,1.57,1.57,0,0,1,1.26.52,2.14,2.14,0,0,1,.44,1.41V50H10.19v.14a2,2,0,0,0,.39,1.27,1.26,1.26,0,0,0,1.06.5,2.06,2.06,0,0,0,.76-.13,1.7,1.7,0,0,0,.57-.37l.21.34a1.72,1.72,0,0,1-.62.41A2.32,2.32,0,0,1,11.64,52.31Zm0-4.22a1.23,1.23,0,0,0-.94.41,1.79,1.79,0,0,0-.43,1v0h2.57v-.1a1.48,1.48,0,0,0-.32-1A1.06,1.06,0,0,0,11.6,48.09Zm.52-2.24h.61v0l-1,1.07h-.44Z"/><path class="cls-1" d="M16.27,51.89a1.36,1.36,0,0,0,.85-.28.94.94,0,0,0,.36-.78h.44v0a1.24,1.24,0,0,1-.49,1,1.75,1.75,0,0,1-1.17.42,1.69,1.69,0,0,1-1.39-.63,2.51,2.51,0,0,1-.49-1.61V49.9a2.5,2.5,0,0,1,.49-1.6,1.68,1.68,0,0,1,1.39-.63,1.72,1.72,0,0,1,1.2.43,1.42,1.42,0,0,1,.46,1.14v0h-.44a1.11,1.11,0,0,0-.35-.86,1.24,1.24,0,0,0-.86-.32,1.14,1.14,0,0,0-1,.52,2.25,2.25,0,0,0-.35,1.29v.17a2.32,2.32,0,0,0,.35,1.31A1.15,1.15,0,0,0,16.27,51.89Z"/><path class="cls-1" d="M19.88,46.47h-.49v-.69h.49Zm0,5.75h-.49V47.75h.49Z"/><path class="cls-1" d="M24.42,52.22c0-.16-.05-.29-.07-.4s0-.23,0-.35a1.89,1.89,0,0,1-1.61.84,1.42,1.42,0,0,1-1-.35,1.26,1.26,0,0,1-.36-1,1.14,1.14,0,0,1,.53-1,2.28,2.28,0,0,1,1.36-.37h1.1v-.55a1,1,0,0,0-.3-.76,1.49,1.49,0,0,0-1.68,0A.74.74,0,0,0,22,49h-.46v0a1.07,1.07,0,0,1,.43-.89,1.83,1.83,0,0,1,1.19-.38,1.76,1.76,0,0,1,1.18.38,1.31,1.31,0,0,1,.45,1.07v2.2a3.44,3.44,0,0,0,0,.46,2.15,2.15,0,0,0,.09.44Zm-1.64-.35a1.73,1.73,0,0,0,1-.27,1.34,1.34,0,0,0,.57-.7v-.85h-1.1a1.58,1.58,0,0,0-1,.29.84.84,0,0,0-.39.69.79.79,0,0,0,.25.61A1,1,0,0,0,22.78,51.87Z"/><path class="cls-1" d="M27,52.22h-.49V45.78H27Z"/><path class="cls-1" d="M29.29,46.47H28.8v-.69h.49Zm0,5.75H28.8V47.75h.49Z"/><path class="cls-1" d="M33.67,51.08a.74.74,0,0,0-.26-.55,2.05,2.05,0,0,0-.93-.38,3.09,3.09,0,0,1-1.18-.45,1,1,0,0,1-.38-.81,1.09,1.09,0,0,1,.43-.87,2,2,0,0,1,2.33,0,1.12,1.12,0,0,1,.43.93v0h-.46a.84.84,0,0,0-.31-.64,1.25,1.25,0,0,0-.84-.27,1.19,1.19,0,0,0-.81.24.7.7,0,0,0-.27.55.64.64,0,0,0,.23.5,2.24,2.24,0,0,0,.93.35,3,3,0,0,1,1.19.49,1,1,0,0,1,.4.83,1.1,1.1,0,0,1-.45.91,2.25,2.25,0,0,1-2.47,0A1.1,1.1,0,0,1,30.8,51v0h.46a.82.82,0,0,0,.39.7,1.62,1.62,0,0,0,.86.22,1.34,1.34,0,0,0,.85-.24A.7.7,0,0,0,33.67,51.08Z"/><path class="cls-1" d="M36.41,46.61v1.14h1v.41h-1v2.91a1,1,0,0,0,.16.62.55.55,0,0,0,.43.18h.17l.2,0,.08.37a1.23,1.23,0,0,1-.25.08,1.43,1.43,0,0,1-.29,0,.91.91,0,0,1-.73-.3,1.37,1.37,0,0,1-.26-.94V48.16h-.78v-.41h.78V46.61Z"/><path class="cls-1" d="M40.4,52.31A1.79,1.79,0,0,1,39,51.69a2.27,2.27,0,0,1-.54-1.57v-.23A2.31,2.31,0,0,1,39,48.3a1.72,1.72,0,0,1,1.35-.63,1.54,1.54,0,0,1,1.26.52,2.09,2.09,0,0,1,.45,1.41V50H39v.14a2.08,2.08,0,0,0,.38,1.27,1.3,1.3,0,0,0,1.07.5,2,2,0,0,0,.75-.13,1.52,1.52,0,0,0,.57-.37l.21.34a1.6,1.6,0,0,1-.61.41A2.32,2.32,0,0,1,40.4,52.31Zm0-4.22a1.19,1.19,0,0,0-.93.41,1.72,1.72,0,0,0-.43,1v0h2.56v-.1a1.48,1.48,0,0,0-.31-1A1.09,1.09,0,0,0,40.35,48.09Z"/><path class="cls-1" d="M46.07,51.08a.7.7,0,0,0-.26-.55,2.05,2.05,0,0,0-.93-.38,3.09,3.09,0,0,1-1.18-.45,1,1,0,0,1-.38-.81,1.09,1.09,0,0,1,.43-.87,2,2,0,0,1,2.33,0,1.12,1.12,0,0,1,.43.93v0H46a.84.84,0,0,0-.31-.64,1.25,1.25,0,0,0-.84-.27,1.19,1.19,0,0,0-.81.24.7.7,0,0,0-.27.55.64.64,0,0,0,.23.5,2.24,2.24,0,0,0,.93.35,3,3,0,0,1,1.19.49,1,1,0,0,1,.4.83,1.1,1.1,0,0,1-.45.91,2.25,2.25,0,0,1-2.47,0A1.1,1.1,0,0,1,43.2,51v0h.45a.82.82,0,0,0,.39.7,1.63,1.63,0,0,0,.87.22,1.33,1.33,0,0,0,.84-.24A.7.7,0,0,0,46.07,51.08Z"/><path class="cls-1" d="M50.24,50a2.86,2.86,0,0,1,.46-1.71A1.45,1.45,0,0,1,52,47.67a1.6,1.6,0,0,1,.8.19,1.66,1.66,0,0,1,.57.55V45.78h.5v6.44h-.41l-.07-.65a1.58,1.58,0,0,1-.57.55,1.81,1.81,0,0,1-.83.19,1.48,1.48,0,0,1-1.25-.6,2.54,2.54,0,0,1-.46-1.6Zm.5.09a2.32,2.32,0,0,0,.32,1.29,1.12,1.12,0,0,0,1,.48,1.42,1.42,0,0,0,.8-.21,1.5,1.5,0,0,0,.49-.59V49a1.55,1.55,0,0,0-.48-.62,1.25,1.25,0,0,0-.8-.24,1.08,1.08,0,0,0-1,.53A2.62,2.62,0,0,0,50.74,50Z"/><path class="cls-1" d="M58.41,51.49a1.49,1.49,0,0,1-.58.61,1.65,1.65,0,0,1-.85.21,1.36,1.36,0,0,1-1.11-.48,2.29,2.29,0,0,1-.4-1.49V47.75H56v2.6a2,2,0,0,0,.28,1.17,1,1,0,0,0,.79.36,1.41,1.41,0,0,0,.89-.25,1.31,1.31,0,0,0,.47-.68v-3.2h.5v4.47h-.44Z"/><path class="cls-1" d="M64.56,51.89a1.36,1.36,0,0,0,.85-.28.94.94,0,0,0,.36-.78h.44v0a1.24,1.24,0,0,1-.49,1,1.75,1.75,0,0,1-1.17.42,1.69,1.69,0,0,1-1.39-.63,2.51,2.51,0,0,1-.49-1.61V49.9a2.5,2.5,0,0,1,.49-1.6,1.68,1.68,0,0,1,1.39-.63,1.72,1.72,0,0,1,1.2.43,1.42,1.42,0,0,1,.46,1.14v0h-.44a1.11,1.11,0,0,0-.35-.86,1.24,1.24,0,0,0-.86-.32,1.14,1.14,0,0,0-1,.52,2.25,2.25,0,0,0-.35,1.29v.17a2.32,2.32,0,0,0,.35,1.31A1.15,1.15,0,0,0,64.56,51.89Z"/><path class="cls-1" d="M67.34,49.92a2.4,2.4,0,0,1,.54-1.62,2,2,0,0,1,2.88,0,2.4,2.4,0,0,1,.54,1.62v.14a2.4,2.4,0,0,1-.54,1.62,1.79,1.79,0,0,1-1.43.63,1.84,1.84,0,0,1-1.45-.63,2.4,2.4,0,0,1-.54-1.62Zm.5.14a2.13,2.13,0,0,0,.39,1.3,1.27,1.27,0,0,0,1.1.53,1.25,1.25,0,0,0,1.08-.53,2.14,2.14,0,0,0,.4-1.3v-.14a2.16,2.16,0,0,0-.4-1.3,1.39,1.39,0,0,0-2.18,0,2.15,2.15,0,0,0-.39,1.3Z"/><path class="cls-1" d="M73.11,47.75l0,.78a1.72,1.72,0,0,1,.58-.64,1.63,1.63,0,0,1,.87-.22,1.38,1.38,0,0,1,1.1.44,2.08,2.08,0,0,1,.38,1.39v2.72h-.49V49.5a1.61,1.61,0,0,0-.29-1.08,1,1,0,0,0-.81-.32,1.36,1.36,0,0,0-.86.26,1.53,1.53,0,0,0-.47.7v3.16h-.49V47.75Z"/><path class="cls-1" d="M78.49,46.61v1.14h1v.41h-1v2.91a.92.92,0,0,0,.16.62.52.52,0,0,0,.42.18h.18l.2,0,.07.37a1.23,1.23,0,0,1-.25.08,1.36,1.36,0,0,1-.29,0,.91.91,0,0,1-.73-.3,1.43,1.43,0,0,1-.26-.94V48.16h-.77v-.41H78V46.61Z"/><path class="cls-1" d="M82.82,48.18l-.35,0a1.16,1.16,0,0,0-.77.26,1.51,1.51,0,0,0-.43.73v3.08h-.49V47.75h.43l.06.75v0a1.7,1.7,0,0,1,.52-.65,1.35,1.35,0,0,1,.78-.23h.17l.14,0Z"/><path class="cls-1" d="M83.64,49.92a2.4,2.4,0,0,1,.54-1.62,1.95,1.95,0,0,1,2.87,0,2.36,2.36,0,0,1,.55,1.62v.14a2.4,2.4,0,0,1-.54,1.62,2,2,0,0,1-2.88,0,2.4,2.4,0,0,1-.54-1.62Zm.5.14a2.13,2.13,0,0,0,.39,1.3,1.39,1.39,0,0,0,2.18,0,2.13,2.13,0,0,0,.39-1.3v-.14a2.15,2.15,0,0,0-.39-1.3,1.31,1.31,0,0,0-1.09-.53,1.28,1.28,0,0,0-1.09.53,2.15,2.15,0,0,0-.39,1.3Zm2.68-3.2v.08h-.46l-.69-.7-.68.7h-.46v-.09l.94-.91h.4Z"/><path class="cls-1" d="M89.52,52.22H89V45.78h.49Z"/><path class="cls-1" d="M92.92,52.31a1.82,1.82,0,0,1-1.41-.62A2.27,2.27,0,0,1,91,50.12v-.23a2.36,2.36,0,0,1,.55-1.59,1.74,1.74,0,0,1,1.36-.63,1.57,1.57,0,0,1,1.26.52,2.14,2.14,0,0,1,.44,1.41V50H91.47v.14a2,2,0,0,0,.39,1.27,1.26,1.26,0,0,0,1.06.5,2.06,2.06,0,0,0,.76-.13,1.7,1.7,0,0,0,.57-.37l.21.34a1.72,1.72,0,0,1-.62.41A2.32,2.32,0,0,1,92.92,52.31Zm0-4.22a1.23,1.23,0,0,0-.94.41,1.79,1.79,0,0,0-.43,1v0h2.56v-.1a1.48,1.48,0,0,0-.31-1A1.07,1.07,0,0,0,92.88,48.09Z"/><path class="cls-1" d="M2,62.46a1.78,1.78,0,0,1-1.41-.61A2.31,2.31,0,0,1,0,60.27V60a2.31,2.31,0,0,1,.55-1.59,1.72,1.72,0,0,1,1.35-.63,1.57,1.57,0,0,1,1.26.52,2.09,2.09,0,0,1,.45,1.41v.39H.5v.13a2,2,0,0,0,.38,1.27A1.27,1.27,0,0,0,2,62a2,2,0,0,0,.75-.13,1.64,1.64,0,0,0,.57-.36l.21.34a1.86,1.86,0,0,1-.61.41A2.33,2.33,0,0,1,2,62.46ZM1.9,58.24a1.19,1.19,0,0,0-.93.41,1.72,1.72,0,0,0-.43,1v0H3.11v-.1a1.49,1.49,0,0,0-.31-1A1.09,1.09,0,0,0,1.9,58.24Z"/><path class="cls-1" d="M5.72,56.76V57.9h1v.41h-1v2.91a.92.92,0,0,0,.16.62A.5.5,0,0,0,6.3,62h.18l.2,0,.07.37a1.23,1.23,0,0,1-.25.08,1.36,1.36,0,0,1-.29,0,.91.91,0,0,1-.73-.3,1.35,1.35,0,0,1-.26-.94V58.31H4.45V57.9h.77V56.76Z"/><path class="cls-1" d="M10.21,60.18a3,3,0,0,1,.45-1.72,1.47,1.47,0,0,1,1.26-.64,1.62,1.62,0,0,1,.81.2,1.55,1.55,0,0,1,.57.54V55.93h.49v6.44h-.4l-.07-.64a1.58,1.58,0,0,1-1.41.73,1.48,1.48,0,0,1-1.25-.6,2.58,2.58,0,0,1-.45-1.6Zm.49.08A2.24,2.24,0,0,0,11,61.55,1.09,1.09,0,0,0,12,62a1.42,1.42,0,0,0,.8-.21,1.45,1.45,0,0,0,.5-.59V59.11a1.75,1.75,0,0,0-.48-.62,1.3,1.3,0,0,0-.81-.24,1.08,1.08,0,0,0-1,.54,2.6,2.6,0,0,0-.33,1.39Z"/><path class="cls-1" d="M17.15,62.46a1.78,1.78,0,0,1-1.41-.61,2.31,2.31,0,0,1-.54-1.58V60a2.36,2.36,0,0,1,.54-1.59,1.74,1.74,0,0,1,1.36-.63,1.6,1.6,0,0,1,1.26.52,2.09,2.09,0,0,1,.44,1.41v.39H15.69v.13a2,2,0,0,0,.39,1.27,1.26,1.26,0,0,0,1.07.5,2,2,0,0,0,.75-.13,1.64,1.64,0,0,0,.57-.36l.21.34a1.91,1.91,0,0,1-.62.41A2.28,2.28,0,0,1,17.15,62.46Zm0-4.22a1.23,1.23,0,0,0-.94.41,1.85,1.85,0,0,0-.43,1l0,0h2.56v-.1a1.55,1.55,0,0,0-.31-1A1.09,1.09,0,0,0,17.1,58.24Z"/><path class="cls-1" d="M23.09,62.37H22.6V55.93h.49Z"/><path class="cls-1" d="M27.63,62.37c0-.15-.06-.29-.07-.4a2,2,0,0,1,0-.35,1.89,1.89,0,0,1-1.61.84,1.42,1.42,0,0,1-1-.35,1.26,1.26,0,0,1-.36-1,1.14,1.14,0,0,1,.52-1,2.31,2.31,0,0,1,1.37-.37h1.1v-.55a1,1,0,0,0-.31-.75,1.19,1.19,0,0,0-.85-.28,1.29,1.29,0,0,0-.82.25.77.77,0,0,0-.32.62h-.45v0a1,1,0,0,1,.43-.89,1.81,1.81,0,0,1,1.19-.38,1.78,1.78,0,0,1,1.18.38A1.33,1.33,0,0,1,28,59.28v2.19c0,.16,0,.31,0,.46a3.12,3.12,0,0,0,.09.44ZM26,62a1.79,1.79,0,0,0,1-.27,1.36,1.36,0,0,0,.57-.69V60.2H26.43a1.64,1.64,0,0,0-1,.29.85.85,0,0,0-.4.69.81.81,0,0,0,.25.61A1,1,0,0,0,26,62Z"/><path class="cls-1" d="M35.68,60.26a2.52,2.52,0,0,1-.46,1.6,1.48,1.48,0,0,1-1.25.6,1.8,1.8,0,0,1-.82-.18,1.45,1.45,0,0,1-.57-.5v2.31h-.5V57.9h.38l.09.7a1.51,1.51,0,0,1,.58-.57,1.6,1.6,0,0,1,.83-.21,1.47,1.47,0,0,1,1.26.64,2.87,2.87,0,0,1,.46,1.72Zm-.5-.08a2.53,2.53,0,0,0-.34-1.39,1.08,1.08,0,0,0-1-.54,1.27,1.27,0,0,0-.8.24,1.36,1.36,0,0,0-.47.61v2.16a1.2,1.2,0,0,0,.49.57,1.39,1.39,0,0,0,.79.21,1.12,1.12,0,0,0,1-.48,2.22,2.22,0,0,0,.34-1.3Z"/><path class="cls-1" d="M38.82,62.46a1.78,1.78,0,0,1-1.4-.61,2.27,2.27,0,0,1-.55-1.58V60a2.36,2.36,0,0,1,.55-1.59,1.74,1.74,0,0,1,1.36-.63,1.6,1.6,0,0,1,1.26.52,2.14,2.14,0,0,1,.44,1.41v.39H37.37v.13a2,2,0,0,0,.39,1.27,1.24,1.24,0,0,0,1.06.5,2.06,2.06,0,0,0,.76-.13,1.85,1.85,0,0,0,.57-.36l.21.34a2,2,0,0,1-.62.41A2.33,2.33,0,0,1,38.82,62.46Zm0-4.22a1.23,1.23,0,0,0-.94.41,1.79,1.79,0,0,0-.43,1v0H40v-.1a1.5,1.5,0,0,0-.32-1A1.07,1.07,0,0,0,38.78,58.24Z"/><path class="cls-1" d="M43.86,58.33l-.35,0a1.11,1.11,0,0,0-.77.26,1.44,1.44,0,0,0-.43.72v3.08h-.49V57.9h.43l.06.75v.05a1.7,1.7,0,0,1,.52-.65,1.35,1.35,0,0,1,.78-.23l.18,0,.13,0Z"/><path class="cls-1" d="M45.47,57.9l0,.74a1.5,1.5,0,0,1,.57-.6,1.56,1.56,0,0,1,.85-.22,1.41,1.41,0,0,1,.86.25,1.32,1.32,0,0,1,.49.75,1.63,1.63,0,0,1,.58-.73,1.48,1.48,0,0,1,.9-.27,1.34,1.34,0,0,1,1.1.48,2.27,2.27,0,0,1,.39,1.47v2.6h-.49V59.76a1.79,1.79,0,0,0-.3-1.17,1,1,0,0,0-.81-.34,1.12,1.12,0,0,0-.87.35,1.59,1.59,0,0,0-.39.89v2.88h-.5V59.76a1.77,1.77,0,0,0-.3-1.16,1,1,0,0,0-.81-.35,1.24,1.24,0,0,0-.82.26,1.44,1.44,0,0,0-.44.71v3.15H45V57.9Z"/><path class="cls-1" d="M54.58,62.46a1.78,1.78,0,0,1-1.41-.61,2.31,2.31,0,0,1-.54-1.58V60a2.31,2.31,0,0,1,.55-1.59,1.71,1.71,0,0,1,1.35-.63,1.57,1.57,0,0,1,1.26.52,2.09,2.09,0,0,1,.45,1.41v.39H53.12v.13a2,2,0,0,0,.39,1.27,1.26,1.26,0,0,0,1.07.5,2,2,0,0,0,.75-.13,1.64,1.64,0,0,0,.57-.36l.21.34a1.81,1.81,0,0,1-.62.41A2.28,2.28,0,0,1,54.58,62.46Zm0-4.22a1.19,1.19,0,0,0-.93.41,1.72,1.72,0,0,0-.43,1v0h2.56v-.1a1.49,1.49,0,0,0-.31-1A1.09,1.09,0,0,0,54.53,58.24ZM55.06,56h.61v0l-1,1.07h-.44Z"/><path class="cls-1" d="M60.4,62.37c0-.15,0-.29-.07-.4s0-.23,0-.35a1.8,1.8,0,0,1-.65.6,1.84,1.84,0,0,1-.95.24,1.42,1.42,0,0,1-1-.35,1.26,1.26,0,0,1-.36-1,1.14,1.14,0,0,1,.52-1,2.28,2.28,0,0,1,1.36-.37h1.1v-.55a1,1,0,0,0-.3-.75,1.2,1.2,0,0,0-.86-.28,1.31,1.31,0,0,0-.82.25.76.76,0,0,0-.31.62h-.46v0A1.09,1.09,0,0,1,58,58.2a1.85,1.85,0,0,1,1.2-.38,1.78,1.78,0,0,1,1.18.38,1.32,1.32,0,0,1,.44,1.08v2.19a3.44,3.44,0,0,0,0,.46,3.12,3.12,0,0,0,.09.44ZM58.76,62a1.79,1.79,0,0,0,1-.27,1.39,1.39,0,0,0,.56-.69V60.2h-1.1a1.69,1.69,0,0,0-1,.29.84.84,0,0,0-.39.69.78.78,0,0,0,.25.61A1,1,0,0,0,58.76,62Z"/><path class="cls-1" d="M66.06,60.26a2.58,2.58,0,0,1-.45,1.6,1.49,1.49,0,0,1-1.25.6,1.75,1.75,0,0,1-.85-.2,1.48,1.48,0,0,1-.58-.56l-.08.67h-.39V55.93H63v2.66a1.56,1.56,0,0,1,.57-.57,1.63,1.63,0,0,1,.82-.2,1.49,1.49,0,0,1,1.26.64,3,3,0,0,1,.45,1.72Zm-.5-.08a2.6,2.6,0,0,0-.33-1.39,1.07,1.07,0,0,0-1-.54,1.25,1.25,0,0,0-.82.25,1.48,1.48,0,0,0-.47.65v2a1.38,1.38,0,0,0,.49.62,1.36,1.36,0,0,0,.81.22,1.12,1.12,0,0,0,1-.48,2.32,2.32,0,0,0,.32-1.29Z"/><path class="cls-1" d="M68.06,56.62h-.49v-.69h.49Zm0,5.75h-.49V57.9h.49Z"/><path class="cls-1" d="M70.32,62.37h-.49V55.93h.49Z"/><path class="cls-1" d="M72.58,56.62h-.49v-.69h.49Zm0,5.75h-.49V57.9h.49Z"/><path class="cls-1" d="M75.06,56.76V57.9h1v.41h-1v2.91a.92.92,0,0,0,.16.62.5.5,0,0,0,.42.19h.18l.2,0,.07.37a1.23,1.23,0,0,1-.25.08,1.36,1.36,0,0,1-.29,0,.93.93,0,0,1-.73-.3,1.41,1.41,0,0,1-.26-.94V58.31h-.77V57.9h.77V56.76Z"/><path class="cls-1" d="M79,62.46a1.78,1.78,0,0,1-1.4-.61,2.32,2.32,0,0,1-.55-1.58V60a2.36,2.36,0,0,1,.55-1.59A1.74,1.74,0,0,1,79,57.82a1.6,1.6,0,0,1,1.26.52,2.14,2.14,0,0,1,.44,1.41v.39H77.59v.13A2,2,0,0,0,78,61.54,1.24,1.24,0,0,0,79,62a2.06,2.06,0,0,0,.76-.13,1.73,1.73,0,0,0,.57-.36l.21.34a2,2,0,0,1-.62.41A2.3,2.3,0,0,1,79,62.46Zm0-4.22a1.23,1.23,0,0,0-.94.41,1.79,1.79,0,0,0-.43,1v0h2.57v-.1a1.5,1.5,0,0,0-.32-1A1.06,1.06,0,0,0,79,58.24ZM79.52,56h.61v0l-1,1.07h-.45Z"/><path class="cls-1" d="M87.26,62.37a3.92,3.92,0,0,1-.06-.4,2,2,0,0,1,0-.35,1.85,1.85,0,0,1-.64.6,1.9,1.9,0,0,1-1,.24,1.42,1.42,0,0,1-1-.35,1.26,1.26,0,0,1-.36-1,1.14,1.14,0,0,1,.52-1,2.31,2.31,0,0,1,1.37-.37h1.09v-.55a1,1,0,0,0-.3-.75,1.2,1.2,0,0,0-.86-.28,1.31,1.31,0,0,0-.82.25.79.79,0,0,0-.31.62h-.46v0a1.08,1.08,0,0,1,.44-.89A1.81,1.81,0,0,1,86,57.82a1.78,1.78,0,0,1,1.18.38,1.33,1.33,0,0,1,.45,1.08v2.19a3.46,3.46,0,0,0,0,.46,3.12,3.12,0,0,0,.09.44ZM85.62,62a1.79,1.79,0,0,0,1-.27,1.34,1.34,0,0,0,.56-.69V60.2h-1.1a1.64,1.64,0,0,0-1,.29.82.82,0,0,0-.4.69.81.81,0,0,0,.25.61A1,1,0,0,0,85.62,62Zm.69-4.94h-.48l-1-1.08v0h.64Z"/><path class="cls-1" d="M92.27,62.37h-.49V55.93h.49Z"/><path class="cls-1" d="M94.51,57.16l-.3,1.14h-.3l.1-1.1v-.84h.5Z"/><path class="cls-1" d="M98.69,62.37c0-.15-.06-.29-.07-.4a2,2,0,0,1,0-.35,1.85,1.85,0,0,1-.64.6,1.9,1.9,0,0,1-1,.24,1.42,1.42,0,0,1-1-.35,1.26,1.26,0,0,1-.36-1,1.14,1.14,0,0,1,.52-1,2.31,2.31,0,0,1,1.37-.37h1.09v-.55a1,1,0,0,0-.3-.75,1.2,1.2,0,0,0-.86-.28,1.31,1.31,0,0,0-.82.25.79.79,0,0,0-.31.62h-.46v0a1.08,1.08,0,0,1,.44-.89,1.81,1.81,0,0,1,1.19-.38,1.78,1.78,0,0,1,1.18.38,1.33,1.33,0,0,1,.45,1.08v2.19a3.46,3.46,0,0,0,0,.46,3.12,3.12,0,0,0,.09.44ZM97,62a1.79,1.79,0,0,0,1-.27,1.29,1.29,0,0,0,.56-.69V60.2h-1.1a1.64,1.64,0,0,0-1,.29.82.82,0,0,0-.4.69.81.81,0,0,0,.25.61A1,1,0,0,0,97,62Z"/><path class="cls-1" d="M101.29,56.62h-.49v-.69h.49Zm0,5.75h-.49V57.9h.49Z"/><path class="cls-1" d="M105,58.33l-.35,0a1.11,1.11,0,0,0-.77.26,1.36,1.36,0,0,0-.42.72v3.08H103V57.9h.44l.06.75v.05a1.62,1.62,0,0,1,.52-.65,1.32,1.32,0,0,1,.77-.23l.18,0,.13,0Z"/><path class="cls-1" d="M11.45,4.62V4.56s0,0,0,0l0,0v.06a0,0,0,0,1,0,0,0,0,0,0,1,0,0Z"/><path class="cls-1" d="M19.37,20.32a1.62,1.62,0,0,1-.14.68,1.43,1.43,0,0,1-.36.5,1.38,1.38,0,0,1-.53.3,2.16,2.16,0,0,1-.62.09H15.85a3.73,3.73,0,0,1-1-.12,2,2,0,0,1-.78-.42,4.09,4.09,0,0,1-.7-.84c-.22-.35-.47-.8-.75-1.36L7.25,9.07c-.31-.6-.63-1.25-1-1.94s-.62-1.37-.87-2h0c0,.8.07,1.6.1,2.39s0,1.62,0,2.46V21.24a.53.53,0,0,1-.09.3.67.67,0,0,1-.32.22,2.4,2.4,0,0,1-.61.14,6.67,6.67,0,0,1-1,.05,6.69,6.69,0,0,1-1-.05,2.42,2.42,0,0,1-.6-.14.65.65,0,0,1-.3-.22.61.61,0,0,1-.08-.3V1.85A1.47,1.47,0,0,1,2,.67,1.66,1.66,0,0,1,3.16.28H5.51A4.57,4.57,0,0,1,6.58.39a2,2,0,0,1,.77.36A2.89,2.89,0,0,1,8,1.44a9.46,9.46,0,0,1,.61,1.09l4.2,7.89.73,1.41q.36.69.69,1.38c.22.46.44.91.65,1.36s.42.89.62,1.33h0c0-.78-.06-1.59-.08-2.43s0-1.65,0-2.42V.93a.48.48,0,0,1,.11-.3A.73.73,0,0,1,15.85.4a2.11,2.11,0,0,1,.62-.14,8.78,8.78,0,0,1,1,0,8.54,8.54,0,0,1,.95,0A1.89,1.89,0,0,1,19,.4a.64.64,0,0,1,.29.23.53.53,0,0,1,.09.3Z"/><path class="cls-1" d="M40.82,21a.68.68,0,0,1-.07.31.47.47,0,0,1-.32.21,2.74,2.74,0,0,1-.73.12q-.48,0-1.32,0c-.46,0-.84,0-1.11,0a2.39,2.39,0,0,1-.66-.13.7.7,0,0,1-.34-.23,1.08,1.08,0,0,1-.17-.34l-1.93-4.82c-.24-.54-.47-1-.69-1.45a4.61,4.61,0,0,0-.74-1.06A2.71,2.71,0,0,0,31.8,13a3.39,3.39,0,0,0-1.24-.22H29.2V21a.48.48,0,0,1-.11.3.77.77,0,0,1-.36.22,3.78,3.78,0,0,1-.67.13,9.89,9.89,0,0,1-1.06.05,10,10,0,0,1-1.06-.05,3.92,3.92,0,0,1-.68-.13.78.78,0,0,1-.35-.22.54.54,0,0,1-.1-.3V1.38A1.34,1.34,0,0,1,25.19.32,1.39,1.39,0,0,1,26.11,0H31.7c.56,0,1,0,1.4,0s.7.05,1,.09a8.9,8.9,0,0,1,2.34.63,5.54,5.54,0,0,1,1.77,1.18,5,5,0,0,1,1.11,1.71,6.41,6.41,0,0,1,.38,2.28,6.42,6.42,0,0,1-.28,2,5.11,5.11,0,0,1-.8,1.6A5.47,5.47,0,0,1,37.3,10.7a7.31,7.31,0,0,1-1.78.84,4.66,4.66,0,0,1,.9.56,4.73,4.73,0,0,1,.8.81A8.07,8.07,0,0,1,37.93,14a12.77,12.77,0,0,1,.65,1.38l1.82,4.25a7.93,7.93,0,0,1,.33.93A1.6,1.6,0,0,1,40.82,21ZM35.17,6.37a3.23,3.23,0,0,0-.49-1.8,2.63,2.63,0,0,0-1.58-1,6.63,6.63,0,0,0-.76-.13,11.61,11.61,0,0,0-1.18,0h-2V9.47h2.23a5.41,5.41,0,0,0,1.64-.23,3.31,3.31,0,0,0,1.16-.63,2.57,2.57,0,0,0,.7-1A3.27,3.27,0,0,0,35.17,6.37Z"/><path class="cls-1" d="M55.89,15.85a9.73,9.73,0,0,1-.33,2.64,4.64,4.64,0,0,1-1.15,2,5.09,5.09,0,0,1-2.11,1.26,10.33,10.33,0,0,1-3.23.44,9.71,9.71,0,0,1-1.21-.08,10.64,10.64,0,0,1-1.11-.19,7.67,7.67,0,0,1-.86-.25,1.67,1.67,0,0,1-.49-.24,1.51,1.51,0,0,1-.21-.23,1.13,1.13,0,0,1-.14-.31,1.82,1.82,0,0,1-.08-.47c0-.19,0-.43,0-.72s0-.69,0-1a2.65,2.65,0,0,1,.1-.61c.05-.15.12-.68.21-.74a.56.56,0,0,1,.33-.09,1,1,0,0,1,.43.11l.55.22c.21.08.44.15.72.23a3.88,3.88,0,0,0,1,.1,3.58,3.58,0,0,0,1-.12,1.5,1.5,0,0,0,.69-.43,2.16,2.16,0,0,0,.42-.83,2.34,2.34,0,0,0,.14-.91V.85a.38.38,0,0,1,.14-.29.87.87,0,0,1,.42-.21,4.39,4.39,0,0,1,.83-.13c.35,0,.79,0,1.31,0s.94,0,1.28,0a4.68,4.68,0,0,1,.83.13.94.94,0,0,1,.45.21.37.37,0,0,1,.13.29Z"/><path class="cls-1" d="M8.16,38a.27.27,0,0,1,0,.16.25.25,0,0,1-.15.11,1.37,1.37,0,0,1-.29.07h-.9a1.54,1.54,0,0,1-.29-.07.25.25,0,0,1-.15-.11.22.22,0,0,1,0-.16v-.87a5.12,5.12,0,0,1-1.28,1,3,3,0,0,1-1.47.36A3,3,0,0,1,2,38.14a2.82,2.82,0,0,1-1-.93,3.87,3.87,0,0,1-.57-1.38,7.47,7.47,0,0,1-.18-1.66,6.89,6.89,0,0,1,.23-1.89,4.09,4.09,0,0,1,.65-1.43A2.93,2.93,0,0,1,2.22,30a3.32,3.32,0,0,1,1.48-.32,2.57,2.57,0,0,1,1.19.27A4.15,4.15,0,0,1,6,30.69V26.43a.3.3,0,0,1,0-.16.5.5,0,0,1,.17-.12,2,2,0,0,1,.34-.07,4.06,4.06,0,0,1,.54,0,4,4,0,0,1,.54,0,1.68,1.68,0,0,1,.33.07.46.46,0,0,1,.18.12.24.24,0,0,1,.05.16ZM6,32.74a5,5,0,0,0-.91-.92,1.54,1.54,0,0,0-.91-.31,1.32,1.32,0,0,0-.75.21,1.66,1.66,0,0,0-.5.58,2.87,2.87,0,0,0-.28.81,4.53,4.53,0,0,0-.09.91,5,5,0,0,0,.08,1,3.23,3.23,0,0,0,.25.83,1.78,1.78,0,0,0,.49.59,1.26,1.26,0,0,0,.75.22,1.69,1.69,0,0,0,.45-.07A1.64,1.64,0,0,0,5,36.33a3.08,3.08,0,0,0,.46-.39c.16-.16.33-.36.52-.59Z"/><path class="cls-1" d="M13.83,27.47a1.26,1.26,0,0,1-.28.93,1.5,1.5,0,0,1-1,.25,1.53,1.53,0,0,1-1-.24,1.7,1.7,0,0,1,0-1.82,1.46,1.46,0,0,1,1-.26,1.45,1.45,0,0,1,1,.25A1.17,1.17,0,0,1,13.83,27.47ZM13.66,38a.25.25,0,0,1-.05.15.39.39,0,0,1-.19.12,1.8,1.8,0,0,1-.33.06,4.28,4.28,0,0,1-.54,0,4.19,4.19,0,0,1-.54,0,2.12,2.12,0,0,1-.34-.06.41.41,0,0,1-.18-.12.25.25,0,0,1-.05-.15V30.15a.25.25,0,0,1,.05-.15.41.41,0,0,1,.18-.12,1.35,1.35,0,0,1,.34-.07,4,4,0,0,1,.54,0,4.06,4.06,0,0,1,.54,0,1.17,1.17,0,0,1,.33.07.39.39,0,0,1,.19.12.25.25,0,0,1,.05.15Z"/><path class="cls-1" d="M23.61,38a.23.23,0,0,1-.09.19.53.53,0,0,1-.27.1,4,4,0,0,1-.56,0,3.91,3.91,0,0,1-.58,0,.52.52,0,0,1-.26-.1.25.25,0,0,1-.07-.19v-.63a3.38,3.38,0,0,1-1.11.81,3.09,3.09,0,0,1-1.37.29,3.81,3.81,0,0,1-1.15-.16,2.63,2.63,0,0,1-.91-.48,2.28,2.28,0,0,1-.6-.8,2.75,2.75,0,0,1-.21-1.11,2.53,2.53,0,0,1,.27-1.2,2.26,2.26,0,0,1,.8-.83,3.92,3.92,0,0,1,1.33-.49,9.13,9.13,0,0,1,1.84-.16h.77v-.48a2.43,2.43,0,0,0-.08-.64,1.16,1.16,0,0,0-.24-.47,1.1,1.1,0,0,0-.46-.27,2.41,2.41,0,0,0-.71-.09,3.35,3.35,0,0,0-1,.13,5.27,5.27,0,0,0-.77.27c-.23.1-.41.19-.56.27a.86.86,0,0,1-.37.13.23.23,0,0,1-.17-.07.43.43,0,0,1-.12-.17,1,1,0,0,1-.08-.28,2.22,2.22,0,0,1,0-.37,1.66,1.66,0,0,1,.05-.44.59.59,0,0,1,.17-.28,1.38,1.38,0,0,1,.43-.28,4.14,4.14,0,0,1,.72-.29,7.41,7.41,0,0,1,.9-.22,6.66,6.66,0,0,1,1-.08,6,6,0,0,1,1.58.18,2.64,2.64,0,0,1,1.08.56,2.19,2.19,0,0,1,.62,1,4.47,4.47,0,0,1,.19,1.4Zm-2.17-3.37h-.85a4.84,4.84,0,0,0-.92.08,1.62,1.62,0,0,0-.61.24.91.91,0,0,0-.35.38,1.21,1.21,0,0,0-.11.52,1,1,0,0,0,.31.77,1.25,1.25,0,0,0,.87.28,1.61,1.61,0,0,0,.86-.23,3.54,3.54,0,0,0,.8-.7Z"/><path class="cls-1" d="M34,30.68a1.59,1.59,0,0,1-.09.62q-.11.21-.24.21h-.93A1.29,1.29,0,0,1,33,32a1.73,1.73,0,0,1,.08.56,3.16,3.16,0,0,1-.22,1.22,2.56,2.56,0,0,1-.66.89,2.93,2.93,0,0,1-1,.56,4.34,4.34,0,0,1-1.34.19,2.86,2.86,0,0,1-.73-.09,1.92,1.92,0,0,1-.53-.22,1.85,1.85,0,0,0-.19.27.86.86,0,0,0-.08.36.51.51,0,0,0,.23.42,1.23,1.23,0,0,0,.62.18L31,36.4a4.72,4.72,0,0,1,1.19.18,2.71,2.71,0,0,1,.88.46,2.1,2.1,0,0,1,.55.71,2.37,2.37,0,0,1,.19,1,2.43,2.43,0,0,1-.26,1.09,2.49,2.49,0,0,1-.76.9,4.17,4.17,0,0,1-1.29.6,6.82,6.82,0,0,1-1.8.22A8.28,8.28,0,0,1,28,41.35a4.08,4.08,0,0,1-1.16-.44,1.81,1.81,0,0,1-.67-.68,1.88,1.88,0,0,1-.2-.86,2,2,0,0,1,.07-.55,2.31,2.31,0,0,1,.22-.51,3,3,0,0,1,.36-.46,3.28,3.28,0,0,1,.48-.42,1.54,1.54,0,0,1-.58-.55,1.49,1.49,0,0,1-.21-.77,1.88,1.88,0,0,1,.24-.94,2.84,2.84,0,0,1,.62-.77,2.54,2.54,0,0,1-.5-.74,2.83,2.83,0,0,1-.18-1.08,3,3,0,0,1,.24-1.23,2.66,2.66,0,0,1,.67-.91,3.13,3.13,0,0,1,1-.58,4.27,4.27,0,0,1,1.33-.19,5.53,5.53,0,0,1,.71,0,5.25,5.25,0,0,1,.62.12h2.5c.1,0,.18.07.24.2A1.66,1.66,0,0,1,34,30.68Zm-2.32,8.13a.7.7,0,0,0-.32-.61,1.73,1.73,0,0,0-.87-.23l-1.58,0a2.38,2.38,0,0,0-.36.32,1.15,1.15,0,0,0-.22.3.62.62,0,0,0-.11.27,1.24,1.24,0,0,0,0,.27.72.72,0,0,0,.44.67,3.57,3.57,0,0,0,2.1.13,1.72,1.72,0,0,0,.56-.27,1,1,0,0,0,.3-.37A1.12,1.12,0,0,0,31.63,38.81Zm-.52-6.27a1.32,1.32,0,0,0-.36-1,1.34,1.34,0,0,0-1-.35,1.26,1.26,0,0,0-.57.11,1,1,0,0,0-.41.3,1.26,1.26,0,0,0-.25.44,1.81,1.81,0,0,0-.07.52,1.25,1.25,0,0,0,.35,1,1.33,1.33,0,0,0,1,.35,1.5,1.5,0,0,0,.58-.11,1.22,1.22,0,0,0,.41-.29A1.14,1.14,0,0,0,31,33,1.43,1.43,0,0,0,31.11,32.54Z"/><path class="cls-1" d="M42,35.77A2.59,2.59,0,0,1,41.75,37a2.25,2.25,0,0,1-.71.85,3,3,0,0,1-1.08.52,4.92,4.92,0,0,1-1.36.17,5.73,5.73,0,0,1-.84-.06,5.48,5.48,0,0,1-.72-.17,4.88,4.88,0,0,1-.53-.21,1,1,0,0,1-.3-.2.53.53,0,0,1-.15-.29A2.09,2.09,0,0,1,36,37c0-.17,0-.31,0-.41a1.22,1.22,0,0,1,0-.25.31.31,0,0,1,.09-.12.28.28,0,0,1,.13,0,.59.59,0,0,1,.29.11l.47.24a5.41,5.41,0,0,0,.66.25,3.13,3.13,0,0,0,.85.11,2.15,2.15,0,0,0,.53-.06,1.28,1.28,0,0,0,.41-.18.73.73,0,0,0,.26-.29.87.87,0,0,0,.08-.4.68.68,0,0,0-.16-.46,1.68,1.68,0,0,0-.43-.33,5.08,5.08,0,0,0-.61-.26L38,34.63a6.53,6.53,0,0,1-.7-.35,2.83,2.83,0,0,1-.61-.47,2.25,2.25,0,0,1-.43-.68,2.49,2.49,0,0,1-.16-1,2.4,2.4,0,0,1,.22-1,2.34,2.34,0,0,1,.63-.81,3.21,3.21,0,0,1,1-.52,4.62,4.62,0,0,1,1.34-.18,5.52,5.52,0,0,1,.71.05,6.27,6.27,0,0,1,.63.13,2.87,2.87,0,0,1,.48.18l.28.15a.75.75,0,0,1,.12.14.5.5,0,0,1,.05.16c0,.06,0,.13,0,.23a3.22,3.22,0,0,1,0,.33c0,.16,0,.29,0,.39a1.19,1.19,0,0,1,0,.24c0,.06,0,.1-.09.12a.24.24,0,0,1-.12,0,.58.58,0,0,1-.25-.09,4.27,4.27,0,0,0-.42-.2,4.31,4.31,0,0,0-.58-.2,2.86,2.86,0,0,0-.75-.09,2,2,0,0,0-.52.06.87.87,0,0,0-.36.18.56.56,0,0,0-.21.27.71.71,0,0,0-.07.32.65.65,0,0,0,.16.46,1.37,1.37,0,0,0,.44.33,6.1,6.1,0,0,0,.62.26l.71.27a6.44,6.44,0,0,1,.7.34,2.69,2.69,0,0,1,.63.48,2.25,2.25,0,0,1,.6,1.6Z"/></g></g></svg>