<svg xmlns="http://www.w3.org/2000/svg" viewBox="0 0 81.89 52.78"><defs><style>.cls-1{fill:#fff;}</style></defs><g id="Calque_2" data-name="Calque 2"><g id="Calque_1-2" data-name="Calque 1"><path class="cls-1" d="M12.75,5.31a6.78,6.78,0,0,1-.46,2.6A4.91,4.91,0,0,1,11,9.82,5.93,5.93,0,0,1,8.8,11a9.93,9.93,0,0,1-3,.41H4.34V17a.36.36,0,0,1-.09.24A.57.57,0,0,1,4,17.4a2,2,0,0,1-.54.11,6.78,6.78,0,0,1-.86,0,7,7,0,0,1-.86,0,2.21,2.21,0,0,1-.55-.11.54.54,0,0,1-.28-.17A.41.41,0,0,1,.79,17V1.27A1.26,1.26,0,0,1,1.12.32,1.21,1.21,0,0,1,2,0H6.11c.41,0,.81,0,1.18.05a12.9,12.9,0,0,1,1.34.2,5.75,5.75,0,0,1,1.59.57,4.83,4.83,0,0,1,1.37,1.06,4.29,4.29,0,0,1,.86,1.5A5.79,5.79,0,0,1,12.75,5.31ZM9,5.56a3.1,3.1,0,0,0-.33-1.51,2.2,2.2,0,0,0-.79-.88,2.7,2.7,0,0,0-1-.36,9.48,9.48,0,0,0-1.08-.07H4.34V8.67H5.93a4,4,0,0,0,1.43-.23A2.53,2.53,0,0,0,8.3,7.8a3,3,0,0,0,.55-1A3.86,3.86,0,0,0,9,5.56Z"/><path class="cls-1" d="M37.47,17a.4.4,0,0,1-.07.24.5.5,0,0,1-.27.17,2,2,0,0,1-.52.11,6.37,6.37,0,0,1-.83,0,6.24,6.24,0,0,1-.81,0,2,2,0,0,1-.51-.11.5.5,0,0,1-.27-.17.41.41,0,0,1-.08-.24V2.77h0L29,17a.65.65,0,0,1-.18.29.87.87,0,0,1-.33.19,2.28,2.28,0,0,1-.53.08c-.22,0-.48,0-.78,0s-.57,0-.79,0a2.23,2.23,0,0,1-.53-.11,1,1,0,0,1-.33-.18.48.48,0,0,1-.16-.26L20.5,2.77h0V17a.4.4,0,0,1-.07.24.5.5,0,0,1-.28.17,2,2,0,0,1-.52.11,6.11,6.11,0,0,1-.82,0,6.24,6.24,0,0,1-.81,0,2,2,0,0,1-.52-.11.5.5,0,0,1-.27-.17.4.4,0,0,1-.07-.24V1.42A1.46,1.46,0,0,1,17.47.36a1.35,1.35,0,0,1,1-.36h2.32a4.81,4.81,0,0,1,1.07.1,2.15,2.15,0,0,1,.77.34,2.05,2.05,0,0,1,.54.62,4.28,4.28,0,0,1,.37.95L27.3,12.42h.06L31.27,2a5.6,5.6,0,0,1,.39-1,2.27,2.27,0,0,1,.48-.63A1.62,1.62,0,0,1,32.8.1a3.28,3.28,0,0,1,.88-.1h2.39a2,2,0,0,1,.63.09,1.28,1.28,0,0,1,.43.28,1.1,1.1,0,0,1,.25.45,1.8,1.8,0,0,1,.09.6Z"/><path class="cls-1" d="M55.54,12.23a5.26,5.26,0,0,1-.26,1.69,4.51,4.51,0,0,1-.71,1.34,4.69,4.69,0,0,1-1.08,1,6.36,6.36,0,0,1-1.38.69,8.34,8.34,0,0,1-1.62.39,12.38,12.38,0,0,1-1.91.13H43.94a1.12,1.12,0,0,1-.75-.26,1.06,1.06,0,0,1-.31-.86V1.12a1.06,1.06,0,0,1,.31-.86A1.12,1.12,0,0,1,43.94,0h4.39a11.78,11.78,0,0,1,2.72.27,5.25,5.25,0,0,1,1.87.82,3.55,3.55,0,0,1,1.17,1.38,4.5,4.5,0,0,1,.41,2,4.24,4.24,0,0,1-.17,1.2,3.39,3.39,0,0,1-.47,1,3.87,3.87,0,0,1-.76.81,3.93,3.93,0,0,1-1,.56,4.55,4.55,0,0,1,1.37.48,3.81,3.81,0,0,1,1.09.87,4,4,0,0,1,.74,1.25A4.47,4.47,0,0,1,55.54,12.23Zm-4.6-7.36a2.54,2.54,0,0,0-.16-.94,1.83,1.83,0,0,0-.48-.7,2.35,2.35,0,0,0-.82-.42,4.7,4.7,0,0,0-1.32-.15H46.37V7.2h2A3.24,3.24,0,0,0,49.58,7a1.94,1.94,0,0,0,.76-.5,1.89,1.89,0,0,0,.46-.74A2.93,2.93,0,0,0,50.94,4.87Zm.91,7.48a2.85,2.85,0,0,0-.2-1.08,2.2,2.2,0,0,0-.6-.81,2.84,2.84,0,0,0-1-.5,6.13,6.13,0,0,0-1.58-.17h-2.1v5h2.56a4.08,4.08,0,0,0,1.25-.16,2.39,2.39,0,0,0,.88-.46,2,2,0,0,0,.58-.75A2.44,2.44,0,0,0,51.85,12.35Z"/><path class="cls-1" d="M2.41,41.88a.58.58,0,0,0-.22-.46,1.7,1.7,0,0,0-.78-.32,2.76,2.76,0,0,1-1-.38A.81.81,0,0,1,.1,40a.91.91,0,0,1,.36-.72,1.45,1.45,0,0,1,1-.3,1.5,1.5,0,0,1,1,.32.94.94,0,0,1,.36.78v0H2.38a.67.67,0,0,0-.26-.54,1.05,1.05,0,0,0-.7-.23,1,1,0,0,0-.68.2A.61.61,0,0,0,.51,40a.53.53,0,0,0,.2.42,1.73,1.73,0,0,0,.78.3,2.42,2.42,0,0,1,1,.41.81.81,0,0,1,.34.7.9.9,0,0,1-.38.75,1.55,1.55,0,0,1-1,.3,1.61,1.61,0,0,1-1.07-.33A.93.93,0,0,1,0,41.81v0H.39a.64.64,0,0,0,.33.58,1.29,1.29,0,0,0,.72.19,1.15,1.15,0,0,0,.71-.2A.62.62,0,0,0,2.41,41.88Z"/><path class="cls-1" d="M7.07,41.07a2.13,2.13,0,0,1-.38,1.34,1.25,1.25,0,0,1-1.05.5A1.45,1.45,0,0,1,5,42.76a1.33,1.33,0,0,1-.49-.42v1.93H4.06V39.09h.32l.07.58a1.5,1.5,0,0,1,.49-.48,1.42,1.42,0,0,1,.7-.17,1.21,1.21,0,0,1,1.05.54A2.4,2.4,0,0,1,7.07,41ZM6.66,41a2.14,2.14,0,0,0-.29-1.16.9.9,0,0,0-.83-.45,1.09,1.09,0,0,0-.67.2,1.27,1.27,0,0,0-.4.51V41.9a1.1,1.1,0,0,0,.42.48,1.14,1.14,0,0,0,.66.18,1,1,0,0,0,.83-.41,1.92,1.92,0,0,0,.28-1.08Z"/><path class="cls-1" d="M9.71,42.91a1.52,1.52,0,0,1-1.18-.52,1.92,1.92,0,0,1-.45-1.32v-.19a1.92,1.92,0,0,1,.46-1.33A1.44,1.44,0,0,1,9.67,39a1.32,1.32,0,0,1,1.06.44,1.79,1.79,0,0,1,.37,1.18V41H8.49v.11a1.71,1.71,0,0,0,.33,1.07,1.05,1.05,0,0,0,.89.42,1.61,1.61,0,0,0,.63-.12,1.31,1.31,0,0,0,.48-.3l.17.29a1.62,1.62,0,0,1-.51.34A2,2,0,0,1,9.71,42.91Zm0-3.54a1,1,0,0,0-.78.35,1.38,1.38,0,0,0-.36.86v0h2.14v-.09a1.22,1.22,0,0,0-.26-.82A.89.89,0,0,0,9.67,39.37Zm.44-1.87h.51v0l-.86.9H9.4Z"/><path class="cls-1" d="M13.59,42.56a1.1,1.1,0,0,0,.7-.24.76.76,0,0,0,.31-.65H15v0a1.07,1.07,0,0,1-.41.87,1.51,1.51,0,0,1-1,.35,1.42,1.42,0,0,1-1.17-.53A2.15,2.15,0,0,1,12,41v-.14a2.12,2.12,0,0,1,.41-1.34A1.42,1.42,0,0,1,13.59,39a1.44,1.44,0,0,1,1,.36,1.19,1.19,0,0,1,.39,1v0H14.6a.92.92,0,0,0-.3-.72,1,1,0,0,0-.71-.27,1,1,0,0,0-.88.44,1.91,1.91,0,0,0-.29,1.08V41a2,2,0,0,0,.29,1.1A1,1,0,0,0,13.59,42.56Z"/><path class="cls-1" d="M16.61,38H16.2v-.58h.41Zm0,4.81H16.2V39.09h.41Z"/><path class="cls-1" d="M20.41,42.83c0-.13,0-.24-.06-.34a2.71,2.71,0,0,1,0-.29,1.51,1.51,0,0,1-.55.51,1.61,1.61,0,0,1-.8.2,1.14,1.14,0,0,1-.85-.3,1.05,1.05,0,0,1-.31-.79,1,1,0,0,1,.44-.81,2,2,0,0,1,1.15-.31h.92v-.47a.8.8,0,0,0-.26-.63,1.05,1.05,0,0,0-.72-.23,1,1,0,0,0-.68.21.62.62,0,0,0-.26.52H18v0a.89.89,0,0,1,.37-.74,1.49,1.49,0,0,1,1-.32,1.47,1.47,0,0,1,1,.32,1.11,1.11,0,0,1,.38.9v1.84a2.36,2.36,0,0,0,0,.38c0,.13,0,.25.07.37ZM19,42.54a1.49,1.49,0,0,0,.82-.23,1.17,1.17,0,0,0,.48-.58V41h-.93a1.38,1.38,0,0,0-.83.24.71.71,0,0,0-.33.58.67.67,0,0,0,.21.52A.81.81,0,0,0,19,42.54Z"/><path class="cls-1" d="M22.6,42.83h-.41V37.44h.41Z"/><path class="cls-1" d="M24.49,38h-.41v-.58h.41Zm0,4.81h-.41V39.09h.41Z"/><path class="cls-1" d="M28.16,41.88a.6.6,0,0,0-.21-.46,1.8,1.8,0,0,0-.78-.32,2.61,2.61,0,0,1-1-.38.79.79,0,0,1-.32-.68.91.91,0,0,1,.36-.72,1.44,1.44,0,0,1,1-.3,1.5,1.5,0,0,1,1,.32.94.94,0,0,1,.36.78v0h-.38a.68.68,0,0,0-.27-.54,1,1,0,0,0-.7-.23,1,1,0,0,0-.67.2.58.58,0,0,0-.23.46.52.52,0,0,0,.19.42,1.73,1.73,0,0,0,.78.3,2.53,2.53,0,0,1,1,.41.83.83,0,0,1,.33.7.89.89,0,0,1-.37.75,1.88,1.88,0,0,1-2.08,0,.93.93,0,0,1-.37-.77v0h.38a.69.69,0,0,0,.33.58,1.34,1.34,0,0,0,.72.19,1.15,1.15,0,0,0,.71-.2A.59.59,0,0,0,28.16,41.88Z"/><path class="cls-1" d="M30.46,38.13v1h.82v.34h-.82v2.44a.79.79,0,0,0,.13.52.46.46,0,0,0,.36.15h.15l.16,0,.07.3-.21.07-.24,0a.8.8,0,0,1-.62-.25,1.22,1.22,0,0,1-.22-.79V39.43h-.65v-.34H30v-1Z"/><path class="cls-1" d="M33.8,42.91a1.52,1.52,0,0,1-1.18-.52,1.92,1.92,0,0,1-.45-1.32v-.19a1.92,1.92,0,0,1,.46-1.33A1.44,1.44,0,0,1,33.76,39a1.32,1.32,0,0,1,1.06.44,1.79,1.79,0,0,1,.37,1.18V41H32.58v.11a1.71,1.71,0,0,0,.33,1.07,1.05,1.05,0,0,0,.89.42,1.61,1.61,0,0,0,.63-.12,1.31,1.31,0,0,0,.48-.3l.17.29a1.62,1.62,0,0,1-.51.34A2,2,0,0,1,33.8,42.91Zm0-3.54a1,1,0,0,0-.78.35,1.38,1.38,0,0,0-.36.86v0h2.14v-.09a1.22,1.22,0,0,0-.26-.82A.89.89,0,0,0,33.76,39.37Z"/><path class="cls-1" d="M38.55,41.88a.58.58,0,0,0-.22-.46,1.7,1.7,0,0,0-.78-.32,2.62,2.62,0,0,1-1-.38.8.8,0,0,1-.33-.68.91.91,0,0,1,.36-.72,1.47,1.47,0,0,1,1-.3,1.5,1.5,0,0,1,1,.32.94.94,0,0,1,.36.78v0h-.38a.68.68,0,0,0-.27-.54,1.22,1.22,0,0,0-1.38,0,.61.61,0,0,0-.23.46.53.53,0,0,0,.2.42,1.73,1.73,0,0,0,.78.3,2.53,2.53,0,0,1,1,.41.83.83,0,0,1,.33.7.88.88,0,0,1-.38.75,1.55,1.55,0,0,1-1,.3,1.61,1.61,0,0,1-1.07-.33.93.93,0,0,1-.37-.77v0h.38a.69.69,0,0,0,.33.58,1.29,1.29,0,0,0,.72.19,1.15,1.15,0,0,0,.71-.2A.62.62,0,0,0,38.55,41.88Z"/><path class="cls-1" d="M42,41a2.47,2.47,0,0,1,.38-1.43A1.24,1.24,0,0,1,43.48,39a1.3,1.3,0,0,1,.67.16,1.25,1.25,0,0,1,.48.46v-2.2h.42v5.39h-.34l-.06-.54a1.4,1.4,0,0,1-.48.46,1.54,1.54,0,0,1-.7.16,1.27,1.27,0,0,1-1-.5A2.2,2.2,0,0,1,42,41.07Zm.42.08a1.92,1.92,0,0,0,.27,1.08,1,1,0,0,0,.82.4,1.11,1.11,0,0,0,1.08-.67V40.1a1.28,1.28,0,0,0-.4-.52,1.09,1.09,0,0,0-.67-.2.89.89,0,0,0-.82.45A2.14,2.14,0,0,0,42.46,41Z"/><path class="cls-1" d="M47.86,42.91a1.5,1.5,0,0,1-1.18-.52,1.92,1.92,0,0,1-.45-1.32v-.19a2,2,0,0,1,.45-1.33A1.47,1.47,0,0,1,47.82,39a1.3,1.3,0,0,1,1,.44,1.74,1.74,0,0,1,.38,1.18V41H46.64v.11A1.76,1.76,0,0,0,47,42.14a1.08,1.08,0,0,0,.9.42,1.61,1.61,0,0,0,.63-.12,1.31,1.31,0,0,0,.48-.3l.17.29a1.62,1.62,0,0,1-.51.34A2,2,0,0,1,47.86,42.91Zm0-3.54a1,1,0,0,0-.78.35,1.44,1.44,0,0,0-.37.86l0,0h2.14v-.09a1.28,1.28,0,0,0-.26-.82A.89.89,0,0,0,47.82,39.37Z"/><path class="cls-1" d="M52.84,42.83h-.41V37.44h.41Z"/><path class="cls-1" d="M54,40.91a2,2,0,0,1,.46-1.36,1.62,1.62,0,0,1,2.4,0,2,2,0,0,1,.46,1.36V41a2,2,0,0,1-.46,1.36,1.62,1.62,0,0,1-2.4,0A2,2,0,0,1,54,41Zm.42.11a1.77,1.77,0,0,0,.33,1.09,1.07,1.07,0,0,0,.92.45,1.06,1.06,0,0,0,.9-.45A1.77,1.77,0,0,0,56.93,41v-.11a1.79,1.79,0,0,0-.33-1.09,1.15,1.15,0,0,0-1.82,0,1.79,1.79,0,0,0-.33,1.09Z"/><path class="cls-1" d="M58.35,41a2.47,2.47,0,0,1,.37-1.43A1.24,1.24,0,0,1,59.78,39a1.36,1.36,0,0,1,.69.17,1.44,1.44,0,0,1,.49.49l.06-.59h.33v3.77A1.49,1.49,0,0,1,61,44a1.53,1.53,0,0,1-1.12.39,3.15,3.15,0,0,1-.58-.07,1.94,1.94,0,0,1-.53-.18l.08-.35a2.48,2.48,0,0,0,.48.17,2.35,2.35,0,0,0,.54.06,1.1,1.1,0,0,0,.83-.29,1.17,1.17,0,0,0,.27-.83v-.54a1.2,1.2,0,0,1-.48.44,1.44,1.44,0,0,1-.67.15,1.26,1.26,0,0,1-1.06-.51,2.16,2.16,0,0,1-.37-1.33Zm.41.08A1.84,1.84,0,0,0,59,42.15a.93.93,0,0,0,.81.4,1.17,1.17,0,0,0,.67-.18,1.1,1.1,0,0,0,.41-.49V40.09a1.19,1.19,0,0,0-.4-.51,1.09,1.09,0,0,0-.67-.2.9.9,0,0,0-.82.45A2.14,2.14,0,0,0,58.76,41Z"/><path class="cls-1" d="M63.19,38h-.42v-.58h.42Zm0,4.81h-.42V39.09h.42Z"/><path class="cls-1" d="M66,42.56a1.1,1.1,0,0,0,.7-.24.79.79,0,0,0,.31-.65h.37v0a1,1,0,0,1-.41.87,1.48,1.48,0,0,1-1,.35,1.42,1.42,0,0,1-1.17-.53A2.09,2.09,0,0,1,64.4,41v-.14a2.07,2.07,0,0,1,.42-1.34A1.4,1.4,0,0,1,66,39a1.47,1.47,0,0,1,1,.36,1.22,1.22,0,0,1,.38,1v0H67a.92.92,0,0,0-.3-.72,1,1,0,0,0-.72-.27,1,1,0,0,0-.87.44,1.91,1.91,0,0,0-.29,1.08V41a2,2,0,0,0,.29,1.1A1,1,0,0,0,66,42.56Z"/><path class="cls-1" d="M69,38H68.6v-.58H69Zm0,4.81H68.6V39.09H69Z"/><path class="cls-1" d="M71.86,42.91a1.52,1.52,0,0,1-1.18-.52,1.92,1.92,0,0,1-.45-1.32v-.19a1.92,1.92,0,0,1,.46-1.33A1.44,1.44,0,0,1,71.82,39a1.32,1.32,0,0,1,1.06.44,1.74,1.74,0,0,1,.37,1.18V41H70.64v.11A1.71,1.71,0,0,0,71,42.14a1.05,1.05,0,0,0,.89.42,1.61,1.61,0,0,0,.63-.12,1.31,1.31,0,0,0,.48-.3l.18.29a1.8,1.8,0,0,1-.52.34A2,2,0,0,1,71.86,42.91Zm0-3.54a1,1,0,0,0-.78.35,1.38,1.38,0,0,0-.36.86v0h2.14v-.09a1.22,1.22,0,0,0-.26-.82A.89.89,0,0,0,71.82,39.37Z"/><path class="cls-1" d="M74.83,42.83h-.41V37.44h.41Z"/><path class="cls-1" d="M78.5,41.88a.6.6,0,0,0-.21-.46,1.8,1.8,0,0,0-.78-.32,2.76,2.76,0,0,1-1-.38A.79.79,0,0,1,76.2,40a.91.91,0,0,1,.36-.72,1.44,1.44,0,0,1,1-.3,1.48,1.48,0,0,1,1,.32.94.94,0,0,1,.36.78v0h-.38a.7.7,0,0,0-.26-.54,1.06,1.06,0,0,0-.71-.23,1,1,0,0,0-.67.2.58.58,0,0,0-.23.46.52.52,0,0,0,.19.42,1.73,1.73,0,0,0,.78.3,2.53,2.53,0,0,1,1,.41.84.84,0,0,1,.34.7.9.9,0,0,1-.38.75,1.57,1.57,0,0,1-1,.3,1.62,1.62,0,0,1-1.08-.33.92.92,0,0,1-.36-.77v0h.38a.69.69,0,0,0,.33.58,1.35,1.35,0,0,0,.73.19,1.17,1.17,0,0,0,.71-.2A.61.61,0,0,0,78.5,41.88Z"/><path class="cls-1" d="M.52,47.59l0,.62A1.31,1.31,0,0,1,1,47.7a1.34,1.34,0,0,1,.71-.18,1.17,1.17,0,0,1,.71.21,1.16,1.16,0,0,1,.42.63,1.34,1.34,0,0,1,.48-.61,1.27,1.27,0,0,1,.76-.23,1.15,1.15,0,0,1,.92.4,1.92,1.92,0,0,1,.33,1.23v2.19H5V49.15a1.55,1.55,0,0,0-.24-1A.86.86,0,0,0,4,47.88a1,1,0,0,0-.74.29,1.39,1.39,0,0,0-.32.75v2.42H2.55V49.15a1.45,1.45,0,0,0-.25-1,.83.83,0,0,0-.68-.3,1.06,1.06,0,0,0-.69.22,1.21,1.21,0,0,0-.36.6v2.64H.15V47.59Z"/><path class="cls-1" d="M8.15,51.41A1.51,1.51,0,0,1,7,50.9a2,2,0,0,1-.45-1.32v-.19A2,2,0,0,1,7,48.05a1.44,1.44,0,0,1,1.13-.53A1.32,1.32,0,0,1,9.17,48a1.76,1.76,0,0,1,.37,1.18v.32H6.93v.12a1.68,1.68,0,0,0,.33,1.06,1.05,1.05,0,0,0,.89.42A1.81,1.81,0,0,0,8.78,51a1.63,1.63,0,0,0,.48-.3l.18.28a1.62,1.62,0,0,1-.52.34A2,2,0,0,1,8.15,51.41Zm0-3.53a1,1,0,0,0-.78.34,1.43,1.43,0,0,0-.36.87v0H9.13V49a1.25,1.25,0,0,0-.27-.82A.88.88,0,0,0,8.11,47.88ZM8.55,46h.51v0l-.86.9H7.84Z"/><path class="cls-1" d="M11.31,46.64v1h.82v.34h-.82v2.44a.78.78,0,0,0,.13.52.44.44,0,0,0,.36.16h.14l.17,0,.06.31a.8.8,0,0,1-.2.06,1.07,1.07,0,0,1-.25,0,.76.76,0,0,1-.61-.25,1.17,1.17,0,0,1-.22-.79V47.93h-.65v-.34h.65v-1Z"/><path class="cls-1" d="M13.69,46.52h-.41v-.58h.41Zm0,4.82h-.41V47.59h.41Z"/><path class="cls-1" d="M16.54,51.41a1.51,1.51,0,0,1-1.18-.51,2,2,0,0,1-.45-1.32v-.19a2,2,0,0,1,.46-1.34,1.44,1.44,0,0,1,1.13-.53,1.32,1.32,0,0,1,1.06.44,1.81,1.81,0,0,1,.37,1.18v.32H15.32v.12a1.68,1.68,0,0,0,.33,1.06,1.05,1.05,0,0,0,.89.42,1.81,1.81,0,0,0,.63-.11,1.63,1.63,0,0,0,.48-.3l.17.28a1.47,1.47,0,0,1-.51.34A2,2,0,0,1,16.54,51.41Zm0-3.53a1,1,0,0,0-.78.34,1.43,1.43,0,0,0-.36.87v0h2.14V49a1.24,1.24,0,0,0-.26-.82A.88.88,0,0,0,16.5,47.88Z"/><path class="cls-1" d="M20.76,48l-.3,0a.92.92,0,0,0-.64.22,1.29,1.29,0,0,0-.36.6v2.59h-.41V47.59h.36l.05.63v0a1.4,1.4,0,0,1,.44-.54,1.09,1.09,0,0,1,.65-.2l.15,0,.11,0Z"/><path class="cls-1" d="M24,50.38a.6.6,0,0,0-.21-.46A1.8,1.8,0,0,0,23,49.6a2.52,2.52,0,0,1-1-.38.77.77,0,0,1-.32-.67.91.91,0,0,1,.36-.73,1.44,1.44,0,0,1,.95-.3,1.5,1.5,0,0,1,1,.32.94.94,0,0,1,.36.78v0H24a.7.7,0,0,0-.26-.53,1,1,0,0,0-.71-.23,1,1,0,0,0-.67.19.59.59,0,0,0-.23.46.53.53,0,0,0,.19.43,1.88,1.88,0,0,0,.78.29,2.69,2.69,0,0,1,1,.41.85.85,0,0,1,.34.7.93.93,0,0,1-.38.76,1.65,1.65,0,0,1-1,.29A1.67,1.67,0,0,1,22,51.09a.91.91,0,0,1-.36-.78v0H22a.7.7,0,0,0,.33.59,1.44,1.44,0,0,0,.73.18,1.12,1.12,0,0,0,.7-.2A.57.57,0,0,0,24,50.38Z"/><path class="cls-1" d="M30.67,49.57a2.11,2.11,0,0,1-.39,1.34,1.24,1.24,0,0,1-1,.5,1.52,1.52,0,0,1-.69-.15,1.22,1.22,0,0,1-.48-.42v1.94h-.42V47.59H28l.08.59a1.23,1.23,0,0,1,.48-.48,1.33,1.33,0,0,1,.7-.18,1.21,1.21,0,0,1,1.05.54,2.41,2.41,0,0,1,.39,1.44Zm-.42-.07A2.16,2.16,0,0,0,30,48.33a.93.93,0,0,0-.83-.45,1.12,1.12,0,0,0-.68.2,1.25,1.25,0,0,0-.39.51v1.82a1.13,1.13,0,0,0,.41.48,1.24,1.24,0,0,0,.66.17,1,1,0,0,0,.83-.41,1.84,1.84,0,0,0,.28-1.08Z"/><path class="cls-1" d="M31.65,49.41a2,2,0,0,1,.45-1.36,1.62,1.62,0,0,1,2.4,0A2,2,0,0,1,35,49.41v.11a2,2,0,0,1-.45,1.36,1.63,1.63,0,0,1-2.41,0,2,2,0,0,1-.45-1.36Zm.41.11a1.8,1.8,0,0,0,.33,1.1,1.17,1.17,0,0,0,1.83,0,1.8,1.8,0,0,0,.33-1.1v-.11a1.73,1.73,0,0,0-.34-1.09,1.16,1.16,0,0,0-1.82,0,1.79,1.79,0,0,0-.33,1.09Z"/><path class="cls-1" d="M38.56,50.73a1.18,1.18,0,0,1-.49.5,1.36,1.36,0,0,1-.71.18,1.13,1.13,0,0,1-.93-.4,1.94,1.94,0,0,1-.34-1.25V47.59h.42v2.18a1.64,1.64,0,0,0,.23,1,.81.81,0,0,0,.67.3,1.2,1.2,0,0,0,.74-.21,1.05,1.05,0,0,0,.39-.57V47.59H39v3.75h-.37Z"/><path class="cls-1" d="M42,48l-.29,0a.92.92,0,0,0-.64.22,1.21,1.21,0,0,0-.36.6v2.59h-.41V47.59h.36l0,.63v0a1.31,1.31,0,0,1,.44-.54,1.09,1.09,0,0,1,.65-.2l.14,0,.12,0Z"/><path class="cls-1" d="M45.51,51.34H45.1v-5.4h.41Z"/><path class="cls-1" d="M48.36,51.41a1.51,1.51,0,0,1-1.18-.51,2,2,0,0,1-.45-1.32v-.19a2,2,0,0,1,.45-1.34,1.47,1.47,0,0,1,1.14-.53,1.32,1.32,0,0,1,1.06.44,1.81,1.81,0,0,1,.37,1.18v.32H47.14v.12a1.73,1.73,0,0,0,.32,1.06,1.08,1.08,0,0,0,.9.42A1.81,1.81,0,0,0,49,51a1.63,1.63,0,0,0,.48-.3l.17.28a1.47,1.47,0,0,1-.51.34A2,2,0,0,1,48.36,51.41Zm0-3.53a1,1,0,0,0-.78.34,1.43,1.43,0,0,0-.36.87v0h2.14V49a1.24,1.24,0,0,0-.26-.82A.88.88,0,0,0,48.32,47.88Z"/><path class="cls-1" d="M55.89,49.57a2.11,2.11,0,0,1-.38,1.34,1.25,1.25,0,0,1-1,.5,1.42,1.42,0,0,1-.7-.16,1.3,1.3,0,0,1-.49-.47l-.07.56h-.32v-5.4h.41v2.23a1.3,1.3,0,0,1,.48-.48,1.36,1.36,0,0,1,.69-.17,1.21,1.21,0,0,1,1,.54,2.41,2.41,0,0,1,.38,1.44Zm-.42-.07a2.25,2.25,0,0,0-.27-1.17.91.91,0,0,0-.82-.45,1.1,1.1,0,0,0-.7.21,1.31,1.31,0,0,0-.39.55v1.71a1.1,1.1,0,0,0,.41.51,1.14,1.14,0,0,0,.68.19.91.91,0,0,0,.82-.4,1.92,1.92,0,0,0,.27-1.08Z"/><path class="cls-1" d="M59.47,51.34c0-.13,0-.25,0-.34a1.42,1.42,0,0,1,0-.29,1.49,1.49,0,0,1-.55.5,1.61,1.61,0,0,1-.8.2,1.18,1.18,0,0,1-.85-.29,1.08,1.08,0,0,1-.31-.8,1,1,0,0,1,.44-.81,2,2,0,0,1,1.15-.31h.92v-.46a.8.8,0,0,0-.26-.63,1,1,0,0,0-.72-.23,1,1,0,0,0-.68.21.61.61,0,0,0-.26.52h-.39v0a.88.88,0,0,1,.36-.75,1.5,1.5,0,0,1,1-.32,1.44,1.44,0,0,1,1,.32,1.11,1.11,0,0,1,.38.9v1.84c0,.13,0,.26,0,.39a2.45,2.45,0,0,0,.08.37ZM58.1,51a1.48,1.48,0,0,0,.82-.22,1.15,1.15,0,0,0,.48-.59v-.71h-.93a1.38,1.38,0,0,0-.83.24.7.7,0,0,0-.33.58.66.66,0,0,0,.21.51A.81.81,0,0,0,58.1,51Zm1.3-4.19v.06H59l-.58-.58-.57.58h-.38v-.07l.78-.77h.34Z"/><path class="cls-1" d="M61.84,46.64v1h.83v.34h-.83v2.44a.77.77,0,0,0,.14.52.42.42,0,0,0,.35.16h.15l.17,0,.06.31a1.05,1.05,0,0,1-.21.06l-.24,0a.79.79,0,0,1-.62-.25,1.22,1.22,0,0,1-.22-.79V47.93h-.64v-.34h.64v-1Z"/><path class="cls-1" d="M64.22,46.52h-.41v-.58h.41Zm0,4.82h-.41V47.59h.41Z"/><path class="cls-1" d="M66,47.59l0,.62a1.31,1.31,0,0,1,.48-.51,1.36,1.36,0,0,1,.71-.18,1.18,1.18,0,0,1,.72.21,1.15,1.15,0,0,1,.41.63,1.41,1.41,0,0,1,.48-.61,1.27,1.27,0,0,1,.76-.23,1.16,1.16,0,0,1,.93.4,2,2,0,0,1,.32,1.23v2.19h-.41V49.15a1.48,1.48,0,0,0-.25-1,.85.85,0,0,0-.68-.29.94.94,0,0,0-.73.29,1.48,1.48,0,0,0-.33.75V49s0,.06,0,.1v2.25H68V49.15a1.51,1.51,0,0,0-.25-1,.84.84,0,0,0-.68-.3,1.06,1.06,0,0,0-.69.22,1.16,1.16,0,0,0-.37.6v2.64h-.41V47.59Z"/><path class="cls-1" d="M73.64,51.41a1.49,1.49,0,0,1-1.18-.51A2,2,0,0,1,72,49.58v-.19a2,2,0,0,1,.45-1.34,1.47,1.47,0,0,1,1.14-.53,1.3,1.3,0,0,1,1.05.44A1.76,1.76,0,0,1,75,49.14v.32H72.42v.12a1.73,1.73,0,0,0,.32,1.06,1.08,1.08,0,0,0,.9.42,1.81,1.81,0,0,0,.63-.11,1.63,1.63,0,0,0,.48-.3l.17.28a1.47,1.47,0,0,1-.51.34A2,2,0,0,1,73.64,51.41Zm0-3.53a1,1,0,0,0-.78.34,1.43,1.43,0,0,0-.36.87v0h2.14V49a1.3,1.3,0,0,0-.26-.82A.88.88,0,0,0,73.6,47.88Z"/><path class="cls-1" d="M76.51,47.59l0,.65a1.47,1.47,0,0,1,.49-.53,1.38,1.38,0,0,1,.72-.19,1.15,1.15,0,0,1,.93.38A1.75,1.75,0,0,1,79,49.06v2.28h-.42V49.06a1.36,1.36,0,0,0-.24-.91.87.87,0,0,0-.68-.27,1.11,1.11,0,0,0-.71.22,1.18,1.18,0,0,0-.4.59v2.65h-.41V47.59Z"/><path class="cls-1" d="M81,46.64v1h.83v.34H81v2.44a.77.77,0,0,0,.14.52.41.41,0,0,0,.35.16h.15l.16,0,.07.31a1.05,1.05,0,0,1-.21.06l-.24,0a.77.77,0,0,1-.62-.25,1.22,1.22,0,0,1-.22-.79V47.93H80v-.34h.64v-1Z"/><path class="cls-1" d="M5.19,29.28a2.12,2.12,0,0,1-.22,1,1.92,1.92,0,0,1-.59.71,2.66,2.66,0,0,1-.91.44,4.54,4.54,0,0,1-1.13.14,5.39,5.39,0,0,1-.71,0,4.38,4.38,0,0,1-.6-.15,2.39,2.39,0,0,1-.44-.17A.83.83,0,0,1,.33,31a.46.46,0,0,1-.13-.24,2,2,0,0,1,0-.49,3.23,3.23,0,0,1,0-.34.81.81,0,0,1,0-.21s0-.09.07-.1a.2.2,0,0,1,.11,0,.51.51,0,0,1,.24.09c.11.07.24.13.4.21a4.3,4.3,0,0,0,.55.2,2.21,2.21,0,0,0,.71.1,2,2,0,0,0,.45-.05A1.52,1.52,0,0,0,3.09,30a.61.61,0,0,0,.21-.24.74.74,0,0,0,.08-.34.56.56,0,0,0-.14-.38,1.15,1.15,0,0,0-.36-.28,4.11,4.11,0,0,0-.51-.22l-.58-.23A4.6,4.6,0,0,1,1.2,28a2.2,2.2,0,0,1-.51-.4,1.69,1.69,0,0,1-.36-.56,2.17,2.17,0,0,1-.13-.8,2.08,2.08,0,0,1,.18-.87,1.82,1.82,0,0,1,.53-.67,2.45,2.45,0,0,1,.85-.44,3.84,3.84,0,0,1,1.12-.15,4,4,0,0,1,.6,0,5.2,5.2,0,0,1,.52.11,3.6,3.6,0,0,1,.4.14,1.93,1.93,0,0,1,.24.14.23.23,0,0,1,.09.11.5.5,0,0,1,0,.13,1,1,0,0,1,0,.19,2.19,2.19,0,0,1,0,.29,2.58,2.58,0,0,1,0,.32.53.53,0,0,1,0,.2.2.2,0,0,1-.07.1.19.19,0,0,1-.1,0,.51.51,0,0,1-.21-.08L4,25.69a3.53,3.53,0,0,0-.49-.16,2.35,2.35,0,0,0-.63-.08,1.9,1.9,0,0,0-.44.05,1.05,1.05,0,0,0-.3.15.63.63,0,0,0-.18.22.66.66,0,0,0-.05.28.51.51,0,0,0,.14.38,1.15,1.15,0,0,0,.36.28A4.46,4.46,0,0,0,3,27l.59.22c.19.09.39.18.59.29a2.49,2.49,0,0,1,.52.4A1.69,1.69,0,0,1,5,28.5,1.87,1.87,0,0,1,5.19,29.28Z"/><path class="cls-1" d="M14.11,27.78a5,5,0,0,1-.22,1.54,3.23,3.23,0,0,1-.67,1.19,2.94,2.94,0,0,1-1.13.78,4.27,4.27,0,0,1-1.59.27A4.37,4.37,0,0,1,9,31.32a2.69,2.69,0,0,1-1.71-1.86,5.19,5.19,0,0,1-.21-1.55,4.92,4.92,0,0,1,.22-1.53A3.21,3.21,0,0,1,8,25.18a3,3,0,0,1,1.12-.77,4.27,4.27,0,0,1,1.59-.27,4.39,4.39,0,0,1,1.53.24,2.77,2.77,0,0,1,1.08.7,3,3,0,0,1,.63,1.14A5.73,5.73,0,0,1,14.11,27.78Zm-1.91.08a4.19,4.19,0,0,0-.08-.9,1.94,1.94,0,0,0-.26-.71,1.33,1.33,0,0,0-.49-.48,1.76,1.76,0,0,0-1.49,0,1.21,1.21,0,0,0-.51.44,2,2,0,0,0-.3.7,3.73,3.73,0,0,0-.1.93,4.94,4.94,0,0,0,.08.9,2.14,2.14,0,0,0,.26.71,1.3,1.3,0,0,0,.49.47,1.65,1.65,0,0,0,.77.17,1.67,1.67,0,0,0,.73-.15,1.36,1.36,0,0,0,.51-.44,2.35,2.35,0,0,0,.3-.7A4.38,4.38,0,0,0,12.2,27.86Z"/><path class="cls-1" d="M18.67,25.81v5.33a.2.2,0,0,1,0,.13.27.27,0,0,1-.15.09,1.45,1.45,0,0,1-.29.06h-.9a1.33,1.33,0,0,1-.28-.06.27.27,0,0,1-.15-.09.2.2,0,0,1,0-.13V25.81H16c-.09,0-.16-.06-.21-.17a1.92,1.92,0,0,1-.07-.58,3.53,3.53,0,0,1,0-.36,1.11,1.11,0,0,1,0-.24.27.27,0,0,1,.09-.12.28.28,0,0,1,.13,0h.82v-.56A4.5,4.5,0,0,1,17,22.58a2.32,2.32,0,0,1,.41-.85,1.76,1.76,0,0,1,.72-.5,2.92,2.92,0,0,1,1-.17,3.55,3.55,0,0,1,.57.05,3.77,3.77,0,0,1,.4.1l.19.1a.47.47,0,0,1,.08.14,1.19,1.19,0,0,1,0,.24c0,.1,0,.22,0,.36a2.82,2.82,0,0,1,0,.34.77.77,0,0,1,0,.2.2.2,0,0,1-.07.1l-.08,0-.11,0-.15-.06-.21-.05a1.32,1.32,0,0,0-.3,0,.9.9,0,0,0-.34.06.58.58,0,0,0-.24.2,1.23,1.23,0,0,0-.14.36,2.66,2.66,0,0,0,0,.53v.61h2.49V22.84a.24.24,0,0,1,.05-.14.33.33,0,0,1,.14-.1,1.55,1.55,0,0,1,.29-.05,2.89,2.89,0,0,1,.44,0,2.83,2.83,0,0,1,.45,0,1.55,1.55,0,0,1,.29.05.48.48,0,0,1,.15.1.23.23,0,0,1,0,.14v1.47h1.43a.25.25,0,0,1,.13,0,.4.4,0,0,1,.1.12,1.11,1.11,0,0,1,.05.24,3.53,3.53,0,0,1,0,.36,1.64,1.64,0,0,1-.07.58.24.24,0,0,1-.22.17H23V28.9a1.58,1.58,0,0,0,.17.81.65.65,0,0,0,.61.27L24,30l.21-.06.15-.06.12,0a.11.11,0,0,1,.08,0s0,.05.07.1a2,2,0,0,1,0,.21,3,3,0,0,1,0,.34,2.17,2.17,0,0,1,0,.5.53.53,0,0,1-.11.25.87.87,0,0,1-.2.12,1.54,1.54,0,0,1-.3.09l-.37.07-.4,0a3.06,3.06,0,0,1-1-.14,1.65,1.65,0,0,1-.67-.43,1.75,1.75,0,0,1-.39-.74,3.58,3.58,0,0,1-.13-1.05V25.81Z"/><path class="cls-1" d="M37,24.54a.81.81,0,0,1,0,.2,3,3,0,0,1-.08.34l-1.76,6a.53.53,0,0,1-.09.2.41.41,0,0,1-.18.12,1.31,1.31,0,0,1-.35.06H33.35a1.77,1.77,0,0,1-.35-.07.39.39,0,0,1-.19-.12.56.56,0,0,1-.09-.19l-1.11-4V27l0,.07-1,4a.53.53,0,0,1-.09.2.39.39,0,0,1-.19.12,1.49,1.49,0,0,1-.36.06H28.75a2.08,2.08,0,0,1-.36-.07.44.44,0,0,1-.19-.12.84.84,0,0,1-.09-.19l-1.74-6a2.51,2.51,0,0,1-.08-.33,2.06,2.06,0,0,1,0-.21.2.2,0,0,1,0-.13.49.49,0,0,1,.15-.09,1.68,1.68,0,0,1,.29,0l.45,0,.48,0a1,1,0,0,1,.29,0,.26.26,0,0,1,.14.1.34.34,0,0,1,.06.15l1.31,4.83v.09l0-.09,1.23-4.83a.26.26,0,0,1,.07-.15.26.26,0,0,1,.14-.1.81.81,0,0,1,.27,0l.45,0,.44,0a1.46,1.46,0,0,1,.27,0,.28.28,0,0,1,.14.09l.06.13,1.31,4.87,0,.08v-.09l1.26-4.83a.25.25,0,0,1,.05-.15.28.28,0,0,1,.15-.1.94.94,0,0,1,.28,0l.45,0,.45,0,.27,0a.42.42,0,0,1,.14.09A.28.28,0,0,1,37,24.54Z"/><path class="cls-1" d="M44.53,31.16a.19.19,0,0,1-.08.16.5.5,0,0,1-.23.09,5.65,5.65,0,0,1-.95,0,.5.5,0,0,1-.22-.09.21.21,0,0,1-.06-.16v-.52a3.18,3.18,0,0,1-.92.68,2.77,2.77,0,0,1-1.16.24,3.22,3.22,0,0,1-1-.14,2,2,0,0,1-.76-.4,1.76,1.76,0,0,1-.5-.67,2.27,2.27,0,0,1-.18-.93,2.11,2.11,0,0,1,.23-1,1.8,1.8,0,0,1,.67-.7,3.29,3.29,0,0,1,1.11-.41,7.83,7.83,0,0,1,1.54-.13h.64v-.4a2.12,2.12,0,0,0-.06-.54.82.82,0,0,0-.21-.39.84.84,0,0,0-.38-.23,2,2,0,0,0-.59-.07,3,3,0,0,0-.83.1,4.07,4.07,0,0,0-.65.23,5.21,5.21,0,0,0-.47.23.65.65,0,0,1-.3.1.25.25,0,0,1-.15-.05A.56.56,0,0,1,39,26a.7.7,0,0,1-.06-.24,1.42,1.42,0,0,1,0-.31,1.63,1.63,0,0,1,0-.36.49.49,0,0,1,.14-.24,1.32,1.32,0,0,1,.36-.23,3.53,3.53,0,0,1,.61-.24,4.12,4.12,0,0,1,.75-.18,4.8,4.8,0,0,1,.85-.07,5.05,5.05,0,0,1,1.32.15,2.23,2.23,0,0,1,.91.46,1.79,1.79,0,0,1,.51.81,3.7,3.7,0,0,1,.17,1.17ZM42.7,28.34H42a3.37,3.37,0,0,0-.77.07,1.38,1.38,0,0,0-.52.2.8.8,0,0,0-.29.32,1,1,0,0,0-.09.43.81.81,0,0,0,.26.65,1,1,0,0,0,.73.24,1.39,1.39,0,0,0,.72-.2,3.15,3.15,0,0,0,.66-.59Z"/><path class="cls-1" d="M51.48,25.17c0,.18,0,.32,0,.43a1.19,1.19,0,0,1,0,.27.26.26,0,0,1-.07.13.2.2,0,0,1-.13,0l-.13,0L50.93,26l-.21-.06-.24,0a.85.85,0,0,0-.31.06,1.28,1.28,0,0,0-.32.2,1.92,1.92,0,0,0-.35.35,6.24,6.24,0,0,0-.39.55v4.1a.2.2,0,0,1,0,.13.27.27,0,0,1-.15.09,1.45,1.45,0,0,1-.29.06h-.9a1.49,1.49,0,0,1-.28-.06.27.27,0,0,1-.15-.09.21.21,0,0,1,0-.13V24.56a.25.25,0,0,1,0-.13.25.25,0,0,1,.13-.09.83.83,0,0,1,.25-.06l.38,0,.39,0a.59.59,0,0,1,.24.06.19.19,0,0,1,.12.09.18.18,0,0,1,0,.13v.82a5,5,0,0,1,.49-.61,2.79,2.79,0,0,1,.43-.38,1.34,1.34,0,0,1,.42-.2,1.4,1.4,0,0,1,.41-.05h.21l.23,0,.2.06a.5.5,0,0,1,.13.07.33.33,0,0,1,.06.08.86.86,0,0,1,0,.13c0,.05,0,.13,0,.23Z"/><path class="cls-1" d="M59.41,27.66a.73.73,0,0,1-.15.5.53.53,0,0,1-.41.16h-4a2.54,2.54,0,0,0,.1.76,1.47,1.47,0,0,0,.32.59,1.29,1.29,0,0,0,.56.36,2.24,2.24,0,0,0,.82.13,4.47,4.47,0,0,0,.86-.07,5.74,5.74,0,0,0,.63-.16l.45-.15a.75.75,0,0,1,.29-.07l.11,0a.2.2,0,0,1,.07.1.4.4,0,0,1,0,.18,2.54,2.54,0,0,1,0,.31c0,.11,0,.2,0,.28a1,1,0,0,1,0,.19.29.29,0,0,1,0,.14A.38.38,0,0,1,59,31a1,1,0,0,1-.26.14,4.41,4.41,0,0,1-.54.17,6.82,6.82,0,0,1-.76.15,6.67,6.67,0,0,1-.92.06,4.77,4.77,0,0,1-1.54-.22,2.72,2.72,0,0,1-1.1-.67,2.68,2.68,0,0,1-.66-1.14,5.76,5.76,0,0,1,0-3.19,3.32,3.32,0,0,1,.66-1.2,3.1,3.1,0,0,1,1.06-.75,4.18,4.18,0,0,1,2.82,0,2.5,2.5,0,0,1,1,.68,2.53,2.53,0,0,1,.56,1,4.36,4.36,0,0,1,.17,1.28Zm-1.8-.53a1.88,1.88,0,0,0-.31-1.23,1.21,1.21,0,0,0-1-.45,1.31,1.31,0,0,0-.61.13,1.29,1.29,0,0,0-.44.36,1.75,1.75,0,0,0-.26.53,2.76,2.76,0,0,0-.11.66Z"/></g></g></svg>