<svg xmlns="http://www.w3.org/2000/svg" viewBox="0 0 118.44 54.66"><defs><style>.cls-1{fill:#fff;}</style></defs><g id="Calque_2" data-name="Calque 2"><g id="Calque_1-2" data-name="Calque 1"><path class="cls-1" d="M2.7,45.05a.58.58,0,0,0-.22-.46,1.7,1.7,0,0,0-.78-.32,2.57,2.57,0,0,1-1-.39.79.79,0,0,1-.32-.67.93.93,0,0,1,.36-.74,1.46,1.46,0,0,1,1-.3,1.5,1.5,0,0,1,1,.32,1,1,0,0,1,.36.79v0H2.68a.68.68,0,0,0-.27-.54,1.05,1.05,0,0,0-.7-.23,1,1,0,0,0-.69.2.61.61,0,0,0-.23.46.55.55,0,0,0,.2.43,2,2,0,0,0,.78.3,2.38,2.38,0,0,1,1,.41.84.84,0,0,1,.34.7,1,1,0,0,1-.38.77,1.68,1.68,0,0,1-1,.29,1.62,1.62,0,0,1-1.08-.33A.89.89,0,0,1,.28,45v0H.67a.66.66,0,0,0,.33.59,1.32,1.32,0,0,0,.73.19,1.15,1.15,0,0,0,.71-.2A.62.62,0,0,0,2.7,45.05Z"/><path class="cls-1" d="M7.4,44.23A2.24,2.24,0,0,1,7,45.59a1.28,1.28,0,0,1-1.06.5,1.52,1.52,0,0,1-.69-.15,1.27,1.27,0,0,1-.49-.43v2H4.36V42.24h.33l.07.59A1.36,1.36,0,0,1,6,42.17,1.23,1.23,0,0,1,7,42.72a2.48,2.48,0,0,1,.38,1.44ZM7,44.16A2.16,2.16,0,0,0,6.7,43a.93.93,0,0,0-.84-.45,1.06,1.06,0,0,0-.68.2,1.27,1.27,0,0,0-.4.51v1.83a1.22,1.22,0,0,0,.42.48,1.17,1.17,0,0,0,.67.18,1,1,0,0,0,.83-.41A1.91,1.91,0,0,0,7,44.23Z"/><path class="cls-1" d="M10.06,46.09a1.49,1.49,0,0,1-1.19-.52,1.91,1.91,0,0,1-.46-1.33v-.19a2,2,0,0,1,.46-1.35A1.48,1.48,0,0,1,10,42.17a1.3,1.3,0,0,1,1.06.45,1.74,1.74,0,0,1,.38,1.18v.33H8.83v.11a1.69,1.69,0,0,0,.33,1.07,1,1,0,0,0,.9.43,1.61,1.61,0,0,0,.63-.12,1.16,1.16,0,0,0,.48-.3l.18.28a1.53,1.53,0,0,1-.52.35A2,2,0,0,1,10.06,46.09Zm0-3.56a1,1,0,0,0-.79.35,1.43,1.43,0,0,0-.36.87v0H11v-.09a1.23,1.23,0,0,0-.27-.82A.89.89,0,0,0,10,42.53Zm.44-1.89H11v0l-.87.91H9.74Z"/><path class="cls-1" d="M14,45.74a1.15,1.15,0,0,0,.71-.24.8.8,0,0,0,.3-.66h.38v0a1.08,1.08,0,0,1-.42.88,1.51,1.51,0,0,1-1,.35,1.42,1.42,0,0,1-1.18-.53,2.12,2.12,0,0,1-.42-1.36v-.14a2.14,2.14,0,0,1,.42-1.36A1.42,1.42,0,0,1,14,42.17a1.44,1.44,0,0,1,1,.37,1.23,1.23,0,0,1,.4,1v0H15a.91.91,0,0,0-.29-.72,1,1,0,0,0-.73-.27,1,1,0,0,0-.88.44,1.94,1.94,0,0,0-.29,1.09v.14a2,2,0,0,0,.29,1.1A1,1,0,0,0,14,45.74Z"/><path class="cls-1" d="M17,41.16H16.6v-.58H17ZM17,46H16.6V42.24H17Z"/><path class="cls-1" d="M20.84,46c0-.14,0-.25-.06-.35a2.64,2.64,0,0,1,0-.29,1.47,1.47,0,0,1-.54.51,1.68,1.68,0,0,1-.81.2,1.21,1.21,0,0,1-.86-.29,1.09,1.09,0,0,1-.31-.8.94.94,0,0,1,.45-.82,1.91,1.91,0,0,1,1.15-.32h.92v-.47a.81.81,0,0,0-.25-.63,1.06,1.06,0,0,0-.73-.23,1.09,1.09,0,0,0-.69.21.65.65,0,0,0-.26.53h-.39v0a.85.85,0,0,1,.36-.74,1.7,1.7,0,0,1,2,0,1.13,1.13,0,0,1,.38.91v1.86c0,.13,0,.26,0,.38a2.57,2.57,0,0,0,.08.38Zm-1.39-.3a1.55,1.55,0,0,0,.84-.23,1.13,1.13,0,0,0,.47-.59v-.72h-.93a1.39,1.39,0,0,0-.84.24.73.73,0,0,0-.33.59.66.66,0,0,0,.21.51A.79.79,0,0,0,19.45,45.72Z"/><path class="cls-1" d="M23,46h-.41V40.58H23Z"/><path class="cls-1" d="M25,41.16h-.41v-.58H25ZM25,46h-.41V42.24H25Z"/><path class="cls-1" d="M28.65,45.05a.58.58,0,0,0-.22-.46,1.75,1.75,0,0,0-.78-.32,2.57,2.57,0,0,1-1-.39.78.78,0,0,1-.33-.67.94.94,0,0,1,.37-.74,1.45,1.45,0,0,1,1-.3,1.53,1.53,0,0,1,1,.32,1,1,0,0,1,.36.79v0h-.38a.68.68,0,0,0-.27-.54,1.06,1.06,0,0,0-.71-.23,1,1,0,0,0-.68.2.61.61,0,0,0-.23.46.55.55,0,0,0,.2.43,2,2,0,0,0,.78.3,2.44,2.44,0,0,1,1,.41.84.84,0,0,1,.34.7.93.93,0,0,1-.39.77,1.64,1.64,0,0,1-1,.29,1.61,1.61,0,0,1-1.07-.33.93.93,0,0,1-.38-.78v0h.38a.69.69,0,0,0,.34.59,1.31,1.31,0,0,0,.72.19,1.18,1.18,0,0,0,.72-.2A.62.62,0,0,0,28.65,45.05Z"/><path class="cls-1" d="M31,41.28v1h.82v.35H31V45a.81.81,0,0,0,.13.53.46.46,0,0,0,.36.15h.14l.17,0,.07.31a1.05,1.05,0,0,1-.21.06,1.07,1.07,0,0,1-.25,0,.79.79,0,0,1-.62-.25,1.23,1.23,0,0,1-.22-.8V42.59h-.65v-.35h.65v-1Z"/><path class="cls-1" d="M34.33,46.09a1.49,1.49,0,0,1-1.19-.52,2,2,0,0,1-.46-1.33v-.19a2,2,0,0,1,.46-1.35,1.49,1.49,0,0,1,1.15-.53,1.3,1.3,0,0,1,1.06.45,1.74,1.74,0,0,1,.38,1.18v.33H33.1v.11a1.69,1.69,0,0,0,.33,1.07,1.05,1.05,0,0,0,.9.43,1.61,1.61,0,0,0,.63-.12,1.16,1.16,0,0,0,.48-.3l.18.28a1.44,1.44,0,0,1-.52.35A2,2,0,0,1,34.33,46.09Zm0-3.56a1,1,0,0,0-.79.35,1.43,1.43,0,0,0-.36.87v0h2.16v-.09a1.28,1.28,0,0,0-.26-.82A.92.92,0,0,0,34.29,42.53Z"/><path class="cls-1" d="M39.12,45.05a.61.61,0,0,0-.22-.46,1.8,1.8,0,0,0-.79-.32,2.51,2.51,0,0,1-1-.39.78.78,0,0,1-.33-.67.93.93,0,0,1,.36-.74,1.5,1.5,0,0,1,1-.3,1.53,1.53,0,0,1,1,.32,1,1,0,0,1,.36.79v0h-.39a.7.7,0,0,0-.26-.54,1.08,1.08,0,0,0-.71-.23,1,1,0,0,0-.68.2.58.58,0,0,0-.23.46.54.54,0,0,0,.19.43,2.07,2.07,0,0,0,.79.3,2.39,2.39,0,0,1,1,.41.81.81,0,0,1,.34.7,1,1,0,0,1-.38.77,1.66,1.66,0,0,1-1,.29,1.62,1.62,0,0,1-1.08-.33.94.94,0,0,1-.37-.78v0h.38a.7.7,0,0,0,.33.59,1.35,1.35,0,0,0,.73.19,1.15,1.15,0,0,0,.71-.2A.61.61,0,0,0,39.12,45.05Z"/><path class="cls-1" d="M42.64,44.16A2.48,2.48,0,0,1,43,42.72a1.21,1.21,0,0,1,1.06-.55,1.36,1.36,0,0,1,1.17.63V40.58h.41V46h-.34l-.06-.55a1.27,1.27,0,0,1-.49.46,1.35,1.35,0,0,1-.69.16,1.26,1.26,0,0,1-1.06-.5,2.24,2.24,0,0,1-.38-1.36Zm.42.07a1.93,1.93,0,0,0,.27,1.09.93.93,0,0,0,.82.41,1.12,1.12,0,0,0,1.1-.68V43.26a1.32,1.32,0,0,0-.41-.52,1,1,0,0,0-.68-.2.92.92,0,0,0-.83.45,2.25,2.25,0,0,0-.27,1.17Z"/><path class="cls-1" d="M49.53,45.4a1.27,1.27,0,0,1-.49.51,1.37,1.37,0,0,1-.72.18,1.13,1.13,0,0,1-.93-.4,1.92,1.92,0,0,1-.34-1.26V42.24h.42v2.2a1.61,1.61,0,0,0,.23,1,.81.81,0,0,0,.67.3,1.23,1.23,0,0,0,.75-.21,1.15,1.15,0,0,0,.4-.58v-2.7h.41V46h-.37Z"/><path class="cls-1" d="M54.72,45.74a1.11,1.11,0,0,0,.71-.24.78.78,0,0,0,.31-.66h.38v0a1.07,1.07,0,0,1-.41.88,1.52,1.52,0,0,1-1,.35,1.42,1.42,0,0,1-1.17-.53,2.12,2.12,0,0,1-.42-1.36v-.14a2.14,2.14,0,0,1,.42-1.36,1.42,1.42,0,0,1,1.17-.53,1.46,1.46,0,0,1,1,.37,1.19,1.19,0,0,1,.39,1v0h-.38a1,1,0,0,0-.29-.72,1,1,0,0,0-.73-.27,1,1,0,0,0-.88.44,1.87,1.87,0,0,0-.29,1.09v.14a1.88,1.88,0,0,0,.29,1.1A1,1,0,0,0,54.72,45.74Z"/><path class="cls-1" d="M57.07,44.07a2,2,0,0,1,.46-1.36,1.63,1.63,0,0,1,2.42,0,2,2,0,0,1,.46,1.36v.12A2,2,0,0,1,60,45.56a1.65,1.65,0,0,1-2.42,0,2,2,0,0,1-.46-1.37Zm.42.12a1.8,1.8,0,0,0,.33,1.1,1.17,1.17,0,0,0,1.84,0,1.8,1.8,0,0,0,.33-1.1v-.12A1.79,1.79,0,0,0,59.66,43a1.09,1.09,0,0,0-.92-.45,1.08,1.08,0,0,0-.92.45,1.79,1.79,0,0,0-.33,1.09Z"/><path class="cls-1" d="M61.93,42.24l0,.66a1.51,1.51,0,0,1,.49-.54,1.44,1.44,0,0,1,.73-.19,1.18,1.18,0,0,1,.94.38,1.8,1.8,0,0,1,.32,1.17V46H64v-2.3a1.39,1.39,0,0,0-.24-.92.9.9,0,0,0-.69-.26,1.09,1.09,0,0,0-.72.22,1.2,1.2,0,0,0-.4.59V46h-.42V42.24Z"/><path class="cls-1" d="M68.08,45.05a.6.6,0,0,0-.21-.46,1.8,1.8,0,0,0-.79-.32,2.57,2.57,0,0,1-1-.39.79.79,0,0,1-.32-.67.93.93,0,0,1,.36-.74,1.72,1.72,0,0,1,2,0,.94.94,0,0,1,.36.79v0h-.39a.68.68,0,0,0-.27-.54,1.23,1.23,0,0,0-1.39,0,.61.61,0,0,0-.23.46.55.55,0,0,0,.2.43,2,2,0,0,0,.79.3,2.39,2.39,0,0,1,1,.41.81.81,0,0,1,.34.7,1,1,0,0,1-.38.77,1.66,1.66,0,0,1-1,.29A1.62,1.62,0,0,1,66,45.76a.92.92,0,0,1-.37-.78v0h.39a.68.68,0,0,0,.33.59,1.35,1.35,0,0,0,.73.19,1.15,1.15,0,0,0,.71-.2A.59.59,0,0,0,68.08,45.05Z"/><path class="cls-1" d="M71.18,46.09A1.5,1.5,0,0,1,70,45.57a2,2,0,0,1-.46-1.33v-.19A2,2,0,0,1,70,42.7a1.46,1.46,0,0,1,1.14-.53,1.3,1.3,0,0,1,1.06.45,1.74,1.74,0,0,1,.38,1.18v.33H70v.11a1.69,1.69,0,0,0,.33,1.07,1.06,1.06,0,0,0,.9.43,1.61,1.61,0,0,0,.63-.12,1.27,1.27,0,0,0,.49-.3l.17.28A1.44,1.44,0,0,1,72,46,2,2,0,0,1,71.18,46.09Zm0-3.56a1,1,0,0,0-.79.35,1.43,1.43,0,0,0-.36.87v0h2.16v-.09a1.28,1.28,0,0,0-.26-.82A.92.92,0,0,0,71.14,42.53Z"/><path class="cls-1" d="M74.18,41.16h-.42v-.58h.42Zm0,4.86h-.42V42.24h.42Z"/><path class="cls-1" d="M76.08,46h-.41V40.58h.41Z"/><path class="cls-1" d="M81,46.09a1.49,1.49,0,0,1-1.19-.52,1.91,1.91,0,0,1-.46-1.33v-.19a2,2,0,0,1,.46-1.35,1.48,1.48,0,0,1,1.15-.53,1.3,1.3,0,0,1,1.06.45,1.74,1.74,0,0,1,.37,1.18v.33H79.75v.11a1.69,1.69,0,0,0,.33,1.07,1,1,0,0,0,.9.43,1.61,1.61,0,0,0,.63-.12,1.31,1.31,0,0,0,.48-.3l.18.28a1.53,1.53,0,0,1-.52.35A2,2,0,0,1,81,46.09Zm0-3.56a1,1,0,0,0-.79.35,1.5,1.5,0,0,0-.37.87v0H82v-.09a1.23,1.23,0,0,0-.27-.82A.89.89,0,0,0,80.94,42.53Zm.44-1.89h.51v0l-.86.91h-.38Z"/><path class="cls-1" d="M83.87,42.24l0,.66a1.42,1.42,0,0,1,.49-.54,1.44,1.44,0,0,1,.73-.19,1.18,1.18,0,0,1,.94.38,1.8,1.8,0,0,1,.32,1.17V46H86v-2.3a1.39,1.39,0,0,0-.24-.92.92.92,0,0,0-.69-.26,1.09,1.09,0,0,0-.72.22,1.14,1.14,0,0,0-.4.59V46H83.5V42.24Z"/><path class="cls-1" d="M89.2,46.09A1.49,1.49,0,0,1,88,45.57a1.91,1.91,0,0,1-.46-1.33v-.19A2,2,0,0,1,88,42.7a1.48,1.48,0,0,1,1.15-.53,1.3,1.3,0,0,1,1.06.45,1.74,1.74,0,0,1,.37,1.18v.33H88v.11a1.69,1.69,0,0,0,.33,1.07,1,1,0,0,0,.9.43,1.61,1.61,0,0,0,.63-.12,1.31,1.31,0,0,0,.48-.3l.18.28A1.53,1.53,0,0,1,90,46,2,2,0,0,1,89.2,46.09Zm0-3.56a1,1,0,0,0-.79.35,1.5,1.5,0,0,0-.37.87v0h2.17v-.09a1.23,1.23,0,0,0-.27-.82A.89.89,0,0,0,89.16,42.53Z"/><path class="cls-1" d="M93.45,42.6l-.3,0a1,1,0,0,0-.65.22,1.28,1.28,0,0,0-.36.61V46h-.42V42.24h.37l0,.63v0a1.4,1.4,0,0,1,.44-.54,1.12,1.12,0,0,1,.66-.2l.14,0,.12,0Z"/><path class="cls-1" d="M94.23,44.16a2.48,2.48,0,0,1,.38-1.44,1.23,1.23,0,0,1,1.07-.55,1.31,1.31,0,0,1,1.18.67l.06-.6h.34V46a1.47,1.47,0,0,1-.4,1.11,1.53,1.53,0,0,1-1.12.39,2.41,2.41,0,0,1-.58-.07,1.9,1.9,0,0,1-.54-.18l.08-.35a2.48,2.48,0,0,0,.48.17,2.44,2.44,0,0,0,.55.06,1.1,1.1,0,0,0,.83-.29,1.14,1.14,0,0,0,.28-.84V45.5a1.29,1.29,0,0,1-.49.44,1.45,1.45,0,0,1-.68.15,1.26,1.26,0,0,1-1.06-.51,2.19,2.19,0,0,1-.38-1.35Zm.42.07a1.93,1.93,0,0,0,.27,1.09,1,1,0,0,0,.83.41,1.17,1.17,0,0,0,.67-.18,1.21,1.21,0,0,0,.42-.5V43.26a1.25,1.25,0,0,0-.41-.52,1,1,0,0,0-.67-.2.9.9,0,0,0-.83.45,2.16,2.16,0,0,0-.28,1.17Z"/><path class="cls-1" d="M100.08,46.09a1.49,1.49,0,0,1-1.19-.52,1.91,1.91,0,0,1-.46-1.33v-.19a2,2,0,0,1,.46-1.35,1.48,1.48,0,0,1,1.15-.53,1.31,1.31,0,0,1,1.06.45,1.74,1.74,0,0,1,.37,1.18v.33H98.85v.11a1.74,1.74,0,0,0,.32,1.07,1.07,1.07,0,0,0,.91.43,1.64,1.64,0,0,0,.63-.12,1.31,1.31,0,0,0,.48-.3l.18.28a1.53,1.53,0,0,1-.52.35A2,2,0,0,1,100.08,46.09Zm0-3.56a1,1,0,0,0-.79.35,1.5,1.5,0,0,0-.37.87v0h2.16v-.09a1.22,1.22,0,0,0-.26-.82A.9.9,0,0,0,100,42.53Zm.44-1.89H101v0l-.87.91h-.37Z"/><path class="cls-1" d="M103.25,41.28v1h.83v.35h-.83V45a.8.8,0,0,0,.14.53.46.46,0,0,0,.36.15h.14l.17,0,.07.31a1.05,1.05,0,0,1-.21.06,1.07,1.07,0,0,1-.25,0,.79.79,0,0,1-.62-.25,1.23,1.23,0,0,1-.22-.8V42.59h-.65v-.35h.65v-1Z"/><path class="cls-1" d="M105.65,41.16h-.41v-.58h.41Zm0,4.86h-.41V42.24h.41Z"/><path class="cls-1" d="M106.93,44.16a2.48,2.48,0,0,1,.38-1.44,1.21,1.21,0,0,1,1.07-.55,1.37,1.37,0,0,1,.68.17,1.4,1.4,0,0,1,.48.46l.06-.56h.34v5.23h-.42V45.52a1.2,1.2,0,0,1-.48.42,1.47,1.47,0,0,1-.67.15,1.26,1.26,0,0,1-1.06-.5,2.24,2.24,0,0,1-.38-1.36Zm.42.07a2,2,0,0,0,.27,1.1.93.93,0,0,0,.82.41,1.16,1.16,0,0,0,.66-.18,1.13,1.13,0,0,0,.42-.47V43.22a1.41,1.41,0,0,0-.4-.5,1.11,1.11,0,0,0-.67-.19.92.92,0,0,0-.83.45,2.32,2.32,0,0,0-.27,1.18Z"/><path class="cls-1" d="M113.82,45.4a1.27,1.27,0,0,1-.49.51,1.37,1.37,0,0,1-.72.18,1.13,1.13,0,0,1-.93-.4,1.92,1.92,0,0,1-.34-1.26V42.24h.42v2.2a1.68,1.68,0,0,0,.23,1,.81.81,0,0,0,.67.3,1.23,1.23,0,0,0,.75-.21,1.15,1.15,0,0,0,.4-.58v-2.7h.42V46h-.37Z"/><path class="cls-1" d="M117.05,46.09a1.49,1.49,0,0,1-1.19-.52,1.91,1.91,0,0,1-.46-1.33v-.19a2,2,0,0,1,.46-1.35,1.48,1.48,0,0,1,1.15-.53,1.31,1.31,0,0,1,1.06.45,1.74,1.74,0,0,1,.37,1.18v.33h-2.62v.11a1.74,1.74,0,0,0,.32,1.07,1.07,1.07,0,0,0,.91.43,1.61,1.61,0,0,0,.63-.12,1.31,1.31,0,0,0,.48-.3l.18.28a1.53,1.53,0,0,1-.52.35A2,2,0,0,1,117.05,46.09Zm0-3.56a1,1,0,0,0-.79.35,1.5,1.5,0,0,0-.37.87v0H118v-.09a1.23,1.23,0,0,0-.27-.82A.9.9,0,0,0,117,42.53Z"/><path class="cls-1" d="M1.88,54.66a1.49,1.49,0,0,1-1.19-.52,1.91,1.91,0,0,1-.46-1.33v-.19a2,2,0,0,1,.46-1.35,1.48,1.48,0,0,1,1.15-.53,1.32,1.32,0,0,1,1.06.44,1.78,1.78,0,0,1,.37,1.19v.33H.65v.11A1.74,1.74,0,0,0,1,53.88a1.1,1.1,0,0,0,.91.43,1.61,1.61,0,0,0,.63-.12,1.31,1.31,0,0,0,.48-.3l.18.28a1.53,1.53,0,0,1-.52.35A2,2,0,0,1,1.88,54.66Zm0-3.56a1,1,0,0,0-.79.34,1.53,1.53,0,0,0-.37.88v0H2.86v-.09a1.27,1.27,0,0,0-.27-.83A.91.91,0,0,0,1.84,51.1Z"/><path class="cls-1" d="M5.06,49.85v1h.82v.34H5.06v2.46a.83.83,0,0,0,.13.53.46.46,0,0,0,.36.15H5.7l.16,0,.07.31a.65.65,0,0,1-.21.07,1.07,1.07,0,0,1-.25,0,.79.79,0,0,1-.62-.25,1.25,1.25,0,0,1-.22-.8V51.15H4v-.34h.65v-1Z"/><path class="cls-1" d="M10.44,54.66a1.5,1.5,0,0,1-1.19-.52,2,2,0,0,1-.45-1.33v-.19a2,2,0,0,1,.46-1.35,1.47,1.47,0,0,1,1.14-.53,1.32,1.32,0,0,1,1.06.44,1.79,1.79,0,0,1,.38,1.19v.33H9.21v.11a1.69,1.69,0,0,0,.33,1.07,1.09,1.09,0,0,0,.9.43,1.69,1.69,0,0,0,.64-.12,1.31,1.31,0,0,0,.48-.3l.17.28a1.44,1.44,0,0,1-.52.35A2,2,0,0,1,10.44,54.66Zm0-3.56a1,1,0,0,0-.79.34,1.46,1.46,0,0,0-.36.88v0h2.16v-.09a1.33,1.33,0,0,0-.26-.83A1,1,0,0,0,10.4,51.1Z"/><path class="cls-1" d="M13.34,50.81l0,.66a1.35,1.35,0,0,1,.49-.54,1.41,1.41,0,0,1,.73-.19,1.15,1.15,0,0,1,.93.38,1.74,1.74,0,0,1,.32,1.17v2.3h-.42v-2.3a1.39,1.39,0,0,0-.24-.92.9.9,0,0,0-.69-.26,1.12,1.12,0,0,0-.72.22,1.2,1.2,0,0,0-.39.58v2.68H13V50.81Z"/><path class="cls-1" d="M18.3,53.64l.13.44h0l.13-.44,1-2.83H20L18.6,54.59h-.33l-1.44-3.78h.43Z"/><path class="cls-1" d="M21.48,49.73h-.42v-.58h.42Zm0,4.86h-.42V50.81h.42Z"/><path class="cls-1" d="M24.64,51.17l-.3,0a1,1,0,0,0-.65.22,1.2,1.2,0,0,0-.36.61v2.61h-.42V50.81h.37l0,.63v0a1.4,1.4,0,0,1,.44-.54,1.12,1.12,0,0,1,.66-.2l.14,0,.12,0Z"/><path class="cls-1" d="M25.33,52.64a2,2,0,0,1,.46-1.36A1.52,1.52,0,0,1,27,50.74a1.49,1.49,0,0,1,1.21.54,2,2,0,0,1,.46,1.36v.12a2.06,2.06,0,0,1-.45,1.37,1.66,1.66,0,0,1-2.43,0,2.06,2.06,0,0,1-.46-1.37Zm.42.12a1.8,1.8,0,0,0,.33,1.1,1.1,1.1,0,0,0,.93.45,1.06,1.06,0,0,0,.91-.45,1.74,1.74,0,0,0,.34-1.1v-.12a1.73,1.73,0,0,0-.34-1.09A1.08,1.08,0,0,0,27,51.1a1.09,1.09,0,0,0-.92.45,1.79,1.79,0,0,0-.33,1.09Z"/><path class="cls-1" d="M30.2,50.81l0,.66a1.35,1.35,0,0,1,.49-.54,1.41,1.41,0,0,1,.73-.19,1.15,1.15,0,0,1,.93.38,1.8,1.8,0,0,1,.32,1.17v2.3h-.42v-2.3a1.39,1.39,0,0,0-.24-.92.9.9,0,0,0-.69-.26,1.11,1.11,0,0,0-.72.22,1.2,1.2,0,0,0-.39.58v2.68h-.42V50.81Z"/><path class="cls-1" d="M34.46,50.81l0,.66a1.35,1.35,0,0,1,.49-.54,1.41,1.41,0,0,1,.73-.19,1.15,1.15,0,0,1,.93.38A1.8,1.8,0,0,1,37,52.29v2.3h-.42v-2.3a1.39,1.39,0,0,0-.24-.92.9.9,0,0,0-.69-.26,1.11,1.11,0,0,0-.72.22,1.2,1.2,0,0,0-.39.58v2.68h-.42V50.81Z"/><path class="cls-1" d="M39.78,54.66a1.5,1.5,0,0,1-1.19-.52,2,2,0,0,1-.45-1.33v-.19a2,2,0,0,1,.46-1.35,1.47,1.47,0,0,1,1.14-.53,1.34,1.34,0,0,1,1.07.44,1.78,1.78,0,0,1,.37,1.19v.33H38.56v.11a1.68,1.68,0,0,0,.32,1.07,1.09,1.09,0,0,0,.9.43,1.69,1.69,0,0,0,.64-.12,1.31,1.31,0,0,0,.48-.3l.18.28a1.58,1.58,0,0,1-.53.35A2,2,0,0,1,39.78,54.66Zm0-3.56a1,1,0,0,0-.79.34,1.52,1.52,0,0,0-.36.88v0h2.16v-.09a1.33,1.33,0,0,0-.26-.83A1,1,0,0,0,39.74,51.1Z"/><path class="cls-1" d="M42.66,50.81l0,.62a1.41,1.41,0,0,1,.49-.51,1.36,1.36,0,0,1,.71-.18,1.18,1.18,0,0,1,.72.21,1.11,1.11,0,0,1,.42.63,1.35,1.35,0,0,1,.49-.61,1.27,1.27,0,0,1,.76-.23,1.16,1.16,0,0,1,.93.4,2,2,0,0,1,.33,1.24v2.21h-.42V52.38a1.51,1.51,0,0,0-.25-1,.84.84,0,0,0-.68-.28.93.93,0,0,0-.74.29,1.44,1.44,0,0,0-.33.75v2.44h-.42V52.38a1.5,1.5,0,0,0-.25-1,.82.82,0,0,0-.68-.29,1,1,0,0,0-.7.22,1.09,1.09,0,0,0-.37.59v2.67H42.3V50.81Z"/><path class="cls-1" d="M50.36,54.66a1.49,1.49,0,0,1-1.19-.52,1.91,1.91,0,0,1-.46-1.33v-.19a2,2,0,0,1,.46-1.35,1.48,1.48,0,0,1,1.15-.53,1.32,1.32,0,0,1,1.06.44,1.78,1.78,0,0,1,.37,1.19v.33H49.13v.11a1.69,1.69,0,0,0,.33,1.07,1.07,1.07,0,0,0,.9.43,1.61,1.61,0,0,0,.63-.12,1.31,1.31,0,0,0,.48-.3l.18.28a1.53,1.53,0,0,1-.52.35A2,2,0,0,1,50.36,54.66Zm0-3.56a1,1,0,0,0-.79.34,1.53,1.53,0,0,0-.37.88v0h2.17v-.09a1.27,1.27,0,0,0-.27-.83A.91.91,0,0,0,50.32,51.1Z"/><path class="cls-1" d="M53.25,50.81l0,.66a1.51,1.51,0,0,1,.49-.54,1.44,1.44,0,0,1,.73-.19,1.18,1.18,0,0,1,.94.38,1.8,1.8,0,0,1,.32,1.17v2.3h-.42v-2.3a1.39,1.39,0,0,0-.24-.92.9.9,0,0,0-.69-.26,1.09,1.09,0,0,0-.72.22,1.21,1.21,0,0,0-.4.58v2.68h-.42V50.81Z"/><path class="cls-1" d="M57.8,49.85v1h.83v.34H57.8v2.46a.83.83,0,0,0,.13.53.46.46,0,0,0,.36.15h.15l.16,0,.07.31a.65.65,0,0,1-.21.07,1,1,0,0,1-.25,0,.75.75,0,0,1-.61-.25,1.19,1.19,0,0,1-.23-.8V51.15h-.65v-.34h.65v-1Z"/><path class="cls-1" d="M62.12,54.59a3.22,3.22,0,0,1-.06-.35A2.64,2.64,0,0,1,62,54a1.51,1.51,0,0,1-.55.51,1.62,1.62,0,0,1-.81.2,1.18,1.18,0,0,1-.86-.3,1.06,1.06,0,0,1-.3-.8,1,1,0,0,1,.44-.82,2,2,0,0,1,1.15-.31H62V52a.8.8,0,0,0-.26-.63,1,1,0,0,0-.72-.23,1.05,1.05,0,0,0-.69.21.63.63,0,0,0-.27.52h-.38v0a.9.9,0,0,1,.36-.74,1.72,1.72,0,0,1,2,0,1.13,1.13,0,0,1,.37.91v1.86a2.34,2.34,0,0,0,0,.38,2.53,2.53,0,0,0,.07.38Zm-1.39-.3a1.5,1.5,0,0,0,.83-.23,1.1,1.1,0,0,0,.48-.59v-.72h-.93a1.39,1.39,0,0,0-.84.24.73.73,0,0,0-.33.59.66.66,0,0,0,.21.51A.82.82,0,0,0,60.73,54.29Z"/><path class="cls-1" d="M64.32,54.59H63.9V49.15h.42Z"/><path class="cls-1" d="M16,15.54a4.23,4.23,0,0,1,.19.74.45.45,0,0,1-.1.41.91.91,0,0,1-.5.17c-.25,0-.58,0-1,0l-1,0a2.32,2.32,0,0,1-.56-.08.5.5,0,0,1-.27-.16.85.85,0,0,1-.13-.27L11.47,13H5.19L4.13,16.27a1,1,0,0,1-.14.3.53.53,0,0,1-.27.2,2.48,2.48,0,0,1-.53.09q-.35,0-.9,0a7.72,7.72,0,0,1-.93,0,.71.71,0,0,1-.46-.19.48.48,0,0,1-.09-.42A3.89,3.89,0,0,1,1,15.52L6.16.67A1.27,1.27,0,0,1,6.34.32.67.67,0,0,1,6.67.11,2.36,2.36,0,0,1,7.3,0L8.36,0,9.57,0a3,3,0,0,1,.71.09.69.69,0,0,1,.36.21,1.42,1.42,0,0,1,.19.39ZM8.32,3.27h0L5.94,10.38h4.74Z"/><path class="cls-1" d="M32,11.79a5.11,5.11,0,0,1-.24,1.62,4.47,4.47,0,0,1-.68,1.28,4.54,4.54,0,0,1-1,1,6.78,6.78,0,0,1-1.32.66,8.36,8.36,0,0,1-1.55.38,12.68,12.68,0,0,1-1.83.12H20.88a1,1,0,0,1-.71-.25,1,1,0,0,1-.29-.82V1.15a1,1,0,0,1,.29-.82,1,1,0,0,1,.71-.25h4.21a10.8,10.8,0,0,1,2.6.26,5.11,5.11,0,0,1,1.8.78,3.48,3.48,0,0,1,1.12,1.32A4.31,4.31,0,0,1,31,4.33a4.26,4.26,0,0,1-.16,1.15,3.31,3.31,0,0,1-.45,1,3.37,3.37,0,0,1-.73.78,3.92,3.92,0,0,1-1,.54A4.72,4.72,0,0,1,30,8.22,3.89,3.89,0,0,1,31,9.06a3.82,3.82,0,0,1,.7,1.19A4.18,4.18,0,0,1,32,11.79Zm-4.39-7a2.59,2.59,0,0,0-.16-.91A1.68,1.68,0,0,0,27,3.17a2.18,2.18,0,0,0-.79-.4,4.29,4.29,0,0,0-1.26-.14H23.21V7h1.9a3.43,3.43,0,0,0,1.18-.17A2.11,2.11,0,0,0,27,6.32a2,2,0,0,0,.43-.71A2.51,2.51,0,0,0,27.6,4.75Zm.86,7.16a2.61,2.61,0,0,0-.19-1,2,2,0,0,0-.57-.77,2.55,2.55,0,0,0-1-.48,5.66,5.66,0,0,0-1.51-.17h-2v4.76h2.46a4.06,4.06,0,0,0,1.19-.15,2.37,2.37,0,0,0,.85-.44,2,2,0,0,0,.55-.72A2.25,2.25,0,0,0,28.46,11.91Z"/><path class="cls-1" d="M55.76,16.34a.48.48,0,0,1-.07.24.59.59,0,0,1-.26.17,3.36,3.36,0,0,1-.5.1,5.82,5.82,0,0,1-.79,0,5.75,5.75,0,0,1-.78,0,3.19,3.19,0,0,1-.49-.1.65.65,0,0,1-.26-.17.4.4,0,0,1-.07-.24V2.73h0l-4.85,13.6a.57.57,0,0,1-.17.28.76.76,0,0,1-.31.17,1.79,1.79,0,0,1-.51.09l-.75,0q-.45,0-.75,0a2.47,2.47,0,0,1-.51-.11.81.81,0,0,1-.32-.17.51.51,0,0,1-.16-.25L39.5,2.73h0V16.34a.48.48,0,0,1-.07.24.57.57,0,0,1-.27.17,3.36,3.36,0,0,1-.5.1,5.57,5.57,0,0,1-.78,0,5.75,5.75,0,0,1-.78,0,3.19,3.19,0,0,1-.49-.1.53.53,0,0,1-.26-.17.4.4,0,0,1-.07-.24V1.44a1.34,1.34,0,0,1,.35-1,1.22,1.22,0,0,1,.93-.35h2.22a5,5,0,0,1,1,.09,2.09,2.09,0,0,1,.74.33,1.86,1.86,0,0,1,.52.59A4.66,4.66,0,0,1,42.4,2L46,12h0L49.82,2a5.48,5.48,0,0,1,.37-.92A2.11,2.11,0,0,1,50.66.5a1.61,1.61,0,0,1,.62-.33,3.49,3.49,0,0,1,.84-.09h2.29a1.76,1.76,0,0,1,.6.09,1.11,1.11,0,0,1,.42.26,1.2,1.2,0,0,1,.24.43,1.72,1.72,0,0,1,.09.58Z"/><path class="cls-1" d="M7.22,28.5a.81.81,0,0,1-.17.56.63.63,0,0,1-.47.18H2.11a3.13,3.13,0,0,0,.11.85,1.51,1.51,0,0,0,.35.65,1.53,1.53,0,0,0,.63.41,2.54,2.54,0,0,0,.92.14,4.49,4.49,0,0,0,1-.08A4.8,4.8,0,0,0,5.79,31l.49-.17a1,1,0,0,1,.33-.08.21.21,0,0,1,.12,0,.21.21,0,0,1,.08.1.81.81,0,0,1,.05.21c0,.09,0,.21,0,.34a2.73,2.73,0,0,1,0,.31,1.27,1.27,0,0,1,0,.22.53.53,0,0,1,0,.15.94.94,0,0,1-.09.12.92.92,0,0,1-.29.16,3.72,3.72,0,0,1-.61.19,7.5,7.5,0,0,1-.85.17,8.17,8.17,0,0,1-1,.07,5.28,5.28,0,0,1-1.72-.25A3,3,0,0,1,1,31.86a3.07,3.07,0,0,1-.74-1.27A6,6,0,0,1,0,28.8,5.68,5.68,0,0,1,.26,27,3.59,3.59,0,0,1,1,25.7a3,3,0,0,1,1.18-.84,4.11,4.11,0,0,1,1.57-.29,4.09,4.09,0,0,1,1.57.27,2.85,2.85,0,0,1,1.08.76A3,3,0,0,1,7,26.74a5,5,0,0,1,.2,1.43Zm-2-.59a2.16,2.16,0,0,0-.35-1.37A1.34,1.34,0,0,0,3.7,26a1.49,1.49,0,0,0-.69.15,1.35,1.35,0,0,0-.49.4,1.91,1.91,0,0,0-.29.59,2.86,2.86,0,0,0-.12.73ZM4,21.43a.67.67,0,0,1,.14-.15.7.7,0,0,1,.21-.11l.31-.05.47,0a4.18,4.18,0,0,1,.59,0,.77.77,0,0,1,.31.09.14.14,0,0,1,.09.15.29.29,0,0,1-.08.17l-1.6,1.91-.13.14a.67.67,0,0,1-.17.08,1.33,1.33,0,0,1-.26.05l-.39,0a2.69,2.69,0,0,1-.46,0,.45.45,0,0,1-.24-.08.13.13,0,0,1-.05-.13.46.46,0,0,1,.09-.19Z"/><path class="cls-1" d="M16.92,32.39a.24.24,0,0,1-.05.14.45.45,0,0,1-.17.11l-.31.06-.5,0-.51,0-.32-.06a.41.41,0,0,1-.16-.11.24.24,0,0,1-.05-.14V28.2a3.6,3.6,0,0,0-.08-.84,1.6,1.6,0,0,0-.23-.53.87.87,0,0,0-.38-.33,1.2,1.2,0,0,0-.55-.12,1.34,1.34,0,0,0-.79.28,5.12,5.12,0,0,0-.85.84v4.89a.23.23,0,0,1,0,.14.45.45,0,0,1-.17.11l-.32.06-.5,0-.51,0-.31-.06a.38.38,0,0,1-.17-.11.24.24,0,0,1,0-.14V25a.23.23,0,0,1,0-.14.37.37,0,0,1,.15-.11l.27-.06.43,0,.43,0,.27.06a.33.33,0,0,1,.14.11.23.23,0,0,1,0,.14v.85a4.73,4.73,0,0,1,1.24-1,2.8,2.8,0,0,1,1.31-.33,2.88,2.88,0,0,1,1.27.25,2.2,2.2,0,0,1,.83.67,2.82,2.82,0,0,1,.46,1,6,6,0,0,1,.14,1.37Z"/><path class="cls-1" d="M26.72,28.5a.81.81,0,0,1-.17.56.63.63,0,0,1-.47.18H21.61a3.13,3.13,0,0,0,.11.85,1.51,1.51,0,0,0,.35.65,1.6,1.6,0,0,0,.63.41,2.54,2.54,0,0,0,.92.14,4.49,4.49,0,0,0,.95-.08,4.8,4.8,0,0,0,.72-.17l.49-.17a1,1,0,0,1,.33-.08.21.21,0,0,1,.12,0,.21.21,0,0,1,.08.1.81.81,0,0,1,.05.21c0,.09,0,.21,0,.34a2.73,2.73,0,0,1,0,.31,1.27,1.27,0,0,1,0,.22.53.53,0,0,1-.05.15.94.94,0,0,1-.09.12.92.92,0,0,1-.29.16,3.72,3.72,0,0,1-.61.19,7.5,7.5,0,0,1-.85.17,8.17,8.17,0,0,1-1,.07,5.28,5.28,0,0,1-1.72-.25,3,3,0,0,1-1.23-.75,3.19,3.19,0,0,1-.74-1.27,6,6,0,0,1-.24-1.79A5.68,5.68,0,0,1,19.76,27a3.59,3.59,0,0,1,.74-1.33,3.11,3.11,0,0,1,1.18-.84,4.11,4.11,0,0,1,1.57-.29,4.18,4.18,0,0,1,1.58.27,2.89,2.89,0,0,1,1.07.76,3,3,0,0,1,.62,1.14,5,5,0,0,1,.2,1.43Zm-2-.59a2.16,2.16,0,0,0-.35-1.37A1.34,1.34,0,0,0,23.2,26a1.52,1.52,0,0,0-.69.15,1.35,1.35,0,0,0-.49.4,1.91,1.91,0,0,0-.29.59,2.86,2.86,0,0,0-.12.73Z"/><path class="cls-1" d="M34.12,25.73c0,.19,0,.35,0,.48a1.54,1.54,0,0,1-.05.3.35.35,0,0,1-.08.15.29.29,0,0,1-.14,0l-.15,0-.18-.06-.23-.07-.27,0a.87.87,0,0,0-.35.07,1.74,1.74,0,0,0-.36.21,2.47,2.47,0,0,0-.38.4,4.88,4.88,0,0,0-.43.61v4.58a.24.24,0,0,1-.05.14.45.45,0,0,1-.17.11l-.32.06-.5,0-.51,0-.31-.06a.38.38,0,0,1-.17-.11.24.24,0,0,1-.05-.14V25a.23.23,0,0,1,0-.14.37.37,0,0,1,.15-.11l.27-.06.43,0,.44,0,.26.06a.33.33,0,0,1,.14.11.23.23,0,0,1,0,.14V26a4.74,4.74,0,0,1,.54-.68,3.58,3.58,0,0,1,.49-.43,1.93,1.93,0,0,1,.46-.22,1.82,1.82,0,0,1,.46-.06h.23l.26,0,.23.07a.58.58,0,0,1,.14.08.28.28,0,0,1,.07.09s0,.08,0,.14,0,.14,0,.26S34.12,25.53,34.12,25.73Z"/><path class="cls-1" d="M42.8,25.55a1.45,1.45,0,0,1-.09.59c-.06.12-.14.19-.22.19h-.87a1.17,1.17,0,0,1,.26.44,1.89,1.89,0,0,1,.08.53,2.73,2.73,0,0,1-.22,1.14,2.22,2.22,0,0,1-.61.84,2.78,2.78,0,0,1-1,.52,4.18,4.18,0,0,1-1.26.17,2.46,2.46,0,0,1-.67-.08,2.06,2.06,0,0,1-.5-.2,1.8,1.8,0,0,0-.18.25.72.72,0,0,0-.07.33.46.46,0,0,0,.21.39,1.05,1.05,0,0,0,.58.17l1.79.07a4.18,4.18,0,0,1,1.12.17,2.65,2.65,0,0,1,.82.43,2,2,0,0,1,.51.67,2,2,0,0,1,.18.88,2.25,2.25,0,0,1-.24,1,2.38,2.38,0,0,1-.72.84,3.76,3.76,0,0,1-1.19.56,6.12,6.12,0,0,1-1.69.2,8.13,8.13,0,0,1-1.6-.14,3.54,3.54,0,0,1-1.09-.42,1.67,1.67,0,0,1-.62-.62,1.86,1.86,0,0,1-.19-.81,2.25,2.25,0,0,1,.07-.52,2.18,2.18,0,0,1,.21-.47,2.24,2.24,0,0,1,.33-.43,3.55,3.55,0,0,1,.45-.4,1.39,1.39,0,0,1-.74-1.23,1.75,1.75,0,0,1,.23-.88,2.63,2.63,0,0,1,.57-.72,2.25,2.25,0,0,1-.46-.69,2.7,2.7,0,0,1-.17-1,2.81,2.81,0,0,1,.22-1.15,2.33,2.33,0,0,1,.63-.85,2.62,2.62,0,0,1,1-.54,4,4,0,0,1,1.23-.19,4.91,4.91,0,0,1,.67,0,3.32,3.32,0,0,1,.58.11h2.34c.09,0,.16.06.22.18A1.5,1.5,0,0,1,42.8,25.55Zm-2.18,7.6a.65.65,0,0,0-.29-.56,1.48,1.48,0,0,0-.82-.22l-1.47,0a2.12,2.12,0,0,0-.34.3,1.57,1.57,0,0,0-.21.28.73.73,0,0,0-.1.25,1.15,1.15,0,0,0,0,.26.67.67,0,0,0,.42.62,2.51,2.51,0,0,0,1.17.22,2.57,2.57,0,0,0,.79-.1,1.33,1.33,0,0,0,.52-.25.84.84,0,0,0,.28-.35A.94.94,0,0,0,40.62,33.15Zm-.48-5.86a1.23,1.23,0,0,0-.33-.92,1.26,1.26,0,0,0-.93-.33,1.33,1.33,0,0,0-.54.1,1.08,1.08,0,0,0-.38.28,1.27,1.27,0,0,0-.23.41,1.61,1.61,0,0,0-.07.49,1.19,1.19,0,0,0,.33.89,1.22,1.22,0,0,0,.91.32,1.35,1.35,0,0,0,.55-.1.94.94,0,0,0,.38-.27,1.13,1.13,0,0,0,.23-.4A1.5,1.5,0,0,0,40.14,27.29Z"/><path class="cls-1" d="M47.38,22.55a1.18,1.18,0,0,1-.25.87,2,2,0,0,1-1.89,0,1.15,1.15,0,0,1-.24-.84,1.16,1.16,0,0,1,.25-.86,1.32,1.32,0,0,1,1-.25,1.38,1.38,0,0,1,.94.24A1.13,1.13,0,0,1,47.38,22.55Zm-.15,9.84a.24.24,0,0,1,0,.14.45.45,0,0,1-.17.11l-.32.06-.5,0-.5,0-.32-.06a.45.45,0,0,1-.17-.11.24.24,0,0,1-.05-.14V25.06a.27.27,0,0,1,.05-.15.45.45,0,0,1,.17-.1,1.18,1.18,0,0,1,.32-.07,4.18,4.18,0,0,1,1,0,1.18,1.18,0,0,1,.32.07.45.45,0,0,1,.17.1.27.27,0,0,1,0,.15Z"/><path class="cls-1" d="M57.06,28.5a.81.81,0,0,1-.17.56.6.6,0,0,1-.46.18H52a3.13,3.13,0,0,0,.11.85,1.64,1.64,0,0,0,.36.65,1.5,1.5,0,0,0,.62.41,2.58,2.58,0,0,0,.92.14,4.59,4.59,0,0,0,1-.08,5,5,0,0,0,.71-.17l.5-.17a1,1,0,0,1,.32-.08.21.21,0,0,1,.12,0,.22.22,0,0,1,.09.1.87.87,0,0,1,0,.21c0,.09,0,.21,0,.34v.31c0,.09,0,.16,0,.22a.53.53,0,0,1,0,.15l-.08.12a1.2,1.2,0,0,1-.3.16,3.72,3.72,0,0,1-.61.19,7.07,7.07,0,0,1-.85.17,7.91,7.91,0,0,1-1,.07,5.22,5.22,0,0,1-1.71-.25,2.94,2.94,0,0,1-1.24-.75,3.17,3.17,0,0,1-.73-1.27,6,6,0,0,1-.25-1.79A5.68,5.68,0,0,1,50.1,27a3.73,3.73,0,0,1,.74-1.33A3.19,3.19,0,0,1,52,24.86a4.57,4.57,0,0,1,3.15,0,2.81,2.81,0,0,1,1.07.76,2.87,2.87,0,0,1,.62,1.14,5,5,0,0,1,.2,1.43Zm-2-.59a2.1,2.1,0,0,0-.35-1.37,1.33,1.33,0,0,0-1.16-.5,1.45,1.45,0,0,0-.68.15,1.28,1.28,0,0,0-.49.4,1.73,1.73,0,0,0-.3.59,2.86,2.86,0,0,0-.12.73Z"/><path class="cls-1" d="M68.81,31.22c0,.14,0,.26,0,.36a1.5,1.5,0,0,1,0,.24.5.5,0,0,1-.05.16.92.92,0,0,1-.12.16,2.14,2.14,0,0,1-.34.23,3.37,3.37,0,0,1-.54.24,4.37,4.37,0,0,1-.67.17,3.57,3.57,0,0,1-.74.07,4.14,4.14,0,0,1-1.5-.26,2.91,2.91,0,0,1-1.1-.78A3.53,3.53,0,0,1,63,30.55a5.8,5.8,0,0,1-.23-1.69A6,6,0,0,1,63.08,27a3.53,3.53,0,0,1,.77-1.33A3.09,3.09,0,0,1,65,24.84a4.14,4.14,0,0,1,1.48-.26,3.49,3.49,0,0,1,.65.06,4.61,4.61,0,0,1,.59.15,2.9,2.9,0,0,1,.5.23,1.48,1.48,0,0,1,.3.21.52.52,0,0,1,.13.15.38.38,0,0,1,.06.16c0,.07,0,.15,0,.25a3.16,3.16,0,0,1,0,.35,1.74,1.74,0,0,1-.09.67c0,.13-.12.19-.21.19a.58.58,0,0,1-.3-.11l-.37-.26a2.42,2.42,0,0,0-.51-.25,1.88,1.88,0,0,0-.71-.12,1.4,1.4,0,0,0-1.23.62,3.21,3.21,0,0,0-.43,1.83,4.61,4.61,0,0,0,.11,1,2.12,2.12,0,0,0,.31.76,1.37,1.37,0,0,0,.53.46,1.72,1.72,0,0,0,.74.15,1.88,1.88,0,0,0,.74-.13,2.92,2.92,0,0,0,.53-.28,4,4,0,0,0,.39-.29.48.48,0,0,1,.26-.12.17.17,0,0,1,.13,0,.35.35,0,0,1,.08.15,1.7,1.7,0,0,1,0,.28C68.8,30.89,68.81,31,68.81,31.22Z"/><path class="cls-1" d="M78.63,28.64a5.7,5.7,0,0,1-.24,1.71,3.73,3.73,0,0,1-.75,1.34,3.41,3.41,0,0,1-1.26.86,4.62,4.62,0,0,1-1.77.31,4.87,4.87,0,0,1-1.71-.27A3,3,0,0,1,71,30.52a6.09,6.09,0,0,1-.23-1.73A5.5,5.5,0,0,1,71,27.07a3.69,3.69,0,0,1,.75-1.33A3.41,3.41,0,0,1,73,24.88a4.55,4.55,0,0,1,1.77-.31,4.87,4.87,0,0,1,1.71.27,3,3,0,0,1,1.2.79,3.26,3.26,0,0,1,.7,1.27A5.82,5.82,0,0,1,78.63,28.64Zm-2.13.08a5.24,5.24,0,0,0-.09-1,2.12,2.12,0,0,0-.29-.79,1.47,1.47,0,0,0-.55-.53,1.71,1.71,0,0,0-.86-.19,1.89,1.89,0,0,0-.81.17,1.47,1.47,0,0,0-.56.49,2.48,2.48,0,0,0-.34.79,4.61,4.61,0,0,0-.11,1,5.24,5.24,0,0,0,.09,1,2.32,2.32,0,0,0,.3.79,1.38,1.38,0,0,0,.54.53,1.86,1.86,0,0,0,.86.18A1.8,1.8,0,0,0,75.5,31a1.39,1.39,0,0,0,.56-.49,2.14,2.14,0,0,0,.33-.78A4.61,4.61,0,0,0,76.5,28.72Z"/><path class="cls-1" d="M88.27,32.39a.24.24,0,0,1,0,.14.45.45,0,0,1-.17.11l-.31.06-.5,0-.51,0-.32-.06a.41.41,0,0,1-.16-.11.24.24,0,0,1,0-.14V28.2a3.6,3.6,0,0,0-.08-.84,1.6,1.6,0,0,0-.23-.53.87.87,0,0,0-.38-.33,1.18,1.18,0,0,0-.55-.12,1.34,1.34,0,0,0-.79.28,4.74,4.74,0,0,0-.84.84v4.89a.24.24,0,0,1,0,.14.45.45,0,0,1-.17.11l-.32.06-.5,0-.51,0-.31-.06a.38.38,0,0,1-.17-.11.24.24,0,0,1,0-.14V25a.23.23,0,0,1,0-.14.37.37,0,0,1,.15-.11l.27-.06.43,0,.44,0,.26.06a.33.33,0,0,1,.14.11A.23.23,0,0,1,83,25v.85a4.73,4.73,0,0,1,1.24-1,2.8,2.8,0,0,1,1.31-.33,2.88,2.88,0,0,1,1.27.25,2.2,2.2,0,0,1,.83.67,2.82,2.82,0,0,1,.46,1,6,6,0,0,1,.14,1.37Z"/><path class="cls-1" d="M96.45,30.31a2.45,2.45,0,0,1-.23,1.11,2.21,2.21,0,0,1-.67.79,2.88,2.88,0,0,1-1,.49,5.07,5.07,0,0,1-1.27.16,4.93,4.93,0,0,1-.78-.06,4.73,4.73,0,0,1-.67-.16,3.81,3.81,0,0,1-.5-.19,1.32,1.32,0,0,1-.29-.19.68.68,0,0,1-.14-.27,2.44,2.44,0,0,1,0-.55,3.47,3.47,0,0,1,0-.38,1,1,0,0,1,0-.23.23.23,0,0,1,.08-.12.28.28,0,0,1,.13,0,.58.58,0,0,1,.26.11l.44.22a3.68,3.68,0,0,0,.62.23,2.43,2.43,0,0,0,.79.11,1.9,1.9,0,0,0,.5-.06,1.32,1.32,0,0,0,.38-.16.62.62,0,0,0,.24-.27.79.79,0,0,0,.09-.38.65.65,0,0,0-.16-.43,1.46,1.46,0,0,0-.4-.31,5.15,5.15,0,0,0-.57-.24c-.21-.08-.43-.16-.65-.26a5.59,5.59,0,0,1-.65-.32,2.71,2.71,0,0,1-.57-.44,2,2,0,0,1-.4-.64,2.32,2.32,0,0,1-.16-.89,2.17,2.17,0,0,1,.8-1.72,2.94,2.94,0,0,1,.95-.49,4.34,4.34,0,0,1,1.25-.17,4.91,4.91,0,0,1,.67.05c.21,0,.41.08.59.12a2.7,2.7,0,0,1,.44.17,1.16,1.16,0,0,1,.26.14.42.42,0,0,1,.11.13.53.53,0,0,1,0,.15q0,.08,0,.21a3,3,0,0,1,0,.32c0,.14,0,.27,0,.36a1,1,0,0,1,0,.22.2.2,0,0,1-.08.11.21.21,0,0,1-.12,0,.69.69,0,0,1-.23-.08,3.6,3.6,0,0,0-.39-.19,3.1,3.1,0,0,0-.54-.18,2.55,2.55,0,0,0-.71-.09,1.75,1.75,0,0,0-.48.06.83.83,0,0,0-.34.16.79.79,0,0,0-.2.25.81.81,0,0,0-.06.31.64.64,0,0,0,.15.43,1.51,1.51,0,0,0,.42.3,4.58,4.58,0,0,0,.58.25l.66.25a5.59,5.59,0,0,1,.65.32,2.83,2.83,0,0,1,.59.44,2.54,2.54,0,0,1,.41.63A2.33,2.33,0,0,1,96.45,30.31Z"/><path class="cls-1" d="M105.78,28.5a.81.81,0,0,1-.17.56.63.63,0,0,1-.47.18h-4.47a3.13,3.13,0,0,0,.11.85,1.51,1.51,0,0,0,.35.65,1.6,1.6,0,0,0,.63.41,2.54,2.54,0,0,0,.92.14,4.49,4.49,0,0,0,.95-.08,4.8,4.8,0,0,0,.72-.17l.49-.17a1,1,0,0,1,.33-.08.21.21,0,0,1,.12,0,.21.21,0,0,1,.08.1.81.81,0,0,1,0,.21c0,.09,0,.21,0,.34a2.73,2.73,0,0,1,0,.31,1.27,1.27,0,0,1,0,.22.53.53,0,0,1-.05.15.94.94,0,0,1-.09.12.92.92,0,0,1-.29.16,3.72,3.72,0,0,1-.61.19,7.5,7.5,0,0,1-.85.17,8.17,8.17,0,0,1-1,.07,5.28,5.28,0,0,1-1.72-.25,3,3,0,0,1-1.23-.75,3.07,3.07,0,0,1-.74-1.27,6,6,0,0,1-.24-1.79A5.68,5.68,0,0,1,98.82,27a3.59,3.59,0,0,1,.74-1.33,3.11,3.11,0,0,1,1.18-.84,4.54,4.54,0,0,1,3.14,0,2.85,2.85,0,0,1,1.08.76,3,3,0,0,1,.62,1.14,5,5,0,0,1,.2,1.43Zm-2-.59a2.16,2.16,0,0,0-.35-1.37,1.34,1.34,0,0,0-1.16-.5,1.52,1.52,0,0,0-.69.15,1.35,1.35,0,0,0-.49.4,1.91,1.91,0,0,0-.29.59,2.86,2.86,0,0,0-.12.73Z"/><path class="cls-1" d="M110.69,22.55a1.13,1.13,0,0,1-.26.87,1.38,1.38,0,0,1-.94.24,1.46,1.46,0,0,1-.95-.23,1.15,1.15,0,0,1-.24-.84,1.21,1.21,0,0,1,.25-.86,1.95,1.95,0,0,1,1.89,0A1.08,1.08,0,0,1,110.69,22.55Zm-.16,9.84a.19.19,0,0,1,0,.14.33.33,0,0,1-.17.11l-.31.06-.5,0-.51,0-.31-.06a.38.38,0,0,1-.17-.11.19.19,0,0,1-.05-.14V25.06a.21.21,0,0,1,.05-.15.38.38,0,0,1,.17-.1,1.1,1.1,0,0,1,.31-.07,3.58,3.58,0,0,1,.51,0,3.43,3.43,0,0,1,.5,0,1,1,0,0,1,.31.07.33.33,0,0,1,.17.1.21.21,0,0,1,0,.15Z"/><path class="cls-1" d="M115.65,32.39a.23.23,0,0,1,0,.14.45.45,0,0,1-.17.11l-.32.06-.5,0-.51,0-.31-.06a.38.38,0,0,1-.17-.11.24.24,0,0,1,0-.14V21.56a.25.25,0,0,1,0-.15.32.32,0,0,1,.17-.11,1.1,1.1,0,0,1,.31-.07,3.58,3.58,0,0,1,.51,0,3.43,3.43,0,0,1,.5,0,1.18,1.18,0,0,1,.32.07.36.36,0,0,1,.17.11.24.24,0,0,1,0,.15Z"/></g></g></svg>