<svg id="layer" xmlns="http://www.w3.org/2000/svg" viewBox="0 0 410 560"><defs><style>.cls-1{fill:#d21129;}.cls-2{fill:#003d89;}</style></defs><path class="cls-1" d="M255.55,329.1l.6-.4.6.4,55.8,33.5v60.9l-56.1,32.8-57.2-31.9V361l56.3-31.9Zm124.9,181.8H61.35l109.5-63.8L256,494.4l.2-.4.6,1,89.1-52-.3-.4h.6V345l34.3-20V302.8l-52,30.3-16.3-9.8,68.3-39.8V261.3L293.35,312l-17.8-10.7-18.3-11.1-.2-.3-.1-.2-9.1,5.2-33.6,19L166.45,341h-.8v86.8l-137,79.8V530h351.8V510.9Z"/><path class="cls-1" d="M157.55,412.6l-18.9-10.5-110,64.1v20.2l.9,1.5,128.6-75-.4-.7Z"/><path class="cls-2" d="M275.65,301.2l104.8-61V218l-123.4,71.8.2.4ZM61.75,141.3c2.4,0,4.8-.4,7.2-.5V116.5h-1.8c-6.8,0-10.2-7.6-10.2-13.3,0-7.6,4.1-12.6,12-13V67c-1.9-.1-3.7-.3-5.6-.3-20.7,0-33.8,17.4-33.8,37.1,0,19.1,11.5,37.5,32.2,37.5m51-54.7c6.4,0,7.3,10.1,7.3,17.4s-.9,17.4-7.3,17.4-7.3-10.1-7.3-17.4.9-17.4,7.3-17.4m0,54.7c23,0,33.4-17.3,33.4-37.4s-10.5-37.4-33.4-37.4-33.4,17.3-33.4,37.4,10.4,37.4,33.4,37.4m49.3-1.5h26.6V89.4h9.5V68.1h-9.5V64.7c0-6.7.1-10.6,4.1-10.6,2,0,3.8,1.2,5.4,2.5V31.9a47.38,47.38,0,0,0-12.9-1.9c-15.5,0-23.2,10.9-23.2,29.8v8.3h-7.8V89.4H162v50.4Zm74-29c0-7.5,1.2-17,11.1-17,1.9,0,5,1.4,7.5,2.6V66.6c-9.9-.4-16.7,6.7-19.7,15.5l-.3-.3,1.5-13.7h-26.8v71.8H236V110.8Zm56-15.1c.8-3.9,2.3-7.2,5.6-7.2,3.1,0,4.5,2.7,5.2,5.8a40.42,40.42,0,0,1,.5,8.7,48.15,48.15,0,0,1-.8,9.8c-.7,3.5-2.3,6.5-5.7,6.5-2.6,0-3.9-2.2-4.6-4.9a35.93,35.93,0,0,1-.8-8.2,51.54,51.54,0,0,1,.6-10.5M286,141.3c8.7,0,15-6,18.3-13.6l.3.3-1.2,11.8H330V68h-27.1L304,79l-.3.3c-3.4-7.1-8.7-12.8-17.3-12.8-18.3,0-22.6,22.6-22.6,36.7.2,14.1,3.7,38.1,22.2,38.1m87.5,0c2.4,0,4.7-.4,7.2-.5V116.5h-1.8c-6.8,0-10.2-7.6-10.2-13.3,0-7.6,4.1-12.6,12-13V67c-1.9-.1-3.7-.3-5.6-.3-20.7,0-33.8,17.4-33.8,37.1,0,19.1,11.6,37.5,32.2,37.5"/><path class="cls-2" d="M158.15,374.5l-57.3-31.9V279.2l56.4-31.9.6-.4.6.4,55.8,33.5v33.1l33.6-19v-19l132.6-77.3V171.8H28.35V191h327.1L241,257.7l-82.1-49.4-.2-.5-90.6,51.4h-.7v99.7l-38.7,22.5v22.2l55.1-32.1,16.8,9.4-71.9,41.8v20.2l.9,1.5,90.5-52.7,18.6,10.4,18.9,10.5.2-.4.4.7.2.3,7.3-4.2V370.1Z"/></svg>